M48
; DRILL file {KiCad 9.0.3} date 2025-08-28T22:31:07-0400
; FORMAT={-:-/ absolute / metric / decimal}
; #@! TF.CreationDate,2025-08-28T22:31:07-04:00
; #@! TF.GenerationSoftware,Kicad,Pcbnew,9.0.3
; #@! TF.FileFunction,Plated,1,4,PTH
FMAT,2
METRIC
; #@! TA.AperFunction,Plated,PTH,ViaDrill
T1C0.300
; #@! TA.AperFunction,Plated,PTH,ComponentDrill
T2C0.800
; #@! TA.AperFunction,Plated,PTH,ComponentDrill
T3C1.000
; #@! TA.AperFunction,Plated,PTH,ComponentDrill
T4C1.100
%
G90
G05
T1
X26.0Y-37.792
X32.0Y-28.793
X46.0Y-48.792
X53.0Y-34.792
X55.0Y-34.792
X70.0Y-29.793
X71.0Y-48.792
X74.0Y-24.793
X74.0Y-28.793
X82.0Y-39.792
X96.0Y-48.792
T2
X17.0Y-24.0
X17.0Y-28.793
X19.5Y-24.0
X19.5Y-28.793
X24.38Y-24.793
X24.38Y-32.792
X32.0Y-24.793
X32.0Y-32.792
X35.03Y-22.977
X35.03Y-30.598
X37.57Y-22.977
X37.57Y-30.598
X40.11Y-22.977
X40.11Y-30.598
X41.84Y-36.792
X41.84Y-52.032
X42.65Y-22.977
X42.65Y-30.598
X44.38Y-36.792
X44.38Y-52.032
X45.19Y-22.977
X45.19Y-30.598
X46.92Y-36.792
X46.92Y-52.032
X47.73Y-22.977
X47.73Y-30.598
X49.46Y-36.792
X49.46Y-52.032
X50.27Y-22.977
X50.27Y-30.598
X52.0Y-36.792
X52.0Y-52.032
X52.81Y-22.977
X52.81Y-30.598
X55.35Y-22.977
X55.35Y-30.598
X57.89Y-22.977
X57.89Y-30.598
X60.43Y-22.977
X60.43Y-30.598
X62.97Y-22.977
X62.97Y-30.598
X68.0Y-36.792
X68.0Y-52.032
X70.54Y-36.792
X70.54Y-52.032
X73.08Y-36.792
X73.08Y-52.032
X75.62Y-36.792
X75.62Y-52.032
X78.16Y-36.792
X78.16Y-52.032
X82.0Y-18.0
X82.0Y-21.793
X82.0Y-25.793
X89.62Y-18.0
X89.62Y-21.793
X89.62Y-25.793
X94.0Y-36.792
X94.0Y-52.032
X96.54Y-36.792
X96.54Y-52.032
X99.08Y-36.792
X99.08Y-52.032
X101.62Y-36.792
X101.62Y-52.032
X104.16Y-36.792
X104.16Y-52.032
X120.0Y-36.807
X120.0Y-52.047
X122.54Y-36.807
X122.54Y-52.047
X125.08Y-36.807
X125.08Y-52.047
X127.62Y-36.807
X127.62Y-52.047
X130.16Y-36.807
X130.16Y-52.047
T3
X17.0Y-33.792
X17.0Y-36.332
X17.0Y-38.872
X17.0Y-41.413
X17.0Y-43.953
X17.0Y-46.492
X17.0Y-49.032
X17.0Y-51.572
T4
X103.0Y-17.75
X103.0Y-22.25
X109.5Y-17.75
X109.5Y-22.25
X113.75Y-17.75
X113.75Y-22.25
X120.25Y-17.75
X120.25Y-22.25
X124.75Y-17.75
X124.75Y-22.25
X131.25Y-17.75
X131.25Y-22.25
M30
