%TF.GenerationSoftware,KiCad,Pcbnew,9.0.7*%
%TF.CreationDate,2026-03-11T11:46:47-04:00*%
%TF.ProjectId,shiftclock-5.0,73686966-7463-46c6-9f63-6b2d352e302e,rev?*%
%TF.SameCoordinates,Original*%
%TF.FileFunction,Drillmap*%
%TF.FilePolarity,Positive*%
%FSLAX45Y45*%
G04 Gerber Fmt 4.5, Leading zero omitted, Abs format (unit mm)*
G04 Created by KiCad (PCBNEW 9.0.7) date 2026-03-11 11:46:47*
%MOMM*%
%LPD*%
G01*
G04 APERTURE LIST*
%ADD10C,0.038100*%
%ADD11C,0.200000*%
%ADD12C,0.100000*%
G04 APERTURE END LIST*
D10*
X2300000Y-4550000D02*
X14795000Y-4550000D01*
X14795000Y-6650000D01*
X2300000Y-6650000D01*
X2300000Y-4550000D01*
D11*
D12*
X3178000Y-5535000D02*
X3208000Y-5565000D01*
X3208000Y-5535000D02*
X3178000Y-5565000D01*
X3178000Y-5928000D02*
X3208000Y-5958000D01*
X3208000Y-5928000D02*
X3178000Y-5958000D01*
X3685000Y-6185000D02*
X3715000Y-6215000D01*
X3715000Y-6185000D02*
X3685000Y-6215000D01*
X3785000Y-6185000D02*
X3815000Y-6215000D01*
X3815000Y-6185000D02*
X3785000Y-6215000D01*
X3835000Y-6535000D02*
X3865000Y-6565000D01*
X3865000Y-6535000D02*
X3835000Y-6565000D01*
X3885000Y-6485000D02*
X3915000Y-6515000D01*
X3915000Y-6485000D02*
X3885000Y-6515000D01*
X6316752Y-5734498D02*
X6346752Y-5764498D01*
X6346752Y-5734498D02*
X6316752Y-5764498D01*
X6366250Y-5685000D02*
X6396250Y-5715000D01*
X6396250Y-5685000D02*
X6366250Y-5715000D01*
X6485000Y-5335000D02*
X6515000Y-5365000D01*
X6515000Y-5335000D02*
X6485000Y-5365000D01*
X6485000Y-5435000D02*
X6515000Y-5465000D01*
X6515000Y-5435000D02*
X6485000Y-5465000D01*
X6585000Y-5635000D02*
X6615000Y-5665000D01*
X6615000Y-5635000D02*
X6585000Y-5665000D01*
X6785000Y-6035000D02*
X6815000Y-6065000D01*
X6815000Y-6035000D02*
X6785000Y-6065000D01*
X6935000Y-6285000D02*
X6965000Y-6315000D01*
X6965000Y-6285000D02*
X6935000Y-6315000D01*
X7585000Y-5685000D02*
X7615000Y-5715000D01*
X7615000Y-5685000D02*
X7585000Y-5715000D01*
X8085000Y-5935000D02*
X8115000Y-5965000D01*
X8115000Y-5935000D02*
X8085000Y-5965000D01*
X8135000Y-5735000D02*
X8165000Y-5765000D01*
X8165000Y-5735000D02*
X8135000Y-5765000D01*
X8235000Y-5786407D02*
X8265000Y-5816407D01*
X8265000Y-5786407D02*
X8235000Y-5816407D01*
X8285000Y-5335000D02*
X8315000Y-5365000D01*
X8315000Y-5335000D02*
X8285000Y-5365000D01*
X8335000Y-6085000D02*
X8365000Y-6115000D01*
X8365000Y-6085000D02*
X8335000Y-6115000D01*
X8385000Y-5285000D02*
X8415000Y-5315000D01*
X8415000Y-5285000D02*
X8385000Y-5315000D01*
X8385000Y-5885000D02*
X8415000Y-5915000D01*
X8415000Y-5885000D02*
X8385000Y-5915000D01*
X8485000Y-5835850D02*
X8515000Y-5865850D01*
X8515000Y-5835850D02*
X8485000Y-5865850D01*
X9855000Y-5865000D02*
X9885000Y-5895000D01*
X9885000Y-5865000D02*
X9855000Y-5895000D01*
X9985000Y-5585000D02*
X10015000Y-5615000D01*
X10015000Y-5585000D02*
X9985000Y-5615000D01*
X10435000Y-5535000D02*
X10465000Y-5565000D01*
X10465000Y-5535000D02*
X10435000Y-5565000D01*
X10535000Y-5435000D02*
X10565000Y-5465000D01*
X10565000Y-5435000D02*
X10535000Y-5465000D01*
X10635000Y-4985000D02*
X10665000Y-5015000D01*
X10665000Y-4985000D02*
X10635000Y-5015000D01*
X10635000Y-6085000D02*
X10665000Y-6115000D01*
X10665000Y-6085000D02*
X10635000Y-6115000D01*
X10685000Y-5435000D02*
X10715000Y-5465000D01*
X10715000Y-5435000D02*
X10685000Y-5465000D01*
X10760000Y-5810000D02*
X10790000Y-5840000D01*
X10790000Y-5810000D02*
X10760000Y-5840000D01*
X10885000Y-5985000D02*
X10915000Y-6015000D01*
X10915000Y-5985000D02*
X10885000Y-6015000D01*
X11135000Y-5935000D02*
X11165000Y-5965000D01*
X11165000Y-5935000D02*
X11135000Y-5965000D01*
X11285000Y-5385000D02*
X11315000Y-5415000D01*
X11315000Y-5385000D02*
X11285000Y-5415000D01*
X11335000Y-5885000D02*
X11365000Y-5915000D01*
X11365000Y-5885000D02*
X11335000Y-5915000D01*
X11435000Y-5835000D02*
X11465000Y-5865000D01*
X11465000Y-5835000D02*
X11435000Y-5865000D01*
X11583141Y-5435950D02*
X11613141Y-5465950D01*
X11613141Y-5435950D02*
X11583141Y-5465950D01*
X11585000Y-5935457D02*
X11615000Y-5965457D01*
X11615000Y-5935457D02*
X11585000Y-5965457D01*
X11635000Y-5385000D02*
X11665000Y-5415000D01*
X11665000Y-5385000D02*
X11635000Y-5415000D01*
X11685000Y-5935457D02*
X11715000Y-5965457D01*
X11715000Y-5935457D02*
X11685000Y-5965457D01*
X12135000Y-5885000D02*
X12165000Y-5915000D01*
X12165000Y-5885000D02*
X12135000Y-5915000D01*
X12335000Y-6035000D02*
X12365000Y-6065000D01*
X12365000Y-6035000D02*
X12335000Y-6065000D01*
X13385000Y-5335000D02*
X13415000Y-5365000D01*
X13415000Y-5335000D02*
X13385000Y-5365000D01*
X13385000Y-5435000D02*
X13415000Y-5465000D01*
X13415000Y-5435000D02*
X13385000Y-5465000D01*
X13385000Y-5535000D02*
X13415000Y-5565000D01*
X13415000Y-5535000D02*
X13385000Y-5565000D01*
X13385000Y-6235000D02*
X13415000Y-6265000D01*
X13415000Y-6235000D02*
X13385000Y-6265000D01*
X13385000Y-6335000D02*
X13415000Y-6365000D01*
X13415000Y-6335000D02*
X13385000Y-6365000D01*
X8645000Y-5845000D02*
G75*
G02*
X8615000Y-5845000I-15000J0D01*
G01*
X8615000Y-5845000D02*
G75*
G02*
X8645000Y-5845000I15000J0D01*
G01*
X8645000Y-5955000D02*
G75*
G02*
X8615000Y-5955000I-15000J0D01*
G01*
X8615000Y-5955000D02*
G75*
G02*
X8645000Y-5955000I15000J0D01*
G01*
X8700000Y-5790000D02*
G75*
G02*
X8670000Y-5790000I-15000J0D01*
G01*
X8670000Y-5790000D02*
G75*
G02*
X8700000Y-5790000I15000J0D01*
G01*
X8700000Y-5900000D02*
G75*
G02*
X8670000Y-5900000I-15000J0D01*
G01*
X8670000Y-5900000D02*
G75*
G02*
X8700000Y-5900000I15000J0D01*
G01*
X8700000Y-6010000D02*
G75*
G02*
X8670000Y-6010000I-15000J0D01*
G01*
X8670000Y-6010000D02*
G75*
G02*
X8700000Y-6010000I15000J0D01*
G01*
X8755000Y-5845000D02*
G75*
G02*
X8725000Y-5845000I-15000J0D01*
G01*
X8725000Y-5845000D02*
G75*
G02*
X8755000Y-5845000I15000J0D01*
G01*
X8755000Y-5955000D02*
G75*
G02*
X8725000Y-5955000I-15000J0D01*
G01*
X8725000Y-5955000D02*
G75*
G02*
X8755000Y-5955000I15000J0D01*
G01*
X8810000Y-5790000D02*
G75*
G02*
X8780000Y-5790000I-15000J0D01*
G01*
X8780000Y-5790000D02*
G75*
G02*
X8810000Y-5790000I15000J0D01*
G01*
X8810000Y-5900000D02*
G75*
G02*
X8780000Y-5900000I-15000J0D01*
G01*
X8780000Y-5900000D02*
G75*
G02*
X8810000Y-5900000I15000J0D01*
G01*
X8810000Y-6010000D02*
G75*
G02*
X8780000Y-6010000I-15000J0D01*
G01*
X8780000Y-6010000D02*
G75*
G02*
X8810000Y-6010000I15000J0D01*
G01*
X8865000Y-5845000D02*
G75*
G02*
X8835000Y-5845000I-15000J0D01*
G01*
X8835000Y-5845000D02*
G75*
G02*
X8865000Y-5845000I15000J0D01*
G01*
X8865000Y-5955000D02*
G75*
G02*
X8835000Y-5955000I-15000J0D01*
G01*
X8835000Y-5955000D02*
G75*
G02*
X8865000Y-5955000I15000J0D01*
G01*
X2613500Y-5656000D02*
X2613500Y-5716000D01*
X2583500Y-5686000D02*
X2643500Y-5686000D01*
X2573500Y-5716000D02*
X2653500Y-5716000D01*
X2653500Y-5656000D02*
G75*
G02*
X2653500Y-5716000I0J-30000D01*
G01*
X2653500Y-5656000D02*
X2573500Y-5656000D01*
X2573500Y-5656000D02*
G75*
G03*
X2573500Y-5716000I0J-30000D01*
G01*
X2613500Y-6520000D02*
X2613500Y-6580000D01*
X2583500Y-6550000D02*
X2643500Y-6550000D01*
X2573500Y-6580000D02*
X2653500Y-6580000D01*
X2653500Y-6520000D02*
G75*
G02*
X2653500Y-6580000I0J-30000D01*
G01*
X2653500Y-6520000D02*
X2573500Y-6520000D01*
X2573500Y-6520000D02*
G75*
G03*
X2573500Y-6580000I0J-30000D01*
G01*
X3030500Y-5656000D02*
X3030500Y-5716000D01*
X3000500Y-5686000D02*
X3060500Y-5686000D01*
X2975500Y-5716000D02*
X3085500Y-5716000D01*
X3085500Y-5656000D02*
G75*
G02*
X3085500Y-5716000I0J-30000D01*
G01*
X3085500Y-5656000D02*
X2975500Y-5656000D01*
X2975500Y-5656000D02*
G75*
G03*
X2975500Y-5716000I0J-30000D01*
G01*
X3030500Y-6520000D02*
X3030500Y-6580000D01*
X3000500Y-6550000D02*
X3060500Y-6550000D01*
X2975500Y-6580000D02*
X3085500Y-6580000D01*
X3085500Y-6520000D02*
G75*
G02*
X3085500Y-6580000I0J-30000D01*
G01*
X3085500Y-6520000D02*
X2975500Y-6520000D01*
X2975500Y-6520000D02*
G75*
G03*
X2975500Y-6580000I0J-30000D01*
G01*
X5750356Y-4936356D02*
X5750356Y-4865644D01*
X5679644Y-4865644D01*
X5679644Y-4936356D01*
X5750356Y-4936356D01*
X5750356Y-6460356D02*
X5750356Y-6389644D01*
X5679644Y-6389644D01*
X5679644Y-6460356D01*
X5750356Y-6460356D01*
X6004356Y-4936356D02*
X6004356Y-4865644D01*
X5933644Y-4865644D01*
X5933644Y-4936356D01*
X6004356Y-4936356D01*
X6004356Y-6460356D02*
X6004356Y-6389644D01*
X5933644Y-6389644D01*
X5933644Y-6460356D01*
X6004356Y-6460356D01*
X6258356Y-4936356D02*
X6258356Y-4865644D01*
X6187644Y-4865644D01*
X6187644Y-4936356D01*
X6258356Y-4936356D01*
X6258356Y-6460356D02*
X6258356Y-6389644D01*
X6187644Y-6389644D01*
X6187644Y-6460356D01*
X6258356Y-6460356D01*
X6512356Y-4936356D02*
X6512356Y-4865644D01*
X6441644Y-4865644D01*
X6441644Y-4936356D01*
X6512356Y-4936356D01*
X6512356Y-6460356D02*
X6512356Y-6389644D01*
X6441644Y-6389644D01*
X6441644Y-6460356D01*
X6512356Y-6460356D01*
X6766356Y-4936356D02*
X6766356Y-4865644D01*
X6695644Y-4865644D01*
X6695644Y-4936356D01*
X6766356Y-4936356D01*
X6766356Y-6460356D02*
X6766356Y-6389644D01*
X6695644Y-6389644D01*
X6695644Y-6460356D01*
X6766356Y-6460356D01*
X7020356Y-4936356D02*
X7020356Y-4865644D01*
X6949644Y-4865644D01*
X6949644Y-4936356D01*
X7020356Y-4936356D01*
X7020356Y-6460356D02*
X7020356Y-6389644D01*
X6949644Y-6389644D01*
X6949644Y-6460356D01*
X7020356Y-6460356D01*
X10835356Y-4936356D02*
X10835356Y-4865644D01*
X10764644Y-4865644D01*
X10764644Y-4936356D01*
X10835356Y-4936356D01*
X10835356Y-6460356D02*
X10835356Y-6389644D01*
X10764644Y-6389644D01*
X10764644Y-6460356D01*
X10835356Y-6460356D01*
X11089356Y-4936356D02*
X11089356Y-4865644D01*
X11018644Y-4865644D01*
X11018644Y-4936356D01*
X11089356Y-4936356D01*
X11089356Y-6460356D02*
X11089356Y-6389644D01*
X11018644Y-6389644D01*
X11018644Y-6460356D01*
X11089356Y-6460356D01*
X11343356Y-4936356D02*
X11343356Y-4865644D01*
X11272644Y-4865644D01*
X11272644Y-4936356D01*
X11343356Y-4936356D01*
X11343356Y-6460356D02*
X11343356Y-6389644D01*
X11272644Y-6389644D01*
X11272644Y-6460356D01*
X11343356Y-6460356D01*
X11597356Y-4936356D02*
X11597356Y-4865644D01*
X11526644Y-4865644D01*
X11526644Y-4936356D01*
X11597356Y-4936356D01*
X11597356Y-6460356D02*
X11597356Y-6389644D01*
X11526644Y-6389644D01*
X11526644Y-6460356D01*
X11597356Y-6460356D01*
X11851356Y-4936356D02*
X11851356Y-4865644D01*
X11780644Y-4865644D01*
X11780644Y-4936356D01*
X11851356Y-4936356D01*
X11851356Y-6460356D02*
X11851356Y-6389644D01*
X11780644Y-6389644D01*
X11780644Y-6460356D01*
X11851356Y-6460356D01*
X12105356Y-4936356D02*
X12105356Y-4865644D01*
X12034644Y-4865644D01*
X12034644Y-4936356D01*
X12105356Y-4936356D01*
X12105356Y-6460356D02*
X12105356Y-6389644D01*
X12034644Y-6389644D01*
X12034644Y-6460356D01*
X12105356Y-6460356D01*
X14185356Y-5435356D02*
X14185356Y-5364644D01*
X14114644Y-5364644D01*
X14114644Y-5435356D01*
X14185356Y-5435356D01*
X14185356Y-5935356D02*
X14185356Y-5864644D01*
X14114644Y-5864644D01*
X14114644Y-5935356D01*
X14185356Y-5935356D01*
X14685356Y-5685356D02*
X14685356Y-5614644D01*
X14614644Y-5614644D01*
X14614644Y-5685356D01*
X14685356Y-5685356D01*
D11*
X2558872Y-6963389D02*
X2558872Y-6763389D01*
X2558872Y-6763389D02*
X2606491Y-6763389D01*
X2606491Y-6763389D02*
X2635062Y-6772913D01*
X2635062Y-6772913D02*
X2654110Y-6791960D01*
X2654110Y-6791960D02*
X2663634Y-6811008D01*
X2663634Y-6811008D02*
X2673158Y-6849103D01*
X2673158Y-6849103D02*
X2673158Y-6877674D01*
X2673158Y-6877674D02*
X2663634Y-6915770D01*
X2663634Y-6915770D02*
X2654110Y-6934817D01*
X2654110Y-6934817D02*
X2635062Y-6953865D01*
X2635062Y-6953865D02*
X2606491Y-6963389D01*
X2606491Y-6963389D02*
X2558872Y-6963389D01*
X2758872Y-6963389D02*
X2758872Y-6830055D01*
X2758872Y-6868151D02*
X2768396Y-6849103D01*
X2768396Y-6849103D02*
X2777919Y-6839579D01*
X2777919Y-6839579D02*
X2796967Y-6830055D01*
X2796967Y-6830055D02*
X2816015Y-6830055D01*
X2882681Y-6963389D02*
X2882681Y-6830055D01*
X2882681Y-6763389D02*
X2873157Y-6772913D01*
X2873157Y-6772913D02*
X2882681Y-6782436D01*
X2882681Y-6782436D02*
X2892205Y-6772913D01*
X2892205Y-6772913D02*
X2882681Y-6763389D01*
X2882681Y-6763389D02*
X2882681Y-6782436D01*
X3006491Y-6963389D02*
X2987443Y-6953865D01*
X2987443Y-6953865D02*
X2977919Y-6934817D01*
X2977919Y-6934817D02*
X2977919Y-6763389D01*
X3111253Y-6963389D02*
X3092205Y-6953865D01*
X3092205Y-6953865D02*
X3082681Y-6934817D01*
X3082681Y-6934817D02*
X3082681Y-6763389D01*
X3339824Y-6963389D02*
X3339824Y-6763389D01*
X3339824Y-6763389D02*
X3406491Y-6906246D01*
X3406491Y-6906246D02*
X3473157Y-6763389D01*
X3473157Y-6763389D02*
X3473157Y-6963389D01*
X3654110Y-6963389D02*
X3654110Y-6858627D01*
X3654110Y-6858627D02*
X3644586Y-6839579D01*
X3644586Y-6839579D02*
X3625538Y-6830055D01*
X3625538Y-6830055D02*
X3587443Y-6830055D01*
X3587443Y-6830055D02*
X3568396Y-6839579D01*
X3654110Y-6953865D02*
X3635062Y-6963389D01*
X3635062Y-6963389D02*
X3587443Y-6963389D01*
X3587443Y-6963389D02*
X3568396Y-6953865D01*
X3568396Y-6953865D02*
X3558872Y-6934817D01*
X3558872Y-6934817D02*
X3558872Y-6915770D01*
X3558872Y-6915770D02*
X3568396Y-6896722D01*
X3568396Y-6896722D02*
X3587443Y-6887198D01*
X3587443Y-6887198D02*
X3635062Y-6887198D01*
X3635062Y-6887198D02*
X3654110Y-6877674D01*
X3749348Y-6830055D02*
X3749348Y-7030055D01*
X3749348Y-6839579D02*
X3768396Y-6830055D01*
X3768396Y-6830055D02*
X3806491Y-6830055D01*
X3806491Y-6830055D02*
X3825538Y-6839579D01*
X3825538Y-6839579D02*
X3835062Y-6849103D01*
X3835062Y-6849103D02*
X3844586Y-6868151D01*
X3844586Y-6868151D02*
X3844586Y-6925293D01*
X3844586Y-6925293D02*
X3835062Y-6944341D01*
X3835062Y-6944341D02*
X3825538Y-6953865D01*
X3825538Y-6953865D02*
X3806491Y-6963389D01*
X3806491Y-6963389D02*
X3768396Y-6963389D01*
X3768396Y-6963389D02*
X3749348Y-6953865D01*
X3930300Y-6944341D02*
X3939824Y-6953865D01*
X3939824Y-6953865D02*
X3930300Y-6963389D01*
X3930300Y-6963389D02*
X3920777Y-6953865D01*
X3920777Y-6953865D02*
X3930300Y-6944341D01*
X3930300Y-6944341D02*
X3930300Y-6963389D01*
X3930300Y-6839579D02*
X3939824Y-6849103D01*
X3939824Y-6849103D02*
X3930300Y-6858627D01*
X3930300Y-6858627D02*
X3920777Y-6849103D01*
X3920777Y-6849103D02*
X3930300Y-6839579D01*
X3930300Y-6839579D02*
X3930300Y-6858627D01*
D12*
X2268095Y-7276905D02*
X2298095Y-7306905D01*
X2298095Y-7276905D02*
X2268095Y-7306905D01*
D11*
X2596967Y-7183389D02*
X2616015Y-7183389D01*
X2616015Y-7183389D02*
X2635062Y-7192913D01*
X2635062Y-7192913D02*
X2644586Y-7202436D01*
X2644586Y-7202436D02*
X2654110Y-7221484D01*
X2654110Y-7221484D02*
X2663634Y-7259579D01*
X2663634Y-7259579D02*
X2663634Y-7307198D01*
X2663634Y-7307198D02*
X2654110Y-7345293D01*
X2654110Y-7345293D02*
X2644586Y-7364341D01*
X2644586Y-7364341D02*
X2635062Y-7373865D01*
X2635062Y-7373865D02*
X2616015Y-7383389D01*
X2616015Y-7383389D02*
X2596967Y-7383389D01*
X2596967Y-7383389D02*
X2577919Y-7373865D01*
X2577919Y-7373865D02*
X2568396Y-7364341D01*
X2568396Y-7364341D02*
X2558872Y-7345293D01*
X2558872Y-7345293D02*
X2549348Y-7307198D01*
X2549348Y-7307198D02*
X2549348Y-7259579D01*
X2549348Y-7259579D02*
X2558872Y-7221484D01*
X2558872Y-7221484D02*
X2568396Y-7202436D01*
X2568396Y-7202436D02*
X2577919Y-7192913D01*
X2577919Y-7192913D02*
X2596967Y-7183389D01*
X2749348Y-7364341D02*
X2758872Y-7373865D01*
X2758872Y-7373865D02*
X2749348Y-7383389D01*
X2749348Y-7383389D02*
X2739824Y-7373865D01*
X2739824Y-7373865D02*
X2749348Y-7364341D01*
X2749348Y-7364341D02*
X2749348Y-7383389D01*
X2825538Y-7183389D02*
X2949348Y-7183389D01*
X2949348Y-7183389D02*
X2882681Y-7259579D01*
X2882681Y-7259579D02*
X2911253Y-7259579D01*
X2911253Y-7259579D02*
X2930300Y-7269103D01*
X2930300Y-7269103D02*
X2939824Y-7278627D01*
X2939824Y-7278627D02*
X2949348Y-7297674D01*
X2949348Y-7297674D02*
X2949348Y-7345293D01*
X2949348Y-7345293D02*
X2939824Y-7364341D01*
X2939824Y-7364341D02*
X2930300Y-7373865D01*
X2930300Y-7373865D02*
X2911253Y-7383389D01*
X2911253Y-7383389D02*
X2854110Y-7383389D01*
X2854110Y-7383389D02*
X2835062Y-7373865D01*
X2835062Y-7373865D02*
X2825538Y-7364341D01*
X3073157Y-7183389D02*
X3092205Y-7183389D01*
X3092205Y-7183389D02*
X3111253Y-7192913D01*
X3111253Y-7192913D02*
X3120777Y-7202436D01*
X3120777Y-7202436D02*
X3130300Y-7221484D01*
X3130300Y-7221484D02*
X3139824Y-7259579D01*
X3139824Y-7259579D02*
X3139824Y-7307198D01*
X3139824Y-7307198D02*
X3130300Y-7345293D01*
X3130300Y-7345293D02*
X3120777Y-7364341D01*
X3120777Y-7364341D02*
X3111253Y-7373865D01*
X3111253Y-7373865D02*
X3092205Y-7383389D01*
X3092205Y-7383389D02*
X3073157Y-7383389D01*
X3073157Y-7383389D02*
X3054110Y-7373865D01*
X3054110Y-7373865D02*
X3044586Y-7364341D01*
X3044586Y-7364341D02*
X3035062Y-7345293D01*
X3035062Y-7345293D02*
X3025538Y-7307198D01*
X3025538Y-7307198D02*
X3025538Y-7259579D01*
X3025538Y-7259579D02*
X3035062Y-7221484D01*
X3035062Y-7221484D02*
X3044586Y-7202436D01*
X3044586Y-7202436D02*
X3054110Y-7192913D01*
X3054110Y-7192913D02*
X3073157Y-7183389D01*
X3263634Y-7183389D02*
X3282681Y-7183389D01*
X3282681Y-7183389D02*
X3301729Y-7192913D01*
X3301729Y-7192913D02*
X3311253Y-7202436D01*
X3311253Y-7202436D02*
X3320777Y-7221484D01*
X3320777Y-7221484D02*
X3330300Y-7259579D01*
X3330300Y-7259579D02*
X3330300Y-7307198D01*
X3330300Y-7307198D02*
X3320777Y-7345293D01*
X3320777Y-7345293D02*
X3311253Y-7364341D01*
X3311253Y-7364341D02*
X3301729Y-7373865D01*
X3301729Y-7373865D02*
X3282681Y-7383389D01*
X3282681Y-7383389D02*
X3263634Y-7383389D01*
X3263634Y-7383389D02*
X3244586Y-7373865D01*
X3244586Y-7373865D02*
X3235062Y-7364341D01*
X3235062Y-7364341D02*
X3225538Y-7345293D01*
X3225538Y-7345293D02*
X3216015Y-7307198D01*
X3216015Y-7307198D02*
X3216015Y-7259579D01*
X3216015Y-7259579D02*
X3225538Y-7221484D01*
X3225538Y-7221484D02*
X3235062Y-7202436D01*
X3235062Y-7202436D02*
X3244586Y-7192913D01*
X3244586Y-7192913D02*
X3263634Y-7183389D01*
X3416015Y-7383389D02*
X3416015Y-7250055D01*
X3416015Y-7269103D02*
X3425538Y-7259579D01*
X3425538Y-7259579D02*
X3444586Y-7250055D01*
X3444586Y-7250055D02*
X3473158Y-7250055D01*
X3473158Y-7250055D02*
X3492205Y-7259579D01*
X3492205Y-7259579D02*
X3501729Y-7278627D01*
X3501729Y-7278627D02*
X3501729Y-7383389D01*
X3501729Y-7278627D02*
X3511253Y-7259579D01*
X3511253Y-7259579D02*
X3530300Y-7250055D01*
X3530300Y-7250055D02*
X3558872Y-7250055D01*
X3558872Y-7250055D02*
X3577919Y-7259579D01*
X3577919Y-7259579D02*
X3587443Y-7278627D01*
X3587443Y-7278627D02*
X3587443Y-7383389D01*
X3682681Y-7383389D02*
X3682681Y-7250055D01*
X3682681Y-7269103D02*
X3692205Y-7259579D01*
X3692205Y-7259579D02*
X3711253Y-7250055D01*
X3711253Y-7250055D02*
X3739824Y-7250055D01*
X3739824Y-7250055D02*
X3758872Y-7259579D01*
X3758872Y-7259579D02*
X3768396Y-7278627D01*
X3768396Y-7278627D02*
X3768396Y-7383389D01*
X3768396Y-7278627D02*
X3777919Y-7259579D01*
X3777919Y-7259579D02*
X3796967Y-7250055D01*
X3796967Y-7250055D02*
X3825538Y-7250055D01*
X3825538Y-7250055D02*
X3844586Y-7259579D01*
X3844586Y-7259579D02*
X3854110Y-7278627D01*
X3854110Y-7278627D02*
X3854110Y-7383389D01*
X4244586Y-7173865D02*
X4073158Y-7431008D01*
X4501729Y-7183389D02*
X4520777Y-7183389D01*
X4520777Y-7183389D02*
X4539824Y-7192913D01*
X4539824Y-7192913D02*
X4549348Y-7202436D01*
X4549348Y-7202436D02*
X4558872Y-7221484D01*
X4558872Y-7221484D02*
X4568396Y-7259579D01*
X4568396Y-7259579D02*
X4568396Y-7307198D01*
X4568396Y-7307198D02*
X4558872Y-7345293D01*
X4558872Y-7345293D02*
X4549348Y-7364341D01*
X4549348Y-7364341D02*
X4539824Y-7373865D01*
X4539824Y-7373865D02*
X4520777Y-7383389D01*
X4520777Y-7383389D02*
X4501729Y-7383389D01*
X4501729Y-7383389D02*
X4482682Y-7373865D01*
X4482682Y-7373865D02*
X4473158Y-7364341D01*
X4473158Y-7364341D02*
X4463634Y-7345293D01*
X4463634Y-7345293D02*
X4454110Y-7307198D01*
X4454110Y-7307198D02*
X4454110Y-7259579D01*
X4454110Y-7259579D02*
X4463634Y-7221484D01*
X4463634Y-7221484D02*
X4473158Y-7202436D01*
X4473158Y-7202436D02*
X4482682Y-7192913D01*
X4482682Y-7192913D02*
X4501729Y-7183389D01*
X4654110Y-7364341D02*
X4663634Y-7373865D01*
X4663634Y-7373865D02*
X4654110Y-7383389D01*
X4654110Y-7383389D02*
X4644586Y-7373865D01*
X4644586Y-7373865D02*
X4654110Y-7364341D01*
X4654110Y-7364341D02*
X4654110Y-7383389D01*
X4787443Y-7183389D02*
X4806491Y-7183389D01*
X4806491Y-7183389D02*
X4825539Y-7192913D01*
X4825539Y-7192913D02*
X4835063Y-7202436D01*
X4835063Y-7202436D02*
X4844586Y-7221484D01*
X4844586Y-7221484D02*
X4854110Y-7259579D01*
X4854110Y-7259579D02*
X4854110Y-7307198D01*
X4854110Y-7307198D02*
X4844586Y-7345293D01*
X4844586Y-7345293D02*
X4835063Y-7364341D01*
X4835063Y-7364341D02*
X4825539Y-7373865D01*
X4825539Y-7373865D02*
X4806491Y-7383389D01*
X4806491Y-7383389D02*
X4787443Y-7383389D01*
X4787443Y-7383389D02*
X4768396Y-7373865D01*
X4768396Y-7373865D02*
X4758872Y-7364341D01*
X4758872Y-7364341D02*
X4749348Y-7345293D01*
X4749348Y-7345293D02*
X4739824Y-7307198D01*
X4739824Y-7307198D02*
X4739824Y-7259579D01*
X4739824Y-7259579D02*
X4749348Y-7221484D01*
X4749348Y-7221484D02*
X4758872Y-7202436D01*
X4758872Y-7202436D02*
X4768396Y-7192913D01*
X4768396Y-7192913D02*
X4787443Y-7183389D01*
X5044586Y-7383389D02*
X4930301Y-7383389D01*
X4987443Y-7383389D02*
X4987443Y-7183389D01*
X4987443Y-7183389D02*
X4968396Y-7211960D01*
X4968396Y-7211960D02*
X4949348Y-7231008D01*
X4949348Y-7231008D02*
X4930301Y-7240532D01*
X5235063Y-7383389D02*
X5120777Y-7383389D01*
X5177920Y-7383389D02*
X5177920Y-7183389D01*
X5177920Y-7183389D02*
X5158872Y-7211960D01*
X5158872Y-7211960D02*
X5139824Y-7231008D01*
X5139824Y-7231008D02*
X5120777Y-7240532D01*
X5349348Y-7269103D02*
X5330301Y-7259579D01*
X5330301Y-7259579D02*
X5320777Y-7250055D01*
X5320777Y-7250055D02*
X5311253Y-7231008D01*
X5311253Y-7231008D02*
X5311253Y-7221484D01*
X5311253Y-7221484D02*
X5320777Y-7202436D01*
X5320777Y-7202436D02*
X5330301Y-7192913D01*
X5330301Y-7192913D02*
X5349348Y-7183389D01*
X5349348Y-7183389D02*
X5387444Y-7183389D01*
X5387444Y-7183389D02*
X5406491Y-7192913D01*
X5406491Y-7192913D02*
X5416015Y-7202436D01*
X5416015Y-7202436D02*
X5425539Y-7221484D01*
X5425539Y-7221484D02*
X5425539Y-7231008D01*
X5425539Y-7231008D02*
X5416015Y-7250055D01*
X5416015Y-7250055D02*
X5406491Y-7259579D01*
X5406491Y-7259579D02*
X5387444Y-7269103D01*
X5387444Y-7269103D02*
X5349348Y-7269103D01*
X5349348Y-7269103D02*
X5330301Y-7278627D01*
X5330301Y-7278627D02*
X5320777Y-7288151D01*
X5320777Y-7288151D02*
X5311253Y-7307198D01*
X5311253Y-7307198D02*
X5311253Y-7345293D01*
X5311253Y-7345293D02*
X5320777Y-7364341D01*
X5320777Y-7364341D02*
X5330301Y-7373865D01*
X5330301Y-7373865D02*
X5349348Y-7383389D01*
X5349348Y-7383389D02*
X5387444Y-7383389D01*
X5387444Y-7383389D02*
X5406491Y-7373865D01*
X5406491Y-7373865D02*
X5416015Y-7364341D01*
X5416015Y-7364341D02*
X5425539Y-7345293D01*
X5425539Y-7345293D02*
X5425539Y-7307198D01*
X5425539Y-7307198D02*
X5416015Y-7288151D01*
X5416015Y-7288151D02*
X5406491Y-7278627D01*
X5406491Y-7278627D02*
X5387444Y-7269103D01*
X5501729Y-7183389D02*
X5501729Y-7221484D01*
X5577920Y-7183389D02*
X5577920Y-7221484D01*
X5873158Y-7459579D02*
X5863634Y-7450055D01*
X5863634Y-7450055D02*
X5844586Y-7421484D01*
X5844586Y-7421484D02*
X5835063Y-7402436D01*
X5835063Y-7402436D02*
X5825539Y-7373865D01*
X5825539Y-7373865D02*
X5816015Y-7326246D01*
X5816015Y-7326246D02*
X5816015Y-7288151D01*
X5816015Y-7288151D02*
X5825539Y-7240532D01*
X5825539Y-7240532D02*
X5835063Y-7211960D01*
X5835063Y-7211960D02*
X5844586Y-7192913D01*
X5844586Y-7192913D02*
X5863634Y-7164341D01*
X5863634Y-7164341D02*
X5873158Y-7154817D01*
X6035063Y-7250055D02*
X6035063Y-7383389D01*
X5987443Y-7173865D02*
X5939824Y-7316722D01*
X5939824Y-7316722D02*
X6063634Y-7316722D01*
X6225539Y-7183389D02*
X6187443Y-7183389D01*
X6187443Y-7183389D02*
X6168396Y-7192913D01*
X6168396Y-7192913D02*
X6158872Y-7202436D01*
X6158872Y-7202436D02*
X6139824Y-7231008D01*
X6139824Y-7231008D02*
X6130301Y-7269103D01*
X6130301Y-7269103D02*
X6130301Y-7345293D01*
X6130301Y-7345293D02*
X6139824Y-7364341D01*
X6139824Y-7364341D02*
X6149348Y-7373865D01*
X6149348Y-7373865D02*
X6168396Y-7383389D01*
X6168396Y-7383389D02*
X6206491Y-7383389D01*
X6206491Y-7383389D02*
X6225539Y-7373865D01*
X6225539Y-7373865D02*
X6235063Y-7364341D01*
X6235063Y-7364341D02*
X6244586Y-7345293D01*
X6244586Y-7345293D02*
X6244586Y-7297674D01*
X6244586Y-7297674D02*
X6235063Y-7278627D01*
X6235063Y-7278627D02*
X6225539Y-7269103D01*
X6225539Y-7269103D02*
X6206491Y-7259579D01*
X6206491Y-7259579D02*
X6168396Y-7259579D01*
X6168396Y-7259579D02*
X6149348Y-7269103D01*
X6149348Y-7269103D02*
X6139824Y-7278627D01*
X6139824Y-7278627D02*
X6130301Y-7297674D01*
X6482682Y-7383389D02*
X6482682Y-7183389D01*
X6568396Y-7383389D02*
X6568396Y-7278627D01*
X6568396Y-7278627D02*
X6558872Y-7259579D01*
X6558872Y-7259579D02*
X6539825Y-7250055D01*
X6539825Y-7250055D02*
X6511253Y-7250055D01*
X6511253Y-7250055D02*
X6492205Y-7259579D01*
X6492205Y-7259579D02*
X6482682Y-7269103D01*
X6692205Y-7383389D02*
X6673158Y-7373865D01*
X6673158Y-7373865D02*
X6663634Y-7364341D01*
X6663634Y-7364341D02*
X6654110Y-7345293D01*
X6654110Y-7345293D02*
X6654110Y-7288151D01*
X6654110Y-7288151D02*
X6663634Y-7269103D01*
X6663634Y-7269103D02*
X6673158Y-7259579D01*
X6673158Y-7259579D02*
X6692205Y-7250055D01*
X6692205Y-7250055D02*
X6720777Y-7250055D01*
X6720777Y-7250055D02*
X6739825Y-7259579D01*
X6739825Y-7259579D02*
X6749348Y-7269103D01*
X6749348Y-7269103D02*
X6758872Y-7288151D01*
X6758872Y-7288151D02*
X6758872Y-7345293D01*
X6758872Y-7345293D02*
X6749348Y-7364341D01*
X6749348Y-7364341D02*
X6739825Y-7373865D01*
X6739825Y-7373865D02*
X6720777Y-7383389D01*
X6720777Y-7383389D02*
X6692205Y-7383389D01*
X6873158Y-7383389D02*
X6854110Y-7373865D01*
X6854110Y-7373865D02*
X6844586Y-7354817D01*
X6844586Y-7354817D02*
X6844586Y-7183389D01*
X7025539Y-7373865D02*
X7006491Y-7383389D01*
X7006491Y-7383389D02*
X6968396Y-7383389D01*
X6968396Y-7383389D02*
X6949348Y-7373865D01*
X6949348Y-7373865D02*
X6939825Y-7354817D01*
X6939825Y-7354817D02*
X6939825Y-7278627D01*
X6939825Y-7278627D02*
X6949348Y-7259579D01*
X6949348Y-7259579D02*
X6968396Y-7250055D01*
X6968396Y-7250055D02*
X7006491Y-7250055D01*
X7006491Y-7250055D02*
X7025539Y-7259579D01*
X7025539Y-7259579D02*
X7035063Y-7278627D01*
X7035063Y-7278627D02*
X7035063Y-7297674D01*
X7035063Y-7297674D02*
X6939825Y-7316722D01*
X7111253Y-7373865D02*
X7130301Y-7383389D01*
X7130301Y-7383389D02*
X7168396Y-7383389D01*
X7168396Y-7383389D02*
X7187444Y-7373865D01*
X7187444Y-7373865D02*
X7196967Y-7354817D01*
X7196967Y-7354817D02*
X7196967Y-7345293D01*
X7196967Y-7345293D02*
X7187444Y-7326246D01*
X7187444Y-7326246D02*
X7168396Y-7316722D01*
X7168396Y-7316722D02*
X7139825Y-7316722D01*
X7139825Y-7316722D02*
X7120777Y-7307198D01*
X7120777Y-7307198D02*
X7111253Y-7288151D01*
X7111253Y-7288151D02*
X7111253Y-7278627D01*
X7111253Y-7278627D02*
X7120777Y-7259579D01*
X7120777Y-7259579D02*
X7139825Y-7250055D01*
X7139825Y-7250055D02*
X7168396Y-7250055D01*
X7168396Y-7250055D02*
X7187444Y-7259579D01*
X7263634Y-7459579D02*
X7273158Y-7450055D01*
X7273158Y-7450055D02*
X7292206Y-7421484D01*
X7292206Y-7421484D02*
X7301729Y-7402436D01*
X7301729Y-7402436D02*
X7311253Y-7373865D01*
X7311253Y-7373865D02*
X7320777Y-7326246D01*
X7320777Y-7326246D02*
X7320777Y-7288151D01*
X7320777Y-7288151D02*
X7311253Y-7240532D01*
X7311253Y-7240532D02*
X7301729Y-7211960D01*
X7301729Y-7211960D02*
X7292206Y-7192913D01*
X7292206Y-7192913D02*
X7273158Y-7164341D01*
X7273158Y-7164341D02*
X7263634Y-7154817D01*
D12*
X2298095Y-7555905D02*
G75*
G02*
X2268095Y-7555905I-15000J0D01*
G01*
X2268095Y-7555905D02*
G75*
G02*
X2298095Y-7555905I15000J0D01*
G01*
D11*
X2596967Y-7447389D02*
X2616015Y-7447389D01*
X2616015Y-7447389D02*
X2635062Y-7456913D01*
X2635062Y-7456913D02*
X2644586Y-7466436D01*
X2644586Y-7466436D02*
X2654110Y-7485484D01*
X2654110Y-7485484D02*
X2663634Y-7523579D01*
X2663634Y-7523579D02*
X2663634Y-7571198D01*
X2663634Y-7571198D02*
X2654110Y-7609293D01*
X2654110Y-7609293D02*
X2644586Y-7628341D01*
X2644586Y-7628341D02*
X2635062Y-7637865D01*
X2635062Y-7637865D02*
X2616015Y-7647389D01*
X2616015Y-7647389D02*
X2596967Y-7647389D01*
X2596967Y-7647389D02*
X2577919Y-7637865D01*
X2577919Y-7637865D02*
X2568396Y-7628341D01*
X2568396Y-7628341D02*
X2558872Y-7609293D01*
X2558872Y-7609293D02*
X2549348Y-7571198D01*
X2549348Y-7571198D02*
X2549348Y-7523579D01*
X2549348Y-7523579D02*
X2558872Y-7485484D01*
X2558872Y-7485484D02*
X2568396Y-7466436D01*
X2568396Y-7466436D02*
X2577919Y-7456913D01*
X2577919Y-7456913D02*
X2596967Y-7447389D01*
X2749348Y-7628341D02*
X2758872Y-7637865D01*
X2758872Y-7637865D02*
X2749348Y-7647389D01*
X2749348Y-7647389D02*
X2739824Y-7637865D01*
X2739824Y-7637865D02*
X2749348Y-7628341D01*
X2749348Y-7628341D02*
X2749348Y-7647389D01*
X2825538Y-7447389D02*
X2949348Y-7447389D01*
X2949348Y-7447389D02*
X2882681Y-7523579D01*
X2882681Y-7523579D02*
X2911253Y-7523579D01*
X2911253Y-7523579D02*
X2930300Y-7533103D01*
X2930300Y-7533103D02*
X2939824Y-7542627D01*
X2939824Y-7542627D02*
X2949348Y-7561674D01*
X2949348Y-7561674D02*
X2949348Y-7609293D01*
X2949348Y-7609293D02*
X2939824Y-7628341D01*
X2939824Y-7628341D02*
X2930300Y-7637865D01*
X2930300Y-7637865D02*
X2911253Y-7647389D01*
X2911253Y-7647389D02*
X2854110Y-7647389D01*
X2854110Y-7647389D02*
X2835062Y-7637865D01*
X2835062Y-7637865D02*
X2825538Y-7628341D01*
X3073157Y-7447389D02*
X3092205Y-7447389D01*
X3092205Y-7447389D02*
X3111253Y-7456913D01*
X3111253Y-7456913D02*
X3120777Y-7466436D01*
X3120777Y-7466436D02*
X3130300Y-7485484D01*
X3130300Y-7485484D02*
X3139824Y-7523579D01*
X3139824Y-7523579D02*
X3139824Y-7571198D01*
X3139824Y-7571198D02*
X3130300Y-7609293D01*
X3130300Y-7609293D02*
X3120777Y-7628341D01*
X3120777Y-7628341D02*
X3111253Y-7637865D01*
X3111253Y-7637865D02*
X3092205Y-7647389D01*
X3092205Y-7647389D02*
X3073157Y-7647389D01*
X3073157Y-7647389D02*
X3054110Y-7637865D01*
X3054110Y-7637865D02*
X3044586Y-7628341D01*
X3044586Y-7628341D02*
X3035062Y-7609293D01*
X3035062Y-7609293D02*
X3025538Y-7571198D01*
X3025538Y-7571198D02*
X3025538Y-7523579D01*
X3025538Y-7523579D02*
X3035062Y-7485484D01*
X3035062Y-7485484D02*
X3044586Y-7466436D01*
X3044586Y-7466436D02*
X3054110Y-7456913D01*
X3054110Y-7456913D02*
X3073157Y-7447389D01*
X3263634Y-7447389D02*
X3282681Y-7447389D01*
X3282681Y-7447389D02*
X3301729Y-7456913D01*
X3301729Y-7456913D02*
X3311253Y-7466436D01*
X3311253Y-7466436D02*
X3320777Y-7485484D01*
X3320777Y-7485484D02*
X3330300Y-7523579D01*
X3330300Y-7523579D02*
X3330300Y-7571198D01*
X3330300Y-7571198D02*
X3320777Y-7609293D01*
X3320777Y-7609293D02*
X3311253Y-7628341D01*
X3311253Y-7628341D02*
X3301729Y-7637865D01*
X3301729Y-7637865D02*
X3282681Y-7647389D01*
X3282681Y-7647389D02*
X3263634Y-7647389D01*
X3263634Y-7647389D02*
X3244586Y-7637865D01*
X3244586Y-7637865D02*
X3235062Y-7628341D01*
X3235062Y-7628341D02*
X3225538Y-7609293D01*
X3225538Y-7609293D02*
X3216015Y-7571198D01*
X3216015Y-7571198D02*
X3216015Y-7523579D01*
X3216015Y-7523579D02*
X3225538Y-7485484D01*
X3225538Y-7485484D02*
X3235062Y-7466436D01*
X3235062Y-7466436D02*
X3244586Y-7456913D01*
X3244586Y-7456913D02*
X3263634Y-7447389D01*
X3416015Y-7647389D02*
X3416015Y-7514055D01*
X3416015Y-7533103D02*
X3425538Y-7523579D01*
X3425538Y-7523579D02*
X3444586Y-7514055D01*
X3444586Y-7514055D02*
X3473158Y-7514055D01*
X3473158Y-7514055D02*
X3492205Y-7523579D01*
X3492205Y-7523579D02*
X3501729Y-7542627D01*
X3501729Y-7542627D02*
X3501729Y-7647389D01*
X3501729Y-7542627D02*
X3511253Y-7523579D01*
X3511253Y-7523579D02*
X3530300Y-7514055D01*
X3530300Y-7514055D02*
X3558872Y-7514055D01*
X3558872Y-7514055D02*
X3577919Y-7523579D01*
X3577919Y-7523579D02*
X3587443Y-7542627D01*
X3587443Y-7542627D02*
X3587443Y-7647389D01*
X3682681Y-7647389D02*
X3682681Y-7514055D01*
X3682681Y-7533103D02*
X3692205Y-7523579D01*
X3692205Y-7523579D02*
X3711253Y-7514055D01*
X3711253Y-7514055D02*
X3739824Y-7514055D01*
X3739824Y-7514055D02*
X3758872Y-7523579D01*
X3758872Y-7523579D02*
X3768396Y-7542627D01*
X3768396Y-7542627D02*
X3768396Y-7647389D01*
X3768396Y-7542627D02*
X3777919Y-7523579D01*
X3777919Y-7523579D02*
X3796967Y-7514055D01*
X3796967Y-7514055D02*
X3825538Y-7514055D01*
X3825538Y-7514055D02*
X3844586Y-7523579D01*
X3844586Y-7523579D02*
X3854110Y-7542627D01*
X3854110Y-7542627D02*
X3854110Y-7647389D01*
X4244586Y-7437865D02*
X4073158Y-7695008D01*
X4501729Y-7447389D02*
X4520777Y-7447389D01*
X4520777Y-7447389D02*
X4539824Y-7456913D01*
X4539824Y-7456913D02*
X4549348Y-7466436D01*
X4549348Y-7466436D02*
X4558872Y-7485484D01*
X4558872Y-7485484D02*
X4568396Y-7523579D01*
X4568396Y-7523579D02*
X4568396Y-7571198D01*
X4568396Y-7571198D02*
X4558872Y-7609293D01*
X4558872Y-7609293D02*
X4549348Y-7628341D01*
X4549348Y-7628341D02*
X4539824Y-7637865D01*
X4539824Y-7637865D02*
X4520777Y-7647389D01*
X4520777Y-7647389D02*
X4501729Y-7647389D01*
X4501729Y-7647389D02*
X4482682Y-7637865D01*
X4482682Y-7637865D02*
X4473158Y-7628341D01*
X4473158Y-7628341D02*
X4463634Y-7609293D01*
X4463634Y-7609293D02*
X4454110Y-7571198D01*
X4454110Y-7571198D02*
X4454110Y-7523579D01*
X4454110Y-7523579D02*
X4463634Y-7485484D01*
X4463634Y-7485484D02*
X4473158Y-7466436D01*
X4473158Y-7466436D02*
X4482682Y-7456913D01*
X4482682Y-7456913D02*
X4501729Y-7447389D01*
X4654110Y-7628341D02*
X4663634Y-7637865D01*
X4663634Y-7637865D02*
X4654110Y-7647389D01*
X4654110Y-7647389D02*
X4644586Y-7637865D01*
X4644586Y-7637865D02*
X4654110Y-7628341D01*
X4654110Y-7628341D02*
X4654110Y-7647389D01*
X4787443Y-7447389D02*
X4806491Y-7447389D01*
X4806491Y-7447389D02*
X4825539Y-7456913D01*
X4825539Y-7456913D02*
X4835063Y-7466436D01*
X4835063Y-7466436D02*
X4844586Y-7485484D01*
X4844586Y-7485484D02*
X4854110Y-7523579D01*
X4854110Y-7523579D02*
X4854110Y-7571198D01*
X4854110Y-7571198D02*
X4844586Y-7609293D01*
X4844586Y-7609293D02*
X4835063Y-7628341D01*
X4835063Y-7628341D02*
X4825539Y-7637865D01*
X4825539Y-7637865D02*
X4806491Y-7647389D01*
X4806491Y-7647389D02*
X4787443Y-7647389D01*
X4787443Y-7647389D02*
X4768396Y-7637865D01*
X4768396Y-7637865D02*
X4758872Y-7628341D01*
X4758872Y-7628341D02*
X4749348Y-7609293D01*
X4749348Y-7609293D02*
X4739824Y-7571198D01*
X4739824Y-7571198D02*
X4739824Y-7523579D01*
X4739824Y-7523579D02*
X4749348Y-7485484D01*
X4749348Y-7485484D02*
X4758872Y-7466436D01*
X4758872Y-7466436D02*
X4768396Y-7456913D01*
X4768396Y-7456913D02*
X4787443Y-7447389D01*
X5044586Y-7647389D02*
X4930301Y-7647389D01*
X4987443Y-7647389D02*
X4987443Y-7447389D01*
X4987443Y-7447389D02*
X4968396Y-7475960D01*
X4968396Y-7475960D02*
X4949348Y-7495008D01*
X4949348Y-7495008D02*
X4930301Y-7504532D01*
X5235063Y-7647389D02*
X5120777Y-7647389D01*
X5177920Y-7647389D02*
X5177920Y-7447389D01*
X5177920Y-7447389D02*
X5158872Y-7475960D01*
X5158872Y-7475960D02*
X5139824Y-7495008D01*
X5139824Y-7495008D02*
X5120777Y-7504532D01*
X5349348Y-7533103D02*
X5330301Y-7523579D01*
X5330301Y-7523579D02*
X5320777Y-7514055D01*
X5320777Y-7514055D02*
X5311253Y-7495008D01*
X5311253Y-7495008D02*
X5311253Y-7485484D01*
X5311253Y-7485484D02*
X5320777Y-7466436D01*
X5320777Y-7466436D02*
X5330301Y-7456913D01*
X5330301Y-7456913D02*
X5349348Y-7447389D01*
X5349348Y-7447389D02*
X5387444Y-7447389D01*
X5387444Y-7447389D02*
X5406491Y-7456913D01*
X5406491Y-7456913D02*
X5416015Y-7466436D01*
X5416015Y-7466436D02*
X5425539Y-7485484D01*
X5425539Y-7485484D02*
X5425539Y-7495008D01*
X5425539Y-7495008D02*
X5416015Y-7514055D01*
X5416015Y-7514055D02*
X5406491Y-7523579D01*
X5406491Y-7523579D02*
X5387444Y-7533103D01*
X5387444Y-7533103D02*
X5349348Y-7533103D01*
X5349348Y-7533103D02*
X5330301Y-7542627D01*
X5330301Y-7542627D02*
X5320777Y-7552151D01*
X5320777Y-7552151D02*
X5311253Y-7571198D01*
X5311253Y-7571198D02*
X5311253Y-7609293D01*
X5311253Y-7609293D02*
X5320777Y-7628341D01*
X5320777Y-7628341D02*
X5330301Y-7637865D01*
X5330301Y-7637865D02*
X5349348Y-7647389D01*
X5349348Y-7647389D02*
X5387444Y-7647389D01*
X5387444Y-7647389D02*
X5406491Y-7637865D01*
X5406491Y-7637865D02*
X5416015Y-7628341D01*
X5416015Y-7628341D02*
X5425539Y-7609293D01*
X5425539Y-7609293D02*
X5425539Y-7571198D01*
X5425539Y-7571198D02*
X5416015Y-7552151D01*
X5416015Y-7552151D02*
X5406491Y-7542627D01*
X5406491Y-7542627D02*
X5387444Y-7533103D01*
X5501729Y-7447389D02*
X5501729Y-7485484D01*
X5577920Y-7447389D02*
X5577920Y-7485484D01*
X5873158Y-7723579D02*
X5863634Y-7714055D01*
X5863634Y-7714055D02*
X5844586Y-7685484D01*
X5844586Y-7685484D02*
X5835063Y-7666436D01*
X5835063Y-7666436D02*
X5825539Y-7637865D01*
X5825539Y-7637865D02*
X5816015Y-7590246D01*
X5816015Y-7590246D02*
X5816015Y-7552151D01*
X5816015Y-7552151D02*
X5825539Y-7504532D01*
X5825539Y-7504532D02*
X5835063Y-7475960D01*
X5835063Y-7475960D02*
X5844586Y-7456913D01*
X5844586Y-7456913D02*
X5863634Y-7428341D01*
X5863634Y-7428341D02*
X5873158Y-7418817D01*
X6054110Y-7647389D02*
X5939824Y-7647389D01*
X5996967Y-7647389D02*
X5996967Y-7447389D01*
X5996967Y-7447389D02*
X5977920Y-7475960D01*
X5977920Y-7475960D02*
X5958872Y-7495008D01*
X5958872Y-7495008D02*
X5939824Y-7504532D01*
X6130301Y-7466436D02*
X6139824Y-7456913D01*
X6139824Y-7456913D02*
X6158872Y-7447389D01*
X6158872Y-7447389D02*
X6206491Y-7447389D01*
X6206491Y-7447389D02*
X6225539Y-7456913D01*
X6225539Y-7456913D02*
X6235063Y-7466436D01*
X6235063Y-7466436D02*
X6244586Y-7485484D01*
X6244586Y-7485484D02*
X6244586Y-7504532D01*
X6244586Y-7504532D02*
X6235063Y-7533103D01*
X6235063Y-7533103D02*
X6120777Y-7647389D01*
X6120777Y-7647389D02*
X6244586Y-7647389D01*
X6482682Y-7647389D02*
X6482682Y-7447389D01*
X6568396Y-7647389D02*
X6568396Y-7542627D01*
X6568396Y-7542627D02*
X6558872Y-7523579D01*
X6558872Y-7523579D02*
X6539825Y-7514055D01*
X6539825Y-7514055D02*
X6511253Y-7514055D01*
X6511253Y-7514055D02*
X6492205Y-7523579D01*
X6492205Y-7523579D02*
X6482682Y-7533103D01*
X6692205Y-7647389D02*
X6673158Y-7637865D01*
X6673158Y-7637865D02*
X6663634Y-7628341D01*
X6663634Y-7628341D02*
X6654110Y-7609293D01*
X6654110Y-7609293D02*
X6654110Y-7552151D01*
X6654110Y-7552151D02*
X6663634Y-7533103D01*
X6663634Y-7533103D02*
X6673158Y-7523579D01*
X6673158Y-7523579D02*
X6692205Y-7514055D01*
X6692205Y-7514055D02*
X6720777Y-7514055D01*
X6720777Y-7514055D02*
X6739825Y-7523579D01*
X6739825Y-7523579D02*
X6749348Y-7533103D01*
X6749348Y-7533103D02*
X6758872Y-7552151D01*
X6758872Y-7552151D02*
X6758872Y-7609293D01*
X6758872Y-7609293D02*
X6749348Y-7628341D01*
X6749348Y-7628341D02*
X6739825Y-7637865D01*
X6739825Y-7637865D02*
X6720777Y-7647389D01*
X6720777Y-7647389D02*
X6692205Y-7647389D01*
X6873158Y-7647389D02*
X6854110Y-7637865D01*
X6854110Y-7637865D02*
X6844586Y-7618817D01*
X6844586Y-7618817D02*
X6844586Y-7447389D01*
X7025539Y-7637865D02*
X7006491Y-7647389D01*
X7006491Y-7647389D02*
X6968396Y-7647389D01*
X6968396Y-7647389D02*
X6949348Y-7637865D01*
X6949348Y-7637865D02*
X6939825Y-7618817D01*
X6939825Y-7618817D02*
X6939825Y-7542627D01*
X6939825Y-7542627D02*
X6949348Y-7523579D01*
X6949348Y-7523579D02*
X6968396Y-7514055D01*
X6968396Y-7514055D02*
X7006491Y-7514055D01*
X7006491Y-7514055D02*
X7025539Y-7523579D01*
X7025539Y-7523579D02*
X7035063Y-7542627D01*
X7035063Y-7542627D02*
X7035063Y-7561674D01*
X7035063Y-7561674D02*
X6939825Y-7580722D01*
X7111253Y-7637865D02*
X7130301Y-7647389D01*
X7130301Y-7647389D02*
X7168396Y-7647389D01*
X7168396Y-7647389D02*
X7187444Y-7637865D01*
X7187444Y-7637865D02*
X7196967Y-7618817D01*
X7196967Y-7618817D02*
X7196967Y-7609293D01*
X7196967Y-7609293D02*
X7187444Y-7590246D01*
X7187444Y-7590246D02*
X7168396Y-7580722D01*
X7168396Y-7580722D02*
X7139825Y-7580722D01*
X7139825Y-7580722D02*
X7120777Y-7571198D01*
X7120777Y-7571198D02*
X7111253Y-7552151D01*
X7111253Y-7552151D02*
X7111253Y-7542627D01*
X7111253Y-7542627D02*
X7120777Y-7523579D01*
X7120777Y-7523579D02*
X7139825Y-7514055D01*
X7139825Y-7514055D02*
X7168396Y-7514055D01*
X7168396Y-7514055D02*
X7187444Y-7523579D01*
X7263634Y-7723579D02*
X7273158Y-7714055D01*
X7273158Y-7714055D02*
X7292206Y-7685484D01*
X7292206Y-7685484D02*
X7301729Y-7666436D01*
X7301729Y-7666436D02*
X7311253Y-7637865D01*
X7311253Y-7637865D02*
X7320777Y-7590246D01*
X7320777Y-7590246D02*
X7320777Y-7552151D01*
X7320777Y-7552151D02*
X7311253Y-7504532D01*
X7311253Y-7504532D02*
X7301729Y-7475960D01*
X7301729Y-7475960D02*
X7292206Y-7456913D01*
X7292206Y-7456913D02*
X7273158Y-7428341D01*
X7273158Y-7428341D02*
X7263634Y-7418817D01*
D12*
X2268095Y-7789905D02*
X2268095Y-7849905D01*
X2238095Y-7819905D02*
X2298095Y-7819905D01*
D11*
X2596967Y-7711389D02*
X2616015Y-7711389D01*
X2616015Y-7711389D02*
X2635062Y-7720913D01*
X2635062Y-7720913D02*
X2644586Y-7730436D01*
X2644586Y-7730436D02*
X2654110Y-7749484D01*
X2654110Y-7749484D02*
X2663634Y-7787579D01*
X2663634Y-7787579D02*
X2663634Y-7835198D01*
X2663634Y-7835198D02*
X2654110Y-7873293D01*
X2654110Y-7873293D02*
X2644586Y-7892341D01*
X2644586Y-7892341D02*
X2635062Y-7901865D01*
X2635062Y-7901865D02*
X2616015Y-7911389D01*
X2616015Y-7911389D02*
X2596967Y-7911389D01*
X2596967Y-7911389D02*
X2577919Y-7901865D01*
X2577919Y-7901865D02*
X2568396Y-7892341D01*
X2568396Y-7892341D02*
X2558872Y-7873293D01*
X2558872Y-7873293D02*
X2549348Y-7835198D01*
X2549348Y-7835198D02*
X2549348Y-7787579D01*
X2549348Y-7787579D02*
X2558872Y-7749484D01*
X2558872Y-7749484D02*
X2568396Y-7730436D01*
X2568396Y-7730436D02*
X2577919Y-7720913D01*
X2577919Y-7720913D02*
X2596967Y-7711389D01*
X2749348Y-7892341D02*
X2758872Y-7901865D01*
X2758872Y-7901865D02*
X2749348Y-7911389D01*
X2749348Y-7911389D02*
X2739824Y-7901865D01*
X2739824Y-7901865D02*
X2749348Y-7892341D01*
X2749348Y-7892341D02*
X2749348Y-7911389D01*
X2930300Y-7711389D02*
X2892205Y-7711389D01*
X2892205Y-7711389D02*
X2873157Y-7720913D01*
X2873157Y-7720913D02*
X2863634Y-7730436D01*
X2863634Y-7730436D02*
X2844586Y-7759008D01*
X2844586Y-7759008D02*
X2835062Y-7797103D01*
X2835062Y-7797103D02*
X2835062Y-7873293D01*
X2835062Y-7873293D02*
X2844586Y-7892341D01*
X2844586Y-7892341D02*
X2854110Y-7901865D01*
X2854110Y-7901865D02*
X2873157Y-7911389D01*
X2873157Y-7911389D02*
X2911253Y-7911389D01*
X2911253Y-7911389D02*
X2930300Y-7901865D01*
X2930300Y-7901865D02*
X2939824Y-7892341D01*
X2939824Y-7892341D02*
X2949348Y-7873293D01*
X2949348Y-7873293D02*
X2949348Y-7825674D01*
X2949348Y-7825674D02*
X2939824Y-7806627D01*
X2939824Y-7806627D02*
X2930300Y-7797103D01*
X2930300Y-7797103D02*
X2911253Y-7787579D01*
X2911253Y-7787579D02*
X2873157Y-7787579D01*
X2873157Y-7787579D02*
X2854110Y-7797103D01*
X2854110Y-7797103D02*
X2844586Y-7806627D01*
X2844586Y-7806627D02*
X2835062Y-7825674D01*
X3073157Y-7711389D02*
X3092205Y-7711389D01*
X3092205Y-7711389D02*
X3111253Y-7720913D01*
X3111253Y-7720913D02*
X3120777Y-7730436D01*
X3120777Y-7730436D02*
X3130300Y-7749484D01*
X3130300Y-7749484D02*
X3139824Y-7787579D01*
X3139824Y-7787579D02*
X3139824Y-7835198D01*
X3139824Y-7835198D02*
X3130300Y-7873293D01*
X3130300Y-7873293D02*
X3120777Y-7892341D01*
X3120777Y-7892341D02*
X3111253Y-7901865D01*
X3111253Y-7901865D02*
X3092205Y-7911389D01*
X3092205Y-7911389D02*
X3073157Y-7911389D01*
X3073157Y-7911389D02*
X3054110Y-7901865D01*
X3054110Y-7901865D02*
X3044586Y-7892341D01*
X3044586Y-7892341D02*
X3035062Y-7873293D01*
X3035062Y-7873293D02*
X3025538Y-7835198D01*
X3025538Y-7835198D02*
X3025538Y-7787579D01*
X3025538Y-7787579D02*
X3035062Y-7749484D01*
X3035062Y-7749484D02*
X3044586Y-7730436D01*
X3044586Y-7730436D02*
X3054110Y-7720913D01*
X3054110Y-7720913D02*
X3073157Y-7711389D01*
X3263634Y-7711389D02*
X3282681Y-7711389D01*
X3282681Y-7711389D02*
X3301729Y-7720913D01*
X3301729Y-7720913D02*
X3311253Y-7730436D01*
X3311253Y-7730436D02*
X3320777Y-7749484D01*
X3320777Y-7749484D02*
X3330300Y-7787579D01*
X3330300Y-7787579D02*
X3330300Y-7835198D01*
X3330300Y-7835198D02*
X3320777Y-7873293D01*
X3320777Y-7873293D02*
X3311253Y-7892341D01*
X3311253Y-7892341D02*
X3301729Y-7901865D01*
X3301729Y-7901865D02*
X3282681Y-7911389D01*
X3282681Y-7911389D02*
X3263634Y-7911389D01*
X3263634Y-7911389D02*
X3244586Y-7901865D01*
X3244586Y-7901865D02*
X3235062Y-7892341D01*
X3235062Y-7892341D02*
X3225538Y-7873293D01*
X3225538Y-7873293D02*
X3216015Y-7835198D01*
X3216015Y-7835198D02*
X3216015Y-7787579D01*
X3216015Y-7787579D02*
X3225538Y-7749484D01*
X3225538Y-7749484D02*
X3235062Y-7730436D01*
X3235062Y-7730436D02*
X3244586Y-7720913D01*
X3244586Y-7720913D02*
X3263634Y-7711389D01*
X3416015Y-7911389D02*
X3416015Y-7778055D01*
X3416015Y-7797103D02*
X3425538Y-7787579D01*
X3425538Y-7787579D02*
X3444586Y-7778055D01*
X3444586Y-7778055D02*
X3473158Y-7778055D01*
X3473158Y-7778055D02*
X3492205Y-7787579D01*
X3492205Y-7787579D02*
X3501729Y-7806627D01*
X3501729Y-7806627D02*
X3501729Y-7911389D01*
X3501729Y-7806627D02*
X3511253Y-7787579D01*
X3511253Y-7787579D02*
X3530300Y-7778055D01*
X3530300Y-7778055D02*
X3558872Y-7778055D01*
X3558872Y-7778055D02*
X3577919Y-7787579D01*
X3577919Y-7787579D02*
X3587443Y-7806627D01*
X3587443Y-7806627D02*
X3587443Y-7911389D01*
X3682681Y-7911389D02*
X3682681Y-7778055D01*
X3682681Y-7797103D02*
X3692205Y-7787579D01*
X3692205Y-7787579D02*
X3711253Y-7778055D01*
X3711253Y-7778055D02*
X3739824Y-7778055D01*
X3739824Y-7778055D02*
X3758872Y-7787579D01*
X3758872Y-7787579D02*
X3768396Y-7806627D01*
X3768396Y-7806627D02*
X3768396Y-7911389D01*
X3768396Y-7806627D02*
X3777919Y-7787579D01*
X3777919Y-7787579D02*
X3796967Y-7778055D01*
X3796967Y-7778055D02*
X3825538Y-7778055D01*
X3825538Y-7778055D02*
X3844586Y-7787579D01*
X3844586Y-7787579D02*
X3854110Y-7806627D01*
X3854110Y-7806627D02*
X3854110Y-7911389D01*
X4244586Y-7701865D02*
X4073158Y-7959008D01*
X4501729Y-7711389D02*
X4520777Y-7711389D01*
X4520777Y-7711389D02*
X4539824Y-7720913D01*
X4539824Y-7720913D02*
X4549348Y-7730436D01*
X4549348Y-7730436D02*
X4558872Y-7749484D01*
X4558872Y-7749484D02*
X4568396Y-7787579D01*
X4568396Y-7787579D02*
X4568396Y-7835198D01*
X4568396Y-7835198D02*
X4558872Y-7873293D01*
X4558872Y-7873293D02*
X4549348Y-7892341D01*
X4549348Y-7892341D02*
X4539824Y-7901865D01*
X4539824Y-7901865D02*
X4520777Y-7911389D01*
X4520777Y-7911389D02*
X4501729Y-7911389D01*
X4501729Y-7911389D02*
X4482682Y-7901865D01*
X4482682Y-7901865D02*
X4473158Y-7892341D01*
X4473158Y-7892341D02*
X4463634Y-7873293D01*
X4463634Y-7873293D02*
X4454110Y-7835198D01*
X4454110Y-7835198D02*
X4454110Y-7787579D01*
X4454110Y-7787579D02*
X4463634Y-7749484D01*
X4463634Y-7749484D02*
X4473158Y-7730436D01*
X4473158Y-7730436D02*
X4482682Y-7720913D01*
X4482682Y-7720913D02*
X4501729Y-7711389D01*
X4654110Y-7892341D02*
X4663634Y-7901865D01*
X4663634Y-7901865D02*
X4654110Y-7911389D01*
X4654110Y-7911389D02*
X4644586Y-7901865D01*
X4644586Y-7901865D02*
X4654110Y-7892341D01*
X4654110Y-7892341D02*
X4654110Y-7911389D01*
X4787443Y-7711389D02*
X4806491Y-7711389D01*
X4806491Y-7711389D02*
X4825539Y-7720913D01*
X4825539Y-7720913D02*
X4835063Y-7730436D01*
X4835063Y-7730436D02*
X4844586Y-7749484D01*
X4844586Y-7749484D02*
X4854110Y-7787579D01*
X4854110Y-7787579D02*
X4854110Y-7835198D01*
X4854110Y-7835198D02*
X4844586Y-7873293D01*
X4844586Y-7873293D02*
X4835063Y-7892341D01*
X4835063Y-7892341D02*
X4825539Y-7901865D01*
X4825539Y-7901865D02*
X4806491Y-7911389D01*
X4806491Y-7911389D02*
X4787443Y-7911389D01*
X4787443Y-7911389D02*
X4768396Y-7901865D01*
X4768396Y-7901865D02*
X4758872Y-7892341D01*
X4758872Y-7892341D02*
X4749348Y-7873293D01*
X4749348Y-7873293D02*
X4739824Y-7835198D01*
X4739824Y-7835198D02*
X4739824Y-7787579D01*
X4739824Y-7787579D02*
X4749348Y-7749484D01*
X4749348Y-7749484D02*
X4758872Y-7730436D01*
X4758872Y-7730436D02*
X4768396Y-7720913D01*
X4768396Y-7720913D02*
X4787443Y-7711389D01*
X4930301Y-7730436D02*
X4939824Y-7720913D01*
X4939824Y-7720913D02*
X4958872Y-7711389D01*
X4958872Y-7711389D02*
X5006491Y-7711389D01*
X5006491Y-7711389D02*
X5025539Y-7720913D01*
X5025539Y-7720913D02*
X5035063Y-7730436D01*
X5035063Y-7730436D02*
X5044586Y-7749484D01*
X5044586Y-7749484D02*
X5044586Y-7768532D01*
X5044586Y-7768532D02*
X5035063Y-7797103D01*
X5035063Y-7797103D02*
X4920777Y-7911389D01*
X4920777Y-7911389D02*
X5044586Y-7911389D01*
X5111253Y-7711389D02*
X5235063Y-7711389D01*
X5235063Y-7711389D02*
X5168396Y-7787579D01*
X5168396Y-7787579D02*
X5196967Y-7787579D01*
X5196967Y-7787579D02*
X5216015Y-7797103D01*
X5216015Y-7797103D02*
X5225539Y-7806627D01*
X5225539Y-7806627D02*
X5235063Y-7825674D01*
X5235063Y-7825674D02*
X5235063Y-7873293D01*
X5235063Y-7873293D02*
X5225539Y-7892341D01*
X5225539Y-7892341D02*
X5216015Y-7901865D01*
X5216015Y-7901865D02*
X5196967Y-7911389D01*
X5196967Y-7911389D02*
X5139824Y-7911389D01*
X5139824Y-7911389D02*
X5120777Y-7901865D01*
X5120777Y-7901865D02*
X5111253Y-7892341D01*
X5406491Y-7711389D02*
X5368396Y-7711389D01*
X5368396Y-7711389D02*
X5349348Y-7720913D01*
X5349348Y-7720913D02*
X5339824Y-7730436D01*
X5339824Y-7730436D02*
X5320777Y-7759008D01*
X5320777Y-7759008D02*
X5311253Y-7797103D01*
X5311253Y-7797103D02*
X5311253Y-7873293D01*
X5311253Y-7873293D02*
X5320777Y-7892341D01*
X5320777Y-7892341D02*
X5330301Y-7901865D01*
X5330301Y-7901865D02*
X5349348Y-7911389D01*
X5349348Y-7911389D02*
X5387444Y-7911389D01*
X5387444Y-7911389D02*
X5406491Y-7901865D01*
X5406491Y-7901865D02*
X5416015Y-7892341D01*
X5416015Y-7892341D02*
X5425539Y-7873293D01*
X5425539Y-7873293D02*
X5425539Y-7825674D01*
X5425539Y-7825674D02*
X5416015Y-7806627D01*
X5416015Y-7806627D02*
X5406491Y-7797103D01*
X5406491Y-7797103D02*
X5387444Y-7787579D01*
X5387444Y-7787579D02*
X5349348Y-7787579D01*
X5349348Y-7787579D02*
X5330301Y-7797103D01*
X5330301Y-7797103D02*
X5320777Y-7806627D01*
X5320777Y-7806627D02*
X5311253Y-7825674D01*
X5501729Y-7711389D02*
X5501729Y-7749484D01*
X5577920Y-7711389D02*
X5577920Y-7749484D01*
X5873158Y-7987579D02*
X5863634Y-7978055D01*
X5863634Y-7978055D02*
X5844586Y-7949484D01*
X5844586Y-7949484D02*
X5835063Y-7930436D01*
X5835063Y-7930436D02*
X5825539Y-7901865D01*
X5825539Y-7901865D02*
X5816015Y-7854246D01*
X5816015Y-7854246D02*
X5816015Y-7816151D01*
X5816015Y-7816151D02*
X5825539Y-7768532D01*
X5825539Y-7768532D02*
X5835063Y-7739960D01*
X5835063Y-7739960D02*
X5844586Y-7720913D01*
X5844586Y-7720913D02*
X5863634Y-7692341D01*
X5863634Y-7692341D02*
X5873158Y-7682817D01*
X5987443Y-7711389D02*
X6006491Y-7711389D01*
X6006491Y-7711389D02*
X6025539Y-7720913D01*
X6025539Y-7720913D02*
X6035063Y-7730436D01*
X6035063Y-7730436D02*
X6044586Y-7749484D01*
X6044586Y-7749484D02*
X6054110Y-7787579D01*
X6054110Y-7787579D02*
X6054110Y-7835198D01*
X6054110Y-7835198D02*
X6044586Y-7873293D01*
X6044586Y-7873293D02*
X6035063Y-7892341D01*
X6035063Y-7892341D02*
X6025539Y-7901865D01*
X6025539Y-7901865D02*
X6006491Y-7911389D01*
X6006491Y-7911389D02*
X5987443Y-7911389D01*
X5987443Y-7911389D02*
X5968396Y-7901865D01*
X5968396Y-7901865D02*
X5958872Y-7892341D01*
X5958872Y-7892341D02*
X5949348Y-7873293D01*
X5949348Y-7873293D02*
X5939824Y-7835198D01*
X5939824Y-7835198D02*
X5939824Y-7787579D01*
X5939824Y-7787579D02*
X5949348Y-7749484D01*
X5949348Y-7749484D02*
X5958872Y-7730436D01*
X5958872Y-7730436D02*
X5968396Y-7720913D01*
X5968396Y-7720913D02*
X5987443Y-7711389D01*
X6292205Y-7911389D02*
X6292205Y-7711389D01*
X6377920Y-7911389D02*
X6377920Y-7806627D01*
X6377920Y-7806627D02*
X6368396Y-7787579D01*
X6368396Y-7787579D02*
X6349348Y-7778055D01*
X6349348Y-7778055D02*
X6320777Y-7778055D01*
X6320777Y-7778055D02*
X6301729Y-7787579D01*
X6301729Y-7787579D02*
X6292205Y-7797103D01*
X6501729Y-7911389D02*
X6482682Y-7901865D01*
X6482682Y-7901865D02*
X6473158Y-7892341D01*
X6473158Y-7892341D02*
X6463634Y-7873293D01*
X6463634Y-7873293D02*
X6463634Y-7816151D01*
X6463634Y-7816151D02*
X6473158Y-7797103D01*
X6473158Y-7797103D02*
X6482682Y-7787579D01*
X6482682Y-7787579D02*
X6501729Y-7778055D01*
X6501729Y-7778055D02*
X6530301Y-7778055D01*
X6530301Y-7778055D02*
X6549348Y-7787579D01*
X6549348Y-7787579D02*
X6558872Y-7797103D01*
X6558872Y-7797103D02*
X6568396Y-7816151D01*
X6568396Y-7816151D02*
X6568396Y-7873293D01*
X6568396Y-7873293D02*
X6558872Y-7892341D01*
X6558872Y-7892341D02*
X6549348Y-7901865D01*
X6549348Y-7901865D02*
X6530301Y-7911389D01*
X6530301Y-7911389D02*
X6501729Y-7911389D01*
X6682682Y-7911389D02*
X6663634Y-7901865D01*
X6663634Y-7901865D02*
X6654110Y-7882817D01*
X6654110Y-7882817D02*
X6654110Y-7711389D01*
X6835063Y-7901865D02*
X6816015Y-7911389D01*
X6816015Y-7911389D02*
X6777920Y-7911389D01*
X6777920Y-7911389D02*
X6758872Y-7901865D01*
X6758872Y-7901865D02*
X6749348Y-7882817D01*
X6749348Y-7882817D02*
X6749348Y-7806627D01*
X6749348Y-7806627D02*
X6758872Y-7787579D01*
X6758872Y-7787579D02*
X6777920Y-7778055D01*
X6777920Y-7778055D02*
X6816015Y-7778055D01*
X6816015Y-7778055D02*
X6835063Y-7787579D01*
X6835063Y-7787579D02*
X6844586Y-7806627D01*
X6844586Y-7806627D02*
X6844586Y-7825674D01*
X6844586Y-7825674D02*
X6749348Y-7844722D01*
X6920777Y-7901865D02*
X6939825Y-7911389D01*
X6939825Y-7911389D02*
X6977920Y-7911389D01*
X6977920Y-7911389D02*
X6996967Y-7901865D01*
X6996967Y-7901865D02*
X7006491Y-7882817D01*
X7006491Y-7882817D02*
X7006491Y-7873293D01*
X7006491Y-7873293D02*
X6996967Y-7854246D01*
X6996967Y-7854246D02*
X6977920Y-7844722D01*
X6977920Y-7844722D02*
X6949348Y-7844722D01*
X6949348Y-7844722D02*
X6930301Y-7835198D01*
X6930301Y-7835198D02*
X6920777Y-7816151D01*
X6920777Y-7816151D02*
X6920777Y-7806627D01*
X6920777Y-7806627D02*
X6930301Y-7787579D01*
X6930301Y-7787579D02*
X6949348Y-7778055D01*
X6949348Y-7778055D02*
X6977920Y-7778055D01*
X6977920Y-7778055D02*
X6996967Y-7787579D01*
X7244587Y-7835198D02*
X7396968Y-7835198D01*
X7320777Y-7911389D02*
X7320777Y-7759008D01*
X7730301Y-7778055D02*
X7730301Y-7911389D01*
X7682682Y-7701865D02*
X7635063Y-7844722D01*
X7635063Y-7844722D02*
X7758872Y-7844722D01*
X7977920Y-7901865D02*
X7996968Y-7911389D01*
X7996968Y-7911389D02*
X8035063Y-7911389D01*
X8035063Y-7911389D02*
X8054110Y-7901865D01*
X8054110Y-7901865D02*
X8063634Y-7882817D01*
X8063634Y-7882817D02*
X8063634Y-7873293D01*
X8063634Y-7873293D02*
X8054110Y-7854246D01*
X8054110Y-7854246D02*
X8035063Y-7844722D01*
X8035063Y-7844722D02*
X8006491Y-7844722D01*
X8006491Y-7844722D02*
X7987444Y-7835198D01*
X7987444Y-7835198D02*
X7977920Y-7816151D01*
X7977920Y-7816151D02*
X7977920Y-7806627D01*
X7977920Y-7806627D02*
X7987444Y-7787579D01*
X7987444Y-7787579D02*
X8006491Y-7778055D01*
X8006491Y-7778055D02*
X8035063Y-7778055D01*
X8035063Y-7778055D02*
X8054110Y-7787579D01*
X8177920Y-7911389D02*
X8158872Y-7901865D01*
X8158872Y-7901865D02*
X8149349Y-7882817D01*
X8149349Y-7882817D02*
X8149349Y-7711389D01*
X8282682Y-7911389D02*
X8263634Y-7901865D01*
X8263634Y-7901865D02*
X8254110Y-7892341D01*
X8254110Y-7892341D02*
X8244587Y-7873293D01*
X8244587Y-7873293D02*
X8244587Y-7816151D01*
X8244587Y-7816151D02*
X8254110Y-7797103D01*
X8254110Y-7797103D02*
X8263634Y-7787579D01*
X8263634Y-7787579D02*
X8282682Y-7778055D01*
X8282682Y-7778055D02*
X8311253Y-7778055D01*
X8311253Y-7778055D02*
X8330301Y-7787579D01*
X8330301Y-7787579D02*
X8339825Y-7797103D01*
X8339825Y-7797103D02*
X8349349Y-7816151D01*
X8349349Y-7816151D02*
X8349349Y-7873293D01*
X8349349Y-7873293D02*
X8339825Y-7892341D01*
X8339825Y-7892341D02*
X8330301Y-7901865D01*
X8330301Y-7901865D02*
X8311253Y-7911389D01*
X8311253Y-7911389D02*
X8282682Y-7911389D01*
X8406492Y-7778055D02*
X8482682Y-7778055D01*
X8435063Y-7711389D02*
X8435063Y-7882817D01*
X8435063Y-7882817D02*
X8444587Y-7901865D01*
X8444587Y-7901865D02*
X8463634Y-7911389D01*
X8463634Y-7911389D02*
X8482682Y-7911389D01*
X8539825Y-7901865D02*
X8558872Y-7911389D01*
X8558872Y-7911389D02*
X8596968Y-7911389D01*
X8596968Y-7911389D02*
X8616015Y-7901865D01*
X8616015Y-7901865D02*
X8625539Y-7882817D01*
X8625539Y-7882817D02*
X8625539Y-7873293D01*
X8625539Y-7873293D02*
X8616015Y-7854246D01*
X8616015Y-7854246D02*
X8596968Y-7844722D01*
X8596968Y-7844722D02*
X8568396Y-7844722D01*
X8568396Y-7844722D02*
X8549349Y-7835198D01*
X8549349Y-7835198D02*
X8539825Y-7816151D01*
X8539825Y-7816151D02*
X8539825Y-7806627D01*
X8539825Y-7806627D02*
X8549349Y-7787579D01*
X8549349Y-7787579D02*
X8568396Y-7778055D01*
X8568396Y-7778055D02*
X8596968Y-7778055D01*
X8596968Y-7778055D02*
X8616015Y-7787579D01*
X8692206Y-7987579D02*
X8701730Y-7978055D01*
X8701730Y-7978055D02*
X8720777Y-7949484D01*
X8720777Y-7949484D02*
X8730301Y-7930436D01*
X8730301Y-7930436D02*
X8739825Y-7901865D01*
X8739825Y-7901865D02*
X8749349Y-7854246D01*
X8749349Y-7854246D02*
X8749349Y-7816151D01*
X8749349Y-7816151D02*
X8739825Y-7768532D01*
X8739825Y-7768532D02*
X8730301Y-7739960D01*
X8730301Y-7739960D02*
X8720777Y-7720913D01*
X8720777Y-7720913D02*
X8701730Y-7692341D01*
X8701730Y-7692341D02*
X8692206Y-7682817D01*
D12*
X2283451Y-8119261D02*
X2283451Y-8048549D01*
X2212739Y-8048549D01*
X2212739Y-8119261D01*
X2283451Y-8119261D01*
D11*
X2663634Y-8175389D02*
X2549348Y-8175389D01*
X2606491Y-8175389D02*
X2606491Y-7975389D01*
X2606491Y-7975389D02*
X2587443Y-8003960D01*
X2587443Y-8003960D02*
X2568396Y-8023008D01*
X2568396Y-8023008D02*
X2549348Y-8032532D01*
X2749348Y-8156341D02*
X2758872Y-8165865D01*
X2758872Y-8165865D02*
X2749348Y-8175389D01*
X2749348Y-8175389D02*
X2739824Y-8165865D01*
X2739824Y-8165865D02*
X2749348Y-8156341D01*
X2749348Y-8156341D02*
X2749348Y-8175389D01*
X2882681Y-7975389D02*
X2901729Y-7975389D01*
X2901729Y-7975389D02*
X2920777Y-7984913D01*
X2920777Y-7984913D02*
X2930300Y-7994436D01*
X2930300Y-7994436D02*
X2939824Y-8013484D01*
X2939824Y-8013484D02*
X2949348Y-8051579D01*
X2949348Y-8051579D02*
X2949348Y-8099198D01*
X2949348Y-8099198D02*
X2939824Y-8137293D01*
X2939824Y-8137293D02*
X2930300Y-8156341D01*
X2930300Y-8156341D02*
X2920777Y-8165865D01*
X2920777Y-8165865D02*
X2901729Y-8175389D01*
X2901729Y-8175389D02*
X2882681Y-8175389D01*
X2882681Y-8175389D02*
X2863634Y-8165865D01*
X2863634Y-8165865D02*
X2854110Y-8156341D01*
X2854110Y-8156341D02*
X2844586Y-8137293D01*
X2844586Y-8137293D02*
X2835062Y-8099198D01*
X2835062Y-8099198D02*
X2835062Y-8051579D01*
X2835062Y-8051579D02*
X2844586Y-8013484D01*
X2844586Y-8013484D02*
X2854110Y-7994436D01*
X2854110Y-7994436D02*
X2863634Y-7984913D01*
X2863634Y-7984913D02*
X2882681Y-7975389D01*
X3073157Y-7975389D02*
X3092205Y-7975389D01*
X3092205Y-7975389D02*
X3111253Y-7984913D01*
X3111253Y-7984913D02*
X3120777Y-7994436D01*
X3120777Y-7994436D02*
X3130300Y-8013484D01*
X3130300Y-8013484D02*
X3139824Y-8051579D01*
X3139824Y-8051579D02*
X3139824Y-8099198D01*
X3139824Y-8099198D02*
X3130300Y-8137293D01*
X3130300Y-8137293D02*
X3120777Y-8156341D01*
X3120777Y-8156341D02*
X3111253Y-8165865D01*
X3111253Y-8165865D02*
X3092205Y-8175389D01*
X3092205Y-8175389D02*
X3073157Y-8175389D01*
X3073157Y-8175389D02*
X3054110Y-8165865D01*
X3054110Y-8165865D02*
X3044586Y-8156341D01*
X3044586Y-8156341D02*
X3035062Y-8137293D01*
X3035062Y-8137293D02*
X3025538Y-8099198D01*
X3025538Y-8099198D02*
X3025538Y-8051579D01*
X3025538Y-8051579D02*
X3035062Y-8013484D01*
X3035062Y-8013484D02*
X3044586Y-7994436D01*
X3044586Y-7994436D02*
X3054110Y-7984913D01*
X3054110Y-7984913D02*
X3073157Y-7975389D01*
X3263634Y-7975389D02*
X3282681Y-7975389D01*
X3282681Y-7975389D02*
X3301729Y-7984913D01*
X3301729Y-7984913D02*
X3311253Y-7994436D01*
X3311253Y-7994436D02*
X3320777Y-8013484D01*
X3320777Y-8013484D02*
X3330300Y-8051579D01*
X3330300Y-8051579D02*
X3330300Y-8099198D01*
X3330300Y-8099198D02*
X3320777Y-8137293D01*
X3320777Y-8137293D02*
X3311253Y-8156341D01*
X3311253Y-8156341D02*
X3301729Y-8165865D01*
X3301729Y-8165865D02*
X3282681Y-8175389D01*
X3282681Y-8175389D02*
X3263634Y-8175389D01*
X3263634Y-8175389D02*
X3244586Y-8165865D01*
X3244586Y-8165865D02*
X3235062Y-8156341D01*
X3235062Y-8156341D02*
X3225538Y-8137293D01*
X3225538Y-8137293D02*
X3216015Y-8099198D01*
X3216015Y-8099198D02*
X3216015Y-8051579D01*
X3216015Y-8051579D02*
X3225538Y-8013484D01*
X3225538Y-8013484D02*
X3235062Y-7994436D01*
X3235062Y-7994436D02*
X3244586Y-7984913D01*
X3244586Y-7984913D02*
X3263634Y-7975389D01*
X3416015Y-8175389D02*
X3416015Y-8042055D01*
X3416015Y-8061103D02*
X3425538Y-8051579D01*
X3425538Y-8051579D02*
X3444586Y-8042055D01*
X3444586Y-8042055D02*
X3473158Y-8042055D01*
X3473158Y-8042055D02*
X3492205Y-8051579D01*
X3492205Y-8051579D02*
X3501729Y-8070627D01*
X3501729Y-8070627D02*
X3501729Y-8175389D01*
X3501729Y-8070627D02*
X3511253Y-8051579D01*
X3511253Y-8051579D02*
X3530300Y-8042055D01*
X3530300Y-8042055D02*
X3558872Y-8042055D01*
X3558872Y-8042055D02*
X3577919Y-8051579D01*
X3577919Y-8051579D02*
X3587443Y-8070627D01*
X3587443Y-8070627D02*
X3587443Y-8175389D01*
X3682681Y-8175389D02*
X3682681Y-8042055D01*
X3682681Y-8061103D02*
X3692205Y-8051579D01*
X3692205Y-8051579D02*
X3711253Y-8042055D01*
X3711253Y-8042055D02*
X3739824Y-8042055D01*
X3739824Y-8042055D02*
X3758872Y-8051579D01*
X3758872Y-8051579D02*
X3768396Y-8070627D01*
X3768396Y-8070627D02*
X3768396Y-8175389D01*
X3768396Y-8070627D02*
X3777919Y-8051579D01*
X3777919Y-8051579D02*
X3796967Y-8042055D01*
X3796967Y-8042055D02*
X3825538Y-8042055D01*
X3825538Y-8042055D02*
X3844586Y-8051579D01*
X3844586Y-8051579D02*
X3854110Y-8070627D01*
X3854110Y-8070627D02*
X3854110Y-8175389D01*
X4244586Y-7965865D02*
X4073158Y-8223008D01*
X4501729Y-7975389D02*
X4520777Y-7975389D01*
X4520777Y-7975389D02*
X4539824Y-7984913D01*
X4539824Y-7984913D02*
X4549348Y-7994436D01*
X4549348Y-7994436D02*
X4558872Y-8013484D01*
X4558872Y-8013484D02*
X4568396Y-8051579D01*
X4568396Y-8051579D02*
X4568396Y-8099198D01*
X4568396Y-8099198D02*
X4558872Y-8137293D01*
X4558872Y-8137293D02*
X4549348Y-8156341D01*
X4549348Y-8156341D02*
X4539824Y-8165865D01*
X4539824Y-8165865D02*
X4520777Y-8175389D01*
X4520777Y-8175389D02*
X4501729Y-8175389D01*
X4501729Y-8175389D02*
X4482682Y-8165865D01*
X4482682Y-8165865D02*
X4473158Y-8156341D01*
X4473158Y-8156341D02*
X4463634Y-8137293D01*
X4463634Y-8137293D02*
X4454110Y-8099198D01*
X4454110Y-8099198D02*
X4454110Y-8051579D01*
X4454110Y-8051579D02*
X4463634Y-8013484D01*
X4463634Y-8013484D02*
X4473158Y-7994436D01*
X4473158Y-7994436D02*
X4482682Y-7984913D01*
X4482682Y-7984913D02*
X4501729Y-7975389D01*
X4654110Y-8156341D02*
X4663634Y-8165865D01*
X4663634Y-8165865D02*
X4654110Y-8175389D01*
X4654110Y-8175389D02*
X4644586Y-8165865D01*
X4644586Y-8165865D02*
X4654110Y-8156341D01*
X4654110Y-8156341D02*
X4654110Y-8175389D01*
X4787443Y-7975389D02*
X4806491Y-7975389D01*
X4806491Y-7975389D02*
X4825539Y-7984913D01*
X4825539Y-7984913D02*
X4835063Y-7994436D01*
X4835063Y-7994436D02*
X4844586Y-8013484D01*
X4844586Y-8013484D02*
X4854110Y-8051579D01*
X4854110Y-8051579D02*
X4854110Y-8099198D01*
X4854110Y-8099198D02*
X4844586Y-8137293D01*
X4844586Y-8137293D02*
X4835063Y-8156341D01*
X4835063Y-8156341D02*
X4825539Y-8165865D01*
X4825539Y-8165865D02*
X4806491Y-8175389D01*
X4806491Y-8175389D02*
X4787443Y-8175389D01*
X4787443Y-8175389D02*
X4768396Y-8165865D01*
X4768396Y-8165865D02*
X4758872Y-8156341D01*
X4758872Y-8156341D02*
X4749348Y-8137293D01*
X4749348Y-8137293D02*
X4739824Y-8099198D01*
X4739824Y-8099198D02*
X4739824Y-8051579D01*
X4739824Y-8051579D02*
X4749348Y-8013484D01*
X4749348Y-8013484D02*
X4758872Y-7994436D01*
X4758872Y-7994436D02*
X4768396Y-7984913D01*
X4768396Y-7984913D02*
X4787443Y-7975389D01*
X4920777Y-7975389D02*
X5044586Y-7975389D01*
X5044586Y-7975389D02*
X4977920Y-8051579D01*
X4977920Y-8051579D02*
X5006491Y-8051579D01*
X5006491Y-8051579D02*
X5025539Y-8061103D01*
X5025539Y-8061103D02*
X5035063Y-8070627D01*
X5035063Y-8070627D02*
X5044586Y-8089674D01*
X5044586Y-8089674D02*
X5044586Y-8137293D01*
X5044586Y-8137293D02*
X5035063Y-8156341D01*
X5035063Y-8156341D02*
X5025539Y-8165865D01*
X5025539Y-8165865D02*
X5006491Y-8175389D01*
X5006491Y-8175389D02*
X4949348Y-8175389D01*
X4949348Y-8175389D02*
X4930301Y-8165865D01*
X4930301Y-8165865D02*
X4920777Y-8156341D01*
X5139824Y-8175389D02*
X5177920Y-8175389D01*
X5177920Y-8175389D02*
X5196967Y-8165865D01*
X5196967Y-8165865D02*
X5206491Y-8156341D01*
X5206491Y-8156341D02*
X5225539Y-8127770D01*
X5225539Y-8127770D02*
X5235063Y-8089674D01*
X5235063Y-8089674D02*
X5235063Y-8013484D01*
X5235063Y-8013484D02*
X5225539Y-7994436D01*
X5225539Y-7994436D02*
X5216015Y-7984913D01*
X5216015Y-7984913D02*
X5196967Y-7975389D01*
X5196967Y-7975389D02*
X5158872Y-7975389D01*
X5158872Y-7975389D02*
X5139824Y-7984913D01*
X5139824Y-7984913D02*
X5130301Y-7994436D01*
X5130301Y-7994436D02*
X5120777Y-8013484D01*
X5120777Y-8013484D02*
X5120777Y-8061103D01*
X5120777Y-8061103D02*
X5130301Y-8080151D01*
X5130301Y-8080151D02*
X5139824Y-8089674D01*
X5139824Y-8089674D02*
X5158872Y-8099198D01*
X5158872Y-8099198D02*
X5196967Y-8099198D01*
X5196967Y-8099198D02*
X5216015Y-8089674D01*
X5216015Y-8089674D02*
X5225539Y-8080151D01*
X5225539Y-8080151D02*
X5235063Y-8061103D01*
X5406491Y-8042055D02*
X5406491Y-8175389D01*
X5358872Y-7965865D02*
X5311253Y-8108722D01*
X5311253Y-8108722D02*
X5435063Y-8108722D01*
X5501729Y-7975389D02*
X5501729Y-8013484D01*
X5577920Y-7975389D02*
X5577920Y-8013484D01*
X5873158Y-8251579D02*
X5863634Y-8242055D01*
X5863634Y-8242055D02*
X5844586Y-8213484D01*
X5844586Y-8213484D02*
X5835063Y-8194436D01*
X5835063Y-8194436D02*
X5825539Y-8165865D01*
X5825539Y-8165865D02*
X5816015Y-8118246D01*
X5816015Y-8118246D02*
X5816015Y-8080151D01*
X5816015Y-8080151D02*
X5825539Y-8032532D01*
X5825539Y-8032532D02*
X5835063Y-8003960D01*
X5835063Y-8003960D02*
X5844586Y-7984913D01*
X5844586Y-7984913D02*
X5863634Y-7956341D01*
X5863634Y-7956341D02*
X5873158Y-7946817D01*
X5939824Y-7994436D02*
X5949348Y-7984913D01*
X5949348Y-7984913D02*
X5968396Y-7975389D01*
X5968396Y-7975389D02*
X6016015Y-7975389D01*
X6016015Y-7975389D02*
X6035063Y-7984913D01*
X6035063Y-7984913D02*
X6044586Y-7994436D01*
X6044586Y-7994436D02*
X6054110Y-8013484D01*
X6054110Y-8013484D02*
X6054110Y-8032532D01*
X6054110Y-8032532D02*
X6044586Y-8061103D01*
X6044586Y-8061103D02*
X5930301Y-8175389D01*
X5930301Y-8175389D02*
X6054110Y-8175389D01*
X6120777Y-7975389D02*
X6254110Y-7975389D01*
X6254110Y-7975389D02*
X6168396Y-8175389D01*
X6482682Y-8175389D02*
X6482682Y-7975389D01*
X6568396Y-8175389D02*
X6568396Y-8070627D01*
X6568396Y-8070627D02*
X6558872Y-8051579D01*
X6558872Y-8051579D02*
X6539825Y-8042055D01*
X6539825Y-8042055D02*
X6511253Y-8042055D01*
X6511253Y-8042055D02*
X6492205Y-8051579D01*
X6492205Y-8051579D02*
X6482682Y-8061103D01*
X6692205Y-8175389D02*
X6673158Y-8165865D01*
X6673158Y-8165865D02*
X6663634Y-8156341D01*
X6663634Y-8156341D02*
X6654110Y-8137293D01*
X6654110Y-8137293D02*
X6654110Y-8080151D01*
X6654110Y-8080151D02*
X6663634Y-8061103D01*
X6663634Y-8061103D02*
X6673158Y-8051579D01*
X6673158Y-8051579D02*
X6692205Y-8042055D01*
X6692205Y-8042055D02*
X6720777Y-8042055D01*
X6720777Y-8042055D02*
X6739825Y-8051579D01*
X6739825Y-8051579D02*
X6749348Y-8061103D01*
X6749348Y-8061103D02*
X6758872Y-8080151D01*
X6758872Y-8080151D02*
X6758872Y-8137293D01*
X6758872Y-8137293D02*
X6749348Y-8156341D01*
X6749348Y-8156341D02*
X6739825Y-8165865D01*
X6739825Y-8165865D02*
X6720777Y-8175389D01*
X6720777Y-8175389D02*
X6692205Y-8175389D01*
X6873158Y-8175389D02*
X6854110Y-8165865D01*
X6854110Y-8165865D02*
X6844586Y-8146817D01*
X6844586Y-8146817D02*
X6844586Y-7975389D01*
X7025539Y-8165865D02*
X7006491Y-8175389D01*
X7006491Y-8175389D02*
X6968396Y-8175389D01*
X6968396Y-8175389D02*
X6949348Y-8165865D01*
X6949348Y-8165865D02*
X6939825Y-8146817D01*
X6939825Y-8146817D02*
X6939825Y-8070627D01*
X6939825Y-8070627D02*
X6949348Y-8051579D01*
X6949348Y-8051579D02*
X6968396Y-8042055D01*
X6968396Y-8042055D02*
X7006491Y-8042055D01*
X7006491Y-8042055D02*
X7025539Y-8051579D01*
X7025539Y-8051579D02*
X7035063Y-8070627D01*
X7035063Y-8070627D02*
X7035063Y-8089674D01*
X7035063Y-8089674D02*
X6939825Y-8108722D01*
X7111253Y-8165865D02*
X7130301Y-8175389D01*
X7130301Y-8175389D02*
X7168396Y-8175389D01*
X7168396Y-8175389D02*
X7187444Y-8165865D01*
X7187444Y-8165865D02*
X7196967Y-8146817D01*
X7196967Y-8146817D02*
X7196967Y-8137293D01*
X7196967Y-8137293D02*
X7187444Y-8118246D01*
X7187444Y-8118246D02*
X7168396Y-8108722D01*
X7168396Y-8108722D02*
X7139825Y-8108722D01*
X7139825Y-8108722D02*
X7120777Y-8099198D01*
X7120777Y-8099198D02*
X7111253Y-8080151D01*
X7111253Y-8080151D02*
X7111253Y-8070627D01*
X7111253Y-8070627D02*
X7120777Y-8051579D01*
X7120777Y-8051579D02*
X7139825Y-8042055D01*
X7139825Y-8042055D02*
X7168396Y-8042055D01*
X7168396Y-8042055D02*
X7187444Y-8051579D01*
X7263634Y-8251579D02*
X7273158Y-8242055D01*
X7273158Y-8242055D02*
X7292206Y-8213484D01*
X7292206Y-8213484D02*
X7301729Y-8194436D01*
X7301729Y-8194436D02*
X7311253Y-8165865D01*
X7311253Y-8165865D02*
X7320777Y-8118246D01*
X7320777Y-8118246D02*
X7320777Y-8080151D01*
X7320777Y-8080151D02*
X7311253Y-8032532D01*
X7311253Y-8032532D02*
X7301729Y-8003960D01*
X7301729Y-8003960D02*
X7292206Y-7984913D01*
X7292206Y-7984913D02*
X7273158Y-7956341D01*
X7273158Y-7956341D02*
X7263634Y-7946817D01*
M02*
