M48
; DRILL file {KiCad 9.0.4} date 2026-01-25T17:53:03-0500
; FORMAT={-:-/ absolute / metric / decimal}
; #@! TF.CreationDate,2026-01-25T17:53:03-05:00
; #@! TF.GenerationSoftware,Kicad,Pcbnew,9.0.4
; #@! TF.FileFunction,Plated,1,4,PTH
FMAT,2
METRIC
; #@! TA.AperFunction,Plated,PTH,ViaDrill
T1C0.300
; #@! TA.AperFunction,Plated,PTH,ComponentDrill
T2C0.600
; #@! TA.AperFunction,Plated,PTH,ComponentDrill
T3C1.000
; #@! TA.AperFunction,Plated,PTH,ComponentDrill
T4C1.100
; #@! TA.AperFunction,Plated,PTH,ComponentDrill
T5C2.200
%
G90
G05
T1
X31.93Y-56.07
X31.93Y-59.43
X37.5Y-62.5
X38.0Y-63.0
X38.0Y-64.29
X38.0Y-65.0
X43.0Y-54.5
X54.938Y-59.438
X66.25Y-52.75
X68.818Y-57.495
X69.312Y-57.0
X70.5Y-53.5
X71.0Y-63.0
X71.5Y-50.5
X71.5Y-54.0
X75.5Y-60.0
X76.5Y-60.0
X77.5Y-60.0
X87.5Y-54.0
X89.0Y-56.5
X90.0Y-51.5
X100.514Y-54.514
X101.0Y-52.0
X102.5Y-46.0
X103.5Y-46.0
X104.5Y-46.0
X105.0Y-52.5
X106.5Y-50.0
X106.5Y-60.5
X109.0Y-60.0
X111.5Y-59.5
X112.0Y-54.0
X113.0Y-54.0
X113.5Y-59.0
X114.5Y-58.5
X116.0Y-59.505
X116.5Y-54.0
X117.0Y-59.505
X117.0Y-65.0
X117.5Y-55.5
X119.5Y-57.5
X121.5Y-58.0
X122.5Y-58.0
X122.5Y-61.5
X123.5Y-58.0
X136.1Y-45.0
T3
X57.15Y-49.01
X57.15Y-64.25
X59.69Y-49.01
X59.69Y-64.25
X62.23Y-49.01
X62.23Y-64.25
X64.77Y-49.01
X64.77Y-64.25
X67.31Y-49.01
X67.31Y-64.25
X69.85Y-49.01
X69.85Y-64.25
X108.0Y-49.01
X108.0Y-64.25
X110.54Y-49.01
X110.54Y-64.25
X113.08Y-49.01
X113.08Y-64.25
X115.62Y-49.01
X115.62Y-64.25
X118.16Y-49.01
X118.16Y-64.25
X120.7Y-49.01
X120.7Y-64.25
X133.26Y-40.5
X133.26Y-45.5
X138.26Y-43.0
X144.9Y-50.5
X144.9Y-65.0
X147.4Y-50.5
X149.9Y-50.5
X149.9Y-65.0
T4
X24.75Y-40.75
X24.75Y-45.25
X31.25Y-40.75
X31.25Y-45.25
X34.25Y-40.75
X34.25Y-45.25
X40.75Y-40.75
X40.75Y-45.25
X43.75Y-40.75
X43.75Y-45.25
X50.25Y-40.75
X50.25Y-45.25
T5
X141.8Y-58.0
X153.0Y-58.0
T2
X25.735Y-56.86G85X26.535Y-56.86
G05
X25.735Y-65.5G85X26.535Y-65.5
G05
X29.755Y-56.86G85X30.855Y-56.86
G05
X29.755Y-65.5G85X30.855Y-65.5
G05
M30
