%TF.GenerationSoftware,KiCad,Pcbnew,9.0.3*%
%TF.CreationDate,2025-08-28T22:31:07-04:00*%
%TF.ProjectId,shiftclock,73686966-7463-46c6-9f63-6b2e6b696361,rev?*%
%TF.SameCoordinates,Original*%
%TF.FileFunction,Drillmap*%
%TF.FilePolarity,Positive*%
%FSLAX45Y45*%
G04 Gerber Fmt 4.5, Leading zero omitted, Abs format (unit mm)*
G04 Created by KiCad (PCBNEW 9.0.3) date 2025-08-28 22:31:07*
%MOMM*%
%LPD*%
G01*
G04 APERTURE LIST*
%ADD10C,0.254000*%
%ADD11C,0.200000*%
%ADD12C,0.100000*%
%ADD13C,0.110000*%
G04 APERTURE END LIST*
D10*
X1500000Y-1479250D02*
X13800000Y-1479250D01*
X13800000Y-5479250D01*
X1500000Y-5479250D01*
X1500000Y-1479250D01*
D11*
D12*
X2585000Y-3764250D02*
X2615000Y-3794250D01*
X2615000Y-3764250D02*
X2585000Y-3794250D01*
X3185000Y-2864250D02*
X3215000Y-2894250D01*
X3215000Y-2864250D02*
X3185000Y-2894250D01*
X4585000Y-4864250D02*
X4615000Y-4894250D01*
X4615000Y-4864250D02*
X4585000Y-4894250D01*
X5285000Y-3464250D02*
X5315000Y-3494250D01*
X5315000Y-3464250D02*
X5285000Y-3494250D01*
X5485000Y-3464250D02*
X5515000Y-3494250D01*
X5515000Y-3464250D02*
X5485000Y-3494250D01*
X6985000Y-2964250D02*
X7015000Y-2994250D01*
X7015000Y-2964250D02*
X6985000Y-2994250D01*
X7085000Y-4864250D02*
X7115000Y-4894250D01*
X7115000Y-4864250D02*
X7085000Y-4894250D01*
X7385000Y-2464250D02*
X7415000Y-2494250D01*
X7415000Y-2464250D02*
X7385000Y-2494250D01*
X7385000Y-2864250D02*
X7415000Y-2894250D01*
X7415000Y-2864250D02*
X7385000Y-2894250D01*
X8185000Y-3964250D02*
X8215000Y-3994250D01*
X8215000Y-3964250D02*
X8185000Y-3994250D01*
X9585000Y-4864250D02*
X9615000Y-4894250D01*
X9615000Y-4864250D02*
X9585000Y-4894250D01*
X1740000Y-2400000D02*
G75*
G02*
X1660000Y-2400000I-40000J0D01*
G01*
X1660000Y-2400000D02*
G75*
G02*
X1740000Y-2400000I40000J0D01*
G01*
X1740000Y-2879250D02*
G75*
G02*
X1660000Y-2879250I-40000J0D01*
G01*
X1660000Y-2879250D02*
G75*
G02*
X1740000Y-2879250I40000J0D01*
G01*
X1990000Y-2400000D02*
G75*
G02*
X1910000Y-2400000I-40000J0D01*
G01*
X1910000Y-2400000D02*
G75*
G02*
X1990000Y-2400000I40000J0D01*
G01*
X1990000Y-2879250D02*
G75*
G02*
X1910000Y-2879250I-40000J0D01*
G01*
X1910000Y-2879250D02*
G75*
G02*
X1990000Y-2879250I40000J0D01*
G01*
X2478000Y-2479250D02*
G75*
G02*
X2398000Y-2479250I-40000J0D01*
G01*
X2398000Y-2479250D02*
G75*
G02*
X2478000Y-2479250I40000J0D01*
G01*
X2478000Y-3279250D02*
G75*
G02*
X2398000Y-3279250I-40000J0D01*
G01*
X2398000Y-3279250D02*
G75*
G02*
X2478000Y-3279250I40000J0D01*
G01*
X3240000Y-2479250D02*
G75*
G02*
X3160000Y-2479250I-40000J0D01*
G01*
X3160000Y-2479250D02*
G75*
G02*
X3240000Y-2479250I40000J0D01*
G01*
X3240000Y-3279250D02*
G75*
G02*
X3160000Y-3279250I-40000J0D01*
G01*
X3160000Y-3279250D02*
G75*
G02*
X3240000Y-3279250I40000J0D01*
G01*
X3543000Y-2297750D02*
G75*
G02*
X3463000Y-2297750I-40000J0D01*
G01*
X3463000Y-2297750D02*
G75*
G02*
X3543000Y-2297750I40000J0D01*
G01*
X3543000Y-3059750D02*
G75*
G02*
X3463000Y-3059750I-40000J0D01*
G01*
X3463000Y-3059750D02*
G75*
G02*
X3543000Y-3059750I40000J0D01*
G01*
X3797000Y-2297750D02*
G75*
G02*
X3717000Y-2297750I-40000J0D01*
G01*
X3717000Y-2297750D02*
G75*
G02*
X3797000Y-2297750I40000J0D01*
G01*
X3797000Y-3059750D02*
G75*
G02*
X3717000Y-3059750I-40000J0D01*
G01*
X3717000Y-3059750D02*
G75*
G02*
X3797000Y-3059750I40000J0D01*
G01*
X4051000Y-2297750D02*
G75*
G02*
X3971000Y-2297750I-40000J0D01*
G01*
X3971000Y-2297750D02*
G75*
G02*
X4051000Y-2297750I40000J0D01*
G01*
X4051000Y-3059750D02*
G75*
G02*
X3971000Y-3059750I-40000J0D01*
G01*
X3971000Y-3059750D02*
G75*
G02*
X4051000Y-3059750I40000J0D01*
G01*
X4224000Y-3679250D02*
G75*
G02*
X4144000Y-3679250I-40000J0D01*
G01*
X4144000Y-3679250D02*
G75*
G02*
X4224000Y-3679250I40000J0D01*
G01*
X4224000Y-5203250D02*
G75*
G02*
X4144000Y-5203250I-40000J0D01*
G01*
X4144000Y-5203250D02*
G75*
G02*
X4224000Y-5203250I40000J0D01*
G01*
X4305000Y-2297750D02*
G75*
G02*
X4225000Y-2297750I-40000J0D01*
G01*
X4225000Y-2297750D02*
G75*
G02*
X4305000Y-2297750I40000J0D01*
G01*
X4305000Y-3059750D02*
G75*
G02*
X4225000Y-3059750I-40000J0D01*
G01*
X4225000Y-3059750D02*
G75*
G02*
X4305000Y-3059750I40000J0D01*
G01*
X4478000Y-3679250D02*
G75*
G02*
X4398000Y-3679250I-40000J0D01*
G01*
X4398000Y-3679250D02*
G75*
G02*
X4478000Y-3679250I40000J0D01*
G01*
X4478000Y-5203250D02*
G75*
G02*
X4398000Y-5203250I-40000J0D01*
G01*
X4398000Y-5203250D02*
G75*
G02*
X4478000Y-5203250I40000J0D01*
G01*
X4559000Y-2297750D02*
G75*
G02*
X4479000Y-2297750I-40000J0D01*
G01*
X4479000Y-2297750D02*
G75*
G02*
X4559000Y-2297750I40000J0D01*
G01*
X4559000Y-3059750D02*
G75*
G02*
X4479000Y-3059750I-40000J0D01*
G01*
X4479000Y-3059750D02*
G75*
G02*
X4559000Y-3059750I40000J0D01*
G01*
X4732000Y-3679250D02*
G75*
G02*
X4652000Y-3679250I-40000J0D01*
G01*
X4652000Y-3679250D02*
G75*
G02*
X4732000Y-3679250I40000J0D01*
G01*
X4732000Y-5203250D02*
G75*
G02*
X4652000Y-5203250I-40000J0D01*
G01*
X4652000Y-5203250D02*
G75*
G02*
X4732000Y-5203250I40000J0D01*
G01*
X4813000Y-2297750D02*
G75*
G02*
X4733000Y-2297750I-40000J0D01*
G01*
X4733000Y-2297750D02*
G75*
G02*
X4813000Y-2297750I40000J0D01*
G01*
X4813000Y-3059750D02*
G75*
G02*
X4733000Y-3059750I-40000J0D01*
G01*
X4733000Y-3059750D02*
G75*
G02*
X4813000Y-3059750I40000J0D01*
G01*
X4986000Y-3679250D02*
G75*
G02*
X4906000Y-3679250I-40000J0D01*
G01*
X4906000Y-3679250D02*
G75*
G02*
X4986000Y-3679250I40000J0D01*
G01*
X4986000Y-5203250D02*
G75*
G02*
X4906000Y-5203250I-40000J0D01*
G01*
X4906000Y-5203250D02*
G75*
G02*
X4986000Y-5203250I40000J0D01*
G01*
X5067000Y-2297750D02*
G75*
G02*
X4987000Y-2297750I-40000J0D01*
G01*
X4987000Y-2297750D02*
G75*
G02*
X5067000Y-2297750I40000J0D01*
G01*
X5067000Y-3059750D02*
G75*
G02*
X4987000Y-3059750I-40000J0D01*
G01*
X4987000Y-3059750D02*
G75*
G02*
X5067000Y-3059750I40000J0D01*
G01*
X5240000Y-3679250D02*
G75*
G02*
X5160000Y-3679250I-40000J0D01*
G01*
X5160000Y-3679250D02*
G75*
G02*
X5240000Y-3679250I40000J0D01*
G01*
X5240000Y-5203250D02*
G75*
G02*
X5160000Y-5203250I-40000J0D01*
G01*
X5160000Y-5203250D02*
G75*
G02*
X5240000Y-5203250I40000J0D01*
G01*
X5321000Y-2297750D02*
G75*
G02*
X5241000Y-2297750I-40000J0D01*
G01*
X5241000Y-2297750D02*
G75*
G02*
X5321000Y-2297750I40000J0D01*
G01*
X5321000Y-3059750D02*
G75*
G02*
X5241000Y-3059750I-40000J0D01*
G01*
X5241000Y-3059750D02*
G75*
G02*
X5321000Y-3059750I40000J0D01*
G01*
X5575000Y-2297750D02*
G75*
G02*
X5495000Y-2297750I-40000J0D01*
G01*
X5495000Y-2297750D02*
G75*
G02*
X5575000Y-2297750I40000J0D01*
G01*
X5575000Y-3059750D02*
G75*
G02*
X5495000Y-3059750I-40000J0D01*
G01*
X5495000Y-3059750D02*
G75*
G02*
X5575000Y-3059750I40000J0D01*
G01*
X5829000Y-2297750D02*
G75*
G02*
X5749000Y-2297750I-40000J0D01*
G01*
X5749000Y-2297750D02*
G75*
G02*
X5829000Y-2297750I40000J0D01*
G01*
X5829000Y-3059750D02*
G75*
G02*
X5749000Y-3059750I-40000J0D01*
G01*
X5749000Y-3059750D02*
G75*
G02*
X5829000Y-3059750I40000J0D01*
G01*
X6083000Y-2297750D02*
G75*
G02*
X6003000Y-2297750I-40000J0D01*
G01*
X6003000Y-2297750D02*
G75*
G02*
X6083000Y-2297750I40000J0D01*
G01*
X6083000Y-3059750D02*
G75*
G02*
X6003000Y-3059750I-40000J0D01*
G01*
X6003000Y-3059750D02*
G75*
G02*
X6083000Y-3059750I40000J0D01*
G01*
X6337000Y-2297750D02*
G75*
G02*
X6257000Y-2297750I-40000J0D01*
G01*
X6257000Y-2297750D02*
G75*
G02*
X6337000Y-2297750I40000J0D01*
G01*
X6337000Y-3059750D02*
G75*
G02*
X6257000Y-3059750I-40000J0D01*
G01*
X6257000Y-3059750D02*
G75*
G02*
X6337000Y-3059750I40000J0D01*
G01*
X6840000Y-3679250D02*
G75*
G02*
X6760000Y-3679250I-40000J0D01*
G01*
X6760000Y-3679250D02*
G75*
G02*
X6840000Y-3679250I40000J0D01*
G01*
X6840000Y-5203250D02*
G75*
G02*
X6760000Y-5203250I-40000J0D01*
G01*
X6760000Y-5203250D02*
G75*
G02*
X6840000Y-5203250I40000J0D01*
G01*
X7094000Y-3679250D02*
G75*
G02*
X7014000Y-3679250I-40000J0D01*
G01*
X7014000Y-3679250D02*
G75*
G02*
X7094000Y-3679250I40000J0D01*
G01*
X7094000Y-5203250D02*
G75*
G02*
X7014000Y-5203250I-40000J0D01*
G01*
X7014000Y-5203250D02*
G75*
G02*
X7094000Y-5203250I40000J0D01*
G01*
X7348000Y-3679250D02*
G75*
G02*
X7268000Y-3679250I-40000J0D01*
G01*
X7268000Y-3679250D02*
G75*
G02*
X7348000Y-3679250I40000J0D01*
G01*
X7348000Y-5203250D02*
G75*
G02*
X7268000Y-5203250I-40000J0D01*
G01*
X7268000Y-5203250D02*
G75*
G02*
X7348000Y-5203250I40000J0D01*
G01*
X7602000Y-3679250D02*
G75*
G02*
X7522000Y-3679250I-40000J0D01*
G01*
X7522000Y-3679250D02*
G75*
G02*
X7602000Y-3679250I40000J0D01*
G01*
X7602000Y-5203250D02*
G75*
G02*
X7522000Y-5203250I-40000J0D01*
G01*
X7522000Y-5203250D02*
G75*
G02*
X7602000Y-5203250I40000J0D01*
G01*
X7856000Y-3679250D02*
G75*
G02*
X7776000Y-3679250I-40000J0D01*
G01*
X7776000Y-3679250D02*
G75*
G02*
X7856000Y-3679250I40000J0D01*
G01*
X7856000Y-5203250D02*
G75*
G02*
X7776000Y-5203250I-40000J0D01*
G01*
X7776000Y-5203250D02*
G75*
G02*
X7856000Y-5203250I40000J0D01*
G01*
X8240000Y-1800000D02*
G75*
G02*
X8160000Y-1800000I-40000J0D01*
G01*
X8160000Y-1800000D02*
G75*
G02*
X8240000Y-1800000I40000J0D01*
G01*
X8240000Y-2179250D02*
G75*
G02*
X8160000Y-2179250I-40000J0D01*
G01*
X8160000Y-2179250D02*
G75*
G02*
X8240000Y-2179250I40000J0D01*
G01*
X8240000Y-2579250D02*
G75*
G02*
X8160000Y-2579250I-40000J0D01*
G01*
X8160000Y-2579250D02*
G75*
G02*
X8240000Y-2579250I40000J0D01*
G01*
X9002000Y-1800000D02*
G75*
G02*
X8922000Y-1800000I-40000J0D01*
G01*
X8922000Y-1800000D02*
G75*
G02*
X9002000Y-1800000I40000J0D01*
G01*
X9002000Y-2179250D02*
G75*
G02*
X8922000Y-2179250I-40000J0D01*
G01*
X8922000Y-2179250D02*
G75*
G02*
X9002000Y-2179250I40000J0D01*
G01*
X9002000Y-2579250D02*
G75*
G02*
X8922000Y-2579250I-40000J0D01*
G01*
X8922000Y-2579250D02*
G75*
G02*
X9002000Y-2579250I40000J0D01*
G01*
X9440000Y-3679250D02*
G75*
G02*
X9360000Y-3679250I-40000J0D01*
G01*
X9360000Y-3679250D02*
G75*
G02*
X9440000Y-3679250I40000J0D01*
G01*
X9440000Y-5203250D02*
G75*
G02*
X9360000Y-5203250I-40000J0D01*
G01*
X9360000Y-5203250D02*
G75*
G02*
X9440000Y-5203250I40000J0D01*
G01*
X9694000Y-3679250D02*
G75*
G02*
X9614000Y-3679250I-40000J0D01*
G01*
X9614000Y-3679250D02*
G75*
G02*
X9694000Y-3679250I40000J0D01*
G01*
X9694000Y-5203250D02*
G75*
G02*
X9614000Y-5203250I-40000J0D01*
G01*
X9614000Y-5203250D02*
G75*
G02*
X9694000Y-5203250I40000J0D01*
G01*
X9948000Y-3679250D02*
G75*
G02*
X9868000Y-3679250I-40000J0D01*
G01*
X9868000Y-3679250D02*
G75*
G02*
X9948000Y-3679250I40000J0D01*
G01*
X9948000Y-5203250D02*
G75*
G02*
X9868000Y-5203250I-40000J0D01*
G01*
X9868000Y-5203250D02*
G75*
G02*
X9948000Y-5203250I40000J0D01*
G01*
X10202000Y-3679250D02*
G75*
G02*
X10122000Y-3679250I-40000J0D01*
G01*
X10122000Y-3679250D02*
G75*
G02*
X10202000Y-3679250I40000J0D01*
G01*
X10202000Y-5203250D02*
G75*
G02*
X10122000Y-5203250I-40000J0D01*
G01*
X10122000Y-5203250D02*
G75*
G02*
X10202000Y-5203250I40000J0D01*
G01*
X10456000Y-3679250D02*
G75*
G02*
X10376000Y-3679250I-40000J0D01*
G01*
X10376000Y-3679250D02*
G75*
G02*
X10456000Y-3679250I40000J0D01*
G01*
X10456000Y-5203250D02*
G75*
G02*
X10376000Y-5203250I-40000J0D01*
G01*
X10376000Y-5203250D02*
G75*
G02*
X10456000Y-5203250I40000J0D01*
G01*
X12040000Y-3680750D02*
G75*
G02*
X11960000Y-3680750I-40000J0D01*
G01*
X11960000Y-3680750D02*
G75*
G02*
X12040000Y-3680750I40000J0D01*
G01*
X12040000Y-5204750D02*
G75*
G02*
X11960000Y-5204750I-40000J0D01*
G01*
X11960000Y-5204750D02*
G75*
G02*
X12040000Y-5204750I40000J0D01*
G01*
X12294000Y-3680750D02*
G75*
G02*
X12214000Y-3680750I-40000J0D01*
G01*
X12214000Y-3680750D02*
G75*
G02*
X12294000Y-3680750I40000J0D01*
G01*
X12294000Y-5204750D02*
G75*
G02*
X12214000Y-5204750I-40000J0D01*
G01*
X12214000Y-5204750D02*
G75*
G02*
X12294000Y-5204750I40000J0D01*
G01*
X12548000Y-3680750D02*
G75*
G02*
X12468000Y-3680750I-40000J0D01*
G01*
X12468000Y-3680750D02*
G75*
G02*
X12548000Y-3680750I40000J0D01*
G01*
X12548000Y-5204750D02*
G75*
G02*
X12468000Y-5204750I-40000J0D01*
G01*
X12468000Y-5204750D02*
G75*
G02*
X12548000Y-5204750I40000J0D01*
G01*
X12802000Y-3680750D02*
G75*
G02*
X12722000Y-3680750I-40000J0D01*
G01*
X12722000Y-3680750D02*
G75*
G02*
X12802000Y-3680750I40000J0D01*
G01*
X12802000Y-5204750D02*
G75*
G02*
X12722000Y-5204750I-40000J0D01*
G01*
X12722000Y-5204750D02*
G75*
G02*
X12802000Y-5204750I40000J0D01*
G01*
X13056000Y-3680750D02*
G75*
G02*
X12976000Y-3680750I-40000J0D01*
G01*
X12976000Y-3680750D02*
G75*
G02*
X13056000Y-3680750I40000J0D01*
G01*
X13056000Y-5204750D02*
G75*
G02*
X12976000Y-5204750I-40000J0D01*
G01*
X12976000Y-5204750D02*
G75*
G02*
X13056000Y-5204750I40000J0D01*
G01*
X1700000Y-3329250D02*
X1700000Y-3429250D01*
X1650000Y-3379250D02*
X1750000Y-3379250D01*
X1700000Y-3583250D02*
X1700000Y-3683250D01*
X1650000Y-3633250D02*
X1750000Y-3633250D01*
X1700000Y-3837250D02*
X1700000Y-3937250D01*
X1650000Y-3887250D02*
X1750000Y-3887250D01*
X1700000Y-4091250D02*
X1700000Y-4191250D01*
X1650000Y-4141250D02*
X1750000Y-4141250D01*
X1700000Y-4345250D02*
X1700000Y-4445250D01*
X1650000Y-4395250D02*
X1750000Y-4395250D01*
X1700000Y-4599250D02*
X1700000Y-4699250D01*
X1650000Y-4649250D02*
X1750000Y-4649250D01*
X1700000Y-4853250D02*
X1700000Y-4953250D01*
X1650000Y-4903250D02*
X1750000Y-4903250D01*
X1700000Y-5107250D02*
X1700000Y-5207250D01*
X1650000Y-5157250D02*
X1750000Y-5157250D01*
D13*
X10338891Y-1813891D02*
X10338891Y-1736109D01*
X10261109Y-1736109D01*
X10261109Y-1813891D01*
X10338891Y-1813891D01*
X10338891Y-2263891D02*
X10338891Y-2186109D01*
X10261109Y-2186109D01*
X10261109Y-2263891D01*
X10338891Y-2263891D01*
X10988891Y-1813891D02*
X10988891Y-1736109D01*
X10911109Y-1736109D01*
X10911109Y-1813891D01*
X10988891Y-1813891D01*
X10988891Y-2263891D02*
X10988891Y-2186109D01*
X10911109Y-2186109D01*
X10911109Y-2263891D01*
X10988891Y-2263891D01*
X11413891Y-1813891D02*
X11413891Y-1736109D01*
X11336109Y-1736109D01*
X11336109Y-1813891D01*
X11413891Y-1813891D01*
X11413891Y-2263891D02*
X11413891Y-2186109D01*
X11336109Y-2186109D01*
X11336109Y-2263891D01*
X11413891Y-2263891D01*
X12063891Y-1813891D02*
X12063891Y-1736109D01*
X11986109Y-1736109D01*
X11986109Y-1813891D01*
X12063891Y-1813891D01*
X12063891Y-2263891D02*
X12063891Y-2186109D01*
X11986109Y-2186109D01*
X11986109Y-2263891D01*
X12063891Y-2263891D01*
X12513891Y-1813891D02*
X12513891Y-1736109D01*
X12436109Y-1736109D01*
X12436109Y-1813891D01*
X12513891Y-1813891D01*
X12513891Y-2263891D02*
X12513891Y-2186109D01*
X12436109Y-2186109D01*
X12436109Y-2263891D01*
X12513891Y-2263891D01*
X13163891Y-1813891D02*
X13163891Y-1736109D01*
X13086109Y-1736109D01*
X13086109Y-1813891D01*
X13163891Y-1813891D01*
X13163891Y-2263891D02*
X13163891Y-2186109D01*
X13086109Y-2186109D01*
X13086109Y-2263891D01*
X13163891Y-2263891D01*
D11*
X1748077Y-5803434D02*
X1748077Y-5603434D01*
X1748077Y-5603434D02*
X1795696Y-5603434D01*
X1795696Y-5603434D02*
X1824267Y-5612958D01*
X1824267Y-5612958D02*
X1843315Y-5632005D01*
X1843315Y-5632005D02*
X1852839Y-5651053D01*
X1852839Y-5651053D02*
X1862362Y-5689148D01*
X1862362Y-5689148D02*
X1862362Y-5717719D01*
X1862362Y-5717719D02*
X1852839Y-5755815D01*
X1852839Y-5755815D02*
X1843315Y-5774862D01*
X1843315Y-5774862D02*
X1824267Y-5793910D01*
X1824267Y-5793910D02*
X1795696Y-5803434D01*
X1795696Y-5803434D02*
X1748077Y-5803434D01*
X1948077Y-5803434D02*
X1948077Y-5670100D01*
X1948077Y-5708196D02*
X1957601Y-5689148D01*
X1957601Y-5689148D02*
X1967124Y-5679624D01*
X1967124Y-5679624D02*
X1986172Y-5670100D01*
X1986172Y-5670100D02*
X2005220Y-5670100D01*
X2071886Y-5803434D02*
X2071886Y-5670100D01*
X2071886Y-5603434D02*
X2062362Y-5612958D01*
X2062362Y-5612958D02*
X2071886Y-5622481D01*
X2071886Y-5622481D02*
X2081410Y-5612958D01*
X2081410Y-5612958D02*
X2071886Y-5603434D01*
X2071886Y-5603434D02*
X2071886Y-5622481D01*
X2195696Y-5803434D02*
X2176648Y-5793910D01*
X2176648Y-5793910D02*
X2167124Y-5774862D01*
X2167124Y-5774862D02*
X2167124Y-5603434D01*
X2300458Y-5803434D02*
X2281410Y-5793910D01*
X2281410Y-5793910D02*
X2271886Y-5774862D01*
X2271886Y-5774862D02*
X2271886Y-5603434D01*
X2529029Y-5803434D02*
X2529029Y-5603434D01*
X2529029Y-5603434D02*
X2595696Y-5746291D01*
X2595696Y-5746291D02*
X2662363Y-5603434D01*
X2662363Y-5603434D02*
X2662363Y-5803434D01*
X2843315Y-5803434D02*
X2843315Y-5698672D01*
X2843315Y-5698672D02*
X2833791Y-5679624D01*
X2833791Y-5679624D02*
X2814743Y-5670100D01*
X2814743Y-5670100D02*
X2776648Y-5670100D01*
X2776648Y-5670100D02*
X2757601Y-5679624D01*
X2843315Y-5793910D02*
X2824267Y-5803434D01*
X2824267Y-5803434D02*
X2776648Y-5803434D01*
X2776648Y-5803434D02*
X2757601Y-5793910D01*
X2757601Y-5793910D02*
X2748077Y-5774862D01*
X2748077Y-5774862D02*
X2748077Y-5755815D01*
X2748077Y-5755815D02*
X2757601Y-5736767D01*
X2757601Y-5736767D02*
X2776648Y-5727243D01*
X2776648Y-5727243D02*
X2824267Y-5727243D01*
X2824267Y-5727243D02*
X2843315Y-5717719D01*
X2938553Y-5670100D02*
X2938553Y-5870100D01*
X2938553Y-5679624D02*
X2957601Y-5670100D01*
X2957601Y-5670100D02*
X2995696Y-5670100D01*
X2995696Y-5670100D02*
X3014743Y-5679624D01*
X3014743Y-5679624D02*
X3024267Y-5689148D01*
X3024267Y-5689148D02*
X3033791Y-5708196D01*
X3033791Y-5708196D02*
X3033791Y-5765338D01*
X3033791Y-5765338D02*
X3024267Y-5784386D01*
X3024267Y-5784386D02*
X3014743Y-5793910D01*
X3014743Y-5793910D02*
X2995696Y-5803434D01*
X2995696Y-5803434D02*
X2957601Y-5803434D01*
X2957601Y-5803434D02*
X2938553Y-5793910D01*
X3119505Y-5784386D02*
X3129029Y-5793910D01*
X3129029Y-5793910D02*
X3119505Y-5803434D01*
X3119505Y-5803434D02*
X3109982Y-5793910D01*
X3109982Y-5793910D02*
X3119505Y-5784386D01*
X3119505Y-5784386D02*
X3119505Y-5803434D01*
X3119505Y-5679624D02*
X3129029Y-5689148D01*
X3129029Y-5689148D02*
X3119505Y-5698672D01*
X3119505Y-5698672D02*
X3109982Y-5689148D01*
X3109982Y-5689148D02*
X3119505Y-5679624D01*
X3119505Y-5679624D02*
X3119505Y-5698672D01*
D12*
X1457300Y-6116950D02*
X1487300Y-6146950D01*
X1487300Y-6116950D02*
X1457300Y-6146950D01*
D11*
X1786172Y-6023434D02*
X1805220Y-6023434D01*
X1805220Y-6023434D02*
X1824267Y-6032958D01*
X1824267Y-6032958D02*
X1833791Y-6042481D01*
X1833791Y-6042481D02*
X1843315Y-6061529D01*
X1843315Y-6061529D02*
X1852839Y-6099624D01*
X1852839Y-6099624D02*
X1852839Y-6147243D01*
X1852839Y-6147243D02*
X1843315Y-6185338D01*
X1843315Y-6185338D02*
X1833791Y-6204386D01*
X1833791Y-6204386D02*
X1824267Y-6213910D01*
X1824267Y-6213910D02*
X1805220Y-6223434D01*
X1805220Y-6223434D02*
X1786172Y-6223434D01*
X1786172Y-6223434D02*
X1767124Y-6213910D01*
X1767124Y-6213910D02*
X1757601Y-6204386D01*
X1757601Y-6204386D02*
X1748077Y-6185338D01*
X1748077Y-6185338D02*
X1738553Y-6147243D01*
X1738553Y-6147243D02*
X1738553Y-6099624D01*
X1738553Y-6099624D02*
X1748077Y-6061529D01*
X1748077Y-6061529D02*
X1757601Y-6042481D01*
X1757601Y-6042481D02*
X1767124Y-6032958D01*
X1767124Y-6032958D02*
X1786172Y-6023434D01*
X1938553Y-6204386D02*
X1948077Y-6213910D01*
X1948077Y-6213910D02*
X1938553Y-6223434D01*
X1938553Y-6223434D02*
X1929029Y-6213910D01*
X1929029Y-6213910D02*
X1938553Y-6204386D01*
X1938553Y-6204386D02*
X1938553Y-6223434D01*
X2014743Y-6023434D02*
X2138553Y-6023434D01*
X2138553Y-6023434D02*
X2071886Y-6099624D01*
X2071886Y-6099624D02*
X2100458Y-6099624D01*
X2100458Y-6099624D02*
X2119505Y-6109148D01*
X2119505Y-6109148D02*
X2129029Y-6118672D01*
X2129029Y-6118672D02*
X2138553Y-6137719D01*
X2138553Y-6137719D02*
X2138553Y-6185338D01*
X2138553Y-6185338D02*
X2129029Y-6204386D01*
X2129029Y-6204386D02*
X2119505Y-6213910D01*
X2119505Y-6213910D02*
X2100458Y-6223434D01*
X2100458Y-6223434D02*
X2043315Y-6223434D01*
X2043315Y-6223434D02*
X2024267Y-6213910D01*
X2024267Y-6213910D02*
X2014743Y-6204386D01*
X2262363Y-6023434D02*
X2281410Y-6023434D01*
X2281410Y-6023434D02*
X2300458Y-6032958D01*
X2300458Y-6032958D02*
X2309982Y-6042481D01*
X2309982Y-6042481D02*
X2319505Y-6061529D01*
X2319505Y-6061529D02*
X2329029Y-6099624D01*
X2329029Y-6099624D02*
X2329029Y-6147243D01*
X2329029Y-6147243D02*
X2319505Y-6185338D01*
X2319505Y-6185338D02*
X2309982Y-6204386D01*
X2309982Y-6204386D02*
X2300458Y-6213910D01*
X2300458Y-6213910D02*
X2281410Y-6223434D01*
X2281410Y-6223434D02*
X2262363Y-6223434D01*
X2262363Y-6223434D02*
X2243315Y-6213910D01*
X2243315Y-6213910D02*
X2233791Y-6204386D01*
X2233791Y-6204386D02*
X2224267Y-6185338D01*
X2224267Y-6185338D02*
X2214744Y-6147243D01*
X2214744Y-6147243D02*
X2214744Y-6099624D01*
X2214744Y-6099624D02*
X2224267Y-6061529D01*
X2224267Y-6061529D02*
X2233791Y-6042481D01*
X2233791Y-6042481D02*
X2243315Y-6032958D01*
X2243315Y-6032958D02*
X2262363Y-6023434D01*
X2452839Y-6023434D02*
X2471886Y-6023434D01*
X2471886Y-6023434D02*
X2490934Y-6032958D01*
X2490934Y-6032958D02*
X2500458Y-6042481D01*
X2500458Y-6042481D02*
X2509982Y-6061529D01*
X2509982Y-6061529D02*
X2519505Y-6099624D01*
X2519505Y-6099624D02*
X2519505Y-6147243D01*
X2519505Y-6147243D02*
X2509982Y-6185338D01*
X2509982Y-6185338D02*
X2500458Y-6204386D01*
X2500458Y-6204386D02*
X2490934Y-6213910D01*
X2490934Y-6213910D02*
X2471886Y-6223434D01*
X2471886Y-6223434D02*
X2452839Y-6223434D01*
X2452839Y-6223434D02*
X2433791Y-6213910D01*
X2433791Y-6213910D02*
X2424267Y-6204386D01*
X2424267Y-6204386D02*
X2414744Y-6185338D01*
X2414744Y-6185338D02*
X2405220Y-6147243D01*
X2405220Y-6147243D02*
X2405220Y-6099624D01*
X2405220Y-6099624D02*
X2414744Y-6061529D01*
X2414744Y-6061529D02*
X2424267Y-6042481D01*
X2424267Y-6042481D02*
X2433791Y-6032958D01*
X2433791Y-6032958D02*
X2452839Y-6023434D01*
X2605220Y-6223434D02*
X2605220Y-6090100D01*
X2605220Y-6109148D02*
X2614744Y-6099624D01*
X2614744Y-6099624D02*
X2633791Y-6090100D01*
X2633791Y-6090100D02*
X2662363Y-6090100D01*
X2662363Y-6090100D02*
X2681410Y-6099624D01*
X2681410Y-6099624D02*
X2690934Y-6118672D01*
X2690934Y-6118672D02*
X2690934Y-6223434D01*
X2690934Y-6118672D02*
X2700458Y-6099624D01*
X2700458Y-6099624D02*
X2719505Y-6090100D01*
X2719505Y-6090100D02*
X2748077Y-6090100D01*
X2748077Y-6090100D02*
X2767125Y-6099624D01*
X2767125Y-6099624D02*
X2776648Y-6118672D01*
X2776648Y-6118672D02*
X2776648Y-6223434D01*
X2871886Y-6223434D02*
X2871886Y-6090100D01*
X2871886Y-6109148D02*
X2881410Y-6099624D01*
X2881410Y-6099624D02*
X2900458Y-6090100D01*
X2900458Y-6090100D02*
X2929029Y-6090100D01*
X2929029Y-6090100D02*
X2948077Y-6099624D01*
X2948077Y-6099624D02*
X2957601Y-6118672D01*
X2957601Y-6118672D02*
X2957601Y-6223434D01*
X2957601Y-6118672D02*
X2967124Y-6099624D01*
X2967124Y-6099624D02*
X2986172Y-6090100D01*
X2986172Y-6090100D02*
X3014743Y-6090100D01*
X3014743Y-6090100D02*
X3033791Y-6099624D01*
X3033791Y-6099624D02*
X3043315Y-6118672D01*
X3043315Y-6118672D02*
X3043315Y-6223434D01*
X3433791Y-6013910D02*
X3262363Y-6271053D01*
X3690934Y-6023434D02*
X3709982Y-6023434D01*
X3709982Y-6023434D02*
X3729029Y-6032958D01*
X3729029Y-6032958D02*
X3738553Y-6042481D01*
X3738553Y-6042481D02*
X3748077Y-6061529D01*
X3748077Y-6061529D02*
X3757601Y-6099624D01*
X3757601Y-6099624D02*
X3757601Y-6147243D01*
X3757601Y-6147243D02*
X3748077Y-6185338D01*
X3748077Y-6185338D02*
X3738553Y-6204386D01*
X3738553Y-6204386D02*
X3729029Y-6213910D01*
X3729029Y-6213910D02*
X3709982Y-6223434D01*
X3709982Y-6223434D02*
X3690934Y-6223434D01*
X3690934Y-6223434D02*
X3671886Y-6213910D01*
X3671886Y-6213910D02*
X3662363Y-6204386D01*
X3662363Y-6204386D02*
X3652839Y-6185338D01*
X3652839Y-6185338D02*
X3643315Y-6147243D01*
X3643315Y-6147243D02*
X3643315Y-6099624D01*
X3643315Y-6099624D02*
X3652839Y-6061529D01*
X3652839Y-6061529D02*
X3662363Y-6042481D01*
X3662363Y-6042481D02*
X3671886Y-6032958D01*
X3671886Y-6032958D02*
X3690934Y-6023434D01*
X3843315Y-6204386D02*
X3852839Y-6213910D01*
X3852839Y-6213910D02*
X3843315Y-6223434D01*
X3843315Y-6223434D02*
X3833791Y-6213910D01*
X3833791Y-6213910D02*
X3843315Y-6204386D01*
X3843315Y-6204386D02*
X3843315Y-6223434D01*
X3976648Y-6023434D02*
X3995696Y-6023434D01*
X3995696Y-6023434D02*
X4014744Y-6032958D01*
X4014744Y-6032958D02*
X4024267Y-6042481D01*
X4024267Y-6042481D02*
X4033791Y-6061529D01*
X4033791Y-6061529D02*
X4043315Y-6099624D01*
X4043315Y-6099624D02*
X4043315Y-6147243D01*
X4043315Y-6147243D02*
X4033791Y-6185338D01*
X4033791Y-6185338D02*
X4024267Y-6204386D01*
X4024267Y-6204386D02*
X4014744Y-6213910D01*
X4014744Y-6213910D02*
X3995696Y-6223434D01*
X3995696Y-6223434D02*
X3976648Y-6223434D01*
X3976648Y-6223434D02*
X3957601Y-6213910D01*
X3957601Y-6213910D02*
X3948077Y-6204386D01*
X3948077Y-6204386D02*
X3938553Y-6185338D01*
X3938553Y-6185338D02*
X3929029Y-6147243D01*
X3929029Y-6147243D02*
X3929029Y-6099624D01*
X3929029Y-6099624D02*
X3938553Y-6061529D01*
X3938553Y-6061529D02*
X3948077Y-6042481D01*
X3948077Y-6042481D02*
X3957601Y-6032958D01*
X3957601Y-6032958D02*
X3976648Y-6023434D01*
X4233791Y-6223434D02*
X4119506Y-6223434D01*
X4176648Y-6223434D02*
X4176648Y-6023434D01*
X4176648Y-6023434D02*
X4157601Y-6052005D01*
X4157601Y-6052005D02*
X4138553Y-6071053D01*
X4138553Y-6071053D02*
X4119506Y-6080577D01*
X4424268Y-6223434D02*
X4309982Y-6223434D01*
X4367125Y-6223434D02*
X4367125Y-6023434D01*
X4367125Y-6023434D02*
X4348077Y-6052005D01*
X4348077Y-6052005D02*
X4329029Y-6071053D01*
X4329029Y-6071053D02*
X4309982Y-6080577D01*
X4538553Y-6109148D02*
X4519506Y-6099624D01*
X4519506Y-6099624D02*
X4509982Y-6090100D01*
X4509982Y-6090100D02*
X4500458Y-6071053D01*
X4500458Y-6071053D02*
X4500458Y-6061529D01*
X4500458Y-6061529D02*
X4509982Y-6042481D01*
X4509982Y-6042481D02*
X4519506Y-6032958D01*
X4519506Y-6032958D02*
X4538553Y-6023434D01*
X4538553Y-6023434D02*
X4576649Y-6023434D01*
X4576649Y-6023434D02*
X4595696Y-6032958D01*
X4595696Y-6032958D02*
X4605220Y-6042481D01*
X4605220Y-6042481D02*
X4614744Y-6061529D01*
X4614744Y-6061529D02*
X4614744Y-6071053D01*
X4614744Y-6071053D02*
X4605220Y-6090100D01*
X4605220Y-6090100D02*
X4595696Y-6099624D01*
X4595696Y-6099624D02*
X4576649Y-6109148D01*
X4576649Y-6109148D02*
X4538553Y-6109148D01*
X4538553Y-6109148D02*
X4519506Y-6118672D01*
X4519506Y-6118672D02*
X4509982Y-6128196D01*
X4509982Y-6128196D02*
X4500458Y-6147243D01*
X4500458Y-6147243D02*
X4500458Y-6185338D01*
X4500458Y-6185338D02*
X4509982Y-6204386D01*
X4509982Y-6204386D02*
X4519506Y-6213910D01*
X4519506Y-6213910D02*
X4538553Y-6223434D01*
X4538553Y-6223434D02*
X4576649Y-6223434D01*
X4576649Y-6223434D02*
X4595696Y-6213910D01*
X4595696Y-6213910D02*
X4605220Y-6204386D01*
X4605220Y-6204386D02*
X4614744Y-6185338D01*
X4614744Y-6185338D02*
X4614744Y-6147243D01*
X4614744Y-6147243D02*
X4605220Y-6128196D01*
X4605220Y-6128196D02*
X4595696Y-6118672D01*
X4595696Y-6118672D02*
X4576649Y-6109148D01*
X4690934Y-6023434D02*
X4690934Y-6061529D01*
X4767125Y-6023434D02*
X4767125Y-6061529D01*
X5062363Y-6299624D02*
X5052839Y-6290100D01*
X5052839Y-6290100D02*
X5033791Y-6261529D01*
X5033791Y-6261529D02*
X5024268Y-6242481D01*
X5024268Y-6242481D02*
X5014744Y-6213910D01*
X5014744Y-6213910D02*
X5005220Y-6166291D01*
X5005220Y-6166291D02*
X5005220Y-6128196D01*
X5005220Y-6128196D02*
X5014744Y-6080577D01*
X5014744Y-6080577D02*
X5024268Y-6052005D01*
X5024268Y-6052005D02*
X5033791Y-6032958D01*
X5033791Y-6032958D02*
X5052839Y-6004386D01*
X5052839Y-6004386D02*
X5062363Y-5994862D01*
X5243315Y-6223434D02*
X5129030Y-6223434D01*
X5186172Y-6223434D02*
X5186172Y-6023434D01*
X5186172Y-6023434D02*
X5167125Y-6052005D01*
X5167125Y-6052005D02*
X5148077Y-6071053D01*
X5148077Y-6071053D02*
X5129030Y-6080577D01*
X5433791Y-6223434D02*
X5319506Y-6223434D01*
X5376649Y-6223434D02*
X5376649Y-6023434D01*
X5376649Y-6023434D02*
X5357601Y-6052005D01*
X5357601Y-6052005D02*
X5338553Y-6071053D01*
X5338553Y-6071053D02*
X5319506Y-6080577D01*
X5671887Y-6223434D02*
X5671887Y-6023434D01*
X5757601Y-6223434D02*
X5757601Y-6118672D01*
X5757601Y-6118672D02*
X5748077Y-6099624D01*
X5748077Y-6099624D02*
X5729030Y-6090100D01*
X5729030Y-6090100D02*
X5700458Y-6090100D01*
X5700458Y-6090100D02*
X5681410Y-6099624D01*
X5681410Y-6099624D02*
X5671887Y-6109148D01*
X5881410Y-6223434D02*
X5862363Y-6213910D01*
X5862363Y-6213910D02*
X5852839Y-6204386D01*
X5852839Y-6204386D02*
X5843315Y-6185338D01*
X5843315Y-6185338D02*
X5843315Y-6128196D01*
X5843315Y-6128196D02*
X5852839Y-6109148D01*
X5852839Y-6109148D02*
X5862363Y-6099624D01*
X5862363Y-6099624D02*
X5881410Y-6090100D01*
X5881410Y-6090100D02*
X5909982Y-6090100D01*
X5909982Y-6090100D02*
X5929030Y-6099624D01*
X5929030Y-6099624D02*
X5938553Y-6109148D01*
X5938553Y-6109148D02*
X5948077Y-6128196D01*
X5948077Y-6128196D02*
X5948077Y-6185338D01*
X5948077Y-6185338D02*
X5938553Y-6204386D01*
X5938553Y-6204386D02*
X5929030Y-6213910D01*
X5929030Y-6213910D02*
X5909982Y-6223434D01*
X5909982Y-6223434D02*
X5881410Y-6223434D01*
X6062363Y-6223434D02*
X6043315Y-6213910D01*
X6043315Y-6213910D02*
X6033791Y-6194862D01*
X6033791Y-6194862D02*
X6033791Y-6023434D01*
X6214744Y-6213910D02*
X6195696Y-6223434D01*
X6195696Y-6223434D02*
X6157601Y-6223434D01*
X6157601Y-6223434D02*
X6138553Y-6213910D01*
X6138553Y-6213910D02*
X6129030Y-6194862D01*
X6129030Y-6194862D02*
X6129030Y-6118672D01*
X6129030Y-6118672D02*
X6138553Y-6099624D01*
X6138553Y-6099624D02*
X6157601Y-6090100D01*
X6157601Y-6090100D02*
X6195696Y-6090100D01*
X6195696Y-6090100D02*
X6214744Y-6099624D01*
X6214744Y-6099624D02*
X6224268Y-6118672D01*
X6224268Y-6118672D02*
X6224268Y-6137719D01*
X6224268Y-6137719D02*
X6129030Y-6156767D01*
X6300458Y-6213910D02*
X6319506Y-6223434D01*
X6319506Y-6223434D02*
X6357601Y-6223434D01*
X6357601Y-6223434D02*
X6376649Y-6213910D01*
X6376649Y-6213910D02*
X6386172Y-6194862D01*
X6386172Y-6194862D02*
X6386172Y-6185338D01*
X6386172Y-6185338D02*
X6376649Y-6166291D01*
X6376649Y-6166291D02*
X6357601Y-6156767D01*
X6357601Y-6156767D02*
X6329030Y-6156767D01*
X6329030Y-6156767D02*
X6309982Y-6147243D01*
X6309982Y-6147243D02*
X6300458Y-6128196D01*
X6300458Y-6128196D02*
X6300458Y-6118672D01*
X6300458Y-6118672D02*
X6309982Y-6099624D01*
X6309982Y-6099624D02*
X6329030Y-6090100D01*
X6329030Y-6090100D02*
X6357601Y-6090100D01*
X6357601Y-6090100D02*
X6376649Y-6099624D01*
X6452839Y-6299624D02*
X6462363Y-6290100D01*
X6462363Y-6290100D02*
X6481411Y-6261529D01*
X6481411Y-6261529D02*
X6490934Y-6242481D01*
X6490934Y-6242481D02*
X6500458Y-6213910D01*
X6500458Y-6213910D02*
X6509982Y-6166291D01*
X6509982Y-6166291D02*
X6509982Y-6128196D01*
X6509982Y-6128196D02*
X6500458Y-6080577D01*
X6500458Y-6080577D02*
X6490934Y-6052005D01*
X6490934Y-6052005D02*
X6481411Y-6032958D01*
X6481411Y-6032958D02*
X6462363Y-6004386D01*
X6462363Y-6004386D02*
X6452839Y-5994862D01*
D12*
X1487300Y-6395950D02*
G75*
G02*
X1407300Y-6395950I-40000J0D01*
G01*
X1407300Y-6395950D02*
G75*
G02*
X1487300Y-6395950I40000J0D01*
G01*
D11*
X1786172Y-6287434D02*
X1805220Y-6287434D01*
X1805220Y-6287434D02*
X1824267Y-6296958D01*
X1824267Y-6296958D02*
X1833791Y-6306481D01*
X1833791Y-6306481D02*
X1843315Y-6325529D01*
X1843315Y-6325529D02*
X1852839Y-6363624D01*
X1852839Y-6363624D02*
X1852839Y-6411243D01*
X1852839Y-6411243D02*
X1843315Y-6449338D01*
X1843315Y-6449338D02*
X1833791Y-6468386D01*
X1833791Y-6468386D02*
X1824267Y-6477910D01*
X1824267Y-6477910D02*
X1805220Y-6487434D01*
X1805220Y-6487434D02*
X1786172Y-6487434D01*
X1786172Y-6487434D02*
X1767124Y-6477910D01*
X1767124Y-6477910D02*
X1757601Y-6468386D01*
X1757601Y-6468386D02*
X1748077Y-6449338D01*
X1748077Y-6449338D02*
X1738553Y-6411243D01*
X1738553Y-6411243D02*
X1738553Y-6363624D01*
X1738553Y-6363624D02*
X1748077Y-6325529D01*
X1748077Y-6325529D02*
X1757601Y-6306481D01*
X1757601Y-6306481D02*
X1767124Y-6296958D01*
X1767124Y-6296958D02*
X1786172Y-6287434D01*
X1938553Y-6468386D02*
X1948077Y-6477910D01*
X1948077Y-6477910D02*
X1938553Y-6487434D01*
X1938553Y-6487434D02*
X1929029Y-6477910D01*
X1929029Y-6477910D02*
X1938553Y-6468386D01*
X1938553Y-6468386D02*
X1938553Y-6487434D01*
X2062362Y-6373148D02*
X2043315Y-6363624D01*
X2043315Y-6363624D02*
X2033791Y-6354100D01*
X2033791Y-6354100D02*
X2024267Y-6335053D01*
X2024267Y-6335053D02*
X2024267Y-6325529D01*
X2024267Y-6325529D02*
X2033791Y-6306481D01*
X2033791Y-6306481D02*
X2043315Y-6296958D01*
X2043315Y-6296958D02*
X2062362Y-6287434D01*
X2062362Y-6287434D02*
X2100458Y-6287434D01*
X2100458Y-6287434D02*
X2119505Y-6296958D01*
X2119505Y-6296958D02*
X2129029Y-6306481D01*
X2129029Y-6306481D02*
X2138553Y-6325529D01*
X2138553Y-6325529D02*
X2138553Y-6335053D01*
X2138553Y-6335053D02*
X2129029Y-6354100D01*
X2129029Y-6354100D02*
X2119505Y-6363624D01*
X2119505Y-6363624D02*
X2100458Y-6373148D01*
X2100458Y-6373148D02*
X2062362Y-6373148D01*
X2062362Y-6373148D02*
X2043315Y-6382672D01*
X2043315Y-6382672D02*
X2033791Y-6392196D01*
X2033791Y-6392196D02*
X2024267Y-6411243D01*
X2024267Y-6411243D02*
X2024267Y-6449338D01*
X2024267Y-6449338D02*
X2033791Y-6468386D01*
X2033791Y-6468386D02*
X2043315Y-6477910D01*
X2043315Y-6477910D02*
X2062362Y-6487434D01*
X2062362Y-6487434D02*
X2100458Y-6487434D01*
X2100458Y-6487434D02*
X2119505Y-6477910D01*
X2119505Y-6477910D02*
X2129029Y-6468386D01*
X2129029Y-6468386D02*
X2138553Y-6449338D01*
X2138553Y-6449338D02*
X2138553Y-6411243D01*
X2138553Y-6411243D02*
X2129029Y-6392196D01*
X2129029Y-6392196D02*
X2119505Y-6382672D01*
X2119505Y-6382672D02*
X2100458Y-6373148D01*
X2262363Y-6287434D02*
X2281410Y-6287434D01*
X2281410Y-6287434D02*
X2300458Y-6296958D01*
X2300458Y-6296958D02*
X2309982Y-6306481D01*
X2309982Y-6306481D02*
X2319505Y-6325529D01*
X2319505Y-6325529D02*
X2329029Y-6363624D01*
X2329029Y-6363624D02*
X2329029Y-6411243D01*
X2329029Y-6411243D02*
X2319505Y-6449338D01*
X2319505Y-6449338D02*
X2309982Y-6468386D01*
X2309982Y-6468386D02*
X2300458Y-6477910D01*
X2300458Y-6477910D02*
X2281410Y-6487434D01*
X2281410Y-6487434D02*
X2262363Y-6487434D01*
X2262363Y-6487434D02*
X2243315Y-6477910D01*
X2243315Y-6477910D02*
X2233791Y-6468386D01*
X2233791Y-6468386D02*
X2224267Y-6449338D01*
X2224267Y-6449338D02*
X2214744Y-6411243D01*
X2214744Y-6411243D02*
X2214744Y-6363624D01*
X2214744Y-6363624D02*
X2224267Y-6325529D01*
X2224267Y-6325529D02*
X2233791Y-6306481D01*
X2233791Y-6306481D02*
X2243315Y-6296958D01*
X2243315Y-6296958D02*
X2262363Y-6287434D01*
X2452839Y-6287434D02*
X2471886Y-6287434D01*
X2471886Y-6287434D02*
X2490934Y-6296958D01*
X2490934Y-6296958D02*
X2500458Y-6306481D01*
X2500458Y-6306481D02*
X2509982Y-6325529D01*
X2509982Y-6325529D02*
X2519505Y-6363624D01*
X2519505Y-6363624D02*
X2519505Y-6411243D01*
X2519505Y-6411243D02*
X2509982Y-6449338D01*
X2509982Y-6449338D02*
X2500458Y-6468386D01*
X2500458Y-6468386D02*
X2490934Y-6477910D01*
X2490934Y-6477910D02*
X2471886Y-6487434D01*
X2471886Y-6487434D02*
X2452839Y-6487434D01*
X2452839Y-6487434D02*
X2433791Y-6477910D01*
X2433791Y-6477910D02*
X2424267Y-6468386D01*
X2424267Y-6468386D02*
X2414744Y-6449338D01*
X2414744Y-6449338D02*
X2405220Y-6411243D01*
X2405220Y-6411243D02*
X2405220Y-6363624D01*
X2405220Y-6363624D02*
X2414744Y-6325529D01*
X2414744Y-6325529D02*
X2424267Y-6306481D01*
X2424267Y-6306481D02*
X2433791Y-6296958D01*
X2433791Y-6296958D02*
X2452839Y-6287434D01*
X2605220Y-6487434D02*
X2605220Y-6354100D01*
X2605220Y-6373148D02*
X2614744Y-6363624D01*
X2614744Y-6363624D02*
X2633791Y-6354100D01*
X2633791Y-6354100D02*
X2662363Y-6354100D01*
X2662363Y-6354100D02*
X2681410Y-6363624D01*
X2681410Y-6363624D02*
X2690934Y-6382672D01*
X2690934Y-6382672D02*
X2690934Y-6487434D01*
X2690934Y-6382672D02*
X2700458Y-6363624D01*
X2700458Y-6363624D02*
X2719505Y-6354100D01*
X2719505Y-6354100D02*
X2748077Y-6354100D01*
X2748077Y-6354100D02*
X2767125Y-6363624D01*
X2767125Y-6363624D02*
X2776648Y-6382672D01*
X2776648Y-6382672D02*
X2776648Y-6487434D01*
X2871886Y-6487434D02*
X2871886Y-6354100D01*
X2871886Y-6373148D02*
X2881410Y-6363624D01*
X2881410Y-6363624D02*
X2900458Y-6354100D01*
X2900458Y-6354100D02*
X2929029Y-6354100D01*
X2929029Y-6354100D02*
X2948077Y-6363624D01*
X2948077Y-6363624D02*
X2957601Y-6382672D01*
X2957601Y-6382672D02*
X2957601Y-6487434D01*
X2957601Y-6382672D02*
X2967124Y-6363624D01*
X2967124Y-6363624D02*
X2986172Y-6354100D01*
X2986172Y-6354100D02*
X3014743Y-6354100D01*
X3014743Y-6354100D02*
X3033791Y-6363624D01*
X3033791Y-6363624D02*
X3043315Y-6382672D01*
X3043315Y-6382672D02*
X3043315Y-6487434D01*
X3433791Y-6277910D02*
X3262363Y-6535053D01*
X3690934Y-6287434D02*
X3709982Y-6287434D01*
X3709982Y-6287434D02*
X3729029Y-6296958D01*
X3729029Y-6296958D02*
X3738553Y-6306481D01*
X3738553Y-6306481D02*
X3748077Y-6325529D01*
X3748077Y-6325529D02*
X3757601Y-6363624D01*
X3757601Y-6363624D02*
X3757601Y-6411243D01*
X3757601Y-6411243D02*
X3748077Y-6449338D01*
X3748077Y-6449338D02*
X3738553Y-6468386D01*
X3738553Y-6468386D02*
X3729029Y-6477910D01*
X3729029Y-6477910D02*
X3709982Y-6487434D01*
X3709982Y-6487434D02*
X3690934Y-6487434D01*
X3690934Y-6487434D02*
X3671886Y-6477910D01*
X3671886Y-6477910D02*
X3662363Y-6468386D01*
X3662363Y-6468386D02*
X3652839Y-6449338D01*
X3652839Y-6449338D02*
X3643315Y-6411243D01*
X3643315Y-6411243D02*
X3643315Y-6363624D01*
X3643315Y-6363624D02*
X3652839Y-6325529D01*
X3652839Y-6325529D02*
X3662363Y-6306481D01*
X3662363Y-6306481D02*
X3671886Y-6296958D01*
X3671886Y-6296958D02*
X3690934Y-6287434D01*
X3843315Y-6468386D02*
X3852839Y-6477910D01*
X3852839Y-6477910D02*
X3843315Y-6487434D01*
X3843315Y-6487434D02*
X3833791Y-6477910D01*
X3833791Y-6477910D02*
X3843315Y-6468386D01*
X3843315Y-6468386D02*
X3843315Y-6487434D01*
X3976648Y-6287434D02*
X3995696Y-6287434D01*
X3995696Y-6287434D02*
X4014744Y-6296958D01*
X4014744Y-6296958D02*
X4024267Y-6306481D01*
X4024267Y-6306481D02*
X4033791Y-6325529D01*
X4033791Y-6325529D02*
X4043315Y-6363624D01*
X4043315Y-6363624D02*
X4043315Y-6411243D01*
X4043315Y-6411243D02*
X4033791Y-6449338D01*
X4033791Y-6449338D02*
X4024267Y-6468386D01*
X4024267Y-6468386D02*
X4014744Y-6477910D01*
X4014744Y-6477910D02*
X3995696Y-6487434D01*
X3995696Y-6487434D02*
X3976648Y-6487434D01*
X3976648Y-6487434D02*
X3957601Y-6477910D01*
X3957601Y-6477910D02*
X3948077Y-6468386D01*
X3948077Y-6468386D02*
X3938553Y-6449338D01*
X3938553Y-6449338D02*
X3929029Y-6411243D01*
X3929029Y-6411243D02*
X3929029Y-6363624D01*
X3929029Y-6363624D02*
X3938553Y-6325529D01*
X3938553Y-6325529D02*
X3948077Y-6306481D01*
X3948077Y-6306481D02*
X3957601Y-6296958D01*
X3957601Y-6296958D02*
X3976648Y-6287434D01*
X4109982Y-6287434D02*
X4233791Y-6287434D01*
X4233791Y-6287434D02*
X4167125Y-6363624D01*
X4167125Y-6363624D02*
X4195696Y-6363624D01*
X4195696Y-6363624D02*
X4214744Y-6373148D01*
X4214744Y-6373148D02*
X4224268Y-6382672D01*
X4224268Y-6382672D02*
X4233791Y-6401719D01*
X4233791Y-6401719D02*
X4233791Y-6449338D01*
X4233791Y-6449338D02*
X4224268Y-6468386D01*
X4224268Y-6468386D02*
X4214744Y-6477910D01*
X4214744Y-6477910D02*
X4195696Y-6487434D01*
X4195696Y-6487434D02*
X4138553Y-6487434D01*
X4138553Y-6487434D02*
X4119506Y-6477910D01*
X4119506Y-6477910D02*
X4109982Y-6468386D01*
X4424268Y-6487434D02*
X4309982Y-6487434D01*
X4367125Y-6487434D02*
X4367125Y-6287434D01*
X4367125Y-6287434D02*
X4348077Y-6316005D01*
X4348077Y-6316005D02*
X4329029Y-6335053D01*
X4329029Y-6335053D02*
X4309982Y-6344577D01*
X4605220Y-6287434D02*
X4509982Y-6287434D01*
X4509982Y-6287434D02*
X4500458Y-6382672D01*
X4500458Y-6382672D02*
X4509982Y-6373148D01*
X4509982Y-6373148D02*
X4529029Y-6363624D01*
X4529029Y-6363624D02*
X4576649Y-6363624D01*
X4576649Y-6363624D02*
X4595696Y-6373148D01*
X4595696Y-6373148D02*
X4605220Y-6382672D01*
X4605220Y-6382672D02*
X4614744Y-6401719D01*
X4614744Y-6401719D02*
X4614744Y-6449338D01*
X4614744Y-6449338D02*
X4605220Y-6468386D01*
X4605220Y-6468386D02*
X4595696Y-6477910D01*
X4595696Y-6477910D02*
X4576649Y-6487434D01*
X4576649Y-6487434D02*
X4529029Y-6487434D01*
X4529029Y-6487434D02*
X4509982Y-6477910D01*
X4509982Y-6477910D02*
X4500458Y-6468386D01*
X4690934Y-6287434D02*
X4690934Y-6325529D01*
X4767125Y-6287434D02*
X4767125Y-6325529D01*
X5062363Y-6563624D02*
X5052839Y-6554100D01*
X5052839Y-6554100D02*
X5033791Y-6525529D01*
X5033791Y-6525529D02*
X5024268Y-6506481D01*
X5024268Y-6506481D02*
X5014744Y-6477910D01*
X5014744Y-6477910D02*
X5005220Y-6430291D01*
X5005220Y-6430291D02*
X5005220Y-6392196D01*
X5005220Y-6392196D02*
X5014744Y-6344577D01*
X5014744Y-6344577D02*
X5024268Y-6316005D01*
X5024268Y-6316005D02*
X5033791Y-6296958D01*
X5033791Y-6296958D02*
X5052839Y-6268386D01*
X5052839Y-6268386D02*
X5062363Y-6258862D01*
X5119506Y-6287434D02*
X5252839Y-6287434D01*
X5252839Y-6287434D02*
X5167125Y-6487434D01*
X5357601Y-6373148D02*
X5338553Y-6363624D01*
X5338553Y-6363624D02*
X5329030Y-6354100D01*
X5329030Y-6354100D02*
X5319506Y-6335053D01*
X5319506Y-6335053D02*
X5319506Y-6325529D01*
X5319506Y-6325529D02*
X5329030Y-6306481D01*
X5329030Y-6306481D02*
X5338553Y-6296958D01*
X5338553Y-6296958D02*
X5357601Y-6287434D01*
X5357601Y-6287434D02*
X5395696Y-6287434D01*
X5395696Y-6287434D02*
X5414744Y-6296958D01*
X5414744Y-6296958D02*
X5424268Y-6306481D01*
X5424268Y-6306481D02*
X5433791Y-6325529D01*
X5433791Y-6325529D02*
X5433791Y-6335053D01*
X5433791Y-6335053D02*
X5424268Y-6354100D01*
X5424268Y-6354100D02*
X5414744Y-6363624D01*
X5414744Y-6363624D02*
X5395696Y-6373148D01*
X5395696Y-6373148D02*
X5357601Y-6373148D01*
X5357601Y-6373148D02*
X5338553Y-6382672D01*
X5338553Y-6382672D02*
X5329030Y-6392196D01*
X5329030Y-6392196D02*
X5319506Y-6411243D01*
X5319506Y-6411243D02*
X5319506Y-6449338D01*
X5319506Y-6449338D02*
X5329030Y-6468386D01*
X5329030Y-6468386D02*
X5338553Y-6477910D01*
X5338553Y-6477910D02*
X5357601Y-6487434D01*
X5357601Y-6487434D02*
X5395696Y-6487434D01*
X5395696Y-6487434D02*
X5414744Y-6477910D01*
X5414744Y-6477910D02*
X5424268Y-6468386D01*
X5424268Y-6468386D02*
X5433791Y-6449338D01*
X5433791Y-6449338D02*
X5433791Y-6411243D01*
X5433791Y-6411243D02*
X5424268Y-6392196D01*
X5424268Y-6392196D02*
X5414744Y-6382672D01*
X5414744Y-6382672D02*
X5395696Y-6373148D01*
X5671887Y-6487434D02*
X5671887Y-6287434D01*
X5757601Y-6487434D02*
X5757601Y-6382672D01*
X5757601Y-6382672D02*
X5748077Y-6363624D01*
X5748077Y-6363624D02*
X5729030Y-6354100D01*
X5729030Y-6354100D02*
X5700458Y-6354100D01*
X5700458Y-6354100D02*
X5681410Y-6363624D01*
X5681410Y-6363624D02*
X5671887Y-6373148D01*
X5881410Y-6487434D02*
X5862363Y-6477910D01*
X5862363Y-6477910D02*
X5852839Y-6468386D01*
X5852839Y-6468386D02*
X5843315Y-6449338D01*
X5843315Y-6449338D02*
X5843315Y-6392196D01*
X5843315Y-6392196D02*
X5852839Y-6373148D01*
X5852839Y-6373148D02*
X5862363Y-6363624D01*
X5862363Y-6363624D02*
X5881410Y-6354100D01*
X5881410Y-6354100D02*
X5909982Y-6354100D01*
X5909982Y-6354100D02*
X5929030Y-6363624D01*
X5929030Y-6363624D02*
X5938553Y-6373148D01*
X5938553Y-6373148D02*
X5948077Y-6392196D01*
X5948077Y-6392196D02*
X5948077Y-6449338D01*
X5948077Y-6449338D02*
X5938553Y-6468386D01*
X5938553Y-6468386D02*
X5929030Y-6477910D01*
X5929030Y-6477910D02*
X5909982Y-6487434D01*
X5909982Y-6487434D02*
X5881410Y-6487434D01*
X6062363Y-6487434D02*
X6043315Y-6477910D01*
X6043315Y-6477910D02*
X6033791Y-6458862D01*
X6033791Y-6458862D02*
X6033791Y-6287434D01*
X6214744Y-6477910D02*
X6195696Y-6487434D01*
X6195696Y-6487434D02*
X6157601Y-6487434D01*
X6157601Y-6487434D02*
X6138553Y-6477910D01*
X6138553Y-6477910D02*
X6129030Y-6458862D01*
X6129030Y-6458862D02*
X6129030Y-6382672D01*
X6129030Y-6382672D02*
X6138553Y-6363624D01*
X6138553Y-6363624D02*
X6157601Y-6354100D01*
X6157601Y-6354100D02*
X6195696Y-6354100D01*
X6195696Y-6354100D02*
X6214744Y-6363624D01*
X6214744Y-6363624D02*
X6224268Y-6382672D01*
X6224268Y-6382672D02*
X6224268Y-6401719D01*
X6224268Y-6401719D02*
X6129030Y-6420767D01*
X6300458Y-6477910D02*
X6319506Y-6487434D01*
X6319506Y-6487434D02*
X6357601Y-6487434D01*
X6357601Y-6487434D02*
X6376649Y-6477910D01*
X6376649Y-6477910D02*
X6386172Y-6458862D01*
X6386172Y-6458862D02*
X6386172Y-6449338D01*
X6386172Y-6449338D02*
X6376649Y-6430291D01*
X6376649Y-6430291D02*
X6357601Y-6420767D01*
X6357601Y-6420767D02*
X6329030Y-6420767D01*
X6329030Y-6420767D02*
X6309982Y-6411243D01*
X6309982Y-6411243D02*
X6300458Y-6392196D01*
X6300458Y-6392196D02*
X6300458Y-6382672D01*
X6300458Y-6382672D02*
X6309982Y-6363624D01*
X6309982Y-6363624D02*
X6329030Y-6354100D01*
X6329030Y-6354100D02*
X6357601Y-6354100D01*
X6357601Y-6354100D02*
X6376649Y-6363624D01*
X6452839Y-6563624D02*
X6462363Y-6554100D01*
X6462363Y-6554100D02*
X6481411Y-6525529D01*
X6481411Y-6525529D02*
X6490934Y-6506481D01*
X6490934Y-6506481D02*
X6500458Y-6477910D01*
X6500458Y-6477910D02*
X6509982Y-6430291D01*
X6509982Y-6430291D02*
X6509982Y-6392196D01*
X6509982Y-6392196D02*
X6500458Y-6344577D01*
X6500458Y-6344577D02*
X6490934Y-6316005D01*
X6490934Y-6316005D02*
X6481411Y-6296958D01*
X6481411Y-6296958D02*
X6462363Y-6268386D01*
X6462363Y-6268386D02*
X6452839Y-6258862D01*
D12*
X1437300Y-6609950D02*
X1437300Y-6709950D01*
X1387300Y-6659950D02*
X1487300Y-6659950D01*
D11*
X1852839Y-6751434D02*
X1738553Y-6751434D01*
X1795696Y-6751434D02*
X1795696Y-6551434D01*
X1795696Y-6551434D02*
X1776648Y-6580005D01*
X1776648Y-6580005D02*
X1757601Y-6599053D01*
X1757601Y-6599053D02*
X1738553Y-6608577D01*
X1938553Y-6732386D02*
X1948077Y-6741910D01*
X1948077Y-6741910D02*
X1938553Y-6751434D01*
X1938553Y-6751434D02*
X1929029Y-6741910D01*
X1929029Y-6741910D02*
X1938553Y-6732386D01*
X1938553Y-6732386D02*
X1938553Y-6751434D01*
X2071886Y-6551434D02*
X2090934Y-6551434D01*
X2090934Y-6551434D02*
X2109982Y-6560958D01*
X2109982Y-6560958D02*
X2119505Y-6570481D01*
X2119505Y-6570481D02*
X2129029Y-6589529D01*
X2129029Y-6589529D02*
X2138553Y-6627624D01*
X2138553Y-6627624D02*
X2138553Y-6675243D01*
X2138553Y-6675243D02*
X2129029Y-6713338D01*
X2129029Y-6713338D02*
X2119505Y-6732386D01*
X2119505Y-6732386D02*
X2109982Y-6741910D01*
X2109982Y-6741910D02*
X2090934Y-6751434D01*
X2090934Y-6751434D02*
X2071886Y-6751434D01*
X2071886Y-6751434D02*
X2052839Y-6741910D01*
X2052839Y-6741910D02*
X2043315Y-6732386D01*
X2043315Y-6732386D02*
X2033791Y-6713338D01*
X2033791Y-6713338D02*
X2024267Y-6675243D01*
X2024267Y-6675243D02*
X2024267Y-6627624D01*
X2024267Y-6627624D02*
X2033791Y-6589529D01*
X2033791Y-6589529D02*
X2043315Y-6570481D01*
X2043315Y-6570481D02*
X2052839Y-6560958D01*
X2052839Y-6560958D02*
X2071886Y-6551434D01*
X2262363Y-6551434D02*
X2281410Y-6551434D01*
X2281410Y-6551434D02*
X2300458Y-6560958D01*
X2300458Y-6560958D02*
X2309982Y-6570481D01*
X2309982Y-6570481D02*
X2319505Y-6589529D01*
X2319505Y-6589529D02*
X2329029Y-6627624D01*
X2329029Y-6627624D02*
X2329029Y-6675243D01*
X2329029Y-6675243D02*
X2319505Y-6713338D01*
X2319505Y-6713338D02*
X2309982Y-6732386D01*
X2309982Y-6732386D02*
X2300458Y-6741910D01*
X2300458Y-6741910D02*
X2281410Y-6751434D01*
X2281410Y-6751434D02*
X2262363Y-6751434D01*
X2262363Y-6751434D02*
X2243315Y-6741910D01*
X2243315Y-6741910D02*
X2233791Y-6732386D01*
X2233791Y-6732386D02*
X2224267Y-6713338D01*
X2224267Y-6713338D02*
X2214744Y-6675243D01*
X2214744Y-6675243D02*
X2214744Y-6627624D01*
X2214744Y-6627624D02*
X2224267Y-6589529D01*
X2224267Y-6589529D02*
X2233791Y-6570481D01*
X2233791Y-6570481D02*
X2243315Y-6560958D01*
X2243315Y-6560958D02*
X2262363Y-6551434D01*
X2452839Y-6551434D02*
X2471886Y-6551434D01*
X2471886Y-6551434D02*
X2490934Y-6560958D01*
X2490934Y-6560958D02*
X2500458Y-6570481D01*
X2500458Y-6570481D02*
X2509982Y-6589529D01*
X2509982Y-6589529D02*
X2519505Y-6627624D01*
X2519505Y-6627624D02*
X2519505Y-6675243D01*
X2519505Y-6675243D02*
X2509982Y-6713338D01*
X2509982Y-6713338D02*
X2500458Y-6732386D01*
X2500458Y-6732386D02*
X2490934Y-6741910D01*
X2490934Y-6741910D02*
X2471886Y-6751434D01*
X2471886Y-6751434D02*
X2452839Y-6751434D01*
X2452839Y-6751434D02*
X2433791Y-6741910D01*
X2433791Y-6741910D02*
X2424267Y-6732386D01*
X2424267Y-6732386D02*
X2414744Y-6713338D01*
X2414744Y-6713338D02*
X2405220Y-6675243D01*
X2405220Y-6675243D02*
X2405220Y-6627624D01*
X2405220Y-6627624D02*
X2414744Y-6589529D01*
X2414744Y-6589529D02*
X2424267Y-6570481D01*
X2424267Y-6570481D02*
X2433791Y-6560958D01*
X2433791Y-6560958D02*
X2452839Y-6551434D01*
X2605220Y-6751434D02*
X2605220Y-6618100D01*
X2605220Y-6637148D02*
X2614744Y-6627624D01*
X2614744Y-6627624D02*
X2633791Y-6618100D01*
X2633791Y-6618100D02*
X2662363Y-6618100D01*
X2662363Y-6618100D02*
X2681410Y-6627624D01*
X2681410Y-6627624D02*
X2690934Y-6646672D01*
X2690934Y-6646672D02*
X2690934Y-6751434D01*
X2690934Y-6646672D02*
X2700458Y-6627624D01*
X2700458Y-6627624D02*
X2719505Y-6618100D01*
X2719505Y-6618100D02*
X2748077Y-6618100D01*
X2748077Y-6618100D02*
X2767125Y-6627624D01*
X2767125Y-6627624D02*
X2776648Y-6646672D01*
X2776648Y-6646672D02*
X2776648Y-6751434D01*
X2871886Y-6751434D02*
X2871886Y-6618100D01*
X2871886Y-6637148D02*
X2881410Y-6627624D01*
X2881410Y-6627624D02*
X2900458Y-6618100D01*
X2900458Y-6618100D02*
X2929029Y-6618100D01*
X2929029Y-6618100D02*
X2948077Y-6627624D01*
X2948077Y-6627624D02*
X2957601Y-6646672D01*
X2957601Y-6646672D02*
X2957601Y-6751434D01*
X2957601Y-6646672D02*
X2967124Y-6627624D01*
X2967124Y-6627624D02*
X2986172Y-6618100D01*
X2986172Y-6618100D02*
X3014743Y-6618100D01*
X3014743Y-6618100D02*
X3033791Y-6627624D01*
X3033791Y-6627624D02*
X3043315Y-6646672D01*
X3043315Y-6646672D02*
X3043315Y-6751434D01*
X3433791Y-6541910D02*
X3262363Y-6799053D01*
X3690934Y-6551434D02*
X3709982Y-6551434D01*
X3709982Y-6551434D02*
X3729029Y-6560958D01*
X3729029Y-6560958D02*
X3738553Y-6570481D01*
X3738553Y-6570481D02*
X3748077Y-6589529D01*
X3748077Y-6589529D02*
X3757601Y-6627624D01*
X3757601Y-6627624D02*
X3757601Y-6675243D01*
X3757601Y-6675243D02*
X3748077Y-6713338D01*
X3748077Y-6713338D02*
X3738553Y-6732386D01*
X3738553Y-6732386D02*
X3729029Y-6741910D01*
X3729029Y-6741910D02*
X3709982Y-6751434D01*
X3709982Y-6751434D02*
X3690934Y-6751434D01*
X3690934Y-6751434D02*
X3671886Y-6741910D01*
X3671886Y-6741910D02*
X3662363Y-6732386D01*
X3662363Y-6732386D02*
X3652839Y-6713338D01*
X3652839Y-6713338D02*
X3643315Y-6675243D01*
X3643315Y-6675243D02*
X3643315Y-6627624D01*
X3643315Y-6627624D02*
X3652839Y-6589529D01*
X3652839Y-6589529D02*
X3662363Y-6570481D01*
X3662363Y-6570481D02*
X3671886Y-6560958D01*
X3671886Y-6560958D02*
X3690934Y-6551434D01*
X3843315Y-6732386D02*
X3852839Y-6741910D01*
X3852839Y-6741910D02*
X3843315Y-6751434D01*
X3843315Y-6751434D02*
X3833791Y-6741910D01*
X3833791Y-6741910D02*
X3843315Y-6732386D01*
X3843315Y-6732386D02*
X3843315Y-6751434D01*
X3976648Y-6551434D02*
X3995696Y-6551434D01*
X3995696Y-6551434D02*
X4014744Y-6560958D01*
X4014744Y-6560958D02*
X4024267Y-6570481D01*
X4024267Y-6570481D02*
X4033791Y-6589529D01*
X4033791Y-6589529D02*
X4043315Y-6627624D01*
X4043315Y-6627624D02*
X4043315Y-6675243D01*
X4043315Y-6675243D02*
X4033791Y-6713338D01*
X4033791Y-6713338D02*
X4024267Y-6732386D01*
X4024267Y-6732386D02*
X4014744Y-6741910D01*
X4014744Y-6741910D02*
X3995696Y-6751434D01*
X3995696Y-6751434D02*
X3976648Y-6751434D01*
X3976648Y-6751434D02*
X3957601Y-6741910D01*
X3957601Y-6741910D02*
X3948077Y-6732386D01*
X3948077Y-6732386D02*
X3938553Y-6713338D01*
X3938553Y-6713338D02*
X3929029Y-6675243D01*
X3929029Y-6675243D02*
X3929029Y-6627624D01*
X3929029Y-6627624D02*
X3938553Y-6589529D01*
X3938553Y-6589529D02*
X3948077Y-6570481D01*
X3948077Y-6570481D02*
X3957601Y-6560958D01*
X3957601Y-6560958D02*
X3976648Y-6551434D01*
X4109982Y-6551434D02*
X4233791Y-6551434D01*
X4233791Y-6551434D02*
X4167125Y-6627624D01*
X4167125Y-6627624D02*
X4195696Y-6627624D01*
X4195696Y-6627624D02*
X4214744Y-6637148D01*
X4214744Y-6637148D02*
X4224268Y-6646672D01*
X4224268Y-6646672D02*
X4233791Y-6665719D01*
X4233791Y-6665719D02*
X4233791Y-6713338D01*
X4233791Y-6713338D02*
X4224268Y-6732386D01*
X4224268Y-6732386D02*
X4214744Y-6741910D01*
X4214744Y-6741910D02*
X4195696Y-6751434D01*
X4195696Y-6751434D02*
X4138553Y-6751434D01*
X4138553Y-6751434D02*
X4119506Y-6741910D01*
X4119506Y-6741910D02*
X4109982Y-6732386D01*
X4329029Y-6751434D02*
X4367125Y-6751434D01*
X4367125Y-6751434D02*
X4386172Y-6741910D01*
X4386172Y-6741910D02*
X4395696Y-6732386D01*
X4395696Y-6732386D02*
X4414744Y-6703815D01*
X4414744Y-6703815D02*
X4424268Y-6665719D01*
X4424268Y-6665719D02*
X4424268Y-6589529D01*
X4424268Y-6589529D02*
X4414744Y-6570481D01*
X4414744Y-6570481D02*
X4405220Y-6560958D01*
X4405220Y-6560958D02*
X4386172Y-6551434D01*
X4386172Y-6551434D02*
X4348077Y-6551434D01*
X4348077Y-6551434D02*
X4329029Y-6560958D01*
X4329029Y-6560958D02*
X4319506Y-6570481D01*
X4319506Y-6570481D02*
X4309982Y-6589529D01*
X4309982Y-6589529D02*
X4309982Y-6637148D01*
X4309982Y-6637148D02*
X4319506Y-6656196D01*
X4319506Y-6656196D02*
X4329029Y-6665719D01*
X4329029Y-6665719D02*
X4348077Y-6675243D01*
X4348077Y-6675243D02*
X4386172Y-6675243D01*
X4386172Y-6675243D02*
X4405220Y-6665719D01*
X4405220Y-6665719D02*
X4414744Y-6656196D01*
X4414744Y-6656196D02*
X4424268Y-6637148D01*
X4595696Y-6618100D02*
X4595696Y-6751434D01*
X4548077Y-6541910D02*
X4500458Y-6684767D01*
X4500458Y-6684767D02*
X4624268Y-6684767D01*
X4690934Y-6551434D02*
X4690934Y-6589529D01*
X4767125Y-6551434D02*
X4767125Y-6589529D01*
X5062363Y-6827624D02*
X5052839Y-6818100D01*
X5052839Y-6818100D02*
X5033791Y-6789529D01*
X5033791Y-6789529D02*
X5024268Y-6770481D01*
X5024268Y-6770481D02*
X5014744Y-6741910D01*
X5014744Y-6741910D02*
X5005220Y-6694291D01*
X5005220Y-6694291D02*
X5005220Y-6656196D01*
X5005220Y-6656196D02*
X5014744Y-6608577D01*
X5014744Y-6608577D02*
X5024268Y-6580005D01*
X5024268Y-6580005D02*
X5033791Y-6560958D01*
X5033791Y-6560958D02*
X5052839Y-6532386D01*
X5052839Y-6532386D02*
X5062363Y-6522862D01*
X5167125Y-6637148D02*
X5148077Y-6627624D01*
X5148077Y-6627624D02*
X5138553Y-6618100D01*
X5138553Y-6618100D02*
X5129030Y-6599053D01*
X5129030Y-6599053D02*
X5129030Y-6589529D01*
X5129030Y-6589529D02*
X5138553Y-6570481D01*
X5138553Y-6570481D02*
X5148077Y-6560958D01*
X5148077Y-6560958D02*
X5167125Y-6551434D01*
X5167125Y-6551434D02*
X5205220Y-6551434D01*
X5205220Y-6551434D02*
X5224268Y-6560958D01*
X5224268Y-6560958D02*
X5233791Y-6570481D01*
X5233791Y-6570481D02*
X5243315Y-6589529D01*
X5243315Y-6589529D02*
X5243315Y-6599053D01*
X5243315Y-6599053D02*
X5233791Y-6618100D01*
X5233791Y-6618100D02*
X5224268Y-6627624D01*
X5224268Y-6627624D02*
X5205220Y-6637148D01*
X5205220Y-6637148D02*
X5167125Y-6637148D01*
X5167125Y-6637148D02*
X5148077Y-6646672D01*
X5148077Y-6646672D02*
X5138553Y-6656196D01*
X5138553Y-6656196D02*
X5129030Y-6675243D01*
X5129030Y-6675243D02*
X5129030Y-6713338D01*
X5129030Y-6713338D02*
X5138553Y-6732386D01*
X5138553Y-6732386D02*
X5148077Y-6741910D01*
X5148077Y-6741910D02*
X5167125Y-6751434D01*
X5167125Y-6751434D02*
X5205220Y-6751434D01*
X5205220Y-6751434D02*
X5224268Y-6741910D01*
X5224268Y-6741910D02*
X5233791Y-6732386D01*
X5233791Y-6732386D02*
X5243315Y-6713338D01*
X5243315Y-6713338D02*
X5243315Y-6675243D01*
X5243315Y-6675243D02*
X5233791Y-6656196D01*
X5233791Y-6656196D02*
X5224268Y-6646672D01*
X5224268Y-6646672D02*
X5205220Y-6637148D01*
X5481411Y-6751434D02*
X5481411Y-6551434D01*
X5567125Y-6751434D02*
X5567125Y-6646672D01*
X5567125Y-6646672D02*
X5557601Y-6627624D01*
X5557601Y-6627624D02*
X5538553Y-6618100D01*
X5538553Y-6618100D02*
X5509982Y-6618100D01*
X5509982Y-6618100D02*
X5490934Y-6627624D01*
X5490934Y-6627624D02*
X5481411Y-6637148D01*
X5690934Y-6751434D02*
X5671887Y-6741910D01*
X5671887Y-6741910D02*
X5662363Y-6732386D01*
X5662363Y-6732386D02*
X5652839Y-6713338D01*
X5652839Y-6713338D02*
X5652839Y-6656196D01*
X5652839Y-6656196D02*
X5662363Y-6637148D01*
X5662363Y-6637148D02*
X5671887Y-6627624D01*
X5671887Y-6627624D02*
X5690934Y-6618100D01*
X5690934Y-6618100D02*
X5719506Y-6618100D01*
X5719506Y-6618100D02*
X5738553Y-6627624D01*
X5738553Y-6627624D02*
X5748077Y-6637148D01*
X5748077Y-6637148D02*
X5757601Y-6656196D01*
X5757601Y-6656196D02*
X5757601Y-6713338D01*
X5757601Y-6713338D02*
X5748077Y-6732386D01*
X5748077Y-6732386D02*
X5738553Y-6741910D01*
X5738553Y-6741910D02*
X5719506Y-6751434D01*
X5719506Y-6751434D02*
X5690934Y-6751434D01*
X5871887Y-6751434D02*
X5852839Y-6741910D01*
X5852839Y-6741910D02*
X5843315Y-6722862D01*
X5843315Y-6722862D02*
X5843315Y-6551434D01*
X6024268Y-6741910D02*
X6005220Y-6751434D01*
X6005220Y-6751434D02*
X5967125Y-6751434D01*
X5967125Y-6751434D02*
X5948077Y-6741910D01*
X5948077Y-6741910D02*
X5938553Y-6722862D01*
X5938553Y-6722862D02*
X5938553Y-6646672D01*
X5938553Y-6646672D02*
X5948077Y-6627624D01*
X5948077Y-6627624D02*
X5967125Y-6618100D01*
X5967125Y-6618100D02*
X6005220Y-6618100D01*
X6005220Y-6618100D02*
X6024268Y-6627624D01*
X6024268Y-6627624D02*
X6033791Y-6646672D01*
X6033791Y-6646672D02*
X6033791Y-6665719D01*
X6033791Y-6665719D02*
X5938553Y-6684767D01*
X6109982Y-6741910D02*
X6129030Y-6751434D01*
X6129030Y-6751434D02*
X6167125Y-6751434D01*
X6167125Y-6751434D02*
X6186172Y-6741910D01*
X6186172Y-6741910D02*
X6195696Y-6722862D01*
X6195696Y-6722862D02*
X6195696Y-6713338D01*
X6195696Y-6713338D02*
X6186172Y-6694291D01*
X6186172Y-6694291D02*
X6167125Y-6684767D01*
X6167125Y-6684767D02*
X6138553Y-6684767D01*
X6138553Y-6684767D02*
X6119506Y-6675243D01*
X6119506Y-6675243D02*
X6109982Y-6656196D01*
X6109982Y-6656196D02*
X6109982Y-6646672D01*
X6109982Y-6646672D02*
X6119506Y-6627624D01*
X6119506Y-6627624D02*
X6138553Y-6618100D01*
X6138553Y-6618100D02*
X6167125Y-6618100D01*
X6167125Y-6618100D02*
X6186172Y-6627624D01*
X6262363Y-6827624D02*
X6271887Y-6818100D01*
X6271887Y-6818100D02*
X6290934Y-6789529D01*
X6290934Y-6789529D02*
X6300458Y-6770481D01*
X6300458Y-6770481D02*
X6309982Y-6741910D01*
X6309982Y-6741910D02*
X6319506Y-6694291D01*
X6319506Y-6694291D02*
X6319506Y-6656196D01*
X6319506Y-6656196D02*
X6309982Y-6608577D01*
X6309982Y-6608577D02*
X6300458Y-6580005D01*
X6300458Y-6580005D02*
X6290934Y-6560958D01*
X6290934Y-6560958D02*
X6271887Y-6532386D01*
X6271887Y-6532386D02*
X6262363Y-6522862D01*
D13*
X1471191Y-6962841D02*
X1471191Y-6885059D01*
X1393409Y-6885059D01*
X1393409Y-6962841D01*
X1471191Y-6962841D01*
D11*
X1852839Y-7015434D02*
X1738553Y-7015434D01*
X1795696Y-7015434D02*
X1795696Y-6815434D01*
X1795696Y-6815434D02*
X1776648Y-6844005D01*
X1776648Y-6844005D02*
X1757601Y-6863053D01*
X1757601Y-6863053D02*
X1738553Y-6872577D01*
X1938553Y-6996386D02*
X1948077Y-7005910D01*
X1948077Y-7005910D02*
X1938553Y-7015434D01*
X1938553Y-7015434D02*
X1929029Y-7005910D01*
X1929029Y-7005910D02*
X1938553Y-6996386D01*
X1938553Y-6996386D02*
X1938553Y-7015434D01*
X2138553Y-7015434D02*
X2024267Y-7015434D01*
X2081410Y-7015434D02*
X2081410Y-6815434D01*
X2081410Y-6815434D02*
X2062362Y-6844005D01*
X2062362Y-6844005D02*
X2043315Y-6863053D01*
X2043315Y-6863053D02*
X2024267Y-6872577D01*
X2262363Y-6815434D02*
X2281410Y-6815434D01*
X2281410Y-6815434D02*
X2300458Y-6824958D01*
X2300458Y-6824958D02*
X2309982Y-6834481D01*
X2309982Y-6834481D02*
X2319505Y-6853529D01*
X2319505Y-6853529D02*
X2329029Y-6891624D01*
X2329029Y-6891624D02*
X2329029Y-6939243D01*
X2329029Y-6939243D02*
X2319505Y-6977338D01*
X2319505Y-6977338D02*
X2309982Y-6996386D01*
X2309982Y-6996386D02*
X2300458Y-7005910D01*
X2300458Y-7005910D02*
X2281410Y-7015434D01*
X2281410Y-7015434D02*
X2262363Y-7015434D01*
X2262363Y-7015434D02*
X2243315Y-7005910D01*
X2243315Y-7005910D02*
X2233791Y-6996386D01*
X2233791Y-6996386D02*
X2224267Y-6977338D01*
X2224267Y-6977338D02*
X2214744Y-6939243D01*
X2214744Y-6939243D02*
X2214744Y-6891624D01*
X2214744Y-6891624D02*
X2224267Y-6853529D01*
X2224267Y-6853529D02*
X2233791Y-6834481D01*
X2233791Y-6834481D02*
X2243315Y-6824958D01*
X2243315Y-6824958D02*
X2262363Y-6815434D01*
X2452839Y-6815434D02*
X2471886Y-6815434D01*
X2471886Y-6815434D02*
X2490934Y-6824958D01*
X2490934Y-6824958D02*
X2500458Y-6834481D01*
X2500458Y-6834481D02*
X2509982Y-6853529D01*
X2509982Y-6853529D02*
X2519505Y-6891624D01*
X2519505Y-6891624D02*
X2519505Y-6939243D01*
X2519505Y-6939243D02*
X2509982Y-6977338D01*
X2509982Y-6977338D02*
X2500458Y-6996386D01*
X2500458Y-6996386D02*
X2490934Y-7005910D01*
X2490934Y-7005910D02*
X2471886Y-7015434D01*
X2471886Y-7015434D02*
X2452839Y-7015434D01*
X2452839Y-7015434D02*
X2433791Y-7005910D01*
X2433791Y-7005910D02*
X2424267Y-6996386D01*
X2424267Y-6996386D02*
X2414744Y-6977338D01*
X2414744Y-6977338D02*
X2405220Y-6939243D01*
X2405220Y-6939243D02*
X2405220Y-6891624D01*
X2405220Y-6891624D02*
X2414744Y-6853529D01*
X2414744Y-6853529D02*
X2424267Y-6834481D01*
X2424267Y-6834481D02*
X2433791Y-6824958D01*
X2433791Y-6824958D02*
X2452839Y-6815434D01*
X2605220Y-7015434D02*
X2605220Y-6882100D01*
X2605220Y-6901148D02*
X2614744Y-6891624D01*
X2614744Y-6891624D02*
X2633791Y-6882100D01*
X2633791Y-6882100D02*
X2662363Y-6882100D01*
X2662363Y-6882100D02*
X2681410Y-6891624D01*
X2681410Y-6891624D02*
X2690934Y-6910672D01*
X2690934Y-6910672D02*
X2690934Y-7015434D01*
X2690934Y-6910672D02*
X2700458Y-6891624D01*
X2700458Y-6891624D02*
X2719505Y-6882100D01*
X2719505Y-6882100D02*
X2748077Y-6882100D01*
X2748077Y-6882100D02*
X2767125Y-6891624D01*
X2767125Y-6891624D02*
X2776648Y-6910672D01*
X2776648Y-6910672D02*
X2776648Y-7015434D01*
X2871886Y-7015434D02*
X2871886Y-6882100D01*
X2871886Y-6901148D02*
X2881410Y-6891624D01*
X2881410Y-6891624D02*
X2900458Y-6882100D01*
X2900458Y-6882100D02*
X2929029Y-6882100D01*
X2929029Y-6882100D02*
X2948077Y-6891624D01*
X2948077Y-6891624D02*
X2957601Y-6910672D01*
X2957601Y-6910672D02*
X2957601Y-7015434D01*
X2957601Y-6910672D02*
X2967124Y-6891624D01*
X2967124Y-6891624D02*
X2986172Y-6882100D01*
X2986172Y-6882100D02*
X3014743Y-6882100D01*
X3014743Y-6882100D02*
X3033791Y-6891624D01*
X3033791Y-6891624D02*
X3043315Y-6910672D01*
X3043315Y-6910672D02*
X3043315Y-7015434D01*
X3433791Y-6805910D02*
X3262363Y-7063053D01*
X3690934Y-6815434D02*
X3709982Y-6815434D01*
X3709982Y-6815434D02*
X3729029Y-6824958D01*
X3729029Y-6824958D02*
X3738553Y-6834481D01*
X3738553Y-6834481D02*
X3748077Y-6853529D01*
X3748077Y-6853529D02*
X3757601Y-6891624D01*
X3757601Y-6891624D02*
X3757601Y-6939243D01*
X3757601Y-6939243D02*
X3748077Y-6977338D01*
X3748077Y-6977338D02*
X3738553Y-6996386D01*
X3738553Y-6996386D02*
X3729029Y-7005910D01*
X3729029Y-7005910D02*
X3709982Y-7015434D01*
X3709982Y-7015434D02*
X3690934Y-7015434D01*
X3690934Y-7015434D02*
X3671886Y-7005910D01*
X3671886Y-7005910D02*
X3662363Y-6996386D01*
X3662363Y-6996386D02*
X3652839Y-6977338D01*
X3652839Y-6977338D02*
X3643315Y-6939243D01*
X3643315Y-6939243D02*
X3643315Y-6891624D01*
X3643315Y-6891624D02*
X3652839Y-6853529D01*
X3652839Y-6853529D02*
X3662363Y-6834481D01*
X3662363Y-6834481D02*
X3671886Y-6824958D01*
X3671886Y-6824958D02*
X3690934Y-6815434D01*
X3843315Y-6996386D02*
X3852839Y-7005910D01*
X3852839Y-7005910D02*
X3843315Y-7015434D01*
X3843315Y-7015434D02*
X3833791Y-7005910D01*
X3833791Y-7005910D02*
X3843315Y-6996386D01*
X3843315Y-6996386D02*
X3843315Y-7015434D01*
X3976648Y-6815434D02*
X3995696Y-6815434D01*
X3995696Y-6815434D02*
X4014744Y-6824958D01*
X4014744Y-6824958D02*
X4024267Y-6834481D01*
X4024267Y-6834481D02*
X4033791Y-6853529D01*
X4033791Y-6853529D02*
X4043315Y-6891624D01*
X4043315Y-6891624D02*
X4043315Y-6939243D01*
X4043315Y-6939243D02*
X4033791Y-6977338D01*
X4033791Y-6977338D02*
X4024267Y-6996386D01*
X4024267Y-6996386D02*
X4014744Y-7005910D01*
X4014744Y-7005910D02*
X3995696Y-7015434D01*
X3995696Y-7015434D02*
X3976648Y-7015434D01*
X3976648Y-7015434D02*
X3957601Y-7005910D01*
X3957601Y-7005910D02*
X3948077Y-6996386D01*
X3948077Y-6996386D02*
X3938553Y-6977338D01*
X3938553Y-6977338D02*
X3929029Y-6939243D01*
X3929029Y-6939243D02*
X3929029Y-6891624D01*
X3929029Y-6891624D02*
X3938553Y-6853529D01*
X3938553Y-6853529D02*
X3948077Y-6834481D01*
X3948077Y-6834481D02*
X3957601Y-6824958D01*
X3957601Y-6824958D02*
X3976648Y-6815434D01*
X4214744Y-6882100D02*
X4214744Y-7015434D01*
X4167125Y-6805910D02*
X4119506Y-6948767D01*
X4119506Y-6948767D02*
X4243315Y-6948767D01*
X4300458Y-6815434D02*
X4424268Y-6815434D01*
X4424268Y-6815434D02*
X4357601Y-6891624D01*
X4357601Y-6891624D02*
X4386172Y-6891624D01*
X4386172Y-6891624D02*
X4405220Y-6901148D01*
X4405220Y-6901148D02*
X4414744Y-6910672D01*
X4414744Y-6910672D02*
X4424268Y-6929719D01*
X4424268Y-6929719D02*
X4424268Y-6977338D01*
X4424268Y-6977338D02*
X4414744Y-6996386D01*
X4414744Y-6996386D02*
X4405220Y-7005910D01*
X4405220Y-7005910D02*
X4386172Y-7015434D01*
X4386172Y-7015434D02*
X4329029Y-7015434D01*
X4329029Y-7015434D02*
X4309982Y-7005910D01*
X4309982Y-7005910D02*
X4300458Y-6996386D01*
X4490934Y-6815434D02*
X4614744Y-6815434D01*
X4614744Y-6815434D02*
X4548077Y-6891624D01*
X4548077Y-6891624D02*
X4576649Y-6891624D01*
X4576649Y-6891624D02*
X4595696Y-6901148D01*
X4595696Y-6901148D02*
X4605220Y-6910672D01*
X4605220Y-6910672D02*
X4614744Y-6929719D01*
X4614744Y-6929719D02*
X4614744Y-6977338D01*
X4614744Y-6977338D02*
X4605220Y-6996386D01*
X4605220Y-6996386D02*
X4595696Y-7005910D01*
X4595696Y-7005910D02*
X4576649Y-7015434D01*
X4576649Y-7015434D02*
X4519506Y-7015434D01*
X4519506Y-7015434D02*
X4500458Y-7005910D01*
X4500458Y-7005910D02*
X4490934Y-6996386D01*
X4690934Y-6815434D02*
X4690934Y-6853529D01*
X4767125Y-6815434D02*
X4767125Y-6853529D01*
X5062363Y-7091624D02*
X5052839Y-7082100D01*
X5052839Y-7082100D02*
X5033791Y-7053529D01*
X5033791Y-7053529D02*
X5024268Y-7034481D01*
X5024268Y-7034481D02*
X5014744Y-7005910D01*
X5014744Y-7005910D02*
X5005220Y-6958291D01*
X5005220Y-6958291D02*
X5005220Y-6920196D01*
X5005220Y-6920196D02*
X5014744Y-6872577D01*
X5014744Y-6872577D02*
X5024268Y-6844005D01*
X5024268Y-6844005D02*
X5033791Y-6824958D01*
X5033791Y-6824958D02*
X5052839Y-6796386D01*
X5052839Y-6796386D02*
X5062363Y-6786862D01*
X5243315Y-7015434D02*
X5129030Y-7015434D01*
X5186172Y-7015434D02*
X5186172Y-6815434D01*
X5186172Y-6815434D02*
X5167125Y-6844005D01*
X5167125Y-6844005D02*
X5148077Y-6863053D01*
X5148077Y-6863053D02*
X5129030Y-6872577D01*
X5319506Y-6834481D02*
X5329030Y-6824958D01*
X5329030Y-6824958D02*
X5348077Y-6815434D01*
X5348077Y-6815434D02*
X5395696Y-6815434D01*
X5395696Y-6815434D02*
X5414744Y-6824958D01*
X5414744Y-6824958D02*
X5424268Y-6834481D01*
X5424268Y-6834481D02*
X5433791Y-6853529D01*
X5433791Y-6853529D02*
X5433791Y-6872577D01*
X5433791Y-6872577D02*
X5424268Y-6901148D01*
X5424268Y-6901148D02*
X5309982Y-7015434D01*
X5309982Y-7015434D02*
X5433791Y-7015434D01*
X5671887Y-7015434D02*
X5671887Y-6815434D01*
X5757601Y-7015434D02*
X5757601Y-6910672D01*
X5757601Y-6910672D02*
X5748077Y-6891624D01*
X5748077Y-6891624D02*
X5729030Y-6882100D01*
X5729030Y-6882100D02*
X5700458Y-6882100D01*
X5700458Y-6882100D02*
X5681410Y-6891624D01*
X5681410Y-6891624D02*
X5671887Y-6901148D01*
X5881410Y-7015434D02*
X5862363Y-7005910D01*
X5862363Y-7005910D02*
X5852839Y-6996386D01*
X5852839Y-6996386D02*
X5843315Y-6977338D01*
X5843315Y-6977338D02*
X5843315Y-6920196D01*
X5843315Y-6920196D02*
X5852839Y-6901148D01*
X5852839Y-6901148D02*
X5862363Y-6891624D01*
X5862363Y-6891624D02*
X5881410Y-6882100D01*
X5881410Y-6882100D02*
X5909982Y-6882100D01*
X5909982Y-6882100D02*
X5929030Y-6891624D01*
X5929030Y-6891624D02*
X5938553Y-6901148D01*
X5938553Y-6901148D02*
X5948077Y-6920196D01*
X5948077Y-6920196D02*
X5948077Y-6977338D01*
X5948077Y-6977338D02*
X5938553Y-6996386D01*
X5938553Y-6996386D02*
X5929030Y-7005910D01*
X5929030Y-7005910D02*
X5909982Y-7015434D01*
X5909982Y-7015434D02*
X5881410Y-7015434D01*
X6062363Y-7015434D02*
X6043315Y-7005910D01*
X6043315Y-7005910D02*
X6033791Y-6986862D01*
X6033791Y-6986862D02*
X6033791Y-6815434D01*
X6214744Y-7005910D02*
X6195696Y-7015434D01*
X6195696Y-7015434D02*
X6157601Y-7015434D01*
X6157601Y-7015434D02*
X6138553Y-7005910D01*
X6138553Y-7005910D02*
X6129030Y-6986862D01*
X6129030Y-6986862D02*
X6129030Y-6910672D01*
X6129030Y-6910672D02*
X6138553Y-6891624D01*
X6138553Y-6891624D02*
X6157601Y-6882100D01*
X6157601Y-6882100D02*
X6195696Y-6882100D01*
X6195696Y-6882100D02*
X6214744Y-6891624D01*
X6214744Y-6891624D02*
X6224268Y-6910672D01*
X6224268Y-6910672D02*
X6224268Y-6929719D01*
X6224268Y-6929719D02*
X6129030Y-6948767D01*
X6300458Y-7005910D02*
X6319506Y-7015434D01*
X6319506Y-7015434D02*
X6357601Y-7015434D01*
X6357601Y-7015434D02*
X6376649Y-7005910D01*
X6376649Y-7005910D02*
X6386172Y-6986862D01*
X6386172Y-6986862D02*
X6386172Y-6977338D01*
X6386172Y-6977338D02*
X6376649Y-6958291D01*
X6376649Y-6958291D02*
X6357601Y-6948767D01*
X6357601Y-6948767D02*
X6329030Y-6948767D01*
X6329030Y-6948767D02*
X6309982Y-6939243D01*
X6309982Y-6939243D02*
X6300458Y-6920196D01*
X6300458Y-6920196D02*
X6300458Y-6910672D01*
X6300458Y-6910672D02*
X6309982Y-6891624D01*
X6309982Y-6891624D02*
X6329030Y-6882100D01*
X6329030Y-6882100D02*
X6357601Y-6882100D01*
X6357601Y-6882100D02*
X6376649Y-6891624D01*
X6452839Y-7091624D02*
X6462363Y-7082100D01*
X6462363Y-7082100D02*
X6481411Y-7053529D01*
X6481411Y-7053529D02*
X6490934Y-7034481D01*
X6490934Y-7034481D02*
X6500458Y-7005910D01*
X6500458Y-7005910D02*
X6509982Y-6958291D01*
X6509982Y-6958291D02*
X6509982Y-6920196D01*
X6509982Y-6920196D02*
X6500458Y-6872577D01*
X6500458Y-6872577D02*
X6490934Y-6844005D01*
X6490934Y-6844005D02*
X6481411Y-6824958D01*
X6481411Y-6824958D02*
X6462363Y-6796386D01*
X6462363Y-6796386D02*
X6452839Y-6786862D01*
M02*
