G04 #@! TF.GenerationSoftware,KiCad,Pcbnew,9.0.3*
G04 #@! TF.CreationDate,2025-09-30T21:03:46-04:00*
G04 #@! TF.ProjectId,shiftclock-2.0,73686966-7463-46c6-9f63-6b2d322e302e,rev?*
G04 #@! TF.SameCoordinates,Original*
G04 #@! TF.FileFunction,Soldermask,Top*
G04 #@! TF.FilePolarity,Negative*
%FSLAX46Y46*%
G04 Gerber Fmt 4.6, Leading zero omitted, Abs format (unit mm)*
G04 Created by KiCad (PCBNEW 9.0.3) date 2025-09-30 21:03:46*
%MOMM*%
%LPD*%
G01*
G04 APERTURE LIST*
G04 APERTURE END LIST*
G36*
X43093737Y-73873850D02*
G01*
X43207208Y-73904254D01*
X43308943Y-73962991D01*
X43392009Y-74046057D01*
X43450746Y-74147792D01*
X43481150Y-74261263D01*
X43481150Y-74378737D01*
X43450746Y-74492208D01*
X43392009Y-74593943D01*
X43308943Y-74677009D01*
X43207208Y-74735746D01*
X43093737Y-74766150D01*
X43035000Y-74770000D01*
X43033029Y-74770000D01*
X42236971Y-74770000D01*
X42235000Y-74770000D01*
X42176263Y-74766150D01*
X42062792Y-74735746D01*
X41961057Y-74677009D01*
X41877991Y-74593943D01*
X41819254Y-74492208D01*
X41788850Y-74378737D01*
X41788850Y-74261263D01*
X41819254Y-74147792D01*
X41877991Y-74046057D01*
X41961057Y-73962991D01*
X42062792Y-73904254D01*
X42176263Y-73873850D01*
X42235000Y-73870000D01*
X43035000Y-73870000D01*
X43093737Y-73873850D01*
G37*
G36*
X47413737Y-73873850D02*
G01*
X47527208Y-73904254D01*
X47628943Y-73962991D01*
X47712009Y-74046057D01*
X47770746Y-74147792D01*
X47801150Y-74261263D01*
X47801150Y-74378737D01*
X47770746Y-74492208D01*
X47712009Y-74593943D01*
X47628943Y-74677009D01*
X47527208Y-74735746D01*
X47413737Y-74766150D01*
X47355000Y-74770000D01*
X47353029Y-74770000D01*
X46256971Y-74770000D01*
X46255000Y-74770000D01*
X46196263Y-74766150D01*
X46082792Y-74735746D01*
X45981057Y-74677009D01*
X45897991Y-74593943D01*
X45839254Y-74492208D01*
X45808850Y-74378737D01*
X45808850Y-74261263D01*
X45839254Y-74147792D01*
X45897991Y-74046057D01*
X45981057Y-73962991D01*
X46082792Y-73904254D01*
X46196263Y-73873850D01*
X46255000Y-73870000D01*
X47355000Y-73870000D01*
X47413737Y-73873850D01*
G37*
G36*
X160326824Y-71738682D02*
G01*
X160535757Y-71806569D01*
X160731498Y-71906304D01*
X160909227Y-72035432D01*
X161064568Y-72190773D01*
X161193696Y-72368502D01*
X161293431Y-72564243D01*
X161361318Y-72773176D01*
X161395684Y-72990157D01*
X161395684Y-73209843D01*
X161361318Y-73426824D01*
X161293431Y-73635757D01*
X161193696Y-73831498D01*
X161064568Y-74009227D01*
X160909227Y-74164568D01*
X160731498Y-74293696D01*
X160535757Y-74393431D01*
X160326824Y-74461318D01*
X160109843Y-74495684D01*
X159890157Y-74495684D01*
X159673176Y-74461318D01*
X159464243Y-74393431D01*
X159268502Y-74293696D01*
X159090773Y-74164568D01*
X158935432Y-74009227D01*
X158806304Y-73831498D01*
X158706569Y-73635757D01*
X158638682Y-73426824D01*
X158604316Y-73209843D01*
X158604316Y-72990157D01*
X158638682Y-72773176D01*
X158706569Y-72564243D01*
X158806304Y-72368502D01*
X158935432Y-72190773D01*
X159090773Y-72035432D01*
X159268502Y-71906304D01*
X159464243Y-71806569D01*
X159673176Y-71738682D01*
X159890157Y-71704316D01*
X160109843Y-71704316D01*
X160326824Y-71738682D01*
G37*
G36*
X68550000Y-73990000D02*
G01*
X67050000Y-73990000D01*
X67050000Y-72490000D01*
X68550000Y-72490000D01*
X68550000Y-73990000D01*
G37*
G36*
X119750000Y-73990000D02*
G01*
X118250000Y-73990000D01*
X118250000Y-72490000D01*
X119750000Y-72490000D01*
X119750000Y-73990000D01*
G37*
G36*
X70557714Y-72522295D02*
G01*
X70693548Y-72578559D01*
X70815795Y-72660242D01*
X70919758Y-72764205D01*
X71001441Y-72886452D01*
X71057705Y-73022286D01*
X71086389Y-73166487D01*
X71086389Y-73313513D01*
X71057705Y-73457714D01*
X71001441Y-73593548D01*
X70919758Y-73715795D01*
X70815795Y-73819758D01*
X70693548Y-73901441D01*
X70557714Y-73957705D01*
X70413513Y-73986389D01*
X70266487Y-73986389D01*
X70122286Y-73957705D01*
X69986452Y-73901441D01*
X69864205Y-73819758D01*
X69760242Y-73715795D01*
X69678559Y-73593548D01*
X69622295Y-73457714D01*
X69593611Y-73313513D01*
X69593611Y-73166487D01*
X69622295Y-73022286D01*
X69678559Y-72886452D01*
X69760242Y-72764205D01*
X69864205Y-72660242D01*
X69986452Y-72578559D01*
X70122286Y-72522295D01*
X70266487Y-72493611D01*
X70413513Y-72493611D01*
X70557714Y-72522295D01*
G37*
G36*
X73097714Y-72522295D02*
G01*
X73233548Y-72578559D01*
X73355795Y-72660242D01*
X73459758Y-72764205D01*
X73541441Y-72886452D01*
X73597705Y-73022286D01*
X73626389Y-73166487D01*
X73626389Y-73313513D01*
X73597705Y-73457714D01*
X73541441Y-73593548D01*
X73459758Y-73715795D01*
X73355795Y-73819758D01*
X73233548Y-73901441D01*
X73097714Y-73957705D01*
X72953513Y-73986389D01*
X72806487Y-73986389D01*
X72662286Y-73957705D01*
X72526452Y-73901441D01*
X72404205Y-73819758D01*
X72300242Y-73715795D01*
X72218559Y-73593548D01*
X72162295Y-73457714D01*
X72133611Y-73313513D01*
X72133611Y-73166487D01*
X72162295Y-73022286D01*
X72218559Y-72886452D01*
X72300242Y-72764205D01*
X72404205Y-72660242D01*
X72526452Y-72578559D01*
X72662286Y-72522295D01*
X72806487Y-72493611D01*
X72953513Y-72493611D01*
X73097714Y-72522295D01*
G37*
G36*
X75637714Y-72522295D02*
G01*
X75773548Y-72578559D01*
X75895795Y-72660242D01*
X75999758Y-72764205D01*
X76081441Y-72886452D01*
X76137705Y-73022286D01*
X76166389Y-73166487D01*
X76166389Y-73313513D01*
X76137705Y-73457714D01*
X76081441Y-73593548D01*
X75999758Y-73715795D01*
X75895795Y-73819758D01*
X75773548Y-73901441D01*
X75637714Y-73957705D01*
X75493513Y-73986389D01*
X75346487Y-73986389D01*
X75202286Y-73957705D01*
X75066452Y-73901441D01*
X74944205Y-73819758D01*
X74840242Y-73715795D01*
X74758559Y-73593548D01*
X74702295Y-73457714D01*
X74673611Y-73313513D01*
X74673611Y-73166487D01*
X74702295Y-73022286D01*
X74758559Y-72886452D01*
X74840242Y-72764205D01*
X74944205Y-72660242D01*
X75066452Y-72578559D01*
X75202286Y-72522295D01*
X75346487Y-72493611D01*
X75493513Y-72493611D01*
X75637714Y-72522295D01*
G37*
G36*
X78177714Y-72522295D02*
G01*
X78313548Y-72578559D01*
X78435795Y-72660242D01*
X78539758Y-72764205D01*
X78621441Y-72886452D01*
X78677705Y-73022286D01*
X78706389Y-73166487D01*
X78706389Y-73313513D01*
X78677705Y-73457714D01*
X78621441Y-73593548D01*
X78539758Y-73715795D01*
X78435795Y-73819758D01*
X78313548Y-73901441D01*
X78177714Y-73957705D01*
X78033513Y-73986389D01*
X77886487Y-73986389D01*
X77742286Y-73957705D01*
X77606452Y-73901441D01*
X77484205Y-73819758D01*
X77380242Y-73715795D01*
X77298559Y-73593548D01*
X77242295Y-73457714D01*
X77213611Y-73313513D01*
X77213611Y-73166487D01*
X77242295Y-73022286D01*
X77298559Y-72886452D01*
X77380242Y-72764205D01*
X77484205Y-72660242D01*
X77606452Y-72578559D01*
X77742286Y-72522295D01*
X77886487Y-72493611D01*
X78033513Y-72493611D01*
X78177714Y-72522295D01*
G37*
G36*
X80717714Y-72522295D02*
G01*
X80853548Y-72578559D01*
X80975795Y-72660242D01*
X81079758Y-72764205D01*
X81161441Y-72886452D01*
X81217705Y-73022286D01*
X81246389Y-73166487D01*
X81246389Y-73313513D01*
X81217705Y-73457714D01*
X81161441Y-73593548D01*
X81079758Y-73715795D01*
X80975795Y-73819758D01*
X80853548Y-73901441D01*
X80717714Y-73957705D01*
X80573513Y-73986389D01*
X80426487Y-73986389D01*
X80282286Y-73957705D01*
X80146452Y-73901441D01*
X80024205Y-73819758D01*
X79920242Y-73715795D01*
X79838559Y-73593548D01*
X79782295Y-73457714D01*
X79753611Y-73313513D01*
X79753611Y-73166487D01*
X79782295Y-73022286D01*
X79838559Y-72886452D01*
X79920242Y-72764205D01*
X80024205Y-72660242D01*
X80146452Y-72578559D01*
X80282286Y-72522295D01*
X80426487Y-72493611D01*
X80573513Y-72493611D01*
X80717714Y-72522295D01*
G37*
G36*
X121757714Y-72522295D02*
G01*
X121893548Y-72578559D01*
X122015795Y-72660242D01*
X122119758Y-72764205D01*
X122201441Y-72886452D01*
X122257705Y-73022286D01*
X122286389Y-73166487D01*
X122286389Y-73313513D01*
X122257705Y-73457714D01*
X122201441Y-73593548D01*
X122119758Y-73715795D01*
X122015795Y-73819758D01*
X121893548Y-73901441D01*
X121757714Y-73957705D01*
X121613513Y-73986389D01*
X121466487Y-73986389D01*
X121322286Y-73957705D01*
X121186452Y-73901441D01*
X121064205Y-73819758D01*
X120960242Y-73715795D01*
X120878559Y-73593548D01*
X120822295Y-73457714D01*
X120793611Y-73313513D01*
X120793611Y-73166487D01*
X120822295Y-73022286D01*
X120878559Y-72886452D01*
X120960242Y-72764205D01*
X121064205Y-72660242D01*
X121186452Y-72578559D01*
X121322286Y-72522295D01*
X121466487Y-72493611D01*
X121613513Y-72493611D01*
X121757714Y-72522295D01*
G37*
G36*
X124297714Y-72522295D02*
G01*
X124433548Y-72578559D01*
X124555795Y-72660242D01*
X124659758Y-72764205D01*
X124741441Y-72886452D01*
X124797705Y-73022286D01*
X124826389Y-73166487D01*
X124826389Y-73313513D01*
X124797705Y-73457714D01*
X124741441Y-73593548D01*
X124659758Y-73715795D01*
X124555795Y-73819758D01*
X124433548Y-73901441D01*
X124297714Y-73957705D01*
X124153513Y-73986389D01*
X124006487Y-73986389D01*
X123862286Y-73957705D01*
X123726452Y-73901441D01*
X123604205Y-73819758D01*
X123500242Y-73715795D01*
X123418559Y-73593548D01*
X123362295Y-73457714D01*
X123333611Y-73313513D01*
X123333611Y-73166487D01*
X123362295Y-73022286D01*
X123418559Y-72886452D01*
X123500242Y-72764205D01*
X123604205Y-72660242D01*
X123726452Y-72578559D01*
X123862286Y-72522295D01*
X124006487Y-72493611D01*
X124153513Y-72493611D01*
X124297714Y-72522295D01*
G37*
G36*
X126837714Y-72522295D02*
G01*
X126973548Y-72578559D01*
X127095795Y-72660242D01*
X127199758Y-72764205D01*
X127281441Y-72886452D01*
X127337705Y-73022286D01*
X127366389Y-73166487D01*
X127366389Y-73313513D01*
X127337705Y-73457714D01*
X127281441Y-73593548D01*
X127199758Y-73715795D01*
X127095795Y-73819758D01*
X126973548Y-73901441D01*
X126837714Y-73957705D01*
X126693513Y-73986389D01*
X126546487Y-73986389D01*
X126402286Y-73957705D01*
X126266452Y-73901441D01*
X126144205Y-73819758D01*
X126040242Y-73715795D01*
X125958559Y-73593548D01*
X125902295Y-73457714D01*
X125873611Y-73313513D01*
X125873611Y-73166487D01*
X125902295Y-73022286D01*
X125958559Y-72886452D01*
X126040242Y-72764205D01*
X126144205Y-72660242D01*
X126266452Y-72578559D01*
X126402286Y-72522295D01*
X126546487Y-72493611D01*
X126693513Y-72493611D01*
X126837714Y-72522295D01*
G37*
G36*
X129377714Y-72522295D02*
G01*
X129513548Y-72578559D01*
X129635795Y-72660242D01*
X129739758Y-72764205D01*
X129821441Y-72886452D01*
X129877705Y-73022286D01*
X129906389Y-73166487D01*
X129906389Y-73313513D01*
X129877705Y-73457714D01*
X129821441Y-73593548D01*
X129739758Y-73715795D01*
X129635795Y-73819758D01*
X129513548Y-73901441D01*
X129377714Y-73957705D01*
X129233513Y-73986389D01*
X129086487Y-73986389D01*
X128942286Y-73957705D01*
X128806452Y-73901441D01*
X128684205Y-73819758D01*
X128580242Y-73715795D01*
X128498559Y-73593548D01*
X128442295Y-73457714D01*
X128413611Y-73313513D01*
X128413611Y-73166487D01*
X128442295Y-73022286D01*
X128498559Y-72886452D01*
X128580242Y-72764205D01*
X128684205Y-72660242D01*
X128806452Y-72578559D01*
X128942286Y-72522295D01*
X129086487Y-72493611D01*
X129233513Y-72493611D01*
X129377714Y-72522295D01*
G37*
G36*
X131917714Y-72522295D02*
G01*
X132053548Y-72578559D01*
X132175795Y-72660242D01*
X132279758Y-72764205D01*
X132361441Y-72886452D01*
X132417705Y-73022286D01*
X132446389Y-73166487D01*
X132446389Y-73313513D01*
X132417705Y-73457714D01*
X132361441Y-73593548D01*
X132279758Y-73715795D01*
X132175795Y-73819758D01*
X132053548Y-73901441D01*
X131917714Y-73957705D01*
X131773513Y-73986389D01*
X131626487Y-73986389D01*
X131482286Y-73957705D01*
X131346452Y-73901441D01*
X131224205Y-73819758D01*
X131120242Y-73715795D01*
X131038559Y-73593548D01*
X130982295Y-73457714D01*
X130953611Y-73313513D01*
X130953611Y-73166487D01*
X130982295Y-73022286D01*
X131038559Y-72886452D01*
X131120242Y-72764205D01*
X131224205Y-72660242D01*
X131346452Y-72578559D01*
X131482286Y-72522295D01*
X131626487Y-72493611D01*
X131773513Y-72493611D01*
X131917714Y-72522295D01*
G37*
G36*
X46439805Y-72612836D02*
G01*
X46507628Y-72651994D01*
X46563006Y-72707372D01*
X46602164Y-72775195D01*
X46622433Y-72850842D01*
X46622433Y-72929158D01*
X46602164Y-73004805D01*
X46563006Y-73072628D01*
X46507628Y-73128006D01*
X46439805Y-73167164D01*
X46364158Y-73187433D01*
X46285842Y-73187433D01*
X46210195Y-73167164D01*
X46142372Y-73128006D01*
X46086994Y-73072628D01*
X46047836Y-73004805D01*
X46027567Y-72929158D01*
X46027567Y-72850842D01*
X46047836Y-72775195D01*
X46086994Y-72707372D01*
X46142372Y-72651994D01*
X46210195Y-72612836D01*
X46285842Y-72592567D01*
X46364158Y-72592567D01*
X46439805Y-72612836D01*
G37*
G36*
X152790285Y-69043060D02*
G01*
X152971397Y-69118079D01*
X153134393Y-69226990D01*
X153273010Y-69365607D01*
X153381921Y-69528603D01*
X153456940Y-69709715D01*
X153495185Y-69901983D01*
X153495185Y-70098017D01*
X153456940Y-70290285D01*
X153381921Y-70471397D01*
X153273010Y-70634393D01*
X153134393Y-70773010D01*
X152971397Y-70881921D01*
X152790285Y-70956940D01*
X152598017Y-70995185D01*
X152401983Y-70995185D01*
X152209715Y-70956940D01*
X152028603Y-70881921D01*
X151865607Y-70773010D01*
X151726990Y-70634393D01*
X151618079Y-70471397D01*
X151543060Y-70290285D01*
X151504815Y-70098017D01*
X151504815Y-69901983D01*
X151543060Y-69709715D01*
X151618079Y-69528603D01*
X151726990Y-69365607D01*
X151865607Y-69226990D01*
X152028603Y-69118079D01*
X152209715Y-69043060D01*
X152401983Y-69004815D01*
X152598017Y-69004815D01*
X152790285Y-69043060D01*
G37*
G36*
X167290285Y-69043060D02*
G01*
X167471397Y-69118079D01*
X167634393Y-69226990D01*
X167773010Y-69365607D01*
X167881921Y-69528603D01*
X167956940Y-69709715D01*
X167995185Y-69901983D01*
X167995185Y-70098017D01*
X167956940Y-70290285D01*
X167881921Y-70471397D01*
X167773010Y-70634393D01*
X167634393Y-70773010D01*
X167471397Y-70881921D01*
X167290285Y-70956940D01*
X167098017Y-70995185D01*
X166901983Y-70995185D01*
X166709715Y-70956940D01*
X166528603Y-70881921D01*
X166365607Y-70773010D01*
X166226990Y-70634393D01*
X166118079Y-70471397D01*
X166043060Y-70290285D01*
X166004815Y-70098017D01*
X166004815Y-69901983D01*
X166043060Y-69709715D01*
X166118079Y-69528603D01*
X166226990Y-69365607D01*
X166365607Y-69226990D01*
X166528603Y-69118079D01*
X166709715Y-69043060D01*
X166901983Y-69004815D01*
X167098017Y-69004815D01*
X167290285Y-69043060D01*
G37*
G36*
X152790285Y-66543060D02*
G01*
X152971397Y-66618079D01*
X153134393Y-66726990D01*
X153273010Y-66865607D01*
X153381921Y-67028603D01*
X153456940Y-67209715D01*
X153495185Y-67401983D01*
X153495185Y-67598017D01*
X153456940Y-67790285D01*
X153381921Y-67971397D01*
X153273010Y-68134393D01*
X153134393Y-68273010D01*
X152971397Y-68381921D01*
X152790285Y-68456940D01*
X152598017Y-68495185D01*
X152401983Y-68495185D01*
X152209715Y-68456940D01*
X152028603Y-68381921D01*
X151865607Y-68273010D01*
X151726990Y-68134393D01*
X151618079Y-67971397D01*
X151543060Y-67790285D01*
X151504815Y-67598017D01*
X151504815Y-67401983D01*
X151543060Y-67209715D01*
X151618079Y-67028603D01*
X151726990Y-66865607D01*
X151865607Y-66726990D01*
X152028603Y-66618079D01*
X152209715Y-66543060D01*
X152401983Y-66504815D01*
X152598017Y-66504815D01*
X152790285Y-66543060D01*
G37*
G36*
X46439805Y-66832836D02*
G01*
X46507628Y-66871994D01*
X46563006Y-66927372D01*
X46602164Y-66995195D01*
X46622433Y-67070842D01*
X46622433Y-67149158D01*
X46602164Y-67224805D01*
X46563006Y-67292628D01*
X46507628Y-67348006D01*
X46439805Y-67387164D01*
X46364158Y-67407433D01*
X46285842Y-67407433D01*
X46210195Y-67387164D01*
X46142372Y-67348006D01*
X46086994Y-67292628D01*
X46047836Y-67224805D01*
X46027567Y-67149158D01*
X46027567Y-67070842D01*
X46047836Y-66995195D01*
X46086994Y-66927372D01*
X46142372Y-66871994D01*
X46210195Y-66832836D01*
X46285842Y-66812567D01*
X46364158Y-66812567D01*
X46439805Y-66832836D01*
G37*
G36*
X43093737Y-65233850D02*
G01*
X43207208Y-65264254D01*
X43308943Y-65322991D01*
X43392009Y-65406057D01*
X43450746Y-65507792D01*
X43481150Y-65621263D01*
X43481150Y-65738737D01*
X43450746Y-65852208D01*
X43392009Y-65953943D01*
X43308943Y-66037009D01*
X43207208Y-66095746D01*
X43093737Y-66126150D01*
X43035000Y-66130000D01*
X43033029Y-66130000D01*
X42236971Y-66130000D01*
X42235000Y-66130000D01*
X42176263Y-66126150D01*
X42062792Y-66095746D01*
X41961057Y-66037009D01*
X41877991Y-65953943D01*
X41819254Y-65852208D01*
X41788850Y-65738737D01*
X41788850Y-65621263D01*
X41819254Y-65507792D01*
X41877991Y-65406057D01*
X41961057Y-65322991D01*
X42062792Y-65264254D01*
X42176263Y-65233850D01*
X42235000Y-65230000D01*
X43035000Y-65230000D01*
X43093737Y-65233850D01*
G37*
G36*
X47413737Y-65233850D02*
G01*
X47527208Y-65264254D01*
X47628943Y-65322991D01*
X47712009Y-65406057D01*
X47770746Y-65507792D01*
X47801150Y-65621263D01*
X47801150Y-65738737D01*
X47770746Y-65852208D01*
X47712009Y-65953943D01*
X47628943Y-66037009D01*
X47527208Y-66095746D01*
X47413737Y-66126150D01*
X47355000Y-66130000D01*
X47353029Y-66130000D01*
X46256971Y-66130000D01*
X46255000Y-66130000D01*
X46196263Y-66126150D01*
X46082792Y-66095746D01*
X45981057Y-66037009D01*
X45897991Y-65953943D01*
X45839254Y-65852208D01*
X45808850Y-65738737D01*
X45808850Y-65621263D01*
X45839254Y-65507792D01*
X45897991Y-65406057D01*
X45981057Y-65322991D01*
X46082792Y-65264254D01*
X46196263Y-65233850D01*
X46255000Y-65230000D01*
X47355000Y-65230000D01*
X47413737Y-65233850D01*
G37*
G36*
X153500000Y-66000000D02*
G01*
X151500000Y-66000000D01*
X151500000Y-64000000D01*
X153500000Y-64000000D01*
X153500000Y-66000000D01*
G37*
G36*
X167290285Y-64043060D02*
G01*
X167471397Y-64118079D01*
X167634393Y-64226990D01*
X167773010Y-64365607D01*
X167881921Y-64528603D01*
X167956940Y-64709715D01*
X167995185Y-64901983D01*
X167995185Y-65098017D01*
X167956940Y-65290285D01*
X167881921Y-65471397D01*
X167773010Y-65634393D01*
X167634393Y-65773010D01*
X167471397Y-65881921D01*
X167290285Y-65956940D01*
X167098017Y-65995185D01*
X166901983Y-65995185D01*
X166709715Y-65956940D01*
X166528603Y-65881921D01*
X166365607Y-65773010D01*
X166226990Y-65634393D01*
X166118079Y-65471397D01*
X166043060Y-65290285D01*
X166004815Y-65098017D01*
X166004815Y-64901983D01*
X166043060Y-64709715D01*
X166118079Y-64528603D01*
X166226990Y-64365607D01*
X166365607Y-64226990D01*
X166528603Y-64118079D01*
X166709715Y-64043060D01*
X166901983Y-64004815D01*
X167098017Y-64004815D01*
X167290285Y-64043060D01*
G37*
G36*
X160326824Y-60538682D02*
G01*
X160535757Y-60606569D01*
X160731498Y-60706304D01*
X160909227Y-60835432D01*
X161064568Y-60990773D01*
X161193696Y-61168502D01*
X161293431Y-61364243D01*
X161361318Y-61573176D01*
X161395684Y-61790157D01*
X161395684Y-62009843D01*
X161361318Y-62226824D01*
X161293431Y-62435757D01*
X161193696Y-62631498D01*
X161064568Y-62809227D01*
X160909227Y-62964568D01*
X160731498Y-63093696D01*
X160535757Y-63193431D01*
X160326824Y-63261318D01*
X160109843Y-63295684D01*
X159890157Y-63295684D01*
X159673176Y-63261318D01*
X159464243Y-63193431D01*
X159268502Y-63093696D01*
X159090773Y-62964568D01*
X158935432Y-62809227D01*
X158806304Y-62631498D01*
X158706569Y-62435757D01*
X158638682Y-62226824D01*
X158604316Y-62009843D01*
X158604316Y-61790157D01*
X158638682Y-61573176D01*
X158706569Y-61364243D01*
X158806304Y-61168502D01*
X158935432Y-60990773D01*
X159090773Y-60835432D01*
X159268502Y-60706304D01*
X159464243Y-60606569D01*
X159673176Y-60538682D01*
X159890157Y-60504316D01*
X160109843Y-60504316D01*
X160326824Y-60538682D01*
G37*
G36*
X68017714Y-57282295D02*
G01*
X68153548Y-57338559D01*
X68275795Y-57420242D01*
X68379758Y-57524205D01*
X68461441Y-57646452D01*
X68517705Y-57782286D01*
X68546389Y-57926487D01*
X68546389Y-58073513D01*
X68517705Y-58217714D01*
X68461441Y-58353548D01*
X68379758Y-58475795D01*
X68275795Y-58579758D01*
X68153548Y-58661441D01*
X68017714Y-58717705D01*
X67873513Y-58746389D01*
X67726487Y-58746389D01*
X67582286Y-58717705D01*
X67446452Y-58661441D01*
X67324205Y-58579758D01*
X67220242Y-58475795D01*
X67138559Y-58353548D01*
X67082295Y-58217714D01*
X67053611Y-58073513D01*
X67053611Y-57926487D01*
X67082295Y-57782286D01*
X67138559Y-57646452D01*
X67220242Y-57524205D01*
X67324205Y-57420242D01*
X67446452Y-57338559D01*
X67582286Y-57282295D01*
X67726487Y-57253611D01*
X67873513Y-57253611D01*
X68017714Y-57282295D01*
G37*
G36*
X70557714Y-57282295D02*
G01*
X70693548Y-57338559D01*
X70815795Y-57420242D01*
X70919758Y-57524205D01*
X71001441Y-57646452D01*
X71057705Y-57782286D01*
X71086389Y-57926487D01*
X71086389Y-58073513D01*
X71057705Y-58217714D01*
X71001441Y-58353548D01*
X70919758Y-58475795D01*
X70815795Y-58579758D01*
X70693548Y-58661441D01*
X70557714Y-58717705D01*
X70413513Y-58746389D01*
X70266487Y-58746389D01*
X70122286Y-58717705D01*
X69986452Y-58661441D01*
X69864205Y-58579758D01*
X69760242Y-58475795D01*
X69678559Y-58353548D01*
X69622295Y-58217714D01*
X69593611Y-58073513D01*
X69593611Y-57926487D01*
X69622295Y-57782286D01*
X69678559Y-57646452D01*
X69760242Y-57524205D01*
X69864205Y-57420242D01*
X69986452Y-57338559D01*
X70122286Y-57282295D01*
X70266487Y-57253611D01*
X70413513Y-57253611D01*
X70557714Y-57282295D01*
G37*
G36*
X73097714Y-57282295D02*
G01*
X73233548Y-57338559D01*
X73355795Y-57420242D01*
X73459758Y-57524205D01*
X73541441Y-57646452D01*
X73597705Y-57782286D01*
X73626389Y-57926487D01*
X73626389Y-58073513D01*
X73597705Y-58217714D01*
X73541441Y-58353548D01*
X73459758Y-58475795D01*
X73355795Y-58579758D01*
X73233548Y-58661441D01*
X73097714Y-58717705D01*
X72953513Y-58746389D01*
X72806487Y-58746389D01*
X72662286Y-58717705D01*
X72526452Y-58661441D01*
X72404205Y-58579758D01*
X72300242Y-58475795D01*
X72218559Y-58353548D01*
X72162295Y-58217714D01*
X72133611Y-58073513D01*
X72133611Y-57926487D01*
X72162295Y-57782286D01*
X72218559Y-57646452D01*
X72300242Y-57524205D01*
X72404205Y-57420242D01*
X72526452Y-57338559D01*
X72662286Y-57282295D01*
X72806487Y-57253611D01*
X72953513Y-57253611D01*
X73097714Y-57282295D01*
G37*
G36*
X75637714Y-57282295D02*
G01*
X75773548Y-57338559D01*
X75895795Y-57420242D01*
X75999758Y-57524205D01*
X76081441Y-57646452D01*
X76137705Y-57782286D01*
X76166389Y-57926487D01*
X76166389Y-58073513D01*
X76137705Y-58217714D01*
X76081441Y-58353548D01*
X75999758Y-58475795D01*
X75895795Y-58579758D01*
X75773548Y-58661441D01*
X75637714Y-58717705D01*
X75493513Y-58746389D01*
X75346487Y-58746389D01*
X75202286Y-58717705D01*
X75066452Y-58661441D01*
X74944205Y-58579758D01*
X74840242Y-58475795D01*
X74758559Y-58353548D01*
X74702295Y-58217714D01*
X74673611Y-58073513D01*
X74673611Y-57926487D01*
X74702295Y-57782286D01*
X74758559Y-57646452D01*
X74840242Y-57524205D01*
X74944205Y-57420242D01*
X75066452Y-57338559D01*
X75202286Y-57282295D01*
X75346487Y-57253611D01*
X75493513Y-57253611D01*
X75637714Y-57282295D01*
G37*
G36*
X78177714Y-57282295D02*
G01*
X78313548Y-57338559D01*
X78435795Y-57420242D01*
X78539758Y-57524205D01*
X78621441Y-57646452D01*
X78677705Y-57782286D01*
X78706389Y-57926487D01*
X78706389Y-58073513D01*
X78677705Y-58217714D01*
X78621441Y-58353548D01*
X78539758Y-58475795D01*
X78435795Y-58579758D01*
X78313548Y-58661441D01*
X78177714Y-58717705D01*
X78033513Y-58746389D01*
X77886487Y-58746389D01*
X77742286Y-58717705D01*
X77606452Y-58661441D01*
X77484205Y-58579758D01*
X77380242Y-58475795D01*
X77298559Y-58353548D01*
X77242295Y-58217714D01*
X77213611Y-58073513D01*
X77213611Y-57926487D01*
X77242295Y-57782286D01*
X77298559Y-57646452D01*
X77380242Y-57524205D01*
X77484205Y-57420242D01*
X77606452Y-57338559D01*
X77742286Y-57282295D01*
X77886487Y-57253611D01*
X78033513Y-57253611D01*
X78177714Y-57282295D01*
G37*
G36*
X80717714Y-57282295D02*
G01*
X80853548Y-57338559D01*
X80975795Y-57420242D01*
X81079758Y-57524205D01*
X81161441Y-57646452D01*
X81217705Y-57782286D01*
X81246389Y-57926487D01*
X81246389Y-58073513D01*
X81217705Y-58217714D01*
X81161441Y-58353548D01*
X81079758Y-58475795D01*
X80975795Y-58579758D01*
X80853548Y-58661441D01*
X80717714Y-58717705D01*
X80573513Y-58746389D01*
X80426487Y-58746389D01*
X80282286Y-58717705D01*
X80146452Y-58661441D01*
X80024205Y-58579758D01*
X79920242Y-58475795D01*
X79838559Y-58353548D01*
X79782295Y-58217714D01*
X79753611Y-58073513D01*
X79753611Y-57926487D01*
X79782295Y-57782286D01*
X79838559Y-57646452D01*
X79920242Y-57524205D01*
X80024205Y-57420242D01*
X80146452Y-57338559D01*
X80282286Y-57282295D01*
X80426487Y-57253611D01*
X80573513Y-57253611D01*
X80717714Y-57282295D01*
G37*
G36*
X119217714Y-57282295D02*
G01*
X119353548Y-57338559D01*
X119475795Y-57420242D01*
X119579758Y-57524205D01*
X119661441Y-57646452D01*
X119717705Y-57782286D01*
X119746389Y-57926487D01*
X119746389Y-58073513D01*
X119717705Y-58217714D01*
X119661441Y-58353548D01*
X119579758Y-58475795D01*
X119475795Y-58579758D01*
X119353548Y-58661441D01*
X119217714Y-58717705D01*
X119073513Y-58746389D01*
X118926487Y-58746389D01*
X118782286Y-58717705D01*
X118646452Y-58661441D01*
X118524205Y-58579758D01*
X118420242Y-58475795D01*
X118338559Y-58353548D01*
X118282295Y-58217714D01*
X118253611Y-58073513D01*
X118253611Y-57926487D01*
X118282295Y-57782286D01*
X118338559Y-57646452D01*
X118420242Y-57524205D01*
X118524205Y-57420242D01*
X118646452Y-57338559D01*
X118782286Y-57282295D01*
X118926487Y-57253611D01*
X119073513Y-57253611D01*
X119217714Y-57282295D01*
G37*
G36*
X121757714Y-57282295D02*
G01*
X121893548Y-57338559D01*
X122015795Y-57420242D01*
X122119758Y-57524205D01*
X122201441Y-57646452D01*
X122257705Y-57782286D01*
X122286389Y-57926487D01*
X122286389Y-58073513D01*
X122257705Y-58217714D01*
X122201441Y-58353548D01*
X122119758Y-58475795D01*
X122015795Y-58579758D01*
X121893548Y-58661441D01*
X121757714Y-58717705D01*
X121613513Y-58746389D01*
X121466487Y-58746389D01*
X121322286Y-58717705D01*
X121186452Y-58661441D01*
X121064205Y-58579758D01*
X120960242Y-58475795D01*
X120878559Y-58353548D01*
X120822295Y-58217714D01*
X120793611Y-58073513D01*
X120793611Y-57926487D01*
X120822295Y-57782286D01*
X120878559Y-57646452D01*
X120960242Y-57524205D01*
X121064205Y-57420242D01*
X121186452Y-57338559D01*
X121322286Y-57282295D01*
X121466487Y-57253611D01*
X121613513Y-57253611D01*
X121757714Y-57282295D01*
G37*
G36*
X124297714Y-57282295D02*
G01*
X124433548Y-57338559D01*
X124555795Y-57420242D01*
X124659758Y-57524205D01*
X124741441Y-57646452D01*
X124797705Y-57782286D01*
X124826389Y-57926487D01*
X124826389Y-58073513D01*
X124797705Y-58217714D01*
X124741441Y-58353548D01*
X124659758Y-58475795D01*
X124555795Y-58579758D01*
X124433548Y-58661441D01*
X124297714Y-58717705D01*
X124153513Y-58746389D01*
X124006487Y-58746389D01*
X123862286Y-58717705D01*
X123726452Y-58661441D01*
X123604205Y-58579758D01*
X123500242Y-58475795D01*
X123418559Y-58353548D01*
X123362295Y-58217714D01*
X123333611Y-58073513D01*
X123333611Y-57926487D01*
X123362295Y-57782286D01*
X123418559Y-57646452D01*
X123500242Y-57524205D01*
X123604205Y-57420242D01*
X123726452Y-57338559D01*
X123862286Y-57282295D01*
X124006487Y-57253611D01*
X124153513Y-57253611D01*
X124297714Y-57282295D01*
G37*
G36*
X126837714Y-57282295D02*
G01*
X126973548Y-57338559D01*
X127095795Y-57420242D01*
X127199758Y-57524205D01*
X127281441Y-57646452D01*
X127337705Y-57782286D01*
X127366389Y-57926487D01*
X127366389Y-58073513D01*
X127337705Y-58217714D01*
X127281441Y-58353548D01*
X127199758Y-58475795D01*
X127095795Y-58579758D01*
X126973548Y-58661441D01*
X126837714Y-58717705D01*
X126693513Y-58746389D01*
X126546487Y-58746389D01*
X126402286Y-58717705D01*
X126266452Y-58661441D01*
X126144205Y-58579758D01*
X126040242Y-58475795D01*
X125958559Y-58353548D01*
X125902295Y-58217714D01*
X125873611Y-58073513D01*
X125873611Y-57926487D01*
X125902295Y-57782286D01*
X125958559Y-57646452D01*
X126040242Y-57524205D01*
X126144205Y-57420242D01*
X126266452Y-57338559D01*
X126402286Y-57282295D01*
X126546487Y-57253611D01*
X126693513Y-57253611D01*
X126837714Y-57282295D01*
G37*
G36*
X129377714Y-57282295D02*
G01*
X129513548Y-57338559D01*
X129635795Y-57420242D01*
X129739758Y-57524205D01*
X129821441Y-57646452D01*
X129877705Y-57782286D01*
X129906389Y-57926487D01*
X129906389Y-58073513D01*
X129877705Y-58217714D01*
X129821441Y-58353548D01*
X129739758Y-58475795D01*
X129635795Y-58579758D01*
X129513548Y-58661441D01*
X129377714Y-58717705D01*
X129233513Y-58746389D01*
X129086487Y-58746389D01*
X128942286Y-58717705D01*
X128806452Y-58661441D01*
X128684205Y-58579758D01*
X128580242Y-58475795D01*
X128498559Y-58353548D01*
X128442295Y-58217714D01*
X128413611Y-58073513D01*
X128413611Y-57926487D01*
X128442295Y-57782286D01*
X128498559Y-57646452D01*
X128580242Y-57524205D01*
X128684205Y-57420242D01*
X128806452Y-57338559D01*
X128942286Y-57282295D01*
X129086487Y-57253611D01*
X129233513Y-57253611D01*
X129377714Y-57282295D01*
G37*
G36*
X131917714Y-57282295D02*
G01*
X132053548Y-57338559D01*
X132175795Y-57420242D01*
X132279758Y-57524205D01*
X132361441Y-57646452D01*
X132417705Y-57782286D01*
X132446389Y-57926487D01*
X132446389Y-58073513D01*
X132417705Y-58217714D01*
X132361441Y-58353548D01*
X132279758Y-58475795D01*
X132175795Y-58579758D01*
X132053548Y-58661441D01*
X131917714Y-58717705D01*
X131773513Y-58746389D01*
X131626487Y-58746389D01*
X131482286Y-58717705D01*
X131346452Y-58661441D01*
X131224205Y-58579758D01*
X131120242Y-58475795D01*
X131038559Y-58353548D01*
X130982295Y-58217714D01*
X130953611Y-58073513D01*
X130953611Y-57926487D01*
X130982295Y-57782286D01*
X131038559Y-57646452D01*
X131120242Y-57524205D01*
X131224205Y-57420242D01*
X131346452Y-57338559D01*
X131482286Y-57282295D01*
X131626487Y-57253611D01*
X131773513Y-57253611D01*
X131917714Y-57282295D01*
G37*
G36*
X152662640Y-57607351D02*
G01*
X152758724Y-57662825D01*
X152837175Y-57741276D01*
X152892649Y-57837360D01*
X152921364Y-57944526D01*
X152921364Y-58055474D01*
X152892649Y-58162640D01*
X152837175Y-58258724D01*
X152758724Y-58337175D01*
X152662640Y-58392649D01*
X152555474Y-58421364D01*
X152444526Y-58421364D01*
X152337360Y-58392649D01*
X152241276Y-58337175D01*
X152162825Y-58258724D01*
X152107351Y-58162640D01*
X152078636Y-58055474D01*
X152078636Y-57944526D01*
X152107351Y-57837360D01*
X152162825Y-57741276D01*
X152241276Y-57662825D01*
X152337360Y-57607351D01*
X152444526Y-57578636D01*
X152555474Y-57578636D01*
X152662640Y-57607351D01*
G37*
G36*
X152925000Y-57425000D02*
G01*
X152075000Y-57425000D01*
X152075000Y-56575000D01*
X152925000Y-56575000D01*
X152925000Y-57425000D01*
G37*
G36*
X50790285Y-53293060D02*
G01*
X50971397Y-53368079D01*
X51134393Y-53476990D01*
X51273010Y-53615607D01*
X51381921Y-53778603D01*
X51456940Y-53959715D01*
X51495185Y-54151983D01*
X51495185Y-54348017D01*
X51456940Y-54540285D01*
X51381921Y-54721397D01*
X51273010Y-54884393D01*
X51134393Y-55023010D01*
X50971397Y-55131921D01*
X50790285Y-55206940D01*
X50598017Y-55245185D01*
X50401983Y-55245185D01*
X50209715Y-55206940D01*
X50028603Y-55131921D01*
X49865607Y-55023010D01*
X49726990Y-54884393D01*
X49618079Y-54721397D01*
X49543060Y-54540285D01*
X49504815Y-54348017D01*
X49504815Y-54151983D01*
X49543060Y-53959715D01*
X49618079Y-53778603D01*
X49726990Y-53615607D01*
X49865607Y-53476990D01*
X50028603Y-53368079D01*
X50209715Y-53293060D01*
X50401983Y-53254815D01*
X50598017Y-53254815D01*
X50790285Y-53293060D01*
G37*
G36*
X57290285Y-53293060D02*
G01*
X57471397Y-53368079D01*
X57634393Y-53476990D01*
X57773010Y-53615607D01*
X57881921Y-53778603D01*
X57956940Y-53959715D01*
X57995185Y-54151983D01*
X57995185Y-54348017D01*
X57956940Y-54540285D01*
X57881921Y-54721397D01*
X57773010Y-54884393D01*
X57634393Y-55023010D01*
X57471397Y-55131921D01*
X57290285Y-55206940D01*
X57098017Y-55245185D01*
X56901983Y-55245185D01*
X56709715Y-55206940D01*
X56528603Y-55131921D01*
X56365607Y-55023010D01*
X56226990Y-54884393D01*
X56118079Y-54721397D01*
X56043060Y-54540285D01*
X56004815Y-54348017D01*
X56004815Y-54151983D01*
X56043060Y-53959715D01*
X56118079Y-53778603D01*
X56226990Y-53615607D01*
X56365607Y-53476990D01*
X56528603Y-53368079D01*
X56709715Y-53293060D01*
X56901983Y-53254815D01*
X57098017Y-53254815D01*
X57290285Y-53293060D01*
G37*
G36*
X60290285Y-53293060D02*
G01*
X60471397Y-53368079D01*
X60634393Y-53476990D01*
X60773010Y-53615607D01*
X60881921Y-53778603D01*
X60956940Y-53959715D01*
X60995185Y-54151983D01*
X60995185Y-54348017D01*
X60956940Y-54540285D01*
X60881921Y-54721397D01*
X60773010Y-54884393D01*
X60634393Y-55023010D01*
X60471397Y-55131921D01*
X60290285Y-55206940D01*
X60098017Y-55245185D01*
X59901983Y-55245185D01*
X59709715Y-55206940D01*
X59528603Y-55131921D01*
X59365607Y-55023010D01*
X59226990Y-54884393D01*
X59118079Y-54721397D01*
X59043060Y-54540285D01*
X59004815Y-54348017D01*
X59004815Y-54151983D01*
X59043060Y-53959715D01*
X59118079Y-53778603D01*
X59226990Y-53615607D01*
X59365607Y-53476990D01*
X59528603Y-53368079D01*
X59709715Y-53293060D01*
X59901983Y-53254815D01*
X60098017Y-53254815D01*
X60290285Y-53293060D01*
G37*
G36*
X66790285Y-53293060D02*
G01*
X66971397Y-53368079D01*
X67134393Y-53476990D01*
X67273010Y-53615607D01*
X67381921Y-53778603D01*
X67456940Y-53959715D01*
X67495185Y-54151983D01*
X67495185Y-54348017D01*
X67456940Y-54540285D01*
X67381921Y-54721397D01*
X67273010Y-54884393D01*
X67134393Y-55023010D01*
X66971397Y-55131921D01*
X66790285Y-55206940D01*
X66598017Y-55245185D01*
X66401983Y-55245185D01*
X66209715Y-55206940D01*
X66028603Y-55131921D01*
X65865607Y-55023010D01*
X65726990Y-54884393D01*
X65618079Y-54721397D01*
X65543060Y-54540285D01*
X65504815Y-54348017D01*
X65504815Y-54151983D01*
X65543060Y-53959715D01*
X65618079Y-53778603D01*
X65726990Y-53615607D01*
X65865607Y-53476990D01*
X66028603Y-53368079D01*
X66209715Y-53293060D01*
X66401983Y-53254815D01*
X66598017Y-53254815D01*
X66790285Y-53293060D01*
G37*
G36*
X69790285Y-53293060D02*
G01*
X69971397Y-53368079D01*
X70134393Y-53476990D01*
X70273010Y-53615607D01*
X70381921Y-53778603D01*
X70456940Y-53959715D01*
X70495185Y-54151983D01*
X70495185Y-54348017D01*
X70456940Y-54540285D01*
X70381921Y-54721397D01*
X70273010Y-54884393D01*
X70134393Y-55023010D01*
X69971397Y-55131921D01*
X69790285Y-55206940D01*
X69598017Y-55245185D01*
X69401983Y-55245185D01*
X69209715Y-55206940D01*
X69028603Y-55131921D01*
X68865607Y-55023010D01*
X68726990Y-54884393D01*
X68618079Y-54721397D01*
X68543060Y-54540285D01*
X68504815Y-54348017D01*
X68504815Y-54151983D01*
X68543060Y-53959715D01*
X68618079Y-53778603D01*
X68726990Y-53615607D01*
X68865607Y-53476990D01*
X69028603Y-53368079D01*
X69209715Y-53293060D01*
X69401983Y-53254815D01*
X69598017Y-53254815D01*
X69790285Y-53293060D01*
G37*
G36*
X76290285Y-53293060D02*
G01*
X76471397Y-53368079D01*
X76634393Y-53476990D01*
X76773010Y-53615607D01*
X76881921Y-53778603D01*
X76956940Y-53959715D01*
X76995185Y-54151983D01*
X76995185Y-54348017D01*
X76956940Y-54540285D01*
X76881921Y-54721397D01*
X76773010Y-54884393D01*
X76634393Y-55023010D01*
X76471397Y-55131921D01*
X76290285Y-55206940D01*
X76098017Y-55245185D01*
X75901983Y-55245185D01*
X75709715Y-55206940D01*
X75528603Y-55131921D01*
X75365607Y-55023010D01*
X75226990Y-54884393D01*
X75118079Y-54721397D01*
X75043060Y-54540285D01*
X75004815Y-54348017D01*
X75004815Y-54151983D01*
X75043060Y-53959715D01*
X75118079Y-53778603D01*
X75226990Y-53615607D01*
X75365607Y-53476990D01*
X75528603Y-53368079D01*
X75709715Y-53293060D01*
X75901983Y-53254815D01*
X76098017Y-53254815D01*
X76290285Y-53293060D01*
G37*
G36*
X50790285Y-48793060D02*
G01*
X50971397Y-48868079D01*
X51134393Y-48976990D01*
X51273010Y-49115607D01*
X51381921Y-49278603D01*
X51456940Y-49459715D01*
X51495185Y-49651983D01*
X51495185Y-49848017D01*
X51456940Y-50040285D01*
X51381921Y-50221397D01*
X51273010Y-50384393D01*
X51134393Y-50523010D01*
X50971397Y-50631921D01*
X50790285Y-50706940D01*
X50598017Y-50745185D01*
X50401983Y-50745185D01*
X50209715Y-50706940D01*
X50028603Y-50631921D01*
X49865607Y-50523010D01*
X49726990Y-50384393D01*
X49618079Y-50221397D01*
X49543060Y-50040285D01*
X49504815Y-49848017D01*
X49504815Y-49651983D01*
X49543060Y-49459715D01*
X49618079Y-49278603D01*
X49726990Y-49115607D01*
X49865607Y-48976990D01*
X50028603Y-48868079D01*
X50209715Y-48793060D01*
X50401983Y-48754815D01*
X50598017Y-48754815D01*
X50790285Y-48793060D01*
G37*
G36*
X57290285Y-48793060D02*
G01*
X57471397Y-48868079D01*
X57634393Y-48976990D01*
X57773010Y-49115607D01*
X57881921Y-49278603D01*
X57956940Y-49459715D01*
X57995185Y-49651983D01*
X57995185Y-49848017D01*
X57956940Y-50040285D01*
X57881921Y-50221397D01*
X57773010Y-50384393D01*
X57634393Y-50523010D01*
X57471397Y-50631921D01*
X57290285Y-50706940D01*
X57098017Y-50745185D01*
X56901983Y-50745185D01*
X56709715Y-50706940D01*
X56528603Y-50631921D01*
X56365607Y-50523010D01*
X56226990Y-50384393D01*
X56118079Y-50221397D01*
X56043060Y-50040285D01*
X56004815Y-49848017D01*
X56004815Y-49651983D01*
X56043060Y-49459715D01*
X56118079Y-49278603D01*
X56226990Y-49115607D01*
X56365607Y-48976990D01*
X56528603Y-48868079D01*
X56709715Y-48793060D01*
X56901983Y-48754815D01*
X57098017Y-48754815D01*
X57290285Y-48793060D01*
G37*
G36*
X60290285Y-48793060D02*
G01*
X60471397Y-48868079D01*
X60634393Y-48976990D01*
X60773010Y-49115607D01*
X60881921Y-49278603D01*
X60956940Y-49459715D01*
X60995185Y-49651983D01*
X60995185Y-49848017D01*
X60956940Y-50040285D01*
X60881921Y-50221397D01*
X60773010Y-50384393D01*
X60634393Y-50523010D01*
X60471397Y-50631921D01*
X60290285Y-50706940D01*
X60098017Y-50745185D01*
X59901983Y-50745185D01*
X59709715Y-50706940D01*
X59528603Y-50631921D01*
X59365607Y-50523010D01*
X59226990Y-50384393D01*
X59118079Y-50221397D01*
X59043060Y-50040285D01*
X59004815Y-49848017D01*
X59004815Y-49651983D01*
X59043060Y-49459715D01*
X59118079Y-49278603D01*
X59226990Y-49115607D01*
X59365607Y-48976990D01*
X59528603Y-48868079D01*
X59709715Y-48793060D01*
X59901983Y-48754815D01*
X60098017Y-48754815D01*
X60290285Y-48793060D01*
G37*
G36*
X66790285Y-48793060D02*
G01*
X66971397Y-48868079D01*
X67134393Y-48976990D01*
X67273010Y-49115607D01*
X67381921Y-49278603D01*
X67456940Y-49459715D01*
X67495185Y-49651983D01*
X67495185Y-49848017D01*
X67456940Y-50040285D01*
X67381921Y-50221397D01*
X67273010Y-50384393D01*
X67134393Y-50523010D01*
X66971397Y-50631921D01*
X66790285Y-50706940D01*
X66598017Y-50745185D01*
X66401983Y-50745185D01*
X66209715Y-50706940D01*
X66028603Y-50631921D01*
X65865607Y-50523010D01*
X65726990Y-50384393D01*
X65618079Y-50221397D01*
X65543060Y-50040285D01*
X65504815Y-49848017D01*
X65504815Y-49651983D01*
X65543060Y-49459715D01*
X65618079Y-49278603D01*
X65726990Y-49115607D01*
X65865607Y-48976990D01*
X66028603Y-48868079D01*
X66209715Y-48793060D01*
X66401983Y-48754815D01*
X66598017Y-48754815D01*
X66790285Y-48793060D01*
G37*
G36*
X69790285Y-48793060D02*
G01*
X69971397Y-48868079D01*
X70134393Y-48976990D01*
X70273010Y-49115607D01*
X70381921Y-49278603D01*
X70456940Y-49459715D01*
X70495185Y-49651983D01*
X70495185Y-49848017D01*
X70456940Y-50040285D01*
X70381921Y-50221397D01*
X70273010Y-50384393D01*
X70134393Y-50523010D01*
X69971397Y-50631921D01*
X69790285Y-50706940D01*
X69598017Y-50745185D01*
X69401983Y-50745185D01*
X69209715Y-50706940D01*
X69028603Y-50631921D01*
X68865607Y-50523010D01*
X68726990Y-50384393D01*
X68618079Y-50221397D01*
X68543060Y-50040285D01*
X68504815Y-49848017D01*
X68504815Y-49651983D01*
X68543060Y-49459715D01*
X68618079Y-49278603D01*
X68726990Y-49115607D01*
X68865607Y-48976990D01*
X69028603Y-48868079D01*
X69209715Y-48793060D01*
X69401983Y-48754815D01*
X69598017Y-48754815D01*
X69790285Y-48793060D01*
G37*
G36*
X76290285Y-48793060D02*
G01*
X76471397Y-48868079D01*
X76634393Y-48976990D01*
X76773010Y-49115607D01*
X76881921Y-49278603D01*
X76956940Y-49459715D01*
X76995185Y-49651983D01*
X76995185Y-49848017D01*
X76956940Y-50040285D01*
X76881921Y-50221397D01*
X76773010Y-50384393D01*
X76634393Y-50523010D01*
X76471397Y-50631921D01*
X76290285Y-50706940D01*
X76098017Y-50745185D01*
X75901983Y-50745185D01*
X75709715Y-50706940D01*
X75528603Y-50631921D01*
X75365607Y-50523010D01*
X75226990Y-50384393D01*
X75118079Y-50221397D01*
X75043060Y-50040285D01*
X75004815Y-49848017D01*
X75004815Y-49651983D01*
X75043060Y-49459715D01*
X75118079Y-49278603D01*
X75226990Y-49115607D01*
X75365607Y-48976990D01*
X75528603Y-48868079D01*
X75709715Y-48793060D01*
X75901983Y-48754815D01*
X76098017Y-48754815D01*
X76290285Y-48793060D01*
G37*
M02*
