M48
; DRILL file {KiCad 9.0.4} date 2025-12-06T15:03:00-0500
; FORMAT={-:-/ absolute / metric / decimal}
; #@! TF.CreationDate,2025-12-06T15:03:00-05:00
; #@! TF.GenerationSoftware,Kicad,Pcbnew,9.0.4
; #@! TF.FileFunction,Plated,1,4,PTH
FMAT,2
METRIC
; #@! TA.AperFunction,Plated,PTH,ViaDrill
T1C0.300
; #@! TA.AperFunction,Plated,PTH,ComponentDrill
T2C0.600
; #@! TA.AperFunction,Plated,PTH,ComponentDrill
T3C1.000
; #@! TA.AperFunction,Plated,PTH,ComponentDrill
T4C1.100
; #@! TA.AperFunction,Plated,PTH,ComponentDrill
T5C2.200
%
G90
G05
T1
X51.135Y-48.525
X51.75Y-64.0
X52.125Y-64.375
X52.405Y-48.525
X53.25Y-65.5
X53.625Y-65.875
X54.945Y-48.525
X55.0Y-51.5
X57.1Y-54.785
X59.75Y-55.75
X59.75Y-56.5
X63.5Y-57.0
X68.125Y-54.625
X68.62Y-55.12
X69.25Y-52.25
X70.347Y-52.653
X70.5Y-50.5
X70.986Y-48.014
X72.0Y-48.0
X72.25Y-54.75
X72.903Y-52.097
X73.0Y-48.0
X73.5Y-51.0
X73.75Y-64.25
X75.0Y-51.0
X81.3Y-54.0
X81.5Y-53.0
X85.0Y-61.0
X96.5Y-58.0
X98.75Y-54.25
X99.0Y-57.0
X100.0Y-57.5
X104.0Y-58.5
X104.0Y-59.5
X104.0Y-60.5
X105.515Y-52.112
X108.0Y-57.75
X108.055Y-61.412
X110.75Y-57.75
X111.865Y-52.112
X112.5Y-54.5
X113.78Y-54.49
X118.215Y-52.112
X119.485Y-61.412
X121.38Y-52.88
X127.5Y-55.3
X130.0Y-63.0
T3
X57.15Y-49.01
X57.15Y-64.25
X59.69Y-49.01
X59.69Y-64.25
X62.23Y-49.01
X62.23Y-64.25
X64.77Y-49.01
X64.77Y-64.25
X67.31Y-49.01
X67.31Y-64.25
X69.85Y-49.01
X69.85Y-64.25
X108.0Y-49.01
X108.0Y-64.25
X110.54Y-49.01
X110.54Y-64.25
X113.08Y-49.01
X113.08Y-64.25
X115.62Y-49.01
X115.62Y-64.25
X118.16Y-49.01
X118.16Y-64.25
X120.7Y-49.01
X120.7Y-64.25
X133.29Y-43.0
X138.29Y-40.5
X138.29Y-45.5
X144.9Y-50.5
X144.9Y-65.0
X147.4Y-50.5
X149.9Y-50.5
X149.9Y-65.0
T4
X39.75Y-40.75
X39.75Y-45.25
X46.25Y-40.75
X46.25Y-45.25
X49.25Y-40.75
X49.25Y-45.25
X55.75Y-40.75
X55.75Y-45.25
X58.75Y-40.75
X58.75Y-45.25
X65.25Y-40.75
X65.25Y-45.25
T5
X141.8Y-58.0
X153.0Y-58.0
T2
X40.99Y-56.6G85X41.79Y-56.6
G05
X40.99Y-65.24G85X41.79Y-65.24
G05
X45.01Y-56.6G85X46.11Y-56.6
G05
X45.01Y-65.24G85X46.11Y-65.24
G05
M30
