M48
; DRILL file {KiCad 9.0.7} date 2026-03-11T11:46:47-0400
; FORMAT={-:-/ absolute / metric / decimal}
; #@! TF.CreationDate,2026-03-11T11:46:47-04:00
; #@! TF.GenerationSoftware,Kicad,Pcbnew,9.0.7
; #@! TF.FileFunction,Plated,1,4,PTH
FMAT,2
METRIC
; #@! TA.AperFunction,Plated,PTH,ViaDrill
T1C0.300
; #@! TA.AperFunction,Plated,PTH,ComponentDrill
T2C0.300
; #@! TA.AperFunction,Plated,PTH,ComponentDrill
T3C0.600
; #@! TA.AperFunction,Plated,PTH,ComponentDrill
T4C1.000
%
G90
G05
T1
X31.93Y-55.5
X31.93Y-59.43
X37.0Y-62.0
X38.0Y-62.0
X38.5Y-65.5
X39.0Y-65.0
X63.318Y-57.495
X63.812Y-57.0
X65.0Y-53.5
X65.0Y-54.5
X66.0Y-56.5
X68.0Y-60.5
X69.5Y-63.0
X76.0Y-57.0
X81.0Y-59.5
X81.5Y-57.5
X82.5Y-58.014
X83.0Y-53.5
X83.5Y-61.0
X84.0Y-53.0
X84.0Y-59.0
X85.0Y-58.508
X98.7Y-58.8
X100.0Y-56.0
X104.5Y-55.5
X105.5Y-54.5
X106.5Y-50.0
X106.5Y-61.0
X107.0Y-54.5
X107.75Y-58.25
X109.0Y-60.0
X111.5Y-59.5
X113.0Y-54.0
X113.5Y-59.0
X114.5Y-58.5
X115.981Y-54.509
X116.0Y-59.505
X116.5Y-54.0
X117.0Y-59.505
X121.5Y-59.0
X123.5Y-60.5
X134.0Y-53.5
X134.0Y-54.5
X134.0Y-55.5
X134.0Y-62.5
X134.0Y-63.5
T2
X86.3Y-58.45
X86.3Y-59.55
X86.85Y-57.9
X86.85Y-59.0
X86.85Y-60.1
X87.4Y-58.45
X87.4Y-59.55
X87.95Y-57.9
X87.95Y-59.0
X87.95Y-60.1
X88.5Y-58.45
X88.5Y-59.55
T4
X57.15Y-49.01
X57.15Y-64.25
X59.69Y-49.01
X59.69Y-64.25
X62.23Y-49.01
X62.23Y-64.25
X64.77Y-49.01
X64.77Y-64.25
X67.31Y-49.01
X67.31Y-64.25
X69.85Y-49.01
X69.85Y-64.25
X108.0Y-49.01
X108.0Y-64.25
X110.54Y-49.01
X110.54Y-64.25
X113.08Y-49.01
X113.08Y-64.25
X115.62Y-49.01
X115.62Y-64.25
X118.16Y-49.01
X118.16Y-64.25
X120.7Y-49.01
X120.7Y-64.25
X141.5Y-54.0
X141.5Y-59.0
X146.5Y-56.5
T3
X25.735Y-56.86G85X26.535Y-56.86
G05
X25.735Y-65.5G85X26.535Y-65.5
G05
X29.755Y-56.86G85X30.855Y-56.86
G05
X29.755Y-65.5G85X30.855Y-65.5
G05
M30
