G04 #@! TF.GenerationSoftware,KiCad,Pcbnew,9.0.3*
G04 #@! TF.CreationDate,2025-08-28T22:32:17-04:00*
G04 #@! TF.ProjectId,shiftclock,73686966-7463-46c6-9f63-6b2e6b696361,rev?*
G04 #@! TF.SameCoordinates,Original*
G04 #@! TF.FileFunction,Copper,L4,Bot*
G04 #@! TF.FilePolarity,Positive*
%FSLAX46Y46*%
G04 Gerber Fmt 4.6, Leading zero omitted, Abs format (unit mm)*
G04 Created by KiCad (PCBNEW 9.0.3) date 2025-08-28 22:32:17*
%MOMM*%
%LPD*%
G01*
G04 APERTURE LIST*
G04 Aperture macros list*
%AMRoundRect*
0 Rectangle with rounded corners*
0 $1 Rounding radius*
0 $2 $3 $4 $5 $6 $7 $8 $9 X,Y pos of 4 corners*
0 Add a 4 corners polygon primitive as box body*
4,1,4,$2,$3,$4,$5,$6,$7,$8,$9,$2,$3,0*
0 Add four circle primitives for the rounded corners*
1,1,$1+$1,$2,$3*
1,1,$1+$1,$4,$5*
1,1,$1+$1,$6,$7*
1,1,$1+$1,$8,$9*
0 Add four rect primitives between the rounded corners*
20,1,$1+$1,$2,$3,$4,$5,0*
20,1,$1+$1,$4,$5,$6,$7,0*
20,1,$1+$1,$6,$7,$8,$9,0*
20,1,$1+$1,$8,$9,$2,$3,0*%
G04 Aperture macros list end*
G04 #@! TA.AperFunction,ComponentPad*
%ADD10C,2.000000*%
G04 #@! TD*
G04 #@! TA.AperFunction,ComponentPad*
%ADD11RoundRect,0.250000X-0.550000X-0.550000X0.550000X-0.550000X0.550000X0.550000X-0.550000X0.550000X0*%
G04 #@! TD*
G04 #@! TA.AperFunction,ComponentPad*
%ADD12C,1.600000*%
G04 #@! TD*
G04 #@! TA.AperFunction,ComponentPad*
%ADD13RoundRect,0.250000X0.550000X-0.550000X0.550000X0.550000X-0.550000X0.550000X-0.550000X-0.550000X0*%
G04 #@! TD*
G04 #@! TA.AperFunction,ComponentPad*
%ADD14R,1.524000X2.524000*%
G04 #@! TD*
G04 #@! TA.AperFunction,ComponentPad*
%ADD15O,1.524000X2.524000*%
G04 #@! TD*
G04 #@! TA.AperFunction,ComponentPad*
%ADD16R,1.700000X1.700000*%
G04 #@! TD*
G04 #@! TA.AperFunction,ComponentPad*
%ADD17C,1.700000*%
G04 #@! TD*
G04 #@! TA.AperFunction,ViaPad*
%ADD18C,0.600000*%
G04 #@! TD*
G04 #@! TA.AperFunction,Conductor*
%ADD19C,0.150000*%
G04 #@! TD*
G04 #@! TA.AperFunction,Conductor*
%ADD20C,0.127000*%
G04 #@! TD*
G04 #@! TA.AperFunction,Conductor*
%ADD21C,0.200000*%
G04 #@! TD*
G04 APERTURE END LIST*
D10*
X124750000Y-17750000D03*
X131250000Y-17750000D03*
X124750000Y-22250000D03*
X131250000Y-22250000D03*
D11*
X17000000Y-24000000D03*
D12*
X19500000Y-24000000D03*
D13*
X35030000Y-30597500D03*
D12*
X37570000Y-30597500D03*
X40110000Y-30597500D03*
X42650000Y-30597500D03*
X45190000Y-30597500D03*
X47730000Y-30597500D03*
X50270000Y-30597500D03*
X52810000Y-30597500D03*
X55350000Y-30597500D03*
X57890000Y-30597500D03*
X60430000Y-30597500D03*
X62970000Y-30597500D03*
X62970000Y-22977500D03*
X60430000Y-22977500D03*
X57890000Y-22977500D03*
X55350000Y-22977500D03*
X52810000Y-22977500D03*
X50270000Y-22977500D03*
X47730000Y-22977500D03*
X45190000Y-22977500D03*
X42650000Y-22977500D03*
X40110000Y-22977500D03*
X37570000Y-22977500D03*
X35030000Y-22977500D03*
X17000000Y-28792500D03*
X19500000Y-28792500D03*
X24380000Y-24792500D03*
X32000000Y-24792500D03*
X82000000Y-21792500D03*
X89620000Y-21792500D03*
D14*
X120000000Y-52047500D03*
D15*
X122540000Y-52047500D03*
X125080000Y-52047500D03*
X127620000Y-52047500D03*
X130160000Y-52047500D03*
X130160000Y-36807500D03*
X127620000Y-36807500D03*
X125080000Y-36807500D03*
X122540000Y-36807500D03*
X120000000Y-36807500D03*
D16*
X17000000Y-33792500D03*
D17*
X17000000Y-36332500D03*
X17000000Y-38872500D03*
X17000000Y-41412500D03*
X17000000Y-43952500D03*
X17000000Y-46492500D03*
X17000000Y-49032500D03*
X17000000Y-51572500D03*
D10*
X103000000Y-17750000D03*
X109500000Y-17750000D03*
X103000000Y-22250000D03*
X109500000Y-22250000D03*
D14*
X41840000Y-52032500D03*
D15*
X44380000Y-52032500D03*
X46920000Y-52032500D03*
X49460000Y-52032500D03*
X52000000Y-52032500D03*
X52000000Y-36792500D03*
X49460000Y-36792500D03*
X46920000Y-36792500D03*
X44380000Y-36792500D03*
X41840000Y-36792500D03*
D14*
X68000000Y-52032500D03*
D15*
X70540000Y-52032500D03*
X73080000Y-52032500D03*
X75620000Y-52032500D03*
X78160000Y-52032500D03*
X78160000Y-36792500D03*
X75620000Y-36792500D03*
X73080000Y-36792500D03*
X70540000Y-36792500D03*
X68000000Y-36792500D03*
D12*
X82000000Y-25792500D03*
X89620000Y-25792500D03*
X82000000Y-18000000D03*
X89620000Y-18000000D03*
D10*
X113750000Y-17750000D03*
X120250000Y-17750000D03*
X113750000Y-22250000D03*
X120250000Y-22250000D03*
D12*
X32000000Y-32792500D03*
X24380000Y-32792500D03*
D14*
X94000000Y-52032500D03*
D15*
X96540000Y-52032500D03*
X99080000Y-52032500D03*
X101620000Y-52032500D03*
X104160000Y-52032500D03*
X104160000Y-36792500D03*
X101620000Y-36792500D03*
X99080000Y-36792500D03*
X96540000Y-36792500D03*
X94000000Y-36792500D03*
D18*
X32000000Y-28792500D03*
X70000000Y-29792500D03*
X82000000Y-39792500D03*
X46000000Y-48792500D03*
X71000000Y-48792500D03*
X96000000Y-48792500D03*
X55000000Y-34792500D03*
X53000000Y-34792500D03*
X74000000Y-24792500D03*
X74000000Y-28792500D03*
X26000000Y-37792500D03*
D19*
X122540000Y-36332500D02*
X122540000Y-36807500D01*
X72540000Y-38792500D02*
X89000000Y-38792500D01*
X119000000Y-34792500D02*
X121000000Y-34792500D01*
X70540000Y-36792500D02*
X72540000Y-38792500D01*
X36000000Y-34792500D02*
X33000000Y-31792500D01*
X121000000Y-34792500D02*
X122540000Y-36332500D01*
X89000000Y-38792500D02*
X93000000Y-34792500D01*
X44380000Y-36792500D02*
X44380000Y-36172500D01*
X33000000Y-31792500D02*
X33000000Y-28792500D01*
X68540000Y-34792500D02*
X70540000Y-36792500D01*
X96540000Y-36792500D02*
X98540000Y-38792500D01*
X33000000Y-28792500D02*
X34000000Y-27792500D01*
X44380000Y-36172500D02*
X43000000Y-34792500D01*
X46000000Y-38792500D02*
X63000000Y-38792500D01*
X98540000Y-38792500D02*
X115000000Y-38792500D01*
X115000000Y-38792500D02*
X119000000Y-34792500D01*
X93000000Y-34792500D02*
X94540000Y-34792500D01*
X63000000Y-38792500D02*
X67000000Y-34792500D01*
X43000000Y-34792500D02*
X36000000Y-34792500D01*
X50535000Y-27792500D02*
X55350000Y-22977500D01*
X44380000Y-37172500D02*
X46000000Y-38792500D01*
X67000000Y-34792500D02*
X68540000Y-34792500D01*
X94540000Y-34792500D02*
X96540000Y-36792500D01*
X34000000Y-27792500D02*
X50535000Y-27792500D01*
X44380000Y-36792500D02*
X44380000Y-37172500D01*
X32000000Y-29000000D02*
X32000000Y-28792500D01*
X103380000Y-53792500D02*
X111000000Y-53792500D01*
X127620000Y-51412500D02*
X127620000Y-52047500D01*
X65000000Y-47792500D02*
X72000000Y-47792500D01*
X97380000Y-47792500D02*
X101620000Y-52032500D01*
X49460000Y-52032500D02*
X49460000Y-51252500D01*
X124000000Y-47792500D02*
X127620000Y-51412500D01*
X51220000Y-53792500D02*
X59000000Y-53792500D01*
X49460000Y-51252500D02*
X46000000Y-47792500D01*
X111000000Y-53792500D02*
X117000000Y-47792500D01*
X30000000Y-36792500D02*
X30000000Y-31000000D01*
X72000000Y-47792500D02*
X75620000Y-51412500D01*
X75620000Y-51412500D02*
X75620000Y-52032500D01*
X49460000Y-52032500D02*
X51220000Y-53792500D01*
X46000000Y-47792500D02*
X41000000Y-47792500D01*
X91000000Y-47792500D02*
X97380000Y-47792500D01*
X75620000Y-52032500D02*
X77380000Y-53792500D01*
X77380000Y-53792500D02*
X85000000Y-53792500D01*
X85000000Y-53792500D02*
X91000000Y-47792500D01*
X117000000Y-47792500D02*
X124000000Y-47792500D01*
X41000000Y-47792500D02*
X30000000Y-36792500D01*
X59000000Y-53792500D02*
X65000000Y-47792500D01*
X30000000Y-31000000D02*
X32000000Y-29000000D01*
X101620000Y-52032500D02*
X103380000Y-53792500D01*
X110760000Y-52032500D02*
X116000000Y-46792500D01*
X104160000Y-52032500D02*
X110760000Y-52032500D01*
X52000000Y-52032500D02*
X58760000Y-52032500D01*
X78160000Y-52032500D02*
X84760000Y-52032500D01*
X64000000Y-46792500D02*
X72920000Y-46792500D01*
X84760000Y-52032500D02*
X90000000Y-46792500D01*
X90000000Y-46792500D02*
X98920000Y-46792500D01*
X124905000Y-46792500D02*
X130160000Y-52047500D01*
X98920000Y-46792500D02*
X104160000Y-52032500D01*
X58760000Y-52032500D02*
X64000000Y-46792500D01*
X72920000Y-46792500D02*
X78160000Y-52032500D01*
X116000000Y-46792500D02*
X124905000Y-46792500D01*
X38132500Y-21000000D02*
X40110000Y-22977500D01*
X70540000Y-51332500D02*
X70540000Y-52032500D01*
X29000000Y-22000000D02*
X30000000Y-21000000D01*
X28103750Y-38896250D02*
X28103750Y-28896250D01*
X44380000Y-51172500D02*
X43000000Y-49792500D01*
X29000000Y-28000000D02*
X29000000Y-22000000D01*
X44380000Y-52032500D02*
X44380000Y-51172500D01*
X122540000Y-51332500D02*
X122540000Y-52047500D01*
X96540000Y-51332500D02*
X96540000Y-52032500D01*
X30000000Y-21000000D02*
X38132500Y-21000000D01*
X122000000Y-51507500D02*
X122540000Y-52047500D01*
X28103750Y-28896250D02*
X29000000Y-28000000D01*
X39000000Y-49792500D02*
X28103750Y-38896250D01*
X43000000Y-49792500D02*
X39000000Y-49792500D01*
X28000000Y-27000000D02*
X28000000Y-21000000D01*
X68000000Y-52792500D02*
X68000000Y-52032500D01*
X27103750Y-39896250D02*
X27103750Y-27896250D01*
X28000000Y-21000000D02*
X29207500Y-19792500D01*
X27103750Y-27896250D02*
X28000000Y-27000000D01*
X39240000Y-52032500D02*
X27103750Y-39896250D01*
X29207500Y-19792500D02*
X42005000Y-19792500D01*
X41840000Y-52032500D02*
X39240000Y-52032500D01*
X42005000Y-19792500D02*
X45190000Y-22977500D01*
X68000000Y-36792500D02*
X71000000Y-39792500D01*
X117015000Y-39792500D02*
X120000000Y-36807500D01*
X70000000Y-29792500D02*
X67245000Y-29792500D01*
X97000000Y-39792500D02*
X117015000Y-39792500D01*
X94000000Y-36792500D02*
X91000000Y-39792500D01*
X44840000Y-39792500D02*
X65000000Y-39792500D01*
X71000000Y-39792500D02*
X82000000Y-39792500D01*
X65000000Y-39792500D02*
X68000000Y-36792500D01*
X94000000Y-36792500D02*
X97000000Y-39792500D01*
X67245000Y-29792500D02*
X60430000Y-22977500D01*
X41840000Y-36792500D02*
X44840000Y-39792500D01*
X82000000Y-39792500D02*
X91000000Y-39792500D01*
X43680000Y-48792500D02*
X40000000Y-48792500D01*
X46920000Y-49712500D02*
X46000000Y-48792500D01*
X29000000Y-37792500D02*
X29000000Y-29792500D01*
X71000000Y-48792500D02*
X73080000Y-50872500D01*
X73080000Y-50872500D02*
X73080000Y-52032500D01*
X29000000Y-29792500D02*
X33000000Y-25792500D01*
X96000000Y-48792500D02*
X99080000Y-51872500D01*
X39835000Y-25792500D02*
X42650000Y-22977500D01*
X99080000Y-51872500D02*
X99080000Y-52032500D01*
X40000000Y-48792500D02*
X29000000Y-37792500D01*
X46920000Y-52032500D02*
X46920000Y-49712500D01*
X125080000Y-51872500D02*
X125080000Y-52047500D01*
X33000000Y-25792500D02*
X39835000Y-25792500D01*
X46920000Y-52032500D02*
X43680000Y-48792500D01*
X40765000Y-33792500D02*
X46000000Y-33792500D01*
X37570000Y-30597500D02*
X40765000Y-33792500D01*
X46000000Y-33792500D02*
X46920000Y-34712500D01*
X46920000Y-34712500D02*
X46920000Y-36792500D01*
X104160000Y-36792500D02*
X116000000Y-36792500D01*
X89000000Y-36792500D02*
X92000000Y-33792500D01*
X66000000Y-33792500D02*
X75160000Y-33792500D01*
X101160000Y-33792500D02*
X104160000Y-36792500D01*
X92000000Y-33792500D02*
X101160000Y-33792500D01*
X119000000Y-33792500D02*
X127145000Y-33792500D01*
X75160000Y-33792500D02*
X78160000Y-36792500D01*
X116000000Y-36792500D02*
X119000000Y-33792500D01*
X66000000Y-31087500D02*
X57890000Y-22977500D01*
X127145000Y-33792500D02*
X130160000Y-36807500D01*
X66000000Y-33792500D02*
X66000000Y-31087500D01*
X52000000Y-36792500D02*
X63000000Y-36792500D01*
X63000000Y-36792500D02*
X66000000Y-33792500D01*
X78160000Y-36792500D02*
X89000000Y-36792500D01*
X54465000Y-34792500D02*
X50270000Y-30597500D01*
X55000000Y-34792500D02*
X54465000Y-34792500D01*
X51925000Y-34792500D02*
X47730000Y-30597500D01*
X53000000Y-34792500D02*
X51925000Y-34792500D01*
X74000000Y-24792500D02*
X74000000Y-28792500D01*
D20*
X19000000Y-29292500D02*
X19500000Y-28792500D01*
X17000000Y-36332500D02*
X19500000Y-33832500D01*
X19500000Y-33832500D02*
X19500000Y-28792500D01*
X26000000Y-27000000D02*
X27000000Y-26000000D01*
X27000000Y-26000000D02*
X27000000Y-20000000D01*
D19*
X62970000Y-22977500D02*
X62970000Y-20822500D01*
X63000000Y-20792500D02*
X61207500Y-19000000D01*
D20*
X26000000Y-37792500D02*
X26000000Y-27000000D01*
D19*
X61207500Y-19000000D02*
X28000000Y-19000000D01*
X62970000Y-20822500D02*
X63000000Y-20792500D01*
X28000000Y-19000000D02*
X27000000Y-20000000D01*
D21*
X53545000Y-28792500D02*
X55350000Y-30597500D01*
X44455000Y-28792500D02*
X53545000Y-28792500D01*
D19*
X42650000Y-30597500D02*
X44455000Y-28792500D01*
D20*
X21000000Y-42492500D02*
X21000000Y-19000000D01*
X24000000Y-16000000D02*
X87620000Y-16000000D01*
X21000000Y-19000000D02*
X24000000Y-16000000D01*
X17000000Y-46492500D02*
X21000000Y-42492500D01*
X87620000Y-16000000D02*
X89620000Y-18000000D01*
X102750000Y-22250000D02*
X98500000Y-18000000D01*
X98500000Y-18000000D02*
X89620000Y-18000000D01*
X113750000Y-22250000D02*
X112000000Y-24000000D01*
X100000000Y-24000000D02*
X97792500Y-21792500D01*
X25244001Y-17000000D02*
X74000000Y-17000000D01*
X77000000Y-20000000D02*
X87827500Y-20000000D01*
X74000000Y-17000000D02*
X77000000Y-20000000D01*
X22000000Y-20244001D02*
X25244001Y-17000000D01*
X17000000Y-49032500D02*
X22000000Y-44032500D01*
X87827500Y-20000000D02*
X89620000Y-21792500D01*
X90207500Y-21792500D02*
X89620000Y-21792500D01*
X97792500Y-21792500D02*
X89620000Y-21792500D01*
X112000000Y-24000000D02*
X100000000Y-24000000D01*
X22000000Y-44032500D02*
X22000000Y-20244001D01*
X121207500Y-25792500D02*
X89620000Y-25792500D01*
X87827500Y-24000000D02*
X89620000Y-25792500D01*
X23000000Y-21792500D02*
X26792500Y-18000000D01*
X73000000Y-18000000D02*
X79000000Y-24000000D01*
X26792500Y-18000000D02*
X73000000Y-18000000D01*
X17000000Y-51572500D02*
X23000000Y-45572500D01*
X79000000Y-24000000D02*
X87827500Y-24000000D01*
X124750000Y-22250000D02*
X121207500Y-25792500D01*
X23000000Y-45572500D02*
X23000000Y-21792500D01*
M02*
