%TF.GenerationSoftware,KiCad,Pcbnew,9.0.3*%
%TF.CreationDate,2025-09-30T21:03:42-04:00*%
%TF.ProjectId,shiftclock-2.0,73686966-7463-46c6-9f63-6b2d322e302e,rev?*%
%TF.SameCoordinates,Original*%
%TF.FileFunction,Drillmap*%
%TF.FilePolarity,Positive*%
%FSLAX45Y45*%
G04 Gerber Fmt 4.5, Leading zero omitted, Abs format (unit mm)*
G04 Created by KiCad (PCBNEW 9.0.3) date 2025-09-30 21:03:42*
%MOMM*%
%LPD*%
G01*
G04 APERTURE LIST*
%ADD10C,0.038100*%
%ADD11C,0.200000*%
%ADD12C,0.100000*%
%ADD13C,0.110000*%
%ADD14C,0.220000*%
G04 APERTURE END LIST*
D10*
X3925000Y-4800000D02*
X16875000Y-4800000D01*
X16875000Y-7550000D01*
X3925000Y-7550000D01*
X3925000Y-4800000D01*
D11*
D12*
X4885000Y-6885000D02*
X4915000Y-6915000D01*
X4915000Y-6885000D02*
X4885000Y-6915000D01*
X4885000Y-7035000D02*
X4915000Y-7065000D01*
X4915000Y-7035000D02*
X4885000Y-7065000D01*
X5925316Y-6075316D02*
X5955316Y-6105316D01*
X5955316Y-6075316D02*
X5925316Y-6105316D01*
X6385000Y-6685000D02*
X6415000Y-6715000D01*
X6415000Y-6685000D02*
X6385000Y-6715000D01*
X6385000Y-6775500D02*
X6415000Y-6805500D01*
X6415000Y-6775500D02*
X6385000Y-6805500D01*
X6835000Y-6335000D02*
X6865000Y-6365000D01*
X6865000Y-6335000D02*
X6835000Y-6365000D01*
X6985000Y-6335000D02*
X7015000Y-6365000D01*
X7015000Y-6335000D02*
X6985000Y-6365000D01*
X8085000Y-6035000D02*
X8115000Y-6065000D01*
X8115000Y-6035000D02*
X8085000Y-6065000D01*
X8185000Y-6035000D02*
X8215000Y-6065000D01*
X8215000Y-6035000D02*
X8185000Y-6065000D01*
X8235000Y-6885000D02*
X8265000Y-6915000D01*
X8265000Y-6885000D02*
X8235000Y-6915000D01*
X8635000Y-6885000D02*
X8665000Y-6915000D01*
X8665000Y-6885000D02*
X8635000Y-6915000D01*
X8722833Y-7292200D02*
X8752833Y-7322200D01*
X8752833Y-7292200D02*
X8722833Y-7322200D01*
X8735000Y-6635000D02*
X8765000Y-6665000D01*
X8765000Y-6635000D02*
X8735000Y-6665000D01*
X9034292Y-6184311D02*
X9064292Y-6214311D01*
X9064292Y-6184311D02*
X9034292Y-6214311D01*
X9085709Y-6235708D02*
X9115709Y-6265708D01*
X9115709Y-6235708D02*
X9085709Y-6265708D01*
X9485000Y-6285000D02*
X9515000Y-6315000D01*
X9515000Y-6285000D02*
X9485000Y-6315000D01*
X9535000Y-6685000D02*
X9565000Y-6715000D01*
X9565000Y-6685000D02*
X9535000Y-6715000D01*
X9735000Y-6335000D02*
X9765000Y-6365000D01*
X9765000Y-6335000D02*
X9735000Y-6365000D01*
X10585000Y-7085000D02*
X10615000Y-7115000D01*
X10615000Y-7085000D02*
X10585000Y-7115000D01*
X10985000Y-6485000D02*
X11015000Y-6515000D01*
X11015000Y-6485000D02*
X10985000Y-6515000D01*
X10985000Y-6685000D02*
X11015000Y-6715000D01*
X11015000Y-6685000D02*
X10985000Y-6715000D01*
X10985000Y-6885000D02*
X11015000Y-6915000D01*
X11015000Y-6885000D02*
X10985000Y-6915000D01*
X11835000Y-6585000D02*
X11865000Y-6615000D01*
X11865000Y-6585000D02*
X11835000Y-6615000D01*
X11858417Y-7085950D02*
X11888417Y-7115950D01*
X11888417Y-7085950D02*
X11858417Y-7115950D01*
X11935000Y-6535000D02*
X11965000Y-6565000D01*
X11965000Y-6535000D02*
X11935000Y-6565000D01*
X11935000Y-7135000D02*
X11965000Y-7165000D01*
X11965000Y-7135000D02*
X11935000Y-7165000D01*
X12125316Y-6244684D02*
X12155316Y-6274684D01*
X12155316Y-6244684D02*
X12125316Y-6274684D01*
X12235000Y-6235000D02*
X12265000Y-6265000D01*
X12265000Y-6235000D02*
X12235000Y-6265000D01*
X12685000Y-6235000D02*
X12715000Y-6265000D01*
X12715000Y-6235000D02*
X12685000Y-6265000D01*
X13285000Y-6285000D02*
X13315000Y-6315000D01*
X13315000Y-6285000D02*
X13285000Y-6315000D01*
X13385000Y-6335000D02*
X13415000Y-6365000D01*
X13415000Y-6335000D02*
X13385000Y-6365000D01*
X13485000Y-6785000D02*
X13515000Y-6815000D01*
X13515000Y-6785000D02*
X13485000Y-6815000D01*
X15275000Y-5700000D02*
G75*
G02*
X15225000Y-5700000I-25000J0D01*
G01*
X15225000Y-5700000D02*
G75*
G02*
X15275000Y-5700000I25000J0D01*
G01*
X15275000Y-5800000D02*
G75*
G02*
X15225000Y-5800000I-25000J0D01*
G01*
X15225000Y-5800000D02*
G75*
G02*
X15275000Y-5800000I25000J0D01*
G01*
X4263500Y-6538000D02*
X4263500Y-6598000D01*
X4233500Y-6568000D02*
X4293500Y-6568000D01*
X4223500Y-6598000D02*
X4303500Y-6598000D01*
X4303500Y-6538000D02*
G75*
G02*
X4303500Y-6598000I0J-30000D01*
G01*
X4303500Y-6538000D02*
X4223500Y-6538000D01*
X4223500Y-6538000D02*
G75*
G03*
X4223500Y-6598000I0J-30000D01*
G01*
X4263500Y-7402000D02*
X4263500Y-7462000D01*
X4233500Y-7432000D02*
X4293500Y-7432000D01*
X4223500Y-7462000D02*
X4303500Y-7462000D01*
X4303500Y-7402000D02*
G75*
G02*
X4303500Y-7462000I0J-30000D01*
G01*
X4303500Y-7402000D02*
X4223500Y-7402000D01*
X4223500Y-7402000D02*
G75*
G03*
X4223500Y-7462000I0J-30000D01*
G01*
X4680500Y-6538000D02*
X4680500Y-6598000D01*
X4650500Y-6568000D02*
X4710500Y-6568000D01*
X4625500Y-6598000D02*
X4735500Y-6598000D01*
X4735500Y-6538000D02*
G75*
G02*
X4735500Y-6598000I0J-30000D01*
G01*
X4735500Y-6538000D02*
X4625500Y-6538000D01*
X4625500Y-6538000D02*
G75*
G03*
X4625500Y-6598000I0J-30000D01*
G01*
X4680500Y-7402000D02*
X4680500Y-7462000D01*
X4650500Y-7432000D02*
X4710500Y-7432000D01*
X4625500Y-7462000D02*
X4735500Y-7462000D01*
X4735500Y-7402000D02*
G75*
G02*
X4735500Y-7462000I0J-30000D01*
G01*
X4735500Y-7402000D02*
X4625500Y-7402000D01*
X4625500Y-7402000D02*
G75*
G03*
X4625500Y-7462000I0J-30000D01*
G01*
X6815356Y-5835356D02*
X6815356Y-5764644D01*
X6744644Y-5764644D01*
X6744644Y-5835356D01*
X6815356Y-5835356D01*
X6815356Y-7359356D02*
X6815356Y-7288644D01*
X6744644Y-7288644D01*
X6744644Y-7359356D01*
X6815356Y-7359356D01*
X7069356Y-5835356D02*
X7069356Y-5764644D01*
X6998644Y-5764644D01*
X6998644Y-5835356D01*
X7069356Y-5835356D01*
X7069356Y-7359356D02*
X7069356Y-7288644D01*
X6998644Y-7288644D01*
X6998644Y-7359356D01*
X7069356Y-7359356D01*
X7323356Y-5835356D02*
X7323356Y-5764644D01*
X7252644Y-5764644D01*
X7252644Y-5835356D01*
X7323356Y-5835356D01*
X7323356Y-7359356D02*
X7323356Y-7288644D01*
X7252644Y-7288644D01*
X7252644Y-7359356D01*
X7323356Y-7359356D01*
X7577356Y-5835356D02*
X7577356Y-5764644D01*
X7506644Y-5764644D01*
X7506644Y-5835356D01*
X7577356Y-5835356D01*
X7577356Y-7359356D02*
X7577356Y-7288644D01*
X7506644Y-7288644D01*
X7506644Y-7359356D01*
X7577356Y-7359356D01*
X7831356Y-5835356D02*
X7831356Y-5764644D01*
X7760644Y-5764644D01*
X7760644Y-5835356D01*
X7831356Y-5835356D01*
X7831356Y-7359356D02*
X7831356Y-7288644D01*
X7760644Y-7288644D01*
X7760644Y-7359356D01*
X7831356Y-7359356D01*
X8085356Y-5835356D02*
X8085356Y-5764644D01*
X8014644Y-5764644D01*
X8014644Y-5835356D01*
X8085356Y-5835356D01*
X8085356Y-7359356D02*
X8085356Y-7288644D01*
X8014644Y-7288644D01*
X8014644Y-7359356D01*
X8085356Y-7359356D01*
X11935356Y-5835356D02*
X11935356Y-5764644D01*
X11864644Y-5764644D01*
X11864644Y-5835356D01*
X11935356Y-5835356D01*
X11935356Y-7359356D02*
X11935356Y-7288644D01*
X11864644Y-7288644D01*
X11864644Y-7359356D01*
X11935356Y-7359356D01*
X12189356Y-5835356D02*
X12189356Y-5764644D01*
X12118644Y-5764644D01*
X12118644Y-5835356D01*
X12189356Y-5835356D01*
X12189356Y-7359356D02*
X12189356Y-7288644D01*
X12118644Y-7288644D01*
X12118644Y-7359356D01*
X12189356Y-7359356D01*
X12443356Y-5835356D02*
X12443356Y-5764644D01*
X12372644Y-5764644D01*
X12372644Y-5835356D01*
X12443356Y-5835356D01*
X12443356Y-7359356D02*
X12443356Y-7288644D01*
X12372644Y-7288644D01*
X12372644Y-7359356D01*
X12443356Y-7359356D01*
X12697356Y-5835356D02*
X12697356Y-5764644D01*
X12626644Y-5764644D01*
X12626644Y-5835356D01*
X12697356Y-5835356D01*
X12697356Y-7359356D02*
X12697356Y-7288644D01*
X12626644Y-7288644D01*
X12626644Y-7359356D01*
X12697356Y-7359356D01*
X12951356Y-5835356D02*
X12951356Y-5764644D01*
X12880644Y-5764644D01*
X12880644Y-5835356D01*
X12951356Y-5835356D01*
X12951356Y-7359356D02*
X12951356Y-7288644D01*
X12880644Y-7288644D01*
X12880644Y-7359356D01*
X12951356Y-7359356D01*
X13205356Y-5835356D02*
X13205356Y-5764644D01*
X13134644Y-5764644D01*
X13134644Y-5835356D01*
X13205356Y-5835356D01*
X13205356Y-7359356D02*
X13205356Y-7288644D01*
X13134644Y-7288644D01*
X13134644Y-7359356D01*
X13205356Y-7359356D01*
X15285356Y-6535356D02*
X15285356Y-6464644D01*
X15214644Y-6464644D01*
X15214644Y-6535356D01*
X15285356Y-6535356D01*
X15285356Y-6785356D02*
X15285356Y-6714644D01*
X15214644Y-6714644D01*
X15214644Y-6785356D01*
X15285356Y-6785356D01*
X15285356Y-7035356D02*
X15285356Y-6964644D01*
X15214644Y-6964644D01*
X15214644Y-7035356D01*
X15285356Y-7035356D01*
X16735356Y-6535356D02*
X16735356Y-6464644D01*
X16664644Y-6464644D01*
X16664644Y-6535356D01*
X16735356Y-6535356D01*
X16735356Y-7035356D02*
X16735356Y-6964644D01*
X16664644Y-6964644D01*
X16664644Y-7035356D01*
X16735356Y-7035356D01*
D13*
X5050000Y-5030000D02*
X5105000Y-4975000D01*
X5050000Y-4920000D01*
X4995000Y-4975000D01*
X5050000Y-5030000D01*
X5050000Y-5480000D02*
X5105000Y-5425000D01*
X5050000Y-5370000D01*
X4995000Y-5425000D01*
X5050000Y-5480000D01*
X5700000Y-5030000D02*
X5755000Y-4975000D01*
X5700000Y-4920000D01*
X5645000Y-4975000D01*
X5700000Y-5030000D01*
X5700000Y-5480000D02*
X5755000Y-5425000D01*
X5700000Y-5370000D01*
X5645000Y-5425000D01*
X5700000Y-5480000D01*
X6000000Y-5030000D02*
X6055000Y-4975000D01*
X6000000Y-4920000D01*
X5945000Y-4975000D01*
X6000000Y-5030000D01*
X6000000Y-5480000D02*
X6055000Y-5425000D01*
X6000000Y-5370000D01*
X5945000Y-5425000D01*
X6000000Y-5480000D01*
X6650000Y-5030000D02*
X6705000Y-4975000D01*
X6650000Y-4920000D01*
X6595000Y-4975000D01*
X6650000Y-5030000D01*
X6650000Y-5480000D02*
X6705000Y-5425000D01*
X6650000Y-5370000D01*
X6595000Y-5425000D01*
X6650000Y-5480000D01*
X6950000Y-5030000D02*
X7005000Y-4975000D01*
X6950000Y-4920000D01*
X6895000Y-4975000D01*
X6950000Y-5030000D01*
X6950000Y-5480000D02*
X7005000Y-5425000D01*
X6950000Y-5370000D01*
X6895000Y-5425000D01*
X6950000Y-5480000D01*
X7600000Y-5030000D02*
X7655000Y-4975000D01*
X7600000Y-4920000D01*
X7545000Y-4975000D01*
X7600000Y-5030000D01*
X7600000Y-5480000D02*
X7655000Y-5425000D01*
X7600000Y-5370000D01*
X7545000Y-5425000D01*
X7600000Y-5480000D01*
D14*
X15890000Y-6080000D02*
X16110000Y-6300000D01*
X16110000Y-6080000D02*
X15890000Y-6300000D01*
X16110000Y-6190000D02*
G75*
G02*
X15890000Y-6190000I-110000J0D01*
G01*
X15890000Y-6190000D02*
G75*
G02*
X16110000Y-6190000I110000J0D01*
G01*
X15890000Y-7200000D02*
X16110000Y-7420000D01*
X16110000Y-7200000D02*
X15890000Y-7420000D01*
X16110000Y-7310000D02*
G75*
G02*
X15890000Y-7310000I-110000J0D01*
G01*
X15890000Y-7310000D02*
G75*
G02*
X16110000Y-7310000I110000J0D01*
G01*
D11*
X4183872Y-7863389D02*
X4183872Y-7663389D01*
X4183872Y-7663389D02*
X4231491Y-7663389D01*
X4231491Y-7663389D02*
X4260062Y-7672913D01*
X4260062Y-7672913D02*
X4279110Y-7691960D01*
X4279110Y-7691960D02*
X4288634Y-7711008D01*
X4288634Y-7711008D02*
X4298158Y-7749103D01*
X4298158Y-7749103D02*
X4298158Y-7777674D01*
X4298158Y-7777674D02*
X4288634Y-7815770D01*
X4288634Y-7815770D02*
X4279110Y-7834817D01*
X4279110Y-7834817D02*
X4260062Y-7853865D01*
X4260062Y-7853865D02*
X4231491Y-7863389D01*
X4231491Y-7863389D02*
X4183872Y-7863389D01*
X4383872Y-7863389D02*
X4383872Y-7730055D01*
X4383872Y-7768151D02*
X4393396Y-7749103D01*
X4393396Y-7749103D02*
X4402919Y-7739579D01*
X4402919Y-7739579D02*
X4421967Y-7730055D01*
X4421967Y-7730055D02*
X4441015Y-7730055D01*
X4507681Y-7863389D02*
X4507681Y-7730055D01*
X4507681Y-7663389D02*
X4498158Y-7672913D01*
X4498158Y-7672913D02*
X4507681Y-7682436D01*
X4507681Y-7682436D02*
X4517205Y-7672913D01*
X4517205Y-7672913D02*
X4507681Y-7663389D01*
X4507681Y-7663389D02*
X4507681Y-7682436D01*
X4631491Y-7863389D02*
X4612443Y-7853865D01*
X4612443Y-7853865D02*
X4602919Y-7834817D01*
X4602919Y-7834817D02*
X4602919Y-7663389D01*
X4736253Y-7863389D02*
X4717205Y-7853865D01*
X4717205Y-7853865D02*
X4707681Y-7834817D01*
X4707681Y-7834817D02*
X4707681Y-7663389D01*
X4964824Y-7863389D02*
X4964824Y-7663389D01*
X4964824Y-7663389D02*
X5031491Y-7806246D01*
X5031491Y-7806246D02*
X5098158Y-7663389D01*
X5098158Y-7663389D02*
X5098158Y-7863389D01*
X5279110Y-7863389D02*
X5279110Y-7758627D01*
X5279110Y-7758627D02*
X5269586Y-7739579D01*
X5269586Y-7739579D02*
X5250539Y-7730055D01*
X5250539Y-7730055D02*
X5212443Y-7730055D01*
X5212443Y-7730055D02*
X5193396Y-7739579D01*
X5279110Y-7853865D02*
X5260062Y-7863389D01*
X5260062Y-7863389D02*
X5212443Y-7863389D01*
X5212443Y-7863389D02*
X5193396Y-7853865D01*
X5193396Y-7853865D02*
X5183872Y-7834817D01*
X5183872Y-7834817D02*
X5183872Y-7815770D01*
X5183872Y-7815770D02*
X5193396Y-7796722D01*
X5193396Y-7796722D02*
X5212443Y-7787198D01*
X5212443Y-7787198D02*
X5260062Y-7787198D01*
X5260062Y-7787198D02*
X5279110Y-7777674D01*
X5374348Y-7730055D02*
X5374348Y-7930055D01*
X5374348Y-7739579D02*
X5393396Y-7730055D01*
X5393396Y-7730055D02*
X5431491Y-7730055D01*
X5431491Y-7730055D02*
X5450539Y-7739579D01*
X5450539Y-7739579D02*
X5460062Y-7749103D01*
X5460062Y-7749103D02*
X5469586Y-7768151D01*
X5469586Y-7768151D02*
X5469586Y-7825293D01*
X5469586Y-7825293D02*
X5460062Y-7844341D01*
X5460062Y-7844341D02*
X5450539Y-7853865D01*
X5450539Y-7853865D02*
X5431491Y-7863389D01*
X5431491Y-7863389D02*
X5393396Y-7863389D01*
X5393396Y-7863389D02*
X5374348Y-7853865D01*
X5555300Y-7844341D02*
X5564824Y-7853865D01*
X5564824Y-7853865D02*
X5555300Y-7863389D01*
X5555300Y-7863389D02*
X5545777Y-7853865D01*
X5545777Y-7853865D02*
X5555300Y-7844341D01*
X5555300Y-7844341D02*
X5555300Y-7863389D01*
X5555300Y-7739579D02*
X5564824Y-7749103D01*
X5564824Y-7749103D02*
X5555300Y-7758627D01*
X5555300Y-7758627D02*
X5545777Y-7749103D01*
X5545777Y-7749103D02*
X5555300Y-7739579D01*
X5555300Y-7739579D02*
X5555300Y-7758627D01*
D12*
X3893095Y-8176905D02*
X3923095Y-8206905D01*
X3923095Y-8176905D02*
X3893095Y-8206905D01*
D11*
X4221967Y-8083389D02*
X4241015Y-8083389D01*
X4241015Y-8083389D02*
X4260062Y-8092913D01*
X4260062Y-8092913D02*
X4269586Y-8102436D01*
X4269586Y-8102436D02*
X4279110Y-8121484D01*
X4279110Y-8121484D02*
X4288634Y-8159579D01*
X4288634Y-8159579D02*
X4288634Y-8207198D01*
X4288634Y-8207198D02*
X4279110Y-8245293D01*
X4279110Y-8245293D02*
X4269586Y-8264341D01*
X4269586Y-8264341D02*
X4260062Y-8273865D01*
X4260062Y-8273865D02*
X4241015Y-8283389D01*
X4241015Y-8283389D02*
X4221967Y-8283389D01*
X4221967Y-8283389D02*
X4202919Y-8273865D01*
X4202919Y-8273865D02*
X4193396Y-8264341D01*
X4193396Y-8264341D02*
X4183872Y-8245293D01*
X4183872Y-8245293D02*
X4174348Y-8207198D01*
X4174348Y-8207198D02*
X4174348Y-8159579D01*
X4174348Y-8159579D02*
X4183872Y-8121484D01*
X4183872Y-8121484D02*
X4193396Y-8102436D01*
X4193396Y-8102436D02*
X4202919Y-8092913D01*
X4202919Y-8092913D02*
X4221967Y-8083389D01*
X4374348Y-8264341D02*
X4383872Y-8273865D01*
X4383872Y-8273865D02*
X4374348Y-8283389D01*
X4374348Y-8283389D02*
X4364824Y-8273865D01*
X4364824Y-8273865D02*
X4374348Y-8264341D01*
X4374348Y-8264341D02*
X4374348Y-8283389D01*
X4450539Y-8083389D02*
X4574348Y-8083389D01*
X4574348Y-8083389D02*
X4507681Y-8159579D01*
X4507681Y-8159579D02*
X4536253Y-8159579D01*
X4536253Y-8159579D02*
X4555300Y-8169103D01*
X4555300Y-8169103D02*
X4564824Y-8178627D01*
X4564824Y-8178627D02*
X4574348Y-8197674D01*
X4574348Y-8197674D02*
X4574348Y-8245293D01*
X4574348Y-8245293D02*
X4564824Y-8264341D01*
X4564824Y-8264341D02*
X4555300Y-8273865D01*
X4555300Y-8273865D02*
X4536253Y-8283389D01*
X4536253Y-8283389D02*
X4479110Y-8283389D01*
X4479110Y-8283389D02*
X4460062Y-8273865D01*
X4460062Y-8273865D02*
X4450539Y-8264341D01*
X4698158Y-8083389D02*
X4717205Y-8083389D01*
X4717205Y-8083389D02*
X4736253Y-8092913D01*
X4736253Y-8092913D02*
X4745777Y-8102436D01*
X4745777Y-8102436D02*
X4755300Y-8121484D01*
X4755300Y-8121484D02*
X4764824Y-8159579D01*
X4764824Y-8159579D02*
X4764824Y-8207198D01*
X4764824Y-8207198D02*
X4755300Y-8245293D01*
X4755300Y-8245293D02*
X4745777Y-8264341D01*
X4745777Y-8264341D02*
X4736253Y-8273865D01*
X4736253Y-8273865D02*
X4717205Y-8283389D01*
X4717205Y-8283389D02*
X4698158Y-8283389D01*
X4698158Y-8283389D02*
X4679110Y-8273865D01*
X4679110Y-8273865D02*
X4669586Y-8264341D01*
X4669586Y-8264341D02*
X4660062Y-8245293D01*
X4660062Y-8245293D02*
X4650539Y-8207198D01*
X4650539Y-8207198D02*
X4650539Y-8159579D01*
X4650539Y-8159579D02*
X4660062Y-8121484D01*
X4660062Y-8121484D02*
X4669586Y-8102436D01*
X4669586Y-8102436D02*
X4679110Y-8092913D01*
X4679110Y-8092913D02*
X4698158Y-8083389D01*
X4888634Y-8083389D02*
X4907681Y-8083389D01*
X4907681Y-8083389D02*
X4926729Y-8092913D01*
X4926729Y-8092913D02*
X4936253Y-8102436D01*
X4936253Y-8102436D02*
X4945777Y-8121484D01*
X4945777Y-8121484D02*
X4955300Y-8159579D01*
X4955300Y-8159579D02*
X4955300Y-8207198D01*
X4955300Y-8207198D02*
X4945777Y-8245293D01*
X4945777Y-8245293D02*
X4936253Y-8264341D01*
X4936253Y-8264341D02*
X4926729Y-8273865D01*
X4926729Y-8273865D02*
X4907681Y-8283389D01*
X4907681Y-8283389D02*
X4888634Y-8283389D01*
X4888634Y-8283389D02*
X4869586Y-8273865D01*
X4869586Y-8273865D02*
X4860062Y-8264341D01*
X4860062Y-8264341D02*
X4850539Y-8245293D01*
X4850539Y-8245293D02*
X4841015Y-8207198D01*
X4841015Y-8207198D02*
X4841015Y-8159579D01*
X4841015Y-8159579D02*
X4850539Y-8121484D01*
X4850539Y-8121484D02*
X4860062Y-8102436D01*
X4860062Y-8102436D02*
X4869586Y-8092913D01*
X4869586Y-8092913D02*
X4888634Y-8083389D01*
X5041015Y-8283389D02*
X5041015Y-8150055D01*
X5041015Y-8169103D02*
X5050539Y-8159579D01*
X5050539Y-8159579D02*
X5069586Y-8150055D01*
X5069586Y-8150055D02*
X5098158Y-8150055D01*
X5098158Y-8150055D02*
X5117205Y-8159579D01*
X5117205Y-8159579D02*
X5126729Y-8178627D01*
X5126729Y-8178627D02*
X5126729Y-8283389D01*
X5126729Y-8178627D02*
X5136253Y-8159579D01*
X5136253Y-8159579D02*
X5155300Y-8150055D01*
X5155300Y-8150055D02*
X5183872Y-8150055D01*
X5183872Y-8150055D02*
X5202920Y-8159579D01*
X5202920Y-8159579D02*
X5212443Y-8178627D01*
X5212443Y-8178627D02*
X5212443Y-8283389D01*
X5307681Y-8283389D02*
X5307681Y-8150055D01*
X5307681Y-8169103D02*
X5317205Y-8159579D01*
X5317205Y-8159579D02*
X5336253Y-8150055D01*
X5336253Y-8150055D02*
X5364824Y-8150055D01*
X5364824Y-8150055D02*
X5383872Y-8159579D01*
X5383872Y-8159579D02*
X5393396Y-8178627D01*
X5393396Y-8178627D02*
X5393396Y-8283389D01*
X5393396Y-8178627D02*
X5402920Y-8159579D01*
X5402920Y-8159579D02*
X5421967Y-8150055D01*
X5421967Y-8150055D02*
X5450539Y-8150055D01*
X5450539Y-8150055D02*
X5469586Y-8159579D01*
X5469586Y-8159579D02*
X5479110Y-8178627D01*
X5479110Y-8178627D02*
X5479110Y-8283389D01*
X5869586Y-8073865D02*
X5698158Y-8331008D01*
X6126729Y-8083389D02*
X6145777Y-8083389D01*
X6145777Y-8083389D02*
X6164824Y-8092913D01*
X6164824Y-8092913D02*
X6174348Y-8102436D01*
X6174348Y-8102436D02*
X6183872Y-8121484D01*
X6183872Y-8121484D02*
X6193396Y-8159579D01*
X6193396Y-8159579D02*
X6193396Y-8207198D01*
X6193396Y-8207198D02*
X6183872Y-8245293D01*
X6183872Y-8245293D02*
X6174348Y-8264341D01*
X6174348Y-8264341D02*
X6164824Y-8273865D01*
X6164824Y-8273865D02*
X6145777Y-8283389D01*
X6145777Y-8283389D02*
X6126729Y-8283389D01*
X6126729Y-8283389D02*
X6107681Y-8273865D01*
X6107681Y-8273865D02*
X6098158Y-8264341D01*
X6098158Y-8264341D02*
X6088634Y-8245293D01*
X6088634Y-8245293D02*
X6079110Y-8207198D01*
X6079110Y-8207198D02*
X6079110Y-8159579D01*
X6079110Y-8159579D02*
X6088634Y-8121484D01*
X6088634Y-8121484D02*
X6098158Y-8102436D01*
X6098158Y-8102436D02*
X6107681Y-8092913D01*
X6107681Y-8092913D02*
X6126729Y-8083389D01*
X6279110Y-8264341D02*
X6288634Y-8273865D01*
X6288634Y-8273865D02*
X6279110Y-8283389D01*
X6279110Y-8283389D02*
X6269586Y-8273865D01*
X6269586Y-8273865D02*
X6279110Y-8264341D01*
X6279110Y-8264341D02*
X6279110Y-8283389D01*
X6412443Y-8083389D02*
X6431491Y-8083389D01*
X6431491Y-8083389D02*
X6450539Y-8092913D01*
X6450539Y-8092913D02*
X6460062Y-8102436D01*
X6460062Y-8102436D02*
X6469586Y-8121484D01*
X6469586Y-8121484D02*
X6479110Y-8159579D01*
X6479110Y-8159579D02*
X6479110Y-8207198D01*
X6479110Y-8207198D02*
X6469586Y-8245293D01*
X6469586Y-8245293D02*
X6460062Y-8264341D01*
X6460062Y-8264341D02*
X6450539Y-8273865D01*
X6450539Y-8273865D02*
X6431491Y-8283389D01*
X6431491Y-8283389D02*
X6412443Y-8283389D01*
X6412443Y-8283389D02*
X6393396Y-8273865D01*
X6393396Y-8273865D02*
X6383872Y-8264341D01*
X6383872Y-8264341D02*
X6374348Y-8245293D01*
X6374348Y-8245293D02*
X6364824Y-8207198D01*
X6364824Y-8207198D02*
X6364824Y-8159579D01*
X6364824Y-8159579D02*
X6374348Y-8121484D01*
X6374348Y-8121484D02*
X6383872Y-8102436D01*
X6383872Y-8102436D02*
X6393396Y-8092913D01*
X6393396Y-8092913D02*
X6412443Y-8083389D01*
X6669586Y-8283389D02*
X6555301Y-8283389D01*
X6612443Y-8283389D02*
X6612443Y-8083389D01*
X6612443Y-8083389D02*
X6593396Y-8111960D01*
X6593396Y-8111960D02*
X6574348Y-8131008D01*
X6574348Y-8131008D02*
X6555301Y-8140532D01*
X6860062Y-8283389D02*
X6745777Y-8283389D01*
X6802920Y-8283389D02*
X6802920Y-8083389D01*
X6802920Y-8083389D02*
X6783872Y-8111960D01*
X6783872Y-8111960D02*
X6764824Y-8131008D01*
X6764824Y-8131008D02*
X6745777Y-8140532D01*
X6974348Y-8169103D02*
X6955301Y-8159579D01*
X6955301Y-8159579D02*
X6945777Y-8150055D01*
X6945777Y-8150055D02*
X6936253Y-8131008D01*
X6936253Y-8131008D02*
X6936253Y-8121484D01*
X6936253Y-8121484D02*
X6945777Y-8102436D01*
X6945777Y-8102436D02*
X6955301Y-8092913D01*
X6955301Y-8092913D02*
X6974348Y-8083389D01*
X6974348Y-8083389D02*
X7012443Y-8083389D01*
X7012443Y-8083389D02*
X7031491Y-8092913D01*
X7031491Y-8092913D02*
X7041015Y-8102436D01*
X7041015Y-8102436D02*
X7050539Y-8121484D01*
X7050539Y-8121484D02*
X7050539Y-8131008D01*
X7050539Y-8131008D02*
X7041015Y-8150055D01*
X7041015Y-8150055D02*
X7031491Y-8159579D01*
X7031491Y-8159579D02*
X7012443Y-8169103D01*
X7012443Y-8169103D02*
X6974348Y-8169103D01*
X6974348Y-8169103D02*
X6955301Y-8178627D01*
X6955301Y-8178627D02*
X6945777Y-8188151D01*
X6945777Y-8188151D02*
X6936253Y-8207198D01*
X6936253Y-8207198D02*
X6936253Y-8245293D01*
X6936253Y-8245293D02*
X6945777Y-8264341D01*
X6945777Y-8264341D02*
X6955301Y-8273865D01*
X6955301Y-8273865D02*
X6974348Y-8283389D01*
X6974348Y-8283389D02*
X7012443Y-8283389D01*
X7012443Y-8283389D02*
X7031491Y-8273865D01*
X7031491Y-8273865D02*
X7041015Y-8264341D01*
X7041015Y-8264341D02*
X7050539Y-8245293D01*
X7050539Y-8245293D02*
X7050539Y-8207198D01*
X7050539Y-8207198D02*
X7041015Y-8188151D01*
X7041015Y-8188151D02*
X7031491Y-8178627D01*
X7031491Y-8178627D02*
X7012443Y-8169103D01*
X7126729Y-8083389D02*
X7126729Y-8121484D01*
X7202920Y-8083389D02*
X7202920Y-8121484D01*
X7498158Y-8359579D02*
X7488634Y-8350055D01*
X7488634Y-8350055D02*
X7469586Y-8321484D01*
X7469586Y-8321484D02*
X7460063Y-8302436D01*
X7460063Y-8302436D02*
X7450539Y-8273865D01*
X7450539Y-8273865D02*
X7441015Y-8226246D01*
X7441015Y-8226246D02*
X7441015Y-8188151D01*
X7441015Y-8188151D02*
X7450539Y-8140532D01*
X7450539Y-8140532D02*
X7460063Y-8111960D01*
X7460063Y-8111960D02*
X7469586Y-8092913D01*
X7469586Y-8092913D02*
X7488634Y-8064341D01*
X7488634Y-8064341D02*
X7498158Y-8054817D01*
X7555301Y-8083389D02*
X7679110Y-8083389D01*
X7679110Y-8083389D02*
X7612443Y-8159579D01*
X7612443Y-8159579D02*
X7641015Y-8159579D01*
X7641015Y-8159579D02*
X7660063Y-8169103D01*
X7660063Y-8169103D02*
X7669586Y-8178627D01*
X7669586Y-8178627D02*
X7679110Y-8197674D01*
X7679110Y-8197674D02*
X7679110Y-8245293D01*
X7679110Y-8245293D02*
X7669586Y-8264341D01*
X7669586Y-8264341D02*
X7660063Y-8273865D01*
X7660063Y-8273865D02*
X7641015Y-8283389D01*
X7641015Y-8283389D02*
X7583872Y-8283389D01*
X7583872Y-8283389D02*
X7564824Y-8273865D01*
X7564824Y-8273865D02*
X7555301Y-8264341D01*
X7755301Y-8102436D02*
X7764824Y-8092913D01*
X7764824Y-8092913D02*
X7783872Y-8083389D01*
X7783872Y-8083389D02*
X7831491Y-8083389D01*
X7831491Y-8083389D02*
X7850539Y-8092913D01*
X7850539Y-8092913D02*
X7860063Y-8102436D01*
X7860063Y-8102436D02*
X7869586Y-8121484D01*
X7869586Y-8121484D02*
X7869586Y-8140532D01*
X7869586Y-8140532D02*
X7860063Y-8169103D01*
X7860063Y-8169103D02*
X7745777Y-8283389D01*
X7745777Y-8283389D02*
X7869586Y-8283389D01*
X8107682Y-8283389D02*
X8107682Y-8083389D01*
X8193396Y-8283389D02*
X8193396Y-8178627D01*
X8193396Y-8178627D02*
X8183872Y-8159579D01*
X8183872Y-8159579D02*
X8164825Y-8150055D01*
X8164825Y-8150055D02*
X8136253Y-8150055D01*
X8136253Y-8150055D02*
X8117205Y-8159579D01*
X8117205Y-8159579D02*
X8107682Y-8169103D01*
X8317205Y-8283389D02*
X8298158Y-8273865D01*
X8298158Y-8273865D02*
X8288634Y-8264341D01*
X8288634Y-8264341D02*
X8279110Y-8245293D01*
X8279110Y-8245293D02*
X8279110Y-8188151D01*
X8279110Y-8188151D02*
X8288634Y-8169103D01*
X8288634Y-8169103D02*
X8298158Y-8159579D01*
X8298158Y-8159579D02*
X8317205Y-8150055D01*
X8317205Y-8150055D02*
X8345777Y-8150055D01*
X8345777Y-8150055D02*
X8364825Y-8159579D01*
X8364825Y-8159579D02*
X8374348Y-8169103D01*
X8374348Y-8169103D02*
X8383872Y-8188151D01*
X8383872Y-8188151D02*
X8383872Y-8245293D01*
X8383872Y-8245293D02*
X8374348Y-8264341D01*
X8374348Y-8264341D02*
X8364825Y-8273865D01*
X8364825Y-8273865D02*
X8345777Y-8283389D01*
X8345777Y-8283389D02*
X8317205Y-8283389D01*
X8498158Y-8283389D02*
X8479110Y-8273865D01*
X8479110Y-8273865D02*
X8469587Y-8254817D01*
X8469587Y-8254817D02*
X8469587Y-8083389D01*
X8650539Y-8273865D02*
X8631491Y-8283389D01*
X8631491Y-8283389D02*
X8593396Y-8283389D01*
X8593396Y-8283389D02*
X8574348Y-8273865D01*
X8574348Y-8273865D02*
X8564825Y-8254817D01*
X8564825Y-8254817D02*
X8564825Y-8178627D01*
X8564825Y-8178627D02*
X8574348Y-8159579D01*
X8574348Y-8159579D02*
X8593396Y-8150055D01*
X8593396Y-8150055D02*
X8631491Y-8150055D01*
X8631491Y-8150055D02*
X8650539Y-8159579D01*
X8650539Y-8159579D02*
X8660063Y-8178627D01*
X8660063Y-8178627D02*
X8660063Y-8197674D01*
X8660063Y-8197674D02*
X8564825Y-8216722D01*
X8736253Y-8273865D02*
X8755301Y-8283389D01*
X8755301Y-8283389D02*
X8793396Y-8283389D01*
X8793396Y-8283389D02*
X8812444Y-8273865D01*
X8812444Y-8273865D02*
X8821968Y-8254817D01*
X8821968Y-8254817D02*
X8821968Y-8245293D01*
X8821968Y-8245293D02*
X8812444Y-8226246D01*
X8812444Y-8226246D02*
X8793396Y-8216722D01*
X8793396Y-8216722D02*
X8764825Y-8216722D01*
X8764825Y-8216722D02*
X8745777Y-8207198D01*
X8745777Y-8207198D02*
X8736253Y-8188151D01*
X8736253Y-8188151D02*
X8736253Y-8178627D01*
X8736253Y-8178627D02*
X8745777Y-8159579D01*
X8745777Y-8159579D02*
X8764825Y-8150055D01*
X8764825Y-8150055D02*
X8793396Y-8150055D01*
X8793396Y-8150055D02*
X8812444Y-8159579D01*
X8888634Y-8359579D02*
X8898158Y-8350055D01*
X8898158Y-8350055D02*
X8917206Y-8321484D01*
X8917206Y-8321484D02*
X8926729Y-8302436D01*
X8926729Y-8302436D02*
X8936253Y-8273865D01*
X8936253Y-8273865D02*
X8945777Y-8226246D01*
X8945777Y-8226246D02*
X8945777Y-8188151D01*
X8945777Y-8188151D02*
X8936253Y-8140532D01*
X8936253Y-8140532D02*
X8926729Y-8111960D01*
X8926729Y-8111960D02*
X8917206Y-8092913D01*
X8917206Y-8092913D02*
X8898158Y-8064341D01*
X8898158Y-8064341D02*
X8888634Y-8054817D01*
D12*
X3923095Y-8455905D02*
G75*
G02*
X3873095Y-8455905I-25000J0D01*
G01*
X3873095Y-8455905D02*
G75*
G02*
X3923095Y-8455905I25000J0D01*
G01*
D11*
X4221967Y-8347389D02*
X4241015Y-8347389D01*
X4241015Y-8347389D02*
X4260062Y-8356913D01*
X4260062Y-8356913D02*
X4269586Y-8366436D01*
X4269586Y-8366436D02*
X4279110Y-8385484D01*
X4279110Y-8385484D02*
X4288634Y-8423579D01*
X4288634Y-8423579D02*
X4288634Y-8471198D01*
X4288634Y-8471198D02*
X4279110Y-8509294D01*
X4279110Y-8509294D02*
X4269586Y-8528341D01*
X4269586Y-8528341D02*
X4260062Y-8537865D01*
X4260062Y-8537865D02*
X4241015Y-8547389D01*
X4241015Y-8547389D02*
X4221967Y-8547389D01*
X4221967Y-8547389D02*
X4202919Y-8537865D01*
X4202919Y-8537865D02*
X4193396Y-8528341D01*
X4193396Y-8528341D02*
X4183872Y-8509294D01*
X4183872Y-8509294D02*
X4174348Y-8471198D01*
X4174348Y-8471198D02*
X4174348Y-8423579D01*
X4174348Y-8423579D02*
X4183872Y-8385484D01*
X4183872Y-8385484D02*
X4193396Y-8366436D01*
X4193396Y-8366436D02*
X4202919Y-8356913D01*
X4202919Y-8356913D02*
X4221967Y-8347389D01*
X4374348Y-8528341D02*
X4383872Y-8537865D01*
X4383872Y-8537865D02*
X4374348Y-8547389D01*
X4374348Y-8547389D02*
X4364824Y-8537865D01*
X4364824Y-8537865D02*
X4374348Y-8528341D01*
X4374348Y-8528341D02*
X4374348Y-8547389D01*
X4564824Y-8347389D02*
X4469586Y-8347389D01*
X4469586Y-8347389D02*
X4460062Y-8442627D01*
X4460062Y-8442627D02*
X4469586Y-8433103D01*
X4469586Y-8433103D02*
X4488634Y-8423579D01*
X4488634Y-8423579D02*
X4536253Y-8423579D01*
X4536253Y-8423579D02*
X4555300Y-8433103D01*
X4555300Y-8433103D02*
X4564824Y-8442627D01*
X4564824Y-8442627D02*
X4574348Y-8461675D01*
X4574348Y-8461675D02*
X4574348Y-8509294D01*
X4574348Y-8509294D02*
X4564824Y-8528341D01*
X4564824Y-8528341D02*
X4555300Y-8537865D01*
X4555300Y-8537865D02*
X4536253Y-8547389D01*
X4536253Y-8547389D02*
X4488634Y-8547389D01*
X4488634Y-8547389D02*
X4469586Y-8537865D01*
X4469586Y-8537865D02*
X4460062Y-8528341D01*
X4698158Y-8347389D02*
X4717205Y-8347389D01*
X4717205Y-8347389D02*
X4736253Y-8356913D01*
X4736253Y-8356913D02*
X4745777Y-8366436D01*
X4745777Y-8366436D02*
X4755300Y-8385484D01*
X4755300Y-8385484D02*
X4764824Y-8423579D01*
X4764824Y-8423579D02*
X4764824Y-8471198D01*
X4764824Y-8471198D02*
X4755300Y-8509294D01*
X4755300Y-8509294D02*
X4745777Y-8528341D01*
X4745777Y-8528341D02*
X4736253Y-8537865D01*
X4736253Y-8537865D02*
X4717205Y-8547389D01*
X4717205Y-8547389D02*
X4698158Y-8547389D01*
X4698158Y-8547389D02*
X4679110Y-8537865D01*
X4679110Y-8537865D02*
X4669586Y-8528341D01*
X4669586Y-8528341D02*
X4660062Y-8509294D01*
X4660062Y-8509294D02*
X4650539Y-8471198D01*
X4650539Y-8471198D02*
X4650539Y-8423579D01*
X4650539Y-8423579D02*
X4660062Y-8385484D01*
X4660062Y-8385484D02*
X4669586Y-8366436D01*
X4669586Y-8366436D02*
X4679110Y-8356913D01*
X4679110Y-8356913D02*
X4698158Y-8347389D01*
X4888634Y-8347389D02*
X4907681Y-8347389D01*
X4907681Y-8347389D02*
X4926729Y-8356913D01*
X4926729Y-8356913D02*
X4936253Y-8366436D01*
X4936253Y-8366436D02*
X4945777Y-8385484D01*
X4945777Y-8385484D02*
X4955300Y-8423579D01*
X4955300Y-8423579D02*
X4955300Y-8471198D01*
X4955300Y-8471198D02*
X4945777Y-8509294D01*
X4945777Y-8509294D02*
X4936253Y-8528341D01*
X4936253Y-8528341D02*
X4926729Y-8537865D01*
X4926729Y-8537865D02*
X4907681Y-8547389D01*
X4907681Y-8547389D02*
X4888634Y-8547389D01*
X4888634Y-8547389D02*
X4869586Y-8537865D01*
X4869586Y-8537865D02*
X4860062Y-8528341D01*
X4860062Y-8528341D02*
X4850539Y-8509294D01*
X4850539Y-8509294D02*
X4841015Y-8471198D01*
X4841015Y-8471198D02*
X4841015Y-8423579D01*
X4841015Y-8423579D02*
X4850539Y-8385484D01*
X4850539Y-8385484D02*
X4860062Y-8366436D01*
X4860062Y-8366436D02*
X4869586Y-8356913D01*
X4869586Y-8356913D02*
X4888634Y-8347389D01*
X5041015Y-8547389D02*
X5041015Y-8414055D01*
X5041015Y-8433103D02*
X5050539Y-8423579D01*
X5050539Y-8423579D02*
X5069586Y-8414055D01*
X5069586Y-8414055D02*
X5098158Y-8414055D01*
X5098158Y-8414055D02*
X5117205Y-8423579D01*
X5117205Y-8423579D02*
X5126729Y-8442627D01*
X5126729Y-8442627D02*
X5126729Y-8547389D01*
X5126729Y-8442627D02*
X5136253Y-8423579D01*
X5136253Y-8423579D02*
X5155300Y-8414055D01*
X5155300Y-8414055D02*
X5183872Y-8414055D01*
X5183872Y-8414055D02*
X5202920Y-8423579D01*
X5202920Y-8423579D02*
X5212443Y-8442627D01*
X5212443Y-8442627D02*
X5212443Y-8547389D01*
X5307681Y-8547389D02*
X5307681Y-8414055D01*
X5307681Y-8433103D02*
X5317205Y-8423579D01*
X5317205Y-8423579D02*
X5336253Y-8414055D01*
X5336253Y-8414055D02*
X5364824Y-8414055D01*
X5364824Y-8414055D02*
X5383872Y-8423579D01*
X5383872Y-8423579D02*
X5393396Y-8442627D01*
X5393396Y-8442627D02*
X5393396Y-8547389D01*
X5393396Y-8442627D02*
X5402920Y-8423579D01*
X5402920Y-8423579D02*
X5421967Y-8414055D01*
X5421967Y-8414055D02*
X5450539Y-8414055D01*
X5450539Y-8414055D02*
X5469586Y-8423579D01*
X5469586Y-8423579D02*
X5479110Y-8442627D01*
X5479110Y-8442627D02*
X5479110Y-8547389D01*
X5869586Y-8337865D02*
X5698158Y-8595008D01*
X6126729Y-8347389D02*
X6145777Y-8347389D01*
X6145777Y-8347389D02*
X6164824Y-8356913D01*
X6164824Y-8356913D02*
X6174348Y-8366436D01*
X6174348Y-8366436D02*
X6183872Y-8385484D01*
X6183872Y-8385484D02*
X6193396Y-8423579D01*
X6193396Y-8423579D02*
X6193396Y-8471198D01*
X6193396Y-8471198D02*
X6183872Y-8509294D01*
X6183872Y-8509294D02*
X6174348Y-8528341D01*
X6174348Y-8528341D02*
X6164824Y-8537865D01*
X6164824Y-8537865D02*
X6145777Y-8547389D01*
X6145777Y-8547389D02*
X6126729Y-8547389D01*
X6126729Y-8547389D02*
X6107681Y-8537865D01*
X6107681Y-8537865D02*
X6098158Y-8528341D01*
X6098158Y-8528341D02*
X6088634Y-8509294D01*
X6088634Y-8509294D02*
X6079110Y-8471198D01*
X6079110Y-8471198D02*
X6079110Y-8423579D01*
X6079110Y-8423579D02*
X6088634Y-8385484D01*
X6088634Y-8385484D02*
X6098158Y-8366436D01*
X6098158Y-8366436D02*
X6107681Y-8356913D01*
X6107681Y-8356913D02*
X6126729Y-8347389D01*
X6279110Y-8528341D02*
X6288634Y-8537865D01*
X6288634Y-8537865D02*
X6279110Y-8547389D01*
X6279110Y-8547389D02*
X6269586Y-8537865D01*
X6269586Y-8537865D02*
X6279110Y-8528341D01*
X6279110Y-8528341D02*
X6279110Y-8547389D01*
X6412443Y-8347389D02*
X6431491Y-8347389D01*
X6431491Y-8347389D02*
X6450539Y-8356913D01*
X6450539Y-8356913D02*
X6460062Y-8366436D01*
X6460062Y-8366436D02*
X6469586Y-8385484D01*
X6469586Y-8385484D02*
X6479110Y-8423579D01*
X6479110Y-8423579D02*
X6479110Y-8471198D01*
X6479110Y-8471198D02*
X6469586Y-8509294D01*
X6469586Y-8509294D02*
X6460062Y-8528341D01*
X6460062Y-8528341D02*
X6450539Y-8537865D01*
X6450539Y-8537865D02*
X6431491Y-8547389D01*
X6431491Y-8547389D02*
X6412443Y-8547389D01*
X6412443Y-8547389D02*
X6393396Y-8537865D01*
X6393396Y-8537865D02*
X6383872Y-8528341D01*
X6383872Y-8528341D02*
X6374348Y-8509294D01*
X6374348Y-8509294D02*
X6364824Y-8471198D01*
X6364824Y-8471198D02*
X6364824Y-8423579D01*
X6364824Y-8423579D02*
X6374348Y-8385484D01*
X6374348Y-8385484D02*
X6383872Y-8366436D01*
X6383872Y-8366436D02*
X6393396Y-8356913D01*
X6393396Y-8356913D02*
X6412443Y-8347389D01*
X6669586Y-8547389D02*
X6555301Y-8547389D01*
X6612443Y-8547389D02*
X6612443Y-8347389D01*
X6612443Y-8347389D02*
X6593396Y-8375960D01*
X6593396Y-8375960D02*
X6574348Y-8395008D01*
X6574348Y-8395008D02*
X6555301Y-8404532D01*
X6764824Y-8547389D02*
X6802920Y-8547389D01*
X6802920Y-8547389D02*
X6821967Y-8537865D01*
X6821967Y-8537865D02*
X6831491Y-8528341D01*
X6831491Y-8528341D02*
X6850539Y-8499770D01*
X6850539Y-8499770D02*
X6860062Y-8461675D01*
X6860062Y-8461675D02*
X6860062Y-8385484D01*
X6860062Y-8385484D02*
X6850539Y-8366436D01*
X6850539Y-8366436D02*
X6841015Y-8356913D01*
X6841015Y-8356913D02*
X6821967Y-8347389D01*
X6821967Y-8347389D02*
X6783872Y-8347389D01*
X6783872Y-8347389D02*
X6764824Y-8356913D01*
X6764824Y-8356913D02*
X6755301Y-8366436D01*
X6755301Y-8366436D02*
X6745777Y-8385484D01*
X6745777Y-8385484D02*
X6745777Y-8433103D01*
X6745777Y-8433103D02*
X6755301Y-8452151D01*
X6755301Y-8452151D02*
X6764824Y-8461675D01*
X6764824Y-8461675D02*
X6783872Y-8471198D01*
X6783872Y-8471198D02*
X6821967Y-8471198D01*
X6821967Y-8471198D02*
X6841015Y-8461675D01*
X6841015Y-8461675D02*
X6850539Y-8452151D01*
X6850539Y-8452151D02*
X6860062Y-8433103D01*
X6926729Y-8347389D02*
X7060062Y-8347389D01*
X7060062Y-8347389D02*
X6974348Y-8547389D01*
X7126729Y-8347389D02*
X7126729Y-8385484D01*
X7202920Y-8347389D02*
X7202920Y-8385484D01*
X7498158Y-8623579D02*
X7488634Y-8614055D01*
X7488634Y-8614055D02*
X7469586Y-8585484D01*
X7469586Y-8585484D02*
X7460063Y-8566436D01*
X7460063Y-8566436D02*
X7450539Y-8537865D01*
X7450539Y-8537865D02*
X7441015Y-8490246D01*
X7441015Y-8490246D02*
X7441015Y-8452151D01*
X7441015Y-8452151D02*
X7450539Y-8404532D01*
X7450539Y-8404532D02*
X7460063Y-8375960D01*
X7460063Y-8375960D02*
X7469586Y-8356913D01*
X7469586Y-8356913D02*
X7488634Y-8328341D01*
X7488634Y-8328341D02*
X7498158Y-8318817D01*
X7564824Y-8366436D02*
X7574348Y-8356913D01*
X7574348Y-8356913D02*
X7593396Y-8347389D01*
X7593396Y-8347389D02*
X7641015Y-8347389D01*
X7641015Y-8347389D02*
X7660063Y-8356913D01*
X7660063Y-8356913D02*
X7669586Y-8366436D01*
X7669586Y-8366436D02*
X7679110Y-8385484D01*
X7679110Y-8385484D02*
X7679110Y-8404532D01*
X7679110Y-8404532D02*
X7669586Y-8433103D01*
X7669586Y-8433103D02*
X7555301Y-8547389D01*
X7555301Y-8547389D02*
X7679110Y-8547389D01*
X7917205Y-8547389D02*
X7917205Y-8347389D01*
X8002920Y-8547389D02*
X8002920Y-8442627D01*
X8002920Y-8442627D02*
X7993396Y-8423579D01*
X7993396Y-8423579D02*
X7974348Y-8414055D01*
X7974348Y-8414055D02*
X7945777Y-8414055D01*
X7945777Y-8414055D02*
X7926729Y-8423579D01*
X7926729Y-8423579D02*
X7917205Y-8433103D01*
X8126729Y-8547389D02*
X8107682Y-8537865D01*
X8107682Y-8537865D02*
X8098158Y-8528341D01*
X8098158Y-8528341D02*
X8088634Y-8509294D01*
X8088634Y-8509294D02*
X8088634Y-8452151D01*
X8088634Y-8452151D02*
X8098158Y-8433103D01*
X8098158Y-8433103D02*
X8107682Y-8423579D01*
X8107682Y-8423579D02*
X8126729Y-8414055D01*
X8126729Y-8414055D02*
X8155301Y-8414055D01*
X8155301Y-8414055D02*
X8174348Y-8423579D01*
X8174348Y-8423579D02*
X8183872Y-8433103D01*
X8183872Y-8433103D02*
X8193396Y-8452151D01*
X8193396Y-8452151D02*
X8193396Y-8509294D01*
X8193396Y-8509294D02*
X8183872Y-8528341D01*
X8183872Y-8528341D02*
X8174348Y-8537865D01*
X8174348Y-8537865D02*
X8155301Y-8547389D01*
X8155301Y-8547389D02*
X8126729Y-8547389D01*
X8307682Y-8547389D02*
X8288634Y-8537865D01*
X8288634Y-8537865D02*
X8279110Y-8518817D01*
X8279110Y-8518817D02*
X8279110Y-8347389D01*
X8460063Y-8537865D02*
X8441015Y-8547389D01*
X8441015Y-8547389D02*
X8402920Y-8547389D01*
X8402920Y-8547389D02*
X8383872Y-8537865D01*
X8383872Y-8537865D02*
X8374348Y-8518817D01*
X8374348Y-8518817D02*
X8374348Y-8442627D01*
X8374348Y-8442627D02*
X8383872Y-8423579D01*
X8383872Y-8423579D02*
X8402920Y-8414055D01*
X8402920Y-8414055D02*
X8441015Y-8414055D01*
X8441015Y-8414055D02*
X8460063Y-8423579D01*
X8460063Y-8423579D02*
X8469587Y-8442627D01*
X8469587Y-8442627D02*
X8469587Y-8461675D01*
X8469587Y-8461675D02*
X8374348Y-8480722D01*
X8545777Y-8537865D02*
X8564825Y-8547389D01*
X8564825Y-8547389D02*
X8602920Y-8547389D01*
X8602920Y-8547389D02*
X8621968Y-8537865D01*
X8621968Y-8537865D02*
X8631491Y-8518817D01*
X8631491Y-8518817D02*
X8631491Y-8509294D01*
X8631491Y-8509294D02*
X8621968Y-8490246D01*
X8621968Y-8490246D02*
X8602920Y-8480722D01*
X8602920Y-8480722D02*
X8574348Y-8480722D01*
X8574348Y-8480722D02*
X8555301Y-8471198D01*
X8555301Y-8471198D02*
X8545777Y-8452151D01*
X8545777Y-8452151D02*
X8545777Y-8442627D01*
X8545777Y-8442627D02*
X8555301Y-8423579D01*
X8555301Y-8423579D02*
X8574348Y-8414055D01*
X8574348Y-8414055D02*
X8602920Y-8414055D01*
X8602920Y-8414055D02*
X8621968Y-8423579D01*
X8698158Y-8623579D02*
X8707682Y-8614055D01*
X8707682Y-8614055D02*
X8726729Y-8585484D01*
X8726729Y-8585484D02*
X8736253Y-8566436D01*
X8736253Y-8566436D02*
X8745777Y-8537865D01*
X8745777Y-8537865D02*
X8755301Y-8490246D01*
X8755301Y-8490246D02*
X8755301Y-8452151D01*
X8755301Y-8452151D02*
X8745777Y-8404532D01*
X8745777Y-8404532D02*
X8736253Y-8375960D01*
X8736253Y-8375960D02*
X8726729Y-8356913D01*
X8726729Y-8356913D02*
X8707682Y-8328341D01*
X8707682Y-8328341D02*
X8698158Y-8318817D01*
D12*
X3893095Y-8689905D02*
X3893095Y-8749905D01*
X3863095Y-8719905D02*
X3923095Y-8719905D01*
D11*
X4221967Y-8611389D02*
X4241015Y-8611389D01*
X4241015Y-8611389D02*
X4260062Y-8620913D01*
X4260062Y-8620913D02*
X4269586Y-8630436D01*
X4269586Y-8630436D02*
X4279110Y-8649484D01*
X4279110Y-8649484D02*
X4288634Y-8687579D01*
X4288634Y-8687579D02*
X4288634Y-8735198D01*
X4288634Y-8735198D02*
X4279110Y-8773294D01*
X4279110Y-8773294D02*
X4269586Y-8792341D01*
X4269586Y-8792341D02*
X4260062Y-8801865D01*
X4260062Y-8801865D02*
X4241015Y-8811389D01*
X4241015Y-8811389D02*
X4221967Y-8811389D01*
X4221967Y-8811389D02*
X4202919Y-8801865D01*
X4202919Y-8801865D02*
X4193396Y-8792341D01*
X4193396Y-8792341D02*
X4183872Y-8773294D01*
X4183872Y-8773294D02*
X4174348Y-8735198D01*
X4174348Y-8735198D02*
X4174348Y-8687579D01*
X4174348Y-8687579D02*
X4183872Y-8649484D01*
X4183872Y-8649484D02*
X4193396Y-8630436D01*
X4193396Y-8630436D02*
X4202919Y-8620913D01*
X4202919Y-8620913D02*
X4221967Y-8611389D01*
X4374348Y-8792341D02*
X4383872Y-8801865D01*
X4383872Y-8801865D02*
X4374348Y-8811389D01*
X4374348Y-8811389D02*
X4364824Y-8801865D01*
X4364824Y-8801865D02*
X4374348Y-8792341D01*
X4374348Y-8792341D02*
X4374348Y-8811389D01*
X4555300Y-8611389D02*
X4517205Y-8611389D01*
X4517205Y-8611389D02*
X4498158Y-8620913D01*
X4498158Y-8620913D02*
X4488634Y-8630436D01*
X4488634Y-8630436D02*
X4469586Y-8659008D01*
X4469586Y-8659008D02*
X4460062Y-8697103D01*
X4460062Y-8697103D02*
X4460062Y-8773294D01*
X4460062Y-8773294D02*
X4469586Y-8792341D01*
X4469586Y-8792341D02*
X4479110Y-8801865D01*
X4479110Y-8801865D02*
X4498158Y-8811389D01*
X4498158Y-8811389D02*
X4536253Y-8811389D01*
X4536253Y-8811389D02*
X4555300Y-8801865D01*
X4555300Y-8801865D02*
X4564824Y-8792341D01*
X4564824Y-8792341D02*
X4574348Y-8773294D01*
X4574348Y-8773294D02*
X4574348Y-8725675D01*
X4574348Y-8725675D02*
X4564824Y-8706627D01*
X4564824Y-8706627D02*
X4555300Y-8697103D01*
X4555300Y-8697103D02*
X4536253Y-8687579D01*
X4536253Y-8687579D02*
X4498158Y-8687579D01*
X4498158Y-8687579D02*
X4479110Y-8697103D01*
X4479110Y-8697103D02*
X4469586Y-8706627D01*
X4469586Y-8706627D02*
X4460062Y-8725675D01*
X4698158Y-8611389D02*
X4717205Y-8611389D01*
X4717205Y-8611389D02*
X4736253Y-8620913D01*
X4736253Y-8620913D02*
X4745777Y-8630436D01*
X4745777Y-8630436D02*
X4755300Y-8649484D01*
X4755300Y-8649484D02*
X4764824Y-8687579D01*
X4764824Y-8687579D02*
X4764824Y-8735198D01*
X4764824Y-8735198D02*
X4755300Y-8773294D01*
X4755300Y-8773294D02*
X4745777Y-8792341D01*
X4745777Y-8792341D02*
X4736253Y-8801865D01*
X4736253Y-8801865D02*
X4717205Y-8811389D01*
X4717205Y-8811389D02*
X4698158Y-8811389D01*
X4698158Y-8811389D02*
X4679110Y-8801865D01*
X4679110Y-8801865D02*
X4669586Y-8792341D01*
X4669586Y-8792341D02*
X4660062Y-8773294D01*
X4660062Y-8773294D02*
X4650539Y-8735198D01*
X4650539Y-8735198D02*
X4650539Y-8687579D01*
X4650539Y-8687579D02*
X4660062Y-8649484D01*
X4660062Y-8649484D02*
X4669586Y-8630436D01*
X4669586Y-8630436D02*
X4679110Y-8620913D01*
X4679110Y-8620913D02*
X4698158Y-8611389D01*
X4888634Y-8611389D02*
X4907681Y-8611389D01*
X4907681Y-8611389D02*
X4926729Y-8620913D01*
X4926729Y-8620913D02*
X4936253Y-8630436D01*
X4936253Y-8630436D02*
X4945777Y-8649484D01*
X4945777Y-8649484D02*
X4955300Y-8687579D01*
X4955300Y-8687579D02*
X4955300Y-8735198D01*
X4955300Y-8735198D02*
X4945777Y-8773294D01*
X4945777Y-8773294D02*
X4936253Y-8792341D01*
X4936253Y-8792341D02*
X4926729Y-8801865D01*
X4926729Y-8801865D02*
X4907681Y-8811389D01*
X4907681Y-8811389D02*
X4888634Y-8811389D01*
X4888634Y-8811389D02*
X4869586Y-8801865D01*
X4869586Y-8801865D02*
X4860062Y-8792341D01*
X4860062Y-8792341D02*
X4850539Y-8773294D01*
X4850539Y-8773294D02*
X4841015Y-8735198D01*
X4841015Y-8735198D02*
X4841015Y-8687579D01*
X4841015Y-8687579D02*
X4850539Y-8649484D01*
X4850539Y-8649484D02*
X4860062Y-8630436D01*
X4860062Y-8630436D02*
X4869586Y-8620913D01*
X4869586Y-8620913D02*
X4888634Y-8611389D01*
X5041015Y-8811389D02*
X5041015Y-8678055D01*
X5041015Y-8697103D02*
X5050539Y-8687579D01*
X5050539Y-8687579D02*
X5069586Y-8678055D01*
X5069586Y-8678055D02*
X5098158Y-8678055D01*
X5098158Y-8678055D02*
X5117205Y-8687579D01*
X5117205Y-8687579D02*
X5126729Y-8706627D01*
X5126729Y-8706627D02*
X5126729Y-8811389D01*
X5126729Y-8706627D02*
X5136253Y-8687579D01*
X5136253Y-8687579D02*
X5155300Y-8678055D01*
X5155300Y-8678055D02*
X5183872Y-8678055D01*
X5183872Y-8678055D02*
X5202920Y-8687579D01*
X5202920Y-8687579D02*
X5212443Y-8706627D01*
X5212443Y-8706627D02*
X5212443Y-8811389D01*
X5307681Y-8811389D02*
X5307681Y-8678055D01*
X5307681Y-8697103D02*
X5317205Y-8687579D01*
X5317205Y-8687579D02*
X5336253Y-8678055D01*
X5336253Y-8678055D02*
X5364824Y-8678055D01*
X5364824Y-8678055D02*
X5383872Y-8687579D01*
X5383872Y-8687579D02*
X5393396Y-8706627D01*
X5393396Y-8706627D02*
X5393396Y-8811389D01*
X5393396Y-8706627D02*
X5402920Y-8687579D01*
X5402920Y-8687579D02*
X5421967Y-8678055D01*
X5421967Y-8678055D02*
X5450539Y-8678055D01*
X5450539Y-8678055D02*
X5469586Y-8687579D01*
X5469586Y-8687579D02*
X5479110Y-8706627D01*
X5479110Y-8706627D02*
X5479110Y-8811389D01*
X5869586Y-8601865D02*
X5698158Y-8859008D01*
X6126729Y-8611389D02*
X6145777Y-8611389D01*
X6145777Y-8611389D02*
X6164824Y-8620913D01*
X6164824Y-8620913D02*
X6174348Y-8630436D01*
X6174348Y-8630436D02*
X6183872Y-8649484D01*
X6183872Y-8649484D02*
X6193396Y-8687579D01*
X6193396Y-8687579D02*
X6193396Y-8735198D01*
X6193396Y-8735198D02*
X6183872Y-8773294D01*
X6183872Y-8773294D02*
X6174348Y-8792341D01*
X6174348Y-8792341D02*
X6164824Y-8801865D01*
X6164824Y-8801865D02*
X6145777Y-8811389D01*
X6145777Y-8811389D02*
X6126729Y-8811389D01*
X6126729Y-8811389D02*
X6107681Y-8801865D01*
X6107681Y-8801865D02*
X6098158Y-8792341D01*
X6098158Y-8792341D02*
X6088634Y-8773294D01*
X6088634Y-8773294D02*
X6079110Y-8735198D01*
X6079110Y-8735198D02*
X6079110Y-8687579D01*
X6079110Y-8687579D02*
X6088634Y-8649484D01*
X6088634Y-8649484D02*
X6098158Y-8630436D01*
X6098158Y-8630436D02*
X6107681Y-8620913D01*
X6107681Y-8620913D02*
X6126729Y-8611389D01*
X6279110Y-8792341D02*
X6288634Y-8801865D01*
X6288634Y-8801865D02*
X6279110Y-8811389D01*
X6279110Y-8811389D02*
X6269586Y-8801865D01*
X6269586Y-8801865D02*
X6279110Y-8792341D01*
X6279110Y-8792341D02*
X6279110Y-8811389D01*
X6412443Y-8611389D02*
X6431491Y-8611389D01*
X6431491Y-8611389D02*
X6450539Y-8620913D01*
X6450539Y-8620913D02*
X6460062Y-8630436D01*
X6460062Y-8630436D02*
X6469586Y-8649484D01*
X6469586Y-8649484D02*
X6479110Y-8687579D01*
X6479110Y-8687579D02*
X6479110Y-8735198D01*
X6479110Y-8735198D02*
X6469586Y-8773294D01*
X6469586Y-8773294D02*
X6460062Y-8792341D01*
X6460062Y-8792341D02*
X6450539Y-8801865D01*
X6450539Y-8801865D02*
X6431491Y-8811389D01*
X6431491Y-8811389D02*
X6412443Y-8811389D01*
X6412443Y-8811389D02*
X6393396Y-8801865D01*
X6393396Y-8801865D02*
X6383872Y-8792341D01*
X6383872Y-8792341D02*
X6374348Y-8773294D01*
X6374348Y-8773294D02*
X6364824Y-8735198D01*
X6364824Y-8735198D02*
X6364824Y-8687579D01*
X6364824Y-8687579D02*
X6374348Y-8649484D01*
X6374348Y-8649484D02*
X6383872Y-8630436D01*
X6383872Y-8630436D02*
X6393396Y-8620913D01*
X6393396Y-8620913D02*
X6412443Y-8611389D01*
X6555301Y-8630436D02*
X6564824Y-8620913D01*
X6564824Y-8620913D02*
X6583872Y-8611389D01*
X6583872Y-8611389D02*
X6631491Y-8611389D01*
X6631491Y-8611389D02*
X6650539Y-8620913D01*
X6650539Y-8620913D02*
X6660062Y-8630436D01*
X6660062Y-8630436D02*
X6669586Y-8649484D01*
X6669586Y-8649484D02*
X6669586Y-8668532D01*
X6669586Y-8668532D02*
X6660062Y-8697103D01*
X6660062Y-8697103D02*
X6545777Y-8811389D01*
X6545777Y-8811389D02*
X6669586Y-8811389D01*
X6736253Y-8611389D02*
X6860062Y-8611389D01*
X6860062Y-8611389D02*
X6793396Y-8687579D01*
X6793396Y-8687579D02*
X6821967Y-8687579D01*
X6821967Y-8687579D02*
X6841015Y-8697103D01*
X6841015Y-8697103D02*
X6850539Y-8706627D01*
X6850539Y-8706627D02*
X6860062Y-8725675D01*
X6860062Y-8725675D02*
X6860062Y-8773294D01*
X6860062Y-8773294D02*
X6850539Y-8792341D01*
X6850539Y-8792341D02*
X6841015Y-8801865D01*
X6841015Y-8801865D02*
X6821967Y-8811389D01*
X6821967Y-8811389D02*
X6764824Y-8811389D01*
X6764824Y-8811389D02*
X6745777Y-8801865D01*
X6745777Y-8801865D02*
X6736253Y-8792341D01*
X7031491Y-8611389D02*
X6993396Y-8611389D01*
X6993396Y-8611389D02*
X6974348Y-8620913D01*
X6974348Y-8620913D02*
X6964824Y-8630436D01*
X6964824Y-8630436D02*
X6945777Y-8659008D01*
X6945777Y-8659008D02*
X6936253Y-8697103D01*
X6936253Y-8697103D02*
X6936253Y-8773294D01*
X6936253Y-8773294D02*
X6945777Y-8792341D01*
X6945777Y-8792341D02*
X6955301Y-8801865D01*
X6955301Y-8801865D02*
X6974348Y-8811389D01*
X6974348Y-8811389D02*
X7012443Y-8811389D01*
X7012443Y-8811389D02*
X7031491Y-8801865D01*
X7031491Y-8801865D02*
X7041015Y-8792341D01*
X7041015Y-8792341D02*
X7050539Y-8773294D01*
X7050539Y-8773294D02*
X7050539Y-8725675D01*
X7050539Y-8725675D02*
X7041015Y-8706627D01*
X7041015Y-8706627D02*
X7031491Y-8697103D01*
X7031491Y-8697103D02*
X7012443Y-8687579D01*
X7012443Y-8687579D02*
X6974348Y-8687579D01*
X6974348Y-8687579D02*
X6955301Y-8697103D01*
X6955301Y-8697103D02*
X6945777Y-8706627D01*
X6945777Y-8706627D02*
X6936253Y-8725675D01*
X7126729Y-8611389D02*
X7126729Y-8649484D01*
X7202920Y-8611389D02*
X7202920Y-8649484D01*
X7498158Y-8887579D02*
X7488634Y-8878055D01*
X7488634Y-8878055D02*
X7469586Y-8849484D01*
X7469586Y-8849484D02*
X7460063Y-8830436D01*
X7460063Y-8830436D02*
X7450539Y-8801865D01*
X7450539Y-8801865D02*
X7441015Y-8754246D01*
X7441015Y-8754246D02*
X7441015Y-8716151D01*
X7441015Y-8716151D02*
X7450539Y-8668532D01*
X7450539Y-8668532D02*
X7460063Y-8639960D01*
X7460063Y-8639960D02*
X7469586Y-8620913D01*
X7469586Y-8620913D02*
X7488634Y-8592341D01*
X7488634Y-8592341D02*
X7498158Y-8582817D01*
X7612443Y-8611389D02*
X7631491Y-8611389D01*
X7631491Y-8611389D02*
X7650539Y-8620913D01*
X7650539Y-8620913D02*
X7660063Y-8630436D01*
X7660063Y-8630436D02*
X7669586Y-8649484D01*
X7669586Y-8649484D02*
X7679110Y-8687579D01*
X7679110Y-8687579D02*
X7679110Y-8735198D01*
X7679110Y-8735198D02*
X7669586Y-8773294D01*
X7669586Y-8773294D02*
X7660063Y-8792341D01*
X7660063Y-8792341D02*
X7650539Y-8801865D01*
X7650539Y-8801865D02*
X7631491Y-8811389D01*
X7631491Y-8811389D02*
X7612443Y-8811389D01*
X7612443Y-8811389D02*
X7593396Y-8801865D01*
X7593396Y-8801865D02*
X7583872Y-8792341D01*
X7583872Y-8792341D02*
X7574348Y-8773294D01*
X7574348Y-8773294D02*
X7564824Y-8735198D01*
X7564824Y-8735198D02*
X7564824Y-8687579D01*
X7564824Y-8687579D02*
X7574348Y-8649484D01*
X7574348Y-8649484D02*
X7583872Y-8630436D01*
X7583872Y-8630436D02*
X7593396Y-8620913D01*
X7593396Y-8620913D02*
X7612443Y-8611389D01*
X7917205Y-8811389D02*
X7917205Y-8611389D01*
X8002920Y-8811389D02*
X8002920Y-8706627D01*
X8002920Y-8706627D02*
X7993396Y-8687579D01*
X7993396Y-8687579D02*
X7974348Y-8678055D01*
X7974348Y-8678055D02*
X7945777Y-8678055D01*
X7945777Y-8678055D02*
X7926729Y-8687579D01*
X7926729Y-8687579D02*
X7917205Y-8697103D01*
X8126729Y-8811389D02*
X8107682Y-8801865D01*
X8107682Y-8801865D02*
X8098158Y-8792341D01*
X8098158Y-8792341D02*
X8088634Y-8773294D01*
X8088634Y-8773294D02*
X8088634Y-8716151D01*
X8088634Y-8716151D02*
X8098158Y-8697103D01*
X8098158Y-8697103D02*
X8107682Y-8687579D01*
X8107682Y-8687579D02*
X8126729Y-8678055D01*
X8126729Y-8678055D02*
X8155301Y-8678055D01*
X8155301Y-8678055D02*
X8174348Y-8687579D01*
X8174348Y-8687579D02*
X8183872Y-8697103D01*
X8183872Y-8697103D02*
X8193396Y-8716151D01*
X8193396Y-8716151D02*
X8193396Y-8773294D01*
X8193396Y-8773294D02*
X8183872Y-8792341D01*
X8183872Y-8792341D02*
X8174348Y-8801865D01*
X8174348Y-8801865D02*
X8155301Y-8811389D01*
X8155301Y-8811389D02*
X8126729Y-8811389D01*
X8307682Y-8811389D02*
X8288634Y-8801865D01*
X8288634Y-8801865D02*
X8279110Y-8782817D01*
X8279110Y-8782817D02*
X8279110Y-8611389D01*
X8460063Y-8801865D02*
X8441015Y-8811389D01*
X8441015Y-8811389D02*
X8402920Y-8811389D01*
X8402920Y-8811389D02*
X8383872Y-8801865D01*
X8383872Y-8801865D02*
X8374348Y-8782817D01*
X8374348Y-8782817D02*
X8374348Y-8706627D01*
X8374348Y-8706627D02*
X8383872Y-8687579D01*
X8383872Y-8687579D02*
X8402920Y-8678055D01*
X8402920Y-8678055D02*
X8441015Y-8678055D01*
X8441015Y-8678055D02*
X8460063Y-8687579D01*
X8460063Y-8687579D02*
X8469587Y-8706627D01*
X8469587Y-8706627D02*
X8469587Y-8725675D01*
X8469587Y-8725675D02*
X8374348Y-8744722D01*
X8545777Y-8801865D02*
X8564825Y-8811389D01*
X8564825Y-8811389D02*
X8602920Y-8811389D01*
X8602920Y-8811389D02*
X8621968Y-8801865D01*
X8621968Y-8801865D02*
X8631491Y-8782817D01*
X8631491Y-8782817D02*
X8631491Y-8773294D01*
X8631491Y-8773294D02*
X8621968Y-8754246D01*
X8621968Y-8754246D02*
X8602920Y-8744722D01*
X8602920Y-8744722D02*
X8574348Y-8744722D01*
X8574348Y-8744722D02*
X8555301Y-8735198D01*
X8555301Y-8735198D02*
X8545777Y-8716151D01*
X8545777Y-8716151D02*
X8545777Y-8706627D01*
X8545777Y-8706627D02*
X8555301Y-8687579D01*
X8555301Y-8687579D02*
X8574348Y-8678055D01*
X8574348Y-8678055D02*
X8602920Y-8678055D01*
X8602920Y-8678055D02*
X8621968Y-8687579D01*
X8869587Y-8735198D02*
X9021968Y-8735198D01*
X8945777Y-8811389D02*
X8945777Y-8659008D01*
X9355301Y-8678055D02*
X9355301Y-8811389D01*
X9307682Y-8601865D02*
X9260063Y-8744722D01*
X9260063Y-8744722D02*
X9383872Y-8744722D01*
X9602920Y-8801865D02*
X9621968Y-8811389D01*
X9621968Y-8811389D02*
X9660063Y-8811389D01*
X9660063Y-8811389D02*
X9679111Y-8801865D01*
X9679111Y-8801865D02*
X9688634Y-8782817D01*
X9688634Y-8782817D02*
X9688634Y-8773294D01*
X9688634Y-8773294D02*
X9679111Y-8754246D01*
X9679111Y-8754246D02*
X9660063Y-8744722D01*
X9660063Y-8744722D02*
X9631491Y-8744722D01*
X9631491Y-8744722D02*
X9612444Y-8735198D01*
X9612444Y-8735198D02*
X9602920Y-8716151D01*
X9602920Y-8716151D02*
X9602920Y-8706627D01*
X9602920Y-8706627D02*
X9612444Y-8687579D01*
X9612444Y-8687579D02*
X9631491Y-8678055D01*
X9631491Y-8678055D02*
X9660063Y-8678055D01*
X9660063Y-8678055D02*
X9679111Y-8687579D01*
X9802920Y-8811389D02*
X9783872Y-8801865D01*
X9783872Y-8801865D02*
X9774349Y-8782817D01*
X9774349Y-8782817D02*
X9774349Y-8611389D01*
X9907682Y-8811389D02*
X9888634Y-8801865D01*
X9888634Y-8801865D02*
X9879111Y-8792341D01*
X9879111Y-8792341D02*
X9869587Y-8773294D01*
X9869587Y-8773294D02*
X9869587Y-8716151D01*
X9869587Y-8716151D02*
X9879111Y-8697103D01*
X9879111Y-8697103D02*
X9888634Y-8687579D01*
X9888634Y-8687579D02*
X9907682Y-8678055D01*
X9907682Y-8678055D02*
X9936253Y-8678055D01*
X9936253Y-8678055D02*
X9955301Y-8687579D01*
X9955301Y-8687579D02*
X9964825Y-8697103D01*
X9964825Y-8697103D02*
X9974349Y-8716151D01*
X9974349Y-8716151D02*
X9974349Y-8773294D01*
X9974349Y-8773294D02*
X9964825Y-8792341D01*
X9964825Y-8792341D02*
X9955301Y-8801865D01*
X9955301Y-8801865D02*
X9936253Y-8811389D01*
X9936253Y-8811389D02*
X9907682Y-8811389D01*
X10031492Y-8678055D02*
X10107682Y-8678055D01*
X10060063Y-8611389D02*
X10060063Y-8782817D01*
X10060063Y-8782817D02*
X10069587Y-8801865D01*
X10069587Y-8801865D02*
X10088634Y-8811389D01*
X10088634Y-8811389D02*
X10107682Y-8811389D01*
X10164825Y-8801865D02*
X10183872Y-8811389D01*
X10183872Y-8811389D02*
X10221968Y-8811389D01*
X10221968Y-8811389D02*
X10241015Y-8801865D01*
X10241015Y-8801865D02*
X10250539Y-8782817D01*
X10250539Y-8782817D02*
X10250539Y-8773294D01*
X10250539Y-8773294D02*
X10241015Y-8754246D01*
X10241015Y-8754246D02*
X10221968Y-8744722D01*
X10221968Y-8744722D02*
X10193396Y-8744722D01*
X10193396Y-8744722D02*
X10174349Y-8735198D01*
X10174349Y-8735198D02*
X10164825Y-8716151D01*
X10164825Y-8716151D02*
X10164825Y-8706627D01*
X10164825Y-8706627D02*
X10174349Y-8687579D01*
X10174349Y-8687579D02*
X10193396Y-8678055D01*
X10193396Y-8678055D02*
X10221968Y-8678055D01*
X10221968Y-8678055D02*
X10241015Y-8687579D01*
X10317206Y-8887579D02*
X10326730Y-8878055D01*
X10326730Y-8878055D02*
X10345777Y-8849484D01*
X10345777Y-8849484D02*
X10355301Y-8830436D01*
X10355301Y-8830436D02*
X10364825Y-8801865D01*
X10364825Y-8801865D02*
X10374349Y-8754246D01*
X10374349Y-8754246D02*
X10374349Y-8716151D01*
X10374349Y-8716151D02*
X10364825Y-8668532D01*
X10364825Y-8668532D02*
X10355301Y-8639960D01*
X10355301Y-8639960D02*
X10345777Y-8620913D01*
X10345777Y-8620913D02*
X10326730Y-8592341D01*
X10326730Y-8592341D02*
X10317206Y-8582817D01*
D12*
X3908451Y-9019261D02*
X3908451Y-8948549D01*
X3837739Y-8948549D01*
X3837739Y-9019261D01*
X3908451Y-9019261D01*
D11*
X4288634Y-9075389D02*
X4174348Y-9075389D01*
X4231491Y-9075389D02*
X4231491Y-8875389D01*
X4231491Y-8875389D02*
X4212443Y-8903960D01*
X4212443Y-8903960D02*
X4193396Y-8923008D01*
X4193396Y-8923008D02*
X4174348Y-8932532D01*
X4374348Y-9056341D02*
X4383872Y-9065865D01*
X4383872Y-9065865D02*
X4374348Y-9075389D01*
X4374348Y-9075389D02*
X4364824Y-9065865D01*
X4364824Y-9065865D02*
X4374348Y-9056341D01*
X4374348Y-9056341D02*
X4374348Y-9075389D01*
X4507681Y-8875389D02*
X4526729Y-8875389D01*
X4526729Y-8875389D02*
X4545777Y-8884913D01*
X4545777Y-8884913D02*
X4555300Y-8894436D01*
X4555300Y-8894436D02*
X4564824Y-8913484D01*
X4564824Y-8913484D02*
X4574348Y-8951579D01*
X4574348Y-8951579D02*
X4574348Y-8999198D01*
X4574348Y-8999198D02*
X4564824Y-9037294D01*
X4564824Y-9037294D02*
X4555300Y-9056341D01*
X4555300Y-9056341D02*
X4545777Y-9065865D01*
X4545777Y-9065865D02*
X4526729Y-9075389D01*
X4526729Y-9075389D02*
X4507681Y-9075389D01*
X4507681Y-9075389D02*
X4488634Y-9065865D01*
X4488634Y-9065865D02*
X4479110Y-9056341D01*
X4479110Y-9056341D02*
X4469586Y-9037294D01*
X4469586Y-9037294D02*
X4460062Y-8999198D01*
X4460062Y-8999198D02*
X4460062Y-8951579D01*
X4460062Y-8951579D02*
X4469586Y-8913484D01*
X4469586Y-8913484D02*
X4479110Y-8894436D01*
X4479110Y-8894436D02*
X4488634Y-8884913D01*
X4488634Y-8884913D02*
X4507681Y-8875389D01*
X4698158Y-8875389D02*
X4717205Y-8875389D01*
X4717205Y-8875389D02*
X4736253Y-8884913D01*
X4736253Y-8884913D02*
X4745777Y-8894436D01*
X4745777Y-8894436D02*
X4755300Y-8913484D01*
X4755300Y-8913484D02*
X4764824Y-8951579D01*
X4764824Y-8951579D02*
X4764824Y-8999198D01*
X4764824Y-8999198D02*
X4755300Y-9037294D01*
X4755300Y-9037294D02*
X4745777Y-9056341D01*
X4745777Y-9056341D02*
X4736253Y-9065865D01*
X4736253Y-9065865D02*
X4717205Y-9075389D01*
X4717205Y-9075389D02*
X4698158Y-9075389D01*
X4698158Y-9075389D02*
X4679110Y-9065865D01*
X4679110Y-9065865D02*
X4669586Y-9056341D01*
X4669586Y-9056341D02*
X4660062Y-9037294D01*
X4660062Y-9037294D02*
X4650539Y-8999198D01*
X4650539Y-8999198D02*
X4650539Y-8951579D01*
X4650539Y-8951579D02*
X4660062Y-8913484D01*
X4660062Y-8913484D02*
X4669586Y-8894436D01*
X4669586Y-8894436D02*
X4679110Y-8884913D01*
X4679110Y-8884913D02*
X4698158Y-8875389D01*
X4888634Y-8875389D02*
X4907681Y-8875389D01*
X4907681Y-8875389D02*
X4926729Y-8884913D01*
X4926729Y-8884913D02*
X4936253Y-8894436D01*
X4936253Y-8894436D02*
X4945777Y-8913484D01*
X4945777Y-8913484D02*
X4955300Y-8951579D01*
X4955300Y-8951579D02*
X4955300Y-8999198D01*
X4955300Y-8999198D02*
X4945777Y-9037294D01*
X4945777Y-9037294D02*
X4936253Y-9056341D01*
X4936253Y-9056341D02*
X4926729Y-9065865D01*
X4926729Y-9065865D02*
X4907681Y-9075389D01*
X4907681Y-9075389D02*
X4888634Y-9075389D01*
X4888634Y-9075389D02*
X4869586Y-9065865D01*
X4869586Y-9065865D02*
X4860062Y-9056341D01*
X4860062Y-9056341D02*
X4850539Y-9037294D01*
X4850539Y-9037294D02*
X4841015Y-8999198D01*
X4841015Y-8999198D02*
X4841015Y-8951579D01*
X4841015Y-8951579D02*
X4850539Y-8913484D01*
X4850539Y-8913484D02*
X4860062Y-8894436D01*
X4860062Y-8894436D02*
X4869586Y-8884913D01*
X4869586Y-8884913D02*
X4888634Y-8875389D01*
X5041015Y-9075389D02*
X5041015Y-8942055D01*
X5041015Y-8961103D02*
X5050539Y-8951579D01*
X5050539Y-8951579D02*
X5069586Y-8942055D01*
X5069586Y-8942055D02*
X5098158Y-8942055D01*
X5098158Y-8942055D02*
X5117205Y-8951579D01*
X5117205Y-8951579D02*
X5126729Y-8970627D01*
X5126729Y-8970627D02*
X5126729Y-9075389D01*
X5126729Y-8970627D02*
X5136253Y-8951579D01*
X5136253Y-8951579D02*
X5155300Y-8942055D01*
X5155300Y-8942055D02*
X5183872Y-8942055D01*
X5183872Y-8942055D02*
X5202920Y-8951579D01*
X5202920Y-8951579D02*
X5212443Y-8970627D01*
X5212443Y-8970627D02*
X5212443Y-9075389D01*
X5307681Y-9075389D02*
X5307681Y-8942055D01*
X5307681Y-8961103D02*
X5317205Y-8951579D01*
X5317205Y-8951579D02*
X5336253Y-8942055D01*
X5336253Y-8942055D02*
X5364824Y-8942055D01*
X5364824Y-8942055D02*
X5383872Y-8951579D01*
X5383872Y-8951579D02*
X5393396Y-8970627D01*
X5393396Y-8970627D02*
X5393396Y-9075389D01*
X5393396Y-8970627D02*
X5402920Y-8951579D01*
X5402920Y-8951579D02*
X5421967Y-8942055D01*
X5421967Y-8942055D02*
X5450539Y-8942055D01*
X5450539Y-8942055D02*
X5469586Y-8951579D01*
X5469586Y-8951579D02*
X5479110Y-8970627D01*
X5479110Y-8970627D02*
X5479110Y-9075389D01*
X5869586Y-8865865D02*
X5698158Y-9123008D01*
X6126729Y-8875389D02*
X6145777Y-8875389D01*
X6145777Y-8875389D02*
X6164824Y-8884913D01*
X6164824Y-8884913D02*
X6174348Y-8894436D01*
X6174348Y-8894436D02*
X6183872Y-8913484D01*
X6183872Y-8913484D02*
X6193396Y-8951579D01*
X6193396Y-8951579D02*
X6193396Y-8999198D01*
X6193396Y-8999198D02*
X6183872Y-9037294D01*
X6183872Y-9037294D02*
X6174348Y-9056341D01*
X6174348Y-9056341D02*
X6164824Y-9065865D01*
X6164824Y-9065865D02*
X6145777Y-9075389D01*
X6145777Y-9075389D02*
X6126729Y-9075389D01*
X6126729Y-9075389D02*
X6107681Y-9065865D01*
X6107681Y-9065865D02*
X6098158Y-9056341D01*
X6098158Y-9056341D02*
X6088634Y-9037294D01*
X6088634Y-9037294D02*
X6079110Y-8999198D01*
X6079110Y-8999198D02*
X6079110Y-8951579D01*
X6079110Y-8951579D02*
X6088634Y-8913484D01*
X6088634Y-8913484D02*
X6098158Y-8894436D01*
X6098158Y-8894436D02*
X6107681Y-8884913D01*
X6107681Y-8884913D02*
X6126729Y-8875389D01*
X6279110Y-9056341D02*
X6288634Y-9065865D01*
X6288634Y-9065865D02*
X6279110Y-9075389D01*
X6279110Y-9075389D02*
X6269586Y-9065865D01*
X6269586Y-9065865D02*
X6279110Y-9056341D01*
X6279110Y-9056341D02*
X6279110Y-9075389D01*
X6412443Y-8875389D02*
X6431491Y-8875389D01*
X6431491Y-8875389D02*
X6450539Y-8884913D01*
X6450539Y-8884913D02*
X6460062Y-8894436D01*
X6460062Y-8894436D02*
X6469586Y-8913484D01*
X6469586Y-8913484D02*
X6479110Y-8951579D01*
X6479110Y-8951579D02*
X6479110Y-8999198D01*
X6479110Y-8999198D02*
X6469586Y-9037294D01*
X6469586Y-9037294D02*
X6460062Y-9056341D01*
X6460062Y-9056341D02*
X6450539Y-9065865D01*
X6450539Y-9065865D02*
X6431491Y-9075389D01*
X6431491Y-9075389D02*
X6412443Y-9075389D01*
X6412443Y-9075389D02*
X6393396Y-9065865D01*
X6393396Y-9065865D02*
X6383872Y-9056341D01*
X6383872Y-9056341D02*
X6374348Y-9037294D01*
X6374348Y-9037294D02*
X6364824Y-8999198D01*
X6364824Y-8999198D02*
X6364824Y-8951579D01*
X6364824Y-8951579D02*
X6374348Y-8913484D01*
X6374348Y-8913484D02*
X6383872Y-8894436D01*
X6383872Y-8894436D02*
X6393396Y-8884913D01*
X6393396Y-8884913D02*
X6412443Y-8875389D01*
X6545777Y-8875389D02*
X6669586Y-8875389D01*
X6669586Y-8875389D02*
X6602920Y-8951579D01*
X6602920Y-8951579D02*
X6631491Y-8951579D01*
X6631491Y-8951579D02*
X6650539Y-8961103D01*
X6650539Y-8961103D02*
X6660062Y-8970627D01*
X6660062Y-8970627D02*
X6669586Y-8989675D01*
X6669586Y-8989675D02*
X6669586Y-9037294D01*
X6669586Y-9037294D02*
X6660062Y-9056341D01*
X6660062Y-9056341D02*
X6650539Y-9065865D01*
X6650539Y-9065865D02*
X6631491Y-9075389D01*
X6631491Y-9075389D02*
X6574348Y-9075389D01*
X6574348Y-9075389D02*
X6555301Y-9065865D01*
X6555301Y-9065865D02*
X6545777Y-9056341D01*
X6764824Y-9075389D02*
X6802920Y-9075389D01*
X6802920Y-9075389D02*
X6821967Y-9065865D01*
X6821967Y-9065865D02*
X6831491Y-9056341D01*
X6831491Y-9056341D02*
X6850539Y-9027770D01*
X6850539Y-9027770D02*
X6860062Y-8989675D01*
X6860062Y-8989675D02*
X6860062Y-8913484D01*
X6860062Y-8913484D02*
X6850539Y-8894436D01*
X6850539Y-8894436D02*
X6841015Y-8884913D01*
X6841015Y-8884913D02*
X6821967Y-8875389D01*
X6821967Y-8875389D02*
X6783872Y-8875389D01*
X6783872Y-8875389D02*
X6764824Y-8884913D01*
X6764824Y-8884913D02*
X6755301Y-8894436D01*
X6755301Y-8894436D02*
X6745777Y-8913484D01*
X6745777Y-8913484D02*
X6745777Y-8961103D01*
X6745777Y-8961103D02*
X6755301Y-8980151D01*
X6755301Y-8980151D02*
X6764824Y-8989675D01*
X6764824Y-8989675D02*
X6783872Y-8999198D01*
X6783872Y-8999198D02*
X6821967Y-8999198D01*
X6821967Y-8999198D02*
X6841015Y-8989675D01*
X6841015Y-8989675D02*
X6850539Y-8980151D01*
X6850539Y-8980151D02*
X6860062Y-8961103D01*
X7031491Y-8942055D02*
X7031491Y-9075389D01*
X6983872Y-8865865D02*
X6936253Y-9008722D01*
X6936253Y-9008722D02*
X7060062Y-9008722D01*
X7126729Y-8875389D02*
X7126729Y-8913484D01*
X7202920Y-8875389D02*
X7202920Y-8913484D01*
X7498158Y-9151579D02*
X7488634Y-9142055D01*
X7488634Y-9142055D02*
X7469586Y-9113484D01*
X7469586Y-9113484D02*
X7460063Y-9094436D01*
X7460063Y-9094436D02*
X7450539Y-9065865D01*
X7450539Y-9065865D02*
X7441015Y-9018246D01*
X7441015Y-9018246D02*
X7441015Y-8980151D01*
X7441015Y-8980151D02*
X7450539Y-8932532D01*
X7450539Y-8932532D02*
X7460063Y-8903960D01*
X7460063Y-8903960D02*
X7469586Y-8884913D01*
X7469586Y-8884913D02*
X7488634Y-8856341D01*
X7488634Y-8856341D02*
X7498158Y-8846817D01*
X7564824Y-8894436D02*
X7574348Y-8884913D01*
X7574348Y-8884913D02*
X7593396Y-8875389D01*
X7593396Y-8875389D02*
X7641015Y-8875389D01*
X7641015Y-8875389D02*
X7660063Y-8884913D01*
X7660063Y-8884913D02*
X7669586Y-8894436D01*
X7669586Y-8894436D02*
X7679110Y-8913484D01*
X7679110Y-8913484D02*
X7679110Y-8932532D01*
X7679110Y-8932532D02*
X7669586Y-8961103D01*
X7669586Y-8961103D02*
X7555301Y-9075389D01*
X7555301Y-9075389D02*
X7679110Y-9075389D01*
X7774348Y-9075389D02*
X7812443Y-9075389D01*
X7812443Y-9075389D02*
X7831491Y-9065865D01*
X7831491Y-9065865D02*
X7841015Y-9056341D01*
X7841015Y-9056341D02*
X7860063Y-9027770D01*
X7860063Y-9027770D02*
X7869586Y-8989675D01*
X7869586Y-8989675D02*
X7869586Y-8913484D01*
X7869586Y-8913484D02*
X7860063Y-8894436D01*
X7860063Y-8894436D02*
X7850539Y-8884913D01*
X7850539Y-8884913D02*
X7831491Y-8875389D01*
X7831491Y-8875389D02*
X7793396Y-8875389D01*
X7793396Y-8875389D02*
X7774348Y-8884913D01*
X7774348Y-8884913D02*
X7764824Y-8894436D01*
X7764824Y-8894436D02*
X7755301Y-8913484D01*
X7755301Y-8913484D02*
X7755301Y-8961103D01*
X7755301Y-8961103D02*
X7764824Y-8980151D01*
X7764824Y-8980151D02*
X7774348Y-8989675D01*
X7774348Y-8989675D02*
X7793396Y-8999198D01*
X7793396Y-8999198D02*
X7831491Y-8999198D01*
X7831491Y-8999198D02*
X7850539Y-8989675D01*
X7850539Y-8989675D02*
X7860063Y-8980151D01*
X7860063Y-8980151D02*
X7869586Y-8961103D01*
X8107682Y-9075389D02*
X8107682Y-8875389D01*
X8193396Y-9075389D02*
X8193396Y-8970627D01*
X8193396Y-8970627D02*
X8183872Y-8951579D01*
X8183872Y-8951579D02*
X8164825Y-8942055D01*
X8164825Y-8942055D02*
X8136253Y-8942055D01*
X8136253Y-8942055D02*
X8117205Y-8951579D01*
X8117205Y-8951579D02*
X8107682Y-8961103D01*
X8317205Y-9075389D02*
X8298158Y-9065865D01*
X8298158Y-9065865D02*
X8288634Y-9056341D01*
X8288634Y-9056341D02*
X8279110Y-9037294D01*
X8279110Y-9037294D02*
X8279110Y-8980151D01*
X8279110Y-8980151D02*
X8288634Y-8961103D01*
X8288634Y-8961103D02*
X8298158Y-8951579D01*
X8298158Y-8951579D02*
X8317205Y-8942055D01*
X8317205Y-8942055D02*
X8345777Y-8942055D01*
X8345777Y-8942055D02*
X8364825Y-8951579D01*
X8364825Y-8951579D02*
X8374348Y-8961103D01*
X8374348Y-8961103D02*
X8383872Y-8980151D01*
X8383872Y-8980151D02*
X8383872Y-9037294D01*
X8383872Y-9037294D02*
X8374348Y-9056341D01*
X8374348Y-9056341D02*
X8364825Y-9065865D01*
X8364825Y-9065865D02*
X8345777Y-9075389D01*
X8345777Y-9075389D02*
X8317205Y-9075389D01*
X8498158Y-9075389D02*
X8479110Y-9065865D01*
X8479110Y-9065865D02*
X8469587Y-9046817D01*
X8469587Y-9046817D02*
X8469587Y-8875389D01*
X8650539Y-9065865D02*
X8631491Y-9075389D01*
X8631491Y-9075389D02*
X8593396Y-9075389D01*
X8593396Y-9075389D02*
X8574348Y-9065865D01*
X8574348Y-9065865D02*
X8564825Y-9046817D01*
X8564825Y-9046817D02*
X8564825Y-8970627D01*
X8564825Y-8970627D02*
X8574348Y-8951579D01*
X8574348Y-8951579D02*
X8593396Y-8942055D01*
X8593396Y-8942055D02*
X8631491Y-8942055D01*
X8631491Y-8942055D02*
X8650539Y-8951579D01*
X8650539Y-8951579D02*
X8660063Y-8970627D01*
X8660063Y-8970627D02*
X8660063Y-8989675D01*
X8660063Y-8989675D02*
X8564825Y-9008722D01*
X8736253Y-9065865D02*
X8755301Y-9075389D01*
X8755301Y-9075389D02*
X8793396Y-9075389D01*
X8793396Y-9075389D02*
X8812444Y-9065865D01*
X8812444Y-9065865D02*
X8821968Y-9046817D01*
X8821968Y-9046817D02*
X8821968Y-9037294D01*
X8821968Y-9037294D02*
X8812444Y-9018246D01*
X8812444Y-9018246D02*
X8793396Y-9008722D01*
X8793396Y-9008722D02*
X8764825Y-9008722D01*
X8764825Y-9008722D02*
X8745777Y-8999198D01*
X8745777Y-8999198D02*
X8736253Y-8980151D01*
X8736253Y-8980151D02*
X8736253Y-8970627D01*
X8736253Y-8970627D02*
X8745777Y-8951579D01*
X8745777Y-8951579D02*
X8764825Y-8942055D01*
X8764825Y-8942055D02*
X8793396Y-8942055D01*
X8793396Y-8942055D02*
X8812444Y-8951579D01*
X8888634Y-9151579D02*
X8898158Y-9142055D01*
X8898158Y-9142055D02*
X8917206Y-9113484D01*
X8917206Y-9113484D02*
X8926729Y-9094436D01*
X8926729Y-9094436D02*
X8936253Y-9065865D01*
X8936253Y-9065865D02*
X8945777Y-9018246D01*
X8945777Y-9018246D02*
X8945777Y-8980151D01*
X8945777Y-8980151D02*
X8936253Y-8932532D01*
X8936253Y-8932532D02*
X8926729Y-8903960D01*
X8926729Y-8903960D02*
X8917206Y-8884913D01*
X8917206Y-8884913D02*
X8898158Y-8856341D01*
X8898158Y-8856341D02*
X8888634Y-8846817D01*
D13*
X3868095Y-9302905D02*
X3923095Y-9247905D01*
X3868095Y-9192905D01*
X3813095Y-9247905D01*
X3868095Y-9302905D01*
D11*
X4288634Y-9339389D02*
X4174348Y-9339389D01*
X4231491Y-9339389D02*
X4231491Y-9139389D01*
X4231491Y-9139389D02*
X4212443Y-9167960D01*
X4212443Y-9167960D02*
X4193396Y-9187008D01*
X4193396Y-9187008D02*
X4174348Y-9196532D01*
X4374348Y-9320341D02*
X4383872Y-9329865D01*
X4383872Y-9329865D02*
X4374348Y-9339389D01*
X4374348Y-9339389D02*
X4364824Y-9329865D01*
X4364824Y-9329865D02*
X4374348Y-9320341D01*
X4374348Y-9320341D02*
X4374348Y-9339389D01*
X4574348Y-9339389D02*
X4460062Y-9339389D01*
X4517205Y-9339389D02*
X4517205Y-9139389D01*
X4517205Y-9139389D02*
X4498158Y-9167960D01*
X4498158Y-9167960D02*
X4479110Y-9187008D01*
X4479110Y-9187008D02*
X4460062Y-9196532D01*
X4698158Y-9139389D02*
X4717205Y-9139389D01*
X4717205Y-9139389D02*
X4736253Y-9148913D01*
X4736253Y-9148913D02*
X4745777Y-9158436D01*
X4745777Y-9158436D02*
X4755300Y-9177484D01*
X4755300Y-9177484D02*
X4764824Y-9215579D01*
X4764824Y-9215579D02*
X4764824Y-9263198D01*
X4764824Y-9263198D02*
X4755300Y-9301294D01*
X4755300Y-9301294D02*
X4745777Y-9320341D01*
X4745777Y-9320341D02*
X4736253Y-9329865D01*
X4736253Y-9329865D02*
X4717205Y-9339389D01*
X4717205Y-9339389D02*
X4698158Y-9339389D01*
X4698158Y-9339389D02*
X4679110Y-9329865D01*
X4679110Y-9329865D02*
X4669586Y-9320341D01*
X4669586Y-9320341D02*
X4660062Y-9301294D01*
X4660062Y-9301294D02*
X4650539Y-9263198D01*
X4650539Y-9263198D02*
X4650539Y-9215579D01*
X4650539Y-9215579D02*
X4660062Y-9177484D01*
X4660062Y-9177484D02*
X4669586Y-9158436D01*
X4669586Y-9158436D02*
X4679110Y-9148913D01*
X4679110Y-9148913D02*
X4698158Y-9139389D01*
X4888634Y-9139389D02*
X4907681Y-9139389D01*
X4907681Y-9139389D02*
X4926729Y-9148913D01*
X4926729Y-9148913D02*
X4936253Y-9158436D01*
X4936253Y-9158436D02*
X4945777Y-9177484D01*
X4945777Y-9177484D02*
X4955300Y-9215579D01*
X4955300Y-9215579D02*
X4955300Y-9263198D01*
X4955300Y-9263198D02*
X4945777Y-9301294D01*
X4945777Y-9301294D02*
X4936253Y-9320341D01*
X4936253Y-9320341D02*
X4926729Y-9329865D01*
X4926729Y-9329865D02*
X4907681Y-9339389D01*
X4907681Y-9339389D02*
X4888634Y-9339389D01*
X4888634Y-9339389D02*
X4869586Y-9329865D01*
X4869586Y-9329865D02*
X4860062Y-9320341D01*
X4860062Y-9320341D02*
X4850539Y-9301294D01*
X4850539Y-9301294D02*
X4841015Y-9263198D01*
X4841015Y-9263198D02*
X4841015Y-9215579D01*
X4841015Y-9215579D02*
X4850539Y-9177484D01*
X4850539Y-9177484D02*
X4860062Y-9158436D01*
X4860062Y-9158436D02*
X4869586Y-9148913D01*
X4869586Y-9148913D02*
X4888634Y-9139389D01*
X5041015Y-9339389D02*
X5041015Y-9206055D01*
X5041015Y-9225103D02*
X5050539Y-9215579D01*
X5050539Y-9215579D02*
X5069586Y-9206055D01*
X5069586Y-9206055D02*
X5098158Y-9206055D01*
X5098158Y-9206055D02*
X5117205Y-9215579D01*
X5117205Y-9215579D02*
X5126729Y-9234627D01*
X5126729Y-9234627D02*
X5126729Y-9339389D01*
X5126729Y-9234627D02*
X5136253Y-9215579D01*
X5136253Y-9215579D02*
X5155300Y-9206055D01*
X5155300Y-9206055D02*
X5183872Y-9206055D01*
X5183872Y-9206055D02*
X5202920Y-9215579D01*
X5202920Y-9215579D02*
X5212443Y-9234627D01*
X5212443Y-9234627D02*
X5212443Y-9339389D01*
X5307681Y-9339389D02*
X5307681Y-9206055D01*
X5307681Y-9225103D02*
X5317205Y-9215579D01*
X5317205Y-9215579D02*
X5336253Y-9206055D01*
X5336253Y-9206055D02*
X5364824Y-9206055D01*
X5364824Y-9206055D02*
X5383872Y-9215579D01*
X5383872Y-9215579D02*
X5393396Y-9234627D01*
X5393396Y-9234627D02*
X5393396Y-9339389D01*
X5393396Y-9234627D02*
X5402920Y-9215579D01*
X5402920Y-9215579D02*
X5421967Y-9206055D01*
X5421967Y-9206055D02*
X5450539Y-9206055D01*
X5450539Y-9206055D02*
X5469586Y-9215579D01*
X5469586Y-9215579D02*
X5479110Y-9234627D01*
X5479110Y-9234627D02*
X5479110Y-9339389D01*
X5869586Y-9129865D02*
X5698158Y-9387008D01*
X6126729Y-9139389D02*
X6145777Y-9139389D01*
X6145777Y-9139389D02*
X6164824Y-9148913D01*
X6164824Y-9148913D02*
X6174348Y-9158436D01*
X6174348Y-9158436D02*
X6183872Y-9177484D01*
X6183872Y-9177484D02*
X6193396Y-9215579D01*
X6193396Y-9215579D02*
X6193396Y-9263198D01*
X6193396Y-9263198D02*
X6183872Y-9301294D01*
X6183872Y-9301294D02*
X6174348Y-9320341D01*
X6174348Y-9320341D02*
X6164824Y-9329865D01*
X6164824Y-9329865D02*
X6145777Y-9339389D01*
X6145777Y-9339389D02*
X6126729Y-9339389D01*
X6126729Y-9339389D02*
X6107681Y-9329865D01*
X6107681Y-9329865D02*
X6098158Y-9320341D01*
X6098158Y-9320341D02*
X6088634Y-9301294D01*
X6088634Y-9301294D02*
X6079110Y-9263198D01*
X6079110Y-9263198D02*
X6079110Y-9215579D01*
X6079110Y-9215579D02*
X6088634Y-9177484D01*
X6088634Y-9177484D02*
X6098158Y-9158436D01*
X6098158Y-9158436D02*
X6107681Y-9148913D01*
X6107681Y-9148913D02*
X6126729Y-9139389D01*
X6279110Y-9320341D02*
X6288634Y-9329865D01*
X6288634Y-9329865D02*
X6279110Y-9339389D01*
X6279110Y-9339389D02*
X6269586Y-9329865D01*
X6269586Y-9329865D02*
X6279110Y-9320341D01*
X6279110Y-9320341D02*
X6279110Y-9339389D01*
X6412443Y-9139389D02*
X6431491Y-9139389D01*
X6431491Y-9139389D02*
X6450539Y-9148913D01*
X6450539Y-9148913D02*
X6460062Y-9158436D01*
X6460062Y-9158436D02*
X6469586Y-9177484D01*
X6469586Y-9177484D02*
X6479110Y-9215579D01*
X6479110Y-9215579D02*
X6479110Y-9263198D01*
X6479110Y-9263198D02*
X6469586Y-9301294D01*
X6469586Y-9301294D02*
X6460062Y-9320341D01*
X6460062Y-9320341D02*
X6450539Y-9329865D01*
X6450539Y-9329865D02*
X6431491Y-9339389D01*
X6431491Y-9339389D02*
X6412443Y-9339389D01*
X6412443Y-9339389D02*
X6393396Y-9329865D01*
X6393396Y-9329865D02*
X6383872Y-9320341D01*
X6383872Y-9320341D02*
X6374348Y-9301294D01*
X6374348Y-9301294D02*
X6364824Y-9263198D01*
X6364824Y-9263198D02*
X6364824Y-9215579D01*
X6364824Y-9215579D02*
X6374348Y-9177484D01*
X6374348Y-9177484D02*
X6383872Y-9158436D01*
X6383872Y-9158436D02*
X6393396Y-9148913D01*
X6393396Y-9148913D02*
X6412443Y-9139389D01*
X6650539Y-9206055D02*
X6650539Y-9339389D01*
X6602920Y-9129865D02*
X6555301Y-9272722D01*
X6555301Y-9272722D02*
X6679110Y-9272722D01*
X6736253Y-9139389D02*
X6860062Y-9139389D01*
X6860062Y-9139389D02*
X6793396Y-9215579D01*
X6793396Y-9215579D02*
X6821967Y-9215579D01*
X6821967Y-9215579D02*
X6841015Y-9225103D01*
X6841015Y-9225103D02*
X6850539Y-9234627D01*
X6850539Y-9234627D02*
X6860062Y-9253675D01*
X6860062Y-9253675D02*
X6860062Y-9301294D01*
X6860062Y-9301294D02*
X6850539Y-9320341D01*
X6850539Y-9320341D02*
X6841015Y-9329865D01*
X6841015Y-9329865D02*
X6821967Y-9339389D01*
X6821967Y-9339389D02*
X6764824Y-9339389D01*
X6764824Y-9339389D02*
X6745777Y-9329865D01*
X6745777Y-9329865D02*
X6736253Y-9320341D01*
X6926729Y-9139389D02*
X7050539Y-9139389D01*
X7050539Y-9139389D02*
X6983872Y-9215579D01*
X6983872Y-9215579D02*
X7012443Y-9215579D01*
X7012443Y-9215579D02*
X7031491Y-9225103D01*
X7031491Y-9225103D02*
X7041015Y-9234627D01*
X7041015Y-9234627D02*
X7050539Y-9253675D01*
X7050539Y-9253675D02*
X7050539Y-9301294D01*
X7050539Y-9301294D02*
X7041015Y-9320341D01*
X7041015Y-9320341D02*
X7031491Y-9329865D01*
X7031491Y-9329865D02*
X7012443Y-9339389D01*
X7012443Y-9339389D02*
X6955301Y-9339389D01*
X6955301Y-9339389D02*
X6936253Y-9329865D01*
X6936253Y-9329865D02*
X6926729Y-9320341D01*
X7126729Y-9139389D02*
X7126729Y-9177484D01*
X7202920Y-9139389D02*
X7202920Y-9177484D01*
X7498158Y-9415579D02*
X7488634Y-9406055D01*
X7488634Y-9406055D02*
X7469586Y-9377484D01*
X7469586Y-9377484D02*
X7460063Y-9358436D01*
X7460063Y-9358436D02*
X7450539Y-9329865D01*
X7450539Y-9329865D02*
X7441015Y-9282246D01*
X7441015Y-9282246D02*
X7441015Y-9244151D01*
X7441015Y-9244151D02*
X7450539Y-9196532D01*
X7450539Y-9196532D02*
X7460063Y-9167960D01*
X7460063Y-9167960D02*
X7469586Y-9148913D01*
X7469586Y-9148913D02*
X7488634Y-9120341D01*
X7488634Y-9120341D02*
X7498158Y-9110817D01*
X7679110Y-9339389D02*
X7564824Y-9339389D01*
X7621967Y-9339389D02*
X7621967Y-9139389D01*
X7621967Y-9139389D02*
X7602920Y-9167960D01*
X7602920Y-9167960D02*
X7583872Y-9187008D01*
X7583872Y-9187008D02*
X7564824Y-9196532D01*
X7755301Y-9158436D02*
X7764824Y-9148913D01*
X7764824Y-9148913D02*
X7783872Y-9139389D01*
X7783872Y-9139389D02*
X7831491Y-9139389D01*
X7831491Y-9139389D02*
X7850539Y-9148913D01*
X7850539Y-9148913D02*
X7860063Y-9158436D01*
X7860063Y-9158436D02*
X7869586Y-9177484D01*
X7869586Y-9177484D02*
X7869586Y-9196532D01*
X7869586Y-9196532D02*
X7860063Y-9225103D01*
X7860063Y-9225103D02*
X7745777Y-9339389D01*
X7745777Y-9339389D02*
X7869586Y-9339389D01*
X8107682Y-9339389D02*
X8107682Y-9139389D01*
X8193396Y-9339389D02*
X8193396Y-9234627D01*
X8193396Y-9234627D02*
X8183872Y-9215579D01*
X8183872Y-9215579D02*
X8164825Y-9206055D01*
X8164825Y-9206055D02*
X8136253Y-9206055D01*
X8136253Y-9206055D02*
X8117205Y-9215579D01*
X8117205Y-9215579D02*
X8107682Y-9225103D01*
X8317205Y-9339389D02*
X8298158Y-9329865D01*
X8298158Y-9329865D02*
X8288634Y-9320341D01*
X8288634Y-9320341D02*
X8279110Y-9301294D01*
X8279110Y-9301294D02*
X8279110Y-9244151D01*
X8279110Y-9244151D02*
X8288634Y-9225103D01*
X8288634Y-9225103D02*
X8298158Y-9215579D01*
X8298158Y-9215579D02*
X8317205Y-9206055D01*
X8317205Y-9206055D02*
X8345777Y-9206055D01*
X8345777Y-9206055D02*
X8364825Y-9215579D01*
X8364825Y-9215579D02*
X8374348Y-9225103D01*
X8374348Y-9225103D02*
X8383872Y-9244151D01*
X8383872Y-9244151D02*
X8383872Y-9301294D01*
X8383872Y-9301294D02*
X8374348Y-9320341D01*
X8374348Y-9320341D02*
X8364825Y-9329865D01*
X8364825Y-9329865D02*
X8345777Y-9339389D01*
X8345777Y-9339389D02*
X8317205Y-9339389D01*
X8498158Y-9339389D02*
X8479110Y-9329865D01*
X8479110Y-9329865D02*
X8469587Y-9310817D01*
X8469587Y-9310817D02*
X8469587Y-9139389D01*
X8650539Y-9329865D02*
X8631491Y-9339389D01*
X8631491Y-9339389D02*
X8593396Y-9339389D01*
X8593396Y-9339389D02*
X8574348Y-9329865D01*
X8574348Y-9329865D02*
X8564825Y-9310817D01*
X8564825Y-9310817D02*
X8564825Y-9234627D01*
X8564825Y-9234627D02*
X8574348Y-9215579D01*
X8574348Y-9215579D02*
X8593396Y-9206055D01*
X8593396Y-9206055D02*
X8631491Y-9206055D01*
X8631491Y-9206055D02*
X8650539Y-9215579D01*
X8650539Y-9215579D02*
X8660063Y-9234627D01*
X8660063Y-9234627D02*
X8660063Y-9253675D01*
X8660063Y-9253675D02*
X8564825Y-9272722D01*
X8736253Y-9329865D02*
X8755301Y-9339389D01*
X8755301Y-9339389D02*
X8793396Y-9339389D01*
X8793396Y-9339389D02*
X8812444Y-9329865D01*
X8812444Y-9329865D02*
X8821968Y-9310817D01*
X8821968Y-9310817D02*
X8821968Y-9301294D01*
X8821968Y-9301294D02*
X8812444Y-9282246D01*
X8812444Y-9282246D02*
X8793396Y-9272722D01*
X8793396Y-9272722D02*
X8764825Y-9272722D01*
X8764825Y-9272722D02*
X8745777Y-9263198D01*
X8745777Y-9263198D02*
X8736253Y-9244151D01*
X8736253Y-9244151D02*
X8736253Y-9234627D01*
X8736253Y-9234627D02*
X8745777Y-9215579D01*
X8745777Y-9215579D02*
X8764825Y-9206055D01*
X8764825Y-9206055D02*
X8793396Y-9206055D01*
X8793396Y-9206055D02*
X8812444Y-9215579D01*
X8888634Y-9415579D02*
X8898158Y-9406055D01*
X8898158Y-9406055D02*
X8917206Y-9377484D01*
X8917206Y-9377484D02*
X8926729Y-9358436D01*
X8926729Y-9358436D02*
X8936253Y-9329865D01*
X8936253Y-9329865D02*
X8945777Y-9282246D01*
X8945777Y-9282246D02*
X8945777Y-9244151D01*
X8945777Y-9244151D02*
X8936253Y-9196532D01*
X8936253Y-9196532D02*
X8926729Y-9167960D01*
X8926729Y-9167960D02*
X8917206Y-9148913D01*
X8917206Y-9148913D02*
X8898158Y-9120341D01*
X8898158Y-9120341D02*
X8888634Y-9110817D01*
X3723095Y-9411905D02*
X3923095Y-9611905D01*
X3923095Y-9411905D02*
X3723095Y-9611905D01*
X3923095Y-9511905D02*
G75*
G02*
X3723095Y-9511905I-100000J0D01*
G01*
X3723095Y-9511905D02*
G75*
G02*
X3923095Y-9511905I100000J0D01*
G01*
X4174348Y-9422436D02*
X4183872Y-9412913D01*
X4183872Y-9412913D02*
X4202919Y-9403389D01*
X4202919Y-9403389D02*
X4250539Y-9403389D01*
X4250539Y-9403389D02*
X4269586Y-9412913D01*
X4269586Y-9412913D02*
X4279110Y-9422436D01*
X4279110Y-9422436D02*
X4288634Y-9441484D01*
X4288634Y-9441484D02*
X4288634Y-9460532D01*
X4288634Y-9460532D02*
X4279110Y-9489103D01*
X4279110Y-9489103D02*
X4164824Y-9603389D01*
X4164824Y-9603389D02*
X4288634Y-9603389D01*
X4374348Y-9584341D02*
X4383872Y-9593865D01*
X4383872Y-9593865D02*
X4374348Y-9603389D01*
X4374348Y-9603389D02*
X4364824Y-9593865D01*
X4364824Y-9593865D02*
X4374348Y-9584341D01*
X4374348Y-9584341D02*
X4374348Y-9603389D01*
X4460062Y-9422436D02*
X4469586Y-9412913D01*
X4469586Y-9412913D02*
X4488634Y-9403389D01*
X4488634Y-9403389D02*
X4536253Y-9403389D01*
X4536253Y-9403389D02*
X4555300Y-9412913D01*
X4555300Y-9412913D02*
X4564824Y-9422436D01*
X4564824Y-9422436D02*
X4574348Y-9441484D01*
X4574348Y-9441484D02*
X4574348Y-9460532D01*
X4574348Y-9460532D02*
X4564824Y-9489103D01*
X4564824Y-9489103D02*
X4450539Y-9603389D01*
X4450539Y-9603389D02*
X4574348Y-9603389D01*
X4698158Y-9403389D02*
X4717205Y-9403389D01*
X4717205Y-9403389D02*
X4736253Y-9412913D01*
X4736253Y-9412913D02*
X4745777Y-9422436D01*
X4745777Y-9422436D02*
X4755300Y-9441484D01*
X4755300Y-9441484D02*
X4764824Y-9479579D01*
X4764824Y-9479579D02*
X4764824Y-9527198D01*
X4764824Y-9527198D02*
X4755300Y-9565294D01*
X4755300Y-9565294D02*
X4745777Y-9584341D01*
X4745777Y-9584341D02*
X4736253Y-9593865D01*
X4736253Y-9593865D02*
X4717205Y-9603389D01*
X4717205Y-9603389D02*
X4698158Y-9603389D01*
X4698158Y-9603389D02*
X4679110Y-9593865D01*
X4679110Y-9593865D02*
X4669586Y-9584341D01*
X4669586Y-9584341D02*
X4660062Y-9565294D01*
X4660062Y-9565294D02*
X4650539Y-9527198D01*
X4650539Y-9527198D02*
X4650539Y-9479579D01*
X4650539Y-9479579D02*
X4660062Y-9441484D01*
X4660062Y-9441484D02*
X4669586Y-9422436D01*
X4669586Y-9422436D02*
X4679110Y-9412913D01*
X4679110Y-9412913D02*
X4698158Y-9403389D01*
X4888634Y-9403389D02*
X4907681Y-9403389D01*
X4907681Y-9403389D02*
X4926729Y-9412913D01*
X4926729Y-9412913D02*
X4936253Y-9422436D01*
X4936253Y-9422436D02*
X4945777Y-9441484D01*
X4945777Y-9441484D02*
X4955300Y-9479579D01*
X4955300Y-9479579D02*
X4955300Y-9527198D01*
X4955300Y-9527198D02*
X4945777Y-9565294D01*
X4945777Y-9565294D02*
X4936253Y-9584341D01*
X4936253Y-9584341D02*
X4926729Y-9593865D01*
X4926729Y-9593865D02*
X4907681Y-9603389D01*
X4907681Y-9603389D02*
X4888634Y-9603389D01*
X4888634Y-9603389D02*
X4869586Y-9593865D01*
X4869586Y-9593865D02*
X4860062Y-9584341D01*
X4860062Y-9584341D02*
X4850539Y-9565294D01*
X4850539Y-9565294D02*
X4841015Y-9527198D01*
X4841015Y-9527198D02*
X4841015Y-9479579D01*
X4841015Y-9479579D02*
X4850539Y-9441484D01*
X4850539Y-9441484D02*
X4860062Y-9422436D01*
X4860062Y-9422436D02*
X4869586Y-9412913D01*
X4869586Y-9412913D02*
X4888634Y-9403389D01*
X5041015Y-9603389D02*
X5041015Y-9470055D01*
X5041015Y-9489103D02*
X5050539Y-9479579D01*
X5050539Y-9479579D02*
X5069586Y-9470055D01*
X5069586Y-9470055D02*
X5098158Y-9470055D01*
X5098158Y-9470055D02*
X5117205Y-9479579D01*
X5117205Y-9479579D02*
X5126729Y-9498627D01*
X5126729Y-9498627D02*
X5126729Y-9603389D01*
X5126729Y-9498627D02*
X5136253Y-9479579D01*
X5136253Y-9479579D02*
X5155300Y-9470055D01*
X5155300Y-9470055D02*
X5183872Y-9470055D01*
X5183872Y-9470055D02*
X5202920Y-9479579D01*
X5202920Y-9479579D02*
X5212443Y-9498627D01*
X5212443Y-9498627D02*
X5212443Y-9603389D01*
X5307681Y-9603389D02*
X5307681Y-9470055D01*
X5307681Y-9489103D02*
X5317205Y-9479579D01*
X5317205Y-9479579D02*
X5336253Y-9470055D01*
X5336253Y-9470055D02*
X5364824Y-9470055D01*
X5364824Y-9470055D02*
X5383872Y-9479579D01*
X5383872Y-9479579D02*
X5393396Y-9498627D01*
X5393396Y-9498627D02*
X5393396Y-9603389D01*
X5393396Y-9498627D02*
X5402920Y-9479579D01*
X5402920Y-9479579D02*
X5421967Y-9470055D01*
X5421967Y-9470055D02*
X5450539Y-9470055D01*
X5450539Y-9470055D02*
X5469586Y-9479579D01*
X5469586Y-9479579D02*
X5479110Y-9498627D01*
X5479110Y-9498627D02*
X5479110Y-9603389D01*
X5869586Y-9393865D02*
X5698158Y-9651008D01*
X6126729Y-9403389D02*
X6145777Y-9403389D01*
X6145777Y-9403389D02*
X6164824Y-9412913D01*
X6164824Y-9412913D02*
X6174348Y-9422436D01*
X6174348Y-9422436D02*
X6183872Y-9441484D01*
X6183872Y-9441484D02*
X6193396Y-9479579D01*
X6193396Y-9479579D02*
X6193396Y-9527198D01*
X6193396Y-9527198D02*
X6183872Y-9565294D01*
X6183872Y-9565294D02*
X6174348Y-9584341D01*
X6174348Y-9584341D02*
X6164824Y-9593865D01*
X6164824Y-9593865D02*
X6145777Y-9603389D01*
X6145777Y-9603389D02*
X6126729Y-9603389D01*
X6126729Y-9603389D02*
X6107681Y-9593865D01*
X6107681Y-9593865D02*
X6098158Y-9584341D01*
X6098158Y-9584341D02*
X6088634Y-9565294D01*
X6088634Y-9565294D02*
X6079110Y-9527198D01*
X6079110Y-9527198D02*
X6079110Y-9479579D01*
X6079110Y-9479579D02*
X6088634Y-9441484D01*
X6088634Y-9441484D02*
X6098158Y-9422436D01*
X6098158Y-9422436D02*
X6107681Y-9412913D01*
X6107681Y-9412913D02*
X6126729Y-9403389D01*
X6279110Y-9584341D02*
X6288634Y-9593865D01*
X6288634Y-9593865D02*
X6279110Y-9603389D01*
X6279110Y-9603389D02*
X6269586Y-9593865D01*
X6269586Y-9593865D02*
X6279110Y-9584341D01*
X6279110Y-9584341D02*
X6279110Y-9603389D01*
X6412443Y-9403389D02*
X6431491Y-9403389D01*
X6431491Y-9403389D02*
X6450539Y-9412913D01*
X6450539Y-9412913D02*
X6460062Y-9422436D01*
X6460062Y-9422436D02*
X6469586Y-9441484D01*
X6469586Y-9441484D02*
X6479110Y-9479579D01*
X6479110Y-9479579D02*
X6479110Y-9527198D01*
X6479110Y-9527198D02*
X6469586Y-9565294D01*
X6469586Y-9565294D02*
X6460062Y-9584341D01*
X6460062Y-9584341D02*
X6450539Y-9593865D01*
X6450539Y-9593865D02*
X6431491Y-9603389D01*
X6431491Y-9603389D02*
X6412443Y-9603389D01*
X6412443Y-9603389D02*
X6393396Y-9593865D01*
X6393396Y-9593865D02*
X6383872Y-9584341D01*
X6383872Y-9584341D02*
X6374348Y-9565294D01*
X6374348Y-9565294D02*
X6364824Y-9527198D01*
X6364824Y-9527198D02*
X6364824Y-9479579D01*
X6364824Y-9479579D02*
X6374348Y-9441484D01*
X6374348Y-9441484D02*
X6383872Y-9422436D01*
X6383872Y-9422436D02*
X6393396Y-9412913D01*
X6393396Y-9412913D02*
X6412443Y-9403389D01*
X6593396Y-9489103D02*
X6574348Y-9479579D01*
X6574348Y-9479579D02*
X6564824Y-9470055D01*
X6564824Y-9470055D02*
X6555301Y-9451008D01*
X6555301Y-9451008D02*
X6555301Y-9441484D01*
X6555301Y-9441484D02*
X6564824Y-9422436D01*
X6564824Y-9422436D02*
X6574348Y-9412913D01*
X6574348Y-9412913D02*
X6593396Y-9403389D01*
X6593396Y-9403389D02*
X6631491Y-9403389D01*
X6631491Y-9403389D02*
X6650539Y-9412913D01*
X6650539Y-9412913D02*
X6660062Y-9422436D01*
X6660062Y-9422436D02*
X6669586Y-9441484D01*
X6669586Y-9441484D02*
X6669586Y-9451008D01*
X6669586Y-9451008D02*
X6660062Y-9470055D01*
X6660062Y-9470055D02*
X6650539Y-9479579D01*
X6650539Y-9479579D02*
X6631491Y-9489103D01*
X6631491Y-9489103D02*
X6593396Y-9489103D01*
X6593396Y-9489103D02*
X6574348Y-9498627D01*
X6574348Y-9498627D02*
X6564824Y-9508151D01*
X6564824Y-9508151D02*
X6555301Y-9527198D01*
X6555301Y-9527198D02*
X6555301Y-9565294D01*
X6555301Y-9565294D02*
X6564824Y-9584341D01*
X6564824Y-9584341D02*
X6574348Y-9593865D01*
X6574348Y-9593865D02*
X6593396Y-9603389D01*
X6593396Y-9603389D02*
X6631491Y-9603389D01*
X6631491Y-9603389D02*
X6650539Y-9593865D01*
X6650539Y-9593865D02*
X6660062Y-9584341D01*
X6660062Y-9584341D02*
X6669586Y-9565294D01*
X6669586Y-9565294D02*
X6669586Y-9527198D01*
X6669586Y-9527198D02*
X6660062Y-9508151D01*
X6660062Y-9508151D02*
X6650539Y-9498627D01*
X6650539Y-9498627D02*
X6631491Y-9489103D01*
X6841015Y-9403389D02*
X6802920Y-9403389D01*
X6802920Y-9403389D02*
X6783872Y-9412913D01*
X6783872Y-9412913D02*
X6774348Y-9422436D01*
X6774348Y-9422436D02*
X6755301Y-9451008D01*
X6755301Y-9451008D02*
X6745777Y-9489103D01*
X6745777Y-9489103D02*
X6745777Y-9565294D01*
X6745777Y-9565294D02*
X6755301Y-9584341D01*
X6755301Y-9584341D02*
X6764824Y-9593865D01*
X6764824Y-9593865D02*
X6783872Y-9603389D01*
X6783872Y-9603389D02*
X6821967Y-9603389D01*
X6821967Y-9603389D02*
X6841015Y-9593865D01*
X6841015Y-9593865D02*
X6850539Y-9584341D01*
X6850539Y-9584341D02*
X6860062Y-9565294D01*
X6860062Y-9565294D02*
X6860062Y-9517675D01*
X6860062Y-9517675D02*
X6850539Y-9498627D01*
X6850539Y-9498627D02*
X6841015Y-9489103D01*
X6841015Y-9489103D02*
X6821967Y-9479579D01*
X6821967Y-9479579D02*
X6783872Y-9479579D01*
X6783872Y-9479579D02*
X6764824Y-9489103D01*
X6764824Y-9489103D02*
X6755301Y-9498627D01*
X6755301Y-9498627D02*
X6745777Y-9517675D01*
X7031491Y-9403389D02*
X6993396Y-9403389D01*
X6993396Y-9403389D02*
X6974348Y-9412913D01*
X6974348Y-9412913D02*
X6964824Y-9422436D01*
X6964824Y-9422436D02*
X6945777Y-9451008D01*
X6945777Y-9451008D02*
X6936253Y-9489103D01*
X6936253Y-9489103D02*
X6936253Y-9565294D01*
X6936253Y-9565294D02*
X6945777Y-9584341D01*
X6945777Y-9584341D02*
X6955301Y-9593865D01*
X6955301Y-9593865D02*
X6974348Y-9603389D01*
X6974348Y-9603389D02*
X7012443Y-9603389D01*
X7012443Y-9603389D02*
X7031491Y-9593865D01*
X7031491Y-9593865D02*
X7041015Y-9584341D01*
X7041015Y-9584341D02*
X7050539Y-9565294D01*
X7050539Y-9565294D02*
X7050539Y-9517675D01*
X7050539Y-9517675D02*
X7041015Y-9498627D01*
X7041015Y-9498627D02*
X7031491Y-9489103D01*
X7031491Y-9489103D02*
X7012443Y-9479579D01*
X7012443Y-9479579D02*
X6974348Y-9479579D01*
X6974348Y-9479579D02*
X6955301Y-9489103D01*
X6955301Y-9489103D02*
X6945777Y-9498627D01*
X6945777Y-9498627D02*
X6936253Y-9517675D01*
X7126729Y-9403389D02*
X7126729Y-9441484D01*
X7202920Y-9403389D02*
X7202920Y-9441484D01*
X7498158Y-9679579D02*
X7488634Y-9670055D01*
X7488634Y-9670055D02*
X7469586Y-9641484D01*
X7469586Y-9641484D02*
X7460063Y-9622436D01*
X7460063Y-9622436D02*
X7450539Y-9593865D01*
X7450539Y-9593865D02*
X7441015Y-9546246D01*
X7441015Y-9546246D02*
X7441015Y-9508151D01*
X7441015Y-9508151D02*
X7450539Y-9460532D01*
X7450539Y-9460532D02*
X7460063Y-9431960D01*
X7460063Y-9431960D02*
X7469586Y-9412913D01*
X7469586Y-9412913D02*
X7488634Y-9384341D01*
X7488634Y-9384341D02*
X7498158Y-9374817D01*
X7564824Y-9422436D02*
X7574348Y-9412913D01*
X7574348Y-9412913D02*
X7593396Y-9403389D01*
X7593396Y-9403389D02*
X7641015Y-9403389D01*
X7641015Y-9403389D02*
X7660063Y-9412913D01*
X7660063Y-9412913D02*
X7669586Y-9422436D01*
X7669586Y-9422436D02*
X7679110Y-9441484D01*
X7679110Y-9441484D02*
X7679110Y-9460532D01*
X7679110Y-9460532D02*
X7669586Y-9489103D01*
X7669586Y-9489103D02*
X7555301Y-9603389D01*
X7555301Y-9603389D02*
X7679110Y-9603389D01*
X7917205Y-9603389D02*
X7917205Y-9403389D01*
X8002920Y-9603389D02*
X8002920Y-9498627D01*
X8002920Y-9498627D02*
X7993396Y-9479579D01*
X7993396Y-9479579D02*
X7974348Y-9470055D01*
X7974348Y-9470055D02*
X7945777Y-9470055D01*
X7945777Y-9470055D02*
X7926729Y-9479579D01*
X7926729Y-9479579D02*
X7917205Y-9489103D01*
X8126729Y-9603389D02*
X8107682Y-9593865D01*
X8107682Y-9593865D02*
X8098158Y-9584341D01*
X8098158Y-9584341D02*
X8088634Y-9565294D01*
X8088634Y-9565294D02*
X8088634Y-9508151D01*
X8088634Y-9508151D02*
X8098158Y-9489103D01*
X8098158Y-9489103D02*
X8107682Y-9479579D01*
X8107682Y-9479579D02*
X8126729Y-9470055D01*
X8126729Y-9470055D02*
X8155301Y-9470055D01*
X8155301Y-9470055D02*
X8174348Y-9479579D01*
X8174348Y-9479579D02*
X8183872Y-9489103D01*
X8183872Y-9489103D02*
X8193396Y-9508151D01*
X8193396Y-9508151D02*
X8193396Y-9565294D01*
X8193396Y-9565294D02*
X8183872Y-9584341D01*
X8183872Y-9584341D02*
X8174348Y-9593865D01*
X8174348Y-9593865D02*
X8155301Y-9603389D01*
X8155301Y-9603389D02*
X8126729Y-9603389D01*
X8307682Y-9603389D02*
X8288634Y-9593865D01*
X8288634Y-9593865D02*
X8279110Y-9574817D01*
X8279110Y-9574817D02*
X8279110Y-9403389D01*
X8460063Y-9593865D02*
X8441015Y-9603389D01*
X8441015Y-9603389D02*
X8402920Y-9603389D01*
X8402920Y-9603389D02*
X8383872Y-9593865D01*
X8383872Y-9593865D02*
X8374348Y-9574817D01*
X8374348Y-9574817D02*
X8374348Y-9498627D01*
X8374348Y-9498627D02*
X8383872Y-9479579D01*
X8383872Y-9479579D02*
X8402920Y-9470055D01*
X8402920Y-9470055D02*
X8441015Y-9470055D01*
X8441015Y-9470055D02*
X8460063Y-9479579D01*
X8460063Y-9479579D02*
X8469587Y-9498627D01*
X8469587Y-9498627D02*
X8469587Y-9517675D01*
X8469587Y-9517675D02*
X8374348Y-9536722D01*
X8545777Y-9593865D02*
X8564825Y-9603389D01*
X8564825Y-9603389D02*
X8602920Y-9603389D01*
X8602920Y-9603389D02*
X8621968Y-9593865D01*
X8621968Y-9593865D02*
X8631491Y-9574817D01*
X8631491Y-9574817D02*
X8631491Y-9565294D01*
X8631491Y-9565294D02*
X8621968Y-9546246D01*
X8621968Y-9546246D02*
X8602920Y-9536722D01*
X8602920Y-9536722D02*
X8574348Y-9536722D01*
X8574348Y-9536722D02*
X8555301Y-9527198D01*
X8555301Y-9527198D02*
X8545777Y-9508151D01*
X8545777Y-9508151D02*
X8545777Y-9498627D01*
X8545777Y-9498627D02*
X8555301Y-9479579D01*
X8555301Y-9479579D02*
X8574348Y-9470055D01*
X8574348Y-9470055D02*
X8602920Y-9470055D01*
X8602920Y-9470055D02*
X8621968Y-9479579D01*
X8698158Y-9679579D02*
X8707682Y-9670055D01*
X8707682Y-9670055D02*
X8726729Y-9641484D01*
X8726729Y-9641484D02*
X8736253Y-9622436D01*
X8736253Y-9622436D02*
X8745777Y-9593865D01*
X8745777Y-9593865D02*
X8755301Y-9546246D01*
X8755301Y-9546246D02*
X8755301Y-9508151D01*
X8755301Y-9508151D02*
X8745777Y-9460532D01*
X8745777Y-9460532D02*
X8736253Y-9431960D01*
X8736253Y-9431960D02*
X8726729Y-9412913D01*
X8726729Y-9412913D02*
X8707682Y-9384341D01*
X8707682Y-9384341D02*
X8698158Y-9374817D01*
M02*
