G04 #@! TF.GenerationSoftware,KiCad,Pcbnew,9.0.7*
G04 #@! TF.CreationDate,2026-03-11T11:46:52-04:00*
G04 #@! TF.ProjectId,shiftclock-5.0,73686966-7463-46c6-9f63-6b2d352e302e,rev?*
G04 #@! TF.SameCoordinates,Original*
G04 #@! TF.FileFunction,Copper,L4,Bot*
G04 #@! TF.FilePolarity,Positive*
%FSLAX46Y46*%
G04 Gerber Fmt 4.6, Leading zero omitted, Abs format (unit mm)*
G04 Created by KiCad (PCBNEW 9.0.7) date 2026-03-11 11:46:52*
%MOMM*%
%LPD*%
G01*
G04 APERTURE LIST*
G04 Aperture macros list*
%AMRoundRect*
0 Rectangle with rounded corners*
0 $1 Rounding radius*
0 $2 $3 $4 $5 $6 $7 $8 $9 X,Y pos of 4 corners*
0 Add a 4 corners polygon primitive as box body*
4,1,4,$2,$3,$4,$5,$6,$7,$8,$9,$2,$3,0*
0 Add four circle primitives for the rounded corners*
1,1,$1+$1,$2,$3*
1,1,$1+$1,$4,$5*
1,1,$1+$1,$6,$7*
1,1,$1+$1,$8,$9*
0 Add four rect primitives between the rounded corners*
20,1,$1+$1,$2,$3,$4,$5,0*
20,1,$1+$1,$4,$5,$6,$7,0*
20,1,$1+$1,$6,$7,$8,$9,0*
20,1,$1+$1,$8,$9,$2,$3,0*%
G04 Aperture macros list end*
G04 #@! TA.AperFunction,ComponentPad*
%ADD10R,1.500000X1.500000*%
G04 #@! TD*
G04 #@! TA.AperFunction,ComponentPad*
%ADD11C,1.500000*%
G04 #@! TD*
G04 #@! TA.AperFunction,SMDPad,CuDef*
%ADD12RoundRect,0.250000X-0.650000X0.412500X-0.650000X-0.412500X0.650000X-0.412500X0.650000X0.412500X0*%
G04 #@! TD*
G04 #@! TA.AperFunction,SMDPad,CuDef*
%ADD13R,2.000000X2.000000*%
G04 #@! TD*
G04 #@! TA.AperFunction,SMDPad,CuDef*
%ADD14RoundRect,0.250000X-0.625000X0.400000X-0.625000X-0.400000X0.625000X-0.400000X0.625000X0.400000X0*%
G04 #@! TD*
G04 #@! TA.AperFunction,ComponentPad*
%ADD15R,1.560000X1.560000*%
G04 #@! TD*
G04 #@! TA.AperFunction,ComponentPad*
%ADD16C,1.560000*%
G04 #@! TD*
G04 #@! TA.AperFunction,SMDPad,CuDef*
%ADD17RoundRect,0.150000X-0.150000X0.875000X-0.150000X-0.875000X0.150000X-0.875000X0.150000X0.875000X0*%
G04 #@! TD*
G04 #@! TA.AperFunction,SMDPad,CuDef*
%ADD18R,1.250000X1.000000*%
G04 #@! TD*
G04 #@! TA.AperFunction,SMDPad,CuDef*
%ADD19RoundRect,0.250000X0.400000X0.625000X-0.400000X0.625000X-0.400000X-0.625000X0.400000X-0.625000X0*%
G04 #@! TD*
G04 #@! TA.AperFunction,SMDPad,CuDef*
%ADD20R,0.500000X2.000000*%
G04 #@! TD*
G04 #@! TA.AperFunction,SMDPad,CuDef*
%ADD21RoundRect,0.250000X0.412500X0.650000X-0.412500X0.650000X-0.412500X-0.650000X0.412500X-0.650000X0*%
G04 #@! TD*
G04 #@! TA.AperFunction,SMDPad,CuDef*
%ADD22R,1.160000X0.600000*%
G04 #@! TD*
G04 #@! TA.AperFunction,SMDPad,CuDef*
%ADD23R,1.160000X0.300000*%
G04 #@! TD*
G04 #@! TA.AperFunction,HeatsinkPad*
%ADD24O,2.000000X0.900000*%
G04 #@! TD*
G04 #@! TA.AperFunction,HeatsinkPad*
%ADD25O,1.700000X0.900000*%
G04 #@! TD*
G04 #@! TA.AperFunction,SMDPad,CuDef*
%ADD26R,1.500000X0.900000*%
G04 #@! TD*
G04 #@! TA.AperFunction,HeatsinkPad*
%ADD27C,0.600000*%
G04 #@! TD*
G04 #@! TA.AperFunction,HeatsinkPad*
%ADD28R,2.900000X2.900000*%
G04 #@! TD*
G04 #@! TA.AperFunction,SMDPad,CuDef*
%ADD29RoundRect,0.250000X0.625000X-0.400000X0.625000X0.400000X-0.625000X0.400000X-0.625000X-0.400000X0*%
G04 #@! TD*
G04 #@! TA.AperFunction,SMDPad,CuDef*
%ADD30RoundRect,0.250000X0.650000X-0.412500X0.650000X0.412500X-0.650000X0.412500X-0.650000X-0.412500X0*%
G04 #@! TD*
G04 #@! TA.AperFunction,SMDPad,CuDef*
%ADD31RoundRect,0.250000X-0.400000X-0.625000X0.400000X-0.625000X0.400000X0.625000X-0.400000X0.625000X0*%
G04 #@! TD*
G04 #@! TA.AperFunction,SMDPad,CuDef*
%ADD32RoundRect,0.250000X0.400000X0.600000X-0.400000X0.600000X-0.400000X-0.600000X0.400000X-0.600000X0*%
G04 #@! TD*
G04 #@! TA.AperFunction,SMDPad,CuDef*
%ADD33RoundRect,0.150000X-0.150000X0.825000X-0.150000X-0.825000X0.150000X-0.825000X0.150000X0.825000X0*%
G04 #@! TD*
G04 #@! TA.AperFunction,SMDPad,CuDef*
%ADD34RoundRect,0.150000X0.150000X-0.587500X0.150000X0.587500X-0.150000X0.587500X-0.150000X-0.587500X0*%
G04 #@! TD*
G04 #@! TA.AperFunction,SMDPad,CuDef*
%ADD35RoundRect,0.062500X0.350000X0.062500X-0.350000X0.062500X-0.350000X-0.062500X0.350000X-0.062500X0*%
G04 #@! TD*
G04 #@! TA.AperFunction,SMDPad,CuDef*
%ADD36RoundRect,0.062500X0.062500X0.350000X-0.062500X0.350000X-0.062500X-0.350000X0.062500X-0.350000X0*%
G04 #@! TD*
G04 #@! TA.AperFunction,HeatsinkPad*
%ADD37R,1.230000X1.230000*%
G04 #@! TD*
G04 #@! TA.AperFunction,SMDPad,CuDef*
%ADD38RoundRect,0.150000X-0.512500X-0.150000X0.512500X-0.150000X0.512500X0.150000X-0.512500X0.150000X0*%
G04 #@! TD*
G04 #@! TA.AperFunction,ViaPad*
%ADD39C,0.600000*%
G04 #@! TD*
G04 #@! TA.AperFunction,Conductor*
%ADD40C,0.127000*%
G04 #@! TD*
G04 #@! TA.AperFunction,Conductor*
%ADD41C,0.250000*%
G04 #@! TD*
G04 #@! TA.AperFunction,Conductor*
%ADD42C,0.152400*%
G04 #@! TD*
G04 APERTURE END LIST*
D10*
X108000000Y-64250000D03*
D11*
X110540000Y-64250000D03*
X113080000Y-64250000D03*
X115620000Y-64250000D03*
X118160000Y-64250000D03*
X120700000Y-64250000D03*
X120700000Y-49010000D03*
X118160000Y-49010000D03*
X115620000Y-49010000D03*
X113080000Y-49010000D03*
X110540000Y-49010000D03*
X108000000Y-49010000D03*
D10*
X57150000Y-64250000D03*
D11*
X59690000Y-64250000D03*
X62230000Y-64250000D03*
X64770000Y-64250000D03*
X67310000Y-64250000D03*
X69850000Y-64250000D03*
X69850000Y-49010000D03*
X67310000Y-49010000D03*
X64770000Y-49010000D03*
X62230000Y-49010000D03*
X59690000Y-49010000D03*
X57150000Y-49010000D03*
D12*
X102500000Y-57562500D03*
X102500000Y-54437500D03*
D13*
X69000000Y-52500000D03*
X61500000Y-53500000D03*
X77000000Y-63000000D03*
X53000000Y-49000000D03*
X41500000Y-63500000D03*
X50728669Y-63479611D03*
X45500000Y-64500000D03*
D14*
X102500000Y-59450000D03*
X102500000Y-62550000D03*
D15*
X141500000Y-59000000D03*
D16*
X146500000Y-56500000D03*
X141500000Y-54000000D03*
D17*
X107365000Y-52122500D03*
X108635000Y-52122500D03*
X109905000Y-52122500D03*
X111175000Y-52122500D03*
X112445000Y-52122500D03*
X113715000Y-52122500D03*
X114985000Y-52122500D03*
X116255000Y-52122500D03*
X117525000Y-52122500D03*
X118795000Y-52122500D03*
X120065000Y-52122500D03*
X121335000Y-52122500D03*
X121335000Y-61422500D03*
X120065000Y-61422500D03*
X118795000Y-61422500D03*
X117525000Y-61422500D03*
X116255000Y-61422500D03*
X114985000Y-61422500D03*
X113715000Y-61422500D03*
X112445000Y-61422500D03*
X111175000Y-61422500D03*
X109905000Y-61422500D03*
X108635000Y-61422500D03*
X107365000Y-61422500D03*
D18*
X124000000Y-52000000D03*
X131750000Y-52000000D03*
D19*
X144340000Y-56500000D03*
X141240000Y-56500000D03*
D12*
X54500000Y-58937500D03*
X54500000Y-62062500D03*
D19*
X74550000Y-55000000D03*
X71450000Y-55000000D03*
D18*
X124000000Y-57500000D03*
X131750000Y-57500000D03*
D12*
X54500000Y-53437500D03*
X54500000Y-56562500D03*
D20*
X52000000Y-59650000D03*
X52000000Y-56350000D03*
D21*
X36562500Y-60500000D03*
X33437500Y-60500000D03*
D19*
X60000000Y-56500000D03*
X56900000Y-56500000D03*
D22*
X30885000Y-64380000D03*
X30885000Y-63580000D03*
D23*
X30885000Y-62430000D03*
X30885000Y-61430000D03*
X30885000Y-60930000D03*
X30885000Y-59930000D03*
D22*
X30885000Y-58780000D03*
X30885000Y-57980000D03*
X30885000Y-57980000D03*
X30885000Y-58780000D03*
D23*
X30885000Y-59430000D03*
X30885000Y-60430000D03*
X30885000Y-61930000D03*
X30885000Y-62930000D03*
D22*
X30885000Y-63580000D03*
X30885000Y-64380000D03*
D24*
X30305000Y-65500000D03*
D25*
X26135000Y-65500000D03*
D24*
X30305000Y-56860000D03*
D25*
X26135000Y-56860000D03*
D21*
X36562500Y-55500000D03*
X33437500Y-55500000D03*
X36625000Y-51500000D03*
X33500000Y-51500000D03*
D26*
X97110000Y-52800000D03*
X97110000Y-54300000D03*
X97110000Y-55800000D03*
X97110000Y-57300000D03*
X97110000Y-58800000D03*
X97110000Y-60300000D03*
X97110000Y-61800000D03*
X97110000Y-63300000D03*
X97110000Y-64800000D03*
X79610000Y-64800000D03*
X79610000Y-63300000D03*
X79610000Y-61800000D03*
X79610000Y-60300000D03*
X79610000Y-58800000D03*
X79610000Y-57300000D03*
X79610000Y-55800000D03*
X79610000Y-54300000D03*
X79610000Y-52800000D03*
D27*
X88500000Y-58450000D03*
X88500000Y-59550000D03*
X87950000Y-57900000D03*
X87950000Y-59000000D03*
X87950000Y-60100000D03*
X87400000Y-58450000D03*
D28*
X87400000Y-59000000D03*
D27*
X87400000Y-59550000D03*
X86850000Y-57900000D03*
X86850000Y-59000000D03*
X86850000Y-60100000D03*
X86300000Y-58450000D03*
X86300000Y-59550000D03*
D29*
X100000000Y-57550000D03*
X100000000Y-54450000D03*
D30*
X67500000Y-59062500D03*
X67500000Y-55937500D03*
D31*
X71450000Y-62000000D03*
X74550000Y-62000000D03*
D32*
X36750000Y-58000000D03*
X33250000Y-58000000D03*
D19*
X36550000Y-64500000D03*
X33450000Y-64500000D03*
X31050000Y-54500000D03*
X27950000Y-54500000D03*
D21*
X65062500Y-61000000D03*
X61937500Y-61000000D03*
D12*
X47000000Y-58937500D03*
X47000000Y-62062500D03*
D33*
X40555000Y-51025000D03*
X41825000Y-51025000D03*
X43095000Y-51025000D03*
X44365000Y-51025000D03*
X45635000Y-51025000D03*
X46905000Y-51025000D03*
X48175000Y-51025000D03*
X49445000Y-51025000D03*
X49445000Y-55975000D03*
X48175000Y-55975000D03*
X46905000Y-55975000D03*
X45635000Y-55975000D03*
X44365000Y-55975000D03*
X43095000Y-55975000D03*
X41825000Y-55975000D03*
X40555000Y-55975000D03*
D34*
X71900000Y-59500000D03*
X70000000Y-59500000D03*
X70950000Y-57625000D03*
D14*
X100000000Y-59450000D03*
X100000000Y-62550000D03*
D31*
X56900000Y-59000000D03*
X60000000Y-59000000D03*
D12*
X44500000Y-58937500D03*
X44500000Y-62062500D03*
D35*
X65000000Y-56500000D03*
X65000000Y-57000000D03*
X65000000Y-57500000D03*
X65000000Y-58000000D03*
D36*
X64312500Y-58687500D03*
X63812500Y-58687500D03*
X63312500Y-58687500D03*
X62812500Y-58687500D03*
D35*
X62125000Y-58000000D03*
X62125000Y-57500000D03*
X62125000Y-57000000D03*
X62125000Y-56500000D03*
D36*
X62812500Y-55812500D03*
X63312500Y-55812500D03*
X63812500Y-55812500D03*
X64312500Y-55812500D03*
D37*
X63562500Y-57250000D03*
D34*
X75900000Y-59500000D03*
X74000000Y-59500000D03*
X74950000Y-57625000D03*
D38*
X39862500Y-60950000D03*
X39862500Y-60000000D03*
X39862500Y-59050000D03*
X42137500Y-59050000D03*
X42137500Y-60950000D03*
D39*
X134000000Y-63500000D03*
X134000000Y-62500000D03*
X107750000Y-58250000D03*
X134000000Y-55500000D03*
X134000000Y-54500000D03*
X134000000Y-53500000D03*
X117000000Y-59504569D03*
X69500000Y-63000000D03*
X105500000Y-54500000D03*
X109000000Y-60000000D03*
X111500000Y-59500000D03*
X114500000Y-58500000D03*
X81500000Y-57500000D03*
X83000000Y-53500000D03*
X106500000Y-61000000D03*
X82500000Y-58014069D03*
X106500000Y-50000000D03*
X84000000Y-53000000D03*
X113500000Y-59000000D03*
X115981407Y-54509500D03*
X113000000Y-54000000D03*
X116500000Y-54000000D03*
X121500000Y-59000000D03*
X63812500Y-57000000D03*
X63317524Y-57494976D03*
X100000000Y-56000000D03*
X76000000Y-57000000D03*
X68000000Y-60500000D03*
X83500000Y-61000000D03*
X31930000Y-59430000D03*
X31930000Y-55500000D03*
X123500000Y-60500000D03*
X39000000Y-65000000D03*
X116000000Y-59504569D03*
X38000000Y-62000000D03*
X37000000Y-62000000D03*
X38500000Y-65500000D03*
X107000000Y-54500000D03*
X104500000Y-55500000D03*
X98700000Y-58800000D03*
X85000000Y-58508500D03*
X65000000Y-53500000D03*
X65000000Y-54500000D03*
X84000000Y-59000000D03*
X81000000Y-59500000D03*
X66000000Y-56500000D03*
D40*
X98500000Y-60500000D02*
X98300000Y-60300000D01*
X98300000Y-60300000D02*
X97110000Y-60300000D01*
X103500000Y-60500000D02*
X98500000Y-60500000D01*
X103500000Y-58500000D02*
X104000000Y-59000000D01*
X101500000Y-58500000D02*
X103500000Y-58500000D01*
X101230984Y-56769016D02*
X101230984Y-58230984D01*
X104000000Y-59000000D02*
X104000000Y-60000000D01*
X101230984Y-58230984D02*
X101500000Y-58500000D01*
X104000000Y-60000000D02*
X103500000Y-60500000D01*
X95500000Y-61066500D02*
X103433500Y-61066500D01*
X103433500Y-61066500D02*
X104500000Y-60000000D01*
X104500000Y-60000000D02*
X104500000Y-58500000D01*
X104500000Y-58500000D02*
X103562500Y-57562500D01*
X103562500Y-57562500D02*
X102500000Y-57562500D01*
X102500000Y-62550000D02*
X103950000Y-62550000D01*
X103950000Y-62550000D02*
X105000000Y-61500000D01*
X105000000Y-61500000D02*
X105000000Y-60000000D01*
X105000000Y-60000000D02*
X107500000Y-57500000D01*
X107500000Y-57500000D02*
X124000000Y-57500000D01*
X98300000Y-63300000D02*
X98500000Y-63500000D01*
X97110000Y-63300000D02*
X98300000Y-63300000D01*
X98500000Y-63500000D02*
X98500000Y-65000000D01*
X102500000Y-62550000D02*
X100050000Y-65000000D01*
X100050000Y-65000000D02*
X98500000Y-65000000D01*
X100000000Y-62550000D02*
X99050000Y-62550000D01*
X99050000Y-62550000D02*
X98300000Y-61800000D01*
X98300000Y-61800000D02*
X97110000Y-61800000D01*
X102500000Y-59450000D02*
X100000000Y-59450000D01*
X100000000Y-56000000D02*
X100000000Y-54450000D01*
X31930000Y-55500000D02*
X31930000Y-55380000D01*
X31930000Y-55380000D02*
X31050000Y-54500000D01*
D41*
X45500000Y-65874000D02*
X103626000Y-65874000D01*
X45500000Y-65874000D02*
X45500000Y-64500000D01*
X39500000Y-65874000D02*
X45500000Y-65874000D01*
X103626000Y-65874000D02*
X105500000Y-64000000D01*
X107071205Y-58928795D02*
X112246294Y-58928795D01*
X105500000Y-64000000D02*
X105500000Y-60500000D01*
X105500000Y-60500000D02*
X107071205Y-58928795D01*
X112246294Y-58928795D02*
X113715000Y-60397501D01*
X50500000Y-61000000D02*
X50708500Y-61208500D01*
X50500000Y-61000000D02*
X50728669Y-61228669D01*
X50728669Y-61228669D02*
X50728669Y-63479611D01*
D40*
X47000000Y-62062500D02*
X47000000Y-63000000D01*
X47000000Y-63000000D02*
X49500000Y-65500000D01*
X49500000Y-65500000D02*
X52000000Y-65500000D01*
X52000000Y-65500000D02*
X54500000Y-63000000D01*
X54500000Y-63000000D02*
X54500000Y-62062500D01*
X121335000Y-52122500D02*
X121335000Y-50665000D01*
X80200000Y-64800000D02*
X79610000Y-64800000D01*
X121335000Y-50665000D02*
X122000000Y-50000000D01*
X122000000Y-50000000D02*
X122000000Y-48000000D01*
X122000000Y-48000000D02*
X121000000Y-47000000D01*
X121000000Y-47000000D02*
X106500000Y-47000000D01*
X106500000Y-47000000D02*
X105000000Y-48500000D01*
X105000000Y-48500000D02*
X105000000Y-50500000D01*
X105000000Y-50500000D02*
X103341500Y-52158500D01*
X103341500Y-52158500D02*
X86841500Y-52158500D01*
X86841500Y-52158500D02*
X83000000Y-56000000D01*
X83000000Y-56000000D02*
X83000000Y-62000000D01*
X83000000Y-62000000D02*
X80200000Y-64800000D01*
X121500000Y-59000000D02*
X122500000Y-60000000D01*
X122500000Y-60000000D02*
X122500000Y-62450000D01*
X122500000Y-62450000D02*
X120700000Y-64250000D01*
X107750000Y-58250000D02*
X108000000Y-58000000D01*
X108000000Y-58000000D02*
X118937499Y-58000000D01*
X118937499Y-58000000D02*
X121335000Y-60397501D01*
X121335000Y-60397501D02*
X121335000Y-61422500D01*
X44500000Y-62062500D02*
X47000000Y-62062500D01*
X61500000Y-52000000D02*
X51500000Y-52000000D01*
X61500000Y-52000000D02*
X61500000Y-53500000D01*
X69000000Y-52500000D02*
X71000000Y-52500000D01*
X71000000Y-52500000D02*
X73500000Y-55000000D01*
X51000000Y-51500000D02*
X68000000Y-51500000D01*
X68000000Y-51500000D02*
X69000000Y-52500000D01*
X70000000Y-59500000D02*
X70000000Y-56500000D01*
X70000000Y-56500000D02*
X65500000Y-52000000D01*
X65500000Y-52000000D02*
X61500000Y-52000000D01*
X51500000Y-52000000D02*
X49000000Y-54500000D01*
X49000000Y-54500000D02*
X44865001Y-54500000D01*
X44865001Y-54500000D02*
X44365000Y-55000001D01*
X44365000Y-55000001D02*
X44365000Y-55975000D01*
X62125000Y-57000000D02*
X61500000Y-57000000D01*
X61500000Y-57000000D02*
X61000000Y-56500000D01*
X61000000Y-56500000D02*
X61000000Y-55500000D01*
X61000000Y-55500000D02*
X58937500Y-53437500D01*
X58937500Y-53437500D02*
X54500000Y-53437500D01*
X41500000Y-63500000D02*
X43062500Y-63500000D01*
X43062500Y-63500000D02*
X44500000Y-62062500D01*
X41500000Y-62125000D02*
X41500000Y-63500000D01*
X39862500Y-60000000D02*
X40524999Y-60000000D01*
X40524999Y-60000000D02*
X41000000Y-60475001D01*
X41000000Y-60475001D02*
X41000000Y-61625000D01*
X41000000Y-61625000D02*
X41500000Y-62125000D01*
X36550000Y-64500000D02*
X37250000Y-63800000D01*
X37250000Y-63800000D02*
X41200000Y-63800000D01*
X41200000Y-63800000D02*
X41500000Y-63500000D01*
X78800000Y-61800000D02*
X77600000Y-63000000D01*
X77600000Y-63000000D02*
X77000000Y-63000000D01*
X53000000Y-50500000D02*
X51500000Y-50500000D01*
X53000000Y-50500000D02*
X53000000Y-49000000D01*
X117525000Y-61422500D02*
X117525000Y-60029569D01*
X117525000Y-60029569D02*
X117000000Y-59504569D01*
X69500000Y-63000000D02*
X60940000Y-63000000D01*
X110540000Y-64250000D02*
X108635000Y-62345000D01*
X108635000Y-62345000D02*
X108635000Y-61422500D01*
X60940000Y-63000000D02*
X59690000Y-64250000D01*
X116255000Y-62345000D02*
X116255000Y-61422500D01*
X118160000Y-64250000D02*
X116255000Y-62345000D01*
X117981483Y-47500000D02*
X119500000Y-49018517D01*
X120065000Y-50565000D02*
X120065000Y-52122500D01*
X119500000Y-50000000D02*
X120065000Y-50565000D01*
X105500000Y-49000000D02*
X107000000Y-47500000D01*
X119500000Y-49018517D02*
X119500000Y-50000000D01*
X107000000Y-47500000D02*
X117981483Y-47500000D01*
X105500000Y-54500000D02*
X105500000Y-49000000D01*
X109905000Y-62905000D02*
X110000000Y-63000000D01*
X109000000Y-60000000D02*
X109905000Y-60905000D01*
X110000000Y-63000000D02*
X111830000Y-63000000D01*
X109905000Y-60905000D02*
X109905000Y-61422500D01*
X111830000Y-63000000D02*
X113080000Y-64250000D01*
X109905000Y-61422500D02*
X109905000Y-62905000D01*
X114750000Y-64250000D02*
X115620000Y-64250000D01*
X112445000Y-60445000D02*
X112445000Y-61422500D01*
X113000000Y-63000000D02*
X113500000Y-63000000D01*
X112445000Y-61422500D02*
X112445000Y-62445000D01*
X111500000Y-59500000D02*
X112445000Y-60445000D01*
X113500000Y-63000000D02*
X114750000Y-64250000D01*
X112445000Y-62445000D02*
X113000000Y-63000000D01*
X114500000Y-58500000D02*
X118500000Y-58500000D01*
X81500000Y-56500000D02*
X81500000Y-57500000D01*
X118500000Y-58500000D02*
X120065000Y-60065000D01*
X83000000Y-53500000D02*
X83000000Y-55000000D01*
X120065000Y-60065000D02*
X120065000Y-61422500D01*
X83000000Y-55000000D02*
X81500000Y-56500000D01*
X107500000Y-59500000D02*
X110277499Y-59500000D01*
X111175000Y-60397501D02*
X111175000Y-61422500D01*
X106500000Y-60500000D02*
X107500000Y-59500000D01*
X106500000Y-61000000D02*
X106500000Y-60500000D01*
X106500000Y-63500000D02*
X107250000Y-64250000D01*
X106500000Y-61000000D02*
X106500000Y-63500000D01*
X107250000Y-64250000D02*
X108000000Y-64250000D01*
X110277499Y-59500000D02*
X111175000Y-60397501D01*
X108635000Y-51135000D02*
X108635000Y-52122500D01*
X84000000Y-54500000D02*
X82500000Y-56000000D01*
X84000000Y-53000000D02*
X84000000Y-54500000D01*
X82500000Y-56000000D02*
X82500000Y-58014069D01*
X106500000Y-50000000D02*
X107500000Y-50000000D01*
X107500000Y-50000000D02*
X108635000Y-51135000D01*
X118000000Y-59000000D02*
X118795000Y-59795000D01*
X113500000Y-59000000D02*
X118000000Y-59000000D01*
X118795000Y-59795000D02*
X118795000Y-61422500D01*
X114985000Y-52122500D02*
X114985000Y-53513093D01*
X114985000Y-53513093D02*
X115981407Y-54509500D01*
X113715000Y-52785000D02*
X113715000Y-52122500D01*
X113000000Y-53500000D02*
X113715000Y-52785000D01*
X113000000Y-54000000D02*
X113000000Y-53500000D01*
X115620000Y-49010000D02*
X115620000Y-49620000D01*
X118795000Y-51097501D02*
X118795000Y-52122500D01*
X118197499Y-50500000D02*
X118795000Y-51097501D01*
X115620000Y-49620000D02*
X116500000Y-50500000D01*
X116500000Y-50500000D02*
X118197499Y-50500000D01*
X109905000Y-52122500D02*
X109905000Y-50915000D01*
X109905000Y-50915000D02*
X108000000Y-49010000D01*
X116255000Y-53755000D02*
X116255000Y-52122500D01*
X116500000Y-54000000D02*
X116255000Y-53755000D01*
X114500000Y-48500000D02*
X115000000Y-48000000D01*
X117150000Y-48000000D02*
X118160000Y-49010000D01*
X114500000Y-49042501D02*
X114500000Y-48500000D01*
X115000000Y-48000000D02*
X117150000Y-48000000D01*
X112445000Y-51097501D02*
X114500000Y-49042501D01*
X112445000Y-52122500D02*
X112445000Y-51097501D01*
X69000000Y-60500000D02*
X69000000Y-57437500D01*
X117525000Y-53147499D02*
X117525000Y-53843638D01*
X63812500Y-57500000D02*
X65000000Y-57500000D01*
X63437500Y-62500000D02*
X67000000Y-62500000D01*
X26135000Y-56860000D02*
X26135000Y-55365000D01*
X34500000Y-56562500D02*
X34500000Y-59437500D01*
X90016500Y-61066500D02*
X88500000Y-59550000D01*
X30305000Y-65500000D02*
X30740500Y-65935500D01*
X30305000Y-65500000D02*
X26135000Y-65500000D01*
X117525000Y-53147499D02*
X117525000Y-52122500D01*
X96300000Y-64800000D02*
X95500000Y-64000000D01*
X111175000Y-54175000D02*
X112000000Y-55000000D01*
X97110000Y-64800000D02*
X96300000Y-64800000D01*
X26135000Y-55365000D02*
X27000000Y-54500000D01*
X34500000Y-59437500D02*
X33437500Y-60500000D01*
X63312500Y-57000000D02*
X62125000Y-57000000D01*
X61937500Y-61000000D02*
X63437500Y-62500000D01*
X67500000Y-55937500D02*
X67500000Y-56500000D01*
X27000000Y-54500000D02*
X27950000Y-54500000D01*
X112000000Y-55000000D02*
X117000000Y-55000000D01*
X102000000Y-58062500D02*
X102500000Y-57562500D01*
X30885000Y-57440000D02*
X30305000Y-56860000D01*
X30950000Y-51500000D02*
X27950000Y-54500000D01*
X95500000Y-61066500D02*
X90016500Y-61066500D01*
X117000000Y-55000000D02*
X117525000Y-54475000D01*
X56500000Y-61000000D02*
X61937500Y-61000000D01*
X67000000Y-62500000D02*
X69000000Y-60500000D01*
X123000000Y-51000000D02*
X130750000Y-51000000D01*
X36000000Y-50000000D02*
X34500000Y-51500000D01*
X36550000Y-64885500D02*
X35500000Y-65935500D01*
X30885000Y-64380000D02*
X30885000Y-64920000D01*
X39530000Y-50000000D02*
X36000000Y-50000000D01*
X30305000Y-56860000D02*
X26135000Y-56860000D01*
X40555000Y-51025000D02*
X39530000Y-50000000D01*
X33437500Y-55500000D02*
X34500000Y-56562500D01*
X95500000Y-64000000D02*
X95500000Y-61066500D01*
X33437500Y-51500000D02*
X30950000Y-51500000D01*
X63812500Y-57000000D02*
X63812500Y-55812500D01*
X67500000Y-56500000D02*
X66500000Y-57500000D01*
X55437500Y-62062500D02*
X56500000Y-61000000D01*
X122500000Y-53000000D02*
X122500000Y-51500000D01*
X66500000Y-57500000D02*
X65000000Y-57500000D01*
X30885000Y-57980000D02*
X30885000Y-57440000D01*
X131750000Y-57500000D02*
X131750000Y-52000000D01*
X30885000Y-64920000D02*
X30305000Y-65500000D01*
X54500000Y-62062500D02*
X55437500Y-62062500D01*
X130750000Y-56500000D02*
X131750000Y-57500000D01*
X30740500Y-65935500D02*
X35500000Y-65935500D01*
X69000000Y-57437500D02*
X67500000Y-55937500D01*
X26135000Y-56860000D02*
X26135000Y-65500000D01*
X121656362Y-53843638D02*
X122500000Y-53000000D01*
X111175000Y-52122500D02*
X111175000Y-54175000D01*
X117525000Y-53843638D02*
X121656362Y-53843638D01*
X36550000Y-64500000D02*
X36550000Y-64885500D01*
X102500000Y-57562500D02*
X103562500Y-56500000D01*
X130750000Y-51000000D02*
X131750000Y-52000000D01*
X34500000Y-51500000D02*
X33437500Y-51500000D01*
X39500000Y-49970000D02*
X39530000Y-50000000D01*
X103562500Y-56500000D02*
X130750000Y-56500000D01*
X117525000Y-54475000D02*
X117525000Y-53843638D01*
X122500000Y-51500000D02*
X123000000Y-51000000D01*
X33437500Y-55500000D02*
X33437500Y-51500000D01*
X104687500Y-54437500D02*
X106250000Y-56000000D01*
X102500000Y-54437500D02*
X104687500Y-54437500D01*
X121500000Y-56000000D02*
X124000000Y-53500000D01*
X97247500Y-54437500D02*
X97110000Y-54300000D01*
X75575000Y-57000000D02*
X76000000Y-57000000D01*
X74950000Y-57625000D02*
X75575000Y-57000000D01*
X106250000Y-56000000D02*
X121500000Y-56000000D01*
X102500000Y-54437500D02*
X97247500Y-54437500D01*
X124000000Y-53500000D02*
X124000000Y-52000000D01*
X43864999Y-52500000D02*
X39000000Y-52500000D01*
X44365000Y-51025000D02*
X44365000Y-51999999D01*
X38000000Y-51500000D02*
X36562500Y-51500000D01*
X44365000Y-51999999D02*
X43864999Y-52500000D01*
X39000000Y-52500000D02*
X38000000Y-51500000D01*
X74550000Y-62000000D02*
X74550000Y-60850000D01*
X74550000Y-60850000D02*
X75900000Y-59500000D01*
X44095001Y-54000000D02*
X48500000Y-54000000D01*
X43095000Y-55975000D02*
X43095000Y-55000001D01*
X43095000Y-55000001D02*
X44095001Y-54000000D01*
X74000000Y-57050000D02*
X74000000Y-59500000D01*
X48500000Y-54000000D02*
X51000000Y-51500000D01*
X74550000Y-56500000D02*
X74000000Y-57050000D01*
X74550000Y-55000000D02*
X74550000Y-56500000D01*
X73500000Y-55000000D02*
X74550000Y-55000000D01*
X61000000Y-58000000D02*
X60000000Y-59000000D01*
X62125000Y-58000000D02*
X61000000Y-58000000D01*
X98058500Y-65441500D02*
X98500000Y-65000000D01*
X73087695Y-61912305D02*
X73087695Y-62193997D01*
X70950000Y-59774610D02*
X73087695Y-61912305D01*
X70950000Y-57625000D02*
X70950000Y-59774610D01*
X73087695Y-62193997D02*
X76335198Y-65441500D01*
X76335198Y-65441500D02*
X98058500Y-65441500D01*
X71900000Y-59500000D02*
X71900000Y-56950000D01*
X71900000Y-56950000D02*
X71450000Y-56500000D01*
X71450000Y-56500000D02*
X71450000Y-55000000D01*
X71450000Y-62000000D02*
X71450000Y-60950000D01*
X71450000Y-60950000D02*
X70000000Y-59500000D01*
X56900000Y-56500000D02*
X54562500Y-56500000D01*
X54562500Y-56500000D02*
X54500000Y-56562500D01*
X54500000Y-56562500D02*
X52212500Y-56562500D01*
X52212500Y-56562500D02*
X52000000Y-56350000D01*
X62125000Y-57500000D02*
X61000000Y-57500000D01*
X61000000Y-57500000D02*
X60000000Y-56500000D01*
D41*
X63312500Y-58687500D02*
X62812500Y-58687500D01*
X42137500Y-60950000D02*
X43550000Y-60950000D01*
X53500000Y-60500000D02*
X60392100Y-60500000D01*
X60392100Y-60500000D02*
X62204600Y-58687500D01*
X47000000Y-58937500D02*
X48437500Y-58937500D01*
X44500000Y-60000000D02*
X44500000Y-58937500D01*
D40*
X97110000Y-52800000D02*
X96200000Y-52800000D01*
D41*
X52791500Y-61208500D02*
X53500000Y-60500000D01*
X66125000Y-59500000D02*
X65000000Y-59500000D01*
D40*
X68000000Y-60500000D02*
X67500000Y-60000000D01*
D41*
X65062500Y-61000000D02*
X65062500Y-59562500D01*
D40*
X86000000Y-54500000D02*
X95500000Y-54500000D01*
D41*
X62204600Y-58687500D02*
X62812500Y-58687500D01*
D40*
X96200000Y-52800000D02*
X95500000Y-53500000D01*
D41*
X65000000Y-59500000D02*
X63712501Y-59500000D01*
X65000000Y-58000000D02*
X65500000Y-58000000D01*
D40*
X98500000Y-55607000D02*
X97893000Y-55000000D01*
X100000000Y-57550000D02*
X100000000Y-59950000D01*
D41*
X65500000Y-58000000D02*
X66562500Y-59062500D01*
D40*
X67500000Y-60000000D02*
X67500000Y-59062500D01*
X83500000Y-61000000D02*
X83500000Y-57000000D01*
D41*
X50708500Y-61208500D02*
X52791500Y-61208500D01*
D40*
X95500000Y-53500000D02*
X95500000Y-54500000D01*
D41*
X66562500Y-59062500D02*
X66125000Y-59500000D01*
X44500000Y-58937500D02*
X47000000Y-58937500D01*
X63312500Y-59099999D02*
X63312500Y-58687500D01*
D40*
X98500000Y-56050000D02*
X98500000Y-55607000D01*
D41*
X48437500Y-58937500D02*
X50500000Y-61000000D01*
X43550000Y-60950000D02*
X44500000Y-60000000D01*
D40*
X96000000Y-55000000D02*
X95500000Y-54500000D01*
X83500000Y-57000000D02*
X86000000Y-54500000D01*
X97893000Y-55000000D02*
X96000000Y-55000000D01*
D41*
X66562500Y-59062500D02*
X67500000Y-59062500D01*
X63712501Y-59500000D02*
X63312500Y-59099999D01*
D40*
X100000000Y-57550000D02*
X98500000Y-56050000D01*
X31930000Y-59430000D02*
X30885000Y-59430000D01*
X33450000Y-64125000D02*
X33450000Y-64500000D01*
X31755000Y-62430000D02*
X33450000Y-64125000D01*
X31755000Y-62430000D02*
X30885000Y-62430000D01*
X70500000Y-51000000D02*
X73000000Y-53500000D01*
X73000000Y-53500000D02*
X76000000Y-53500000D01*
X43645001Y-49500000D02*
X49692598Y-49500000D01*
X43095000Y-51025000D02*
X43095000Y-50050001D01*
X78800000Y-61800000D02*
X79610000Y-61800000D01*
X76000000Y-53500000D02*
X77000000Y-54500000D01*
X77000000Y-60000000D02*
X78800000Y-61800000D01*
X51192598Y-51000000D02*
X70500000Y-51000000D01*
X49692598Y-49500000D02*
X51192598Y-51000000D01*
X43095000Y-50050001D02*
X43645001Y-49500000D01*
X77000000Y-54500000D02*
X77000000Y-60000000D01*
D41*
X38000000Y-62000000D02*
X38000000Y-61937500D01*
X38500000Y-65500000D02*
X39000000Y-65000000D01*
X123500000Y-60500000D02*
X142500000Y-60500000D01*
X36562500Y-57812500D02*
X36750000Y-58000000D01*
X38874000Y-65874000D02*
X38500000Y-65500000D01*
X36562500Y-61562500D02*
X36562500Y-60500000D01*
X39500000Y-65500000D02*
X39000000Y-65000000D01*
X38000000Y-61937500D02*
X36562500Y-60500000D01*
X39500000Y-65874000D02*
X38874000Y-65874000D01*
X36562500Y-58187500D02*
X36750000Y-58000000D01*
X36750000Y-58000000D02*
X38650000Y-58000000D01*
X144340000Y-58660000D02*
X144340000Y-56500000D01*
X142500000Y-60500000D02*
X144340000Y-58660000D01*
X36562500Y-55500000D02*
X36562500Y-57812500D01*
X113715000Y-60397501D02*
X114607932Y-59504569D01*
X114607932Y-59504569D02*
X116000000Y-59504569D01*
X38987500Y-60950000D02*
X39862500Y-60950000D01*
D40*
X113715000Y-61422500D02*
X113715000Y-60397501D01*
D41*
X36562500Y-60500000D02*
X36562500Y-58187500D01*
X38650000Y-58000000D02*
X39850000Y-59200000D01*
X39500000Y-65874000D02*
X39500000Y-65500000D01*
X36562500Y-61562500D02*
X37000000Y-62000000D01*
X40555000Y-58495000D02*
X39850000Y-59200000D01*
X38000000Y-61937500D02*
X38987500Y-60950000D01*
X40555000Y-55975000D02*
X40555000Y-58495000D01*
D40*
X77500000Y-54000000D02*
X76500000Y-53000000D01*
X77500000Y-59773000D02*
X77500000Y-54000000D01*
X76500000Y-53000000D02*
X73500000Y-53000000D01*
X41825000Y-50050001D02*
X41825000Y-51025000D01*
X73500000Y-53000000D02*
X71000000Y-50500000D01*
X80700000Y-63300000D02*
X81000000Y-63000000D01*
X42875001Y-49000000D02*
X41825000Y-50050001D01*
X71000000Y-50500000D02*
X53000000Y-50500000D01*
X50000000Y-49000000D02*
X42875001Y-49000000D01*
X51500000Y-50500000D02*
X50000000Y-49000000D01*
X78727000Y-61000000D02*
X77500000Y-59773000D01*
X81000000Y-61500000D02*
X80500000Y-61000000D01*
X81000000Y-63000000D02*
X81000000Y-61500000D01*
X79610000Y-63300000D02*
X80700000Y-63300000D01*
X80500000Y-61000000D02*
X78727000Y-61000000D01*
D42*
X45000000Y-53000000D02*
X36000000Y-53000000D01*
X45635000Y-51025000D02*
X45635000Y-52365000D01*
X36000000Y-53000000D02*
X35000000Y-54000000D01*
X35000000Y-54000000D02*
X35000000Y-61000000D01*
X34000000Y-62000000D02*
X32500000Y-62000000D01*
X45635000Y-52365000D02*
X45000000Y-53000000D01*
X31930000Y-60742600D02*
X31617400Y-60430000D01*
X31617400Y-60430000D02*
X30885000Y-60430000D01*
X35000000Y-61000000D02*
X34000000Y-62000000D01*
X32500000Y-62000000D02*
X31930000Y-61430000D01*
X31930000Y-61430000D02*
X31930000Y-60742600D01*
X31930000Y-61430000D02*
X30885000Y-61430000D01*
X35500000Y-54000000D02*
X36000000Y-53500000D01*
X30000000Y-61082600D02*
X30000000Y-61777400D01*
X30152600Y-60930000D02*
X30000000Y-61082600D01*
X30885000Y-61930000D02*
X31930000Y-61930000D01*
X35500000Y-61000000D02*
X35500000Y-54000000D01*
X32500000Y-62500000D02*
X34000000Y-62500000D01*
X46905000Y-51999999D02*
X46905000Y-51025000D01*
X45404999Y-53500000D02*
X46905000Y-51999999D01*
X30885000Y-60930000D02*
X30152600Y-60930000D01*
X30152600Y-61930000D02*
X30885000Y-61930000D01*
X36000000Y-53500000D02*
X45404999Y-53500000D01*
X30000000Y-61777400D02*
X30152600Y-61930000D01*
X34000000Y-62500000D02*
X35500000Y-61000000D01*
X31930000Y-61930000D02*
X32500000Y-62500000D01*
D40*
X107365000Y-54135000D02*
X107365000Y-52122500D01*
X107000000Y-54500000D02*
X107365000Y-54135000D01*
X104500000Y-55500000D02*
X102500000Y-55500000D01*
X102500000Y-55500000D02*
X101230984Y-56769016D01*
X98700000Y-58800000D02*
X97110000Y-58800000D01*
X86000000Y-56500000D02*
X89500000Y-56500000D01*
X63312500Y-55812500D02*
X63312500Y-55187500D01*
X85000000Y-57500000D02*
X86000000Y-56500000D01*
X85000000Y-58508500D02*
X85000000Y-57500000D01*
X63312500Y-55187500D02*
X65000000Y-53500000D01*
X90300000Y-57300000D02*
X97110000Y-57300000D01*
X89500000Y-56500000D02*
X90300000Y-57300000D01*
X64312500Y-55187500D02*
X65000000Y-54500000D01*
X84000000Y-59000000D02*
X84000000Y-57500000D01*
X84000000Y-57500000D02*
X85700000Y-55800000D01*
X64312500Y-55812500D02*
X64312500Y-55187500D01*
X85700000Y-55800000D02*
X97110000Y-55800000D01*
D41*
X142000000Y-65500000D02*
X146500000Y-61000000D01*
X114985000Y-61985000D02*
X114985000Y-61422500D01*
X117000000Y-65000000D02*
X117500000Y-65500000D01*
X117500000Y-65500000D02*
X142000000Y-65500000D01*
X117000000Y-65000000D02*
X117000000Y-64000000D01*
X146500000Y-61000000D02*
X146500000Y-56500000D01*
X117000000Y-64000000D02*
X114985000Y-61985000D01*
X30422000Y-58780000D02*
X30885000Y-58780000D01*
X30885000Y-63580000D02*
X30422000Y-63580000D01*
X31720000Y-58780000D02*
X32500000Y-58000000D01*
X30885000Y-58780000D02*
X31720000Y-58780000D01*
X30422000Y-63580000D02*
X29500000Y-62658000D01*
X29500000Y-59702000D02*
X30422000Y-58780000D01*
X32500000Y-58000000D02*
X33250000Y-58000000D01*
X29500000Y-62658000D02*
X29500000Y-59702000D01*
D40*
X141500000Y-59000000D02*
X141500000Y-58500000D01*
X141500000Y-58500000D02*
X141240000Y-58240000D01*
X141240000Y-58240000D02*
X141240000Y-56500000D01*
X54500000Y-58937500D02*
X52712500Y-58937500D01*
X52712500Y-58937500D02*
X52000000Y-59650000D01*
X56900000Y-59000000D02*
X54562500Y-59000000D01*
X54562500Y-59000000D02*
X54500000Y-58937500D01*
X65000000Y-56500000D02*
X66000000Y-56500000D01*
X81000000Y-58000000D02*
X80300000Y-57300000D01*
X81000000Y-59500000D02*
X81000000Y-58000000D01*
X80300000Y-57300000D02*
X79610000Y-57300000D01*
G04 #@! TA.AperFunction,Conductor*
G36*
X68016177Y-46020185D02*
G01*
X68036819Y-46036819D01*
X69590039Y-47590039D01*
X69623524Y-47651362D01*
X69618540Y-47721054D01*
X69576668Y-47776987D01*
X69540677Y-47795651D01*
X69369970Y-47851117D01*
X69194594Y-47940476D01*
X69103741Y-48006485D01*
X69035354Y-48056172D01*
X69035352Y-48056174D01*
X69035351Y-48056174D01*
X68896174Y-48195351D01*
X68896174Y-48195352D01*
X68896172Y-48195354D01*
X68888694Y-48205647D01*
X68780476Y-48354594D01*
X68690485Y-48531213D01*
X68642511Y-48582009D01*
X68574690Y-48598804D01*
X68508555Y-48576267D01*
X68469515Y-48531213D01*
X68430436Y-48454516D01*
X68379524Y-48354595D01*
X68263828Y-48195354D01*
X68124646Y-48056172D01*
X67965405Y-47940476D01*
X67790029Y-47851117D01*
X67602826Y-47790290D01*
X67408422Y-47759500D01*
X67408417Y-47759500D01*
X67211583Y-47759500D01*
X67211578Y-47759500D01*
X67017173Y-47790290D01*
X66829970Y-47851117D01*
X66654594Y-47940476D01*
X66563741Y-48006485D01*
X66495354Y-48056172D01*
X66495352Y-48056174D01*
X66495351Y-48056174D01*
X66356174Y-48195351D01*
X66356174Y-48195352D01*
X66356172Y-48195354D01*
X66348694Y-48205647D01*
X66240476Y-48354594D01*
X66150485Y-48531213D01*
X66102511Y-48582009D01*
X66034690Y-48598804D01*
X65968555Y-48576267D01*
X65929515Y-48531213D01*
X65890436Y-48454516D01*
X65839524Y-48354595D01*
X65723828Y-48195354D01*
X65584646Y-48056172D01*
X65425405Y-47940476D01*
X65250029Y-47851117D01*
X65062826Y-47790290D01*
X64868422Y-47759500D01*
X64868417Y-47759500D01*
X64671583Y-47759500D01*
X64671578Y-47759500D01*
X64477173Y-47790290D01*
X64289970Y-47851117D01*
X64114594Y-47940476D01*
X64023741Y-48006485D01*
X63955354Y-48056172D01*
X63955352Y-48056174D01*
X63955351Y-48056174D01*
X63816174Y-48195351D01*
X63816174Y-48195352D01*
X63816172Y-48195354D01*
X63808694Y-48205647D01*
X63700476Y-48354594D01*
X63610485Y-48531213D01*
X63562511Y-48582009D01*
X63494690Y-48598804D01*
X63428555Y-48576267D01*
X63389515Y-48531213D01*
X63350436Y-48454516D01*
X63299524Y-48354595D01*
X63183828Y-48195354D01*
X63044646Y-48056172D01*
X62885405Y-47940476D01*
X62710029Y-47851117D01*
X62522826Y-47790290D01*
X62328422Y-47759500D01*
X62328417Y-47759500D01*
X62131583Y-47759500D01*
X62131578Y-47759500D01*
X61937173Y-47790290D01*
X61749970Y-47851117D01*
X61574594Y-47940476D01*
X61483741Y-48006485D01*
X61415354Y-48056172D01*
X61415352Y-48056174D01*
X61415351Y-48056174D01*
X61276174Y-48195351D01*
X61276174Y-48195352D01*
X61276172Y-48195354D01*
X61268694Y-48205647D01*
X61160476Y-48354594D01*
X61070485Y-48531213D01*
X61022511Y-48582009D01*
X60954690Y-48598804D01*
X60888555Y-48576267D01*
X60849515Y-48531213D01*
X60810436Y-48454516D01*
X60759524Y-48354595D01*
X60643828Y-48195354D01*
X60504646Y-48056172D01*
X60345405Y-47940476D01*
X60170029Y-47851117D01*
X59982826Y-47790290D01*
X59788422Y-47759500D01*
X59788417Y-47759500D01*
X59591583Y-47759500D01*
X59591578Y-47759500D01*
X59397173Y-47790290D01*
X59209970Y-47851117D01*
X59034594Y-47940476D01*
X58943741Y-48006485D01*
X58875354Y-48056172D01*
X58875352Y-48056174D01*
X58875351Y-48056174D01*
X58736174Y-48195351D01*
X58736174Y-48195352D01*
X58736172Y-48195354D01*
X58728694Y-48205647D01*
X58620476Y-48354594D01*
X58530485Y-48531213D01*
X58482511Y-48582009D01*
X58414690Y-48598804D01*
X58348555Y-48576267D01*
X58309515Y-48531213D01*
X58270436Y-48454516D01*
X58219524Y-48354595D01*
X58103828Y-48195354D01*
X57964646Y-48056172D01*
X57805405Y-47940476D01*
X57630029Y-47851117D01*
X57442826Y-47790290D01*
X57248422Y-47759500D01*
X57248417Y-47759500D01*
X57051583Y-47759500D01*
X57051578Y-47759500D01*
X56857173Y-47790290D01*
X56669970Y-47851117D01*
X56494594Y-47940476D01*
X56403741Y-48006485D01*
X56335354Y-48056172D01*
X56335352Y-48056174D01*
X56335351Y-48056174D01*
X56196174Y-48195351D01*
X56196174Y-48195352D01*
X56196172Y-48195354D01*
X56188694Y-48205647D01*
X56080476Y-48354594D01*
X55991117Y-48529970D01*
X55930290Y-48717173D01*
X55899500Y-48911577D01*
X55899500Y-49108422D01*
X55930290Y-49302826D01*
X55991117Y-49490029D01*
X56080476Y-49665405D01*
X56134029Y-49739114D01*
X56157509Y-49804921D01*
X56141684Y-49872975D01*
X56091578Y-49921670D01*
X56033711Y-49936000D01*
X54624500Y-49936000D01*
X54557461Y-49916315D01*
X54511706Y-49863511D01*
X54500500Y-49812000D01*
X54500499Y-47952129D01*
X54500498Y-47952123D01*
X54500497Y-47952116D01*
X54494091Y-47892517D01*
X54478649Y-47851116D01*
X54443797Y-47757671D01*
X54443793Y-47757664D01*
X54357547Y-47642455D01*
X54357544Y-47642452D01*
X54242335Y-47556206D01*
X54242328Y-47556202D01*
X54107482Y-47505908D01*
X54107483Y-47505908D01*
X54047883Y-47499501D01*
X54047881Y-47499500D01*
X54047873Y-47499500D01*
X54047864Y-47499500D01*
X51952129Y-47499500D01*
X51952123Y-47499501D01*
X51892516Y-47505908D01*
X51757671Y-47556202D01*
X51757664Y-47556206D01*
X51642455Y-47642452D01*
X51642452Y-47642455D01*
X51556206Y-47757664D01*
X51556202Y-47757671D01*
X51505908Y-47892517D01*
X51499501Y-47952116D01*
X51499501Y-47952123D01*
X51499500Y-47952135D01*
X51499500Y-49402522D01*
X51479815Y-49469561D01*
X51427011Y-49515316D01*
X51357853Y-49525260D01*
X51294297Y-49496235D01*
X51287819Y-49490203D01*
X50458383Y-48660767D01*
X50458381Y-48660764D01*
X50346306Y-48548689D01*
X50346304Y-48548687D01*
X50217698Y-48474436D01*
X50217697Y-48474435D01*
X50180528Y-48464476D01*
X50143360Y-48454517D01*
X50143359Y-48454516D01*
X50092769Y-48440961D01*
X50074253Y-48436000D01*
X50074252Y-48436000D01*
X42956866Y-48436000D01*
X42956850Y-48435999D01*
X42949254Y-48435999D01*
X42800749Y-48435999D01*
X42669064Y-48471284D01*
X42657301Y-48474436D01*
X42528700Y-48548684D01*
X42528694Y-48548689D01*
X41528064Y-49549319D01*
X41474979Y-49580714D01*
X41414604Y-49598254D01*
X41414603Y-49598255D01*
X41273137Y-49681917D01*
X41273129Y-49681923D01*
X41156923Y-49798129D01*
X41156917Y-49798137D01*
X41073255Y-49939603D01*
X41073254Y-49939606D01*
X41027402Y-50097426D01*
X41027401Y-50097432D01*
X41024500Y-50134298D01*
X41024500Y-51812000D01*
X41004815Y-51879039D01*
X40952011Y-51924794D01*
X40900500Y-51936000D01*
X39284979Y-51936000D01*
X39217940Y-51916315D01*
X39197298Y-51899681D01*
X38458383Y-51160767D01*
X38458381Y-51160764D01*
X38346306Y-51048689D01*
X38346304Y-51048687D01*
X38239636Y-50987102D01*
X38217698Y-50974436D01*
X38217697Y-50974435D01*
X38217696Y-50974435D01*
X38074253Y-50936000D01*
X38074252Y-50936000D01*
X37911999Y-50936000D01*
X37844960Y-50916315D01*
X37799205Y-50863511D01*
X37787999Y-50812000D01*
X37787999Y-50799998D01*
X37787998Y-50799981D01*
X37777499Y-50697203D01*
X37777498Y-50697200D01*
X37763082Y-50653695D01*
X37722314Y-50530666D01*
X37630212Y-50381344D01*
X37506156Y-50257288D01*
X37411823Y-50199103D01*
X37356836Y-50165187D01*
X37356831Y-50165185D01*
X37343489Y-50160764D01*
X37190297Y-50110001D01*
X37190295Y-50110000D01*
X37087510Y-50099500D01*
X36162498Y-50099500D01*
X36162480Y-50099501D01*
X36059703Y-50110000D01*
X36059700Y-50110001D01*
X35893168Y-50165185D01*
X35893163Y-50165187D01*
X35743842Y-50257289D01*
X35619789Y-50381342D01*
X35527687Y-50530663D01*
X35527685Y-50530668D01*
X35514010Y-50571936D01*
X35472501Y-50697203D01*
X35472501Y-50697204D01*
X35472500Y-50697204D01*
X35462000Y-50799983D01*
X35462000Y-52200001D01*
X35462001Y-52200018D01*
X35472500Y-52302796D01*
X35472501Y-52302799D01*
X35525232Y-52461929D01*
X35527686Y-52469334D01*
X35532244Y-52476724D01*
X35547708Y-52501796D01*
X35566147Y-52569189D01*
X35545223Y-52635852D01*
X35529849Y-52654572D01*
X34645898Y-53538525D01*
X34538527Y-53645895D01*
X34538522Y-53645901D01*
X34462602Y-53777398D01*
X34462602Y-53777399D01*
X34462601Y-53777401D01*
X34462601Y-53777402D01*
X34434960Y-53880559D01*
X34423300Y-53924076D01*
X34423300Y-56812570D01*
X34403615Y-56879609D01*
X34350811Y-56925364D01*
X34281653Y-56935308D01*
X34218097Y-56906283D01*
X34211619Y-56900251D01*
X34118657Y-56807289D01*
X34118656Y-56807288D01*
X33984887Y-56724779D01*
X33969336Y-56715187D01*
X33969331Y-56715185D01*
X33963739Y-56713332D01*
X33802797Y-56660001D01*
X33802795Y-56660000D01*
X33700010Y-56649500D01*
X32799998Y-56649500D01*
X32799980Y-56649501D01*
X32697203Y-56660000D01*
X32697200Y-56660001D01*
X32530668Y-56715185D01*
X32530663Y-56715187D01*
X32381342Y-56807289D01*
X32257289Y-56931342D01*
X32165187Y-57080663D01*
X32165185Y-57080668D01*
X32146285Y-57137706D01*
X32110001Y-57247203D01*
X32110001Y-57247204D01*
X32110000Y-57247204D01*
X32099500Y-57349983D01*
X32099500Y-57464546D01*
X32079815Y-57531585D01*
X32063181Y-57552227D01*
X31665914Y-57949493D01*
X31604591Y-57982978D01*
X31564980Y-57985102D01*
X31542869Y-57982725D01*
X31512873Y-57979500D01*
X31512869Y-57979500D01*
X31258148Y-57979500D01*
X31191109Y-57959815D01*
X31145354Y-57907011D01*
X31135410Y-57837853D01*
X31164435Y-57774297D01*
X31210695Y-57740939D01*
X31304991Y-57701880D01*
X31305000Y-57701875D01*
X31460589Y-57597913D01*
X31460593Y-57597910D01*
X31592910Y-57465593D01*
X31592913Y-57465589D01*
X31696875Y-57310000D01*
X31696880Y-57309991D01*
X31768492Y-57137103D01*
X31768493Y-57137100D01*
X31773884Y-57110000D01*
X31021988Y-57110000D01*
X31039205Y-57100060D01*
X31095060Y-57044205D01*
X31134556Y-56975796D01*
X31155000Y-56899496D01*
X31155000Y-56820504D01*
X31134556Y-56744204D01*
X31095060Y-56675795D01*
X31039205Y-56619940D01*
X31021988Y-56610000D01*
X31773884Y-56610000D01*
X31773884Y-56609999D01*
X31768493Y-56582899D01*
X31768492Y-56582896D01*
X31722199Y-56471135D01*
X31714730Y-56401666D01*
X31746005Y-56339186D01*
X31806094Y-56303534D01*
X31845066Y-56300571D01*
X31845066Y-56300500D01*
X31846006Y-56300500D01*
X31848913Y-56300279D01*
X31851157Y-56300500D01*
X31851158Y-56300500D01*
X32008844Y-56300500D01*
X32008845Y-56300499D01*
X32163497Y-56269737D01*
X32279834Y-56221549D01*
X32309172Y-56209397D01*
X32309172Y-56209396D01*
X32309179Y-56209394D01*
X32440289Y-56121789D01*
X32551789Y-56010289D01*
X32639394Y-55879179D01*
X32699737Y-55733497D01*
X32730500Y-55578842D01*
X32730500Y-55421158D01*
X32730500Y-55421155D01*
X32730499Y-55421153D01*
X32728281Y-55410001D01*
X32699737Y-55266503D01*
X32688256Y-55238784D01*
X32639397Y-55120827D01*
X32639390Y-55120814D01*
X32551789Y-54989711D01*
X32551786Y-54989707D01*
X32440292Y-54878213D01*
X32440288Y-54878210D01*
X32309185Y-54790609D01*
X32309173Y-54790603D01*
X32277044Y-54777294D01*
X32222641Y-54733452D01*
X32200578Y-54667157D01*
X32200499Y-54662734D01*
X32200499Y-53824998D01*
X32200498Y-53824981D01*
X32189999Y-53722203D01*
X32189998Y-53722200D01*
X32182690Y-53700147D01*
X32134814Y-53555666D01*
X32042712Y-53406344D01*
X31918656Y-53282288D01*
X31769334Y-53190186D01*
X31602797Y-53135001D01*
X31602795Y-53135000D01*
X31500010Y-53124500D01*
X30599998Y-53124500D01*
X30599980Y-53124501D01*
X30497203Y-53135000D01*
X30497200Y-53135001D01*
X30330668Y-53190185D01*
X30330663Y-53190187D01*
X30181342Y-53282289D01*
X30057289Y-53406342D01*
X29965187Y-53555663D01*
X29965185Y-53555668D01*
X29947954Y-53607669D01*
X29910001Y-53722203D01*
X29910001Y-53722204D01*
X29910000Y-53722204D01*
X29899500Y-53824983D01*
X29899500Y-55175001D01*
X29899501Y-55175018D01*
X29910000Y-55277796D01*
X29910001Y-55277799D01*
X29965185Y-55444331D01*
X29965187Y-55444336D01*
X29991157Y-55486440D01*
X30055032Y-55589999D01*
X30057289Y-55593657D01*
X30161951Y-55698319D01*
X30195436Y-55759642D01*
X30190452Y-55829334D01*
X30148580Y-55885267D01*
X30083116Y-55909684D01*
X30074270Y-55910000D01*
X29661430Y-55910000D01*
X29477902Y-55946506D01*
X29477894Y-55946508D01*
X29305008Y-56018119D01*
X29304999Y-56018124D01*
X29149410Y-56122086D01*
X29149406Y-56122089D01*
X29017089Y-56254406D01*
X29017086Y-56254410D01*
X28913124Y-56409999D01*
X28913119Y-56410008D01*
X28841507Y-56582896D01*
X28841506Y-56582899D01*
X28836115Y-56609999D01*
X28836116Y-56610000D01*
X29588012Y-56610000D01*
X29570795Y-56619940D01*
X29514940Y-56675795D01*
X29475444Y-56744204D01*
X29455000Y-56820504D01*
X29455000Y-56899496D01*
X29475444Y-56975796D01*
X29514940Y-57044205D01*
X29570795Y-57100060D01*
X29588012Y-57110000D01*
X28836116Y-57110000D01*
X28841506Y-57137100D01*
X28841507Y-57137103D01*
X28913119Y-57309991D01*
X28913124Y-57310000D01*
X29017086Y-57465589D01*
X29017089Y-57465593D01*
X29149406Y-57597910D01*
X29149410Y-57597913D01*
X29304999Y-57701875D01*
X29305008Y-57701880D01*
X29366609Y-57727396D01*
X29421012Y-57771237D01*
X29443077Y-57837531D01*
X29425798Y-57905230D01*
X29406839Y-57929637D01*
X29384488Y-57951988D01*
X29312017Y-58077511D01*
X29312016Y-58077515D01*
X29274500Y-58217525D01*
X29274500Y-58362475D01*
X29308592Y-58489707D01*
X29312017Y-58502488D01*
X29384488Y-58628011D01*
X29384493Y-58628017D01*
X29449261Y-58692785D01*
X29482746Y-58754108D01*
X29477762Y-58823800D01*
X29449261Y-58868147D01*
X29273015Y-59044394D01*
X29101270Y-59216139D01*
X29101267Y-59216142D01*
X29065884Y-59251525D01*
X29014142Y-59303266D01*
X28987134Y-59343687D01*
X28987133Y-59343686D01*
X28945689Y-59405712D01*
X28945685Y-59405719D01*
X28913632Y-59483105D01*
X28898538Y-59519544D01*
X28898534Y-59519556D01*
X28896407Y-59530255D01*
X28896407Y-59530258D01*
X28875020Y-59637782D01*
X28875016Y-59637801D01*
X28874500Y-59640393D01*
X28874500Y-62719608D01*
X28876990Y-62732126D01*
X28876990Y-62732127D01*
X28898535Y-62840443D01*
X28898538Y-62840455D01*
X28904191Y-62854103D01*
X28945685Y-62954281D01*
X28945691Y-62954292D01*
X28971914Y-62993536D01*
X28971917Y-62993539D01*
X28976240Y-63000009D01*
X29014142Y-63056733D01*
X29101267Y-63143858D01*
X29101270Y-63143860D01*
X29108727Y-63151317D01*
X29449262Y-63491852D01*
X29482747Y-63553175D01*
X29477763Y-63622867D01*
X29449262Y-63667214D01*
X29384493Y-63731982D01*
X29384488Y-63731988D01*
X29312017Y-63857511D01*
X29312016Y-63857515D01*
X29274500Y-63997525D01*
X29274500Y-64142475D01*
X29303446Y-64250500D01*
X29312017Y-64282488D01*
X29384488Y-64408011D01*
X29384493Y-64408017D01*
X29406837Y-64430361D01*
X29440322Y-64491684D01*
X29435338Y-64561376D01*
X29393466Y-64617309D01*
X29366610Y-64632602D01*
X29305014Y-64658116D01*
X29304999Y-64658124D01*
X29149410Y-64762086D01*
X29149406Y-64762089D01*
X29017089Y-64894406D01*
X29017086Y-64894410D01*
X28913124Y-65049999D01*
X28913119Y-65050008D01*
X28841507Y-65222896D01*
X28841506Y-65222899D01*
X28836115Y-65249999D01*
X28836116Y-65250000D01*
X29588012Y-65250000D01*
X29570795Y-65259940D01*
X29514940Y-65315795D01*
X29475444Y-65384204D01*
X29455000Y-65460504D01*
X29455000Y-65539496D01*
X29475444Y-65615796D01*
X29514940Y-65684205D01*
X29570795Y-65740060D01*
X29588012Y-65750000D01*
X28836116Y-65750000D01*
X28841506Y-65777100D01*
X28841507Y-65777103D01*
X28862609Y-65828047D01*
X28870078Y-65897517D01*
X28838803Y-65959996D01*
X28778714Y-65995648D01*
X28748048Y-65999500D01*
X27541952Y-65999500D01*
X27474913Y-65979815D01*
X27429158Y-65927011D01*
X27419214Y-65857853D01*
X27427391Y-65828047D01*
X27448492Y-65777103D01*
X27448493Y-65777100D01*
X27453884Y-65750000D01*
X26701988Y-65750000D01*
X26719205Y-65740060D01*
X26775060Y-65684205D01*
X26814556Y-65615796D01*
X26835000Y-65539496D01*
X26835000Y-65460504D01*
X26814556Y-65384204D01*
X26775060Y-65315795D01*
X26719205Y-65259940D01*
X26701988Y-65250000D01*
X27453884Y-65250000D01*
X27453884Y-65249999D01*
X27448493Y-65222899D01*
X27448492Y-65222896D01*
X27376880Y-65050008D01*
X27376875Y-65049999D01*
X27272913Y-64894410D01*
X27272910Y-64894406D01*
X27140593Y-64762089D01*
X27140589Y-64762086D01*
X26985000Y-64658124D01*
X26984991Y-64658119D01*
X26812105Y-64586508D01*
X26812097Y-64586506D01*
X26628570Y-64550000D01*
X26385000Y-64550000D01*
X26385000Y-65200000D01*
X25885000Y-65200000D01*
X25885000Y-64550000D01*
X25641430Y-64550000D01*
X25457902Y-64586506D01*
X25457894Y-64586508D01*
X25285008Y-64658119D01*
X25284999Y-64658124D01*
X25129410Y-64762086D01*
X25129406Y-64762089D01*
X24997089Y-64894406D01*
X24997086Y-64894410D01*
X24893124Y-65049999D01*
X24893119Y-65050008D01*
X24821507Y-65222896D01*
X24821506Y-65222899D01*
X24816115Y-65249999D01*
X24816116Y-65250000D01*
X25568012Y-65250000D01*
X25550795Y-65259940D01*
X25494940Y-65315795D01*
X25455444Y-65384204D01*
X25435000Y-65460504D01*
X25435000Y-65539496D01*
X25455444Y-65615796D01*
X25494940Y-65684205D01*
X25550795Y-65740060D01*
X25568012Y-65750000D01*
X24816116Y-65750000D01*
X24821506Y-65777100D01*
X24821507Y-65777103D01*
X24842609Y-65828047D01*
X24850078Y-65897517D01*
X24818803Y-65959996D01*
X24758714Y-65995648D01*
X24728048Y-65999500D01*
X23624500Y-65999500D01*
X23557461Y-65979815D01*
X23511706Y-65927011D01*
X23500500Y-65875500D01*
X23500500Y-56609999D01*
X24816115Y-56609999D01*
X24816116Y-56610000D01*
X25568012Y-56610000D01*
X25550795Y-56619940D01*
X25494940Y-56675795D01*
X25455444Y-56744204D01*
X25435000Y-56820504D01*
X25435000Y-56899496D01*
X25455444Y-56975796D01*
X25494940Y-57044205D01*
X25550795Y-57100060D01*
X25568012Y-57110000D01*
X24816116Y-57110000D01*
X24821506Y-57137100D01*
X24821507Y-57137103D01*
X24893119Y-57309991D01*
X24893124Y-57310000D01*
X24997086Y-57465589D01*
X24997089Y-57465593D01*
X25129406Y-57597910D01*
X25129410Y-57597913D01*
X25284999Y-57701875D01*
X25285008Y-57701880D01*
X25457894Y-57773491D01*
X25457902Y-57773493D01*
X25641428Y-57809999D01*
X25641431Y-57810000D01*
X25885000Y-57810000D01*
X25885000Y-57160000D01*
X26385000Y-57160000D01*
X26385000Y-57810000D01*
X26628569Y-57810000D01*
X26628571Y-57809999D01*
X26812097Y-57773493D01*
X26812105Y-57773491D01*
X26984991Y-57701880D01*
X26985000Y-57701875D01*
X27140589Y-57597913D01*
X27140593Y-57597910D01*
X27272910Y-57465593D01*
X27272913Y-57465589D01*
X27376875Y-57310000D01*
X27376880Y-57309991D01*
X27448492Y-57137103D01*
X27448493Y-57137100D01*
X27453884Y-57110000D01*
X26701988Y-57110000D01*
X26719205Y-57100060D01*
X26775060Y-57044205D01*
X26814556Y-56975796D01*
X26835000Y-56899496D01*
X26835000Y-56820504D01*
X26814556Y-56744204D01*
X26775060Y-56675795D01*
X26719205Y-56619940D01*
X26701988Y-56610000D01*
X27453884Y-56610000D01*
X27453884Y-56609999D01*
X27448493Y-56582899D01*
X27448492Y-56582896D01*
X27376880Y-56410008D01*
X27376875Y-56409999D01*
X27272913Y-56254410D01*
X27272910Y-56254406D01*
X27140593Y-56122089D01*
X27140589Y-56122086D01*
X26985000Y-56018124D01*
X26984991Y-56018119D01*
X26812105Y-55946508D01*
X26812097Y-55946506D01*
X26628570Y-55910000D01*
X26385000Y-55910000D01*
X26385000Y-56560000D01*
X25885000Y-56560000D01*
X25885000Y-55910000D01*
X25641430Y-55910000D01*
X25457902Y-55946506D01*
X25457894Y-55946508D01*
X25285008Y-56018119D01*
X25284999Y-56018124D01*
X25129410Y-56122086D01*
X25129406Y-56122089D01*
X24997089Y-56254406D01*
X24997086Y-56254410D01*
X24893124Y-56409999D01*
X24893119Y-56410008D01*
X24821507Y-56582896D01*
X24821506Y-56582899D01*
X24816115Y-56609999D01*
X23500500Y-56609999D01*
X23500500Y-46124500D01*
X23520185Y-46057461D01*
X23572989Y-46011706D01*
X23624500Y-46000500D01*
X67949138Y-46000500D01*
X68016177Y-46020185D01*
G37*
G04 #@! TD.AperFunction*
G04 #@! TA.AperFunction,Conductor*
G36*
X32093813Y-63616655D02*
G01*
X32107145Y-63614739D01*
X32127287Y-63623937D01*
X32148926Y-63628645D01*
X32166652Y-63641915D01*
X32170701Y-63643764D01*
X32177180Y-63649796D01*
X32263181Y-63735797D01*
X32296666Y-63797120D01*
X32299500Y-63823478D01*
X32299500Y-65175001D01*
X32299500Y-65175005D01*
X32299501Y-65175008D01*
X32300012Y-65180007D01*
X32310000Y-65277796D01*
X32310001Y-65277799D01*
X32357506Y-65421158D01*
X32365186Y-65444334D01*
X32457288Y-65593656D01*
X32581344Y-65717712D01*
X32666054Y-65769961D01*
X32712778Y-65821909D01*
X32724001Y-65890872D01*
X32696157Y-65954954D01*
X32638089Y-65993810D01*
X32600957Y-65999500D01*
X31861952Y-65999500D01*
X31794913Y-65979815D01*
X31749158Y-65927011D01*
X31739214Y-65857853D01*
X31747391Y-65828047D01*
X31768492Y-65777103D01*
X31768493Y-65777100D01*
X31773884Y-65750000D01*
X31021988Y-65750000D01*
X31039205Y-65740060D01*
X31095060Y-65684205D01*
X31134556Y-65615796D01*
X31155000Y-65539496D01*
X31155000Y-65460504D01*
X31134556Y-65384204D01*
X31095060Y-65315795D01*
X31039205Y-65259940D01*
X31021988Y-65250000D01*
X31773884Y-65250000D01*
X31773884Y-65249999D01*
X31768493Y-65222899D01*
X31768492Y-65222896D01*
X31696880Y-65050008D01*
X31696875Y-65049999D01*
X31592913Y-64894410D01*
X31592910Y-64894406D01*
X31460593Y-64762089D01*
X31460589Y-64762086D01*
X31305000Y-64658124D01*
X31304987Y-64658117D01*
X31210693Y-64619060D01*
X31156289Y-64575219D01*
X31134224Y-64508925D01*
X31151503Y-64441226D01*
X31202640Y-64393615D01*
X31258145Y-64380499D01*
X31512871Y-64380499D01*
X31512872Y-64380499D01*
X31572483Y-64374091D01*
X31707331Y-64323796D01*
X31822546Y-64237546D01*
X31908796Y-64122331D01*
X31959091Y-63987483D01*
X31965500Y-63927873D01*
X31965499Y-63737475D01*
X31971737Y-63716231D01*
X31973317Y-63694143D01*
X31981388Y-63683360D01*
X31985183Y-63670438D01*
X32001919Y-63655936D01*
X32015189Y-63638210D01*
X32027807Y-63633503D01*
X32037987Y-63624683D01*
X32059905Y-63621531D01*
X32080653Y-63613793D01*
X32093813Y-63616655D01*
G37*
G04 #@! TD.AperFunction*
G04 #@! TA.AperFunction,Conductor*
G36*
X62396467Y-59482735D02*
G01*
X62428616Y-59500538D01*
X62466071Y-59529279D01*
X62603028Y-59586009D01*
X62713099Y-59600500D01*
X62877047Y-59600499D01*
X62944087Y-59620183D01*
X62964729Y-59636818D01*
X63226640Y-59898729D01*
X63226643Y-59898733D01*
X63313768Y-59985858D01*
X63371229Y-60024252D01*
X63416216Y-60054312D01*
X63479438Y-60080499D01*
X63530049Y-60101463D01*
X63553020Y-60106032D01*
X63650892Y-60125499D01*
X63650893Y-60125500D01*
X63650894Y-60125500D01*
X63650895Y-60125500D01*
X63780013Y-60125500D01*
X63847052Y-60145185D01*
X63892807Y-60197989D01*
X63903370Y-60262102D01*
X63902591Y-60269735D01*
X63899500Y-60299986D01*
X63899500Y-61700001D01*
X63899501Y-61700018D01*
X63910000Y-61802796D01*
X63910001Y-61802799D01*
X63965185Y-61969331D01*
X63965187Y-61969336D01*
X63984922Y-62001332D01*
X64036771Y-62085393D01*
X64057289Y-62118657D01*
X64162951Y-62224319D01*
X64196436Y-62285642D01*
X64191452Y-62355334D01*
X64149580Y-62411267D01*
X64084116Y-62435684D01*
X64075270Y-62436000D01*
X60865747Y-62436000D01*
X60799734Y-62453687D01*
X60799734Y-62453688D01*
X60792076Y-62455740D01*
X60722302Y-62474435D01*
X60722301Y-62474436D01*
X60593699Y-62548685D01*
X60593693Y-62548689D01*
X60488685Y-62653698D01*
X60134122Y-63008260D01*
X60072799Y-63041745D01*
X60008122Y-63038510D01*
X59982826Y-63030290D01*
X59788422Y-62999500D01*
X59788417Y-62999500D01*
X59591583Y-62999500D01*
X59591578Y-62999500D01*
X59397173Y-63030290D01*
X59209970Y-63091117D01*
X59034594Y-63180476D01*
X58983347Y-63217710D01*
X58875354Y-63296172D01*
X58875352Y-63296174D01*
X58875351Y-63296174D01*
X58736173Y-63435352D01*
X58624817Y-63588620D01*
X58569486Y-63631285D01*
X58499873Y-63637264D01*
X58438078Y-63604658D01*
X58403721Y-63543819D01*
X58400499Y-63515734D01*
X58400499Y-63452129D01*
X58400498Y-63452123D01*
X58400497Y-63452116D01*
X58394091Y-63392517D01*
X58387743Y-63375498D01*
X58343797Y-63257671D01*
X58343793Y-63257664D01*
X58257547Y-63142455D01*
X58257544Y-63142452D01*
X58142335Y-63056206D01*
X58142328Y-63056202D01*
X58007482Y-63005908D01*
X58007483Y-63005908D01*
X57947883Y-62999501D01*
X57947881Y-62999500D01*
X57947873Y-62999500D01*
X57947864Y-62999500D01*
X56352129Y-62999500D01*
X56352123Y-62999501D01*
X56292516Y-63005908D01*
X56157671Y-63056202D01*
X56157664Y-63056206D01*
X56042455Y-63142452D01*
X56042452Y-63142455D01*
X55956206Y-63257664D01*
X55956202Y-63257671D01*
X55905908Y-63392517D01*
X55900962Y-63438525D01*
X55899501Y-63452123D01*
X55899500Y-63452135D01*
X55899500Y-65047870D01*
X55899501Y-65047879D01*
X55906313Y-65111248D01*
X55893906Y-65180007D01*
X55846294Y-65231143D01*
X55783023Y-65248500D01*
X47124500Y-65248500D01*
X47057461Y-65228815D01*
X47011706Y-65176011D01*
X47000500Y-65124500D01*
X47000499Y-63452129D01*
X47000498Y-63452123D01*
X47000497Y-63452116D01*
X46994091Y-63392517D01*
X46987743Y-63375498D01*
X46943797Y-63257671D01*
X46943793Y-63257664D01*
X46857547Y-63142455D01*
X46857544Y-63142452D01*
X46742335Y-63056206D01*
X46742328Y-63056202D01*
X46607482Y-63005908D01*
X46607483Y-63005908D01*
X46547883Y-62999501D01*
X46547881Y-62999500D01*
X46547873Y-62999500D01*
X46547864Y-62999500D01*
X44452129Y-62999500D01*
X44452123Y-62999501D01*
X44392516Y-63005908D01*
X44257671Y-63056202D01*
X44257664Y-63056206D01*
X44142455Y-63142452D01*
X44142452Y-63142455D01*
X44056206Y-63257664D01*
X44056202Y-63257671D01*
X44005908Y-63392517D01*
X44000962Y-63438525D01*
X43999500Y-63452127D01*
X43999500Y-64348422D01*
X43999501Y-65124500D01*
X43979816Y-65191539D01*
X43927013Y-65237294D01*
X43875501Y-65248500D01*
X40150515Y-65248500D01*
X40142897Y-65246263D01*
X40135062Y-65247533D01*
X40109853Y-65236560D01*
X40083476Y-65228815D01*
X40076645Y-65222105D01*
X40070999Y-65219648D01*
X40047414Y-65193393D01*
X40035130Y-65175008D01*
X39985858Y-65101267D01*
X39985856Y-65101264D01*
X39895637Y-65011045D01*
X39895606Y-65011016D01*
X39825793Y-64941203D01*
X39792308Y-64879880D01*
X39791887Y-64877864D01*
X39769737Y-64766503D01*
X39739467Y-64693425D01*
X39709397Y-64620827D01*
X39709390Y-64620814D01*
X39621789Y-64489711D01*
X39621786Y-64489707D01*
X39510292Y-64378213D01*
X39510288Y-64378210D01*
X39379185Y-64290609D01*
X39379172Y-64290602D01*
X39233501Y-64230264D01*
X39233489Y-64230261D01*
X39078845Y-64199500D01*
X39078842Y-64199500D01*
X38921158Y-64199500D01*
X38921155Y-64199500D01*
X38766510Y-64230261D01*
X38766498Y-64230264D01*
X38620827Y-64290602D01*
X38620814Y-64290609D01*
X38489711Y-64378210D01*
X38489707Y-64378213D01*
X38378213Y-64489707D01*
X38378210Y-64489711D01*
X38290609Y-64620814D01*
X38290606Y-64620820D01*
X38260532Y-64693425D01*
X38216690Y-64747828D01*
X38193425Y-64760532D01*
X38120820Y-64790606D01*
X38120814Y-64790609D01*
X37989711Y-64878210D01*
X37989707Y-64878213D01*
X37878213Y-64989707D01*
X37878210Y-64989711D01*
X37790609Y-65120814D01*
X37790602Y-65120827D01*
X37730264Y-65266498D01*
X37730261Y-65266510D01*
X37699500Y-65421153D01*
X37699500Y-65578846D01*
X37727123Y-65717712D01*
X37730263Y-65733497D01*
X37766884Y-65821909D01*
X37769427Y-65828047D01*
X37776896Y-65897517D01*
X37745621Y-65959996D01*
X37685532Y-65995648D01*
X37654866Y-65999500D01*
X34299043Y-65999500D01*
X34232004Y-65979815D01*
X34186249Y-65927011D01*
X34176305Y-65857853D01*
X34205330Y-65794297D01*
X34233946Y-65769961D01*
X34318656Y-65717712D01*
X34442712Y-65593656D01*
X34534814Y-65444334D01*
X34589999Y-65277797D01*
X34600500Y-65175009D01*
X34600499Y-63824992D01*
X34597728Y-63797870D01*
X34589999Y-63722203D01*
X34589998Y-63722200D01*
X34580701Y-63694143D01*
X34534814Y-63555666D01*
X34442712Y-63406344D01*
X34318656Y-63282288D01*
X34318652Y-63282285D01*
X34243950Y-63236208D01*
X34197225Y-63184260D01*
X34186004Y-63115298D01*
X34213847Y-63051216D01*
X34247045Y-63023284D01*
X34354102Y-62961475D01*
X35544921Y-61770654D01*
X35606242Y-61737171D01*
X35675933Y-61742155D01*
X35697692Y-61752795D01*
X35830666Y-61834814D01*
X35997203Y-61889999D01*
X35997204Y-61889999D01*
X35997666Y-61890152D01*
X36049896Y-61923880D01*
X36056417Y-61930965D01*
X36076642Y-61961233D01*
X36163767Y-62048358D01*
X36163769Y-62048359D01*
X36172654Y-62057244D01*
X36174205Y-62058795D01*
X36174384Y-62059124D01*
X36174391Y-62059131D01*
X36174414Y-62059179D01*
X36207690Y-62120118D01*
X36208141Y-62122285D01*
X36230261Y-62233489D01*
X36230264Y-62233501D01*
X36290602Y-62379172D01*
X36290609Y-62379185D01*
X36378210Y-62510288D01*
X36378213Y-62510292D01*
X36489707Y-62621786D01*
X36489711Y-62621789D01*
X36620814Y-62709390D01*
X36620827Y-62709397D01*
X36741723Y-62759473D01*
X36766503Y-62769737D01*
X36921153Y-62800499D01*
X36921156Y-62800500D01*
X36921158Y-62800500D01*
X37078844Y-62800500D01*
X37078845Y-62800499D01*
X37233497Y-62769737D01*
X37379179Y-62709394D01*
X37431110Y-62674694D01*
X37497785Y-62653816D01*
X37565165Y-62672300D01*
X37568863Y-62674676D01*
X37620821Y-62709394D01*
X37620823Y-62709395D01*
X37620825Y-62709396D01*
X37741723Y-62759473D01*
X37766503Y-62769737D01*
X37921153Y-62800499D01*
X37921156Y-62800500D01*
X37921158Y-62800500D01*
X38078844Y-62800500D01*
X38078845Y-62800499D01*
X38233497Y-62769737D01*
X38354520Y-62719608D01*
X38379172Y-62709397D01*
X38379172Y-62709396D01*
X38379179Y-62709394D01*
X38510289Y-62621789D01*
X38621789Y-62510289D01*
X38709394Y-62379179D01*
X38769737Y-62233497D01*
X38800500Y-62078842D01*
X38800500Y-62072951D01*
X38820185Y-62005912D01*
X38836815Y-61985274D01*
X39061571Y-61760517D01*
X39122892Y-61727034D01*
X39183843Y-61729123D01*
X39247431Y-61747598D01*
X39284306Y-61750500D01*
X39284314Y-61750500D01*
X40440686Y-61750500D01*
X40440694Y-61750500D01*
X40477569Y-61747598D01*
X40477571Y-61747597D01*
X40477573Y-61747597D01*
X40541156Y-61729124D01*
X40635398Y-61701744D01*
X40776865Y-61618081D01*
X40893081Y-61501865D01*
X40893267Y-61501549D01*
X40893477Y-61501353D01*
X40897861Y-61495702D01*
X40898772Y-61496409D01*
X40944336Y-61453866D01*
X41013077Y-61441362D01*
X41077667Y-61468006D01*
X41101855Y-61495921D01*
X41102139Y-61495702D01*
X41106179Y-61500911D01*
X41106732Y-61501548D01*
X41106919Y-61501865D01*
X41106921Y-61501867D01*
X41106923Y-61501870D01*
X41223129Y-61618076D01*
X41223133Y-61618079D01*
X41223135Y-61618081D01*
X41364602Y-61701744D01*
X41390933Y-61709394D01*
X41522426Y-61747597D01*
X41522429Y-61747597D01*
X41522431Y-61747598D01*
X41559306Y-61750500D01*
X41559314Y-61750500D01*
X42715686Y-61750500D01*
X42715694Y-61750500D01*
X42752569Y-61747598D01*
X42752571Y-61747597D01*
X42752573Y-61747597D01*
X42816156Y-61729124D01*
X42910398Y-61701744D01*
X43051865Y-61618081D01*
X43051870Y-61618076D01*
X43058128Y-61611819D01*
X43119451Y-61578334D01*
X43145809Y-61575500D01*
X43611607Y-61575500D01*
X43672029Y-61563481D01*
X43732452Y-61551463D01*
X43766405Y-61537399D01*
X43846286Y-61504312D01*
X43901529Y-61467399D01*
X43948733Y-61435858D01*
X44035858Y-61348733D01*
X44035859Y-61348731D01*
X44042925Y-61341665D01*
X44042928Y-61341661D01*
X44898729Y-60485860D01*
X44898733Y-60485858D01*
X44985858Y-60398733D01*
X45039364Y-60318656D01*
X45054312Y-60296285D01*
X45088395Y-60214000D01*
X45101463Y-60182452D01*
X45101553Y-60181999D01*
X45103988Y-60176078D01*
X45122273Y-60153268D01*
X45138292Y-60128817D01*
X45143869Y-60126328D01*
X45147690Y-60121563D01*
X45175401Y-60112261D01*
X45202100Y-60100350D01*
X45206069Y-60099880D01*
X45275044Y-60092834D01*
X45302797Y-60089999D01*
X45469334Y-60034814D01*
X45618656Y-59942712D01*
X45662319Y-59899049D01*
X45723642Y-59865564D01*
X45793334Y-59870548D01*
X45837681Y-59899049D01*
X45881344Y-59942712D01*
X46030666Y-60034814D01*
X46197203Y-60089999D01*
X46299991Y-60100500D01*
X47700008Y-60100499D01*
X47802797Y-60089999D01*
X47969334Y-60034814D01*
X48118656Y-59942712D01*
X48242712Y-59818656D01*
X48242712Y-59818655D01*
X48247819Y-59813549D01*
X48249321Y-59815051D01*
X48297792Y-59780721D01*
X48367590Y-59777573D01*
X48425731Y-59810321D01*
X50066851Y-61451442D01*
X50100335Y-61512763D01*
X50103169Y-61539121D01*
X50103169Y-61855111D01*
X50083484Y-61922150D01*
X50030680Y-61967905D01*
X49979169Y-61979111D01*
X49680799Y-61979111D01*
X49680792Y-61979112D01*
X49621185Y-61985519D01*
X49486340Y-62035813D01*
X49486333Y-62035817D01*
X49371124Y-62122063D01*
X49371121Y-62122066D01*
X49284875Y-62237275D01*
X49284871Y-62237282D01*
X49234577Y-62372128D01*
X49229827Y-62416315D01*
X49228170Y-62431734D01*
X49228169Y-62431746D01*
X49228169Y-64527481D01*
X49228170Y-64527487D01*
X49234577Y-64587094D01*
X49284871Y-64721939D01*
X49284875Y-64721946D01*
X49371121Y-64837155D01*
X49371124Y-64837158D01*
X49486333Y-64923404D01*
X49486340Y-64923408D01*
X49621186Y-64973702D01*
X49621185Y-64973702D01*
X49628113Y-64974446D01*
X49680796Y-64980111D01*
X51776541Y-64980110D01*
X51836152Y-64973702D01*
X51971000Y-64923407D01*
X52086215Y-64837157D01*
X52172465Y-64721942D01*
X52222760Y-64587094D01*
X52229169Y-64527484D01*
X52229168Y-62431739D01*
X52222760Y-62372128D01*
X52221242Y-62368059D01*
X52172466Y-62237282D01*
X52172462Y-62237275D01*
X52086216Y-62122066D01*
X52086213Y-62122063D01*
X51999656Y-62057266D01*
X51957785Y-62001332D01*
X51952801Y-61931641D01*
X51986287Y-61870318D01*
X52047610Y-61836834D01*
X52073967Y-61834000D01*
X52853107Y-61834000D01*
X52913529Y-61821981D01*
X52973952Y-61809963D01*
X53007292Y-61796152D01*
X53087786Y-61762812D01*
X53139009Y-61728584D01*
X53190233Y-61694358D01*
X53277358Y-61607233D01*
X53277359Y-61607231D01*
X53284425Y-61600165D01*
X53284427Y-61600161D01*
X53722771Y-61161819D01*
X53784094Y-61128334D01*
X53810452Y-61125500D01*
X60453708Y-61125500D01*
X60453708Y-61125499D01*
X60543351Y-61107669D01*
X60574552Y-61101463D01*
X60625161Y-61080500D01*
X60688386Y-61054312D01*
X60756197Y-61009001D01*
X60790833Y-60985858D01*
X60877958Y-60898733D01*
X60877959Y-60898731D01*
X60885025Y-60891665D01*
X60885028Y-60891661D01*
X62265454Y-59511234D01*
X62326775Y-59477751D01*
X62396467Y-59482735D01*
G37*
G04 #@! TD.AperFunction*
G04 #@! TA.AperFunction,Conductor*
G36*
X89282061Y-57083685D02*
G01*
X89302703Y-57100319D01*
X89844346Y-57641962D01*
X89844356Y-57641973D01*
X89848686Y-57646303D01*
X89848687Y-57646304D01*
X89953696Y-57751313D01*
X90052101Y-57808127D01*
X90082304Y-57825565D01*
X90225748Y-57864000D01*
X90374253Y-57864000D01*
X95782244Y-57864000D01*
X95802642Y-57869989D01*
X95823868Y-57871195D01*
X95835497Y-57879636D01*
X95849283Y-57883685D01*
X95863203Y-57899750D01*
X95880410Y-57912241D01*
X95891816Y-57932771D01*
X95895038Y-57936489D01*
X95897777Y-57942966D01*
X95898129Y-57943869D01*
X95916204Y-57992331D01*
X95917904Y-57994602D01*
X95921944Y-58004966D01*
X95924291Y-58032165D01*
X95930095Y-58058853D01*
X95927389Y-58068067D01*
X95927951Y-58074577D01*
X95922368Y-58085166D01*
X95918310Y-58098988D01*
X95919303Y-58099359D01*
X95865908Y-58242517D01*
X95859501Y-58302116D01*
X95859500Y-58302135D01*
X95859500Y-59297870D01*
X95859501Y-59297876D01*
X95865908Y-59357483D01*
X95919303Y-59500641D01*
X95917575Y-59501285D01*
X95930095Y-59558853D01*
X95918310Y-59598988D01*
X95919303Y-59599359D01*
X95865908Y-59742517D01*
X95859501Y-59802116D01*
X95859500Y-59802135D01*
X95859500Y-60797870D01*
X95859501Y-60797876D01*
X95865908Y-60857483D01*
X95919303Y-61000641D01*
X95917575Y-61001285D01*
X95930095Y-61058853D01*
X95918310Y-61098988D01*
X95919303Y-61099359D01*
X95865908Y-61242517D01*
X95859501Y-61302116D01*
X95859500Y-61302135D01*
X95859500Y-62297870D01*
X95859501Y-62297876D01*
X95865908Y-62357483D01*
X95919303Y-62500641D01*
X95917575Y-62501285D01*
X95930095Y-62558853D01*
X95918310Y-62598988D01*
X95919303Y-62599359D01*
X95865908Y-62742517D01*
X95859501Y-62802116D01*
X95859500Y-62802135D01*
X95859500Y-63797870D01*
X95859501Y-63797876D01*
X95865908Y-63857483D01*
X95916202Y-63992328D01*
X95916206Y-63992335D01*
X96002452Y-64107544D01*
X96002455Y-64107547D01*
X96117664Y-64193793D01*
X96117671Y-64193797D01*
X96252517Y-64244091D01*
X96252516Y-64244091D01*
X96259444Y-64244835D01*
X96312127Y-64250500D01*
X97812000Y-64250499D01*
X97879039Y-64270184D01*
X97924794Y-64322987D01*
X97936000Y-64374499D01*
X97936000Y-64715022D01*
X97927355Y-64744462D01*
X97920832Y-64774449D01*
X97917077Y-64779464D01*
X97916315Y-64782061D01*
X97899681Y-64802703D01*
X97861203Y-64841181D01*
X97799880Y-64874666D01*
X97773522Y-64877500D01*
X81219478Y-64877500D01*
X81152439Y-64857815D01*
X81106684Y-64805011D01*
X81096740Y-64735853D01*
X81125765Y-64672297D01*
X81131797Y-64665819D01*
X81675288Y-64122328D01*
X83336094Y-62461520D01*
X83336099Y-62461517D01*
X83346302Y-62451313D01*
X83346304Y-62451313D01*
X83451313Y-62346304D01*
X83525565Y-62217696D01*
X83535009Y-62182451D01*
X83564000Y-62074253D01*
X83564000Y-61925747D01*
X83564000Y-61905216D01*
X83583685Y-61838177D01*
X83636489Y-61792422D01*
X83663809Y-61783599D01*
X83673999Y-61781571D01*
X83733497Y-61769737D01*
X83879179Y-61709394D01*
X84010289Y-61621789D01*
X84121789Y-61510289D01*
X84209394Y-61379179D01*
X84269737Y-61233497D01*
X84300500Y-61078842D01*
X84300500Y-60921158D01*
X84300500Y-60921155D01*
X84300499Y-60921153D01*
X84290513Y-60870951D01*
X84269737Y-60766503D01*
X84257931Y-60738000D01*
X84209397Y-60620827D01*
X84209390Y-60620814D01*
X84121789Y-60489711D01*
X84121786Y-60489707D01*
X84100319Y-60468240D01*
X84066834Y-60406917D01*
X84064000Y-60380559D01*
X84064000Y-59905216D01*
X84083685Y-59838177D01*
X84136489Y-59792422D01*
X84163809Y-59783599D01*
X84178277Y-59780721D01*
X84233497Y-59769737D01*
X84367994Y-59714027D01*
X84379172Y-59709397D01*
X84379172Y-59709396D01*
X84379179Y-59709394D01*
X84510289Y-59621789D01*
X84621789Y-59510289D01*
X84709394Y-59379179D01*
X84713426Y-59369444D01*
X84757264Y-59315042D01*
X84823557Y-59292975D01*
X84852177Y-59295278D01*
X84865204Y-59297870D01*
X84921156Y-59309000D01*
X84921158Y-59309000D01*
X85078844Y-59309000D01*
X85078845Y-59308999D01*
X85233497Y-59278237D01*
X85379179Y-59217894D01*
X85510289Y-59130289D01*
X85621789Y-59018789D01*
X85709394Y-58887679D01*
X85769737Y-58741997D01*
X85800500Y-58587342D01*
X85800500Y-58429658D01*
X85800500Y-58429655D01*
X85800499Y-58429653D01*
X85793405Y-58393991D01*
X85769737Y-58275003D01*
X85763294Y-58259449D01*
X85709397Y-58129327D01*
X85709390Y-58129314D01*
X85621789Y-57998211D01*
X85621786Y-57998207D01*
X85600319Y-57976740D01*
X85585615Y-57949812D01*
X85569023Y-57923994D01*
X85568131Y-57917793D01*
X85566834Y-57915417D01*
X85564000Y-57889059D01*
X85564000Y-57784978D01*
X85583685Y-57717939D01*
X85600319Y-57697297D01*
X86197298Y-57100319D01*
X86258621Y-57066834D01*
X86284979Y-57064000D01*
X89215022Y-57064000D01*
X89282061Y-57083685D01*
G37*
G04 #@! TD.AperFunction*
G04 #@! TA.AperFunction,Conductor*
G36*
X145530811Y-57392810D02*
G01*
X145542982Y-57390830D01*
X145564314Y-57400098D01*
X145587038Y-57405042D01*
X145602732Y-57416791D01*
X145607064Y-57418673D01*
X145615292Y-57426193D01*
X145665810Y-57476711D01*
X145805814Y-57578430D01*
X145823385Y-57591196D01*
X145866051Y-57646526D01*
X145874500Y-57691514D01*
X145874500Y-60689548D01*
X145854815Y-60756587D01*
X145838181Y-60777229D01*
X141777229Y-64838181D01*
X141715906Y-64871666D01*
X141689548Y-64874500D01*
X121982612Y-64874500D01*
X121915573Y-64854815D01*
X121869818Y-64802011D01*
X121859874Y-64732853D01*
X121864678Y-64712190D01*
X121919709Y-64542826D01*
X121924782Y-64510797D01*
X121950500Y-64348422D01*
X121950500Y-64151577D01*
X121919709Y-63957177D01*
X121919709Y-63957174D01*
X121911488Y-63931876D01*
X121909492Y-63862036D01*
X121941736Y-63805878D01*
X122836094Y-62911521D01*
X122836099Y-62911517D01*
X122846302Y-62901313D01*
X122846304Y-62901313D01*
X122951313Y-62796304D01*
X123010496Y-62693796D01*
X123025565Y-62667697D01*
X123064000Y-62524253D01*
X123064000Y-62375748D01*
X123064000Y-61371436D01*
X123083685Y-61304397D01*
X123136489Y-61258642D01*
X123205647Y-61248698D01*
X123235445Y-61256872D01*
X123266503Y-61269737D01*
X123399968Y-61296285D01*
X123421153Y-61300499D01*
X123421156Y-61300500D01*
X123421158Y-61300500D01*
X123578844Y-61300500D01*
X123578845Y-61300499D01*
X123733497Y-61269737D01*
X123865594Y-61215021D01*
X123879172Y-61209397D01*
X123879172Y-61209396D01*
X123879179Y-61209394D01*
X123973459Y-61146398D01*
X124040136Y-61125520D01*
X124042350Y-61125500D01*
X142561608Y-61125500D01*
X142561608Y-61125499D01*
X142651251Y-61107669D01*
X142682452Y-61101463D01*
X142733061Y-61080500D01*
X142796286Y-61054312D01*
X142864097Y-61009001D01*
X142898733Y-60985858D01*
X142985858Y-60898733D01*
X142985859Y-60898731D01*
X142992925Y-60891665D01*
X142992928Y-60891661D01*
X144738729Y-59145860D01*
X144738733Y-59145858D01*
X144825858Y-59058733D01*
X144877256Y-58981809D01*
X144894312Y-58956285D01*
X144927611Y-58875893D01*
X144941463Y-58842452D01*
X144953128Y-58783806D01*
X144960030Y-58749109D01*
X144960030Y-58749106D01*
X144965500Y-58721607D01*
X144965500Y-58598393D01*
X144965500Y-57930448D01*
X144985185Y-57863409D01*
X145037989Y-57817654D01*
X145050488Y-57812744D01*
X145059334Y-57809814D01*
X145208656Y-57717712D01*
X145332712Y-57593656D01*
X145422074Y-57448776D01*
X145439363Y-57433224D01*
X145453301Y-57414607D01*
X145464851Y-57410298D01*
X145474019Y-57402053D01*
X145496975Y-57398317D01*
X145518765Y-57390190D01*
X145530811Y-57392810D01*
G37*
G04 #@! TD.AperFunction*
G04 #@! TA.AperFunction,Conductor*
G36*
X65983012Y-53286877D02*
G01*
X66009334Y-53306950D01*
X69399681Y-56697297D01*
X69433166Y-56758620D01*
X69436000Y-56784978D01*
X69436000Y-58355191D01*
X69416315Y-58422230D01*
X69399681Y-58442872D01*
X69331923Y-58510629D01*
X69331917Y-58510637D01*
X69248255Y-58652103D01*
X69248254Y-58652106D01*
X69202402Y-58809926D01*
X69202401Y-58809932D01*
X69199500Y-58846798D01*
X69199500Y-60153201D01*
X69202401Y-60190067D01*
X69202402Y-60190073D01*
X69248254Y-60347893D01*
X69248255Y-60347896D01*
X69248256Y-60347898D01*
X69276518Y-60395686D01*
X69331917Y-60489362D01*
X69331923Y-60489370D01*
X69448129Y-60605576D01*
X69448133Y-60605579D01*
X69448135Y-60605581D01*
X69589602Y-60689244D01*
X69631224Y-60701336D01*
X69747426Y-60735097D01*
X69747429Y-60735097D01*
X69747431Y-60735098D01*
X69784306Y-60738000D01*
X69784314Y-60738000D01*
X70215686Y-60738000D01*
X70215694Y-60738000D01*
X70252569Y-60735098D01*
X70321758Y-60714996D01*
X70391627Y-60715195D01*
X70450298Y-60753136D01*
X70479142Y-60816774D01*
X70469001Y-60885904D01*
X70460469Y-60899821D01*
X70461080Y-60900198D01*
X70457290Y-60906341D01*
X70457288Y-60906344D01*
X70408244Y-60985857D01*
X70365187Y-61055663D01*
X70365185Y-61055668D01*
X70350010Y-61101463D01*
X70310001Y-61222203D01*
X70310001Y-61222204D01*
X70310000Y-61222204D01*
X70299500Y-61324983D01*
X70299500Y-62368059D01*
X70279815Y-62435098D01*
X70227011Y-62480853D01*
X70157853Y-62490797D01*
X70094297Y-62461772D01*
X70087819Y-62455740D01*
X70010292Y-62378213D01*
X70010288Y-62378210D01*
X69879185Y-62290609D01*
X69879172Y-62290602D01*
X69733501Y-62230264D01*
X69733489Y-62230261D01*
X69578845Y-62199500D01*
X69578842Y-62199500D01*
X69421158Y-62199500D01*
X69421155Y-62199500D01*
X69266510Y-62230261D01*
X69266498Y-62230264D01*
X69120827Y-62290602D01*
X69120814Y-62290609D01*
X68989711Y-62378210D01*
X68989707Y-62378213D01*
X68968240Y-62399681D01*
X68906917Y-62433166D01*
X68880559Y-62436000D01*
X66049730Y-62436000D01*
X65982691Y-62416315D01*
X65936936Y-62363511D01*
X65926992Y-62294353D01*
X65956017Y-62230797D01*
X65962049Y-62224319D01*
X66003919Y-62182449D01*
X66067712Y-62118656D01*
X66159814Y-61969334D01*
X66214999Y-61802797D01*
X66225500Y-61700009D01*
X66225499Y-60299992D01*
X66218671Y-60233153D01*
X66223684Y-60206182D01*
X66225271Y-60178796D01*
X66229977Y-60172327D01*
X66231440Y-60164462D01*
X66250241Y-60144481D01*
X66266382Y-60122301D01*
X66275555Y-60117580D01*
X66279321Y-60113578D01*
X66297127Y-60104968D01*
X66304782Y-60101993D01*
X66307452Y-60101463D01*
X66327109Y-60093320D01*
X66328362Y-60092834D01*
X66361857Y-60089982D01*
X66395279Y-60086389D01*
X66396877Y-60087000D01*
X66397980Y-60086907D01*
X66401518Y-60088777D01*
X66438360Y-60102880D01*
X66530659Y-60159810D01*
X66530660Y-60159810D01*
X66530666Y-60159814D01*
X66697203Y-60214999D01*
X66799991Y-60225500D01*
X66907349Y-60225499D01*
X66974388Y-60245183D01*
X67014735Y-60287498D01*
X67048687Y-60346304D01*
X67048689Y-60346306D01*
X67160761Y-60458378D01*
X67160767Y-60458383D01*
X67163181Y-60460797D01*
X67196666Y-60522120D01*
X67199500Y-60548478D01*
X67199500Y-60578846D01*
X67230261Y-60733489D01*
X67230264Y-60733501D01*
X67290602Y-60879172D01*
X67290609Y-60879185D01*
X67378210Y-61010288D01*
X67378213Y-61010292D01*
X67489707Y-61121786D01*
X67489711Y-61121789D01*
X67620814Y-61209390D01*
X67620827Y-61209397D01*
X67719215Y-61250150D01*
X67766503Y-61269737D01*
X67899968Y-61296285D01*
X67921153Y-61300499D01*
X67921156Y-61300500D01*
X67921158Y-61300500D01*
X68078844Y-61300500D01*
X68078845Y-61300499D01*
X68233497Y-61269737D01*
X68365594Y-61215021D01*
X68379172Y-61209397D01*
X68379172Y-61209396D01*
X68379179Y-61209394D01*
X68510289Y-61121789D01*
X68621789Y-61010289D01*
X68709394Y-60879179D01*
X68769737Y-60733497D01*
X68800500Y-60578842D01*
X68800500Y-60421158D01*
X68800500Y-60421155D01*
X68800499Y-60421153D01*
X68792424Y-60380559D01*
X68769737Y-60266503D01*
X68746080Y-60209390D01*
X68709396Y-60120825D01*
X68709395Y-60120823D01*
X68709394Y-60120821D01*
X68708312Y-60119202D01*
X68708006Y-60118225D01*
X68706525Y-60115454D01*
X68707050Y-60115172D01*
X68687436Y-60052526D01*
X68705921Y-59985146D01*
X68723737Y-59962631D01*
X68742709Y-59943659D01*
X68742709Y-59943658D01*
X68742712Y-59943656D01*
X68834814Y-59794334D01*
X68889999Y-59627797D01*
X68900500Y-59525009D01*
X68900499Y-58599992D01*
X68896822Y-58564000D01*
X68889999Y-58497203D01*
X68889998Y-58497200D01*
X68878626Y-58462882D01*
X68834814Y-58330666D01*
X68742712Y-58181344D01*
X68618656Y-58057288D01*
X68498180Y-57982978D01*
X68469336Y-57965187D01*
X68469331Y-57965185D01*
X68465864Y-57964036D01*
X68302797Y-57910001D01*
X68302795Y-57910000D01*
X68200010Y-57899500D01*
X66799998Y-57899500D01*
X66799981Y-57899501D01*
X66697203Y-57910000D01*
X66697200Y-57910001D01*
X66530666Y-57965186D01*
X66530665Y-57965186D01*
X66502229Y-57982725D01*
X66434836Y-58001163D01*
X66368173Y-57980238D01*
X66349455Y-57964865D01*
X65990197Y-57605607D01*
X65985859Y-57601269D01*
X65985858Y-57601267D01*
X65920555Y-57535964D01*
X65896772Y-57512180D01*
X65873904Y-57470300D01*
X65863288Y-57450858D01*
X65868272Y-57381166D01*
X65910144Y-57325233D01*
X65910144Y-57325232D01*
X65910145Y-57325232D01*
X65964581Y-57304929D01*
X65975608Y-57300816D01*
X65984454Y-57300500D01*
X66078844Y-57300500D01*
X66078845Y-57300499D01*
X66233497Y-57269737D01*
X66378991Y-57209472D01*
X66379172Y-57209397D01*
X66379172Y-57209396D01*
X66379179Y-57209394D01*
X66510289Y-57121789D01*
X66621789Y-57010289D01*
X66709394Y-56879179D01*
X66769737Y-56733497D01*
X66800500Y-56578842D01*
X66800500Y-56421158D01*
X66800500Y-56421155D01*
X66800499Y-56421153D01*
X66796588Y-56401489D01*
X66769737Y-56266503D01*
X66755061Y-56231072D01*
X66709397Y-56120827D01*
X66709390Y-56120814D01*
X66621789Y-55989711D01*
X66621786Y-55989707D01*
X66510292Y-55878213D01*
X66510288Y-55878210D01*
X66379185Y-55790609D01*
X66379172Y-55790602D01*
X66233501Y-55730264D01*
X66233489Y-55730261D01*
X66078845Y-55699500D01*
X66078842Y-55699500D01*
X65921158Y-55699500D01*
X65921155Y-55699500D01*
X65766510Y-55730261D01*
X65766498Y-55730264D01*
X65620827Y-55790602D01*
X65620814Y-55790609D01*
X65516233Y-55860489D01*
X65449555Y-55881367D01*
X65431158Y-55880326D01*
X65386903Y-55874500D01*
X65386901Y-55874500D01*
X65061999Y-55874500D01*
X64994960Y-55854815D01*
X64949205Y-55802011D01*
X64937999Y-55750500D01*
X64937999Y-55424500D01*
X64957684Y-55357461D01*
X65010488Y-55311706D01*
X65061999Y-55300500D01*
X65078844Y-55300500D01*
X65078845Y-55300499D01*
X65233497Y-55269737D01*
X65379179Y-55209394D01*
X65510289Y-55121789D01*
X65621789Y-55010289D01*
X65709394Y-54879179D01*
X65769737Y-54733497D01*
X65800500Y-54578842D01*
X65800500Y-54421158D01*
X65800500Y-54421155D01*
X65800499Y-54421153D01*
X65777925Y-54307668D01*
X65769737Y-54266503D01*
X65756062Y-54233489D01*
X65709396Y-54120825D01*
X65709394Y-54120822D01*
X65709394Y-54120821D01*
X65674694Y-54068889D01*
X65653816Y-54002215D01*
X65672300Y-53934835D01*
X65674676Y-53931136D01*
X65709394Y-53879179D01*
X65769737Y-53733497D01*
X65800500Y-53578842D01*
X65800500Y-53421158D01*
X65800500Y-53421155D01*
X65800036Y-53418823D01*
X65800147Y-53417576D01*
X65799903Y-53415093D01*
X65800373Y-53415046D01*
X65806263Y-53349231D01*
X65849126Y-53294054D01*
X65915015Y-53270809D01*
X65983012Y-53286877D01*
G37*
G04 #@! TD.AperFunction*
G04 #@! TA.AperFunction,Conductor*
G36*
X104355334Y-60544795D02*
G01*
X104411267Y-60586667D01*
X104435684Y-60652131D01*
X104436000Y-60660977D01*
X104436000Y-61215021D01*
X104416315Y-61282060D01*
X104399681Y-61302702D01*
X103944321Y-61758061D01*
X103882998Y-61791546D01*
X103813306Y-61786562D01*
X103757373Y-61744690D01*
X103751101Y-61735477D01*
X103717712Y-61681344D01*
X103593656Y-61557288D01*
X103477847Y-61485857D01*
X103444336Y-61465187D01*
X103444331Y-61465185D01*
X103430989Y-61460764D01*
X103277797Y-61410001D01*
X103277795Y-61410000D01*
X103175010Y-61399500D01*
X101824998Y-61399500D01*
X101824981Y-61399501D01*
X101722203Y-61410000D01*
X101722200Y-61410001D01*
X101555668Y-61465185D01*
X101555663Y-61465187D01*
X101406342Y-61557289D01*
X101337681Y-61625951D01*
X101276358Y-61659436D01*
X101206666Y-61654452D01*
X101162319Y-61625951D01*
X101093657Y-61557289D01*
X101093656Y-61557288D01*
X100977847Y-61485857D01*
X100944336Y-61465187D01*
X100944331Y-61465185D01*
X100930989Y-61460764D01*
X100777797Y-61410001D01*
X100777795Y-61410000D01*
X100675010Y-61399500D01*
X99324998Y-61399500D01*
X99324981Y-61399501D01*
X99222203Y-61410000D01*
X99222200Y-61410001D01*
X99055668Y-61465185D01*
X99055659Y-61465189D01*
X98957976Y-61525441D01*
X98929440Y-61533249D01*
X98901726Y-61543586D01*
X98896119Y-61542366D01*
X98890584Y-61543881D01*
X98862356Y-61535021D01*
X98833453Y-61528734D01*
X98827049Y-61523940D01*
X98823920Y-61522958D01*
X98805199Y-61507583D01*
X98758383Y-61460767D01*
X98758381Y-61460764D01*
X98646306Y-61348689D01*
X98646304Y-61348687D01*
X98553986Y-61295387D01*
X98505770Y-61244820D01*
X98492548Y-61176213D01*
X98518516Y-61111348D01*
X98575430Y-61070820D01*
X98615986Y-61064000D01*
X103574251Y-61064000D01*
X103574253Y-61064000D01*
X103717696Y-61025565D01*
X103741872Y-61011607D01*
X103846304Y-60951313D01*
X103951313Y-60846304D01*
X103951313Y-60846302D01*
X103961517Y-60836099D01*
X103961521Y-60836094D01*
X104224319Y-60573296D01*
X104285642Y-60539811D01*
X104355334Y-60544795D01*
G37*
G04 #@! TD.AperFunction*
G04 #@! TA.AperFunction,Conductor*
G36*
X34342634Y-59071248D02*
G01*
X34398567Y-59113120D01*
X34422984Y-59178584D01*
X34423300Y-59187430D01*
X34423300Y-60709761D01*
X34403615Y-60776800D01*
X34386981Y-60797442D01*
X33797442Y-61386981D01*
X33736119Y-61420466D01*
X33709761Y-61423300D01*
X32790239Y-61423300D01*
X32760798Y-61414655D01*
X32730812Y-61408132D01*
X32725796Y-61404377D01*
X32723200Y-61403615D01*
X32702558Y-61386981D01*
X32543019Y-61227442D01*
X32509534Y-61166119D01*
X32506700Y-61139761D01*
X32506700Y-60666678D01*
X32506700Y-60666676D01*
X32467399Y-60520002D01*
X32464633Y-60515212D01*
X32391477Y-60388501D01*
X32391472Y-60388495D01*
X32316024Y-60313047D01*
X32282539Y-60251724D01*
X32287523Y-60182032D01*
X32329395Y-60126099D01*
X32334775Y-60122290D01*
X32440289Y-60051789D01*
X32551789Y-59940289D01*
X32639394Y-59809179D01*
X32699737Y-59663497D01*
X32730500Y-59508842D01*
X32730500Y-59474499D01*
X32750185Y-59407460D01*
X32802989Y-59361705D01*
X32854495Y-59350499D01*
X33700008Y-59350499D01*
X33700016Y-59350498D01*
X33700019Y-59350498D01*
X33756302Y-59344748D01*
X33802797Y-59339999D01*
X33969334Y-59284814D01*
X34118656Y-59192712D01*
X34211619Y-59099749D01*
X34272942Y-59066264D01*
X34342634Y-59071248D01*
G37*
G04 #@! TD.AperFunction*
G04 #@! TA.AperFunction,Conductor*
G36*
X38406587Y-58645185D02*
G01*
X38427229Y-58661819D01*
X38663181Y-58897771D01*
X38696666Y-58959094D01*
X38699500Y-58985452D01*
X38699500Y-59265701D01*
X38702401Y-59302567D01*
X38702402Y-59302573D01*
X38748254Y-59460393D01*
X38748255Y-59460396D01*
X38748256Y-59460398D01*
X38771996Y-59500541D01*
X38831732Y-59601550D01*
X38831918Y-59601864D01*
X38831923Y-59601870D01*
X38948129Y-59718076D01*
X38948133Y-59718079D01*
X38948135Y-59718081D01*
X39089602Y-59801744D01*
X39130235Y-59813549D01*
X39247426Y-59847597D01*
X39247429Y-59847597D01*
X39247431Y-59847598D01*
X39284306Y-59850500D01*
X39284314Y-59850500D01*
X40440686Y-59850500D01*
X40440694Y-59850500D01*
X40477569Y-59847598D01*
X40477571Y-59847597D01*
X40477573Y-59847597D01*
X40521330Y-59834884D01*
X40635398Y-59801744D01*
X40776865Y-59718081D01*
X40893081Y-59601865D01*
X40893267Y-59601549D01*
X40893477Y-59601353D01*
X40897861Y-59595702D01*
X40898772Y-59596409D01*
X40944336Y-59553866D01*
X41013077Y-59541362D01*
X41077667Y-59568006D01*
X41101855Y-59595921D01*
X41102139Y-59595702D01*
X41106179Y-59600911D01*
X41106732Y-59601548D01*
X41106919Y-59601865D01*
X41106921Y-59601867D01*
X41106923Y-59601870D01*
X41223129Y-59718076D01*
X41223133Y-59718079D01*
X41223135Y-59718081D01*
X41364602Y-59801744D01*
X41405235Y-59813549D01*
X41522426Y-59847597D01*
X41522429Y-59847597D01*
X41522431Y-59847598D01*
X41559306Y-59850500D01*
X41559314Y-59850500D01*
X42715686Y-59850500D01*
X42715694Y-59850500D01*
X42752569Y-59847598D01*
X42752571Y-59847597D01*
X42752573Y-59847597D01*
X42796330Y-59834884D01*
X42910398Y-59801744D01*
X43051865Y-59718081D01*
X43051867Y-59718078D01*
X43052164Y-59717903D01*
X43119887Y-59700720D01*
X43186150Y-59722880D01*
X43220823Y-59759537D01*
X43255064Y-59815051D01*
X43257289Y-59818657D01*
X43381344Y-59942712D01*
X43428071Y-59971533D01*
X43443623Y-59988823D01*
X43462242Y-60002761D01*
X43466550Y-60014313D01*
X43474796Y-60023480D01*
X43478531Y-60046434D01*
X43486659Y-60068225D01*
X43484038Y-60080272D01*
X43486019Y-60092443D01*
X43476749Y-60113776D01*
X43471807Y-60136498D01*
X43460057Y-60152194D01*
X43458176Y-60156525D01*
X43450663Y-60164746D01*
X43327227Y-60288182D01*
X43265907Y-60321666D01*
X43239548Y-60324500D01*
X43145809Y-60324500D01*
X43078770Y-60304815D01*
X43058128Y-60288181D01*
X43051870Y-60281923D01*
X43051862Y-60281917D01*
X42929231Y-60209394D01*
X42910398Y-60198256D01*
X42910397Y-60198255D01*
X42910396Y-60198255D01*
X42910393Y-60198254D01*
X42752573Y-60152402D01*
X42752567Y-60152401D01*
X42715701Y-60149500D01*
X42715694Y-60149500D01*
X41559306Y-60149500D01*
X41559298Y-60149500D01*
X41522432Y-60152401D01*
X41522426Y-60152402D01*
X41364606Y-60198254D01*
X41364603Y-60198255D01*
X41223137Y-60281917D01*
X41223129Y-60281923D01*
X41106923Y-60398129D01*
X41106914Y-60398140D01*
X41106729Y-60398455D01*
X41106519Y-60398650D01*
X41102139Y-60404298D01*
X41101227Y-60403591D01*
X41055657Y-60446136D01*
X40986915Y-60458637D01*
X40922327Y-60431988D01*
X40898143Y-60404078D01*
X40897861Y-60404298D01*
X40893823Y-60399092D01*
X40893271Y-60398455D01*
X40893085Y-60398140D01*
X40893076Y-60398129D01*
X40776870Y-60281923D01*
X40776862Y-60281917D01*
X40654231Y-60209394D01*
X40635398Y-60198256D01*
X40635397Y-60198255D01*
X40635396Y-60198255D01*
X40635393Y-60198254D01*
X40477573Y-60152402D01*
X40477567Y-60152401D01*
X40440701Y-60149500D01*
X40440694Y-60149500D01*
X39284306Y-60149500D01*
X39284298Y-60149500D01*
X39247432Y-60152401D01*
X39247426Y-60152402D01*
X39089606Y-60198254D01*
X39089603Y-60198255D01*
X38948140Y-60281915D01*
X38948133Y-60281920D01*
X38927098Y-60302955D01*
X38865774Y-60336437D01*
X38863613Y-60336887D01*
X38805052Y-60348536D01*
X38805049Y-60348536D01*
X38805048Y-60348537D01*
X38805046Y-60348537D01*
X38805045Y-60348538D01*
X38779786Y-60359001D01*
X38691218Y-60395686D01*
X38691211Y-60395690D01*
X38686120Y-60399092D01*
X38665690Y-60412743D01*
X38665689Y-60412744D01*
X38665688Y-60412743D01*
X38588766Y-60464142D01*
X38588765Y-60464143D01*
X38566198Y-60486711D01*
X38501642Y-60551267D01*
X38501639Y-60551270D01*
X38087680Y-60965228D01*
X38026357Y-60998713D01*
X37956665Y-60993729D01*
X37912318Y-60965228D01*
X37761818Y-60814728D01*
X37728333Y-60753405D01*
X37725499Y-60727047D01*
X37725499Y-59799998D01*
X37725498Y-59799981D01*
X37714999Y-59697203D01*
X37714998Y-59697200D01*
X37685330Y-59607669D01*
X37659814Y-59530666D01*
X37567712Y-59381344D01*
X37567710Y-59381342D01*
X37563920Y-59375197D01*
X37566094Y-59373855D01*
X37544439Y-59320166D01*
X37557485Y-59251525D01*
X37602753Y-59202521D01*
X37618654Y-59192713D01*
X37618653Y-59192713D01*
X37618656Y-59192712D01*
X37742712Y-59068656D01*
X37834814Y-58919334D01*
X37889999Y-58752797D01*
X37891623Y-58736898D01*
X37918018Y-58672207D01*
X37975198Y-58632055D01*
X38014981Y-58625500D01*
X38339548Y-58625500D01*
X38406587Y-58645185D01*
G37*
G04 #@! TD.AperFunction*
G04 #@! TA.AperFunction,Conductor*
G36*
X59942539Y-52583685D02*
G01*
X59988294Y-52636489D01*
X59999500Y-52688000D01*
X59999500Y-54547870D01*
X59999501Y-54547876D01*
X60005908Y-54607483D01*
X60056202Y-54742328D01*
X60056206Y-54742335D01*
X60124970Y-54834190D01*
X60142454Y-54857546D01*
X60200813Y-54901234D01*
X60242684Y-54957167D01*
X60247668Y-55026859D01*
X60214183Y-55088182D01*
X60152859Y-55121666D01*
X60126502Y-55124500D01*
X59549998Y-55124500D01*
X59549980Y-55124501D01*
X59447203Y-55135000D01*
X59447200Y-55135001D01*
X59280668Y-55190185D01*
X59280663Y-55190187D01*
X59131342Y-55282289D01*
X59007289Y-55406342D01*
X58915187Y-55555663D01*
X58915185Y-55555668D01*
X58890136Y-55631261D01*
X58860001Y-55722203D01*
X58860001Y-55722204D01*
X58860000Y-55722204D01*
X58849500Y-55824983D01*
X58849500Y-57175001D01*
X58849501Y-57175018D01*
X58860000Y-57277796D01*
X58860001Y-57277799D01*
X58915185Y-57444331D01*
X58915187Y-57444336D01*
X58931202Y-57470300D01*
X59007287Y-57593655D01*
X59007289Y-57593657D01*
X59075951Y-57662319D01*
X59109436Y-57723642D01*
X59104452Y-57793334D01*
X59075951Y-57837681D01*
X59007289Y-57906342D01*
X58915187Y-58055663D01*
X58915185Y-58055668D01*
X58897954Y-58107669D01*
X58860001Y-58222203D01*
X58860001Y-58222204D01*
X58860000Y-58222204D01*
X58849500Y-58324983D01*
X58849500Y-59675001D01*
X58849501Y-59675019D01*
X58855925Y-59737899D01*
X58843155Y-59806592D01*
X58795274Y-59857476D01*
X58732567Y-59874500D01*
X58167433Y-59874500D01*
X58100394Y-59854815D01*
X58054639Y-59802011D01*
X58044075Y-59737897D01*
X58044525Y-59733497D01*
X58050500Y-59675009D01*
X58050499Y-58324992D01*
X58046986Y-58290606D01*
X58039999Y-58222203D01*
X58039998Y-58222200D01*
X58038701Y-58218286D01*
X57984814Y-58055666D01*
X57892712Y-57906344D01*
X57824049Y-57837681D01*
X57790564Y-57776358D01*
X57795548Y-57706666D01*
X57824049Y-57662319D01*
X57850071Y-57636297D01*
X57892712Y-57593656D01*
X57984814Y-57444334D01*
X58039999Y-57277797D01*
X58050500Y-57175009D01*
X58050499Y-55824992D01*
X58048151Y-55802011D01*
X58039999Y-55722203D01*
X58039998Y-55722200D01*
X58030102Y-55692336D01*
X57984814Y-55555666D01*
X57892712Y-55406344D01*
X57768656Y-55282288D01*
X57619334Y-55190186D01*
X57452797Y-55135001D01*
X57452795Y-55135000D01*
X57350010Y-55124500D01*
X56449998Y-55124500D01*
X56449980Y-55124501D01*
X56347203Y-55135000D01*
X56347200Y-55135001D01*
X56180668Y-55190185D01*
X56180663Y-55190187D01*
X56031342Y-55282289D01*
X55907289Y-55406342D01*
X55821920Y-55544748D01*
X55769972Y-55591472D01*
X55701009Y-55602695D01*
X55636927Y-55574851D01*
X55628700Y-55567332D01*
X55618657Y-55557289D01*
X55618656Y-55557288D01*
X55525888Y-55500069D01*
X55469336Y-55465187D01*
X55469331Y-55465185D01*
X55427468Y-55451313D01*
X55302797Y-55410001D01*
X55302795Y-55410000D01*
X55200010Y-55399500D01*
X53799998Y-55399500D01*
X53799981Y-55399501D01*
X53697203Y-55410000D01*
X53697200Y-55410001D01*
X53530668Y-55465185D01*
X53530663Y-55465187D01*
X53381342Y-55557289D01*
X53257289Y-55681342D01*
X53165187Y-55830663D01*
X53165186Y-55830666D01*
X53139489Y-55908216D01*
X53137736Y-55913505D01*
X53123865Y-55933538D01*
X53113743Y-55955703D01*
X53104331Y-55961751D01*
X53097963Y-55970949D01*
X53075464Y-55980302D01*
X53054965Y-55993477D01*
X53037863Y-55995935D01*
X53033447Y-55997772D01*
X53020030Y-55998500D01*
X52874499Y-55998500D01*
X52807460Y-55978815D01*
X52761705Y-55926011D01*
X52750499Y-55874500D01*
X52750499Y-55302129D01*
X52750498Y-55302123D01*
X52750497Y-55302116D01*
X52744091Y-55242517D01*
X52741660Y-55236000D01*
X52693797Y-55107671D01*
X52693793Y-55107664D01*
X52607547Y-54992455D01*
X52607544Y-54992452D01*
X52492335Y-54906206D01*
X52492328Y-54906202D01*
X52357486Y-54855910D01*
X52357485Y-54855909D01*
X52357483Y-54855909D01*
X52297873Y-54849500D01*
X52297863Y-54849500D01*
X51702129Y-54849500D01*
X51702123Y-54849501D01*
X51642516Y-54855908D01*
X51507671Y-54906202D01*
X51507664Y-54906206D01*
X51392455Y-54992452D01*
X51392452Y-54992455D01*
X51306206Y-55107664D01*
X51306202Y-55107671D01*
X51255908Y-55242517D01*
X51251172Y-55286574D01*
X51249501Y-55302123D01*
X51249500Y-55302135D01*
X51249500Y-57397870D01*
X51249501Y-57397876D01*
X51255908Y-57457483D01*
X51306202Y-57592328D01*
X51306206Y-57592335D01*
X51392452Y-57707544D01*
X51392455Y-57707547D01*
X51507664Y-57793793D01*
X51507671Y-57793797D01*
X51551112Y-57809999D01*
X51642517Y-57844091D01*
X51702127Y-57850500D01*
X52297872Y-57850499D01*
X52357483Y-57844091D01*
X52492331Y-57793796D01*
X52607546Y-57707546D01*
X52693796Y-57592331D01*
X52744091Y-57457483D01*
X52750500Y-57397873D01*
X52750500Y-57250500D01*
X52753050Y-57241814D01*
X52751762Y-57232853D01*
X52762740Y-57208812D01*
X52770185Y-57183461D01*
X52777025Y-57177533D01*
X52780787Y-57169297D01*
X52803021Y-57155007D01*
X52822989Y-57137706D01*
X52833503Y-57135418D01*
X52839565Y-57131523D01*
X52874500Y-57126500D01*
X53020031Y-57126500D01*
X53087070Y-57146185D01*
X53132825Y-57198989D01*
X53137731Y-57211482D01*
X53163925Y-57290528D01*
X53165185Y-57294331D01*
X53165187Y-57294336D01*
X53189769Y-57334190D01*
X53257288Y-57443656D01*
X53381344Y-57567712D01*
X53492539Y-57636297D01*
X53505775Y-57644461D01*
X53552499Y-57696409D01*
X53563722Y-57765372D01*
X53535878Y-57829454D01*
X53505775Y-57855538D01*
X53451430Y-57889059D01*
X53381342Y-57932289D01*
X53257289Y-58056342D01*
X53165187Y-58205663D01*
X53165186Y-58205666D01*
X53145558Y-58264901D01*
X53137736Y-58288505D01*
X53097963Y-58345949D01*
X53033447Y-58372772D01*
X53020030Y-58373500D01*
X52730286Y-58373500D01*
X52663247Y-58353815D01*
X52631021Y-58323813D01*
X52607546Y-58292454D01*
X52607544Y-58292452D01*
X52607543Y-58292451D01*
X52492335Y-58206206D01*
X52492328Y-58206202D01*
X52357486Y-58155910D01*
X52357485Y-58155909D01*
X52357483Y-58155909D01*
X52297873Y-58149500D01*
X52297863Y-58149500D01*
X51702129Y-58149500D01*
X51702123Y-58149501D01*
X51642516Y-58155908D01*
X51507671Y-58206202D01*
X51507664Y-58206206D01*
X51392455Y-58292452D01*
X51392452Y-58292455D01*
X51306206Y-58407664D01*
X51306202Y-58407671D01*
X51255908Y-58542517D01*
X51249729Y-58599998D01*
X51249500Y-58602127D01*
X51249500Y-59590203D01*
X51249501Y-60459000D01*
X51246950Y-60467685D01*
X51248239Y-60476647D01*
X51237260Y-60500687D01*
X51229816Y-60526039D01*
X51222975Y-60531966D01*
X51219214Y-60540203D01*
X51196981Y-60554490D01*
X51177013Y-60571794D01*
X51166497Y-60574081D01*
X51160436Y-60577977D01*
X51125501Y-60583000D01*
X51018953Y-60583000D01*
X50951914Y-60563315D01*
X50931272Y-60546681D01*
X48930428Y-58545838D01*
X48930425Y-58545834D01*
X48930425Y-58545835D01*
X48923358Y-58538768D01*
X48923358Y-58538767D01*
X48836233Y-58451642D01*
X48836232Y-58451641D01*
X48836231Y-58451640D01*
X48795693Y-58424554D01*
X48785009Y-58417415D01*
X48733786Y-58383188D01*
X48652454Y-58349500D01*
X48647685Y-58347524D01*
X48647682Y-58347523D01*
X48619953Y-58336037D01*
X48609927Y-58334043D01*
X48559529Y-58324018D01*
X48558488Y-58323811D01*
X48499110Y-58312000D01*
X48499107Y-58312000D01*
X48499106Y-58312000D01*
X48459591Y-58312000D01*
X48392552Y-58292315D01*
X48346797Y-58239511D01*
X48341886Y-58227006D01*
X48334815Y-58205668D01*
X48331011Y-58199500D01*
X48242712Y-58056344D01*
X48118656Y-57932288D01*
X48005438Y-57862455D01*
X47969336Y-57840187D01*
X47969331Y-57840185D01*
X47933633Y-57828356D01*
X47802797Y-57785001D01*
X47802795Y-57785000D01*
X47700010Y-57774500D01*
X46299998Y-57774500D01*
X46299981Y-57774501D01*
X46197203Y-57785000D01*
X46197200Y-57785001D01*
X46030668Y-57840185D01*
X46030663Y-57840187D01*
X45881342Y-57932289D01*
X45837680Y-57975951D01*
X45776357Y-58009435D01*
X45706665Y-58004450D01*
X45662320Y-57975951D01*
X45618657Y-57932289D01*
X45618656Y-57932288D01*
X45505438Y-57862455D01*
X45469336Y-57840187D01*
X45469331Y-57840185D01*
X45433633Y-57828356D01*
X45302797Y-57785001D01*
X45302795Y-57785000D01*
X45200010Y-57774500D01*
X43799998Y-57774500D01*
X43799981Y-57774501D01*
X43697203Y-57785000D01*
X43697200Y-57785001D01*
X43530668Y-57840185D01*
X43530663Y-57840187D01*
X43381342Y-57932289D01*
X43257289Y-58056342D01*
X43165187Y-58205663D01*
X43165182Y-58205674D01*
X43146177Y-58263028D01*
X43106404Y-58320473D01*
X43041888Y-58347295D01*
X42973112Y-58334979D01*
X42965351Y-58330755D01*
X42916957Y-58302135D01*
X42910398Y-58298256D01*
X42910397Y-58298255D01*
X42910396Y-58298255D01*
X42910393Y-58298254D01*
X42752573Y-58252402D01*
X42752567Y-58252401D01*
X42715701Y-58249500D01*
X42715694Y-58249500D01*
X41559306Y-58249500D01*
X41559298Y-58249500D01*
X41522432Y-58252401D01*
X41522426Y-58252402D01*
X41364606Y-58298254D01*
X41357446Y-58301353D01*
X41356550Y-58299282D01*
X41299877Y-58313652D01*
X41233618Y-58291482D01*
X41189864Y-58237009D01*
X41180500Y-58189738D01*
X41180500Y-57480691D01*
X41200185Y-57413652D01*
X41252989Y-57367897D01*
X41322147Y-57357953D01*
X41367616Y-57373957D01*
X41414602Y-57401744D01*
X41414603Y-57401744D01*
X41414606Y-57401746D01*
X41572426Y-57447597D01*
X41572429Y-57447597D01*
X41572431Y-57447598D01*
X41609306Y-57450500D01*
X41609314Y-57450500D01*
X42040686Y-57450500D01*
X42040694Y-57450500D01*
X42077569Y-57447598D01*
X42077571Y-57447597D01*
X42077573Y-57447597D01*
X42127044Y-57433224D01*
X42235398Y-57401744D01*
X42376865Y-57318081D01*
X42376870Y-57318075D01*
X42383031Y-57313298D01*
X42384933Y-57315750D01*
X42433579Y-57289155D01*
X42503274Y-57294104D01*
X42535695Y-57314940D01*
X42536969Y-57313298D01*
X42543132Y-57318078D01*
X42543135Y-57318081D01*
X42684602Y-57401744D01*
X42684609Y-57401746D01*
X42842426Y-57447597D01*
X42842429Y-57447597D01*
X42842431Y-57447598D01*
X42879306Y-57450500D01*
X42879314Y-57450500D01*
X43310686Y-57450500D01*
X43310694Y-57450500D01*
X43347569Y-57447598D01*
X43347571Y-57447597D01*
X43347573Y-57447597D01*
X43397044Y-57433224D01*
X43505398Y-57401744D01*
X43646865Y-57318081D01*
X43646870Y-57318075D01*
X43653031Y-57313298D01*
X43654933Y-57315750D01*
X43703579Y-57289155D01*
X43773274Y-57294104D01*
X43805695Y-57314940D01*
X43806969Y-57313298D01*
X43813132Y-57318078D01*
X43813135Y-57318081D01*
X43954602Y-57401744D01*
X43954609Y-57401746D01*
X44112426Y-57447597D01*
X44112429Y-57447597D01*
X44112431Y-57447598D01*
X44149306Y-57450500D01*
X44149314Y-57450500D01*
X44580686Y-57450500D01*
X44580694Y-57450500D01*
X44617569Y-57447598D01*
X44617571Y-57447597D01*
X44617573Y-57447597D01*
X44667044Y-57433224D01*
X44775398Y-57401744D01*
X44916865Y-57318081D01*
X44916870Y-57318075D01*
X44923031Y-57313298D01*
X44924933Y-57315750D01*
X44973579Y-57289155D01*
X45043274Y-57294104D01*
X45075695Y-57314940D01*
X45076969Y-57313298D01*
X45083132Y-57318078D01*
X45083135Y-57318081D01*
X45224602Y-57401744D01*
X45224609Y-57401746D01*
X45382426Y-57447597D01*
X45382429Y-57447597D01*
X45382431Y-57447598D01*
X45419306Y-57450500D01*
X45419314Y-57450500D01*
X45850686Y-57450500D01*
X45850694Y-57450500D01*
X45887569Y-57447598D01*
X45887571Y-57447597D01*
X45887573Y-57447597D01*
X45937044Y-57433224D01*
X46045398Y-57401744D01*
X46186865Y-57318081D01*
X46186870Y-57318075D01*
X46193031Y-57313298D01*
X46194933Y-57315750D01*
X46243579Y-57289155D01*
X46313274Y-57294104D01*
X46345695Y-57314940D01*
X46346969Y-57313298D01*
X46353132Y-57318078D01*
X46353135Y-57318081D01*
X46494602Y-57401744D01*
X46494609Y-57401746D01*
X46652426Y-57447597D01*
X46652429Y-57447597D01*
X46652431Y-57447598D01*
X46689306Y-57450500D01*
X46689314Y-57450500D01*
X47120686Y-57450500D01*
X47120694Y-57450500D01*
X47157569Y-57447598D01*
X47157571Y-57447597D01*
X47157573Y-57447597D01*
X47207044Y-57433224D01*
X47315398Y-57401744D01*
X47456865Y-57318081D01*
X47456870Y-57318075D01*
X47463031Y-57313298D01*
X47464933Y-57315750D01*
X47513579Y-57289155D01*
X47583274Y-57294104D01*
X47615695Y-57314940D01*
X47616969Y-57313298D01*
X47623132Y-57318078D01*
X47623135Y-57318081D01*
X47764602Y-57401744D01*
X47764609Y-57401746D01*
X47922426Y-57447597D01*
X47922429Y-57447597D01*
X47922431Y-57447598D01*
X47959306Y-57450500D01*
X47959314Y-57450500D01*
X48390686Y-57450500D01*
X48390694Y-57450500D01*
X48427569Y-57447598D01*
X48427571Y-57447597D01*
X48427573Y-57447597D01*
X48477044Y-57433224D01*
X48585398Y-57401744D01*
X48726865Y-57318081D01*
X48726870Y-57318075D01*
X48733031Y-57313298D01*
X48734933Y-57315750D01*
X48783579Y-57289155D01*
X48853274Y-57294104D01*
X48885695Y-57314940D01*
X48886969Y-57313298D01*
X48893132Y-57318078D01*
X48893135Y-57318081D01*
X49034602Y-57401744D01*
X49034609Y-57401746D01*
X49192426Y-57447597D01*
X49192429Y-57447597D01*
X49192431Y-57447598D01*
X49229306Y-57450500D01*
X49229314Y-57450500D01*
X49660686Y-57450500D01*
X49660694Y-57450500D01*
X49697569Y-57447598D01*
X49697571Y-57447597D01*
X49697573Y-57447597D01*
X49747044Y-57433224D01*
X49855398Y-57401744D01*
X49996865Y-57318081D01*
X50113081Y-57201865D01*
X50196744Y-57060398D01*
X50242598Y-56902569D01*
X50245500Y-56865694D01*
X50245500Y-55084306D01*
X50242598Y-55047431D01*
X50236621Y-55026859D01*
X50196745Y-54889606D01*
X50196744Y-54889603D01*
X50196744Y-54889602D01*
X50113081Y-54748135D01*
X50113079Y-54748133D01*
X50113076Y-54748129D01*
X49996870Y-54631923D01*
X49996861Y-54631916D01*
X49926363Y-54590224D01*
X49878679Y-54539155D01*
X49866176Y-54470413D01*
X49892821Y-54405824D01*
X49901793Y-54395821D01*
X51697297Y-52600319D01*
X51758620Y-52566834D01*
X51784978Y-52564000D01*
X59875500Y-52564000D01*
X59942539Y-52583685D01*
G37*
G04 #@! TD.AperFunction*
G04 #@! TA.AperFunction,Conductor*
G36*
X147392539Y-46020185D02*
G01*
X147438294Y-46072989D01*
X147449500Y-46124500D01*
X147449500Y-55363702D01*
X147429815Y-55430741D01*
X147377011Y-55476496D01*
X147307853Y-55486440D01*
X147252615Y-55464020D01*
X147171132Y-55404820D01*
X147171131Y-55404819D01*
X147171129Y-55404818D01*
X147027892Y-55331835D01*
X146991539Y-55313312D01*
X146799852Y-55251030D01*
X146600783Y-55219500D01*
X146600778Y-55219500D01*
X146399222Y-55219500D01*
X146399217Y-55219500D01*
X146200147Y-55251030D01*
X146008460Y-55313312D01*
X145828870Y-55404818D01*
X145745783Y-55465185D01*
X145665810Y-55523289D01*
X145665806Y-55523292D01*
X145615291Y-55573807D01*
X145553968Y-55607291D01*
X145484276Y-55602306D01*
X145428343Y-55560435D01*
X145422072Y-55551221D01*
X145418079Y-55544748D01*
X145332712Y-55406344D01*
X145208656Y-55282288D01*
X145059334Y-55190186D01*
X144892797Y-55135001D01*
X144892795Y-55135000D01*
X144790010Y-55124500D01*
X143889998Y-55124500D01*
X143889980Y-55124501D01*
X143787203Y-55135000D01*
X143787200Y-55135001D01*
X143620668Y-55190185D01*
X143620663Y-55190187D01*
X143471342Y-55282289D01*
X143347289Y-55406342D01*
X143255187Y-55555663D01*
X143255185Y-55555668D01*
X143230136Y-55631261D01*
X143200001Y-55722203D01*
X143200001Y-55722204D01*
X143200000Y-55722204D01*
X143189500Y-55824983D01*
X143189500Y-57175001D01*
X143189501Y-57175018D01*
X143200000Y-57277796D01*
X143200001Y-57277799D01*
X143255185Y-57444331D01*
X143255187Y-57444336D01*
X143271202Y-57470300D01*
X143347288Y-57593656D01*
X143471344Y-57717712D01*
X143620666Y-57809814D01*
X143629498Y-57812740D01*
X143686944Y-57852508D01*
X143713771Y-57917022D01*
X143714500Y-57930448D01*
X143714500Y-58349547D01*
X143694815Y-58416586D01*
X143678181Y-58437228D01*
X142992180Y-59123229D01*
X142930857Y-59156714D01*
X142861165Y-59151730D01*
X142805232Y-59109858D01*
X142780815Y-59044394D01*
X142780499Y-59035548D01*
X142780499Y-58172129D01*
X142780498Y-58172123D01*
X142780497Y-58172116D01*
X142774091Y-58112517D01*
X142772213Y-58107483D01*
X142723797Y-57977671D01*
X142723793Y-57977664D01*
X142637547Y-57862455D01*
X142637544Y-57862452D01*
X142522335Y-57776206D01*
X142522328Y-57776202D01*
X142387482Y-57725908D01*
X142387484Y-57725908D01*
X142361350Y-57723099D01*
X142296799Y-57696361D01*
X142256951Y-57638968D01*
X142254458Y-57569143D01*
X142269064Y-57534718D01*
X142324814Y-57444334D01*
X142379999Y-57277797D01*
X142390500Y-57175009D01*
X142390499Y-55824992D01*
X142388151Y-55802011D01*
X142379999Y-55722203D01*
X142379998Y-55722200D01*
X142370102Y-55692336D01*
X142324814Y-55555666D01*
X142232712Y-55406344D01*
X142126475Y-55300107D01*
X142092990Y-55238784D01*
X142097974Y-55169092D01*
X142139846Y-55113159D01*
X142157855Y-55101945D01*
X142171129Y-55095182D01*
X142334190Y-54976711D01*
X142476711Y-54834190D01*
X142595182Y-54671129D01*
X142686686Y-54491542D01*
X142748970Y-54299851D01*
X142770299Y-54165186D01*
X142780500Y-54100783D01*
X142780500Y-53899216D01*
X142760613Y-53773660D01*
X142748970Y-53700149D01*
X142702245Y-53556344D01*
X142686687Y-53508460D01*
X142682703Y-53500641D01*
X142595182Y-53328871D01*
X142476711Y-53165810D01*
X142334190Y-53023289D01*
X142171129Y-52904818D01*
X142118908Y-52878210D01*
X141991539Y-52813312D01*
X141799852Y-52751030D01*
X141600783Y-52719500D01*
X141600778Y-52719500D01*
X141399222Y-52719500D01*
X141399217Y-52719500D01*
X141200147Y-52751030D01*
X141008460Y-52813312D01*
X140828870Y-52904818D01*
X140775222Y-52943796D01*
X140665810Y-53023289D01*
X140665808Y-53023291D01*
X140665807Y-53023291D01*
X140523291Y-53165807D01*
X140523291Y-53165808D01*
X140523289Y-53165810D01*
X140505579Y-53190186D01*
X140404818Y-53328870D01*
X140313312Y-53508460D01*
X140251030Y-53700147D01*
X140219500Y-53899216D01*
X140219500Y-54100783D01*
X140251030Y-54299852D01*
X140313312Y-54491539D01*
X140387277Y-54636702D01*
X140404818Y-54671129D01*
X140523289Y-54834190D01*
X140523291Y-54834192D01*
X140647875Y-54958776D01*
X140681360Y-55020099D01*
X140676376Y-55089791D01*
X140634504Y-55145724D01*
X140599200Y-55164162D01*
X140555718Y-55178571D01*
X140520666Y-55190186D01*
X140520663Y-55190187D01*
X140371342Y-55282289D01*
X140247289Y-55406342D01*
X140155187Y-55555663D01*
X140155185Y-55555668D01*
X140130136Y-55631261D01*
X140100001Y-55722203D01*
X140100001Y-55722204D01*
X140100000Y-55722204D01*
X140089500Y-55824983D01*
X140089500Y-57175001D01*
X140089501Y-57175018D01*
X140100000Y-57277796D01*
X140100001Y-57277799D01*
X140155185Y-57444331D01*
X140155187Y-57444336D01*
X140171202Y-57470300D01*
X140247287Y-57593655D01*
X140247289Y-57593657D01*
X140352249Y-57698617D01*
X140385734Y-57759940D01*
X140380750Y-57829632D01*
X140363835Y-57860609D01*
X140276204Y-57977669D01*
X140276202Y-57977671D01*
X140225908Y-58112517D01*
X140219501Y-58172116D01*
X140219500Y-58172127D01*
X140219500Y-58989711D01*
X140219501Y-59750500D01*
X140199816Y-59817539D01*
X140147013Y-59863294D01*
X140095501Y-59874500D01*
X124042350Y-59874500D01*
X123975311Y-59854815D01*
X123973459Y-59853602D01*
X123879184Y-59790609D01*
X123879172Y-59790602D01*
X123733501Y-59730264D01*
X123733489Y-59730261D01*
X123578845Y-59699500D01*
X123578842Y-59699500D01*
X123421158Y-59699500D01*
X123421155Y-59699500D01*
X123266510Y-59730261D01*
X123266498Y-59730264D01*
X123148283Y-59779230D01*
X123078813Y-59786699D01*
X123016334Y-59755423D01*
X122993444Y-59726669D01*
X122983468Y-59709390D01*
X122951313Y-59653696D01*
X122336819Y-59039202D01*
X122303334Y-58977879D01*
X122300500Y-58951521D01*
X122300500Y-58921155D01*
X122300499Y-58921153D01*
X122293842Y-58887685D01*
X122269737Y-58766503D01*
X122269735Y-58766498D01*
X122209397Y-58620827D01*
X122209390Y-58620814D01*
X122121789Y-58489711D01*
X122121786Y-58489707D01*
X122010292Y-58378213D01*
X122010288Y-58378210D01*
X121879922Y-58291102D01*
X121835117Y-58237490D01*
X121826410Y-58168165D01*
X121856564Y-58105137D01*
X121916007Y-58068418D01*
X121948813Y-58064000D01*
X122778595Y-58064000D01*
X122845634Y-58083685D01*
X122891389Y-58136489D01*
X122894777Y-58144667D01*
X122931202Y-58242328D01*
X122931206Y-58242335D01*
X123017452Y-58357544D01*
X123017455Y-58357547D01*
X123132664Y-58443793D01*
X123132671Y-58443797D01*
X123267517Y-58494091D01*
X123267516Y-58494091D01*
X123274444Y-58494835D01*
X123327127Y-58500500D01*
X124672872Y-58500499D01*
X124732483Y-58494091D01*
X124867331Y-58443796D01*
X124982546Y-58357546D01*
X125068796Y-58242331D01*
X125119091Y-58107483D01*
X125125500Y-58047873D01*
X125125499Y-56952128D01*
X125119091Y-56892517D01*
X125114118Y-56879185D01*
X125068797Y-56757671D01*
X125068793Y-56757664D01*
X124982547Y-56642455D01*
X124982544Y-56642452D01*
X124867335Y-56556206D01*
X124867328Y-56556202D01*
X124732482Y-56505908D01*
X124732483Y-56505908D01*
X124672883Y-56499501D01*
X124672881Y-56499500D01*
X124672873Y-56499500D01*
X124672864Y-56499500D01*
X123327129Y-56499500D01*
X123327123Y-56499501D01*
X123267516Y-56505908D01*
X123132671Y-56556202D01*
X123132664Y-56556206D01*
X123017455Y-56642452D01*
X123017452Y-56642455D01*
X122931206Y-56757664D01*
X122931202Y-56757671D01*
X122894777Y-56855333D01*
X122852906Y-56911267D01*
X122787441Y-56935684D01*
X122778595Y-56936000D01*
X107425747Y-56936000D01*
X107365560Y-56952126D01*
X107365560Y-56952127D01*
X107282304Y-56974435D01*
X107282302Y-56974436D01*
X107282301Y-56974436D01*
X107153699Y-57048685D01*
X107153693Y-57048689D01*
X104775681Y-59426702D01*
X104714358Y-59460187D01*
X104644666Y-59455203D01*
X104588733Y-59413331D01*
X104564316Y-59347867D01*
X104564000Y-59339021D01*
X104564000Y-59084255D01*
X104564001Y-59084242D01*
X104564001Y-58925750D01*
X104564001Y-58925748D01*
X104525565Y-58782304D01*
X104515901Y-58765565D01*
X104451313Y-58653696D01*
X104346304Y-58548687D01*
X104346303Y-58548686D01*
X104341973Y-58544356D01*
X104341962Y-58544346D01*
X103958383Y-58160767D01*
X103958381Y-58160764D01*
X103846306Y-58048689D01*
X103846304Y-58048687D01*
X103758870Y-57998207D01*
X103717698Y-57974436D01*
X103717697Y-57974435D01*
X103698291Y-57969235D01*
X103678886Y-57964036D01*
X103678885Y-57964035D01*
X103590756Y-57940422D01*
X103574253Y-57936000D01*
X103574252Y-57936000D01*
X101918984Y-57936000D01*
X101851945Y-57916315D01*
X101806190Y-57863511D01*
X101794984Y-57812000D01*
X101794984Y-57053994D01*
X101814669Y-56986955D01*
X101831303Y-56966313D01*
X102697298Y-56100319D01*
X102758621Y-56066834D01*
X102784979Y-56064000D01*
X103880559Y-56064000D01*
X103947598Y-56083685D01*
X103968240Y-56100319D01*
X103989707Y-56121786D01*
X103989711Y-56121789D01*
X104120814Y-56209390D01*
X104120827Y-56209397D01*
X104202255Y-56243125D01*
X104266503Y-56269737D01*
X104420047Y-56300279D01*
X104421153Y-56300499D01*
X104421156Y-56300500D01*
X104421158Y-56300500D01*
X104578844Y-56300500D01*
X104578845Y-56300499D01*
X104733497Y-56269737D01*
X104849834Y-56221549D01*
X104879172Y-56209397D01*
X104879172Y-56209396D01*
X104879179Y-56209394D01*
X105010289Y-56121789D01*
X105121789Y-56010289D01*
X105174385Y-55931572D01*
X105227995Y-55886770D01*
X105297320Y-55878062D01*
X105360348Y-55908216D01*
X105365167Y-55912784D01*
X105574469Y-56122086D01*
X105903696Y-56451313D01*
X105903697Y-56451314D01*
X105903699Y-56451315D01*
X106032300Y-56525563D01*
X106032301Y-56525563D01*
X106032304Y-56525565D01*
X106175748Y-56564001D01*
X106175751Y-56564001D01*
X106331849Y-56564001D01*
X106331865Y-56564000D01*
X121574251Y-56564000D01*
X121574253Y-56564000D01*
X121717696Y-56525565D01*
X121728341Y-56519419D01*
X121846304Y-56451313D01*
X121951313Y-56346304D01*
X121951313Y-56346302D01*
X121961517Y-56336099D01*
X121961521Y-56336094D01*
X124336094Y-53961521D01*
X124336099Y-53961517D01*
X124346302Y-53951313D01*
X124346304Y-53951313D01*
X124451313Y-53846304D01*
X124525565Y-53717696D01*
X124535465Y-53680747D01*
X124564000Y-53574253D01*
X124564000Y-53425747D01*
X124564000Y-53123587D01*
X124583685Y-53056548D01*
X124636489Y-53010793D01*
X124674745Y-53000297D01*
X124732483Y-52994091D01*
X124867331Y-52943796D01*
X124982546Y-52857546D01*
X125068796Y-52742331D01*
X125119091Y-52607483D01*
X125125500Y-52547873D01*
X125125499Y-51452128D01*
X125119091Y-51392517D01*
X125068796Y-51257669D01*
X125068795Y-51257668D01*
X125068793Y-51257664D01*
X124982547Y-51142455D01*
X124982544Y-51142452D01*
X124867335Y-51056206D01*
X124867328Y-51056202D01*
X124732482Y-51005908D01*
X124732483Y-51005908D01*
X124672883Y-50999501D01*
X124672881Y-50999500D01*
X124672873Y-50999500D01*
X124672864Y-50999500D01*
X123327129Y-50999500D01*
X123327123Y-50999501D01*
X123267516Y-51005908D01*
X123132671Y-51056202D01*
X123132664Y-51056206D01*
X123017455Y-51142452D01*
X123017452Y-51142455D01*
X122931206Y-51257664D01*
X122931202Y-51257671D01*
X122880908Y-51392517D01*
X122874501Y-51452116D01*
X122874501Y-51452123D01*
X122874500Y-51452135D01*
X122874500Y-52547870D01*
X122874501Y-52547876D01*
X122880908Y-52607483D01*
X122931202Y-52742328D01*
X122931206Y-52742335D01*
X123017452Y-52857544D01*
X123017455Y-52857547D01*
X123132664Y-52943793D01*
X123132671Y-52943797D01*
X123267517Y-52994091D01*
X123267515Y-52994091D01*
X123325256Y-53000299D01*
X123327374Y-53001176D01*
X123329647Y-53000850D01*
X123359499Y-53014483D01*
X123389807Y-53027037D01*
X123391115Y-53028921D01*
X123393203Y-53029875D01*
X123410937Y-53057471D01*
X123429655Y-53084429D01*
X123430124Y-53087326D01*
X123430977Y-53088653D01*
X123436000Y-53123588D01*
X123436000Y-53215022D01*
X123416315Y-53282061D01*
X123399681Y-53302703D01*
X121302703Y-55399681D01*
X121241380Y-55433166D01*
X121215022Y-55436000D01*
X116444438Y-55436000D01*
X116377399Y-55416315D01*
X116331644Y-55363511D01*
X116321700Y-55294353D01*
X116350725Y-55230797D01*
X116375547Y-55208898D01*
X116435120Y-55169092D01*
X116491696Y-55131289D01*
X116603196Y-55019789D01*
X116690801Y-54888679D01*
X116721773Y-54813901D01*
X116765613Y-54759501D01*
X116788875Y-54746797D01*
X116879179Y-54709394D01*
X117010289Y-54621789D01*
X117121789Y-54510289D01*
X117209394Y-54379179D01*
X117269737Y-54233497D01*
X117300500Y-54078842D01*
X117300500Y-53921158D01*
X117300500Y-53921155D01*
X117300499Y-53921153D01*
X117287400Y-53855302D01*
X117269737Y-53766503D01*
X117261940Y-53747680D01*
X117209397Y-53620827D01*
X117209390Y-53620814D01*
X117121789Y-53489711D01*
X117121786Y-53489707D01*
X117031064Y-53398985D01*
X116997579Y-53337662D01*
X117002563Y-53267970D01*
X117004946Y-53262051D01*
X117006740Y-53257903D01*
X117006744Y-53257898D01*
X117013834Y-53233497D01*
X117052597Y-53100073D01*
X117052598Y-53100067D01*
X117054125Y-53080667D01*
X117055500Y-53063194D01*
X117055500Y-51188000D01*
X117075185Y-51120961D01*
X117127989Y-51075206D01*
X117179500Y-51064000D01*
X117870500Y-51064000D01*
X117937539Y-51083685D01*
X117983294Y-51136489D01*
X117994500Y-51188000D01*
X117994500Y-53063201D01*
X117997401Y-53100067D01*
X117997402Y-53100073D01*
X118043254Y-53257893D01*
X118043255Y-53257896D01*
X118043256Y-53257898D01*
X118080681Y-53321181D01*
X118126917Y-53399362D01*
X118126923Y-53399370D01*
X118243129Y-53515576D01*
X118243133Y-53515579D01*
X118243135Y-53515581D01*
X118384602Y-53599244D01*
X118389483Y-53600662D01*
X118542426Y-53645097D01*
X118542429Y-53645097D01*
X118542431Y-53645098D01*
X118579306Y-53648000D01*
X118579314Y-53648000D01*
X119010686Y-53648000D01*
X119010694Y-53648000D01*
X119047569Y-53645098D01*
X119047571Y-53645097D01*
X119047573Y-53645097D01*
X119098183Y-53630393D01*
X119205398Y-53599244D01*
X119346865Y-53515581D01*
X119346870Y-53515575D01*
X119353031Y-53510798D01*
X119354933Y-53513250D01*
X119403579Y-53486655D01*
X119473274Y-53491604D01*
X119505695Y-53512440D01*
X119506969Y-53510798D01*
X119513132Y-53515578D01*
X119513135Y-53515581D01*
X119654602Y-53599244D01*
X119659483Y-53600662D01*
X119812426Y-53645097D01*
X119812429Y-53645097D01*
X119812431Y-53645098D01*
X119849306Y-53648000D01*
X119849314Y-53648000D01*
X120280686Y-53648000D01*
X120280694Y-53648000D01*
X120317569Y-53645098D01*
X120317571Y-53645097D01*
X120317573Y-53645097D01*
X120368183Y-53630393D01*
X120475398Y-53599244D01*
X120616865Y-53515581D01*
X120616870Y-53515575D01*
X120623031Y-53510798D01*
X120624933Y-53513250D01*
X120673579Y-53486655D01*
X120743274Y-53491604D01*
X120775695Y-53512440D01*
X120776969Y-53510798D01*
X120783132Y-53515578D01*
X120783135Y-53515581D01*
X120924602Y-53599244D01*
X120929483Y-53600662D01*
X121082426Y-53645097D01*
X121082429Y-53645097D01*
X121082431Y-53645098D01*
X121119306Y-53648000D01*
X121119314Y-53648000D01*
X121550686Y-53648000D01*
X121550694Y-53648000D01*
X121587569Y-53645098D01*
X121587571Y-53645097D01*
X121587573Y-53645097D01*
X121638183Y-53630393D01*
X121745398Y-53599244D01*
X121886865Y-53515581D01*
X122003081Y-53399365D01*
X122086744Y-53257898D01*
X122130643Y-53106797D01*
X122132597Y-53100073D01*
X122132598Y-53100067D01*
X122134125Y-53080667D01*
X122135500Y-53063194D01*
X122135500Y-51181806D01*
X122132598Y-51144931D01*
X122131878Y-51142454D01*
X122086745Y-50987106D01*
X122086744Y-50987103D01*
X122086744Y-50987102D01*
X122033051Y-50896312D01*
X122015869Y-50828590D01*
X122038029Y-50762328D01*
X122052098Y-50745516D01*
X122336094Y-50461520D01*
X122336099Y-50461517D01*
X122346302Y-50451313D01*
X122346304Y-50451313D01*
X122451313Y-50346304D01*
X122525565Y-50217696D01*
X122539635Y-50165186D01*
X122564000Y-50074253D01*
X122564000Y-49925747D01*
X122564000Y-48084255D01*
X122564001Y-48084242D01*
X122564001Y-47925750D01*
X122564001Y-47925748D01*
X122525565Y-47782304D01*
X122522495Y-47776987D01*
X122451315Y-47653699D01*
X122451310Y-47653693D01*
X121458383Y-46660767D01*
X121458381Y-46660764D01*
X121346306Y-46548689D01*
X121346304Y-46548687D01*
X121217696Y-46474435D01*
X121074253Y-46436000D01*
X121074252Y-46436000D01*
X109863362Y-46436000D01*
X109796323Y-46416315D01*
X109750568Y-46363511D01*
X109740624Y-46294353D01*
X109769649Y-46230797D01*
X109775681Y-46224319D01*
X109963181Y-46036819D01*
X110024504Y-46003334D01*
X110050862Y-46000500D01*
X147325500Y-46000500D01*
X147392539Y-46020185D01*
G37*
G04 #@! TD.AperFunction*
G04 #@! TA.AperFunction,Conductor*
G36*
X63870627Y-56583206D02*
G01*
X63887983Y-56594360D01*
X63966071Y-56654279D01*
X64024996Y-56678686D01*
X64026387Y-56679303D01*
X64051923Y-56700936D01*
X64077995Y-56721946D01*
X64078493Y-56723445D01*
X64079699Y-56724466D01*
X64089485Y-56756469D01*
X64100060Y-56788240D01*
X64099944Y-56790670D01*
X64100131Y-56791281D01*
X64099871Y-56792204D01*
X64099078Y-56808850D01*
X64087000Y-56900596D01*
X64087000Y-57099403D01*
X64101488Y-57209463D01*
X64101491Y-57209472D01*
X64158219Y-57346426D01*
X64158221Y-57346429D01*
X64218137Y-57424514D01*
X64225881Y-57444545D01*
X64237904Y-57462341D01*
X64238229Y-57476485D01*
X64243331Y-57489683D01*
X64239015Y-57510721D01*
X64239509Y-57532192D01*
X64231130Y-57549164D01*
X64229292Y-57558128D01*
X64225589Y-57564625D01*
X64222148Y-57570258D01*
X64158221Y-57653571D01*
X64130699Y-57720013D01*
X64125661Y-57728264D01*
X64106657Y-57745510D01*
X64090552Y-57765496D01*
X64081210Y-57768604D01*
X64073922Y-57775220D01*
X64048610Y-57779454D01*
X64024258Y-57787560D01*
X64005508Y-57786666D01*
X64005010Y-57786750D01*
X64004729Y-57786629D01*
X64003649Y-57786578D01*
X63911903Y-57774500D01*
X63713096Y-57774500D01*
X63603031Y-57788989D01*
X63595178Y-57791094D01*
X63594302Y-57787824D01*
X63540353Y-57793567D01*
X63529977Y-57790518D01*
X63529823Y-57791095D01*
X63521970Y-57788990D01*
X63411901Y-57774500D01*
X63213103Y-57774500D01*
X63171666Y-57779955D01*
X63102631Y-57769187D01*
X63050376Y-57722805D01*
X63031493Y-57655536D01*
X63032543Y-57640847D01*
X63038000Y-57599401D01*
X63037999Y-57400600D01*
X63037999Y-57400596D01*
X63023511Y-57290536D01*
X63023509Y-57290531D01*
X63023509Y-57290528D01*
X62966779Y-57153571D01*
X62906860Y-57075484D01*
X62899117Y-57055454D01*
X62887095Y-57037660D01*
X62886769Y-57023514D01*
X62881668Y-57010318D01*
X62885982Y-56989280D01*
X62885489Y-56967809D01*
X62893867Y-56950835D01*
X62895706Y-56941873D01*
X62899409Y-56935376D01*
X62902844Y-56929750D01*
X62966779Y-56846429D01*
X62994304Y-56779974D01*
X62999336Y-56771736D01*
X63018339Y-56754488D01*
X63034443Y-56734505D01*
X63043784Y-56731395D01*
X63051075Y-56724779D01*
X63076386Y-56720543D01*
X63100737Y-56712439D01*
X63119488Y-56713332D01*
X63119987Y-56713249D01*
X63120267Y-56713369D01*
X63121348Y-56713420D01*
X63213099Y-56725500D01*
X63411900Y-56725499D01*
X63411903Y-56725499D01*
X63521963Y-56711011D01*
X63521967Y-56711009D01*
X63521972Y-56711009D01*
X63658929Y-56654279D01*
X63737015Y-56594360D01*
X63802182Y-56569168D01*
X63870627Y-56583206D01*
G37*
G04 #@! TD.AperFunction*
G04 #@! TA.AperFunction,Conductor*
G36*
X62213440Y-55020184D02*
G01*
X62259195Y-55072988D01*
X62269139Y-55142146D01*
X62260962Y-55171951D01*
X62201492Y-55315524D01*
X62201490Y-55315529D01*
X62187001Y-55425589D01*
X62187000Y-55425605D01*
X62187000Y-55750500D01*
X62167315Y-55817539D01*
X62114511Y-55863294D01*
X62063000Y-55874500D01*
X61738096Y-55874500D01*
X61628036Y-55888988D01*
X61628027Y-55888991D01*
X61491074Y-55945719D01*
X61491071Y-55945720D01*
X61491071Y-55945721D01*
X61373464Y-56035964D01*
X61373463Y-56035965D01*
X61373462Y-56035966D01*
X61372870Y-56036738D01*
X61372203Y-56037224D01*
X61367717Y-56041711D01*
X61367017Y-56041011D01*
X61316439Y-56077937D01*
X61246693Y-56082087D01*
X61185775Y-56047871D01*
X61153026Y-55986152D01*
X61150499Y-55961245D01*
X61150499Y-55824998D01*
X61150498Y-55824981D01*
X61139999Y-55722203D01*
X61139998Y-55722200D01*
X61130102Y-55692336D01*
X61084814Y-55555666D01*
X60992712Y-55406344D01*
X60868656Y-55282288D01*
X60868652Y-55282285D01*
X60783945Y-55230037D01*
X60737220Y-55178090D01*
X60725999Y-55109127D01*
X60753842Y-55045045D01*
X60811911Y-55006189D01*
X60849036Y-55000499D01*
X62146401Y-55000499D01*
X62213440Y-55020184D01*
G37*
G04 #@! TD.AperFunction*
G04 #@! TA.AperFunction,Conductor*
G36*
X111881445Y-49443732D02*
G01*
X111920485Y-49488787D01*
X112010474Y-49665403D01*
X112022474Y-49681919D01*
X112126172Y-49824646D01*
X112265354Y-49963828D01*
X112304000Y-49991906D01*
X112424590Y-50079521D01*
X112424592Y-50079522D01*
X112424595Y-50079524D01*
X112432022Y-50083308D01*
X112482818Y-50131282D01*
X112499614Y-50199103D01*
X112477077Y-50265238D01*
X112463409Y-50281474D01*
X112148064Y-50596819D01*
X112094979Y-50628214D01*
X112034604Y-50645754D01*
X112034603Y-50645755D01*
X111893137Y-50729417D01*
X111893129Y-50729423D01*
X111776923Y-50845629D01*
X111776917Y-50845637D01*
X111693255Y-50987103D01*
X111693254Y-50987106D01*
X111647402Y-51144926D01*
X111647401Y-51144932D01*
X111644500Y-51181798D01*
X111644500Y-53063201D01*
X111647401Y-53100067D01*
X111647402Y-53100073D01*
X111693254Y-53257893D01*
X111693255Y-53257896D01*
X111693256Y-53257898D01*
X111730681Y-53321181D01*
X111776917Y-53399362D01*
X111776923Y-53399370D01*
X111893129Y-53515576D01*
X111893133Y-53515579D01*
X111893135Y-53515581D01*
X112034602Y-53599244D01*
X112039483Y-53600662D01*
X112141816Y-53630393D01*
X112200702Y-53667999D01*
X112229908Y-53731471D01*
X112228838Y-53773660D01*
X112199500Y-53921153D01*
X112199500Y-54078846D01*
X112230261Y-54233489D01*
X112230264Y-54233501D01*
X112290602Y-54379172D01*
X112290609Y-54379185D01*
X112378210Y-54510288D01*
X112378213Y-54510292D01*
X112489707Y-54621786D01*
X112489711Y-54621789D01*
X112620814Y-54709390D01*
X112620827Y-54709397D01*
X112739664Y-54758620D01*
X112766503Y-54769737D01*
X112908002Y-54797883D01*
X112921153Y-54800499D01*
X112921156Y-54800500D01*
X112921158Y-54800500D01*
X113078844Y-54800500D01*
X113078845Y-54800499D01*
X113233497Y-54769737D01*
X113346166Y-54723067D01*
X113379172Y-54709397D01*
X113379172Y-54709396D01*
X113379179Y-54709394D01*
X113510289Y-54621789D01*
X113621789Y-54510289D01*
X113709394Y-54379179D01*
X113769737Y-54233497D01*
X113800500Y-54078842D01*
X113800500Y-53921158D01*
X113800500Y-53921155D01*
X113800499Y-53921153D01*
X113775643Y-53796191D01*
X113781870Y-53726600D01*
X113824733Y-53671422D01*
X113890623Y-53648178D01*
X113897260Y-53648000D01*
X113930686Y-53648000D01*
X113930694Y-53648000D01*
X113967569Y-53645098D01*
X113967571Y-53645097D01*
X113967573Y-53645097D01*
X114018183Y-53630393D01*
X114125398Y-53599244D01*
X114242703Y-53529869D01*
X114310427Y-53512687D01*
X114376690Y-53534847D01*
X114420453Y-53589313D01*
X114425597Y-53604505D01*
X114448437Y-53689744D01*
X114458313Y-53726600D01*
X114459436Y-53730792D01*
X114533684Y-53859393D01*
X114533689Y-53859399D01*
X114645761Y-53971471D01*
X114645767Y-53971476D01*
X115144588Y-54470297D01*
X115178073Y-54531620D01*
X115180907Y-54557978D01*
X115180907Y-54588346D01*
X115211668Y-54742989D01*
X115211671Y-54743001D01*
X115272009Y-54888672D01*
X115272016Y-54888685D01*
X115359617Y-55019788D01*
X115359620Y-55019792D01*
X115471114Y-55131286D01*
X115471118Y-55131289D01*
X115587267Y-55208898D01*
X115632072Y-55262510D01*
X115640779Y-55331835D01*
X115610624Y-55394863D01*
X115551181Y-55431582D01*
X115518376Y-55436000D01*
X107448813Y-55436000D01*
X107381774Y-55416315D01*
X107336019Y-55363511D01*
X107326075Y-55294353D01*
X107355100Y-55230797D01*
X107379922Y-55208898D01*
X107446872Y-55164163D01*
X107510289Y-55121789D01*
X107621789Y-55010289D01*
X107709394Y-54879179D01*
X107769737Y-54733497D01*
X107800500Y-54578842D01*
X107800500Y-54541918D01*
X107817113Y-54479918D01*
X107865672Y-54395811D01*
X107890565Y-54352696D01*
X107909892Y-54280565D01*
X107929000Y-54209253D01*
X107929000Y-54060747D01*
X107929000Y-53641820D01*
X107948685Y-53574781D01*
X108001489Y-53529026D01*
X108070647Y-53519082D01*
X108116117Y-53535086D01*
X108224602Y-53599244D01*
X108229483Y-53600662D01*
X108382426Y-53645097D01*
X108382429Y-53645097D01*
X108382431Y-53645098D01*
X108419306Y-53648000D01*
X108419314Y-53648000D01*
X108850686Y-53648000D01*
X108850694Y-53648000D01*
X108887569Y-53645098D01*
X108887571Y-53645097D01*
X108887573Y-53645097D01*
X108938183Y-53630393D01*
X109045398Y-53599244D01*
X109186865Y-53515581D01*
X109186870Y-53515575D01*
X109193031Y-53510798D01*
X109194933Y-53513250D01*
X109243579Y-53486655D01*
X109313274Y-53491604D01*
X109345695Y-53512440D01*
X109346969Y-53510798D01*
X109353132Y-53515578D01*
X109353135Y-53515581D01*
X109494602Y-53599244D01*
X109499483Y-53600662D01*
X109652426Y-53645097D01*
X109652429Y-53645097D01*
X109652431Y-53645098D01*
X109689306Y-53648000D01*
X109689314Y-53648000D01*
X110120686Y-53648000D01*
X110120694Y-53648000D01*
X110157569Y-53645098D01*
X110157571Y-53645097D01*
X110157573Y-53645097D01*
X110208183Y-53630393D01*
X110315398Y-53599244D01*
X110456865Y-53515581D01*
X110573081Y-53399365D01*
X110656744Y-53257898D01*
X110700643Y-53106797D01*
X110702597Y-53100073D01*
X110702598Y-53100067D01*
X110704125Y-53080667D01*
X110705500Y-53063194D01*
X110705500Y-51181806D01*
X110702598Y-51144931D01*
X110701878Y-51142454D01*
X110656745Y-50987106D01*
X110656744Y-50987103D01*
X110656744Y-50987102D01*
X110573081Y-50845635D01*
X110456865Y-50729419D01*
X110456862Y-50729417D01*
X110451349Y-50723904D01*
X110452620Y-50722632D01*
X110430649Y-50697451D01*
X110430565Y-50697306D01*
X110430565Y-50697304D01*
X110405388Y-50653696D01*
X110356313Y-50568696D01*
X110251304Y-50463687D01*
X110251303Y-50463686D01*
X110246973Y-50459356D01*
X110246962Y-50459346D01*
X110243924Y-50456308D01*
X110210439Y-50394985D01*
X110215423Y-50325293D01*
X110257295Y-50269360D01*
X110322759Y-50244943D01*
X110351003Y-50246154D01*
X110441578Y-50260500D01*
X110441583Y-50260500D01*
X110638422Y-50260500D01*
X110832826Y-50229709D01*
X110832835Y-50229706D01*
X111020025Y-50168884D01*
X111195405Y-50079524D01*
X111354646Y-49963828D01*
X111493828Y-49824646D01*
X111609524Y-49665405D01*
X111657202Y-49571832D01*
X111699515Y-49488787D01*
X111747489Y-49437990D01*
X111815310Y-49421195D01*
X111881445Y-49443732D01*
G37*
G04 #@! TD.AperFunction*
M02*
