G04 #@! TF.GenerationSoftware,KiCad,Pcbnew,9.0.4*
G04 #@! TF.CreationDate,2026-01-25T17:53:04-05:00*
G04 #@! TF.ProjectId,shiftclock-4.0,73686966-7463-46c6-9f63-6b2d342e302e,rev?*
G04 #@! TF.SameCoordinates,Original*
G04 #@! TF.FileFunction,Copper,L1,Top*
G04 #@! TF.FilePolarity,Positive*
%FSLAX46Y46*%
G04 Gerber Fmt 4.6, Leading zero omitted, Abs format (unit mm)*
G04 Created by KiCad (PCBNEW 9.0.4) date 2026-01-25 17:53:04*
%MOMM*%
%LPD*%
G01*
G04 APERTURE LIST*
G04 #@! TA.AperFunction,ComponentPad*
%ADD10C,2.000000*%
G04 #@! TD*
G04 #@! TA.AperFunction,ComponentPad*
%ADD11R,1.500000X1.500000*%
G04 #@! TD*
G04 #@! TA.AperFunction,ComponentPad*
%ADD12C,1.500000*%
G04 #@! TD*
G04 #@! TA.AperFunction,ComponentPad*
%ADD13R,1.560000X1.560000*%
G04 #@! TD*
G04 #@! TA.AperFunction,ComponentPad*
%ADD14C,1.560000*%
G04 #@! TD*
G04 #@! TA.AperFunction,ComponentPad*
%ADD15R,2.000000X2.000000*%
G04 #@! TD*
G04 #@! TA.AperFunction,ComponentPad*
%ADD16C,2.800000*%
G04 #@! TD*
G04 #@! TA.AperFunction,HeatsinkPad*
%ADD17O,1.700000X0.900000*%
G04 #@! TD*
G04 #@! TA.AperFunction,HeatsinkPad*
%ADD18O,2.000000X0.900000*%
G04 #@! TD*
G04 #@! TA.AperFunction,ViaPad*
%ADD19C,0.600000*%
G04 #@! TD*
G04 #@! TA.AperFunction,Conductor*
%ADD20C,0.127000*%
G04 #@! TD*
G04 #@! TA.AperFunction,Conductor*
%ADD21C,0.250000*%
G04 #@! TD*
G04 APERTURE END LIST*
D10*
X24750000Y-40750000D03*
X31250000Y-40750000D03*
X24750000Y-45250000D03*
X31250000Y-45250000D03*
D11*
X57150000Y-64250000D03*
D12*
X59690000Y-64250000D03*
X62230000Y-64250000D03*
X64770000Y-64250000D03*
X67310000Y-64250000D03*
X69850000Y-64250000D03*
X69850000Y-49010000D03*
X67310000Y-49010000D03*
X64770000Y-49010000D03*
X62230000Y-49010000D03*
X59690000Y-49010000D03*
X57150000Y-49010000D03*
D10*
X34250000Y-40750000D03*
X40750000Y-40750000D03*
X34250000Y-45250000D03*
X40750000Y-45250000D03*
D11*
X108000000Y-64250000D03*
D12*
X110540000Y-64250000D03*
X113080000Y-64250000D03*
X115620000Y-64250000D03*
X118160000Y-64250000D03*
X120700000Y-64250000D03*
X120700000Y-49010000D03*
X118160000Y-49010000D03*
X115620000Y-49010000D03*
X113080000Y-49010000D03*
X110540000Y-49010000D03*
X108000000Y-49010000D03*
D13*
X133260000Y-45500000D03*
D14*
X138260000Y-43000000D03*
X133260000Y-40500000D03*
D15*
X149900000Y-50500000D03*
D10*
X144900000Y-50500000D03*
X147400000Y-50500000D03*
D16*
X153000000Y-58000000D03*
X141800000Y-58000000D03*
D10*
X149900000Y-65000000D03*
X144900000Y-65000000D03*
X43750000Y-40750000D03*
X50250000Y-40750000D03*
X43750000Y-45250000D03*
X50250000Y-45250000D03*
D17*
X26135000Y-65500000D03*
D18*
X30305000Y-65500000D03*
D17*
X26135000Y-56860000D03*
D18*
X30305000Y-56860000D03*
D19*
X117000000Y-59504569D03*
X71000000Y-63000000D03*
X105000000Y-52500000D03*
X109000000Y-60000000D03*
X111500000Y-59500000D03*
X114500000Y-58500000D03*
X106500000Y-60500000D03*
X106500000Y-50000000D03*
X113500000Y-59000000D03*
X112000000Y-54000000D03*
X89000000Y-56500000D03*
X113000000Y-54000000D03*
X116500000Y-54000000D03*
X122500000Y-61500000D03*
X76500000Y-60000000D03*
X77500000Y-60000000D03*
X103500000Y-46000000D03*
X121500000Y-58000000D03*
X69312500Y-57000000D03*
X104500000Y-46000000D03*
X102500000Y-46000000D03*
X122500000Y-58000000D03*
X123500000Y-58000000D03*
X68817524Y-57494976D03*
X75500000Y-60000000D03*
X117500000Y-55500000D03*
X119500000Y-57500000D03*
X87500000Y-54000000D03*
X90000000Y-51500000D03*
X43000000Y-54500000D03*
X101000000Y-52000000D03*
X54937500Y-59437500D03*
X100514069Y-54514069D03*
X31930000Y-59430000D03*
X31930000Y-56070000D03*
X38000000Y-64290500D03*
X116000000Y-59504569D03*
X136100000Y-45000000D03*
X38000000Y-63000000D03*
X37500000Y-62500000D03*
X38000000Y-65000000D03*
X71500000Y-50500000D03*
X71500000Y-54000000D03*
X66250000Y-52750000D03*
X70500000Y-53500000D03*
X117000000Y-65000000D03*
D20*
X112000000Y-59000000D02*
X112500000Y-59500000D01*
X117000000Y-59504569D02*
X116495431Y-59000000D01*
X115500000Y-59000000D02*
X115500000Y-58004569D01*
X71010000Y-49010000D02*
X81000000Y-59000000D01*
X115500000Y-54210000D02*
X115500000Y-58004569D01*
X81000000Y-59000000D02*
X112000000Y-59000000D01*
X120700000Y-49010000D02*
X115500000Y-54210000D01*
X116495431Y-59000000D02*
X115500000Y-59000000D01*
X112500000Y-59500000D02*
X115000000Y-59500000D01*
X69850000Y-49010000D02*
X71010000Y-49010000D01*
X115000000Y-59500000D02*
X115500000Y-59000000D01*
X109290000Y-63000000D02*
X71000000Y-63000000D01*
X110540000Y-64250000D02*
X109290000Y-63000000D01*
X118160000Y-64250000D02*
X116410000Y-62500000D01*
X116410000Y-62500000D02*
X69060000Y-62500000D01*
X69060000Y-62500000D02*
X67310000Y-64250000D01*
X66780000Y-47000000D02*
X64770000Y-49010000D01*
X105000000Y-52500000D02*
X100000000Y-57500000D01*
X100000000Y-57500000D02*
X81500000Y-57500000D01*
X81500000Y-57500000D02*
X71000000Y-47000000D01*
X71000000Y-47000000D02*
X66780000Y-47000000D01*
X64980000Y-61500000D02*
X107500000Y-61500000D01*
X62230000Y-64250000D02*
X64980000Y-61500000D01*
X107500000Y-61500000D02*
X109000000Y-60000000D01*
X67020000Y-62000000D02*
X64770000Y-64250000D01*
X109000000Y-62000000D02*
X67020000Y-62000000D01*
X111500000Y-59500000D02*
X109000000Y-62000000D01*
X114500000Y-50000000D02*
X114500000Y-58500000D01*
X113500000Y-47500000D02*
X114000000Y-48000000D01*
X114000000Y-48000000D02*
X114500000Y-48500000D01*
X109050000Y-50500000D02*
X110540000Y-49010000D01*
X110540000Y-49010000D02*
X112050000Y-47500000D01*
X76500000Y-50500000D02*
X109050000Y-50500000D01*
X59690000Y-49010000D02*
X62700000Y-46000000D01*
X62700000Y-46000000D02*
X72000000Y-46000000D01*
X72000000Y-46000000D02*
X76500000Y-50500000D01*
X114500000Y-48500000D02*
X114500000Y-50000000D01*
X112050000Y-47500000D02*
X113500000Y-47500000D01*
X60400000Y-61000000D02*
X57150000Y-64250000D01*
X106500000Y-60500000D02*
X106000000Y-61000000D01*
X106000000Y-61000000D02*
X60400000Y-61000000D01*
X77000000Y-50000000D02*
X106500000Y-50000000D01*
X60660000Y-45500000D02*
X72500000Y-45500000D01*
X57150000Y-49010000D02*
X60660000Y-45500000D01*
X72500000Y-45500000D02*
X77000000Y-50000000D01*
X62230000Y-49010000D02*
X64740000Y-46500000D01*
X71500000Y-46500000D02*
X76000000Y-51000000D01*
X113500000Y-59000000D02*
X113500000Y-50000000D01*
X64740000Y-46500000D02*
X71500000Y-46500000D01*
X113500000Y-50000000D02*
X113080000Y-49580000D01*
X76000000Y-51000000D02*
X111090000Y-51000000D01*
X111090000Y-51000000D02*
X113080000Y-49010000D01*
X113080000Y-49580000D02*
X113080000Y-49010000D01*
X109500000Y-51500000D02*
X112000000Y-54000000D01*
X104500000Y-51500000D02*
X109500000Y-51500000D01*
X89000000Y-56500000D02*
X99500000Y-56500000D01*
X99500000Y-56500000D02*
X104500000Y-51500000D01*
X113000000Y-54000000D02*
X113000000Y-55000000D01*
X109750000Y-58250000D02*
X81250000Y-58250000D01*
X67310000Y-48690000D02*
X67310000Y-49010000D01*
X113000000Y-55000000D02*
X109750000Y-58250000D01*
X81250000Y-58250000D02*
X70500000Y-47500000D01*
X70500000Y-47500000D02*
X68500000Y-47500000D01*
X68500000Y-47500000D02*
X67310000Y-48690000D01*
X116500000Y-54000000D02*
X116500000Y-55500000D01*
X116500000Y-55500000D02*
X122500000Y-61500000D01*
X34564500Y-65500000D02*
X30305000Y-65500000D01*
X144900000Y-65000000D02*
X143964500Y-65935500D01*
X143964500Y-65935500D02*
X35000000Y-65935500D01*
X35000000Y-65935500D02*
X34564500Y-65500000D01*
X144900000Y-65000000D02*
X147400000Y-62500000D01*
X147400000Y-62500000D02*
X147400000Y-50500000D01*
X119500000Y-57500000D02*
X117500000Y-55500000D01*
X87500000Y-54000000D02*
X90000000Y-51500000D01*
X29500000Y-48000000D02*
X36000000Y-54500000D01*
X29500000Y-42500000D02*
X29500000Y-48000000D01*
X31250000Y-40750000D02*
X29500000Y-42500000D01*
X36000000Y-54500000D02*
X43000000Y-54500000D01*
D21*
X101000000Y-54028138D02*
X100514069Y-54514069D01*
X54937500Y-59437500D02*
X53000000Y-57500000D01*
X101000000Y-52000000D02*
X101000000Y-54028138D01*
X53000000Y-48000000D02*
X50250000Y-45250000D01*
X53000000Y-57500000D02*
X53000000Y-48000000D01*
D20*
X31930000Y-56070000D02*
X31930000Y-59430000D01*
D21*
X118995431Y-62500000D02*
X116000000Y-59504569D01*
X38000000Y-63000000D02*
X38000000Y-65000000D01*
X37500000Y-62500000D02*
X38000000Y-63000000D01*
X136100000Y-51400000D02*
X125000000Y-62500000D01*
X136100000Y-45000000D02*
X136100000Y-51400000D01*
X125000000Y-62500000D02*
X118995431Y-62500000D01*
D20*
X71500000Y-50500000D02*
X71500000Y-54000000D01*
X54500000Y-51500000D02*
X53500000Y-50500000D01*
X53500000Y-46500000D02*
X50000000Y-43000000D01*
X50000000Y-43000000D02*
X43000000Y-43000000D01*
X43000000Y-43000000D02*
X40750000Y-40750000D01*
X53500000Y-50500000D02*
X53500000Y-46500000D01*
X65000000Y-51500000D02*
X54500000Y-51500000D01*
X66250000Y-52750000D02*
X65000000Y-51500000D01*
X55000000Y-51000000D02*
X54000000Y-50000000D01*
X70500000Y-53500000D02*
X68000000Y-51000000D01*
X68000000Y-51000000D02*
X55000000Y-51000000D01*
X54000000Y-44500000D02*
X50250000Y-40750000D01*
X54000000Y-50000000D02*
X54000000Y-44500000D01*
D21*
X138260000Y-50740000D02*
X138260000Y-43000000D01*
X123500000Y-65500000D02*
X138260000Y-50740000D01*
X117500000Y-65500000D02*
X123500000Y-65500000D01*
X117000000Y-65000000D02*
X117500000Y-65500000D01*
G04 #@! TA.AperFunction,Conductor*
G36*
X30145150Y-39520185D02*
G01*
X30190905Y-39572989D01*
X30200849Y-39642147D01*
X30171824Y-39705703D01*
X30165792Y-39712181D01*
X30105485Y-39772487D01*
X30105485Y-39772488D01*
X30105483Y-39772490D01*
X30064520Y-39828871D01*
X29966657Y-39963566D01*
X29859433Y-40174003D01*
X29786446Y-40398631D01*
X29749500Y-40631902D01*
X29749500Y-40868097D01*
X29786447Y-41101369D01*
X29786447Y-41101372D01*
X29840109Y-41266524D01*
X29842104Y-41336365D01*
X29809859Y-41392523D01*
X29153698Y-42048685D01*
X29048689Y-42153693D01*
X29048685Y-42153699D01*
X28992797Y-42250500D01*
X28974434Y-42282305D01*
X28974433Y-42282306D01*
X28949732Y-42374498D01*
X28949732Y-42374499D01*
X28936000Y-42425748D01*
X28936000Y-48074252D01*
X28960164Y-48164434D01*
X28974435Y-48217697D01*
X28974436Y-48217698D01*
X29048687Y-48346304D01*
X29048689Y-48346306D01*
X29160761Y-48458378D01*
X29160767Y-48458383D01*
X35544346Y-54841962D01*
X35544356Y-54841973D01*
X35548686Y-54846303D01*
X35548687Y-54846304D01*
X35653696Y-54951313D01*
X35771531Y-55019345D01*
X35782304Y-55025565D01*
X35925747Y-55064000D01*
X35925748Y-55064000D01*
X42380559Y-55064000D01*
X42447598Y-55083685D01*
X42468240Y-55100319D01*
X42489707Y-55121786D01*
X42489711Y-55121789D01*
X42620814Y-55209390D01*
X42620827Y-55209397D01*
X42730712Y-55254912D01*
X42766503Y-55269737D01*
X42919967Y-55300263D01*
X42921153Y-55300499D01*
X42921156Y-55300500D01*
X42921158Y-55300500D01*
X43078844Y-55300500D01*
X43078845Y-55300499D01*
X43233497Y-55269737D01*
X43379179Y-55209394D01*
X43510289Y-55121789D01*
X43621789Y-55010289D01*
X43709394Y-54879179D01*
X43769737Y-54733497D01*
X43800500Y-54578842D01*
X43800500Y-54421158D01*
X43800500Y-54421155D01*
X43800499Y-54421153D01*
X43776499Y-54300499D01*
X43769737Y-54266503D01*
X43709794Y-54121786D01*
X43709397Y-54120827D01*
X43709390Y-54120814D01*
X43621789Y-53989711D01*
X43621786Y-53989707D01*
X43510292Y-53878213D01*
X43510288Y-53878210D01*
X43379185Y-53790609D01*
X43379172Y-53790602D01*
X43233501Y-53730264D01*
X43233489Y-53730261D01*
X43078845Y-53699500D01*
X43078842Y-53699500D01*
X42921158Y-53699500D01*
X42921155Y-53699500D01*
X42766510Y-53730261D01*
X42766498Y-53730264D01*
X42620827Y-53790602D01*
X42620814Y-53790609D01*
X42489711Y-53878210D01*
X42489707Y-53878213D01*
X42468240Y-53899681D01*
X42406917Y-53933166D01*
X42380559Y-53936000D01*
X36284978Y-53936000D01*
X36217939Y-53916315D01*
X36197297Y-53899681D01*
X30100319Y-47802703D01*
X30066834Y-47741380D01*
X30064000Y-47715022D01*
X30064000Y-46133808D01*
X30083685Y-46066769D01*
X30100319Y-46046127D01*
X30726212Y-45420233D01*
X30737482Y-45462292D01*
X30809890Y-45587708D01*
X30912292Y-45690110D01*
X31037708Y-45762518D01*
X31079765Y-45773787D01*
X30380893Y-46472658D01*
X30463828Y-46532914D01*
X30674197Y-46640102D01*
X30898752Y-46713065D01*
X30898751Y-46713065D01*
X31131948Y-46750000D01*
X31368052Y-46750000D01*
X31601247Y-46713065D01*
X31825802Y-46640102D01*
X32036163Y-46532918D01*
X32036169Y-46532914D01*
X32119104Y-46472658D01*
X32119105Y-46472658D01*
X31420233Y-45773787D01*
X31462292Y-45762518D01*
X31587708Y-45690110D01*
X31690110Y-45587708D01*
X31762518Y-45462292D01*
X31773787Y-45420233D01*
X32472658Y-46119105D01*
X32472658Y-46119104D01*
X32532914Y-46036169D01*
X32532918Y-46036163D01*
X32639515Y-45826956D01*
X32687489Y-45776160D01*
X32755310Y-45759365D01*
X32821445Y-45781902D01*
X32860485Y-45826956D01*
X32967087Y-46036174D01*
X33027338Y-46119104D01*
X33027340Y-46119105D01*
X33726212Y-45420233D01*
X33737482Y-45462292D01*
X33809890Y-45587708D01*
X33912292Y-45690110D01*
X34037708Y-45762518D01*
X34079765Y-45773787D01*
X33380893Y-46472658D01*
X33463828Y-46532914D01*
X33674197Y-46640102D01*
X33898752Y-46713065D01*
X33898751Y-46713065D01*
X34131948Y-46750000D01*
X34368052Y-46750000D01*
X34601247Y-46713065D01*
X34825802Y-46640102D01*
X35036163Y-46532918D01*
X35036169Y-46532914D01*
X35119104Y-46472658D01*
X35119105Y-46472658D01*
X34420233Y-45773787D01*
X34462292Y-45762518D01*
X34587708Y-45690110D01*
X34690110Y-45587708D01*
X34762518Y-45462292D01*
X34773787Y-45420233D01*
X35472658Y-46119105D01*
X35472658Y-46119104D01*
X35532914Y-46036169D01*
X35532918Y-46036163D01*
X35640102Y-45825802D01*
X35713065Y-45601247D01*
X35750000Y-45368052D01*
X35750000Y-45131947D01*
X35713065Y-44898752D01*
X35640102Y-44674197D01*
X35532914Y-44463828D01*
X35472658Y-44380894D01*
X35472658Y-44380893D01*
X34773787Y-45079765D01*
X34762518Y-45037708D01*
X34690110Y-44912292D01*
X34587708Y-44809890D01*
X34462292Y-44737482D01*
X34420234Y-44726212D01*
X35119105Y-44027340D01*
X35119104Y-44027339D01*
X35036174Y-43967087D01*
X34825802Y-43859897D01*
X34601247Y-43786934D01*
X34601248Y-43786934D01*
X34368052Y-43750000D01*
X34131948Y-43750000D01*
X33898752Y-43786934D01*
X33674197Y-43859897D01*
X33463830Y-43967084D01*
X33380894Y-44027340D01*
X34079766Y-44726212D01*
X34037708Y-44737482D01*
X33912292Y-44809890D01*
X33809890Y-44912292D01*
X33737482Y-45037708D01*
X33726212Y-45079766D01*
X33027340Y-44380894D01*
X32967084Y-44463830D01*
X32860485Y-44673043D01*
X32812510Y-44723839D01*
X32744689Y-44740634D01*
X32678554Y-44718096D01*
X32639515Y-44673043D01*
X32532914Y-44463828D01*
X32472658Y-44380894D01*
X32472658Y-44380893D01*
X31773787Y-45079765D01*
X31762518Y-45037708D01*
X31690110Y-44912292D01*
X31587708Y-44809890D01*
X31462292Y-44737482D01*
X31420234Y-44726212D01*
X32119105Y-44027340D01*
X32119104Y-44027339D01*
X32036174Y-43967087D01*
X31825802Y-43859897D01*
X31601247Y-43786934D01*
X31601248Y-43786934D01*
X31368052Y-43750000D01*
X31131948Y-43750000D01*
X30898752Y-43786934D01*
X30674197Y-43859897D01*
X30463830Y-43967084D01*
X30380894Y-44027340D01*
X31079766Y-44726212D01*
X31037708Y-44737482D01*
X30912292Y-44809890D01*
X30809890Y-44912292D01*
X30737482Y-45037708D01*
X30726212Y-45079766D01*
X30100319Y-44453873D01*
X30066834Y-44392550D01*
X30064000Y-44366192D01*
X30064000Y-42784977D01*
X30083685Y-42717938D01*
X30100315Y-42697300D01*
X30607477Y-42190137D01*
X30668798Y-42156654D01*
X30733471Y-42159888D01*
X30838667Y-42194069D01*
X30898631Y-42213553D01*
X31131903Y-42250500D01*
X31131908Y-42250500D01*
X31368097Y-42250500D01*
X31601368Y-42213553D01*
X31661333Y-42194069D01*
X31825992Y-42140568D01*
X32036433Y-42033343D01*
X32227510Y-41894517D01*
X32394517Y-41727510D01*
X32533343Y-41536433D01*
X32639515Y-41328057D01*
X32687489Y-41277262D01*
X32755310Y-41260467D01*
X32821445Y-41283004D01*
X32860484Y-41328057D01*
X32966657Y-41536433D01*
X33105483Y-41727510D01*
X33272490Y-41894517D01*
X33463567Y-42033343D01*
X33562991Y-42084002D01*
X33674003Y-42140566D01*
X33674005Y-42140566D01*
X33674008Y-42140568D01*
X33751695Y-42165810D01*
X33898631Y-42213553D01*
X34131903Y-42250500D01*
X34131908Y-42250500D01*
X34368097Y-42250500D01*
X34601368Y-42213553D01*
X34661333Y-42194069D01*
X34825992Y-42140568D01*
X35036433Y-42033343D01*
X35227510Y-41894517D01*
X35394517Y-41727510D01*
X35533343Y-41536433D01*
X35640568Y-41325992D01*
X35713553Y-41101368D01*
X35730948Y-40991539D01*
X35750500Y-40868097D01*
X35750500Y-40631902D01*
X35713553Y-40398631D01*
X35654535Y-40216995D01*
X35640568Y-40174008D01*
X35640566Y-40174005D01*
X35640566Y-40174003D01*
X35533342Y-39963566D01*
X35394517Y-39772490D01*
X35334208Y-39712181D01*
X35300723Y-39650858D01*
X35305707Y-39581166D01*
X35347579Y-39525233D01*
X35413043Y-39500816D01*
X35421889Y-39500500D01*
X39578111Y-39500500D01*
X39645150Y-39520185D01*
X39690905Y-39572989D01*
X39700849Y-39642147D01*
X39671824Y-39705703D01*
X39665792Y-39712181D01*
X39605485Y-39772487D01*
X39605485Y-39772488D01*
X39605483Y-39772490D01*
X39564520Y-39828871D01*
X39466657Y-39963566D01*
X39359433Y-40174003D01*
X39286446Y-40398631D01*
X39249500Y-40631902D01*
X39249500Y-40868097D01*
X39286446Y-41101368D01*
X39359433Y-41325996D01*
X39436227Y-41476711D01*
X39466657Y-41536433D01*
X39605483Y-41727510D01*
X39772490Y-41894517D01*
X39963567Y-42033343D01*
X40062991Y-42084002D01*
X40174003Y-42140566D01*
X40174005Y-42140566D01*
X40174008Y-42140568D01*
X40251695Y-42165810D01*
X40398631Y-42213553D01*
X40631903Y-42250500D01*
X40631908Y-42250500D01*
X40868097Y-42250500D01*
X41101368Y-42213553D01*
X41161333Y-42194069D01*
X41266525Y-42159889D01*
X41336366Y-42157895D01*
X41392523Y-42190139D01*
X42653696Y-43451313D01*
X42653697Y-43451314D01*
X42653699Y-43451315D01*
X42782300Y-43525563D01*
X42782301Y-43525563D01*
X42782304Y-43525565D01*
X42925748Y-43564001D01*
X42925751Y-43564001D01*
X43081849Y-43564001D01*
X43081865Y-43564000D01*
X43300347Y-43564000D01*
X43367386Y-43583685D01*
X43413141Y-43636489D01*
X43423085Y-43705647D01*
X43394060Y-43769203D01*
X43338666Y-43805931D01*
X43174003Y-43859433D01*
X42963566Y-43966657D01*
X42880044Y-44027340D01*
X42772490Y-44105483D01*
X42772488Y-44105485D01*
X42772487Y-44105485D01*
X42605485Y-44272487D01*
X42605485Y-44272488D01*
X42605483Y-44272490D01*
X42558158Y-44337627D01*
X42466657Y-44463566D01*
X42360204Y-44672492D01*
X42312229Y-44723288D01*
X42244408Y-44740083D01*
X42178273Y-44717545D01*
X42139234Y-44672492D01*
X42032914Y-44463828D01*
X41972658Y-44380894D01*
X41972658Y-44380893D01*
X41273787Y-45079765D01*
X41262518Y-45037708D01*
X41190110Y-44912292D01*
X41087708Y-44809890D01*
X40962292Y-44737482D01*
X40920234Y-44726212D01*
X41619105Y-44027340D01*
X41619104Y-44027338D01*
X41536174Y-43967087D01*
X41325802Y-43859897D01*
X41101247Y-43786934D01*
X41101248Y-43786934D01*
X40868052Y-43750000D01*
X40631948Y-43750000D01*
X40398752Y-43786934D01*
X40174197Y-43859897D01*
X39963830Y-43967084D01*
X39880894Y-44027340D01*
X40579766Y-44726212D01*
X40537708Y-44737482D01*
X40412292Y-44809890D01*
X40309890Y-44912292D01*
X40237482Y-45037708D01*
X40226212Y-45079766D01*
X39527340Y-44380894D01*
X39467084Y-44463830D01*
X39359897Y-44674197D01*
X39286934Y-44898752D01*
X39250000Y-45131947D01*
X39250000Y-45368052D01*
X39286934Y-45601247D01*
X39359897Y-45825802D01*
X39467087Y-46036174D01*
X39527338Y-46119104D01*
X39527340Y-46119105D01*
X40226212Y-45420233D01*
X40237482Y-45462292D01*
X40309890Y-45587708D01*
X40412292Y-45690110D01*
X40537708Y-45762518D01*
X40579765Y-45773787D01*
X39880893Y-46472658D01*
X39963828Y-46532914D01*
X40174197Y-46640102D01*
X40398752Y-46713065D01*
X40398751Y-46713065D01*
X40631948Y-46750000D01*
X40868052Y-46750000D01*
X41101247Y-46713065D01*
X41325802Y-46640102D01*
X41536163Y-46532918D01*
X41536169Y-46532914D01*
X41619104Y-46472658D01*
X41619105Y-46472658D01*
X40920233Y-45773787D01*
X40962292Y-45762518D01*
X41087708Y-45690110D01*
X41190110Y-45587708D01*
X41262518Y-45462292D01*
X41273787Y-45420233D01*
X41972658Y-46119105D01*
X41972658Y-46119104D01*
X42032914Y-46036169D01*
X42032918Y-46036163D01*
X42139234Y-45827507D01*
X42187208Y-45776711D01*
X42255029Y-45759916D01*
X42321164Y-45782453D01*
X42360203Y-45827506D01*
X42466657Y-46036433D01*
X42605483Y-46227510D01*
X42772490Y-46394517D01*
X42963567Y-46533343D01*
X43023735Y-46564000D01*
X43174003Y-46640566D01*
X43174005Y-46640566D01*
X43174008Y-46640568D01*
X43226852Y-46657738D01*
X43398631Y-46713553D01*
X43631903Y-46750500D01*
X43631908Y-46750500D01*
X43868097Y-46750500D01*
X44101368Y-46713553D01*
X44125700Y-46705647D01*
X44325992Y-46640568D01*
X44536433Y-46533343D01*
X44727510Y-46394517D01*
X44894517Y-46227510D01*
X45033343Y-46036433D01*
X45140568Y-45825992D01*
X45213553Y-45601368D01*
X45215717Y-45587708D01*
X45250500Y-45368097D01*
X45250500Y-45131902D01*
X45213553Y-44898631D01*
X45170624Y-44766510D01*
X45140568Y-44674008D01*
X45140566Y-44674005D01*
X45140566Y-44674003D01*
X45040528Y-44477669D01*
X45033343Y-44463567D01*
X44894517Y-44272490D01*
X44727510Y-44105483D01*
X44536433Y-43966657D01*
X44325996Y-43859433D01*
X44161334Y-43805931D01*
X44103659Y-43766493D01*
X44076461Y-43702134D01*
X44088376Y-43633288D01*
X44135620Y-43581812D01*
X44199653Y-43564000D01*
X49715022Y-43564000D01*
X49744462Y-43572644D01*
X49774449Y-43579168D01*
X49779464Y-43582922D01*
X49782061Y-43583685D01*
X49802703Y-43600319D01*
X49823628Y-43621244D01*
X49857113Y-43682567D01*
X49852129Y-43752259D01*
X49810257Y-43808192D01*
X49774266Y-43826856D01*
X49674003Y-43859433D01*
X49463566Y-43966657D01*
X49380044Y-44027340D01*
X49272490Y-44105483D01*
X49272488Y-44105485D01*
X49272487Y-44105485D01*
X49105485Y-44272487D01*
X49105485Y-44272488D01*
X49105483Y-44272490D01*
X49058158Y-44337627D01*
X48966657Y-44463566D01*
X48859433Y-44674003D01*
X48786446Y-44898631D01*
X48749500Y-45131902D01*
X48749500Y-45368097D01*
X48786446Y-45601368D01*
X48859433Y-45825996D01*
X48966519Y-46036163D01*
X48966657Y-46036433D01*
X49105483Y-46227510D01*
X49272490Y-46394517D01*
X49463567Y-46533343D01*
X49523735Y-46564000D01*
X49674003Y-46640566D01*
X49674005Y-46640566D01*
X49674008Y-46640568D01*
X49726852Y-46657738D01*
X49898631Y-46713553D01*
X50131903Y-46750500D01*
X50131908Y-46750500D01*
X50368097Y-46750500D01*
X50601368Y-46713553D01*
X50607782Y-46711469D01*
X50700881Y-46681218D01*
X50770720Y-46679223D01*
X50826879Y-46711469D01*
X52338181Y-48222771D01*
X52371666Y-48284094D01*
X52374500Y-48310452D01*
X52374500Y-57561609D01*
X52377927Y-57578841D01*
X52398535Y-57682445D01*
X52398539Y-57682459D01*
X52403813Y-57695191D01*
X52403818Y-57695202D01*
X52405599Y-57699500D01*
X52445688Y-57796286D01*
X52479110Y-57846304D01*
X52483301Y-57852577D01*
X52483302Y-57852578D01*
X52514138Y-57898728D01*
X52514144Y-57898736D01*
X52605586Y-57990178D01*
X52605608Y-57990198D01*
X54111705Y-59496295D01*
X54145190Y-59557618D01*
X54145641Y-59559785D01*
X54167761Y-59670989D01*
X54167764Y-59671001D01*
X54228102Y-59816672D01*
X54228109Y-59816685D01*
X54315710Y-59947788D01*
X54315713Y-59947792D01*
X54427207Y-60059286D01*
X54427211Y-60059289D01*
X54558314Y-60146890D01*
X54558327Y-60146897D01*
X54703998Y-60207235D01*
X54704003Y-60207237D01*
X54836020Y-60233497D01*
X54858653Y-60237999D01*
X54858656Y-60238000D01*
X54858658Y-60238000D01*
X55016344Y-60238000D01*
X55016345Y-60237999D01*
X55170997Y-60207237D01*
X55316679Y-60146894D01*
X55447789Y-60059289D01*
X55559289Y-59947789D01*
X55646894Y-59816679D01*
X55650004Y-59809172D01*
X55666559Y-59769203D01*
X55707237Y-59670997D01*
X55738000Y-59516342D01*
X55738000Y-59358658D01*
X55738000Y-59358655D01*
X55737999Y-59358653D01*
X55717535Y-59255774D01*
X55707237Y-59204003D01*
X55704133Y-59196510D01*
X55646897Y-59058327D01*
X55646890Y-59058314D01*
X55559289Y-58927211D01*
X55559286Y-58927207D01*
X55447792Y-58815713D01*
X55447788Y-58815710D01*
X55316685Y-58728109D01*
X55316672Y-58728102D01*
X55171001Y-58667764D01*
X55170989Y-58667761D01*
X55059785Y-58645641D01*
X54997874Y-58613256D01*
X54996295Y-58611705D01*
X53661819Y-57277229D01*
X53628334Y-57215906D01*
X53625500Y-57189548D01*
X53625500Y-51722478D01*
X53645185Y-51655439D01*
X53697989Y-51609684D01*
X53767147Y-51599740D01*
X53830703Y-51628765D01*
X53837175Y-51634791D01*
X54153696Y-51951313D01*
X54153697Y-51951314D01*
X54153699Y-51951315D01*
X54282300Y-52025563D01*
X54282301Y-52025563D01*
X54282304Y-52025565D01*
X54425748Y-52064001D01*
X54425751Y-52064001D01*
X54581849Y-52064001D01*
X54581865Y-52064000D01*
X64715022Y-52064000D01*
X64782061Y-52083685D01*
X64802703Y-52100319D01*
X65413181Y-52710797D01*
X65446666Y-52772120D01*
X65449500Y-52798478D01*
X65449500Y-52828846D01*
X65480261Y-52983489D01*
X65480264Y-52983501D01*
X65540602Y-53129172D01*
X65540609Y-53129185D01*
X65628210Y-53260288D01*
X65628213Y-53260292D01*
X65739707Y-53371786D01*
X65739711Y-53371789D01*
X65870814Y-53459390D01*
X65870827Y-53459397D01*
X66016498Y-53519735D01*
X66016503Y-53519737D01*
X66160993Y-53548478D01*
X66171153Y-53550499D01*
X66171156Y-53550500D01*
X66171158Y-53550500D01*
X66328844Y-53550500D01*
X66328845Y-53550499D01*
X66483497Y-53519737D01*
X66629179Y-53459394D01*
X66760289Y-53371789D01*
X66871789Y-53260289D01*
X66959394Y-53129179D01*
X67019737Y-52983497D01*
X67050500Y-52828842D01*
X67050500Y-52671158D01*
X67050500Y-52671155D01*
X67050499Y-52671153D01*
X67019738Y-52516510D01*
X67019737Y-52516503D01*
X66980242Y-52421153D01*
X66959397Y-52370827D01*
X66959390Y-52370814D01*
X66871789Y-52239711D01*
X66871786Y-52239707D01*
X66760292Y-52128213D01*
X66760288Y-52128210D01*
X66629185Y-52040609D01*
X66629172Y-52040602D01*
X66483501Y-51980264D01*
X66483489Y-51980261D01*
X66328845Y-51949500D01*
X66328842Y-51949500D01*
X66298478Y-51949500D01*
X66269037Y-51940855D01*
X66239051Y-51934332D01*
X66234035Y-51930577D01*
X66231439Y-51929815D01*
X66210797Y-51913181D01*
X66073297Y-51775681D01*
X66039812Y-51714358D01*
X66044796Y-51644666D01*
X66086668Y-51588733D01*
X66152132Y-51564316D01*
X66160978Y-51564000D01*
X67715022Y-51564000D01*
X67782061Y-51583685D01*
X67802703Y-51600319D01*
X69663181Y-53460797D01*
X69696666Y-53522120D01*
X69699500Y-53548478D01*
X69699500Y-53578846D01*
X69730261Y-53733489D01*
X69730264Y-53733501D01*
X69790602Y-53879172D01*
X69790609Y-53879185D01*
X69878210Y-54010288D01*
X69878213Y-54010292D01*
X69989707Y-54121786D01*
X69989711Y-54121789D01*
X70120814Y-54209390D01*
X70120827Y-54209397D01*
X70256450Y-54265573D01*
X70266503Y-54269737D01*
X70386736Y-54293653D01*
X70421153Y-54300499D01*
X70421156Y-54300500D01*
X70421158Y-54300500D01*
X70578843Y-54300500D01*
X70595304Y-54297225D01*
X70644568Y-54287426D01*
X70714158Y-54293653D01*
X70769336Y-54336515D01*
X70783320Y-54361589D01*
X70790606Y-54379179D01*
X70790609Y-54379185D01*
X70878210Y-54510288D01*
X70878213Y-54510292D01*
X70989707Y-54621786D01*
X70989711Y-54621789D01*
X71120814Y-54709390D01*
X71120827Y-54709397D01*
X71221994Y-54751301D01*
X71266503Y-54769737D01*
X71418157Y-54799903D01*
X71421153Y-54800499D01*
X71421156Y-54800500D01*
X71421158Y-54800500D01*
X71578844Y-54800500D01*
X71578845Y-54800499D01*
X71733497Y-54769737D01*
X71879179Y-54709394D01*
X72010289Y-54621789D01*
X72121789Y-54510289D01*
X72209394Y-54379179D01*
X72269737Y-54233497D01*
X72300500Y-54078842D01*
X72300500Y-53921158D01*
X72300500Y-53921155D01*
X72300499Y-53921153D01*
X72294756Y-53892280D01*
X72269737Y-53766503D01*
X72256062Y-53733489D01*
X72209397Y-53620827D01*
X72209390Y-53620814D01*
X72121789Y-53489711D01*
X72121786Y-53489707D01*
X72100319Y-53468240D01*
X72066834Y-53406917D01*
X72064000Y-53380559D01*
X72064000Y-51160978D01*
X72083685Y-51093939D01*
X72136489Y-51048184D01*
X72205647Y-51038240D01*
X72269203Y-51067265D01*
X72275681Y-51073297D01*
X80544346Y-59341962D01*
X80544356Y-59341973D01*
X80548686Y-59346303D01*
X80548687Y-59346304D01*
X80653696Y-59451313D01*
X80728886Y-59494724D01*
X80766335Y-59516346D01*
X80782303Y-59525565D01*
X80925747Y-59564000D01*
X80925748Y-59564000D01*
X106051187Y-59564000D01*
X106118226Y-59583685D01*
X106163981Y-59636489D01*
X106173925Y-59705647D01*
X106144900Y-59769203D01*
X106120078Y-59791102D01*
X105989711Y-59878210D01*
X105989707Y-59878213D01*
X105878213Y-59989707D01*
X105878210Y-59989711D01*
X105790609Y-60120814D01*
X105790602Y-60120827D01*
X105730264Y-60266498D01*
X105730261Y-60266510D01*
X105716401Y-60336191D01*
X105684017Y-60398102D01*
X105623301Y-60432676D01*
X105594784Y-60436000D01*
X60325747Y-60436000D01*
X60182304Y-60474435D01*
X60182301Y-60474436D01*
X60053699Y-60548685D01*
X60053693Y-60548689D01*
X59948685Y-60653698D01*
X57639201Y-62963181D01*
X57577878Y-62996666D01*
X57551520Y-62999500D01*
X56352129Y-62999500D01*
X56352123Y-62999501D01*
X56292516Y-63005908D01*
X56157671Y-63056202D01*
X56157664Y-63056206D01*
X56042455Y-63142452D01*
X56042452Y-63142455D01*
X55956206Y-63257664D01*
X55956202Y-63257671D01*
X55905908Y-63392517D01*
X55899501Y-63452116D01*
X55899500Y-63452135D01*
X55899500Y-65047870D01*
X55899501Y-65047876D01*
X55905908Y-65107483D01*
X55956202Y-65242328D01*
X55956206Y-65242335D01*
X56042452Y-65357544D01*
X56042455Y-65357547D01*
X56157664Y-65443793D01*
X56157671Y-65443797D01*
X56292517Y-65494091D01*
X56292516Y-65494091D01*
X56299444Y-65494835D01*
X56352127Y-65500500D01*
X57947872Y-65500499D01*
X58007483Y-65494091D01*
X58142331Y-65443796D01*
X58257546Y-65357546D01*
X58343796Y-65242331D01*
X58394091Y-65107483D01*
X58400500Y-65047873D01*
X58400499Y-64984265D01*
X58420183Y-64917229D01*
X58472986Y-64871473D01*
X58542144Y-64861529D01*
X58605700Y-64890553D01*
X58624816Y-64911381D01*
X58723980Y-65047865D01*
X58736172Y-65064646D01*
X58875354Y-65203828D01*
X59034595Y-65319524D01*
X59097093Y-65351368D01*
X59209970Y-65408882D01*
X59209972Y-65408882D01*
X59209975Y-65408884D01*
X59310317Y-65441487D01*
X59397173Y-65469709D01*
X59591578Y-65500500D01*
X59591583Y-65500500D01*
X59788422Y-65500500D01*
X59982826Y-65469709D01*
X60062574Y-65443797D01*
X60170025Y-65408884D01*
X60345405Y-65319524D01*
X60504646Y-65203828D01*
X60643828Y-65064646D01*
X60759524Y-64905405D01*
X60848884Y-64730025D01*
X60849515Y-64728787D01*
X60897489Y-64677990D01*
X60965310Y-64661195D01*
X61031445Y-64683732D01*
X61070485Y-64728787D01*
X61160474Y-64905403D01*
X61171919Y-64921155D01*
X61276172Y-65064646D01*
X61415354Y-65203828D01*
X61574595Y-65319524D01*
X61637093Y-65351368D01*
X61749970Y-65408882D01*
X61749972Y-65408882D01*
X61749975Y-65408884D01*
X61850317Y-65441487D01*
X61937173Y-65469709D01*
X62131578Y-65500500D01*
X62131583Y-65500500D01*
X62328422Y-65500500D01*
X62522826Y-65469709D01*
X62602574Y-65443797D01*
X62710025Y-65408884D01*
X62885405Y-65319524D01*
X63044646Y-65203828D01*
X63183828Y-65064646D01*
X63299524Y-64905405D01*
X63388884Y-64730025D01*
X63389515Y-64728787D01*
X63437489Y-64677990D01*
X63505310Y-64661195D01*
X63571445Y-64683732D01*
X63610485Y-64728787D01*
X63700474Y-64905403D01*
X63711919Y-64921155D01*
X63816172Y-65064646D01*
X63955354Y-65203828D01*
X64114595Y-65319524D01*
X64177093Y-65351368D01*
X64289970Y-65408882D01*
X64289972Y-65408882D01*
X64289975Y-65408884D01*
X64390317Y-65441487D01*
X64477173Y-65469709D01*
X64671578Y-65500500D01*
X64671583Y-65500500D01*
X64868422Y-65500500D01*
X65062826Y-65469709D01*
X65142574Y-65443797D01*
X65250025Y-65408884D01*
X65425405Y-65319524D01*
X65584646Y-65203828D01*
X65723828Y-65064646D01*
X65839524Y-64905405D01*
X65928884Y-64730025D01*
X65929515Y-64728787D01*
X65977489Y-64677990D01*
X66045310Y-64661195D01*
X66111445Y-64683732D01*
X66150485Y-64728787D01*
X66240474Y-64905403D01*
X66251919Y-64921155D01*
X66356172Y-65064646D01*
X66495354Y-65203828D01*
X66654595Y-65319524D01*
X66717093Y-65351368D01*
X66829970Y-65408882D01*
X66829972Y-65408882D01*
X66829975Y-65408884D01*
X66930317Y-65441487D01*
X67017173Y-65469709D01*
X67211578Y-65500500D01*
X67211583Y-65500500D01*
X67408422Y-65500500D01*
X67602826Y-65469709D01*
X67682574Y-65443797D01*
X67790025Y-65408884D01*
X67965405Y-65319524D01*
X68124646Y-65203828D01*
X68263828Y-65064646D01*
X68379524Y-64905405D01*
X68468884Y-64730025D01*
X68469515Y-64728787D01*
X68517489Y-64677990D01*
X68585310Y-64661195D01*
X68651445Y-64683732D01*
X68690485Y-64728787D01*
X68780474Y-64905403D01*
X68791919Y-64921155D01*
X68896172Y-65064646D01*
X69035354Y-65203828D01*
X69194595Y-65319524D01*
X69257093Y-65351368D01*
X69369970Y-65408882D01*
X69369972Y-65408882D01*
X69369975Y-65408884D01*
X69470317Y-65441487D01*
X69557173Y-65469709D01*
X69751578Y-65500500D01*
X69751583Y-65500500D01*
X69948422Y-65500500D01*
X70142826Y-65469709D01*
X70222574Y-65443797D01*
X70330025Y-65408884D01*
X70505405Y-65319524D01*
X70664646Y-65203828D01*
X70803828Y-65064646D01*
X70919524Y-64905405D01*
X71008884Y-64730025D01*
X71069709Y-64542826D01*
X71072692Y-64523993D01*
X71100500Y-64348422D01*
X71100500Y-64151577D01*
X71069709Y-63957177D01*
X71069709Y-63957174D01*
X71065567Y-63944429D01*
X71063571Y-63874591D01*
X71099650Y-63814757D01*
X71159304Y-63784494D01*
X71233497Y-63769737D01*
X71360614Y-63717084D01*
X71379172Y-63709397D01*
X71379172Y-63709396D01*
X71379179Y-63709394D01*
X71510289Y-63621789D01*
X71510292Y-63621786D01*
X71531760Y-63600319D01*
X71593083Y-63566834D01*
X71619441Y-63564000D01*
X106625500Y-63564000D01*
X106692539Y-63583685D01*
X106738294Y-63636489D01*
X106749500Y-63688000D01*
X106749500Y-65047870D01*
X106749501Y-65047876D01*
X106755908Y-65107483D01*
X106806202Y-65242328D01*
X106806206Y-65242335D01*
X106892452Y-65357544D01*
X106892455Y-65357547D01*
X107007664Y-65443793D01*
X107007671Y-65443797D01*
X107142517Y-65494091D01*
X107142516Y-65494091D01*
X107149444Y-65494835D01*
X107202127Y-65500500D01*
X108797872Y-65500499D01*
X108857483Y-65494091D01*
X108992331Y-65443796D01*
X109107546Y-65357546D01*
X109193796Y-65242331D01*
X109244091Y-65107483D01*
X109250500Y-65047873D01*
X109250499Y-64984265D01*
X109270183Y-64917229D01*
X109322986Y-64871473D01*
X109392144Y-64861529D01*
X109455700Y-64890553D01*
X109474816Y-64911381D01*
X109573980Y-65047865D01*
X109586172Y-65064646D01*
X109725354Y-65203828D01*
X109884595Y-65319524D01*
X109947093Y-65351368D01*
X110059970Y-65408882D01*
X110059972Y-65408882D01*
X110059975Y-65408884D01*
X110160317Y-65441487D01*
X110247173Y-65469709D01*
X110441578Y-65500500D01*
X110441583Y-65500500D01*
X110638422Y-65500500D01*
X110832826Y-65469709D01*
X110912574Y-65443797D01*
X111020025Y-65408884D01*
X111195405Y-65319524D01*
X111354646Y-65203828D01*
X111493828Y-65064646D01*
X111609524Y-64905405D01*
X111698884Y-64730025D01*
X111699515Y-64728787D01*
X111747489Y-64677990D01*
X111815310Y-64661195D01*
X111881445Y-64683732D01*
X111920485Y-64728787D01*
X112010474Y-64905403D01*
X112021919Y-64921155D01*
X112126172Y-65064646D01*
X112265354Y-65203828D01*
X112424595Y-65319524D01*
X112487093Y-65351368D01*
X112599970Y-65408882D01*
X112599972Y-65408882D01*
X112599975Y-65408884D01*
X112700317Y-65441487D01*
X112787173Y-65469709D01*
X112981578Y-65500500D01*
X112981583Y-65500500D01*
X113178422Y-65500500D01*
X113372826Y-65469709D01*
X113452574Y-65443797D01*
X113560025Y-65408884D01*
X113735405Y-65319524D01*
X113894646Y-65203828D01*
X114033828Y-65064646D01*
X114149524Y-64905405D01*
X114238884Y-64730025D01*
X114239515Y-64728787D01*
X114287489Y-64677990D01*
X114355310Y-64661195D01*
X114421445Y-64683732D01*
X114460485Y-64728787D01*
X114550474Y-64905403D01*
X114561919Y-64921155D01*
X114666172Y-65064646D01*
X114805354Y-65203828D01*
X114964595Y-65319524D01*
X115027093Y-65351368D01*
X115139970Y-65408882D01*
X115139972Y-65408882D01*
X115139975Y-65408884D01*
X115240317Y-65441487D01*
X115327173Y-65469709D01*
X115521578Y-65500500D01*
X115521583Y-65500500D01*
X115718422Y-65500500D01*
X115912826Y-65469709D01*
X115924472Y-65465925D01*
X116100025Y-65408884D01*
X116158830Y-65378921D01*
X116227495Y-65366025D01*
X116292236Y-65392300D01*
X116318225Y-65420515D01*
X116378210Y-65510288D01*
X116378213Y-65510292D01*
X116489707Y-65621786D01*
X116489711Y-65621789D01*
X116620814Y-65709390D01*
X116620826Y-65709397D01*
X116745263Y-65760939D01*
X116799667Y-65804779D01*
X116821732Y-65871073D01*
X116804453Y-65938773D01*
X116753316Y-65986384D01*
X116697811Y-65999500D01*
X38302190Y-65999500D01*
X38235151Y-65979815D01*
X38189396Y-65927011D01*
X38179452Y-65857853D01*
X38208477Y-65794297D01*
X38254738Y-65760939D01*
X38379172Y-65709397D01*
X38379172Y-65709396D01*
X38379179Y-65709394D01*
X38510289Y-65621789D01*
X38621789Y-65510289D01*
X38709394Y-65379179D01*
X38709501Y-65378922D01*
X38762901Y-65250000D01*
X38769737Y-65233497D01*
X38800500Y-65078842D01*
X38800500Y-64921158D01*
X38800500Y-64921155D01*
X38800499Y-64921153D01*
X38798555Y-64911381D01*
X38769737Y-64766503D01*
X38739166Y-64692699D01*
X38731698Y-64623235D01*
X38739163Y-64597806D01*
X38769737Y-64523997D01*
X38800500Y-64369342D01*
X38800500Y-64211658D01*
X38800500Y-64211655D01*
X38800499Y-64211653D01*
X38788549Y-64151577D01*
X38769737Y-64057003D01*
X38755440Y-64022487D01*
X38709397Y-63911328D01*
X38709396Y-63911327D01*
X38709394Y-63911321D01*
X38646397Y-63817039D01*
X38640747Y-63798994D01*
X38630523Y-63783085D01*
X38626071Y-63752123D01*
X38625520Y-63750363D01*
X38625500Y-63748150D01*
X38625500Y-63542350D01*
X38645185Y-63475311D01*
X38646398Y-63473459D01*
X38660646Y-63452135D01*
X38709394Y-63379179D01*
X38769737Y-63233497D01*
X38800500Y-63078842D01*
X38800500Y-62921158D01*
X38800500Y-62921155D01*
X38800499Y-62921153D01*
X38787777Y-62857196D01*
X38769737Y-62766503D01*
X38715884Y-62636489D01*
X38709397Y-62620827D01*
X38709390Y-62620814D01*
X38621789Y-62489711D01*
X38621786Y-62489707D01*
X38510292Y-62378213D01*
X38510288Y-62378210D01*
X38379185Y-62290609D01*
X38379176Y-62290604D01*
X38306574Y-62260532D01*
X38252171Y-62216691D01*
X38239470Y-62193432D01*
X38209394Y-62120821D01*
X38209391Y-62120816D01*
X38209390Y-62120814D01*
X38121789Y-61989711D01*
X38121786Y-61989707D01*
X38010292Y-61878213D01*
X38010288Y-61878210D01*
X37879185Y-61790609D01*
X37879172Y-61790602D01*
X37733501Y-61730264D01*
X37733489Y-61730261D01*
X37578845Y-61699500D01*
X37578842Y-61699500D01*
X37421158Y-61699500D01*
X37421155Y-61699500D01*
X37266510Y-61730261D01*
X37266498Y-61730264D01*
X37120827Y-61790602D01*
X37120814Y-61790609D01*
X36989711Y-61878210D01*
X36989707Y-61878213D01*
X36878213Y-61989707D01*
X36878210Y-61989711D01*
X36790609Y-62120814D01*
X36790602Y-62120827D01*
X36730264Y-62266498D01*
X36730261Y-62266510D01*
X36699500Y-62421153D01*
X36699500Y-62578846D01*
X36730261Y-62733489D01*
X36730264Y-62733501D01*
X36790602Y-62879172D01*
X36790609Y-62879185D01*
X36878210Y-63010288D01*
X36878213Y-63010292D01*
X36989707Y-63121786D01*
X36989711Y-63121789D01*
X37120814Y-63209390D01*
X37120816Y-63209391D01*
X37120821Y-63209394D01*
X37193426Y-63239467D01*
X37212013Y-63254446D01*
X37233044Y-63265742D01*
X37241360Y-63278095D01*
X37247826Y-63283306D01*
X37254390Y-63293849D01*
X37257823Y-63300035D01*
X37290606Y-63379179D01*
X37356441Y-63477709D01*
X37358919Y-63482172D01*
X37365505Y-63511476D01*
X37374480Y-63540136D01*
X37374500Y-63542350D01*
X37374500Y-63748150D01*
X37354815Y-63815189D01*
X37353602Y-63817041D01*
X37290609Y-63911315D01*
X37290602Y-63911328D01*
X37230264Y-64056998D01*
X37230261Y-64057010D01*
X37199500Y-64211653D01*
X37199500Y-64369346D01*
X37230260Y-64523988D01*
X37230263Y-64523998D01*
X37260832Y-64597798D01*
X37268301Y-64667267D01*
X37260832Y-64692702D01*
X37230263Y-64766501D01*
X37230260Y-64766511D01*
X37199500Y-64921153D01*
X37199500Y-65078846D01*
X37230261Y-65233489D01*
X37230264Y-65233501D01*
X37290602Y-65379172D01*
X37290609Y-65379185D01*
X37378210Y-65510288D01*
X37378213Y-65510292D01*
X37489707Y-65621786D01*
X37489711Y-65621789D01*
X37620814Y-65709390D01*
X37620827Y-65709397D01*
X37745262Y-65760939D01*
X37799666Y-65804779D01*
X37821731Y-65871074D01*
X37804452Y-65938773D01*
X37753315Y-65986384D01*
X37697810Y-65999500D01*
X31861952Y-65999500D01*
X31794913Y-65979815D01*
X31749158Y-65927011D01*
X31739214Y-65857853D01*
X31747391Y-65828047D01*
X31768492Y-65777103D01*
X31768493Y-65777100D01*
X31773884Y-65750000D01*
X31021988Y-65750000D01*
X31039205Y-65740060D01*
X31095060Y-65684205D01*
X31134556Y-65615796D01*
X31155000Y-65539496D01*
X31155000Y-65460504D01*
X31134556Y-65384204D01*
X31095060Y-65315795D01*
X31039205Y-65259940D01*
X31021988Y-65250000D01*
X31773884Y-65250000D01*
X31773884Y-65249999D01*
X31768493Y-65222899D01*
X31768492Y-65222896D01*
X31696880Y-65050008D01*
X31696875Y-65049999D01*
X31592913Y-64894410D01*
X31592910Y-64894406D01*
X31460593Y-64762089D01*
X31460589Y-64762086D01*
X31305000Y-64658124D01*
X31304991Y-64658119D01*
X31132105Y-64586508D01*
X31132097Y-64586506D01*
X30948570Y-64550000D01*
X30555000Y-64550000D01*
X30555000Y-65200000D01*
X30055000Y-65200000D01*
X30055000Y-64644462D01*
X30074685Y-64577423D01*
X30098607Y-64550053D01*
X30107206Y-64542730D01*
X30163015Y-64510509D01*
X30265509Y-64408015D01*
X30337984Y-64282485D01*
X30375500Y-64142475D01*
X30375500Y-63997525D01*
X30337984Y-63857515D01*
X30314616Y-63817041D01*
X30265511Y-63731988D01*
X30265506Y-63731982D01*
X30163017Y-63629493D01*
X30163011Y-63629488D01*
X30037488Y-63557017D01*
X30037489Y-63557017D01*
X30026006Y-63553940D01*
X29897475Y-63519500D01*
X29752525Y-63519500D01*
X29623993Y-63553940D01*
X29612511Y-63557017D01*
X29486988Y-63629488D01*
X29486982Y-63629493D01*
X29384493Y-63731982D01*
X29384488Y-63731988D01*
X29312017Y-63857511D01*
X29312016Y-63857515D01*
X29274500Y-63997525D01*
X29274500Y-64142475D01*
X29293620Y-64213830D01*
X29312017Y-64282488D01*
X29384488Y-64408011D01*
X29384493Y-64408017D01*
X29406837Y-64430361D01*
X29440322Y-64491684D01*
X29435338Y-64561376D01*
X29393466Y-64617309D01*
X29366610Y-64632602D01*
X29305014Y-64658116D01*
X29304999Y-64658124D01*
X29149410Y-64762086D01*
X29149406Y-64762089D01*
X29017089Y-64894406D01*
X29017086Y-64894410D01*
X28913124Y-65049999D01*
X28913119Y-65050008D01*
X28841507Y-65222896D01*
X28841506Y-65222899D01*
X28836115Y-65249999D01*
X28836116Y-65250000D01*
X29588012Y-65250000D01*
X29570795Y-65259940D01*
X29514940Y-65315795D01*
X29475444Y-65384204D01*
X29455000Y-65460504D01*
X29455000Y-65539496D01*
X29475444Y-65615796D01*
X29514940Y-65684205D01*
X29570795Y-65740060D01*
X29588012Y-65750000D01*
X28836116Y-65750000D01*
X28841506Y-65777100D01*
X28841507Y-65777103D01*
X28862609Y-65828047D01*
X28870078Y-65897517D01*
X28838803Y-65959996D01*
X28778714Y-65995648D01*
X28748048Y-65999500D01*
X27541952Y-65999500D01*
X27474913Y-65979815D01*
X27429158Y-65927011D01*
X27419214Y-65857853D01*
X27427391Y-65828047D01*
X27448492Y-65777103D01*
X27448493Y-65777100D01*
X27453884Y-65750000D01*
X26701988Y-65750000D01*
X26719205Y-65740060D01*
X26775060Y-65684205D01*
X26814556Y-65615796D01*
X26835000Y-65539496D01*
X26835000Y-65460504D01*
X26814556Y-65384204D01*
X26775060Y-65315795D01*
X26719205Y-65259940D01*
X26701988Y-65250000D01*
X27453884Y-65250000D01*
X27453884Y-65249999D01*
X27448493Y-65222899D01*
X27448492Y-65222896D01*
X27376880Y-65050008D01*
X27376875Y-65049999D01*
X27272913Y-64894410D01*
X27272910Y-64894406D01*
X27140593Y-64762089D01*
X27140589Y-64762086D01*
X26985000Y-64658124D01*
X26984991Y-64658119D01*
X26812105Y-64586508D01*
X26812097Y-64586506D01*
X26628570Y-64550000D01*
X26385000Y-64550000D01*
X26385000Y-65200000D01*
X25885000Y-65200000D01*
X25885000Y-64550000D01*
X25641430Y-64550000D01*
X25457902Y-64586506D01*
X25457894Y-64586508D01*
X25285008Y-64658119D01*
X25284999Y-64658124D01*
X25129410Y-64762086D01*
X25129406Y-64762089D01*
X24997089Y-64894406D01*
X24997086Y-64894410D01*
X24893124Y-65049999D01*
X24893119Y-65050008D01*
X24821507Y-65222896D01*
X24821506Y-65222899D01*
X24816115Y-65249999D01*
X24816116Y-65250000D01*
X25568012Y-65250000D01*
X25550795Y-65259940D01*
X25494940Y-65315795D01*
X25455444Y-65384204D01*
X25435000Y-65460504D01*
X25435000Y-65539496D01*
X25455444Y-65615796D01*
X25494940Y-65684205D01*
X25550795Y-65740060D01*
X25568012Y-65750000D01*
X24816116Y-65750000D01*
X24821506Y-65777100D01*
X24821507Y-65777103D01*
X24842609Y-65828047D01*
X24850078Y-65897517D01*
X24818803Y-65959996D01*
X24758714Y-65995648D01*
X24728048Y-65999500D01*
X23624500Y-65999500D01*
X23557461Y-65979815D01*
X23511706Y-65927011D01*
X23500500Y-65875500D01*
X23500500Y-56609999D01*
X24816115Y-56609999D01*
X24816116Y-56610000D01*
X25568012Y-56610000D01*
X25550795Y-56619940D01*
X25494940Y-56675795D01*
X25455444Y-56744204D01*
X25435000Y-56820504D01*
X25435000Y-56899496D01*
X25455444Y-56975796D01*
X25494940Y-57044205D01*
X25550795Y-57100060D01*
X25568012Y-57110000D01*
X24816116Y-57110000D01*
X24821506Y-57137100D01*
X24821507Y-57137103D01*
X24893119Y-57309991D01*
X24893124Y-57310000D01*
X24997086Y-57465589D01*
X24997089Y-57465593D01*
X25129406Y-57597910D01*
X25129410Y-57597913D01*
X25284999Y-57701875D01*
X25285008Y-57701880D01*
X25457894Y-57773491D01*
X25457902Y-57773493D01*
X25641428Y-57809999D01*
X25641431Y-57810000D01*
X25885000Y-57810000D01*
X25885000Y-57160000D01*
X26385000Y-57160000D01*
X26385000Y-57810000D01*
X26628569Y-57810000D01*
X26628571Y-57809999D01*
X26812097Y-57773493D01*
X26812105Y-57773491D01*
X26984991Y-57701880D01*
X26985000Y-57701875D01*
X27140589Y-57597913D01*
X27140593Y-57597910D01*
X27272910Y-57465593D01*
X27272913Y-57465589D01*
X27376875Y-57310000D01*
X27376880Y-57309991D01*
X27448492Y-57137103D01*
X27448493Y-57137100D01*
X27453884Y-57110000D01*
X26701988Y-57110000D01*
X26719205Y-57100060D01*
X26775060Y-57044205D01*
X26814556Y-56975796D01*
X26835000Y-56899496D01*
X26835000Y-56820504D01*
X26814556Y-56744204D01*
X26775060Y-56675795D01*
X26719205Y-56619940D01*
X26701988Y-56610000D01*
X27453884Y-56610000D01*
X27453884Y-56609999D01*
X28836115Y-56609999D01*
X28836116Y-56610000D01*
X29588012Y-56610000D01*
X29570795Y-56619940D01*
X29514940Y-56675795D01*
X29475444Y-56744204D01*
X29455000Y-56820504D01*
X29455000Y-56899496D01*
X29475444Y-56975796D01*
X29514940Y-57044205D01*
X29570795Y-57100060D01*
X29588012Y-57110000D01*
X28836116Y-57110000D01*
X28841506Y-57137100D01*
X28841507Y-57137103D01*
X28913119Y-57309991D01*
X28913124Y-57310000D01*
X29017086Y-57465589D01*
X29017089Y-57465593D01*
X29149406Y-57597910D01*
X29149410Y-57597913D01*
X29304999Y-57701875D01*
X29305008Y-57701880D01*
X29366609Y-57727396D01*
X29421012Y-57771237D01*
X29443077Y-57837531D01*
X29425798Y-57905230D01*
X29406839Y-57929637D01*
X29384488Y-57951988D01*
X29312017Y-58077511D01*
X29312016Y-58077515D01*
X29274500Y-58217525D01*
X29274500Y-58362475D01*
X29308592Y-58489707D01*
X29312017Y-58502488D01*
X29384488Y-58628011D01*
X29384490Y-58628013D01*
X29384491Y-58628015D01*
X29486985Y-58730509D01*
X29486986Y-58730510D01*
X29486988Y-58730511D01*
X29612511Y-58802982D01*
X29612512Y-58802982D01*
X29612515Y-58802984D01*
X29752525Y-58840500D01*
X29752528Y-58840500D01*
X29897472Y-58840500D01*
X29897475Y-58840500D01*
X30037485Y-58802984D01*
X30163015Y-58730509D01*
X30265509Y-58628015D01*
X30337984Y-58502485D01*
X30375500Y-58362475D01*
X30375500Y-58217525D01*
X30337984Y-58077515D01*
X30287571Y-57990198D01*
X30265511Y-57951988D01*
X30265506Y-57951982D01*
X30163017Y-57849493D01*
X30163015Y-57849491D01*
X30117000Y-57822924D01*
X30068784Y-57772357D01*
X30055000Y-57715537D01*
X30055000Y-57160000D01*
X30555000Y-57160000D01*
X30555000Y-57810000D01*
X30948569Y-57810000D01*
X30948571Y-57809999D01*
X31132097Y-57773493D01*
X31132105Y-57773491D01*
X31194547Y-57747627D01*
X31264016Y-57740158D01*
X31326495Y-57771433D01*
X31362148Y-57831521D01*
X31366000Y-57862188D01*
X31366000Y-58810559D01*
X31346315Y-58877598D01*
X31329681Y-58898240D01*
X31308213Y-58919707D01*
X31308210Y-58919711D01*
X31220609Y-59050814D01*
X31220602Y-59050827D01*
X31160264Y-59196498D01*
X31160261Y-59196510D01*
X31129500Y-59351153D01*
X31129500Y-59508846D01*
X31160261Y-59663489D01*
X31160264Y-59663501D01*
X31220602Y-59809172D01*
X31220609Y-59809185D01*
X31308210Y-59940288D01*
X31308213Y-59940292D01*
X31419707Y-60051786D01*
X31419711Y-60051789D01*
X31550814Y-60139390D01*
X31550827Y-60139397D01*
X31696498Y-60199735D01*
X31696503Y-60199737D01*
X31806164Y-60221550D01*
X31851153Y-60230499D01*
X31851156Y-60230500D01*
X31851158Y-60230500D01*
X32008844Y-60230500D01*
X32008845Y-60230499D01*
X32163497Y-60199737D01*
X32309179Y-60139394D01*
X32440289Y-60051789D01*
X32551789Y-59940289D01*
X32639394Y-59809179D01*
X32641746Y-59803502D01*
X32684824Y-59699500D01*
X32699737Y-59663497D01*
X32730500Y-59508842D01*
X32730500Y-59351158D01*
X32730500Y-59351155D01*
X32730499Y-59351153D01*
X32701230Y-59204010D01*
X32699737Y-59196503D01*
X32670284Y-59125396D01*
X32639397Y-59050827D01*
X32639390Y-59050814D01*
X32551789Y-58919711D01*
X32551786Y-58919707D01*
X32530319Y-58898240D01*
X32496834Y-58836917D01*
X32494000Y-58810559D01*
X32494000Y-56689440D01*
X32513685Y-56622401D01*
X32530315Y-56601762D01*
X32551789Y-56580289D01*
X32639394Y-56449179D01*
X32699737Y-56303497D01*
X32730500Y-56148842D01*
X32730500Y-55991158D01*
X32730500Y-55991155D01*
X32730499Y-55991153D01*
X32722574Y-55951313D01*
X32699737Y-55836503D01*
X32680726Y-55790606D01*
X32639397Y-55690827D01*
X32639390Y-55690814D01*
X32551789Y-55559711D01*
X32551786Y-55559707D01*
X32440292Y-55448213D01*
X32440288Y-55448210D01*
X32309185Y-55360609D01*
X32309172Y-55360602D01*
X32163501Y-55300264D01*
X32163489Y-55300261D01*
X32008845Y-55269500D01*
X32008842Y-55269500D01*
X31851158Y-55269500D01*
X31851155Y-55269500D01*
X31696510Y-55300261D01*
X31696498Y-55300264D01*
X31550827Y-55360602D01*
X31550814Y-55360609D01*
X31419711Y-55448210D01*
X31419707Y-55448213D01*
X31308213Y-55559707D01*
X31308210Y-55559711D01*
X31220609Y-55690814D01*
X31220602Y-55690827D01*
X31160262Y-55836502D01*
X31159810Y-55837995D01*
X31159361Y-55838679D01*
X31157932Y-55842130D01*
X31157277Y-55841858D01*
X31121506Y-55896429D01*
X31057691Y-55924879D01*
X31016962Y-55923604D01*
X30948570Y-55910000D01*
X30555000Y-55910000D01*
X30555000Y-56560000D01*
X30055000Y-56560000D01*
X30055000Y-55910000D01*
X29661430Y-55910000D01*
X29477902Y-55946506D01*
X29477894Y-55946508D01*
X29305008Y-56018119D01*
X29304999Y-56018124D01*
X29149410Y-56122086D01*
X29149406Y-56122089D01*
X29017089Y-56254406D01*
X29017086Y-56254410D01*
X28913124Y-56409999D01*
X28913119Y-56410008D01*
X28841507Y-56582896D01*
X28841506Y-56582899D01*
X28836115Y-56609999D01*
X27453884Y-56609999D01*
X27448493Y-56582899D01*
X27448492Y-56582896D01*
X27376880Y-56410008D01*
X27376875Y-56409999D01*
X27272913Y-56254410D01*
X27272910Y-56254406D01*
X27140593Y-56122089D01*
X27140589Y-56122086D01*
X26985000Y-56018124D01*
X26984991Y-56018119D01*
X26812105Y-55946508D01*
X26812097Y-55946506D01*
X26628570Y-55910000D01*
X26385000Y-55910000D01*
X26385000Y-56560000D01*
X25885000Y-56560000D01*
X25885000Y-55910000D01*
X25641430Y-55910000D01*
X25457902Y-55946506D01*
X25457894Y-55946508D01*
X25285008Y-56018119D01*
X25284999Y-56018124D01*
X25129410Y-56122086D01*
X25129406Y-56122089D01*
X24997089Y-56254406D01*
X24997086Y-56254410D01*
X24893124Y-56409999D01*
X24893119Y-56410008D01*
X24821507Y-56582896D01*
X24821506Y-56582899D01*
X24816115Y-56609999D01*
X23500500Y-56609999D01*
X23500500Y-46197307D01*
X23520185Y-46130268D01*
X23536819Y-46109626D01*
X24226212Y-45420233D01*
X24237482Y-45462292D01*
X24309890Y-45587708D01*
X24412292Y-45690110D01*
X24537708Y-45762518D01*
X24579765Y-45773787D01*
X23880893Y-46472658D01*
X23963828Y-46532914D01*
X24174197Y-46640102D01*
X24398752Y-46713065D01*
X24398751Y-46713065D01*
X24631948Y-46750000D01*
X24868052Y-46750000D01*
X25101247Y-46713065D01*
X25325802Y-46640102D01*
X25536163Y-46532918D01*
X25536169Y-46532914D01*
X25619104Y-46472658D01*
X25619105Y-46472658D01*
X24920233Y-45773787D01*
X24962292Y-45762518D01*
X25087708Y-45690110D01*
X25190110Y-45587708D01*
X25262518Y-45462292D01*
X25273787Y-45420233D01*
X25972658Y-46119105D01*
X25972658Y-46119104D01*
X26032914Y-46036169D01*
X26032918Y-46036163D01*
X26140102Y-45825802D01*
X26213065Y-45601247D01*
X26250000Y-45368052D01*
X26250000Y-45131947D01*
X26213065Y-44898752D01*
X26140102Y-44674197D01*
X26032914Y-44463828D01*
X25972658Y-44380894D01*
X25972658Y-44380893D01*
X25273787Y-45079765D01*
X25262518Y-45037708D01*
X25190110Y-44912292D01*
X25087708Y-44809890D01*
X24962292Y-44737482D01*
X24920234Y-44726212D01*
X25619105Y-44027340D01*
X25619104Y-44027338D01*
X25536174Y-43967087D01*
X25325802Y-43859897D01*
X25101247Y-43786934D01*
X25101248Y-43786934D01*
X24868052Y-43750000D01*
X24631948Y-43750000D01*
X24398752Y-43786934D01*
X24174197Y-43859897D01*
X23963830Y-43967084D01*
X23880894Y-44027340D01*
X24579766Y-44726212D01*
X24537708Y-44737482D01*
X24412292Y-44809890D01*
X24309890Y-44912292D01*
X24237482Y-45037708D01*
X24226212Y-45079766D01*
X23536819Y-44390373D01*
X23522115Y-44363445D01*
X23505523Y-44337627D01*
X23504631Y-44331426D01*
X23503334Y-44329050D01*
X23500500Y-44302692D01*
X23500500Y-41921889D01*
X23520185Y-41854850D01*
X23572989Y-41809095D01*
X23642147Y-41799151D01*
X23705703Y-41828176D01*
X23712181Y-41834208D01*
X23772490Y-41894517D01*
X23963567Y-42033343D01*
X24062991Y-42084002D01*
X24174003Y-42140566D01*
X24174005Y-42140566D01*
X24174008Y-42140568D01*
X24251695Y-42165810D01*
X24398631Y-42213553D01*
X24631903Y-42250500D01*
X24631908Y-42250500D01*
X24868097Y-42250500D01*
X25101368Y-42213553D01*
X25161333Y-42194069D01*
X25325992Y-42140568D01*
X25536433Y-42033343D01*
X25727510Y-41894517D01*
X25894517Y-41727510D01*
X26033343Y-41536433D01*
X26140568Y-41325992D01*
X26213553Y-41101368D01*
X26230948Y-40991539D01*
X26250500Y-40868097D01*
X26250500Y-40631902D01*
X26213553Y-40398631D01*
X26154535Y-40216995D01*
X26140568Y-40174008D01*
X26140566Y-40174005D01*
X26140566Y-40174003D01*
X26033342Y-39963566D01*
X25894517Y-39772490D01*
X25834208Y-39712181D01*
X25800723Y-39650858D01*
X25805707Y-39581166D01*
X25847579Y-39525233D01*
X25913043Y-39500816D01*
X25921889Y-39500500D01*
X30078111Y-39500500D01*
X30145150Y-39520185D01*
G37*
G04 #@! TD.AperFunction*
G04 #@! TA.AperFunction,Conductor*
G36*
X71516177Y-39520185D02*
G01*
X71536819Y-39536819D01*
X81000000Y-49000000D01*
X96999998Y-49000000D01*
X97000000Y-49000000D01*
X101524586Y-44672135D01*
X131979500Y-44672135D01*
X131979500Y-46327870D01*
X131979501Y-46327876D01*
X131985908Y-46387483D01*
X132036202Y-46522328D01*
X132036206Y-46522335D01*
X132122452Y-46637544D01*
X132122455Y-46637547D01*
X132237664Y-46723793D01*
X132237671Y-46723797D01*
X132372517Y-46774091D01*
X132372516Y-46774091D01*
X132379444Y-46774835D01*
X132432127Y-46780500D01*
X134087872Y-46780499D01*
X134147483Y-46774091D01*
X134282331Y-46723796D01*
X134397546Y-46637546D01*
X134483796Y-46522331D01*
X134534091Y-46387483D01*
X134540500Y-46327873D01*
X134540499Y-44672128D01*
X134534091Y-44612517D01*
X134488287Y-44489711D01*
X134483797Y-44477671D01*
X134483793Y-44477664D01*
X134397547Y-44362455D01*
X134397544Y-44362452D01*
X134282335Y-44276206D01*
X134282328Y-44276202D01*
X134147482Y-44225908D01*
X134147483Y-44225908D01*
X134087883Y-44219501D01*
X134087881Y-44219500D01*
X134087873Y-44219500D01*
X134087864Y-44219500D01*
X132432129Y-44219500D01*
X132432123Y-44219501D01*
X132372516Y-44225908D01*
X132237671Y-44276202D01*
X132237664Y-44276206D01*
X132122455Y-44362452D01*
X132122452Y-44362455D01*
X132036206Y-44477664D01*
X132036202Y-44477671D01*
X131985908Y-44612517D01*
X131979501Y-44672116D01*
X131979501Y-44672123D01*
X131979500Y-44672135D01*
X101524586Y-44672135D01*
X105011982Y-41336365D01*
X106895340Y-39534892D01*
X106957392Y-39502778D01*
X106981052Y-39500500D01*
X132160030Y-39500500D01*
X132227069Y-39520185D01*
X132272824Y-39572989D01*
X132282768Y-39642147D01*
X132260348Y-39697384D01*
X132228988Y-39740547D01*
X132164818Y-39828870D01*
X132073312Y-40008460D01*
X132011030Y-40200147D01*
X131979500Y-40399216D01*
X131979500Y-40600783D01*
X132011030Y-40799852D01*
X132073312Y-40991539D01*
X132129275Y-41101372D01*
X132164818Y-41171129D01*
X132283289Y-41334190D01*
X132425810Y-41476711D01*
X132588871Y-41595182D01*
X132768458Y-41686686D01*
X132768460Y-41686687D01*
X132864303Y-41717828D01*
X132960149Y-41748970D01*
X133052348Y-41763572D01*
X133159217Y-41780500D01*
X133159222Y-41780500D01*
X133360783Y-41780500D01*
X133457289Y-41765214D01*
X133559851Y-41748970D01*
X133751542Y-41686686D01*
X133931129Y-41595182D01*
X134094190Y-41476711D01*
X134236711Y-41334190D01*
X134355182Y-41171129D01*
X134446686Y-40991542D01*
X134508970Y-40799851D01*
X134535570Y-40631908D01*
X134540500Y-40600783D01*
X134540500Y-40399216D01*
X134522156Y-40283408D01*
X134508970Y-40200149D01*
X134446686Y-40008458D01*
X134355182Y-39828871D01*
X134259651Y-39697385D01*
X134236172Y-39631579D01*
X134251997Y-39563525D01*
X134302103Y-39514830D01*
X134359970Y-39500500D01*
X154325500Y-39500500D01*
X154392539Y-39520185D01*
X154438294Y-39572989D01*
X154449500Y-39624500D01*
X154449500Y-56465264D01*
X154429815Y-56532303D01*
X154377011Y-56578058D01*
X154307853Y-56588002D01*
X154250014Y-56563640D01*
X154058126Y-56416400D01*
X153842376Y-56291837D01*
X153842361Y-56291830D01*
X153612207Y-56196498D01*
X153371561Y-56132017D01*
X153124575Y-56099501D01*
X153124570Y-56099500D01*
X153124565Y-56099500D01*
X152875435Y-56099500D01*
X152875429Y-56099500D01*
X152875424Y-56099501D01*
X152628438Y-56132017D01*
X152387792Y-56196498D01*
X152157638Y-56291830D01*
X152157623Y-56291837D01*
X151941873Y-56416400D01*
X151744225Y-56568060D01*
X151744218Y-56568066D01*
X151568066Y-56744218D01*
X151568060Y-56744225D01*
X151416400Y-56941873D01*
X151291837Y-57157623D01*
X151291830Y-57157638D01*
X151196498Y-57387792D01*
X151132017Y-57628438D01*
X151099501Y-57875424D01*
X151099500Y-57875441D01*
X151099500Y-58124558D01*
X151099501Y-58124575D01*
X151130957Y-58363511D01*
X151132018Y-58371565D01*
X151154611Y-58455882D01*
X151196498Y-58612207D01*
X151291830Y-58842361D01*
X151291837Y-58842376D01*
X151416400Y-59058126D01*
X151568060Y-59255774D01*
X151568066Y-59255781D01*
X151744218Y-59431933D01*
X151744225Y-59431939D01*
X151941873Y-59583599D01*
X152157623Y-59708162D01*
X152157638Y-59708169D01*
X152229826Y-59738070D01*
X152387793Y-59803502D01*
X152628435Y-59867982D01*
X152875435Y-59900500D01*
X152875442Y-59900500D01*
X153124558Y-59900500D01*
X153124565Y-59900500D01*
X153371565Y-59867982D01*
X153612207Y-59803502D01*
X153842373Y-59708164D01*
X154058127Y-59583599D01*
X154250014Y-59436358D01*
X154315183Y-59411165D01*
X154383628Y-59425203D01*
X154433617Y-59474017D01*
X154449500Y-59534735D01*
X154449500Y-65875500D01*
X154429815Y-65942539D01*
X154377011Y-65988294D01*
X154325500Y-65999500D01*
X151271905Y-65999500D01*
X151204866Y-65979815D01*
X151159111Y-65927011D01*
X151149167Y-65857853D01*
X151171586Y-65802615D01*
X151183343Y-65786433D01*
X151290568Y-65575992D01*
X151363553Y-65351368D01*
X151380823Y-65242328D01*
X151400500Y-65118097D01*
X151400500Y-64881902D01*
X151363553Y-64648631D01*
X151323057Y-64523998D01*
X151290568Y-64424008D01*
X151290566Y-64424005D01*
X151290566Y-64424003D01*
X151183477Y-64213830D01*
X151183343Y-64213567D01*
X151044517Y-64022490D01*
X150877510Y-63855483D01*
X150686433Y-63716657D01*
X150475996Y-63609433D01*
X150251368Y-63536446D01*
X150018097Y-63499500D01*
X150018092Y-63499500D01*
X149781908Y-63499500D01*
X149781903Y-63499500D01*
X149548631Y-63536446D01*
X149324003Y-63609433D01*
X149113566Y-63716657D01*
X149040510Y-63769736D01*
X148922490Y-63855483D01*
X148922488Y-63855485D01*
X148922487Y-63855485D01*
X148755485Y-64022487D01*
X148755485Y-64022488D01*
X148755483Y-64022490D01*
X148730408Y-64057003D01*
X148616657Y-64213566D01*
X148509433Y-64424003D01*
X148436446Y-64648631D01*
X148399500Y-64881902D01*
X148399500Y-65118097D01*
X148436446Y-65351368D01*
X148509433Y-65575996D01*
X148616656Y-65786432D01*
X148625930Y-65799196D01*
X148628412Y-65802613D01*
X148628414Y-65802615D01*
X148651893Y-65868422D01*
X148636067Y-65936476D01*
X148585961Y-65985170D01*
X148528095Y-65999500D01*
X146271286Y-65999500D01*
X146204247Y-65979815D01*
X146158492Y-65927011D01*
X146148548Y-65857853D01*
X146170969Y-65802613D01*
X146182914Y-65786172D01*
X146290102Y-65575802D01*
X146363065Y-65351247D01*
X146400000Y-65118052D01*
X146400000Y-64881947D01*
X146363065Y-64648752D01*
X146290102Y-64424197D01*
X146182914Y-64213828D01*
X146122658Y-64130894D01*
X146122658Y-64130893D01*
X145382962Y-64870589D01*
X145365925Y-64807007D01*
X145300099Y-64692993D01*
X145207007Y-64599901D01*
X145092993Y-64534075D01*
X145029409Y-64517037D01*
X145769105Y-63777340D01*
X145769104Y-63777338D01*
X145686174Y-63717087D01*
X145475802Y-63609897D01*
X145251247Y-63536934D01*
X145251248Y-63536934D01*
X145018052Y-63500000D01*
X144781948Y-63500000D01*
X144548752Y-63536934D01*
X144324197Y-63609897D01*
X144113830Y-63717084D01*
X144030894Y-63777340D01*
X144770591Y-64517037D01*
X144707007Y-64534075D01*
X144592993Y-64599901D01*
X144499901Y-64692993D01*
X144434075Y-64807007D01*
X144417037Y-64870591D01*
X143677340Y-64130894D01*
X143617084Y-64213830D01*
X143509897Y-64424197D01*
X143436934Y-64648752D01*
X143400000Y-64881947D01*
X143400000Y-65118052D01*
X143436934Y-65351247D01*
X143509897Y-65575802D01*
X143617085Y-65786172D01*
X143629031Y-65802613D01*
X143652512Y-65868419D01*
X143636687Y-65936473D01*
X143586582Y-65985169D01*
X143528714Y-65999500D01*
X124184451Y-65999500D01*
X124117412Y-65979815D01*
X124071657Y-65927011D01*
X124061713Y-65857853D01*
X124090738Y-65794297D01*
X124096770Y-65787819D01*
X126147671Y-63736918D01*
X129114852Y-60769737D01*
X132009148Y-57875441D01*
X139899500Y-57875441D01*
X139899500Y-58124558D01*
X139899501Y-58124575D01*
X139930957Y-58363511D01*
X139932018Y-58371565D01*
X139954611Y-58455882D01*
X139996498Y-58612207D01*
X140091830Y-58842361D01*
X140091837Y-58842376D01*
X140216400Y-59058126D01*
X140368060Y-59255774D01*
X140368066Y-59255781D01*
X140544218Y-59431933D01*
X140544225Y-59431939D01*
X140741873Y-59583599D01*
X140957623Y-59708162D01*
X140957638Y-59708169D01*
X141029826Y-59738070D01*
X141187793Y-59803502D01*
X141428435Y-59867982D01*
X141675435Y-59900500D01*
X141675442Y-59900500D01*
X141924558Y-59900500D01*
X141924565Y-59900500D01*
X142171565Y-59867982D01*
X142412207Y-59803502D01*
X142642373Y-59708164D01*
X142858127Y-59583599D01*
X143055776Y-59431938D01*
X143231938Y-59255776D01*
X143383599Y-59058127D01*
X143508164Y-58842373D01*
X143603502Y-58612207D01*
X143667982Y-58371565D01*
X143700500Y-58124565D01*
X143700500Y-57875435D01*
X143667982Y-57628435D01*
X143603502Y-57387793D01*
X143508164Y-57157627D01*
X143383599Y-56941873D01*
X143290470Y-56820504D01*
X143231939Y-56744225D01*
X143231933Y-56744218D01*
X143055781Y-56568066D01*
X143055774Y-56568060D01*
X142858126Y-56416400D01*
X142642376Y-56291837D01*
X142642361Y-56291830D01*
X142412207Y-56196498D01*
X142171561Y-56132017D01*
X141924575Y-56099501D01*
X141924570Y-56099500D01*
X141924565Y-56099500D01*
X141675435Y-56099500D01*
X141675429Y-56099500D01*
X141675424Y-56099501D01*
X141428438Y-56132017D01*
X141187792Y-56196498D01*
X140957638Y-56291830D01*
X140957623Y-56291837D01*
X140741873Y-56416400D01*
X140544225Y-56568060D01*
X140544218Y-56568066D01*
X140368066Y-56744218D01*
X140368060Y-56744225D01*
X140216400Y-56941873D01*
X140091837Y-57157623D01*
X140091830Y-57157638D01*
X139996498Y-57387792D01*
X139932017Y-57628438D01*
X139899501Y-57875424D01*
X139899500Y-57875441D01*
X132009148Y-57875441D01*
X138658729Y-51225860D01*
X138658733Y-51225858D01*
X138745858Y-51138733D01*
X138814311Y-51036286D01*
X138861463Y-50922452D01*
X138885500Y-50801606D01*
X138885500Y-50381902D01*
X143399500Y-50381902D01*
X143399500Y-50618097D01*
X143436446Y-50851368D01*
X143509433Y-51075996D01*
X143589392Y-51232923D01*
X143616657Y-51286433D01*
X143755483Y-51477510D01*
X143922490Y-51644517D01*
X144113567Y-51783343D01*
X144212991Y-51834002D01*
X144324003Y-51890566D01*
X144324005Y-51890566D01*
X144324008Y-51890568D01*
X144418139Y-51921153D01*
X144548631Y-51963553D01*
X144781903Y-52000500D01*
X144781908Y-52000500D01*
X145018097Y-52000500D01*
X145251368Y-51963553D01*
X145252870Y-51963065D01*
X145475992Y-51890568D01*
X145686433Y-51783343D01*
X145877510Y-51644517D01*
X146044517Y-51477510D01*
X146085385Y-51421259D01*
X146140711Y-51378596D01*
X146172543Y-51373902D01*
X146917037Y-50629408D01*
X146934075Y-50692993D01*
X146999901Y-50807007D01*
X147092993Y-50900099D01*
X147207007Y-50965925D01*
X147270589Y-50982962D01*
X146530893Y-51722658D01*
X146613828Y-51782914D01*
X146824197Y-51890102D01*
X147048752Y-51963065D01*
X147048751Y-51963065D01*
X147281948Y-52000000D01*
X147518052Y-52000000D01*
X147751247Y-51963065D01*
X147975802Y-51890102D01*
X148186171Y-51782914D01*
X148281857Y-51713394D01*
X148347663Y-51689914D01*
X148415717Y-51705739D01*
X148454009Y-51739400D01*
X148542455Y-51857547D01*
X148657664Y-51943793D01*
X148657671Y-51943797D01*
X148792517Y-51994091D01*
X148792516Y-51994091D01*
X148799444Y-51994835D01*
X148852127Y-52000500D01*
X150947872Y-52000499D01*
X151007483Y-51994091D01*
X151142331Y-51943796D01*
X151257546Y-51857546D01*
X151343796Y-51742331D01*
X151394091Y-51607483D01*
X151400500Y-51547873D01*
X151400499Y-49452128D01*
X151394091Y-49392517D01*
X151388755Y-49378211D01*
X151343797Y-49257671D01*
X151343793Y-49257664D01*
X151257547Y-49142455D01*
X151257544Y-49142452D01*
X151142335Y-49056206D01*
X151142328Y-49056202D01*
X151007482Y-49005908D01*
X151007483Y-49005908D01*
X150947883Y-48999501D01*
X150947881Y-48999500D01*
X150947873Y-48999500D01*
X150947864Y-48999500D01*
X148852129Y-48999500D01*
X148852123Y-48999501D01*
X148792516Y-49005908D01*
X148657671Y-49056202D01*
X148657664Y-49056206D01*
X148542455Y-49142452D01*
X148454009Y-49260599D01*
X148398075Y-49302469D01*
X148328383Y-49307453D01*
X148281858Y-49286605D01*
X148186174Y-49217087D01*
X147975802Y-49109897D01*
X147751247Y-49036934D01*
X147751248Y-49036934D01*
X147518052Y-49000000D01*
X147281948Y-49000000D01*
X147048752Y-49036934D01*
X146824197Y-49109897D01*
X146613830Y-49217084D01*
X146530894Y-49277340D01*
X147270591Y-50017037D01*
X147207007Y-50034075D01*
X147092993Y-50099901D01*
X146999901Y-50192993D01*
X146934075Y-50307007D01*
X146917037Y-50370590D01*
X146171809Y-49625363D01*
X146157862Y-49621577D01*
X146127052Y-49615105D01*
X146123361Y-49612214D01*
X146120824Y-49611526D01*
X146111673Y-49603060D01*
X146093680Y-49588968D01*
X146089264Y-49584079D01*
X146044517Y-49522490D01*
X145877510Y-49355483D01*
X145686433Y-49216657D01*
X145663730Y-49205089D01*
X145475996Y-49109433D01*
X145251368Y-49036446D01*
X145018097Y-48999500D01*
X145018092Y-48999500D01*
X144781908Y-48999500D01*
X144781903Y-48999500D01*
X144548631Y-49036446D01*
X144324003Y-49109433D01*
X144113566Y-49216657D01*
X144057119Y-49257669D01*
X143922490Y-49355483D01*
X143922488Y-49355485D01*
X143922487Y-49355485D01*
X143755485Y-49522487D01*
X143755485Y-49522488D01*
X143755483Y-49522490D01*
X143707184Y-49588968D01*
X143616657Y-49713566D01*
X143509433Y-49924003D01*
X143436446Y-50148631D01*
X143399500Y-50381902D01*
X138885500Y-50381902D01*
X138885500Y-44191514D01*
X138905185Y-44124475D01*
X138936615Y-44091196D01*
X139094190Y-43976711D01*
X139236711Y-43834190D01*
X139355182Y-43671129D01*
X139446686Y-43491542D01*
X139508970Y-43299851D01*
X139525214Y-43197289D01*
X139540500Y-43100783D01*
X139540500Y-42899216D01*
X139522156Y-42783408D01*
X139508970Y-42700149D01*
X139446686Y-42508458D01*
X139355182Y-42328871D01*
X139236711Y-42165810D01*
X139094190Y-42023289D01*
X138931129Y-41904818D01*
X138910906Y-41894514D01*
X138751539Y-41813312D01*
X138559852Y-41751030D01*
X138360783Y-41719500D01*
X138360778Y-41719500D01*
X138159222Y-41719500D01*
X138159217Y-41719500D01*
X137960147Y-41751030D01*
X137768460Y-41813312D01*
X137588870Y-41904818D01*
X137495838Y-41972410D01*
X137425810Y-42023289D01*
X137425808Y-42023291D01*
X137425807Y-42023291D01*
X137283291Y-42165807D01*
X137283291Y-42165808D01*
X137283289Y-42165810D01*
X137262758Y-42194069D01*
X137164818Y-42328870D01*
X137073312Y-42508460D01*
X137011030Y-42700147D01*
X136979500Y-42899216D01*
X136979500Y-43100783D01*
X137011030Y-43299852D01*
X137073312Y-43491539D01*
X137139400Y-43621244D01*
X137164818Y-43671129D01*
X137283289Y-43834190D01*
X137425810Y-43976711D01*
X137583385Y-44091196D01*
X137626051Y-44146526D01*
X137634500Y-44191514D01*
X137634500Y-50429548D01*
X137614815Y-50496587D01*
X137598181Y-50517229D01*
X136937181Y-51178229D01*
X136875858Y-51211714D01*
X136806166Y-51206730D01*
X136750233Y-51164858D01*
X136725816Y-51099394D01*
X136725500Y-51090548D01*
X136725500Y-45542350D01*
X136745185Y-45475311D01*
X136746398Y-45473459D01*
X136746809Y-45472843D01*
X136809394Y-45379179D01*
X136869737Y-45233497D01*
X136900500Y-45078842D01*
X136900500Y-44921158D01*
X136900500Y-44921155D01*
X136900499Y-44921153D01*
X136869738Y-44766510D01*
X136869737Y-44766503D01*
X136851837Y-44723288D01*
X136809397Y-44620827D01*
X136809390Y-44620814D01*
X136721789Y-44489711D01*
X136721786Y-44489707D01*
X136610292Y-44378213D01*
X136610288Y-44378210D01*
X136479185Y-44290609D01*
X136479172Y-44290602D01*
X136333501Y-44230264D01*
X136333489Y-44230261D01*
X136178845Y-44199500D01*
X136178842Y-44199500D01*
X136021158Y-44199500D01*
X136021155Y-44199500D01*
X135866510Y-44230261D01*
X135866498Y-44230264D01*
X135720827Y-44290602D01*
X135720814Y-44290609D01*
X135589711Y-44378210D01*
X135589707Y-44378213D01*
X135478213Y-44489707D01*
X135478210Y-44489711D01*
X135390609Y-44620814D01*
X135390602Y-44620827D01*
X135330264Y-44766498D01*
X135330261Y-44766510D01*
X135299500Y-44921153D01*
X135299500Y-45078846D01*
X135330261Y-45233489D01*
X135330264Y-45233501D01*
X135390602Y-45379172D01*
X135390609Y-45379184D01*
X135453602Y-45473459D01*
X135474480Y-45540136D01*
X135474500Y-45542350D01*
X135474500Y-51089547D01*
X135454815Y-51156586D01*
X135438181Y-51177228D01*
X124777229Y-61838181D01*
X124715906Y-61871666D01*
X124689548Y-61874500D01*
X123392784Y-61874500D01*
X123325745Y-61854815D01*
X123279990Y-61802011D01*
X123270046Y-61732853D01*
X123271167Y-61726308D01*
X123300500Y-61578844D01*
X123300500Y-61421155D01*
X123300499Y-61421153D01*
X123289033Y-61363511D01*
X123269737Y-61266503D01*
X123252264Y-61224319D01*
X123209397Y-61120827D01*
X123209390Y-61120814D01*
X123121789Y-60989711D01*
X123121786Y-60989707D01*
X123010292Y-60878213D01*
X123010288Y-60878210D01*
X122879185Y-60790609D01*
X122879172Y-60790602D01*
X122733501Y-60730264D01*
X122733489Y-60730261D01*
X122578845Y-60699500D01*
X122578842Y-60699500D01*
X122548478Y-60699500D01*
X122481439Y-60679815D01*
X122460797Y-60663181D01*
X120052528Y-58254912D01*
X120019043Y-58193589D01*
X120024027Y-58123897D01*
X120052526Y-58079551D01*
X120121789Y-58010289D01*
X120209394Y-57879179D01*
X120269737Y-57733497D01*
X120296707Y-57597913D01*
X120300500Y-57578845D01*
X120300500Y-57421155D01*
X120300499Y-57421153D01*
X120278387Y-57309991D01*
X120269737Y-57266503D01*
X120248779Y-57215906D01*
X120209397Y-57120827D01*
X120209390Y-57120814D01*
X120121789Y-56989711D01*
X120121786Y-56989707D01*
X120010292Y-56878213D01*
X120010288Y-56878210D01*
X119879185Y-56790609D01*
X119879172Y-56790602D01*
X119733501Y-56730264D01*
X119733489Y-56730261D01*
X119578845Y-56699500D01*
X119578842Y-56699500D01*
X119548478Y-56699500D01*
X119481439Y-56679815D01*
X119460797Y-56663181D01*
X118336819Y-55539203D01*
X118303334Y-55477880D01*
X118300500Y-55451522D01*
X118300500Y-55421155D01*
X118300499Y-55421153D01*
X118288455Y-55360606D01*
X118269737Y-55266503D01*
X118246080Y-55209390D01*
X118209397Y-55120827D01*
X118209390Y-55120814D01*
X118121789Y-54989711D01*
X118121786Y-54989707D01*
X118010292Y-54878213D01*
X118010288Y-54878210D01*
X117879185Y-54790609D01*
X117879172Y-54790602D01*
X117733501Y-54730264D01*
X117733489Y-54730261D01*
X117578845Y-54699500D01*
X117578842Y-54699500D01*
X117421158Y-54699500D01*
X117421155Y-54699500D01*
X117266510Y-54730261D01*
X117266503Y-54730263D01*
X117235451Y-54743125D01*
X117202814Y-54746633D01*
X117170353Y-54751301D01*
X117168265Y-54750347D01*
X117165982Y-54750593D01*
X117136639Y-54735904D01*
X117106797Y-54722276D01*
X117105555Y-54720344D01*
X117103503Y-54719317D01*
X117086757Y-54691094D01*
X117069023Y-54663498D01*
X117068587Y-54660469D01*
X117067851Y-54659228D01*
X117064000Y-54628563D01*
X117064000Y-54619440D01*
X117083685Y-54552401D01*
X117100315Y-54531762D01*
X117121789Y-54510289D01*
X117209394Y-54379179D01*
X117269737Y-54233497D01*
X117300500Y-54078842D01*
X117300500Y-53921158D01*
X117300500Y-53921155D01*
X117300499Y-53921153D01*
X117294756Y-53892280D01*
X117269737Y-53766503D01*
X117256062Y-53733489D01*
X117209397Y-53620827D01*
X117209390Y-53620814D01*
X117136716Y-53512050D01*
X117115838Y-53445372D01*
X117134323Y-53377992D01*
X117152133Y-53355482D01*
X120255878Y-50251736D01*
X120317199Y-50218253D01*
X120381875Y-50221488D01*
X120407174Y-50229709D01*
X120480077Y-50241255D01*
X120601578Y-50260500D01*
X120601583Y-50260500D01*
X120798422Y-50260500D01*
X120992826Y-50229709D01*
X121018124Y-50221489D01*
X121180025Y-50168884D01*
X121355405Y-50079524D01*
X121514646Y-49963828D01*
X121653828Y-49824646D01*
X121769524Y-49665405D01*
X121858884Y-49490025D01*
X121919709Y-49302826D01*
X121926862Y-49257664D01*
X121950500Y-49108422D01*
X121950500Y-48911577D01*
X121919709Y-48717173D01*
X121858882Y-48529970D01*
X121811743Y-48437455D01*
X121769524Y-48354595D01*
X121653828Y-48195354D01*
X121514646Y-48056172D01*
X121355405Y-47940476D01*
X121326498Y-47925747D01*
X121180029Y-47851117D01*
X120992826Y-47790290D01*
X120798422Y-47759500D01*
X120798417Y-47759500D01*
X120601583Y-47759500D01*
X120601578Y-47759500D01*
X120407173Y-47790290D01*
X120219970Y-47851117D01*
X120044594Y-47940476D01*
X119980764Y-47986852D01*
X119885354Y-48056172D01*
X119885352Y-48056174D01*
X119885351Y-48056174D01*
X119746174Y-48195351D01*
X119746174Y-48195352D01*
X119746172Y-48195354D01*
X119699865Y-48259090D01*
X119630476Y-48354594D01*
X119540485Y-48531213D01*
X119492511Y-48582009D01*
X119424690Y-48598804D01*
X119358555Y-48576267D01*
X119319515Y-48531213D01*
X119278804Y-48451313D01*
X119229524Y-48354595D01*
X119113828Y-48195354D01*
X118974646Y-48056172D01*
X118815405Y-47940476D01*
X118786498Y-47925747D01*
X118640029Y-47851117D01*
X118452826Y-47790290D01*
X118258422Y-47759500D01*
X118258417Y-47759500D01*
X118061583Y-47759500D01*
X118061578Y-47759500D01*
X117867173Y-47790290D01*
X117679970Y-47851117D01*
X117504594Y-47940476D01*
X117440764Y-47986852D01*
X117345354Y-48056172D01*
X117345352Y-48056174D01*
X117345351Y-48056174D01*
X117206174Y-48195351D01*
X117206174Y-48195352D01*
X117206172Y-48195354D01*
X117159865Y-48259090D01*
X117090476Y-48354594D01*
X117000485Y-48531213D01*
X116952511Y-48582009D01*
X116884690Y-48598804D01*
X116818555Y-48576267D01*
X116779515Y-48531213D01*
X116738804Y-48451313D01*
X116689524Y-48354595D01*
X116573828Y-48195354D01*
X116434646Y-48056172D01*
X116275405Y-47940476D01*
X116246498Y-47925747D01*
X116100029Y-47851117D01*
X115912826Y-47790290D01*
X115718422Y-47759500D01*
X115718417Y-47759500D01*
X115521583Y-47759500D01*
X115521578Y-47759500D01*
X115327173Y-47790290D01*
X115139970Y-47851117D01*
X114964590Y-47940478D01*
X114919085Y-47973540D01*
X114853279Y-47997020D01*
X114785225Y-47981194D01*
X114758519Y-47960903D01*
X113958383Y-47160767D01*
X113958381Y-47160764D01*
X113846306Y-47048689D01*
X113846304Y-47048687D01*
X113717696Y-46974435D01*
X113574253Y-46936000D01*
X113574252Y-46936000D01*
X112124252Y-46936000D01*
X111975747Y-46936000D01*
X111832303Y-46974435D01*
X111832300Y-46974436D01*
X111785229Y-47001612D01*
X111785229Y-47001613D01*
X111703699Y-47048685D01*
X111703696Y-47048687D01*
X111703693Y-47048689D01*
X111598685Y-47153698D01*
X110984122Y-47768260D01*
X110922799Y-47801745D01*
X110858122Y-47798510D01*
X110832826Y-47790290D01*
X110638422Y-47759500D01*
X110638417Y-47759500D01*
X110441583Y-47759500D01*
X110441578Y-47759500D01*
X110247173Y-47790290D01*
X110059970Y-47851117D01*
X109884594Y-47940476D01*
X109820764Y-47986852D01*
X109725354Y-48056172D01*
X109725352Y-48056174D01*
X109725351Y-48056174D01*
X109586174Y-48195351D01*
X109586174Y-48195352D01*
X109586172Y-48195354D01*
X109539865Y-48259090D01*
X109470476Y-48354594D01*
X109380485Y-48531213D01*
X109332511Y-48582009D01*
X109264690Y-48598804D01*
X109198555Y-48576267D01*
X109159515Y-48531213D01*
X109118804Y-48451313D01*
X109069524Y-48354595D01*
X108953828Y-48195354D01*
X108814646Y-48056172D01*
X108655405Y-47940476D01*
X108626498Y-47925747D01*
X108480029Y-47851117D01*
X108292826Y-47790290D01*
X108098422Y-47759500D01*
X108098417Y-47759500D01*
X107901583Y-47759500D01*
X107901578Y-47759500D01*
X107707173Y-47790290D01*
X107519970Y-47851117D01*
X107344594Y-47940476D01*
X107280764Y-47986852D01*
X107185354Y-48056172D01*
X107185352Y-48056174D01*
X107185351Y-48056174D01*
X107046174Y-48195351D01*
X107046174Y-48195352D01*
X107046172Y-48195354D01*
X106999865Y-48259090D01*
X106930476Y-48354594D01*
X106841117Y-48529970D01*
X106780290Y-48717173D01*
X106749500Y-48911577D01*
X106749500Y-49082351D01*
X106729815Y-49149390D01*
X106677011Y-49195145D01*
X106607853Y-49205089D01*
X106601310Y-49203969D01*
X106578842Y-49199500D01*
X106421158Y-49199500D01*
X106421155Y-49199500D01*
X106266510Y-49230261D01*
X106266498Y-49230264D01*
X106120827Y-49290602D01*
X106120814Y-49290609D01*
X105989711Y-49378210D01*
X105989707Y-49378213D01*
X105968240Y-49399681D01*
X105906917Y-49433166D01*
X105880559Y-49436000D01*
X77284978Y-49436000D01*
X77217939Y-49416315D01*
X77197297Y-49399681D01*
X72958383Y-45160767D01*
X72958381Y-45160764D01*
X72846306Y-45048689D01*
X72846304Y-45048687D01*
X72717698Y-44974436D01*
X72717697Y-44974435D01*
X72679029Y-44964074D01*
X72640363Y-44953714D01*
X72640362Y-44953713D01*
X72591966Y-44940746D01*
X72574253Y-44936000D01*
X72574252Y-44936000D01*
X60741865Y-44936000D01*
X60741849Y-44935999D01*
X60734253Y-44935999D01*
X60585748Y-44935999D01*
X60454063Y-44971284D01*
X60442300Y-44974436D01*
X60313699Y-45048684D01*
X60313693Y-45048689D01*
X57594122Y-47768260D01*
X57532799Y-47801745D01*
X57468122Y-47798510D01*
X57442826Y-47790290D01*
X57248422Y-47759500D01*
X57248417Y-47759500D01*
X57051583Y-47759500D01*
X57051578Y-47759500D01*
X56857173Y-47790290D01*
X56669970Y-47851117D01*
X56494594Y-47940476D01*
X56430764Y-47986852D01*
X56335354Y-48056172D01*
X56335352Y-48056174D01*
X56335351Y-48056174D01*
X56196174Y-48195351D01*
X56196174Y-48195352D01*
X56196172Y-48195354D01*
X56149865Y-48259090D01*
X56080476Y-48354594D01*
X55991117Y-48529970D01*
X55930290Y-48717173D01*
X55899500Y-48911577D01*
X55899500Y-49108422D01*
X55930290Y-49302826D01*
X55991117Y-49490029D01*
X56080475Y-49665403D01*
X56080476Y-49665405D01*
X56196172Y-49824646D01*
X56335354Y-49963828D01*
X56494595Y-50079524D01*
X56575645Y-50120821D01*
X56669970Y-50168882D01*
X56669972Y-50168882D01*
X56669975Y-50168884D01*
X56747487Y-50194069D01*
X56805162Y-50233507D01*
X56832360Y-50297866D01*
X56820445Y-50366712D01*
X56773201Y-50418188D01*
X56709168Y-50436000D01*
X55284979Y-50436000D01*
X55217940Y-50416315D01*
X55197298Y-50399681D01*
X54600319Y-49802702D01*
X54566834Y-49741379D01*
X54564000Y-49715021D01*
X54564000Y-44425750D01*
X54564000Y-44425748D01*
X54525565Y-44282304D01*
X54451313Y-44153696D01*
X54346304Y-44048687D01*
X54346303Y-44048686D01*
X54341973Y-44044356D01*
X54341962Y-44044346D01*
X51690140Y-41392524D01*
X51656655Y-41331201D01*
X51659890Y-41266524D01*
X51713553Y-41101368D01*
X51750500Y-40868097D01*
X51750500Y-40631902D01*
X51713553Y-40398631D01*
X51654535Y-40216995D01*
X51640568Y-40174008D01*
X51640566Y-40174005D01*
X51640566Y-40174003D01*
X51533342Y-39963566D01*
X51394517Y-39772490D01*
X51334208Y-39712181D01*
X51300723Y-39650858D01*
X51305707Y-39581166D01*
X51347579Y-39525233D01*
X51413043Y-39500816D01*
X51421889Y-39500500D01*
X71449138Y-39500500D01*
X71516177Y-39520185D01*
G37*
G04 #@! TD.AperFunction*
M02*
