G04 #@! TF.GenerationSoftware,KiCad,Pcbnew,9.0.3*
G04 #@! TF.CreationDate,2025-09-30T21:03:45-04:00*
G04 #@! TF.ProjectId,shiftclock-2.0,73686966-7463-46c6-9f63-6b2d322e302e,rev?*
G04 #@! TF.SameCoordinates,Original*
G04 #@! TF.FileFunction,Paste,Bot*
G04 #@! TF.FilePolarity,Positive*
%FSLAX46Y46*%
G04 Gerber Fmt 4.6, Leading zero omitted, Abs format (unit mm)*
G04 Created by KiCad (PCBNEW 9.0.3) date 2025-09-30 21:03:45*
%MOMM*%
%LPD*%
G01*
G04 APERTURE LIST*
G04 Aperture macros list*
%AMRoundRect*
0 Rectangle with rounded corners*
0 $1 Rounding radius*
0 $2 $3 $4 $5 $6 $7 $8 $9 X,Y pos of 4 corners*
0 Add a 4 corners polygon primitive as box body*
4,1,4,$2,$3,$4,$5,$6,$7,$8,$9,$2,$3,0*
0 Add four circle primitives for the rounded corners*
1,1,$1+$1,$2,$3*
1,1,$1+$1,$4,$5*
1,1,$1+$1,$6,$7*
1,1,$1+$1,$8,$9*
0 Add four rect primitives between the rounded corners*
20,1,$1+$1,$2,$3,$4,$5,0*
20,1,$1+$1,$4,$5,$6,$7,0*
20,1,$1+$1,$6,$7,$8,$9,0*
20,1,$1+$1,$8,$9,$2,$3,0*%
G04 Aperture macros list end*
%ADD10RoundRect,0.250000X-0.625000X0.400000X-0.625000X-0.400000X0.625000X-0.400000X0.625000X0.400000X0*%
%ADD11R,2.500000X1.000000*%
%ADD12R,1.000000X1.800000*%
%ADD13RoundRect,0.250000X-0.650000X0.412500X-0.650000X-0.412500X0.650000X-0.412500X0.650000X0.412500X0*%
%ADD14RoundRect,0.250000X-1.500000X-0.550000X1.500000X-0.550000X1.500000X0.550000X-1.500000X0.550000X0*%
%ADD15R,1.160000X0.600000*%
%ADD16R,1.160000X0.300000*%
%ADD17RoundRect,0.150000X0.825000X0.150000X-0.825000X0.150000X-0.825000X-0.150000X0.825000X-0.150000X0*%
%ADD18RoundRect,0.250000X-0.400000X-0.625000X0.400000X-0.625000X0.400000X0.625000X-0.400000X0.625000X0*%
%ADD19RoundRect,0.250000X0.650000X-0.412500X0.650000X0.412500X-0.650000X0.412500X-0.650000X-0.412500X0*%
%ADD20RoundRect,0.250000X0.625000X-0.400000X0.625000X0.400000X-0.625000X0.400000X-0.625000X-0.400000X0*%
%ADD21R,1.250000X1.000000*%
%ADD22RoundRect,0.150000X-0.587500X-0.150000X0.587500X-0.150000X0.587500X0.150000X-0.587500X0.150000X0*%
%ADD23RoundRect,0.250000X-0.412500X-0.650000X0.412500X-0.650000X0.412500X0.650000X-0.412500X0.650000X0*%
%ADD24RoundRect,0.250000X0.400000X0.625000X-0.400000X0.625000X-0.400000X-0.625000X0.400000X-0.625000X0*%
%ADD25RoundRect,0.150000X-0.150000X0.875000X-0.150000X-0.875000X0.150000X-0.875000X0.150000X0.875000X0*%
%ADD26RoundRect,0.375000X0.625000X0.375000X-0.625000X0.375000X-0.625000X-0.375000X0.625000X-0.375000X0*%
%ADD27RoundRect,0.500000X0.500000X1.400000X-0.500000X1.400000X-0.500000X-1.400000X0.500000X-1.400000X0*%
%ADD28RoundRect,0.250000X0.412500X0.650000X-0.412500X0.650000X-0.412500X-0.650000X0.412500X-0.650000X0*%
%ADD29RoundRect,0.250000X0.400000X0.600000X-0.400000X0.600000X-0.400000X-0.600000X0.400000X-0.600000X0*%
G04 APERTURE END LIST*
D10*
X113000000Y-66950000D03*
X113000000Y-70050000D03*
D11*
X108100000Y-57000000D03*
X108100000Y-59000000D03*
X108100000Y-61000000D03*
X108100000Y-63000000D03*
X108100000Y-65000000D03*
X108100000Y-67000000D03*
X108100000Y-69000000D03*
X108100000Y-71000000D03*
D12*
X105500000Y-72500000D03*
X103500000Y-72500000D03*
X101500000Y-72500000D03*
X99500000Y-72500000D03*
X97500000Y-72500000D03*
X95500000Y-72500000D03*
D11*
X92900000Y-71000000D03*
X92900000Y-69000000D03*
X92900000Y-67000000D03*
X92900000Y-65000000D03*
X92900000Y-63000000D03*
X92900000Y-61000000D03*
X92900000Y-59000000D03*
X92900000Y-57000000D03*
D13*
X86000000Y-70437500D03*
X86000000Y-73562500D03*
D14*
X141800000Y-62000000D03*
X147200000Y-62000000D03*
D15*
X47385000Y-73200000D03*
X47385000Y-72400000D03*
D16*
X47385000Y-71250000D03*
X47385000Y-70250000D03*
X47385000Y-69750000D03*
X47385000Y-68750000D03*
D15*
X47385000Y-67600000D03*
X47385000Y-66800000D03*
X47385000Y-66800000D03*
X47385000Y-67600000D03*
D16*
X47385000Y-68250000D03*
X47385000Y-69250000D03*
X47385000Y-70750000D03*
X47385000Y-71750000D03*
D15*
X47385000Y-72400000D03*
X47385000Y-73200000D03*
D17*
X144975000Y-69595000D03*
X144975000Y-70865000D03*
X144975000Y-72135000D03*
X144975000Y-73405000D03*
X140025000Y-73405000D03*
X140025000Y-72135000D03*
X140025000Y-70865000D03*
X140025000Y-69595000D03*
D18*
X112450000Y-58000000D03*
X115550000Y-58000000D03*
D13*
X83500000Y-70437500D03*
X83500000Y-73562500D03*
D19*
X116000000Y-63562500D03*
X116000000Y-60437500D03*
D20*
X89000000Y-68050000D03*
X89000000Y-64950000D03*
D21*
X124375000Y-53000000D03*
X116625000Y-53000000D03*
D10*
X89000000Y-70950000D03*
X89000000Y-74050000D03*
D22*
X83500000Y-67950000D03*
X83500000Y-66050000D03*
X85375000Y-67000000D03*
D10*
X58000000Y-60450000D03*
X58000000Y-63550000D03*
X89000000Y-58950000D03*
X89000000Y-62050000D03*
D23*
X77937500Y-71000000D03*
X81062500Y-71000000D03*
D10*
X119000000Y-60450000D03*
X119000000Y-63550000D03*
D24*
X54550000Y-71000000D03*
X51450000Y-71000000D03*
D25*
X121515000Y-60850000D03*
X122785000Y-60850000D03*
X124055000Y-60850000D03*
X125325000Y-60850000D03*
X126595000Y-60850000D03*
X127865000Y-60850000D03*
X129135000Y-60850000D03*
X130405000Y-60850000D03*
X131675000Y-60850000D03*
X132945000Y-60850000D03*
X134215000Y-60850000D03*
X135485000Y-60850000D03*
X135485000Y-70150000D03*
X134215000Y-70150000D03*
X132945000Y-70150000D03*
X131675000Y-70150000D03*
X130405000Y-70150000D03*
X129135000Y-70150000D03*
X127865000Y-70150000D03*
X126595000Y-70150000D03*
X125325000Y-70150000D03*
X124055000Y-70150000D03*
X122785000Y-70150000D03*
X121515000Y-70150000D03*
D26*
X79150000Y-61200000D03*
X79150000Y-63500000D03*
D27*
X72850000Y-63500000D03*
D26*
X79150000Y-65800000D03*
D18*
X112450000Y-73500000D03*
X115550000Y-73500000D03*
D19*
X70000000Y-65062500D03*
X70000000Y-61937500D03*
D18*
X51450000Y-68500000D03*
X54550000Y-68500000D03*
D28*
X60562500Y-73000000D03*
X57437500Y-73000000D03*
D20*
X115500000Y-70050000D03*
X115500000Y-66950000D03*
D24*
X81050000Y-68500000D03*
X77950000Y-68500000D03*
D29*
X54750000Y-73500000D03*
X51250000Y-73500000D03*
D22*
X83437500Y-63000000D03*
X83437500Y-61100000D03*
X85312500Y-62050000D03*
D17*
X65975000Y-61555000D03*
X65975000Y-62825000D03*
X65975000Y-64095000D03*
X65975000Y-65365000D03*
X65975000Y-66635000D03*
X65975000Y-67905000D03*
X65975000Y-69175000D03*
X65975000Y-70445000D03*
X61025000Y-70445000D03*
X61025000Y-69175000D03*
X61025000Y-67905000D03*
X61025000Y-66635000D03*
X61025000Y-65365000D03*
X61025000Y-64095000D03*
X61025000Y-62825000D03*
X61025000Y-61555000D03*
D13*
X148500000Y-68437500D03*
X148500000Y-71562500D03*
M02*
