G04 #@! TF.GenerationSoftware,KiCad,Pcbnew,9.0.7*
G04 #@! TF.CreationDate,2026-03-11T11:46:53-04:00*
G04 #@! TF.ProjectId,shiftclock-5.0,73686966-7463-46c6-9f63-6b2d352e302e,rev?*
G04 #@! TF.SameCoordinates,Original*
G04 #@! TF.FileFunction,Legend,Bot*
G04 #@! TF.FilePolarity,Positive*
%FSLAX46Y46*%
G04 Gerber Fmt 4.6, Leading zero omitted, Abs format (unit mm)*
G04 Created by KiCad (PCBNEW 9.0.7) date 2026-03-11 11:46:53*
%MOMM*%
%LPD*%
G01*
G04 APERTURE LIST*
%ADD10C,0.150000*%
%ADD11C,0.125000*%
%ADD12C,0.120000*%
G04 APERTURE END LIST*
D10*
X32482268Y-46594295D02*
X32482268Y-47165723D01*
X32482268Y-47165723D02*
X32520363Y-47280009D01*
X32520363Y-47280009D02*
X32596554Y-47356200D01*
X32596554Y-47356200D02*
X32710839Y-47394295D01*
X32710839Y-47394295D02*
X32787030Y-47394295D01*
X31720363Y-47394295D02*
X32101315Y-47394295D01*
X32101315Y-47394295D02*
X32101315Y-46594295D01*
X30996553Y-47318104D02*
X31034649Y-47356200D01*
X31034649Y-47356200D02*
X31148934Y-47394295D01*
X31148934Y-47394295D02*
X31225125Y-47394295D01*
X31225125Y-47394295D02*
X31339411Y-47356200D01*
X31339411Y-47356200D02*
X31415601Y-47280009D01*
X31415601Y-47280009D02*
X31453696Y-47203819D01*
X31453696Y-47203819D02*
X31491792Y-47051438D01*
X31491792Y-47051438D02*
X31491792Y-46937152D01*
X31491792Y-46937152D02*
X31453696Y-46784771D01*
X31453696Y-46784771D02*
X31415601Y-46708580D01*
X31415601Y-46708580D02*
X31339411Y-46632390D01*
X31339411Y-46632390D02*
X31225125Y-46594295D01*
X31225125Y-46594295D02*
X31148934Y-46594295D01*
X31148934Y-46594295D02*
X31034649Y-46632390D01*
X31034649Y-46632390D02*
X30996553Y-46670485D01*
X30425125Y-46594295D02*
X30425125Y-47165723D01*
X30425125Y-47165723D02*
X30463220Y-47280009D01*
X30463220Y-47280009D02*
X30539411Y-47356200D01*
X30539411Y-47356200D02*
X30653696Y-47394295D01*
X30653696Y-47394295D02*
X30729887Y-47394295D01*
X29663220Y-47394295D02*
X30044172Y-47394295D01*
X30044172Y-47394295D02*
X30044172Y-46594295D01*
X28939410Y-47318104D02*
X28977506Y-47356200D01*
X28977506Y-47356200D02*
X29091791Y-47394295D01*
X29091791Y-47394295D02*
X29167982Y-47394295D01*
X29167982Y-47394295D02*
X29282268Y-47356200D01*
X29282268Y-47356200D02*
X29358458Y-47280009D01*
X29358458Y-47280009D02*
X29396553Y-47203819D01*
X29396553Y-47203819D02*
X29434649Y-47051438D01*
X29434649Y-47051438D02*
X29434649Y-46937152D01*
X29434649Y-46937152D02*
X29396553Y-46784771D01*
X29396553Y-46784771D02*
X29358458Y-46708580D01*
X29358458Y-46708580D02*
X29282268Y-46632390D01*
X29282268Y-46632390D02*
X29167982Y-46594295D01*
X29167982Y-46594295D02*
X29091791Y-46594295D01*
X29091791Y-46594295D02*
X28977506Y-46632390D01*
X28977506Y-46632390D02*
X28939410Y-46670485D01*
X28367982Y-46594295D02*
X28367982Y-47165723D01*
X28367982Y-47165723D02*
X28406077Y-47280009D01*
X28406077Y-47280009D02*
X28482268Y-47356200D01*
X28482268Y-47356200D02*
X28596553Y-47394295D01*
X28596553Y-47394295D02*
X28672744Y-47394295D01*
X27606077Y-47394295D02*
X27987029Y-47394295D01*
X27987029Y-47394295D02*
X27987029Y-46594295D01*
X26882267Y-47318104D02*
X26920363Y-47356200D01*
X26920363Y-47356200D02*
X27034648Y-47394295D01*
X27034648Y-47394295D02*
X27110839Y-47394295D01*
X27110839Y-47394295D02*
X27225125Y-47356200D01*
X27225125Y-47356200D02*
X27301315Y-47280009D01*
X27301315Y-47280009D02*
X27339410Y-47203819D01*
X27339410Y-47203819D02*
X27377506Y-47051438D01*
X27377506Y-47051438D02*
X27377506Y-46937152D01*
X27377506Y-46937152D02*
X27339410Y-46784771D01*
X27339410Y-46784771D02*
X27301315Y-46708580D01*
X27301315Y-46708580D02*
X27225125Y-46632390D01*
X27225125Y-46632390D02*
X27110839Y-46594295D01*
X27110839Y-46594295D02*
X27034648Y-46594295D01*
X27034648Y-46594295D02*
X26920363Y-46632390D01*
X26920363Y-46632390D02*
X26882267Y-46670485D01*
X26310839Y-46594295D02*
X26310839Y-47165723D01*
X26310839Y-47165723D02*
X26348934Y-47280009D01*
X26348934Y-47280009D02*
X26425125Y-47356200D01*
X26425125Y-47356200D02*
X26539410Y-47394295D01*
X26539410Y-47394295D02*
X26615601Y-47394295D01*
X25548934Y-47394295D02*
X25929886Y-47394295D01*
X25929886Y-47394295D02*
X25929886Y-46594295D01*
X24825124Y-47318104D02*
X24863220Y-47356200D01*
X24863220Y-47356200D02*
X24977505Y-47394295D01*
X24977505Y-47394295D02*
X25053696Y-47394295D01*
X25053696Y-47394295D02*
X25167982Y-47356200D01*
X25167982Y-47356200D02*
X25244172Y-47280009D01*
X25244172Y-47280009D02*
X25282267Y-47203819D01*
X25282267Y-47203819D02*
X25320363Y-47051438D01*
X25320363Y-47051438D02*
X25320363Y-46937152D01*
X25320363Y-46937152D02*
X25282267Y-46784771D01*
X25282267Y-46784771D02*
X25244172Y-46708580D01*
X25244172Y-46708580D02*
X25167982Y-46632390D01*
X25167982Y-46632390D02*
X25053696Y-46594295D01*
X25053696Y-46594295D02*
X24977505Y-46594295D01*
X24977505Y-46594295D02*
X24863220Y-46632390D01*
X24863220Y-46632390D02*
X24825124Y-46670485D01*
X103142857Y-53359580D02*
X103190476Y-53407200D01*
X103190476Y-53407200D02*
X103333333Y-53454819D01*
X103333333Y-53454819D02*
X103428571Y-53454819D01*
X103428571Y-53454819D02*
X103571428Y-53407200D01*
X103571428Y-53407200D02*
X103666666Y-53311961D01*
X103666666Y-53311961D02*
X103714285Y-53216723D01*
X103714285Y-53216723D02*
X103761904Y-53026247D01*
X103761904Y-53026247D02*
X103761904Y-52883390D01*
X103761904Y-52883390D02*
X103714285Y-52692914D01*
X103714285Y-52692914D02*
X103666666Y-52597676D01*
X103666666Y-52597676D02*
X103571428Y-52502438D01*
X103571428Y-52502438D02*
X103428571Y-52454819D01*
X103428571Y-52454819D02*
X103333333Y-52454819D01*
X103333333Y-52454819D02*
X103190476Y-52502438D01*
X103190476Y-52502438D02*
X103142857Y-52550057D01*
X102190476Y-53454819D02*
X102761904Y-53454819D01*
X102476190Y-53454819D02*
X102476190Y-52454819D01*
X102476190Y-52454819D02*
X102571428Y-52597676D01*
X102571428Y-52597676D02*
X102666666Y-52692914D01*
X102666666Y-52692914D02*
X102761904Y-52740533D01*
X101238095Y-53454819D02*
X101809523Y-53454819D01*
X101523809Y-53454819D02*
X101523809Y-52454819D01*
X101523809Y-52454819D02*
X101619047Y-52597676D01*
X101619047Y-52597676D02*
X101714285Y-52692914D01*
X101714285Y-52692914D02*
X101809523Y-52740533D01*
X70261904Y-49956819D02*
X69690476Y-49956819D01*
X69976190Y-50956819D02*
X69976190Y-49956819D01*
X69357142Y-50956819D02*
X69357142Y-49956819D01*
X69357142Y-49956819D02*
X68976190Y-49956819D01*
X68976190Y-49956819D02*
X68880952Y-50004438D01*
X68880952Y-50004438D02*
X68833333Y-50052057D01*
X68833333Y-50052057D02*
X68785714Y-50147295D01*
X68785714Y-50147295D02*
X68785714Y-50290152D01*
X68785714Y-50290152D02*
X68833333Y-50385390D01*
X68833333Y-50385390D02*
X68880952Y-50433009D01*
X68880952Y-50433009D02*
X68976190Y-50480628D01*
X68976190Y-50480628D02*
X69357142Y-50480628D01*
X68452380Y-49956819D02*
X67785714Y-49956819D01*
X67785714Y-49956819D02*
X68214285Y-50956819D01*
X62761904Y-50956819D02*
X62190476Y-50956819D01*
X62476190Y-51956819D02*
X62476190Y-50956819D01*
X61857142Y-51956819D02*
X61857142Y-50956819D01*
X61857142Y-50956819D02*
X61476190Y-50956819D01*
X61476190Y-50956819D02*
X61380952Y-51004438D01*
X61380952Y-51004438D02*
X61333333Y-51052057D01*
X61333333Y-51052057D02*
X61285714Y-51147295D01*
X61285714Y-51147295D02*
X61285714Y-51290152D01*
X61285714Y-51290152D02*
X61333333Y-51385390D01*
X61333333Y-51385390D02*
X61380952Y-51433009D01*
X61380952Y-51433009D02*
X61476190Y-51480628D01*
X61476190Y-51480628D02*
X61857142Y-51480628D01*
X60428571Y-50956819D02*
X60619047Y-50956819D01*
X60619047Y-50956819D02*
X60714285Y-51004438D01*
X60714285Y-51004438D02*
X60761904Y-51052057D01*
X60761904Y-51052057D02*
X60857142Y-51194914D01*
X60857142Y-51194914D02*
X60904761Y-51385390D01*
X60904761Y-51385390D02*
X60904761Y-51766342D01*
X60904761Y-51766342D02*
X60857142Y-51861580D01*
X60857142Y-51861580D02*
X60809523Y-51909200D01*
X60809523Y-51909200D02*
X60714285Y-51956819D01*
X60714285Y-51956819D02*
X60523809Y-51956819D01*
X60523809Y-51956819D02*
X60428571Y-51909200D01*
X60428571Y-51909200D02*
X60380952Y-51861580D01*
X60380952Y-51861580D02*
X60333333Y-51766342D01*
X60333333Y-51766342D02*
X60333333Y-51528247D01*
X60333333Y-51528247D02*
X60380952Y-51433009D01*
X60380952Y-51433009D02*
X60428571Y-51385390D01*
X60428571Y-51385390D02*
X60523809Y-51337771D01*
X60523809Y-51337771D02*
X60714285Y-51337771D01*
X60714285Y-51337771D02*
X60809523Y-51385390D01*
X60809523Y-51385390D02*
X60857142Y-51433009D01*
X60857142Y-51433009D02*
X60904761Y-51528247D01*
X78261904Y-60456819D02*
X77690476Y-60456819D01*
X77976190Y-61456819D02*
X77976190Y-60456819D01*
X77357142Y-61456819D02*
X77357142Y-60456819D01*
X77357142Y-60456819D02*
X76976190Y-60456819D01*
X76976190Y-60456819D02*
X76880952Y-60504438D01*
X76880952Y-60504438D02*
X76833333Y-60552057D01*
X76833333Y-60552057D02*
X76785714Y-60647295D01*
X76785714Y-60647295D02*
X76785714Y-60790152D01*
X76785714Y-60790152D02*
X76833333Y-60885390D01*
X76833333Y-60885390D02*
X76880952Y-60933009D01*
X76880952Y-60933009D02*
X76976190Y-60980628D01*
X76976190Y-60980628D02*
X77357142Y-60980628D01*
X75880952Y-60456819D02*
X76357142Y-60456819D01*
X76357142Y-60456819D02*
X76404761Y-60933009D01*
X76404761Y-60933009D02*
X76357142Y-60885390D01*
X76357142Y-60885390D02*
X76261904Y-60837771D01*
X76261904Y-60837771D02*
X76023809Y-60837771D01*
X76023809Y-60837771D02*
X75928571Y-60885390D01*
X75928571Y-60885390D02*
X75880952Y-60933009D01*
X75880952Y-60933009D02*
X75833333Y-61028247D01*
X75833333Y-61028247D02*
X75833333Y-61266342D01*
X75833333Y-61266342D02*
X75880952Y-61361580D01*
X75880952Y-61361580D02*
X75928571Y-61409200D01*
X75928571Y-61409200D02*
X76023809Y-61456819D01*
X76023809Y-61456819D02*
X76261904Y-61456819D01*
X76261904Y-61456819D02*
X76357142Y-61409200D01*
X76357142Y-61409200D02*
X76404761Y-61361580D01*
X54261904Y-46456819D02*
X53690476Y-46456819D01*
X53976190Y-47456819D02*
X53976190Y-46456819D01*
X53357142Y-47456819D02*
X53357142Y-46456819D01*
X53357142Y-46456819D02*
X52976190Y-46456819D01*
X52976190Y-46456819D02*
X52880952Y-46504438D01*
X52880952Y-46504438D02*
X52833333Y-46552057D01*
X52833333Y-46552057D02*
X52785714Y-46647295D01*
X52785714Y-46647295D02*
X52785714Y-46790152D01*
X52785714Y-46790152D02*
X52833333Y-46885390D01*
X52833333Y-46885390D02*
X52880952Y-46933009D01*
X52880952Y-46933009D02*
X52976190Y-46980628D01*
X52976190Y-46980628D02*
X53357142Y-46980628D01*
X51928571Y-46790152D02*
X51928571Y-47456819D01*
X52166666Y-46409200D02*
X52404761Y-47123485D01*
X52404761Y-47123485D02*
X51785714Y-47123485D01*
X38954819Y-62238095D02*
X38954819Y-62809523D01*
X39954819Y-62523809D02*
X38954819Y-62523809D01*
X39954819Y-63142857D02*
X38954819Y-63142857D01*
X38954819Y-63142857D02*
X38954819Y-63523809D01*
X38954819Y-63523809D02*
X39002438Y-63619047D01*
X39002438Y-63619047D02*
X39050057Y-63666666D01*
X39050057Y-63666666D02*
X39145295Y-63714285D01*
X39145295Y-63714285D02*
X39288152Y-63714285D01*
X39288152Y-63714285D02*
X39383390Y-63666666D01*
X39383390Y-63666666D02*
X39431009Y-63619047D01*
X39431009Y-63619047D02*
X39478628Y-63523809D01*
X39478628Y-63523809D02*
X39478628Y-63142857D01*
X38954819Y-64047619D02*
X38954819Y-64666666D01*
X38954819Y-64666666D02*
X39335771Y-64333333D01*
X39335771Y-64333333D02*
X39335771Y-64476190D01*
X39335771Y-64476190D02*
X39383390Y-64571428D01*
X39383390Y-64571428D02*
X39431009Y-64619047D01*
X39431009Y-64619047D02*
X39526247Y-64666666D01*
X39526247Y-64666666D02*
X39764342Y-64666666D01*
X39764342Y-64666666D02*
X39859580Y-64619047D01*
X39859580Y-64619047D02*
X39907200Y-64571428D01*
X39907200Y-64571428D02*
X39954819Y-64476190D01*
X39954819Y-64476190D02*
X39954819Y-64190476D01*
X39954819Y-64190476D02*
X39907200Y-64095238D01*
X39907200Y-64095238D02*
X39859580Y-64047619D01*
X51990573Y-60936430D02*
X51419145Y-60936430D01*
X51704859Y-61936430D02*
X51704859Y-60936430D01*
X51085811Y-61936430D02*
X51085811Y-60936430D01*
X51085811Y-60936430D02*
X50704859Y-60936430D01*
X50704859Y-60936430D02*
X50609621Y-60984049D01*
X50609621Y-60984049D02*
X50562002Y-61031668D01*
X50562002Y-61031668D02*
X50514383Y-61126906D01*
X50514383Y-61126906D02*
X50514383Y-61269763D01*
X50514383Y-61269763D02*
X50562002Y-61365001D01*
X50562002Y-61365001D02*
X50609621Y-61412620D01*
X50609621Y-61412620D02*
X50704859Y-61460239D01*
X50704859Y-61460239D02*
X51085811Y-61460239D01*
X50133430Y-61031668D02*
X50085811Y-60984049D01*
X50085811Y-60984049D02*
X49990573Y-60936430D01*
X49990573Y-60936430D02*
X49752478Y-60936430D01*
X49752478Y-60936430D02*
X49657240Y-60984049D01*
X49657240Y-60984049D02*
X49609621Y-61031668D01*
X49609621Y-61031668D02*
X49562002Y-61126906D01*
X49562002Y-61126906D02*
X49562002Y-61222144D01*
X49562002Y-61222144D02*
X49609621Y-61365001D01*
X49609621Y-61365001D02*
X50181049Y-61936430D01*
X50181049Y-61936430D02*
X49562002Y-61936430D01*
X46954819Y-63238095D02*
X46954819Y-63809523D01*
X47954819Y-63523809D02*
X46954819Y-63523809D01*
X47954819Y-64142857D02*
X46954819Y-64142857D01*
X46954819Y-64142857D02*
X46954819Y-64523809D01*
X46954819Y-64523809D02*
X47002438Y-64619047D01*
X47002438Y-64619047D02*
X47050057Y-64666666D01*
X47050057Y-64666666D02*
X47145295Y-64714285D01*
X47145295Y-64714285D02*
X47288152Y-64714285D01*
X47288152Y-64714285D02*
X47383390Y-64666666D01*
X47383390Y-64666666D02*
X47431009Y-64619047D01*
X47431009Y-64619047D02*
X47478628Y-64523809D01*
X47478628Y-64523809D02*
X47478628Y-64142857D01*
X47954819Y-65666666D02*
X47954819Y-65095238D01*
X47954819Y-65380952D02*
X46954819Y-65380952D01*
X46954819Y-65380952D02*
X47097676Y-65285714D01*
X47097676Y-65285714D02*
X47192914Y-65190476D01*
X47192914Y-65190476D02*
X47240533Y-65095238D01*
X102666666Y-64454819D02*
X102999999Y-63978628D01*
X103238094Y-64454819D02*
X103238094Y-63454819D01*
X103238094Y-63454819D02*
X102857142Y-63454819D01*
X102857142Y-63454819D02*
X102761904Y-63502438D01*
X102761904Y-63502438D02*
X102714285Y-63550057D01*
X102714285Y-63550057D02*
X102666666Y-63645295D01*
X102666666Y-63645295D02*
X102666666Y-63788152D01*
X102666666Y-63788152D02*
X102714285Y-63883390D01*
X102714285Y-63883390D02*
X102761904Y-63931009D01*
X102761904Y-63931009D02*
X102857142Y-63978628D01*
X102857142Y-63978628D02*
X103238094Y-63978628D01*
X102285713Y-63550057D02*
X102238094Y-63502438D01*
X102238094Y-63502438D02*
X102142856Y-63454819D01*
X102142856Y-63454819D02*
X101904761Y-63454819D01*
X101904761Y-63454819D02*
X101809523Y-63502438D01*
X101809523Y-63502438D02*
X101761904Y-63550057D01*
X101761904Y-63550057D02*
X101714285Y-63645295D01*
X101714285Y-63645295D02*
X101714285Y-63740533D01*
X101714285Y-63740533D02*
X101761904Y-63883390D01*
X101761904Y-63883390D02*
X102333332Y-64454819D01*
X102333332Y-64454819D02*
X101714285Y-64454819D01*
X113804819Y-56010595D02*
X114614342Y-56010595D01*
X114614342Y-56010595D02*
X114709580Y-56058214D01*
X114709580Y-56058214D02*
X114757200Y-56105833D01*
X114757200Y-56105833D02*
X114804819Y-56201071D01*
X114804819Y-56201071D02*
X114804819Y-56391547D01*
X114804819Y-56391547D02*
X114757200Y-56486785D01*
X114757200Y-56486785D02*
X114709580Y-56534404D01*
X114709580Y-56534404D02*
X114614342Y-56582023D01*
X114614342Y-56582023D02*
X113804819Y-56582023D01*
X113804819Y-56962976D02*
X113804819Y-57582023D01*
X113804819Y-57582023D02*
X114185771Y-57248690D01*
X114185771Y-57248690D02*
X114185771Y-57391547D01*
X114185771Y-57391547D02*
X114233390Y-57486785D01*
X114233390Y-57486785D02*
X114281009Y-57534404D01*
X114281009Y-57534404D02*
X114376247Y-57582023D01*
X114376247Y-57582023D02*
X114614342Y-57582023D01*
X114614342Y-57582023D02*
X114709580Y-57534404D01*
X114709580Y-57534404D02*
X114757200Y-57486785D01*
X114757200Y-57486785D02*
X114804819Y-57391547D01*
X114804819Y-57391547D02*
X114804819Y-57105833D01*
X114804819Y-57105833D02*
X114757200Y-57010595D01*
X114757200Y-57010595D02*
X114709580Y-56962976D01*
X129208332Y-52407200D02*
X129065475Y-52454819D01*
X129065475Y-52454819D02*
X128827380Y-52454819D01*
X128827380Y-52454819D02*
X128732142Y-52407200D01*
X128732142Y-52407200D02*
X128684523Y-52359580D01*
X128684523Y-52359580D02*
X128636904Y-52264342D01*
X128636904Y-52264342D02*
X128636904Y-52169104D01*
X128636904Y-52169104D02*
X128684523Y-52073866D01*
X128684523Y-52073866D02*
X128732142Y-52026247D01*
X128732142Y-52026247D02*
X128827380Y-51978628D01*
X128827380Y-51978628D02*
X129017856Y-51931009D01*
X129017856Y-51931009D02*
X129113094Y-51883390D01*
X129113094Y-51883390D02*
X129160713Y-51835771D01*
X129160713Y-51835771D02*
X129208332Y-51740533D01*
X129208332Y-51740533D02*
X129208332Y-51645295D01*
X129208332Y-51645295D02*
X129160713Y-51550057D01*
X129160713Y-51550057D02*
X129113094Y-51502438D01*
X129113094Y-51502438D02*
X129017856Y-51454819D01*
X129017856Y-51454819D02*
X128779761Y-51454819D01*
X128779761Y-51454819D02*
X128636904Y-51502438D01*
X128303570Y-51454819D02*
X128065475Y-52454819D01*
X128065475Y-52454819D02*
X127874999Y-51740533D01*
X127874999Y-51740533D02*
X127684523Y-52454819D01*
X127684523Y-52454819D02*
X127446428Y-51454819D01*
X126636904Y-51454819D02*
X126827380Y-51454819D01*
X126827380Y-51454819D02*
X126922618Y-51502438D01*
X126922618Y-51502438D02*
X126970237Y-51550057D01*
X126970237Y-51550057D02*
X127065475Y-51692914D01*
X127065475Y-51692914D02*
X127113094Y-51883390D01*
X127113094Y-51883390D02*
X127113094Y-52264342D01*
X127113094Y-52264342D02*
X127065475Y-52359580D01*
X127065475Y-52359580D02*
X127017856Y-52407200D01*
X127017856Y-52407200D02*
X126922618Y-52454819D01*
X126922618Y-52454819D02*
X126732142Y-52454819D01*
X126732142Y-52454819D02*
X126636904Y-52407200D01*
X126636904Y-52407200D02*
X126589285Y-52359580D01*
X126589285Y-52359580D02*
X126541666Y-52264342D01*
X126541666Y-52264342D02*
X126541666Y-52026247D01*
X126541666Y-52026247D02*
X126589285Y-51931009D01*
X126589285Y-51931009D02*
X126636904Y-51883390D01*
X126636904Y-51883390D02*
X126732142Y-51835771D01*
X126732142Y-51835771D02*
X126922618Y-51835771D01*
X126922618Y-51835771D02*
X127017856Y-51883390D01*
X127017856Y-51883390D02*
X127065475Y-51931009D01*
X127065475Y-51931009D02*
X127113094Y-52026247D01*
X142956666Y-56954819D02*
X143289999Y-56478628D01*
X143528094Y-56954819D02*
X143528094Y-55954819D01*
X143528094Y-55954819D02*
X143147142Y-55954819D01*
X143147142Y-55954819D02*
X143051904Y-56002438D01*
X143051904Y-56002438D02*
X143004285Y-56050057D01*
X143004285Y-56050057D02*
X142956666Y-56145295D01*
X142956666Y-56145295D02*
X142956666Y-56288152D01*
X142956666Y-56288152D02*
X143004285Y-56383390D01*
X143004285Y-56383390D02*
X143051904Y-56431009D01*
X143051904Y-56431009D02*
X143147142Y-56478628D01*
X143147142Y-56478628D02*
X143528094Y-56478628D01*
X142004285Y-56954819D02*
X142575713Y-56954819D01*
X142289999Y-56954819D02*
X142289999Y-55954819D01*
X142289999Y-55954819D02*
X142385237Y-56097676D01*
X142385237Y-56097676D02*
X142480475Y-56192914D01*
X142480475Y-56192914D02*
X142575713Y-56240533D01*
X57642857Y-62859580D02*
X57690476Y-62907200D01*
X57690476Y-62907200D02*
X57833333Y-62954819D01*
X57833333Y-62954819D02*
X57928571Y-62954819D01*
X57928571Y-62954819D02*
X58071428Y-62907200D01*
X58071428Y-62907200D02*
X58166666Y-62811961D01*
X58166666Y-62811961D02*
X58214285Y-62716723D01*
X58214285Y-62716723D02*
X58261904Y-62526247D01*
X58261904Y-62526247D02*
X58261904Y-62383390D01*
X58261904Y-62383390D02*
X58214285Y-62192914D01*
X58214285Y-62192914D02*
X58166666Y-62097676D01*
X58166666Y-62097676D02*
X58071428Y-62002438D01*
X58071428Y-62002438D02*
X57928571Y-61954819D01*
X57928571Y-61954819D02*
X57833333Y-61954819D01*
X57833333Y-61954819D02*
X57690476Y-62002438D01*
X57690476Y-62002438D02*
X57642857Y-62050057D01*
X56690476Y-62954819D02*
X57261904Y-62954819D01*
X56976190Y-62954819D02*
X56976190Y-61954819D01*
X56976190Y-61954819D02*
X57071428Y-62097676D01*
X57071428Y-62097676D02*
X57166666Y-62192914D01*
X57166666Y-62192914D02*
X57261904Y-62240533D01*
X56071428Y-61954819D02*
X55976190Y-61954819D01*
X55976190Y-61954819D02*
X55880952Y-62002438D01*
X55880952Y-62002438D02*
X55833333Y-62050057D01*
X55833333Y-62050057D02*
X55785714Y-62145295D01*
X55785714Y-62145295D02*
X55738095Y-62335771D01*
X55738095Y-62335771D02*
X55738095Y-62573866D01*
X55738095Y-62573866D02*
X55785714Y-62764342D01*
X55785714Y-62764342D02*
X55833333Y-62859580D01*
X55833333Y-62859580D02*
X55880952Y-62907200D01*
X55880952Y-62907200D02*
X55976190Y-62954819D01*
X55976190Y-62954819D02*
X56071428Y-62954819D01*
X56071428Y-62954819D02*
X56166666Y-62907200D01*
X56166666Y-62907200D02*
X56214285Y-62859580D01*
X56214285Y-62859580D02*
X56261904Y-62764342D01*
X56261904Y-62764342D02*
X56309523Y-62573866D01*
X56309523Y-62573866D02*
X56309523Y-62335771D01*
X56309523Y-62335771D02*
X56261904Y-62145295D01*
X56261904Y-62145295D02*
X56214285Y-62050057D01*
X56214285Y-62050057D02*
X56166666Y-62002438D01*
X56166666Y-62002438D02*
X56071428Y-61954819D01*
X73642857Y-53454819D02*
X73976190Y-52978628D01*
X74214285Y-53454819D02*
X74214285Y-52454819D01*
X74214285Y-52454819D02*
X73833333Y-52454819D01*
X73833333Y-52454819D02*
X73738095Y-52502438D01*
X73738095Y-52502438D02*
X73690476Y-52550057D01*
X73690476Y-52550057D02*
X73642857Y-52645295D01*
X73642857Y-52645295D02*
X73642857Y-52788152D01*
X73642857Y-52788152D02*
X73690476Y-52883390D01*
X73690476Y-52883390D02*
X73738095Y-52931009D01*
X73738095Y-52931009D02*
X73833333Y-52978628D01*
X73833333Y-52978628D02*
X74214285Y-52978628D01*
X72690476Y-53454819D02*
X73261904Y-53454819D01*
X72976190Y-53454819D02*
X72976190Y-52454819D01*
X72976190Y-52454819D02*
X73071428Y-52597676D01*
X73071428Y-52597676D02*
X73166666Y-52692914D01*
X73166666Y-52692914D02*
X73261904Y-52740533D01*
X72309523Y-52550057D02*
X72261904Y-52502438D01*
X72261904Y-52502438D02*
X72166666Y-52454819D01*
X72166666Y-52454819D02*
X71928571Y-52454819D01*
X71928571Y-52454819D02*
X71833333Y-52502438D01*
X71833333Y-52502438D02*
X71785714Y-52550057D01*
X71785714Y-52550057D02*
X71738095Y-52645295D01*
X71738095Y-52645295D02*
X71738095Y-52740533D01*
X71738095Y-52740533D02*
X71785714Y-52883390D01*
X71785714Y-52883390D02*
X72357142Y-53454819D01*
X72357142Y-53454819D02*
X71738095Y-53454819D01*
X129208332Y-57907200D02*
X129065475Y-57954819D01*
X129065475Y-57954819D02*
X128827380Y-57954819D01*
X128827380Y-57954819D02*
X128732142Y-57907200D01*
X128732142Y-57907200D02*
X128684523Y-57859580D01*
X128684523Y-57859580D02*
X128636904Y-57764342D01*
X128636904Y-57764342D02*
X128636904Y-57669104D01*
X128636904Y-57669104D02*
X128684523Y-57573866D01*
X128684523Y-57573866D02*
X128732142Y-57526247D01*
X128732142Y-57526247D02*
X128827380Y-57478628D01*
X128827380Y-57478628D02*
X129017856Y-57431009D01*
X129017856Y-57431009D02*
X129113094Y-57383390D01*
X129113094Y-57383390D02*
X129160713Y-57335771D01*
X129160713Y-57335771D02*
X129208332Y-57240533D01*
X129208332Y-57240533D02*
X129208332Y-57145295D01*
X129208332Y-57145295D02*
X129160713Y-57050057D01*
X129160713Y-57050057D02*
X129113094Y-57002438D01*
X129113094Y-57002438D02*
X129017856Y-56954819D01*
X129017856Y-56954819D02*
X128779761Y-56954819D01*
X128779761Y-56954819D02*
X128636904Y-57002438D01*
X128303570Y-56954819D02*
X128065475Y-57954819D01*
X128065475Y-57954819D02*
X127874999Y-57240533D01*
X127874999Y-57240533D02*
X127684523Y-57954819D01*
X127684523Y-57954819D02*
X127446428Y-56954819D01*
X127160713Y-56954819D02*
X126494047Y-56954819D01*
X126494047Y-56954819D02*
X126922618Y-57954819D01*
X54859580Y-54833333D02*
X54907200Y-54785714D01*
X54907200Y-54785714D02*
X54954819Y-54642857D01*
X54954819Y-54642857D02*
X54954819Y-54547619D01*
X54954819Y-54547619D02*
X54907200Y-54404762D01*
X54907200Y-54404762D02*
X54811961Y-54309524D01*
X54811961Y-54309524D02*
X54716723Y-54261905D01*
X54716723Y-54261905D02*
X54526247Y-54214286D01*
X54526247Y-54214286D02*
X54383390Y-54214286D01*
X54383390Y-54214286D02*
X54192914Y-54261905D01*
X54192914Y-54261905D02*
X54097676Y-54309524D01*
X54097676Y-54309524D02*
X54002438Y-54404762D01*
X54002438Y-54404762D02*
X53954819Y-54547619D01*
X53954819Y-54547619D02*
X53954819Y-54642857D01*
X53954819Y-54642857D02*
X54002438Y-54785714D01*
X54002438Y-54785714D02*
X54050057Y-54833333D01*
X54954819Y-55309524D02*
X54954819Y-55500000D01*
X54954819Y-55500000D02*
X54907200Y-55595238D01*
X54907200Y-55595238D02*
X54859580Y-55642857D01*
X54859580Y-55642857D02*
X54716723Y-55738095D01*
X54716723Y-55738095D02*
X54526247Y-55785714D01*
X54526247Y-55785714D02*
X54145295Y-55785714D01*
X54145295Y-55785714D02*
X54050057Y-55738095D01*
X54050057Y-55738095D02*
X54002438Y-55690476D01*
X54002438Y-55690476D02*
X53954819Y-55595238D01*
X53954819Y-55595238D02*
X53954819Y-55404762D01*
X53954819Y-55404762D02*
X54002438Y-55309524D01*
X54002438Y-55309524D02*
X54050057Y-55261905D01*
X54050057Y-55261905D02*
X54145295Y-55214286D01*
X54145295Y-55214286D02*
X54383390Y-55214286D01*
X54383390Y-55214286D02*
X54478628Y-55261905D01*
X54478628Y-55261905D02*
X54526247Y-55309524D01*
X54526247Y-55309524D02*
X54573866Y-55404762D01*
X54573866Y-55404762D02*
X54573866Y-55595238D01*
X54573866Y-55595238D02*
X54526247Y-55690476D01*
X54526247Y-55690476D02*
X54478628Y-55738095D01*
X54478628Y-55738095D02*
X54383390Y-55785714D01*
X50954819Y-57357142D02*
X50954819Y-56880952D01*
X50954819Y-56880952D02*
X49954819Y-56880952D01*
X50907200Y-57642857D02*
X50954819Y-57785714D01*
X50954819Y-57785714D02*
X50954819Y-58023809D01*
X50954819Y-58023809D02*
X50907200Y-58119047D01*
X50907200Y-58119047D02*
X50859580Y-58166666D01*
X50859580Y-58166666D02*
X50764342Y-58214285D01*
X50764342Y-58214285D02*
X50669104Y-58214285D01*
X50669104Y-58214285D02*
X50573866Y-58166666D01*
X50573866Y-58166666D02*
X50526247Y-58119047D01*
X50526247Y-58119047D02*
X50478628Y-58023809D01*
X50478628Y-58023809D02*
X50431009Y-57833333D01*
X50431009Y-57833333D02*
X50383390Y-57738095D01*
X50383390Y-57738095D02*
X50335771Y-57690476D01*
X50335771Y-57690476D02*
X50240533Y-57642857D01*
X50240533Y-57642857D02*
X50145295Y-57642857D01*
X50145295Y-57642857D02*
X50050057Y-57690476D01*
X50050057Y-57690476D02*
X50002438Y-57738095D01*
X50002438Y-57738095D02*
X49954819Y-57833333D01*
X49954819Y-57833333D02*
X49954819Y-58071428D01*
X49954819Y-58071428D02*
X50002438Y-58214285D01*
X50954819Y-59166666D02*
X50954819Y-58595238D01*
X50954819Y-58880952D02*
X49954819Y-58880952D01*
X49954819Y-58880952D02*
X50097676Y-58785714D01*
X50097676Y-58785714D02*
X50192914Y-58690476D01*
X50192914Y-58690476D02*
X50240533Y-58595238D01*
D11*
X35133332Y-60787404D02*
X35171428Y-60825500D01*
X35171428Y-60825500D02*
X35285713Y-60863595D01*
X35285713Y-60863595D02*
X35361904Y-60863595D01*
X35361904Y-60863595D02*
X35476190Y-60825500D01*
X35476190Y-60825500D02*
X35552380Y-60749309D01*
X35552380Y-60749309D02*
X35590475Y-60673119D01*
X35590475Y-60673119D02*
X35628571Y-60520738D01*
X35628571Y-60520738D02*
X35628571Y-60406452D01*
X35628571Y-60406452D02*
X35590475Y-60254071D01*
X35590475Y-60254071D02*
X35552380Y-60177880D01*
X35552380Y-60177880D02*
X35476190Y-60101690D01*
X35476190Y-60101690D02*
X35361904Y-60063595D01*
X35361904Y-60063595D02*
X35285713Y-60063595D01*
X35285713Y-60063595D02*
X35171428Y-60101690D01*
X35171428Y-60101690D02*
X35133332Y-60139785D01*
X34866666Y-60063595D02*
X34333332Y-60063595D01*
X34333332Y-60063595D02*
X34676190Y-60863595D01*
D10*
X59283333Y-54601009D02*
X59616666Y-54601009D01*
X59616666Y-55124819D02*
X59616666Y-54124819D01*
X59616666Y-54124819D02*
X59140476Y-54124819D01*
X58426190Y-54601009D02*
X58283333Y-54648628D01*
X58283333Y-54648628D02*
X58235714Y-54696247D01*
X58235714Y-54696247D02*
X58188095Y-54791485D01*
X58188095Y-54791485D02*
X58188095Y-54934342D01*
X58188095Y-54934342D02*
X58235714Y-55029580D01*
X58235714Y-55029580D02*
X58283333Y-55077200D01*
X58283333Y-55077200D02*
X58378571Y-55124819D01*
X58378571Y-55124819D02*
X58759523Y-55124819D01*
X58759523Y-55124819D02*
X58759523Y-54124819D01*
X58759523Y-54124819D02*
X58426190Y-54124819D01*
X58426190Y-54124819D02*
X58330952Y-54172438D01*
X58330952Y-54172438D02*
X58283333Y-54220057D01*
X58283333Y-54220057D02*
X58235714Y-54315295D01*
X58235714Y-54315295D02*
X58235714Y-54410533D01*
X58235714Y-54410533D02*
X58283333Y-54505771D01*
X58283333Y-54505771D02*
X58330952Y-54553390D01*
X58330952Y-54553390D02*
X58426190Y-54601009D01*
X58426190Y-54601009D02*
X58759523Y-54601009D01*
X57235714Y-55124819D02*
X57807142Y-55124819D01*
X57521428Y-55124819D02*
X57521428Y-54124819D01*
X57521428Y-54124819D02*
X57616666Y-54267676D01*
X57616666Y-54267676D02*
X57711904Y-54362914D01*
X57711904Y-54362914D02*
X57807142Y-54410533D01*
X27828333Y-60714819D02*
X27828333Y-61429104D01*
X27828333Y-61429104D02*
X27875952Y-61571961D01*
X27875952Y-61571961D02*
X27971190Y-61667200D01*
X27971190Y-61667200D02*
X28114047Y-61714819D01*
X28114047Y-61714819D02*
X28209285Y-61714819D01*
X26828333Y-61714819D02*
X27399761Y-61714819D01*
X27114047Y-61714819D02*
X27114047Y-60714819D01*
X27114047Y-60714819D02*
X27209285Y-60857676D01*
X27209285Y-60857676D02*
X27304523Y-60952914D01*
X27304523Y-60952914D02*
X27399761Y-61000533D01*
X35166666Y-55859580D02*
X35214285Y-55907200D01*
X35214285Y-55907200D02*
X35357142Y-55954819D01*
X35357142Y-55954819D02*
X35452380Y-55954819D01*
X35452380Y-55954819D02*
X35595237Y-55907200D01*
X35595237Y-55907200D02*
X35690475Y-55811961D01*
X35690475Y-55811961D02*
X35738094Y-55716723D01*
X35738094Y-55716723D02*
X35785713Y-55526247D01*
X35785713Y-55526247D02*
X35785713Y-55383390D01*
X35785713Y-55383390D02*
X35738094Y-55192914D01*
X35738094Y-55192914D02*
X35690475Y-55097676D01*
X35690475Y-55097676D02*
X35595237Y-55002438D01*
X35595237Y-55002438D02*
X35452380Y-54954819D01*
X35452380Y-54954819D02*
X35357142Y-54954819D01*
X35357142Y-54954819D02*
X35214285Y-55002438D01*
X35214285Y-55002438D02*
X35166666Y-55050057D01*
X34833332Y-54954819D02*
X34214285Y-54954819D01*
X34214285Y-54954819D02*
X34547618Y-55335771D01*
X34547618Y-55335771D02*
X34404761Y-55335771D01*
X34404761Y-55335771D02*
X34309523Y-55383390D01*
X34309523Y-55383390D02*
X34261904Y-55431009D01*
X34261904Y-55431009D02*
X34214285Y-55526247D01*
X34214285Y-55526247D02*
X34214285Y-55764342D01*
X34214285Y-55764342D02*
X34261904Y-55859580D01*
X34261904Y-55859580D02*
X34309523Y-55907200D01*
X34309523Y-55907200D02*
X34404761Y-55954819D01*
X34404761Y-55954819D02*
X34690475Y-55954819D01*
X34690475Y-55954819D02*
X34785713Y-55907200D01*
X34785713Y-55907200D02*
X34833332Y-55859580D01*
X35705357Y-50009580D02*
X35752976Y-50057200D01*
X35752976Y-50057200D02*
X35895833Y-50104819D01*
X35895833Y-50104819D02*
X35991071Y-50104819D01*
X35991071Y-50104819D02*
X36133928Y-50057200D01*
X36133928Y-50057200D02*
X36229166Y-49961961D01*
X36229166Y-49961961D02*
X36276785Y-49866723D01*
X36276785Y-49866723D02*
X36324404Y-49676247D01*
X36324404Y-49676247D02*
X36324404Y-49533390D01*
X36324404Y-49533390D02*
X36276785Y-49342914D01*
X36276785Y-49342914D02*
X36229166Y-49247676D01*
X36229166Y-49247676D02*
X36133928Y-49152438D01*
X36133928Y-49152438D02*
X35991071Y-49104819D01*
X35991071Y-49104819D02*
X35895833Y-49104819D01*
X35895833Y-49104819D02*
X35752976Y-49152438D01*
X35752976Y-49152438D02*
X35705357Y-49200057D01*
X34752976Y-50104819D02*
X35324404Y-50104819D01*
X35038690Y-50104819D02*
X35038690Y-49104819D01*
X35038690Y-49104819D02*
X35133928Y-49247676D01*
X35133928Y-49247676D02*
X35229166Y-49342914D01*
X35229166Y-49342914D02*
X35324404Y-49390533D01*
X34372023Y-49200057D02*
X34324404Y-49152438D01*
X34324404Y-49152438D02*
X34229166Y-49104819D01*
X34229166Y-49104819D02*
X33991071Y-49104819D01*
X33991071Y-49104819D02*
X33895833Y-49152438D01*
X33895833Y-49152438D02*
X33848214Y-49200057D01*
X33848214Y-49200057D02*
X33800595Y-49295295D01*
X33800595Y-49295295D02*
X33800595Y-49390533D01*
X33800595Y-49390533D02*
X33848214Y-49533390D01*
X33848214Y-49533390D02*
X34419642Y-50104819D01*
X34419642Y-50104819D02*
X33800595Y-50104819D01*
X91261904Y-58454819D02*
X91261904Y-59264342D01*
X91261904Y-59264342D02*
X91214285Y-59359580D01*
X91214285Y-59359580D02*
X91166666Y-59407200D01*
X91166666Y-59407200D02*
X91071428Y-59454819D01*
X91071428Y-59454819D02*
X90880952Y-59454819D01*
X90880952Y-59454819D02*
X90785714Y-59407200D01*
X90785714Y-59407200D02*
X90738095Y-59359580D01*
X90738095Y-59359580D02*
X90690476Y-59264342D01*
X90690476Y-59264342D02*
X90690476Y-58454819D01*
X89785714Y-58788152D02*
X89785714Y-59454819D01*
X90023809Y-58407200D02*
X90261904Y-59121485D01*
X90261904Y-59121485D02*
X89642857Y-59121485D01*
X100142857Y-53454819D02*
X100476190Y-52978628D01*
X100714285Y-53454819D02*
X100714285Y-52454819D01*
X100714285Y-52454819D02*
X100333333Y-52454819D01*
X100333333Y-52454819D02*
X100238095Y-52502438D01*
X100238095Y-52502438D02*
X100190476Y-52550057D01*
X100190476Y-52550057D02*
X100142857Y-52645295D01*
X100142857Y-52645295D02*
X100142857Y-52788152D01*
X100142857Y-52788152D02*
X100190476Y-52883390D01*
X100190476Y-52883390D02*
X100238095Y-52931009D01*
X100238095Y-52931009D02*
X100333333Y-52978628D01*
X100333333Y-52978628D02*
X100714285Y-52978628D01*
X99190476Y-53454819D02*
X99761904Y-53454819D01*
X99476190Y-53454819D02*
X99476190Y-52454819D01*
X99476190Y-52454819D02*
X99571428Y-52597676D01*
X99571428Y-52597676D02*
X99666666Y-52692914D01*
X99666666Y-52692914D02*
X99761904Y-52740533D01*
X98571428Y-52454819D02*
X98476190Y-52454819D01*
X98476190Y-52454819D02*
X98380952Y-52502438D01*
X98380952Y-52502438D02*
X98333333Y-52550057D01*
X98333333Y-52550057D02*
X98285714Y-52645295D01*
X98285714Y-52645295D02*
X98238095Y-52835771D01*
X98238095Y-52835771D02*
X98238095Y-53073866D01*
X98238095Y-53073866D02*
X98285714Y-53264342D01*
X98285714Y-53264342D02*
X98333333Y-53359580D01*
X98333333Y-53359580D02*
X98380952Y-53407200D01*
X98380952Y-53407200D02*
X98476190Y-53454819D01*
X98476190Y-53454819D02*
X98571428Y-53454819D01*
X98571428Y-53454819D02*
X98666666Y-53407200D01*
X98666666Y-53407200D02*
X98714285Y-53359580D01*
X98714285Y-53359580D02*
X98761904Y-53264342D01*
X98761904Y-53264342D02*
X98809523Y-53073866D01*
X98809523Y-53073866D02*
X98809523Y-52835771D01*
X98809523Y-52835771D02*
X98761904Y-52645295D01*
X98761904Y-52645295D02*
X98714285Y-52550057D01*
X98714285Y-52550057D02*
X98666666Y-52502438D01*
X98666666Y-52502438D02*
X98571428Y-52454819D01*
X67859580Y-57333333D02*
X67907200Y-57285714D01*
X67907200Y-57285714D02*
X67954819Y-57142857D01*
X67954819Y-57142857D02*
X67954819Y-57047619D01*
X67954819Y-57047619D02*
X67907200Y-56904762D01*
X67907200Y-56904762D02*
X67811961Y-56809524D01*
X67811961Y-56809524D02*
X67716723Y-56761905D01*
X67716723Y-56761905D02*
X67526247Y-56714286D01*
X67526247Y-56714286D02*
X67383390Y-56714286D01*
X67383390Y-56714286D02*
X67192914Y-56761905D01*
X67192914Y-56761905D02*
X67097676Y-56809524D01*
X67097676Y-56809524D02*
X67002438Y-56904762D01*
X67002438Y-56904762D02*
X66954819Y-57047619D01*
X66954819Y-57047619D02*
X66954819Y-57142857D01*
X66954819Y-57142857D02*
X67002438Y-57285714D01*
X67002438Y-57285714D02*
X67050057Y-57333333D01*
X66954819Y-58190476D02*
X66954819Y-58000000D01*
X66954819Y-58000000D02*
X67002438Y-57904762D01*
X67002438Y-57904762D02*
X67050057Y-57857143D01*
X67050057Y-57857143D02*
X67192914Y-57761905D01*
X67192914Y-57761905D02*
X67383390Y-57714286D01*
X67383390Y-57714286D02*
X67764342Y-57714286D01*
X67764342Y-57714286D02*
X67859580Y-57761905D01*
X67859580Y-57761905D02*
X67907200Y-57809524D01*
X67907200Y-57809524D02*
X67954819Y-57904762D01*
X67954819Y-57904762D02*
X67954819Y-58095238D01*
X67954819Y-58095238D02*
X67907200Y-58190476D01*
X67907200Y-58190476D02*
X67859580Y-58238095D01*
X67859580Y-58238095D02*
X67764342Y-58285714D01*
X67764342Y-58285714D02*
X67526247Y-58285714D01*
X67526247Y-58285714D02*
X67431009Y-58238095D01*
X67431009Y-58238095D02*
X67383390Y-58190476D01*
X67383390Y-58190476D02*
X67335771Y-58095238D01*
X67335771Y-58095238D02*
X67335771Y-57904762D01*
X67335771Y-57904762D02*
X67383390Y-57809524D01*
X67383390Y-57809524D02*
X67431009Y-57761905D01*
X67431009Y-57761905D02*
X67526247Y-57714286D01*
X73642857Y-64284819D02*
X73976190Y-63808628D01*
X74214285Y-64284819D02*
X74214285Y-63284819D01*
X74214285Y-63284819D02*
X73833333Y-63284819D01*
X73833333Y-63284819D02*
X73738095Y-63332438D01*
X73738095Y-63332438D02*
X73690476Y-63380057D01*
X73690476Y-63380057D02*
X73642857Y-63475295D01*
X73642857Y-63475295D02*
X73642857Y-63618152D01*
X73642857Y-63618152D02*
X73690476Y-63713390D01*
X73690476Y-63713390D02*
X73738095Y-63761009D01*
X73738095Y-63761009D02*
X73833333Y-63808628D01*
X73833333Y-63808628D02*
X74214285Y-63808628D01*
X72690476Y-64284819D02*
X73261904Y-64284819D01*
X72976190Y-64284819D02*
X72976190Y-63284819D01*
X72976190Y-63284819D02*
X73071428Y-63427676D01*
X73071428Y-63427676D02*
X73166666Y-63522914D01*
X73166666Y-63522914D02*
X73261904Y-63570533D01*
X72357142Y-63284819D02*
X71738095Y-63284819D01*
X71738095Y-63284819D02*
X72071428Y-63665771D01*
X72071428Y-63665771D02*
X71928571Y-63665771D01*
X71928571Y-63665771D02*
X71833333Y-63713390D01*
X71833333Y-63713390D02*
X71785714Y-63761009D01*
X71785714Y-63761009D02*
X71738095Y-63856247D01*
X71738095Y-63856247D02*
X71738095Y-64094342D01*
X71738095Y-64094342D02*
X71785714Y-64189580D01*
X71785714Y-64189580D02*
X71833333Y-64237200D01*
X71833333Y-64237200D02*
X71928571Y-64284819D01*
X71928571Y-64284819D02*
X72214285Y-64284819D01*
X72214285Y-64284819D02*
X72309523Y-64237200D01*
X72309523Y-64237200D02*
X72357142Y-64189580D01*
X35738094Y-58454819D02*
X35738094Y-57454819D01*
X35738094Y-57454819D02*
X35499999Y-57454819D01*
X35499999Y-57454819D02*
X35357142Y-57502438D01*
X35357142Y-57502438D02*
X35261904Y-57597676D01*
X35261904Y-57597676D02*
X35214285Y-57692914D01*
X35214285Y-57692914D02*
X35166666Y-57883390D01*
X35166666Y-57883390D02*
X35166666Y-58026247D01*
X35166666Y-58026247D02*
X35214285Y-58216723D01*
X35214285Y-58216723D02*
X35261904Y-58311961D01*
X35261904Y-58311961D02*
X35357142Y-58407200D01*
X35357142Y-58407200D02*
X35499999Y-58454819D01*
X35499999Y-58454819D02*
X35738094Y-58454819D01*
X34214285Y-58454819D02*
X34785713Y-58454819D01*
X34499999Y-58454819D02*
X34499999Y-57454819D01*
X34499999Y-57454819D02*
X34595237Y-57597676D01*
X34595237Y-57597676D02*
X34690475Y-57692914D01*
X34690475Y-57692914D02*
X34785713Y-57740533D01*
D11*
X35133332Y-64863595D02*
X35399999Y-64482642D01*
X35590475Y-64863595D02*
X35590475Y-64063595D01*
X35590475Y-64063595D02*
X35285713Y-64063595D01*
X35285713Y-64063595D02*
X35209523Y-64101690D01*
X35209523Y-64101690D02*
X35171428Y-64139785D01*
X35171428Y-64139785D02*
X35133332Y-64215976D01*
X35133332Y-64215976D02*
X35133332Y-64330261D01*
X35133332Y-64330261D02*
X35171428Y-64406452D01*
X35171428Y-64406452D02*
X35209523Y-64444547D01*
X35209523Y-64444547D02*
X35285713Y-64482642D01*
X35285713Y-64482642D02*
X35590475Y-64482642D01*
X34866666Y-64063595D02*
X34333332Y-64063595D01*
X34333332Y-64063595D02*
X34676190Y-64863595D01*
D10*
X29666666Y-54954819D02*
X29999999Y-54478628D01*
X30238094Y-54954819D02*
X30238094Y-53954819D01*
X30238094Y-53954819D02*
X29857142Y-53954819D01*
X29857142Y-53954819D02*
X29761904Y-54002438D01*
X29761904Y-54002438D02*
X29714285Y-54050057D01*
X29714285Y-54050057D02*
X29666666Y-54145295D01*
X29666666Y-54145295D02*
X29666666Y-54288152D01*
X29666666Y-54288152D02*
X29714285Y-54383390D01*
X29714285Y-54383390D02*
X29761904Y-54431009D01*
X29761904Y-54431009D02*
X29857142Y-54478628D01*
X29857142Y-54478628D02*
X30238094Y-54478628D01*
X29095237Y-54383390D02*
X29190475Y-54335771D01*
X29190475Y-54335771D02*
X29238094Y-54288152D01*
X29238094Y-54288152D02*
X29285713Y-54192914D01*
X29285713Y-54192914D02*
X29285713Y-54145295D01*
X29285713Y-54145295D02*
X29238094Y-54050057D01*
X29238094Y-54050057D02*
X29190475Y-54002438D01*
X29190475Y-54002438D02*
X29095237Y-53954819D01*
X29095237Y-53954819D02*
X28904761Y-53954819D01*
X28904761Y-53954819D02*
X28809523Y-54002438D01*
X28809523Y-54002438D02*
X28761904Y-54050057D01*
X28761904Y-54050057D02*
X28714285Y-54145295D01*
X28714285Y-54145295D02*
X28714285Y-54192914D01*
X28714285Y-54192914D02*
X28761904Y-54288152D01*
X28761904Y-54288152D02*
X28809523Y-54335771D01*
X28809523Y-54335771D02*
X28904761Y-54383390D01*
X28904761Y-54383390D02*
X29095237Y-54383390D01*
X29095237Y-54383390D02*
X29190475Y-54431009D01*
X29190475Y-54431009D02*
X29238094Y-54478628D01*
X29238094Y-54478628D02*
X29285713Y-54573866D01*
X29285713Y-54573866D02*
X29285713Y-54764342D01*
X29285713Y-54764342D02*
X29238094Y-54859580D01*
X29238094Y-54859580D02*
X29190475Y-54907200D01*
X29190475Y-54907200D02*
X29095237Y-54954819D01*
X29095237Y-54954819D02*
X28904761Y-54954819D01*
X28904761Y-54954819D02*
X28809523Y-54907200D01*
X28809523Y-54907200D02*
X28761904Y-54859580D01*
X28761904Y-54859580D02*
X28714285Y-54764342D01*
X28714285Y-54764342D02*
X28714285Y-54573866D01*
X28714285Y-54573866D02*
X28761904Y-54478628D01*
X28761904Y-54478628D02*
X28809523Y-54431009D01*
X28809523Y-54431009D02*
X28904761Y-54383390D01*
X63666666Y-61359580D02*
X63714285Y-61407200D01*
X63714285Y-61407200D02*
X63857142Y-61454819D01*
X63857142Y-61454819D02*
X63952380Y-61454819D01*
X63952380Y-61454819D02*
X64095237Y-61407200D01*
X64095237Y-61407200D02*
X64190475Y-61311961D01*
X64190475Y-61311961D02*
X64238094Y-61216723D01*
X64238094Y-61216723D02*
X64285713Y-61026247D01*
X64285713Y-61026247D02*
X64285713Y-60883390D01*
X64285713Y-60883390D02*
X64238094Y-60692914D01*
X64238094Y-60692914D02*
X64190475Y-60597676D01*
X64190475Y-60597676D02*
X64095237Y-60502438D01*
X64095237Y-60502438D02*
X63952380Y-60454819D01*
X63952380Y-60454819D02*
X63857142Y-60454819D01*
X63857142Y-60454819D02*
X63714285Y-60502438D01*
X63714285Y-60502438D02*
X63666666Y-60550057D01*
X62761904Y-60454819D02*
X63238094Y-60454819D01*
X63238094Y-60454819D02*
X63285713Y-60931009D01*
X63285713Y-60931009D02*
X63238094Y-60883390D01*
X63238094Y-60883390D02*
X63142856Y-60835771D01*
X63142856Y-60835771D02*
X62904761Y-60835771D01*
X62904761Y-60835771D02*
X62809523Y-60883390D01*
X62809523Y-60883390D02*
X62761904Y-60931009D01*
X62761904Y-60931009D02*
X62714285Y-61026247D01*
X62714285Y-61026247D02*
X62714285Y-61264342D01*
X62714285Y-61264342D02*
X62761904Y-61359580D01*
X62761904Y-61359580D02*
X62809523Y-61407200D01*
X62809523Y-61407200D02*
X62904761Y-61454819D01*
X62904761Y-61454819D02*
X63142856Y-61454819D01*
X63142856Y-61454819D02*
X63238094Y-61407200D01*
X63238094Y-61407200D02*
X63285713Y-61359580D01*
D11*
X47133332Y-60787404D02*
X47171428Y-60825500D01*
X47171428Y-60825500D02*
X47285713Y-60863595D01*
X47285713Y-60863595D02*
X47361904Y-60863595D01*
X47361904Y-60863595D02*
X47476190Y-60825500D01*
X47476190Y-60825500D02*
X47552380Y-60749309D01*
X47552380Y-60749309D02*
X47590475Y-60673119D01*
X47590475Y-60673119D02*
X47628571Y-60520738D01*
X47628571Y-60520738D02*
X47628571Y-60406452D01*
X47628571Y-60406452D02*
X47590475Y-60254071D01*
X47590475Y-60254071D02*
X47552380Y-60177880D01*
X47552380Y-60177880D02*
X47476190Y-60101690D01*
X47476190Y-60101690D02*
X47361904Y-60063595D01*
X47361904Y-60063595D02*
X47285713Y-60063595D01*
X47285713Y-60063595D02*
X47171428Y-60101690D01*
X47171428Y-60101690D02*
X47133332Y-60139785D01*
X46676190Y-60406452D02*
X46752380Y-60368357D01*
X46752380Y-60368357D02*
X46790475Y-60330261D01*
X46790475Y-60330261D02*
X46828571Y-60254071D01*
X46828571Y-60254071D02*
X46828571Y-60215976D01*
X46828571Y-60215976D02*
X46790475Y-60139785D01*
X46790475Y-60139785D02*
X46752380Y-60101690D01*
X46752380Y-60101690D02*
X46676190Y-60063595D01*
X46676190Y-60063595D02*
X46523809Y-60063595D01*
X46523809Y-60063595D02*
X46447618Y-60101690D01*
X46447618Y-60101690D02*
X46409523Y-60139785D01*
X46409523Y-60139785D02*
X46371428Y-60215976D01*
X46371428Y-60215976D02*
X46371428Y-60254071D01*
X46371428Y-60254071D02*
X46409523Y-60330261D01*
X46409523Y-60330261D02*
X46447618Y-60368357D01*
X46447618Y-60368357D02*
X46523809Y-60406452D01*
X46523809Y-60406452D02*
X46676190Y-60406452D01*
X46676190Y-60406452D02*
X46752380Y-60444547D01*
X46752380Y-60444547D02*
X46790475Y-60482642D01*
X46790475Y-60482642D02*
X46828571Y-60558833D01*
X46828571Y-60558833D02*
X46828571Y-60711214D01*
X46828571Y-60711214D02*
X46790475Y-60787404D01*
X46790475Y-60787404D02*
X46752380Y-60825500D01*
X46752380Y-60825500D02*
X46676190Y-60863595D01*
X46676190Y-60863595D02*
X46523809Y-60863595D01*
X46523809Y-60863595D02*
X46447618Y-60825500D01*
X46447618Y-60825500D02*
X46409523Y-60787404D01*
X46409523Y-60787404D02*
X46371428Y-60711214D01*
X46371428Y-60711214D02*
X46371428Y-60558833D01*
X46371428Y-60558833D02*
X46409523Y-60482642D01*
X46409523Y-60482642D02*
X46447618Y-60444547D01*
X46447618Y-60444547D02*
X46523809Y-60406452D01*
D10*
X38554819Y-52738095D02*
X39364342Y-52738095D01*
X39364342Y-52738095D02*
X39459580Y-52785714D01*
X39459580Y-52785714D02*
X39507200Y-52833333D01*
X39507200Y-52833333D02*
X39554819Y-52928571D01*
X39554819Y-52928571D02*
X39554819Y-53119047D01*
X39554819Y-53119047D02*
X39507200Y-53214285D01*
X39507200Y-53214285D02*
X39459580Y-53261904D01*
X39459580Y-53261904D02*
X39364342Y-53309523D01*
X39364342Y-53309523D02*
X38554819Y-53309523D01*
X39554819Y-53833333D02*
X39554819Y-54023809D01*
X39554819Y-54023809D02*
X39507200Y-54119047D01*
X39507200Y-54119047D02*
X39459580Y-54166666D01*
X39459580Y-54166666D02*
X39316723Y-54261904D01*
X39316723Y-54261904D02*
X39126247Y-54309523D01*
X39126247Y-54309523D02*
X38745295Y-54309523D01*
X38745295Y-54309523D02*
X38650057Y-54261904D01*
X38650057Y-54261904D02*
X38602438Y-54214285D01*
X38602438Y-54214285D02*
X38554819Y-54119047D01*
X38554819Y-54119047D02*
X38554819Y-53928571D01*
X38554819Y-53928571D02*
X38602438Y-53833333D01*
X38602438Y-53833333D02*
X38650057Y-53785714D01*
X38650057Y-53785714D02*
X38745295Y-53738095D01*
X38745295Y-53738095D02*
X38983390Y-53738095D01*
X38983390Y-53738095D02*
X39078628Y-53785714D01*
X39078628Y-53785714D02*
X39126247Y-53833333D01*
X39126247Y-53833333D02*
X39173866Y-53928571D01*
X39173866Y-53928571D02*
X39173866Y-54119047D01*
X39173866Y-54119047D02*
X39126247Y-54214285D01*
X39126247Y-54214285D02*
X39078628Y-54261904D01*
X39078628Y-54261904D02*
X38983390Y-54309523D01*
X72595238Y-57550057D02*
X72690476Y-57502438D01*
X72690476Y-57502438D02*
X72785714Y-57407200D01*
X72785714Y-57407200D02*
X72928571Y-57264342D01*
X72928571Y-57264342D02*
X73023809Y-57216723D01*
X73023809Y-57216723D02*
X73119047Y-57216723D01*
X73071428Y-57454819D02*
X73166666Y-57407200D01*
X73166666Y-57407200D02*
X73261904Y-57311961D01*
X73261904Y-57311961D02*
X73309523Y-57121485D01*
X73309523Y-57121485D02*
X73309523Y-56788152D01*
X73309523Y-56788152D02*
X73261904Y-56597676D01*
X73261904Y-56597676D02*
X73166666Y-56502438D01*
X73166666Y-56502438D02*
X73071428Y-56454819D01*
X73071428Y-56454819D02*
X72880952Y-56454819D01*
X72880952Y-56454819D02*
X72785714Y-56502438D01*
X72785714Y-56502438D02*
X72690476Y-56597676D01*
X72690476Y-56597676D02*
X72642857Y-56788152D01*
X72642857Y-56788152D02*
X72642857Y-57121485D01*
X72642857Y-57121485D02*
X72690476Y-57311961D01*
X72690476Y-57311961D02*
X72785714Y-57407200D01*
X72785714Y-57407200D02*
X72880952Y-57454819D01*
X72880952Y-57454819D02*
X73071428Y-57454819D01*
X72261904Y-56550057D02*
X72214285Y-56502438D01*
X72214285Y-56502438D02*
X72119047Y-56454819D01*
X72119047Y-56454819D02*
X71880952Y-56454819D01*
X71880952Y-56454819D02*
X71785714Y-56502438D01*
X71785714Y-56502438D02*
X71738095Y-56550057D01*
X71738095Y-56550057D02*
X71690476Y-56645295D01*
X71690476Y-56645295D02*
X71690476Y-56740533D01*
X71690476Y-56740533D02*
X71738095Y-56883390D01*
X71738095Y-56883390D02*
X72309523Y-57454819D01*
X72309523Y-57454819D02*
X71690476Y-57454819D01*
X100642857Y-64454819D02*
X100976190Y-63978628D01*
X101214285Y-64454819D02*
X101214285Y-63454819D01*
X101214285Y-63454819D02*
X100833333Y-63454819D01*
X100833333Y-63454819D02*
X100738095Y-63502438D01*
X100738095Y-63502438D02*
X100690476Y-63550057D01*
X100690476Y-63550057D02*
X100642857Y-63645295D01*
X100642857Y-63645295D02*
X100642857Y-63788152D01*
X100642857Y-63788152D02*
X100690476Y-63883390D01*
X100690476Y-63883390D02*
X100738095Y-63931009D01*
X100738095Y-63931009D02*
X100833333Y-63978628D01*
X100833333Y-63978628D02*
X101214285Y-63978628D01*
X99690476Y-64454819D02*
X100261904Y-64454819D01*
X99976190Y-64454819D02*
X99976190Y-63454819D01*
X99976190Y-63454819D02*
X100071428Y-63597676D01*
X100071428Y-63597676D02*
X100166666Y-63692914D01*
X100166666Y-63692914D02*
X100261904Y-63740533D01*
X98738095Y-64454819D02*
X99309523Y-64454819D01*
X99023809Y-64454819D02*
X99023809Y-63454819D01*
X99023809Y-63454819D02*
X99119047Y-63597676D01*
X99119047Y-63597676D02*
X99214285Y-63692914D01*
X99214285Y-63692914D02*
X99309523Y-63740533D01*
X59283333Y-60761009D02*
X59616666Y-60761009D01*
X59616666Y-61284819D02*
X59616666Y-60284819D01*
X59616666Y-60284819D02*
X59140476Y-60284819D01*
X58426190Y-60761009D02*
X58283333Y-60808628D01*
X58283333Y-60808628D02*
X58235714Y-60856247D01*
X58235714Y-60856247D02*
X58188095Y-60951485D01*
X58188095Y-60951485D02*
X58188095Y-61094342D01*
X58188095Y-61094342D02*
X58235714Y-61189580D01*
X58235714Y-61189580D02*
X58283333Y-61237200D01*
X58283333Y-61237200D02*
X58378571Y-61284819D01*
X58378571Y-61284819D02*
X58759523Y-61284819D01*
X58759523Y-61284819D02*
X58759523Y-60284819D01*
X58759523Y-60284819D02*
X58426190Y-60284819D01*
X58426190Y-60284819D02*
X58330952Y-60332438D01*
X58330952Y-60332438D02*
X58283333Y-60380057D01*
X58283333Y-60380057D02*
X58235714Y-60475295D01*
X58235714Y-60475295D02*
X58235714Y-60570533D01*
X58235714Y-60570533D02*
X58283333Y-60665771D01*
X58283333Y-60665771D02*
X58330952Y-60713390D01*
X58330952Y-60713390D02*
X58426190Y-60761009D01*
X58426190Y-60761009D02*
X58759523Y-60761009D01*
X57807142Y-60380057D02*
X57759523Y-60332438D01*
X57759523Y-60332438D02*
X57664285Y-60284819D01*
X57664285Y-60284819D02*
X57426190Y-60284819D01*
X57426190Y-60284819D02*
X57330952Y-60332438D01*
X57330952Y-60332438D02*
X57283333Y-60380057D01*
X57283333Y-60380057D02*
X57235714Y-60475295D01*
X57235714Y-60475295D02*
X57235714Y-60570533D01*
X57235714Y-60570533D02*
X57283333Y-60713390D01*
X57283333Y-60713390D02*
X57854761Y-61284819D01*
X57854761Y-61284819D02*
X57235714Y-61284819D01*
X44859580Y-60333333D02*
X44907200Y-60285714D01*
X44907200Y-60285714D02*
X44954819Y-60142857D01*
X44954819Y-60142857D02*
X44954819Y-60047619D01*
X44954819Y-60047619D02*
X44907200Y-59904762D01*
X44907200Y-59904762D02*
X44811961Y-59809524D01*
X44811961Y-59809524D02*
X44716723Y-59761905D01*
X44716723Y-59761905D02*
X44526247Y-59714286D01*
X44526247Y-59714286D02*
X44383390Y-59714286D01*
X44383390Y-59714286D02*
X44192914Y-59761905D01*
X44192914Y-59761905D02*
X44097676Y-59809524D01*
X44097676Y-59809524D02*
X44002438Y-59904762D01*
X44002438Y-59904762D02*
X43954819Y-60047619D01*
X43954819Y-60047619D02*
X43954819Y-60142857D01*
X43954819Y-60142857D02*
X44002438Y-60285714D01*
X44002438Y-60285714D02*
X44050057Y-60333333D01*
X44050057Y-60714286D02*
X44002438Y-60761905D01*
X44002438Y-60761905D02*
X43954819Y-60857143D01*
X43954819Y-60857143D02*
X43954819Y-61095238D01*
X43954819Y-61095238D02*
X44002438Y-61190476D01*
X44002438Y-61190476D02*
X44050057Y-61238095D01*
X44050057Y-61238095D02*
X44145295Y-61285714D01*
X44145295Y-61285714D02*
X44240533Y-61285714D01*
X44240533Y-61285714D02*
X44383390Y-61238095D01*
X44383390Y-61238095D02*
X44954819Y-60666667D01*
X44954819Y-60666667D02*
X44954819Y-61285714D01*
X66261904Y-54454819D02*
X66261904Y-55264342D01*
X66261904Y-55264342D02*
X66214285Y-55359580D01*
X66214285Y-55359580D02*
X66166666Y-55407200D01*
X66166666Y-55407200D02*
X66071428Y-55454819D01*
X66071428Y-55454819D02*
X65880952Y-55454819D01*
X65880952Y-55454819D02*
X65785714Y-55407200D01*
X65785714Y-55407200D02*
X65738095Y-55359580D01*
X65738095Y-55359580D02*
X65690476Y-55264342D01*
X65690476Y-55264342D02*
X65690476Y-54454819D01*
X65071428Y-54883390D02*
X65166666Y-54835771D01*
X65166666Y-54835771D02*
X65214285Y-54788152D01*
X65214285Y-54788152D02*
X65261904Y-54692914D01*
X65261904Y-54692914D02*
X65261904Y-54645295D01*
X65261904Y-54645295D02*
X65214285Y-54550057D01*
X65214285Y-54550057D02*
X65166666Y-54502438D01*
X65166666Y-54502438D02*
X65071428Y-54454819D01*
X65071428Y-54454819D02*
X64880952Y-54454819D01*
X64880952Y-54454819D02*
X64785714Y-54502438D01*
X64785714Y-54502438D02*
X64738095Y-54550057D01*
X64738095Y-54550057D02*
X64690476Y-54645295D01*
X64690476Y-54645295D02*
X64690476Y-54692914D01*
X64690476Y-54692914D02*
X64738095Y-54788152D01*
X64738095Y-54788152D02*
X64785714Y-54835771D01*
X64785714Y-54835771D02*
X64880952Y-54883390D01*
X64880952Y-54883390D02*
X65071428Y-54883390D01*
X65071428Y-54883390D02*
X65166666Y-54931009D01*
X65166666Y-54931009D02*
X65214285Y-54978628D01*
X65214285Y-54978628D02*
X65261904Y-55073866D01*
X65261904Y-55073866D02*
X65261904Y-55264342D01*
X65261904Y-55264342D02*
X65214285Y-55359580D01*
X65214285Y-55359580D02*
X65166666Y-55407200D01*
X65166666Y-55407200D02*
X65071428Y-55454819D01*
X65071428Y-55454819D02*
X64880952Y-55454819D01*
X64880952Y-55454819D02*
X64785714Y-55407200D01*
X64785714Y-55407200D02*
X64738095Y-55359580D01*
X64738095Y-55359580D02*
X64690476Y-55264342D01*
X64690476Y-55264342D02*
X64690476Y-55073866D01*
X64690476Y-55073866D02*
X64738095Y-54978628D01*
X64738095Y-54978628D02*
X64785714Y-54931009D01*
X64785714Y-54931009D02*
X64880952Y-54883390D01*
X76595238Y-57550057D02*
X76690476Y-57502438D01*
X76690476Y-57502438D02*
X76785714Y-57407200D01*
X76785714Y-57407200D02*
X76928571Y-57264342D01*
X76928571Y-57264342D02*
X77023809Y-57216723D01*
X77023809Y-57216723D02*
X77119047Y-57216723D01*
X77071428Y-57454819D02*
X77166666Y-57407200D01*
X77166666Y-57407200D02*
X77261904Y-57311961D01*
X77261904Y-57311961D02*
X77309523Y-57121485D01*
X77309523Y-57121485D02*
X77309523Y-56788152D01*
X77309523Y-56788152D02*
X77261904Y-56597676D01*
X77261904Y-56597676D02*
X77166666Y-56502438D01*
X77166666Y-56502438D02*
X77071428Y-56454819D01*
X77071428Y-56454819D02*
X76880952Y-56454819D01*
X76880952Y-56454819D02*
X76785714Y-56502438D01*
X76785714Y-56502438D02*
X76690476Y-56597676D01*
X76690476Y-56597676D02*
X76642857Y-56788152D01*
X76642857Y-56788152D02*
X76642857Y-57121485D01*
X76642857Y-57121485D02*
X76690476Y-57311961D01*
X76690476Y-57311961D02*
X76785714Y-57407200D01*
X76785714Y-57407200D02*
X76880952Y-57454819D01*
X76880952Y-57454819D02*
X77071428Y-57454819D01*
X75690476Y-57454819D02*
X76261904Y-57454819D01*
X75976190Y-57454819D02*
X75976190Y-56454819D01*
X75976190Y-56454819D02*
X76071428Y-56597676D01*
X76071428Y-56597676D02*
X76166666Y-56692914D01*
X76166666Y-56692914D02*
X76261904Y-56740533D01*
X37954819Y-59238095D02*
X38764342Y-59238095D01*
X38764342Y-59238095D02*
X38859580Y-59285714D01*
X38859580Y-59285714D02*
X38907200Y-59333333D01*
X38907200Y-59333333D02*
X38954819Y-59428571D01*
X38954819Y-59428571D02*
X38954819Y-59619047D01*
X38954819Y-59619047D02*
X38907200Y-59714285D01*
X38907200Y-59714285D02*
X38859580Y-59761904D01*
X38859580Y-59761904D02*
X38764342Y-59809523D01*
X38764342Y-59809523D02*
X37954819Y-59809523D01*
X37954819Y-60761904D02*
X37954819Y-60285714D01*
X37954819Y-60285714D02*
X38431009Y-60238095D01*
X38431009Y-60238095D02*
X38383390Y-60285714D01*
X38383390Y-60285714D02*
X38335771Y-60380952D01*
X38335771Y-60380952D02*
X38335771Y-60619047D01*
X38335771Y-60619047D02*
X38383390Y-60714285D01*
X38383390Y-60714285D02*
X38431009Y-60761904D01*
X38431009Y-60761904D02*
X38526247Y-60809523D01*
X38526247Y-60809523D02*
X38764342Y-60809523D01*
X38764342Y-60809523D02*
X38859580Y-60761904D01*
X38859580Y-60761904D02*
X38907200Y-60714285D01*
X38907200Y-60714285D02*
X38954819Y-60619047D01*
X38954819Y-60619047D02*
X38954819Y-60380952D01*
X38954819Y-60380952D02*
X38907200Y-60285714D01*
X38907200Y-60285714D02*
X38859580Y-60238095D01*
D12*
X103410000Y-55288748D02*
X103410000Y-56711252D01*
X101590000Y-55288748D02*
X101590000Y-56711252D01*
X70200000Y-51300000D02*
X67800000Y-51300000D01*
X70200000Y-53700000D02*
X70200000Y-51300000D01*
X67800000Y-51300000D02*
X67800000Y-53700000D01*
X67800000Y-53700000D02*
X70200000Y-53700000D01*
X62700000Y-52300000D02*
X60300000Y-52300000D01*
X62700000Y-54700000D02*
X62700000Y-52300000D01*
X60300000Y-52300000D02*
X60300000Y-54700000D01*
X60300000Y-54700000D02*
X62700000Y-54700000D01*
X78200000Y-61800000D02*
X75800000Y-61800000D01*
X78200000Y-64200000D02*
X78200000Y-61800000D01*
X75800000Y-61800000D02*
X75800000Y-64200000D01*
X75800000Y-64200000D02*
X78200000Y-64200000D01*
X54200000Y-47800000D02*
X51800000Y-47800000D01*
X54200000Y-50200000D02*
X54200000Y-47800000D01*
X51800000Y-47800000D02*
X51800000Y-50200000D01*
X51800000Y-50200000D02*
X54200000Y-50200000D01*
X42700000Y-62300000D02*
X40300000Y-62300000D01*
X42700000Y-64700000D02*
X42700000Y-62300000D01*
X40300000Y-62300000D02*
X40300000Y-64700000D01*
X40300000Y-64700000D02*
X42700000Y-64700000D01*
X51928669Y-62279611D02*
X49528669Y-62279611D01*
X51928669Y-64679611D02*
X51928669Y-62279611D01*
X49528669Y-62279611D02*
X49528669Y-64679611D01*
X49528669Y-64679611D02*
X51928669Y-64679611D01*
X46700000Y-63300000D02*
X44300000Y-63300000D01*
X46700000Y-65700000D02*
X46700000Y-63300000D01*
X44300000Y-63300000D02*
X44300000Y-65700000D01*
X44300000Y-65700000D02*
X46700000Y-65700000D01*
X101590000Y-60272936D02*
X101590000Y-61727064D01*
X103410000Y-60272936D02*
X103410000Y-61727064D01*
X106540000Y-52912500D02*
X106540000Y-60632500D01*
X106805000Y-52912500D02*
X106540000Y-52912500D01*
X122160000Y-52912500D02*
X121895000Y-52912500D01*
X106540000Y-60632500D02*
X106805000Y-60632500D01*
X121895000Y-60632500D02*
X122160000Y-60632500D01*
X122160000Y-60632500D02*
X122160000Y-52912500D01*
X106800000Y-52122500D02*
X106330000Y-52462500D01*
X106330000Y-51782500D01*
X106800000Y-52122500D01*
G36*
X106800000Y-52122500D02*
G01*
X106330000Y-52462500D01*
X106330000Y-51782500D01*
X106800000Y-52122500D01*
G37*
X124675000Y-54000000D02*
X124675000Y-52800000D01*
X124675000Y-51200000D02*
X124675000Y-50000000D01*
X124675000Y-50000000D02*
X131075000Y-50000000D01*
X131075000Y-54000000D02*
X124675000Y-54000000D01*
X131075000Y-52800000D02*
X131075000Y-54000000D01*
X131075000Y-50000000D02*
X131075000Y-51200000D01*
X143517064Y-55590000D02*
X142062936Y-55590000D01*
X143517064Y-57410000D02*
X142062936Y-57410000D01*
X53590000Y-59788748D02*
X53590000Y-61211252D01*
X55410000Y-59788748D02*
X55410000Y-61211252D01*
X73727064Y-54090000D02*
X72272936Y-54090000D01*
X73727064Y-55910000D02*
X72272936Y-55910000D01*
X124675000Y-59500000D02*
X124675000Y-58300000D01*
X124675000Y-56700000D02*
X124675000Y-55500000D01*
X124675000Y-55500000D02*
X131075000Y-55500000D01*
X131075000Y-59500000D02*
X124675000Y-59500000D01*
X131075000Y-58300000D02*
X131075000Y-59500000D01*
X131075000Y-55500000D02*
X131075000Y-56700000D01*
X53590000Y-54288748D02*
X53590000Y-55711252D01*
X55410000Y-54288748D02*
X55410000Y-55711252D01*
X52560000Y-60590000D02*
X52560000Y-59260000D01*
X52610000Y-59260000D02*
X52560000Y-59260000D01*
X52610000Y-59260000D02*
X52610000Y-56740000D01*
X51440000Y-59260000D02*
X51390000Y-59260000D01*
X51390000Y-59260000D02*
X51390000Y-56740000D01*
X52610000Y-56740000D02*
X52560000Y-56740000D01*
X51440000Y-56740000D02*
X51390000Y-56740000D01*
X35711252Y-59590000D02*
X34288748Y-59590000D01*
X35711252Y-61410000D02*
X34288748Y-61410000D01*
X59177064Y-55590000D02*
X57722936Y-55590000D01*
X59177064Y-57410000D02*
X57722936Y-57410000D01*
X29045000Y-65650000D02*
X27245000Y-65650000D01*
X23535000Y-65650000D02*
X24995000Y-65650000D01*
X29045000Y-56710000D02*
X27245000Y-56710000D01*
X23535000Y-56710000D02*
X23535000Y-65650000D01*
X23535000Y-56710000D02*
X24995000Y-56710000D01*
X35711252Y-54590000D02*
X34288748Y-54590000D01*
X35711252Y-56410000D02*
X34288748Y-56410000D01*
X35773752Y-50590000D02*
X34351248Y-50590000D01*
X35773752Y-52410000D02*
X34351248Y-52410000D01*
X97470000Y-45590000D02*
X97470000Y-51400000D01*
X97470000Y-45590000D02*
X79250000Y-45590000D01*
X97470000Y-65510000D02*
X97470000Y-65810000D01*
X97470000Y-65810000D02*
X79250000Y-65810000D01*
X79250000Y-45590000D02*
X79250000Y-52090000D01*
X79250000Y-65510000D02*
X79250000Y-65810000D01*
X97960000Y-52100000D02*
X97460000Y-52100000D01*
X97460000Y-51600000D01*
X97960000Y-52100000D01*
G36*
X97960000Y-52100000D02*
G01*
X97460000Y-52100000D01*
X97460000Y-51600000D01*
X97960000Y-52100000D01*
G37*
X100910000Y-56727064D02*
X100910000Y-55272936D01*
X99090000Y-56727064D02*
X99090000Y-55272936D01*
X68410000Y-58211252D02*
X68410000Y-56788748D01*
X66590000Y-58211252D02*
X66590000Y-56788748D01*
X72272936Y-62910000D02*
X73727064Y-62910000D01*
X72272936Y-61090000D02*
X73727064Y-61090000D01*
X37660000Y-56890000D02*
X37660000Y-59110000D01*
X37660000Y-59110000D02*
X33250000Y-59110000D01*
X33250000Y-56890000D02*
X37660000Y-56890000D01*
X35727064Y-63590000D02*
X34272936Y-63590000D01*
X35727064Y-65410000D02*
X34272936Y-65410000D01*
X30227064Y-53590000D02*
X28772936Y-53590000D01*
X30227064Y-55410000D02*
X28772936Y-55410000D01*
X64211252Y-60090000D02*
X62788748Y-60090000D01*
X64211252Y-61910000D02*
X62788748Y-61910000D01*
X46090000Y-59788748D02*
X46090000Y-61211252D01*
X47910000Y-59788748D02*
X47910000Y-61211252D01*
X39940000Y-51440000D02*
X39940000Y-55560000D01*
X39995000Y-51440000D02*
X39940000Y-51440000D01*
X50060000Y-51440000D02*
X50005000Y-51440000D01*
X39940000Y-55560000D02*
X39995000Y-55560000D01*
X50005000Y-55560000D02*
X50060000Y-55560000D01*
X50060000Y-55560000D02*
X50060000Y-51440000D01*
X39990000Y-50900000D02*
X39660000Y-51140000D01*
X39660000Y-50660000D01*
X39990000Y-50900000D01*
G36*
X39990000Y-50900000D02*
G01*
X39660000Y-51140000D01*
X39660000Y-50660000D01*
X39990000Y-50900000D01*
G37*
X72510000Y-59322500D02*
X72510000Y-57802500D01*
X72460000Y-59322500D02*
X72510000Y-59322500D01*
X70560000Y-59322500D02*
X71340000Y-59322500D01*
X69390000Y-59322500D02*
X69440000Y-59322500D01*
X72510000Y-57802500D02*
X71510000Y-57802500D01*
X70390000Y-57802500D02*
X69390000Y-57802500D01*
X69390000Y-57802500D02*
X69390000Y-59322500D01*
X71330000Y-59862500D02*
X71000000Y-60102500D01*
X71000000Y-59622500D01*
X71330000Y-59862500D01*
G36*
X71330000Y-59862500D02*
G01*
X71000000Y-60102500D01*
X71000000Y-59622500D01*
X71330000Y-59862500D01*
G37*
X99090000Y-60272936D02*
X99090000Y-61727064D01*
X100910000Y-60272936D02*
X100910000Y-61727064D01*
X57722936Y-59910000D02*
X59177064Y-59910000D01*
X57722936Y-58090000D02*
X59177064Y-58090000D01*
X43590000Y-59788748D02*
X43590000Y-61211252D01*
X45410000Y-59788748D02*
X45410000Y-61211252D01*
X65172500Y-55640000D02*
X64697500Y-55640000D01*
X65172500Y-56115000D02*
X65172500Y-55640000D01*
X65172500Y-58860000D02*
X65172500Y-58385000D01*
X64697500Y-58860000D02*
X65172500Y-58860000D01*
X62427500Y-55640000D02*
X61952500Y-55640000D01*
X61952500Y-55640000D02*
X61952500Y-56115000D01*
X61952500Y-58385000D02*
X61952500Y-58860000D01*
X61952500Y-58860000D02*
X62427500Y-58860000D01*
X66012500Y-56740000D02*
X65682500Y-56500000D01*
X66012500Y-56260000D01*
X66012500Y-56740000D01*
G36*
X66012500Y-56740000D02*
G01*
X65682500Y-56500000D01*
X66012500Y-56260000D01*
X66012500Y-56740000D01*
G37*
X76510000Y-59322500D02*
X76510000Y-57802500D01*
X76460000Y-59322500D02*
X76510000Y-59322500D01*
X74560000Y-59322500D02*
X75340000Y-59322500D01*
X73390000Y-59322500D02*
X73440000Y-59322500D01*
X76510000Y-57802500D02*
X75510000Y-57802500D01*
X74390000Y-57802500D02*
X73390000Y-57802500D01*
X73390000Y-57802500D02*
X73390000Y-59322500D01*
X75330000Y-59862500D02*
X75000000Y-60102500D01*
X75000000Y-59622500D01*
X75330000Y-59862500D01*
G36*
X75330000Y-59862500D02*
G01*
X75000000Y-60102500D01*
X75000000Y-59622500D01*
X75330000Y-59862500D01*
G37*
X40090000Y-61560000D02*
X41910000Y-61560000D01*
X40090000Y-61510000D02*
X40090000Y-61560000D01*
X40090000Y-58440000D02*
X40090000Y-58490000D01*
X41910000Y-61560000D02*
X41910000Y-61510000D01*
X41910000Y-60390000D02*
X41910000Y-59610000D01*
X41910000Y-58490000D02*
X41910000Y-58440000D01*
X41910000Y-58440000D02*
X40090000Y-58440000D01*
X39790000Y-61840000D02*
X39310000Y-61840000D01*
X39550000Y-61510000D01*
X39790000Y-61840000D01*
G36*
X39790000Y-61840000D02*
G01*
X39310000Y-61840000D01*
X39550000Y-61510000D01*
X39790000Y-61840000D01*
G37*
%LPC*%
G36*
X26593737Y-65053850D02*
G01*
X26707208Y-65084254D01*
X26808943Y-65142991D01*
X26892009Y-65226057D01*
X26950746Y-65327792D01*
X26981150Y-65441263D01*
X26981150Y-65558737D01*
X26950746Y-65672208D01*
X26892009Y-65773943D01*
X26808943Y-65857009D01*
X26707208Y-65915746D01*
X26593737Y-65946150D01*
X26535000Y-65950000D01*
X26533029Y-65950000D01*
X25736971Y-65950000D01*
X25735000Y-65950000D01*
X25676263Y-65946150D01*
X25562792Y-65915746D01*
X25461057Y-65857009D01*
X25377991Y-65773943D01*
X25319254Y-65672208D01*
X25288850Y-65558737D01*
X25288850Y-65441263D01*
X25319254Y-65327792D01*
X25377991Y-65226057D01*
X25461057Y-65142991D01*
X25562792Y-65084254D01*
X25676263Y-65053850D01*
X25735000Y-65050000D01*
X26535000Y-65050000D01*
X26593737Y-65053850D01*
G37*
G36*
X30913737Y-65053850D02*
G01*
X31027208Y-65084254D01*
X31128943Y-65142991D01*
X31212009Y-65226057D01*
X31270746Y-65327792D01*
X31301150Y-65441263D01*
X31301150Y-65558737D01*
X31270746Y-65672208D01*
X31212009Y-65773943D01*
X31128943Y-65857009D01*
X31027208Y-65915746D01*
X30913737Y-65946150D01*
X30855000Y-65950000D01*
X30853029Y-65950000D01*
X29756971Y-65950000D01*
X29755000Y-65950000D01*
X29696263Y-65946150D01*
X29582792Y-65915746D01*
X29481057Y-65857009D01*
X29397991Y-65773943D01*
X29339254Y-65672208D01*
X29308850Y-65558737D01*
X29308850Y-65441263D01*
X29339254Y-65327792D01*
X29397991Y-65226057D01*
X29481057Y-65142991D01*
X29582792Y-65084254D01*
X29696263Y-65053850D01*
X29755000Y-65050000D01*
X30855000Y-65050000D01*
X30913737Y-65053850D01*
G37*
G36*
X46500000Y-65500000D02*
G01*
X44500000Y-65500000D01*
X44500000Y-63500000D01*
X46500000Y-63500000D01*
X46500000Y-65500000D01*
G37*
G36*
X33854850Y-63625964D02*
G01*
X33905040Y-63631787D01*
X33922189Y-63639359D01*
X33945671Y-63644030D01*
X33970810Y-63660827D01*
X33990696Y-63669608D01*
X34004277Y-63683189D01*
X34026777Y-63698223D01*
X34041810Y-63720722D01*
X34055391Y-63734303D01*
X34064170Y-63754186D01*
X34080970Y-63779329D01*
X34085641Y-63802812D01*
X34093212Y-63819959D01*
X34099033Y-63870139D01*
X34100000Y-63875000D01*
X34100000Y-65125000D01*
X34099032Y-65129863D01*
X34093212Y-65180040D01*
X34085641Y-65197185D01*
X34080970Y-65220671D01*
X34064169Y-65245815D01*
X34055391Y-65265696D01*
X34041812Y-65279274D01*
X34026777Y-65301777D01*
X34004274Y-65316812D01*
X33990696Y-65330391D01*
X33970815Y-65339169D01*
X33945671Y-65355970D01*
X33922185Y-65360641D01*
X33905040Y-65368212D01*
X33854861Y-65374032D01*
X33850000Y-65375000D01*
X33050000Y-65375000D01*
X33045138Y-65374032D01*
X32994959Y-65368212D01*
X32977812Y-65360641D01*
X32954329Y-65355970D01*
X32929186Y-65339170D01*
X32909303Y-65330391D01*
X32895722Y-65316810D01*
X32873223Y-65301777D01*
X32858189Y-65279277D01*
X32844608Y-65265696D01*
X32835827Y-65245810D01*
X32819030Y-65220671D01*
X32814359Y-65197189D01*
X32806787Y-65180040D01*
X32800964Y-65129849D01*
X32800000Y-65125000D01*
X32800000Y-63875000D01*
X32800964Y-63870150D01*
X32806787Y-63819959D01*
X32814359Y-63802808D01*
X32819030Y-63779329D01*
X32835826Y-63754191D01*
X32844608Y-63734303D01*
X32858191Y-63720719D01*
X32873223Y-63698223D01*
X32895719Y-63683191D01*
X32909303Y-63669608D01*
X32929191Y-63660826D01*
X32954329Y-63644030D01*
X32977808Y-63639359D01*
X32994959Y-63631787D01*
X33045151Y-63625964D01*
X33050000Y-63625000D01*
X33850000Y-63625000D01*
X33854850Y-63625964D01*
G37*
G36*
X36954850Y-63625964D02*
G01*
X37005040Y-63631787D01*
X37022189Y-63639359D01*
X37045671Y-63644030D01*
X37070810Y-63660827D01*
X37090696Y-63669608D01*
X37104277Y-63683189D01*
X37126777Y-63698223D01*
X37141810Y-63720722D01*
X37155391Y-63734303D01*
X37164170Y-63754186D01*
X37180970Y-63779329D01*
X37185641Y-63802812D01*
X37193212Y-63819959D01*
X37199033Y-63870139D01*
X37200000Y-63875000D01*
X37200000Y-65125000D01*
X37199032Y-65129863D01*
X37193212Y-65180040D01*
X37185641Y-65197185D01*
X37180970Y-65220671D01*
X37164169Y-65245815D01*
X37155391Y-65265696D01*
X37141812Y-65279274D01*
X37126777Y-65301777D01*
X37104274Y-65316812D01*
X37090696Y-65330391D01*
X37070815Y-65339169D01*
X37045671Y-65355970D01*
X37022185Y-65360641D01*
X37005040Y-65368212D01*
X36954861Y-65374032D01*
X36950000Y-65375000D01*
X36150000Y-65375000D01*
X36145138Y-65374032D01*
X36094959Y-65368212D01*
X36077812Y-65360641D01*
X36054329Y-65355970D01*
X36029186Y-65339170D01*
X36009303Y-65330391D01*
X35995722Y-65316810D01*
X35973223Y-65301777D01*
X35958189Y-65279277D01*
X35944608Y-65265696D01*
X35935827Y-65245810D01*
X35919030Y-65220671D01*
X35914359Y-65197189D01*
X35906787Y-65180040D01*
X35900964Y-65129849D01*
X35900000Y-65125000D01*
X35900000Y-63875000D01*
X35900964Y-63870150D01*
X35906787Y-63819959D01*
X35914359Y-63802808D01*
X35919030Y-63779329D01*
X35935826Y-63754191D01*
X35944608Y-63734303D01*
X35958191Y-63720719D01*
X35973223Y-63698223D01*
X35995719Y-63683191D01*
X36009303Y-63669608D01*
X36029191Y-63660826D01*
X36054329Y-63644030D01*
X36077808Y-63639359D01*
X36094959Y-63631787D01*
X36145151Y-63625964D01*
X36150000Y-63625000D01*
X36950000Y-63625000D01*
X36954850Y-63625964D01*
G37*
G36*
X80360000Y-65250000D02*
G01*
X78860000Y-65250000D01*
X78860000Y-64350000D01*
X80360000Y-64350000D01*
X80360000Y-65250000D01*
G37*
G36*
X97860000Y-65250000D02*
G01*
X96360000Y-65250000D01*
X96360000Y-64350000D01*
X97860000Y-64350000D01*
X97860000Y-65250000D01*
G37*
G36*
X57900000Y-65000000D02*
G01*
X56400000Y-65000000D01*
X56400000Y-63500000D01*
X57900000Y-63500000D01*
X57900000Y-65000000D01*
G37*
G36*
X108750000Y-65000000D02*
G01*
X107250000Y-65000000D01*
X107250000Y-63500000D01*
X108750000Y-63500000D01*
X108750000Y-65000000D01*
G37*
G36*
X59907714Y-63532295D02*
G01*
X60043548Y-63588559D01*
X60165795Y-63670242D01*
X60269758Y-63774205D01*
X60351441Y-63896452D01*
X60407705Y-64032286D01*
X60436389Y-64176487D01*
X60436389Y-64323513D01*
X60407705Y-64467714D01*
X60351441Y-64603548D01*
X60269758Y-64725795D01*
X60165795Y-64829758D01*
X60043548Y-64911441D01*
X59907714Y-64967705D01*
X59763513Y-64996389D01*
X59616487Y-64996389D01*
X59472286Y-64967705D01*
X59336452Y-64911441D01*
X59214205Y-64829758D01*
X59110242Y-64725795D01*
X59028559Y-64603548D01*
X58972295Y-64467714D01*
X58943611Y-64323513D01*
X58943611Y-64176487D01*
X58972295Y-64032286D01*
X59028559Y-63896452D01*
X59110242Y-63774205D01*
X59214205Y-63670242D01*
X59336452Y-63588559D01*
X59472286Y-63532295D01*
X59616487Y-63503611D01*
X59763513Y-63503611D01*
X59907714Y-63532295D01*
G37*
G36*
X62447714Y-63532295D02*
G01*
X62583548Y-63588559D01*
X62705795Y-63670242D01*
X62809758Y-63774205D01*
X62891441Y-63896452D01*
X62947705Y-64032286D01*
X62976389Y-64176487D01*
X62976389Y-64323513D01*
X62947705Y-64467714D01*
X62891441Y-64603548D01*
X62809758Y-64725795D01*
X62705795Y-64829758D01*
X62583548Y-64911441D01*
X62447714Y-64967705D01*
X62303513Y-64996389D01*
X62156487Y-64996389D01*
X62012286Y-64967705D01*
X61876452Y-64911441D01*
X61754205Y-64829758D01*
X61650242Y-64725795D01*
X61568559Y-64603548D01*
X61512295Y-64467714D01*
X61483611Y-64323513D01*
X61483611Y-64176487D01*
X61512295Y-64032286D01*
X61568559Y-63896452D01*
X61650242Y-63774205D01*
X61754205Y-63670242D01*
X61876452Y-63588559D01*
X62012286Y-63532295D01*
X62156487Y-63503611D01*
X62303513Y-63503611D01*
X62447714Y-63532295D01*
G37*
G36*
X64987714Y-63532295D02*
G01*
X65123548Y-63588559D01*
X65245795Y-63670242D01*
X65349758Y-63774205D01*
X65431441Y-63896452D01*
X65487705Y-64032286D01*
X65516389Y-64176487D01*
X65516389Y-64323513D01*
X65487705Y-64467714D01*
X65431441Y-64603548D01*
X65349758Y-64725795D01*
X65245795Y-64829758D01*
X65123548Y-64911441D01*
X64987714Y-64967705D01*
X64843513Y-64996389D01*
X64696487Y-64996389D01*
X64552286Y-64967705D01*
X64416452Y-64911441D01*
X64294205Y-64829758D01*
X64190242Y-64725795D01*
X64108559Y-64603548D01*
X64052295Y-64467714D01*
X64023611Y-64323513D01*
X64023611Y-64176487D01*
X64052295Y-64032286D01*
X64108559Y-63896452D01*
X64190242Y-63774205D01*
X64294205Y-63670242D01*
X64416452Y-63588559D01*
X64552286Y-63532295D01*
X64696487Y-63503611D01*
X64843513Y-63503611D01*
X64987714Y-63532295D01*
G37*
G36*
X67527714Y-63532295D02*
G01*
X67663548Y-63588559D01*
X67785795Y-63670242D01*
X67889758Y-63774205D01*
X67971441Y-63896452D01*
X68027705Y-64032286D01*
X68056389Y-64176487D01*
X68056389Y-64323513D01*
X68027705Y-64467714D01*
X67971441Y-64603548D01*
X67889758Y-64725795D01*
X67785795Y-64829758D01*
X67663548Y-64911441D01*
X67527714Y-64967705D01*
X67383513Y-64996389D01*
X67236487Y-64996389D01*
X67092286Y-64967705D01*
X66956452Y-64911441D01*
X66834205Y-64829758D01*
X66730242Y-64725795D01*
X66648559Y-64603548D01*
X66592295Y-64467714D01*
X66563611Y-64323513D01*
X66563611Y-64176487D01*
X66592295Y-64032286D01*
X66648559Y-63896452D01*
X66730242Y-63774205D01*
X66834205Y-63670242D01*
X66956452Y-63588559D01*
X67092286Y-63532295D01*
X67236487Y-63503611D01*
X67383513Y-63503611D01*
X67527714Y-63532295D01*
G37*
G36*
X70067714Y-63532295D02*
G01*
X70203548Y-63588559D01*
X70325795Y-63670242D01*
X70429758Y-63774205D01*
X70511441Y-63896452D01*
X70567705Y-64032286D01*
X70596389Y-64176487D01*
X70596389Y-64323513D01*
X70567705Y-64467714D01*
X70511441Y-64603548D01*
X70429758Y-64725795D01*
X70325795Y-64829758D01*
X70203548Y-64911441D01*
X70067714Y-64967705D01*
X69923513Y-64996389D01*
X69776487Y-64996389D01*
X69632286Y-64967705D01*
X69496452Y-64911441D01*
X69374205Y-64829758D01*
X69270242Y-64725795D01*
X69188559Y-64603548D01*
X69132295Y-64467714D01*
X69103611Y-64323513D01*
X69103611Y-64176487D01*
X69132295Y-64032286D01*
X69188559Y-63896452D01*
X69270242Y-63774205D01*
X69374205Y-63670242D01*
X69496452Y-63588559D01*
X69632286Y-63532295D01*
X69776487Y-63503611D01*
X69923513Y-63503611D01*
X70067714Y-63532295D01*
G37*
G36*
X110757714Y-63532295D02*
G01*
X110893548Y-63588559D01*
X111015795Y-63670242D01*
X111119758Y-63774205D01*
X111201441Y-63896452D01*
X111257705Y-64032286D01*
X111286389Y-64176487D01*
X111286389Y-64323513D01*
X111257705Y-64467714D01*
X111201441Y-64603548D01*
X111119758Y-64725795D01*
X111015795Y-64829758D01*
X110893548Y-64911441D01*
X110757714Y-64967705D01*
X110613513Y-64996389D01*
X110466487Y-64996389D01*
X110322286Y-64967705D01*
X110186452Y-64911441D01*
X110064205Y-64829758D01*
X109960242Y-64725795D01*
X109878559Y-64603548D01*
X109822295Y-64467714D01*
X109793611Y-64323513D01*
X109793611Y-64176487D01*
X109822295Y-64032286D01*
X109878559Y-63896452D01*
X109960242Y-63774205D01*
X110064205Y-63670242D01*
X110186452Y-63588559D01*
X110322286Y-63532295D01*
X110466487Y-63503611D01*
X110613513Y-63503611D01*
X110757714Y-63532295D01*
G37*
G36*
X113297714Y-63532295D02*
G01*
X113433548Y-63588559D01*
X113555795Y-63670242D01*
X113659758Y-63774205D01*
X113741441Y-63896452D01*
X113797705Y-64032286D01*
X113826389Y-64176487D01*
X113826389Y-64323513D01*
X113797705Y-64467714D01*
X113741441Y-64603548D01*
X113659758Y-64725795D01*
X113555795Y-64829758D01*
X113433548Y-64911441D01*
X113297714Y-64967705D01*
X113153513Y-64996389D01*
X113006487Y-64996389D01*
X112862286Y-64967705D01*
X112726452Y-64911441D01*
X112604205Y-64829758D01*
X112500242Y-64725795D01*
X112418559Y-64603548D01*
X112362295Y-64467714D01*
X112333611Y-64323513D01*
X112333611Y-64176487D01*
X112362295Y-64032286D01*
X112418559Y-63896452D01*
X112500242Y-63774205D01*
X112604205Y-63670242D01*
X112726452Y-63588559D01*
X112862286Y-63532295D01*
X113006487Y-63503611D01*
X113153513Y-63503611D01*
X113297714Y-63532295D01*
G37*
G36*
X115837714Y-63532295D02*
G01*
X115973548Y-63588559D01*
X116095795Y-63670242D01*
X116199758Y-63774205D01*
X116281441Y-63896452D01*
X116337705Y-64032286D01*
X116366389Y-64176487D01*
X116366389Y-64323513D01*
X116337705Y-64467714D01*
X116281441Y-64603548D01*
X116199758Y-64725795D01*
X116095795Y-64829758D01*
X115973548Y-64911441D01*
X115837714Y-64967705D01*
X115693513Y-64996389D01*
X115546487Y-64996389D01*
X115402286Y-64967705D01*
X115266452Y-64911441D01*
X115144205Y-64829758D01*
X115040242Y-64725795D01*
X114958559Y-64603548D01*
X114902295Y-64467714D01*
X114873611Y-64323513D01*
X114873611Y-64176487D01*
X114902295Y-64032286D01*
X114958559Y-63896452D01*
X115040242Y-63774205D01*
X115144205Y-63670242D01*
X115266452Y-63588559D01*
X115402286Y-63532295D01*
X115546487Y-63503611D01*
X115693513Y-63503611D01*
X115837714Y-63532295D01*
G37*
G36*
X118377714Y-63532295D02*
G01*
X118513548Y-63588559D01*
X118635795Y-63670242D01*
X118739758Y-63774205D01*
X118821441Y-63896452D01*
X118877705Y-64032286D01*
X118906389Y-64176487D01*
X118906389Y-64323513D01*
X118877705Y-64467714D01*
X118821441Y-64603548D01*
X118739758Y-64725795D01*
X118635795Y-64829758D01*
X118513548Y-64911441D01*
X118377714Y-64967705D01*
X118233513Y-64996389D01*
X118086487Y-64996389D01*
X117942286Y-64967705D01*
X117806452Y-64911441D01*
X117684205Y-64829758D01*
X117580242Y-64725795D01*
X117498559Y-64603548D01*
X117442295Y-64467714D01*
X117413611Y-64323513D01*
X117413611Y-64176487D01*
X117442295Y-64032286D01*
X117498559Y-63896452D01*
X117580242Y-63774205D01*
X117684205Y-63670242D01*
X117806452Y-63588559D01*
X117942286Y-63532295D01*
X118086487Y-63503611D01*
X118233513Y-63503611D01*
X118377714Y-63532295D01*
G37*
G36*
X120917714Y-63532295D02*
G01*
X121053548Y-63588559D01*
X121175795Y-63670242D01*
X121279758Y-63774205D01*
X121361441Y-63896452D01*
X121417705Y-64032286D01*
X121446389Y-64176487D01*
X121446389Y-64323513D01*
X121417705Y-64467714D01*
X121361441Y-64603548D01*
X121279758Y-64725795D01*
X121175795Y-64829758D01*
X121053548Y-64911441D01*
X120917714Y-64967705D01*
X120773513Y-64996389D01*
X120626487Y-64996389D01*
X120482286Y-64967705D01*
X120346452Y-64911441D01*
X120224205Y-64829758D01*
X120120242Y-64725795D01*
X120038559Y-64603548D01*
X119982295Y-64467714D01*
X119953611Y-64323513D01*
X119953611Y-64176487D01*
X119982295Y-64032286D01*
X120038559Y-63896452D01*
X120120242Y-63774205D01*
X120224205Y-63670242D01*
X120346452Y-63588559D01*
X120482286Y-63532295D01*
X120626487Y-63503611D01*
X120773513Y-63503611D01*
X120917714Y-63532295D01*
G37*
G36*
X31465000Y-64680000D02*
G01*
X30305000Y-64680000D01*
X30305000Y-64080000D01*
X31465000Y-64080000D01*
X31465000Y-64680000D01*
G37*
G36*
X42500000Y-64500000D02*
G01*
X40500000Y-64500000D01*
X40500000Y-62500000D01*
X42500000Y-62500000D01*
X42500000Y-64500000D01*
G37*
G36*
X51728669Y-64479611D02*
G01*
X49728669Y-64479611D01*
X49728669Y-62479611D01*
X51728669Y-62479611D01*
X51728669Y-64479611D01*
G37*
G36*
X29939805Y-63792836D02*
G01*
X30007628Y-63831994D01*
X30063006Y-63887372D01*
X30102164Y-63955195D01*
X30122433Y-64030842D01*
X30122433Y-64109158D01*
X30102164Y-64184805D01*
X30063006Y-64252628D01*
X30007628Y-64308006D01*
X29939805Y-64347164D01*
X29864158Y-64367433D01*
X29785842Y-64367433D01*
X29710195Y-64347164D01*
X29642372Y-64308006D01*
X29586994Y-64252628D01*
X29547836Y-64184805D01*
X29527567Y-64109158D01*
X29527567Y-64030842D01*
X29547836Y-63955195D01*
X29586994Y-63887372D01*
X29642372Y-63831994D01*
X29710195Y-63792836D01*
X29785842Y-63772567D01*
X29864158Y-63772567D01*
X29939805Y-63792836D01*
G37*
G36*
X78000000Y-64000000D02*
G01*
X76000000Y-64000000D01*
X76000000Y-62000000D01*
X78000000Y-62000000D01*
X78000000Y-64000000D01*
G37*
G36*
X31465000Y-63880000D02*
G01*
X30305000Y-63880000D01*
X30305000Y-63280000D01*
X31465000Y-63280000D01*
X31465000Y-63880000D01*
G37*
G36*
X80360000Y-63750000D02*
G01*
X78860000Y-63750000D01*
X78860000Y-62850000D01*
X80360000Y-62850000D01*
X80360000Y-63750000D01*
G37*
G36*
X97860000Y-63750000D02*
G01*
X96360000Y-63750000D01*
X96360000Y-62850000D01*
X97860000Y-62850000D01*
X97860000Y-63750000D01*
G37*
G36*
X100629850Y-61900964D02*
G01*
X100680040Y-61906787D01*
X100697189Y-61914359D01*
X100720671Y-61919030D01*
X100745810Y-61935827D01*
X100765696Y-61944608D01*
X100779277Y-61958189D01*
X100801777Y-61973223D01*
X100816810Y-61995722D01*
X100830391Y-62009303D01*
X100839170Y-62029186D01*
X100855970Y-62054329D01*
X100860641Y-62077812D01*
X100868212Y-62094959D01*
X100874033Y-62145139D01*
X100875000Y-62150000D01*
X100875000Y-62950000D01*
X100874032Y-62954863D01*
X100868212Y-63005040D01*
X100860641Y-63022185D01*
X100855970Y-63045671D01*
X100839169Y-63070815D01*
X100830391Y-63090696D01*
X100816812Y-63104274D01*
X100801777Y-63126777D01*
X100779274Y-63141812D01*
X100765696Y-63155391D01*
X100745815Y-63164169D01*
X100720671Y-63180970D01*
X100697185Y-63185641D01*
X100680040Y-63193212D01*
X100629861Y-63199032D01*
X100625000Y-63200000D01*
X99375000Y-63200000D01*
X99370138Y-63199032D01*
X99319959Y-63193212D01*
X99302812Y-63185641D01*
X99279329Y-63180970D01*
X99254186Y-63164170D01*
X99234303Y-63155391D01*
X99220722Y-63141810D01*
X99198223Y-63126777D01*
X99183189Y-63104277D01*
X99169608Y-63090696D01*
X99160827Y-63070810D01*
X99144030Y-63045671D01*
X99139359Y-63022189D01*
X99131787Y-63005040D01*
X99125964Y-62954849D01*
X99125000Y-62950000D01*
X99125000Y-62150000D01*
X99125964Y-62145150D01*
X99131787Y-62094959D01*
X99139359Y-62077808D01*
X99144030Y-62054329D01*
X99160826Y-62029191D01*
X99169608Y-62009303D01*
X99183191Y-61995719D01*
X99198223Y-61973223D01*
X99220719Y-61958191D01*
X99234303Y-61944608D01*
X99254191Y-61935826D01*
X99279329Y-61919030D01*
X99302808Y-61914359D01*
X99319959Y-61906787D01*
X99370151Y-61900964D01*
X99375000Y-61900000D01*
X100625000Y-61900000D01*
X100629850Y-61900964D01*
G37*
G36*
X103129850Y-61900964D02*
G01*
X103180040Y-61906787D01*
X103197189Y-61914359D01*
X103220671Y-61919030D01*
X103245810Y-61935827D01*
X103265696Y-61944608D01*
X103279277Y-61958189D01*
X103301777Y-61973223D01*
X103316810Y-61995722D01*
X103330391Y-62009303D01*
X103339170Y-62029186D01*
X103355970Y-62054329D01*
X103360641Y-62077812D01*
X103368212Y-62094959D01*
X103374033Y-62145139D01*
X103375000Y-62150000D01*
X103375000Y-62950000D01*
X103374032Y-62954863D01*
X103368212Y-63005040D01*
X103360641Y-63022185D01*
X103355970Y-63045671D01*
X103339169Y-63070815D01*
X103330391Y-63090696D01*
X103316812Y-63104274D01*
X103301777Y-63126777D01*
X103279274Y-63141812D01*
X103265696Y-63155391D01*
X103245815Y-63164169D01*
X103220671Y-63180970D01*
X103197185Y-63185641D01*
X103180040Y-63193212D01*
X103129861Y-63199032D01*
X103125000Y-63200000D01*
X101875000Y-63200000D01*
X101870138Y-63199032D01*
X101819959Y-63193212D01*
X101802812Y-63185641D01*
X101779329Y-63180970D01*
X101754186Y-63164170D01*
X101734303Y-63155391D01*
X101720722Y-63141810D01*
X101698223Y-63126777D01*
X101683189Y-63104277D01*
X101669608Y-63090696D01*
X101660827Y-63070810D01*
X101644030Y-63045671D01*
X101639359Y-63022189D01*
X101631787Y-63005040D01*
X101625964Y-62954849D01*
X101625000Y-62950000D01*
X101625000Y-62150000D01*
X101625964Y-62145150D01*
X101631787Y-62094959D01*
X101639359Y-62077808D01*
X101644030Y-62054329D01*
X101660826Y-62029191D01*
X101669608Y-62009303D01*
X101683191Y-61995719D01*
X101698223Y-61973223D01*
X101720719Y-61958191D01*
X101734303Y-61944608D01*
X101754191Y-61935826D01*
X101779329Y-61919030D01*
X101802808Y-61914359D01*
X101819959Y-61906787D01*
X101870151Y-61900964D01*
X101875000Y-61900000D01*
X103125000Y-61900000D01*
X103129850Y-61900964D01*
G37*
G36*
X31465000Y-63080000D02*
G01*
X30305000Y-63080000D01*
X30305000Y-62780000D01*
X31465000Y-62780000D01*
X31465000Y-63080000D01*
G37*
G36*
X71854850Y-61125964D02*
G01*
X71905040Y-61131787D01*
X71922189Y-61139359D01*
X71945671Y-61144030D01*
X71970810Y-61160827D01*
X71990696Y-61169608D01*
X72004277Y-61183189D01*
X72026777Y-61198223D01*
X72041810Y-61220722D01*
X72055391Y-61234303D01*
X72064170Y-61254186D01*
X72080970Y-61279329D01*
X72085641Y-61302812D01*
X72093212Y-61319959D01*
X72099033Y-61370139D01*
X72100000Y-61375000D01*
X72100000Y-62625000D01*
X72099032Y-62629863D01*
X72093212Y-62680040D01*
X72085641Y-62697185D01*
X72080970Y-62720671D01*
X72064169Y-62745815D01*
X72055391Y-62765696D01*
X72041812Y-62779274D01*
X72026777Y-62801777D01*
X72004274Y-62816812D01*
X71990696Y-62830391D01*
X71970815Y-62839169D01*
X71945671Y-62855970D01*
X71922185Y-62860641D01*
X71905040Y-62868212D01*
X71854861Y-62874032D01*
X71850000Y-62875000D01*
X71050000Y-62875000D01*
X71045138Y-62874032D01*
X70994959Y-62868212D01*
X70977812Y-62860641D01*
X70954329Y-62855970D01*
X70929186Y-62839170D01*
X70909303Y-62830391D01*
X70895722Y-62816810D01*
X70873223Y-62801777D01*
X70858189Y-62779277D01*
X70844608Y-62765696D01*
X70835827Y-62745810D01*
X70819030Y-62720671D01*
X70814359Y-62697189D01*
X70806787Y-62680040D01*
X70800964Y-62629849D01*
X70800000Y-62625000D01*
X70800000Y-61375000D01*
X70800964Y-61370150D01*
X70806787Y-61319959D01*
X70814359Y-61302808D01*
X70819030Y-61279329D01*
X70835826Y-61254191D01*
X70844608Y-61234303D01*
X70858191Y-61220719D01*
X70873223Y-61198223D01*
X70895719Y-61183191D01*
X70909303Y-61169608D01*
X70929191Y-61160826D01*
X70954329Y-61144030D01*
X70977808Y-61139359D01*
X70994959Y-61131787D01*
X71045151Y-61125964D01*
X71050000Y-61125000D01*
X71850000Y-61125000D01*
X71854850Y-61125964D01*
G37*
G36*
X74954850Y-61125964D02*
G01*
X75005040Y-61131787D01*
X75022189Y-61139359D01*
X75045671Y-61144030D01*
X75070810Y-61160827D01*
X75090696Y-61169608D01*
X75104277Y-61183189D01*
X75126777Y-61198223D01*
X75141810Y-61220722D01*
X75155391Y-61234303D01*
X75164170Y-61254186D01*
X75180970Y-61279329D01*
X75185641Y-61302812D01*
X75193212Y-61319959D01*
X75199033Y-61370139D01*
X75200000Y-61375000D01*
X75200000Y-62625000D01*
X75199032Y-62629863D01*
X75193212Y-62680040D01*
X75185641Y-62697185D01*
X75180970Y-62720671D01*
X75164169Y-62745815D01*
X75155391Y-62765696D01*
X75141812Y-62779274D01*
X75126777Y-62801777D01*
X75104274Y-62816812D01*
X75090696Y-62830391D01*
X75070815Y-62839169D01*
X75045671Y-62855970D01*
X75022185Y-62860641D01*
X75005040Y-62868212D01*
X74954861Y-62874032D01*
X74950000Y-62875000D01*
X74150000Y-62875000D01*
X74145138Y-62874032D01*
X74094959Y-62868212D01*
X74077812Y-62860641D01*
X74054329Y-62855970D01*
X74029186Y-62839170D01*
X74009303Y-62830391D01*
X73995722Y-62816810D01*
X73973223Y-62801777D01*
X73958189Y-62779277D01*
X73944608Y-62765696D01*
X73935827Y-62745810D01*
X73919030Y-62720671D01*
X73914359Y-62697189D01*
X73906787Y-62680040D01*
X73900964Y-62629849D01*
X73900000Y-62625000D01*
X73900000Y-61375000D01*
X73900964Y-61370150D01*
X73906787Y-61319959D01*
X73914359Y-61302808D01*
X73919030Y-61279329D01*
X73935826Y-61254191D01*
X73944608Y-61234303D01*
X73958191Y-61220719D01*
X73973223Y-61198223D01*
X73995719Y-61183191D01*
X74009303Y-61169608D01*
X74029191Y-61160826D01*
X74054329Y-61144030D01*
X74077808Y-61139359D01*
X74094959Y-61131787D01*
X74145151Y-61125964D01*
X74150000Y-61125000D01*
X74950000Y-61125000D01*
X74954850Y-61125964D01*
G37*
G36*
X45154850Y-61400964D02*
G01*
X45205040Y-61406787D01*
X45222189Y-61414359D01*
X45245671Y-61419030D01*
X45270810Y-61435827D01*
X45290696Y-61444608D01*
X45304277Y-61458189D01*
X45326777Y-61473223D01*
X45341810Y-61495722D01*
X45355391Y-61509303D01*
X45364170Y-61529186D01*
X45380970Y-61554329D01*
X45385641Y-61577812D01*
X45393212Y-61594959D01*
X45399033Y-61645139D01*
X45400000Y-61650000D01*
X45400000Y-62475000D01*
X45399032Y-62479863D01*
X45393212Y-62530040D01*
X45385641Y-62547185D01*
X45380970Y-62570671D01*
X45364169Y-62595815D01*
X45355391Y-62615696D01*
X45341812Y-62629274D01*
X45326777Y-62651777D01*
X45304274Y-62666812D01*
X45290696Y-62680391D01*
X45270815Y-62689169D01*
X45245671Y-62705970D01*
X45222185Y-62710641D01*
X45205040Y-62718212D01*
X45154861Y-62724032D01*
X45150000Y-62725000D01*
X43850000Y-62725000D01*
X43845138Y-62724032D01*
X43794959Y-62718212D01*
X43777812Y-62710641D01*
X43754329Y-62705970D01*
X43729186Y-62689170D01*
X43709303Y-62680391D01*
X43695722Y-62666810D01*
X43673223Y-62651777D01*
X43658189Y-62629277D01*
X43644608Y-62615696D01*
X43635827Y-62595810D01*
X43619030Y-62570671D01*
X43614359Y-62547189D01*
X43606787Y-62530040D01*
X43600964Y-62479849D01*
X43600000Y-62475000D01*
X43600000Y-61650000D01*
X43600964Y-61645150D01*
X43606787Y-61594959D01*
X43614359Y-61577808D01*
X43619030Y-61554329D01*
X43635826Y-61529191D01*
X43644608Y-61509303D01*
X43658191Y-61495719D01*
X43673223Y-61473223D01*
X43695719Y-61458191D01*
X43709303Y-61444608D01*
X43729191Y-61435826D01*
X43754329Y-61419030D01*
X43777808Y-61414359D01*
X43794959Y-61406787D01*
X43845151Y-61400964D01*
X43850000Y-61400000D01*
X45150000Y-61400000D01*
X45154850Y-61400964D01*
G37*
G36*
X47654850Y-61400964D02*
G01*
X47705040Y-61406787D01*
X47722189Y-61414359D01*
X47745671Y-61419030D01*
X47770810Y-61435827D01*
X47790696Y-61444608D01*
X47804277Y-61458189D01*
X47826777Y-61473223D01*
X47841810Y-61495722D01*
X47855391Y-61509303D01*
X47864170Y-61529186D01*
X47880970Y-61554329D01*
X47885641Y-61577812D01*
X47893212Y-61594959D01*
X47899033Y-61645139D01*
X47900000Y-61650000D01*
X47900000Y-62475000D01*
X47899032Y-62479863D01*
X47893212Y-62530040D01*
X47885641Y-62547185D01*
X47880970Y-62570671D01*
X47864169Y-62595815D01*
X47855391Y-62615696D01*
X47841812Y-62629274D01*
X47826777Y-62651777D01*
X47804274Y-62666812D01*
X47790696Y-62680391D01*
X47770815Y-62689169D01*
X47745671Y-62705970D01*
X47722185Y-62710641D01*
X47705040Y-62718212D01*
X47654861Y-62724032D01*
X47650000Y-62725000D01*
X46350000Y-62725000D01*
X46345138Y-62724032D01*
X46294959Y-62718212D01*
X46277812Y-62710641D01*
X46254329Y-62705970D01*
X46229186Y-62689170D01*
X46209303Y-62680391D01*
X46195722Y-62666810D01*
X46173223Y-62651777D01*
X46158189Y-62629277D01*
X46144608Y-62615696D01*
X46135827Y-62595810D01*
X46119030Y-62570671D01*
X46114359Y-62547189D01*
X46106787Y-62530040D01*
X46100964Y-62479849D01*
X46100000Y-62475000D01*
X46100000Y-61650000D01*
X46100964Y-61645150D01*
X46106787Y-61594959D01*
X46114359Y-61577808D01*
X46119030Y-61554329D01*
X46135826Y-61529191D01*
X46144608Y-61509303D01*
X46158191Y-61495719D01*
X46173223Y-61473223D01*
X46195719Y-61458191D01*
X46209303Y-61444608D01*
X46229191Y-61435826D01*
X46254329Y-61419030D01*
X46277808Y-61414359D01*
X46294959Y-61406787D01*
X46345151Y-61400964D01*
X46350000Y-61400000D01*
X47650000Y-61400000D01*
X47654850Y-61400964D01*
G37*
G36*
X55154850Y-61400964D02*
G01*
X55205040Y-61406787D01*
X55222189Y-61414359D01*
X55245671Y-61419030D01*
X55270810Y-61435827D01*
X55290696Y-61444608D01*
X55304277Y-61458189D01*
X55326777Y-61473223D01*
X55341810Y-61495722D01*
X55355391Y-61509303D01*
X55364170Y-61529186D01*
X55380970Y-61554329D01*
X55385641Y-61577812D01*
X55393212Y-61594959D01*
X55399033Y-61645139D01*
X55400000Y-61650000D01*
X55400000Y-62475000D01*
X55399032Y-62479863D01*
X55393212Y-62530040D01*
X55385641Y-62547185D01*
X55380970Y-62570671D01*
X55364169Y-62595815D01*
X55355391Y-62615696D01*
X55341812Y-62629274D01*
X55326777Y-62651777D01*
X55304274Y-62666812D01*
X55290696Y-62680391D01*
X55270815Y-62689169D01*
X55245671Y-62705970D01*
X55222185Y-62710641D01*
X55205040Y-62718212D01*
X55154861Y-62724032D01*
X55150000Y-62725000D01*
X53850000Y-62725000D01*
X53845138Y-62724032D01*
X53794959Y-62718212D01*
X53777812Y-62710641D01*
X53754329Y-62705970D01*
X53729186Y-62689170D01*
X53709303Y-62680391D01*
X53695722Y-62666810D01*
X53673223Y-62651777D01*
X53658189Y-62629277D01*
X53644608Y-62615696D01*
X53635827Y-62595810D01*
X53619030Y-62570671D01*
X53614359Y-62547189D01*
X53606787Y-62530040D01*
X53600964Y-62479849D01*
X53600000Y-62475000D01*
X53600000Y-61650000D01*
X53600964Y-61645150D01*
X53606787Y-61594959D01*
X53614359Y-61577808D01*
X53619030Y-61554329D01*
X53635826Y-61529191D01*
X53644608Y-61509303D01*
X53658191Y-61495719D01*
X53673223Y-61473223D01*
X53695719Y-61458191D01*
X53709303Y-61444608D01*
X53729191Y-61435826D01*
X53754329Y-61419030D01*
X53777808Y-61414359D01*
X53794959Y-61406787D01*
X53845151Y-61400964D01*
X53850000Y-61400000D01*
X55150000Y-61400000D01*
X55154850Y-61400964D01*
G37*
G36*
X31465000Y-62580000D02*
G01*
X30305000Y-62580000D01*
X30305000Y-62280000D01*
X31465000Y-62280000D01*
X31465000Y-62580000D01*
G37*
G36*
X107572403Y-60408918D02*
G01*
X107621066Y-60441434D01*
X107653582Y-60490097D01*
X107665000Y-60547500D01*
X107665000Y-62297500D01*
X107653582Y-62354903D01*
X107621066Y-62403566D01*
X107572403Y-62436082D01*
X107515000Y-62447500D01*
X107215000Y-62447500D01*
X107157597Y-62436082D01*
X107108934Y-62403566D01*
X107076418Y-62354903D01*
X107065000Y-62297500D01*
X107065000Y-60547500D01*
X107076418Y-60490097D01*
X107108934Y-60441434D01*
X107157597Y-60408918D01*
X107215000Y-60397500D01*
X107515000Y-60397500D01*
X107572403Y-60408918D01*
G37*
G36*
X108842403Y-60408918D02*
G01*
X108891066Y-60441434D01*
X108923582Y-60490097D01*
X108935000Y-60547500D01*
X108935000Y-62297500D01*
X108923582Y-62354903D01*
X108891066Y-62403566D01*
X108842403Y-62436082D01*
X108785000Y-62447500D01*
X108485000Y-62447500D01*
X108427597Y-62436082D01*
X108378934Y-62403566D01*
X108346418Y-62354903D01*
X108335000Y-62297500D01*
X108335000Y-60547500D01*
X108346418Y-60490097D01*
X108378934Y-60441434D01*
X108427597Y-60408918D01*
X108485000Y-60397500D01*
X108785000Y-60397500D01*
X108842403Y-60408918D01*
G37*
G36*
X110112403Y-60408918D02*
G01*
X110161066Y-60441434D01*
X110193582Y-60490097D01*
X110205000Y-60547500D01*
X110205000Y-62297500D01*
X110193582Y-62354903D01*
X110161066Y-62403566D01*
X110112403Y-62436082D01*
X110055000Y-62447500D01*
X109755000Y-62447500D01*
X109697597Y-62436082D01*
X109648934Y-62403566D01*
X109616418Y-62354903D01*
X109605000Y-62297500D01*
X109605000Y-60547500D01*
X109616418Y-60490097D01*
X109648934Y-60441434D01*
X109697597Y-60408918D01*
X109755000Y-60397500D01*
X110055000Y-60397500D01*
X110112403Y-60408918D01*
G37*
G36*
X111382403Y-60408918D02*
G01*
X111431066Y-60441434D01*
X111463582Y-60490097D01*
X111475000Y-60547500D01*
X111475000Y-62297500D01*
X111463582Y-62354903D01*
X111431066Y-62403566D01*
X111382403Y-62436082D01*
X111325000Y-62447500D01*
X111025000Y-62447500D01*
X110967597Y-62436082D01*
X110918934Y-62403566D01*
X110886418Y-62354903D01*
X110875000Y-62297500D01*
X110875000Y-60547500D01*
X110886418Y-60490097D01*
X110918934Y-60441434D01*
X110967597Y-60408918D01*
X111025000Y-60397500D01*
X111325000Y-60397500D01*
X111382403Y-60408918D01*
G37*
G36*
X112652403Y-60408918D02*
G01*
X112701066Y-60441434D01*
X112733582Y-60490097D01*
X112745000Y-60547500D01*
X112745000Y-62297500D01*
X112733582Y-62354903D01*
X112701066Y-62403566D01*
X112652403Y-62436082D01*
X112595000Y-62447500D01*
X112295000Y-62447500D01*
X112237597Y-62436082D01*
X112188934Y-62403566D01*
X112156418Y-62354903D01*
X112145000Y-62297500D01*
X112145000Y-60547500D01*
X112156418Y-60490097D01*
X112188934Y-60441434D01*
X112237597Y-60408918D01*
X112295000Y-60397500D01*
X112595000Y-60397500D01*
X112652403Y-60408918D01*
G37*
G36*
X113922403Y-60408918D02*
G01*
X113971066Y-60441434D01*
X114003582Y-60490097D01*
X114015000Y-60547500D01*
X114015000Y-62297500D01*
X114003582Y-62354903D01*
X113971066Y-62403566D01*
X113922403Y-62436082D01*
X113865000Y-62447500D01*
X113565000Y-62447500D01*
X113507597Y-62436082D01*
X113458934Y-62403566D01*
X113426418Y-62354903D01*
X113415000Y-62297500D01*
X113415000Y-60547500D01*
X113426418Y-60490097D01*
X113458934Y-60441434D01*
X113507597Y-60408918D01*
X113565000Y-60397500D01*
X113865000Y-60397500D01*
X113922403Y-60408918D01*
G37*
G36*
X115192403Y-60408918D02*
G01*
X115241066Y-60441434D01*
X115273582Y-60490097D01*
X115285000Y-60547500D01*
X115285000Y-62297500D01*
X115273582Y-62354903D01*
X115241066Y-62403566D01*
X115192403Y-62436082D01*
X115135000Y-62447500D01*
X114835000Y-62447500D01*
X114777597Y-62436082D01*
X114728934Y-62403566D01*
X114696418Y-62354903D01*
X114685000Y-62297500D01*
X114685000Y-60547500D01*
X114696418Y-60490097D01*
X114728934Y-60441434D01*
X114777597Y-60408918D01*
X114835000Y-60397500D01*
X115135000Y-60397500D01*
X115192403Y-60408918D01*
G37*
G36*
X116462403Y-60408918D02*
G01*
X116511066Y-60441434D01*
X116543582Y-60490097D01*
X116555000Y-60547500D01*
X116555000Y-62297500D01*
X116543582Y-62354903D01*
X116511066Y-62403566D01*
X116462403Y-62436082D01*
X116405000Y-62447500D01*
X116105000Y-62447500D01*
X116047597Y-62436082D01*
X115998934Y-62403566D01*
X115966418Y-62354903D01*
X115955000Y-62297500D01*
X115955000Y-60547500D01*
X115966418Y-60490097D01*
X115998934Y-60441434D01*
X116047597Y-60408918D01*
X116105000Y-60397500D01*
X116405000Y-60397500D01*
X116462403Y-60408918D01*
G37*
G36*
X117732403Y-60408918D02*
G01*
X117781066Y-60441434D01*
X117813582Y-60490097D01*
X117825000Y-60547500D01*
X117825000Y-62297500D01*
X117813582Y-62354903D01*
X117781066Y-62403566D01*
X117732403Y-62436082D01*
X117675000Y-62447500D01*
X117375000Y-62447500D01*
X117317597Y-62436082D01*
X117268934Y-62403566D01*
X117236418Y-62354903D01*
X117225000Y-62297500D01*
X117225000Y-60547500D01*
X117236418Y-60490097D01*
X117268934Y-60441434D01*
X117317597Y-60408918D01*
X117375000Y-60397500D01*
X117675000Y-60397500D01*
X117732403Y-60408918D01*
G37*
G36*
X119002403Y-60408918D02*
G01*
X119051066Y-60441434D01*
X119083582Y-60490097D01*
X119095000Y-60547500D01*
X119095000Y-62297500D01*
X119083582Y-62354903D01*
X119051066Y-62403566D01*
X119002403Y-62436082D01*
X118945000Y-62447500D01*
X118645000Y-62447500D01*
X118587597Y-62436082D01*
X118538934Y-62403566D01*
X118506418Y-62354903D01*
X118495000Y-62297500D01*
X118495000Y-60547500D01*
X118506418Y-60490097D01*
X118538934Y-60441434D01*
X118587597Y-60408918D01*
X118645000Y-60397500D01*
X118945000Y-60397500D01*
X119002403Y-60408918D01*
G37*
G36*
X120272403Y-60408918D02*
G01*
X120321066Y-60441434D01*
X120353582Y-60490097D01*
X120365000Y-60547500D01*
X120365000Y-62297500D01*
X120353582Y-62354903D01*
X120321066Y-62403566D01*
X120272403Y-62436082D01*
X120215000Y-62447500D01*
X119915000Y-62447500D01*
X119857597Y-62436082D01*
X119808934Y-62403566D01*
X119776418Y-62354903D01*
X119765000Y-62297500D01*
X119765000Y-60547500D01*
X119776418Y-60490097D01*
X119808934Y-60441434D01*
X119857597Y-60408918D01*
X119915000Y-60397500D01*
X120215000Y-60397500D01*
X120272403Y-60408918D01*
G37*
G36*
X121542403Y-60408918D02*
G01*
X121591066Y-60441434D01*
X121623582Y-60490097D01*
X121635000Y-60547500D01*
X121635000Y-62297500D01*
X121623582Y-62354903D01*
X121591066Y-62403566D01*
X121542403Y-62436082D01*
X121485000Y-62447500D01*
X121185000Y-62447500D01*
X121127597Y-62436082D01*
X121078934Y-62403566D01*
X121046418Y-62354903D01*
X121035000Y-62297500D01*
X121035000Y-60547500D01*
X121046418Y-60490097D01*
X121078934Y-60441434D01*
X121127597Y-60408918D01*
X121185000Y-60397500D01*
X121485000Y-60397500D01*
X121542403Y-60408918D01*
G37*
G36*
X80360000Y-62250000D02*
G01*
X78860000Y-62250000D01*
X78860000Y-61350000D01*
X80360000Y-61350000D01*
X80360000Y-62250000D01*
G37*
G36*
X97860000Y-62250000D02*
G01*
X96360000Y-62250000D01*
X96360000Y-61350000D01*
X97860000Y-61350000D01*
X97860000Y-62250000D01*
G37*
G36*
X31465000Y-62080000D02*
G01*
X30305000Y-62080000D01*
X30305000Y-61780000D01*
X31465000Y-61780000D01*
X31465000Y-62080000D01*
G37*
G36*
X62354850Y-60100964D02*
G01*
X62405040Y-60106787D01*
X62422189Y-60114359D01*
X62445671Y-60119030D01*
X62470810Y-60135827D01*
X62490696Y-60144608D01*
X62504277Y-60158189D01*
X62526777Y-60173223D01*
X62541810Y-60195722D01*
X62555391Y-60209303D01*
X62564170Y-60229186D01*
X62580970Y-60254329D01*
X62585641Y-60277812D01*
X62593212Y-60294959D01*
X62599033Y-60345139D01*
X62600000Y-60350000D01*
X62600000Y-61650000D01*
X62599032Y-61654863D01*
X62593212Y-61705040D01*
X62585641Y-61722185D01*
X62580970Y-61745671D01*
X62564169Y-61770815D01*
X62555391Y-61790696D01*
X62541812Y-61804274D01*
X62526777Y-61826777D01*
X62504274Y-61841812D01*
X62490696Y-61855391D01*
X62470815Y-61864169D01*
X62445671Y-61880970D01*
X62422185Y-61885641D01*
X62405040Y-61893212D01*
X62354861Y-61899032D01*
X62350000Y-61900000D01*
X61525000Y-61900000D01*
X61520138Y-61899032D01*
X61469959Y-61893212D01*
X61452812Y-61885641D01*
X61429329Y-61880970D01*
X61404186Y-61864170D01*
X61384303Y-61855391D01*
X61370722Y-61841810D01*
X61348223Y-61826777D01*
X61333189Y-61804277D01*
X61319608Y-61790696D01*
X61310827Y-61770810D01*
X61294030Y-61745671D01*
X61289359Y-61722189D01*
X61281787Y-61705040D01*
X61275964Y-61654849D01*
X61275000Y-61650000D01*
X61275000Y-60350000D01*
X61275964Y-60345150D01*
X61281787Y-60294959D01*
X61289359Y-60277808D01*
X61294030Y-60254329D01*
X61310826Y-60229191D01*
X61319608Y-60209303D01*
X61333191Y-60195719D01*
X61348223Y-60173223D01*
X61370719Y-60158191D01*
X61384303Y-60144608D01*
X61404191Y-60135826D01*
X61429329Y-60119030D01*
X61452808Y-60114359D01*
X61469959Y-60106787D01*
X61520151Y-60100964D01*
X61525000Y-60100000D01*
X62350000Y-60100000D01*
X62354850Y-60100964D01*
G37*
G36*
X65479850Y-60100964D02*
G01*
X65530040Y-60106787D01*
X65547189Y-60114359D01*
X65570671Y-60119030D01*
X65595810Y-60135827D01*
X65615696Y-60144608D01*
X65629277Y-60158189D01*
X65651777Y-60173223D01*
X65666810Y-60195722D01*
X65680391Y-60209303D01*
X65689170Y-60229186D01*
X65705970Y-60254329D01*
X65710641Y-60277812D01*
X65718212Y-60294959D01*
X65724033Y-60345139D01*
X65725000Y-60350000D01*
X65725000Y-61650000D01*
X65724032Y-61654863D01*
X65718212Y-61705040D01*
X65710641Y-61722185D01*
X65705970Y-61745671D01*
X65689169Y-61770815D01*
X65680391Y-61790696D01*
X65666812Y-61804274D01*
X65651777Y-61826777D01*
X65629274Y-61841812D01*
X65615696Y-61855391D01*
X65595815Y-61864169D01*
X65570671Y-61880970D01*
X65547185Y-61885641D01*
X65530040Y-61893212D01*
X65479861Y-61899032D01*
X65475000Y-61900000D01*
X64650000Y-61900000D01*
X64645138Y-61899032D01*
X64594959Y-61893212D01*
X64577812Y-61885641D01*
X64554329Y-61880970D01*
X64529186Y-61864170D01*
X64509303Y-61855391D01*
X64495722Y-61841810D01*
X64473223Y-61826777D01*
X64458189Y-61804277D01*
X64444608Y-61790696D01*
X64435827Y-61770810D01*
X64419030Y-61745671D01*
X64414359Y-61722189D01*
X64406787Y-61705040D01*
X64400964Y-61654849D01*
X64400000Y-61650000D01*
X64400000Y-60350000D01*
X64400964Y-60345150D01*
X64406787Y-60294959D01*
X64414359Y-60277808D01*
X64419030Y-60254329D01*
X64435826Y-60229191D01*
X64444608Y-60209303D01*
X64458191Y-60195719D01*
X64473223Y-60173223D01*
X64495719Y-60158191D01*
X64509303Y-60144608D01*
X64529191Y-60135826D01*
X64554329Y-60119030D01*
X64577808Y-60114359D01*
X64594959Y-60106787D01*
X64645151Y-60100964D01*
X64650000Y-60100000D01*
X65475000Y-60100000D01*
X65479850Y-60100964D01*
G37*
G36*
X31465000Y-61580000D02*
G01*
X30305000Y-61580000D01*
X30305000Y-61280000D01*
X31465000Y-61280000D01*
X31465000Y-61580000D01*
G37*
G36*
X33854850Y-59600964D02*
G01*
X33905040Y-59606787D01*
X33922189Y-59614359D01*
X33945671Y-59619030D01*
X33970810Y-59635827D01*
X33990696Y-59644608D01*
X34004277Y-59658189D01*
X34026777Y-59673223D01*
X34041810Y-59695722D01*
X34055391Y-59709303D01*
X34064170Y-59729186D01*
X34080970Y-59754329D01*
X34085641Y-59777812D01*
X34093212Y-59794959D01*
X34099033Y-59845139D01*
X34100000Y-59850000D01*
X34100000Y-61150000D01*
X34099032Y-61154863D01*
X34093212Y-61205040D01*
X34085641Y-61222185D01*
X34080970Y-61245671D01*
X34064169Y-61270815D01*
X34055391Y-61290696D01*
X34041812Y-61304274D01*
X34026777Y-61326777D01*
X34004274Y-61341812D01*
X33990696Y-61355391D01*
X33970815Y-61364169D01*
X33945671Y-61380970D01*
X33922185Y-61385641D01*
X33905040Y-61393212D01*
X33854861Y-61399032D01*
X33850000Y-61400000D01*
X33025000Y-61400000D01*
X33020138Y-61399032D01*
X32969959Y-61393212D01*
X32952812Y-61385641D01*
X32929329Y-61380970D01*
X32904186Y-61364170D01*
X32884303Y-61355391D01*
X32870722Y-61341810D01*
X32848223Y-61326777D01*
X32833189Y-61304277D01*
X32819608Y-61290696D01*
X32810827Y-61270810D01*
X32794030Y-61245671D01*
X32789359Y-61222189D01*
X32781787Y-61205040D01*
X32775964Y-61154849D01*
X32775000Y-61150000D01*
X32775000Y-59850000D01*
X32775964Y-59845150D01*
X32781787Y-59794959D01*
X32789359Y-59777808D01*
X32794030Y-59754329D01*
X32810826Y-59729191D01*
X32819608Y-59709303D01*
X32833191Y-59695719D01*
X32848223Y-59673223D01*
X32870719Y-59658191D01*
X32884303Y-59644608D01*
X32904191Y-59635826D01*
X32929329Y-59619030D01*
X32952808Y-59614359D01*
X32969959Y-59606787D01*
X33020151Y-59600964D01*
X33025000Y-59600000D01*
X33850000Y-59600000D01*
X33854850Y-59600964D01*
G37*
G36*
X36979850Y-59600964D02*
G01*
X37030040Y-59606787D01*
X37047189Y-59614359D01*
X37070671Y-59619030D01*
X37095810Y-59635827D01*
X37115696Y-59644608D01*
X37129277Y-59658189D01*
X37151777Y-59673223D01*
X37166810Y-59695722D01*
X37180391Y-59709303D01*
X37189170Y-59729186D01*
X37205970Y-59754329D01*
X37210641Y-59777812D01*
X37218212Y-59794959D01*
X37224033Y-59845139D01*
X37225000Y-59850000D01*
X37225000Y-61150000D01*
X37224032Y-61154863D01*
X37218212Y-61205040D01*
X37210641Y-61222185D01*
X37205970Y-61245671D01*
X37189169Y-61270815D01*
X37180391Y-61290696D01*
X37166812Y-61304274D01*
X37151777Y-61326777D01*
X37129274Y-61341812D01*
X37115696Y-61355391D01*
X37095815Y-61364169D01*
X37070671Y-61380970D01*
X37047185Y-61385641D01*
X37030040Y-61393212D01*
X36979861Y-61399032D01*
X36975000Y-61400000D01*
X36150000Y-61400000D01*
X36145138Y-61399032D01*
X36094959Y-61393212D01*
X36077812Y-61385641D01*
X36054329Y-61380970D01*
X36029186Y-61364170D01*
X36009303Y-61355391D01*
X35995722Y-61341810D01*
X35973223Y-61326777D01*
X35958189Y-61304277D01*
X35944608Y-61290696D01*
X35935827Y-61270810D01*
X35919030Y-61245671D01*
X35914359Y-61222189D01*
X35906787Y-61205040D01*
X35900964Y-61154849D01*
X35900000Y-61150000D01*
X35900000Y-59850000D01*
X35900964Y-59845150D01*
X35906787Y-59794959D01*
X35914359Y-59777808D01*
X35919030Y-59754329D01*
X35935826Y-59729191D01*
X35944608Y-59709303D01*
X35958191Y-59695719D01*
X35973223Y-59673223D01*
X35995719Y-59658191D01*
X36009303Y-59644608D01*
X36029191Y-59635826D01*
X36054329Y-59619030D01*
X36077808Y-59614359D01*
X36094959Y-59606787D01*
X36145151Y-59600964D01*
X36150000Y-59600000D01*
X36975000Y-59600000D01*
X36979850Y-59600964D01*
G37*
G36*
X40432403Y-60661418D02*
G01*
X40481066Y-60693934D01*
X40513582Y-60742597D01*
X40525000Y-60800000D01*
X40525000Y-61100000D01*
X40513582Y-61157403D01*
X40481066Y-61206066D01*
X40432403Y-61238582D01*
X40375000Y-61250000D01*
X39350000Y-61250000D01*
X39292597Y-61238582D01*
X39243934Y-61206066D01*
X39211418Y-61157403D01*
X39200000Y-61100000D01*
X39200000Y-60800000D01*
X39211418Y-60742597D01*
X39243934Y-60693934D01*
X39292597Y-60661418D01*
X39350000Y-60650000D01*
X40375000Y-60650000D01*
X40432403Y-60661418D01*
G37*
G36*
X42707403Y-60661418D02*
G01*
X42756066Y-60693934D01*
X42788582Y-60742597D01*
X42800000Y-60800000D01*
X42800000Y-61100000D01*
X42788582Y-61157403D01*
X42756066Y-61206066D01*
X42707403Y-61238582D01*
X42650000Y-61250000D01*
X41625000Y-61250000D01*
X41567597Y-61238582D01*
X41518934Y-61206066D01*
X41486418Y-61157403D01*
X41475000Y-61100000D01*
X41475000Y-60800000D01*
X41486418Y-60742597D01*
X41518934Y-60693934D01*
X41567597Y-60661418D01*
X41625000Y-60650000D01*
X42650000Y-60650000D01*
X42707403Y-60661418D01*
G37*
G36*
X31465000Y-61080000D02*
G01*
X30305000Y-61080000D01*
X30305000Y-60780000D01*
X31465000Y-60780000D01*
X31465000Y-61080000D01*
G37*
G36*
X80360000Y-60750000D02*
G01*
X78860000Y-60750000D01*
X78860000Y-59850000D01*
X80360000Y-59850000D01*
X80360000Y-60750000D01*
G37*
G36*
X97860000Y-60750000D02*
G01*
X96360000Y-60750000D01*
X96360000Y-59850000D01*
X97860000Y-59850000D01*
X97860000Y-60750000D01*
G37*
G36*
X52250000Y-60650000D02*
G01*
X51750000Y-60650000D01*
X51750000Y-58650000D01*
X52250000Y-58650000D01*
X52250000Y-60650000D01*
G37*
G36*
X31465000Y-60580000D02*
G01*
X30305000Y-60580000D01*
X30305000Y-60280000D01*
X31465000Y-60280000D01*
X31465000Y-60580000D01*
G37*
G36*
X88850000Y-60450000D02*
G01*
X85950000Y-60450000D01*
X85950000Y-57550000D01*
X88850000Y-57550000D01*
X88850000Y-60450000D01*
G37*
G36*
X40432403Y-59711418D02*
G01*
X40481066Y-59743934D01*
X40513582Y-59792597D01*
X40525000Y-59850000D01*
X40525000Y-60150000D01*
X40513582Y-60207403D01*
X40481066Y-60256066D01*
X40432403Y-60288582D01*
X40375000Y-60300000D01*
X39350000Y-60300000D01*
X39292597Y-60288582D01*
X39243934Y-60256066D01*
X39211418Y-60207403D01*
X39200000Y-60150000D01*
X39200000Y-59850000D01*
X39211418Y-59792597D01*
X39243934Y-59743934D01*
X39292597Y-59711418D01*
X39350000Y-59700000D01*
X40375000Y-59700000D01*
X40432403Y-59711418D01*
G37*
G36*
X70207403Y-58773918D02*
G01*
X70256066Y-58806434D01*
X70288582Y-58855097D01*
X70300000Y-58912500D01*
X70300000Y-60087500D01*
X70288582Y-60144903D01*
X70256066Y-60193566D01*
X70207403Y-60226082D01*
X70150000Y-60237500D01*
X69850000Y-60237500D01*
X69792597Y-60226082D01*
X69743934Y-60193566D01*
X69711418Y-60144903D01*
X69700000Y-60087500D01*
X69700000Y-58912500D01*
X69711418Y-58855097D01*
X69743934Y-58806434D01*
X69792597Y-58773918D01*
X69850000Y-58762500D01*
X70150000Y-58762500D01*
X70207403Y-58773918D01*
G37*
G36*
X72107403Y-58773918D02*
G01*
X72156066Y-58806434D01*
X72188582Y-58855097D01*
X72200000Y-58912500D01*
X72200000Y-60087500D01*
X72188582Y-60144903D01*
X72156066Y-60193566D01*
X72107403Y-60226082D01*
X72050000Y-60237500D01*
X71750000Y-60237500D01*
X71692597Y-60226082D01*
X71643934Y-60193566D01*
X71611418Y-60144903D01*
X71600000Y-60087500D01*
X71600000Y-58912500D01*
X71611418Y-58855097D01*
X71643934Y-58806434D01*
X71692597Y-58773918D01*
X71750000Y-58762500D01*
X72050000Y-58762500D01*
X72107403Y-58773918D01*
G37*
G36*
X74207403Y-58773918D02*
G01*
X74256066Y-58806434D01*
X74288582Y-58855097D01*
X74300000Y-58912500D01*
X74300000Y-60087500D01*
X74288582Y-60144903D01*
X74256066Y-60193566D01*
X74207403Y-60226082D01*
X74150000Y-60237500D01*
X73850000Y-60237500D01*
X73792597Y-60226082D01*
X73743934Y-60193566D01*
X73711418Y-60144903D01*
X73700000Y-60087500D01*
X73700000Y-58912500D01*
X73711418Y-58855097D01*
X73743934Y-58806434D01*
X73792597Y-58773918D01*
X73850000Y-58762500D01*
X74150000Y-58762500D01*
X74207403Y-58773918D01*
G37*
G36*
X76107403Y-58773918D02*
G01*
X76156066Y-58806434D01*
X76188582Y-58855097D01*
X76200000Y-58912500D01*
X76200000Y-60087500D01*
X76188582Y-60144903D01*
X76156066Y-60193566D01*
X76107403Y-60226082D01*
X76050000Y-60237500D01*
X75750000Y-60237500D01*
X75692597Y-60226082D01*
X75643934Y-60193566D01*
X75611418Y-60144903D01*
X75600000Y-60087500D01*
X75600000Y-58912500D01*
X75611418Y-58855097D01*
X75643934Y-58806434D01*
X75692597Y-58773918D01*
X75750000Y-58762500D01*
X76050000Y-58762500D01*
X76107403Y-58773918D01*
G37*
G36*
X100629850Y-58800964D02*
G01*
X100680040Y-58806787D01*
X100697189Y-58814359D01*
X100720671Y-58819030D01*
X100745810Y-58835827D01*
X100765696Y-58844608D01*
X100779277Y-58858189D01*
X100801777Y-58873223D01*
X100816810Y-58895722D01*
X100830391Y-58909303D01*
X100839170Y-58929186D01*
X100855970Y-58954329D01*
X100860641Y-58977812D01*
X100868212Y-58994959D01*
X100874033Y-59045139D01*
X100875000Y-59050000D01*
X100875000Y-59850000D01*
X100874032Y-59854863D01*
X100868212Y-59905040D01*
X100860641Y-59922185D01*
X100855970Y-59945671D01*
X100839169Y-59970815D01*
X100830391Y-59990696D01*
X100816812Y-60004274D01*
X100801777Y-60026777D01*
X100779274Y-60041812D01*
X100765696Y-60055391D01*
X100745815Y-60064169D01*
X100720671Y-60080970D01*
X100697185Y-60085641D01*
X100680040Y-60093212D01*
X100629861Y-60099032D01*
X100625000Y-60100000D01*
X99375000Y-60100000D01*
X99370138Y-60099032D01*
X99319959Y-60093212D01*
X99302812Y-60085641D01*
X99279329Y-60080970D01*
X99254186Y-60064170D01*
X99234303Y-60055391D01*
X99220722Y-60041810D01*
X99198223Y-60026777D01*
X99183189Y-60004277D01*
X99169608Y-59990696D01*
X99160827Y-59970810D01*
X99144030Y-59945671D01*
X99139359Y-59922189D01*
X99131787Y-59905040D01*
X99125964Y-59854849D01*
X99125000Y-59850000D01*
X99125000Y-59050000D01*
X99125964Y-59045150D01*
X99131787Y-58994959D01*
X99139359Y-58977808D01*
X99144030Y-58954329D01*
X99160826Y-58929191D01*
X99169608Y-58909303D01*
X99183191Y-58895719D01*
X99198223Y-58873223D01*
X99220719Y-58858191D01*
X99234303Y-58844608D01*
X99254191Y-58835826D01*
X99279329Y-58819030D01*
X99302808Y-58814359D01*
X99319959Y-58806787D01*
X99370151Y-58800964D01*
X99375000Y-58800000D01*
X100625000Y-58800000D01*
X100629850Y-58800964D01*
G37*
G36*
X103129850Y-58800964D02*
G01*
X103180040Y-58806787D01*
X103197189Y-58814359D01*
X103220671Y-58819030D01*
X103245810Y-58835827D01*
X103265696Y-58844608D01*
X103279277Y-58858189D01*
X103301777Y-58873223D01*
X103316810Y-58895722D01*
X103330391Y-58909303D01*
X103339170Y-58929186D01*
X103355970Y-58954329D01*
X103360641Y-58977812D01*
X103368212Y-58994959D01*
X103374033Y-59045139D01*
X103375000Y-59050000D01*
X103375000Y-59850000D01*
X103374032Y-59854863D01*
X103368212Y-59905040D01*
X103360641Y-59922185D01*
X103355970Y-59945671D01*
X103339169Y-59970815D01*
X103330391Y-59990696D01*
X103316812Y-60004274D01*
X103301777Y-60026777D01*
X103279274Y-60041812D01*
X103265696Y-60055391D01*
X103245815Y-60064169D01*
X103220671Y-60080970D01*
X103197185Y-60085641D01*
X103180040Y-60093212D01*
X103129861Y-60099032D01*
X103125000Y-60100000D01*
X101875000Y-60100000D01*
X101870138Y-60099032D01*
X101819959Y-60093212D01*
X101802812Y-60085641D01*
X101779329Y-60080970D01*
X101754186Y-60064170D01*
X101734303Y-60055391D01*
X101720722Y-60041810D01*
X101698223Y-60026777D01*
X101683189Y-60004277D01*
X101669608Y-59990696D01*
X101660827Y-59970810D01*
X101644030Y-59945671D01*
X101639359Y-59922189D01*
X101631787Y-59905040D01*
X101625964Y-59854849D01*
X101625000Y-59850000D01*
X101625000Y-59050000D01*
X101625964Y-59045150D01*
X101631787Y-58994959D01*
X101639359Y-58977808D01*
X101644030Y-58954329D01*
X101660826Y-58929191D01*
X101669608Y-58909303D01*
X101683191Y-58895719D01*
X101698223Y-58873223D01*
X101720719Y-58858191D01*
X101734303Y-58844608D01*
X101754191Y-58835826D01*
X101779329Y-58819030D01*
X101802808Y-58814359D01*
X101819959Y-58806787D01*
X101870151Y-58800964D01*
X101875000Y-58800000D01*
X103125000Y-58800000D01*
X103129850Y-58800964D01*
G37*
G36*
X31465000Y-60080000D02*
G01*
X30305000Y-60080000D01*
X30305000Y-59780000D01*
X31465000Y-59780000D01*
X31465000Y-60080000D01*
G37*
G36*
X57304850Y-58125964D02*
G01*
X57355040Y-58131787D01*
X57372189Y-58139359D01*
X57395671Y-58144030D01*
X57420810Y-58160827D01*
X57440696Y-58169608D01*
X57454277Y-58183189D01*
X57476777Y-58198223D01*
X57491810Y-58220722D01*
X57505391Y-58234303D01*
X57514170Y-58254186D01*
X57530970Y-58279329D01*
X57535641Y-58302812D01*
X57543212Y-58319959D01*
X57549033Y-58370139D01*
X57550000Y-58375000D01*
X57550000Y-59625000D01*
X57549032Y-59629863D01*
X57543212Y-59680040D01*
X57535641Y-59697185D01*
X57530970Y-59720671D01*
X57514169Y-59745815D01*
X57505391Y-59765696D01*
X57491812Y-59779274D01*
X57476777Y-59801777D01*
X57454274Y-59816812D01*
X57440696Y-59830391D01*
X57420815Y-59839169D01*
X57395671Y-59855970D01*
X57372185Y-59860641D01*
X57355040Y-59868212D01*
X57304861Y-59874032D01*
X57300000Y-59875000D01*
X56500000Y-59875000D01*
X56495138Y-59874032D01*
X56444959Y-59868212D01*
X56427812Y-59860641D01*
X56404329Y-59855970D01*
X56379186Y-59839170D01*
X56359303Y-59830391D01*
X56345722Y-59816810D01*
X56323223Y-59801777D01*
X56308189Y-59779277D01*
X56294608Y-59765696D01*
X56285827Y-59745810D01*
X56269030Y-59720671D01*
X56264359Y-59697189D01*
X56256787Y-59680040D01*
X56250964Y-59629849D01*
X56250000Y-59625000D01*
X56250000Y-58375000D01*
X56250964Y-58370150D01*
X56256787Y-58319959D01*
X56264359Y-58302808D01*
X56269030Y-58279329D01*
X56285826Y-58254191D01*
X56294608Y-58234303D01*
X56308191Y-58220719D01*
X56323223Y-58198223D01*
X56345719Y-58183191D01*
X56359303Y-58169608D01*
X56379191Y-58160826D01*
X56404329Y-58144030D01*
X56427808Y-58139359D01*
X56444959Y-58131787D01*
X56495151Y-58125964D01*
X56500000Y-58125000D01*
X57300000Y-58125000D01*
X57304850Y-58125964D01*
G37*
G36*
X60404850Y-58125964D02*
G01*
X60455040Y-58131787D01*
X60472189Y-58139359D01*
X60495671Y-58144030D01*
X60520810Y-58160827D01*
X60540696Y-58169608D01*
X60554277Y-58183189D01*
X60576777Y-58198223D01*
X60591810Y-58220722D01*
X60605391Y-58234303D01*
X60614170Y-58254186D01*
X60630970Y-58279329D01*
X60635641Y-58302812D01*
X60643212Y-58319959D01*
X60649033Y-58370139D01*
X60650000Y-58375000D01*
X60650000Y-59625000D01*
X60649032Y-59629863D01*
X60643212Y-59680040D01*
X60635641Y-59697185D01*
X60630970Y-59720671D01*
X60614169Y-59745815D01*
X60605391Y-59765696D01*
X60591812Y-59779274D01*
X60576777Y-59801777D01*
X60554274Y-59816812D01*
X60540696Y-59830391D01*
X60520815Y-59839169D01*
X60495671Y-59855970D01*
X60472185Y-59860641D01*
X60455040Y-59868212D01*
X60404861Y-59874032D01*
X60400000Y-59875000D01*
X59600000Y-59875000D01*
X59595138Y-59874032D01*
X59544959Y-59868212D01*
X59527812Y-59860641D01*
X59504329Y-59855970D01*
X59479186Y-59839170D01*
X59459303Y-59830391D01*
X59445722Y-59816810D01*
X59423223Y-59801777D01*
X59408189Y-59779277D01*
X59394608Y-59765696D01*
X59385827Y-59745810D01*
X59369030Y-59720671D01*
X59364359Y-59697189D01*
X59356787Y-59680040D01*
X59350964Y-59629849D01*
X59350000Y-59625000D01*
X59350000Y-58375000D01*
X59350964Y-58370150D01*
X59356787Y-58319959D01*
X59364359Y-58302808D01*
X59369030Y-58279329D01*
X59385826Y-58254191D01*
X59394608Y-58234303D01*
X59408191Y-58220719D01*
X59423223Y-58198223D01*
X59445719Y-58183191D01*
X59459303Y-58169608D01*
X59479191Y-58160826D01*
X59504329Y-58144030D01*
X59527808Y-58139359D01*
X59544959Y-58131787D01*
X59595151Y-58125964D01*
X59600000Y-58125000D01*
X60400000Y-58125000D01*
X60404850Y-58125964D01*
G37*
G36*
X142280000Y-59780000D02*
G01*
X140720000Y-59780000D01*
X140720000Y-58220000D01*
X142280000Y-58220000D01*
X142280000Y-59780000D01*
G37*
G36*
X68154850Y-58400964D02*
G01*
X68205040Y-58406787D01*
X68222189Y-58414359D01*
X68245671Y-58419030D01*
X68270810Y-58435827D01*
X68290696Y-58444608D01*
X68304277Y-58458189D01*
X68326777Y-58473223D01*
X68341810Y-58495722D01*
X68355391Y-58509303D01*
X68364170Y-58529186D01*
X68380970Y-58554329D01*
X68385641Y-58577812D01*
X68393212Y-58594959D01*
X68399033Y-58645139D01*
X68400000Y-58650000D01*
X68400000Y-59475000D01*
X68399032Y-59479863D01*
X68393212Y-59530040D01*
X68385641Y-59547185D01*
X68380970Y-59570671D01*
X68364169Y-59595815D01*
X68355391Y-59615696D01*
X68341812Y-59629274D01*
X68326777Y-59651777D01*
X68304274Y-59666812D01*
X68290696Y-59680391D01*
X68270815Y-59689169D01*
X68245671Y-59705970D01*
X68222185Y-59710641D01*
X68205040Y-59718212D01*
X68154861Y-59724032D01*
X68150000Y-59725000D01*
X66850000Y-59725000D01*
X66845138Y-59724032D01*
X66794959Y-59718212D01*
X66777812Y-59710641D01*
X66754329Y-59705970D01*
X66729186Y-59689170D01*
X66709303Y-59680391D01*
X66695722Y-59666810D01*
X66673223Y-59651777D01*
X66658189Y-59629277D01*
X66644608Y-59615696D01*
X66635827Y-59595810D01*
X66619030Y-59570671D01*
X66614359Y-59547189D01*
X66606787Y-59530040D01*
X66600964Y-59479849D01*
X66600000Y-59475000D01*
X66600000Y-58650000D01*
X66600964Y-58645150D01*
X66606787Y-58594959D01*
X66614359Y-58577808D01*
X66619030Y-58554329D01*
X66635826Y-58529191D01*
X66644608Y-58509303D01*
X66658191Y-58495719D01*
X66673223Y-58473223D01*
X66695719Y-58458191D01*
X66709303Y-58444608D01*
X66729191Y-58435826D01*
X66754329Y-58419030D01*
X66777808Y-58414359D01*
X66794959Y-58406787D01*
X66845151Y-58400964D01*
X66850000Y-58400000D01*
X68150000Y-58400000D01*
X68154850Y-58400964D01*
G37*
G36*
X45154850Y-58275964D02*
G01*
X45205040Y-58281787D01*
X45222189Y-58289359D01*
X45245671Y-58294030D01*
X45270810Y-58310827D01*
X45290696Y-58319608D01*
X45304277Y-58333189D01*
X45326777Y-58348223D01*
X45341810Y-58370722D01*
X45355391Y-58384303D01*
X45364170Y-58404186D01*
X45380970Y-58429329D01*
X45385641Y-58452812D01*
X45393212Y-58469959D01*
X45399033Y-58520139D01*
X45400000Y-58525000D01*
X45400000Y-59350000D01*
X45399032Y-59354863D01*
X45393212Y-59405040D01*
X45385641Y-59422185D01*
X45380970Y-59445671D01*
X45364169Y-59470815D01*
X45355391Y-59490696D01*
X45341812Y-59504274D01*
X45326777Y-59526777D01*
X45304274Y-59541812D01*
X45290696Y-59555391D01*
X45270815Y-59564169D01*
X45245671Y-59580970D01*
X45222185Y-59585641D01*
X45205040Y-59593212D01*
X45154861Y-59599032D01*
X45150000Y-59600000D01*
X43850000Y-59600000D01*
X43845138Y-59599032D01*
X43794959Y-59593212D01*
X43777812Y-59585641D01*
X43754329Y-59580970D01*
X43729186Y-59564170D01*
X43709303Y-59555391D01*
X43695722Y-59541810D01*
X43673223Y-59526777D01*
X43658189Y-59504277D01*
X43644608Y-59490696D01*
X43635827Y-59470810D01*
X43619030Y-59445671D01*
X43614359Y-59422189D01*
X43606787Y-59405040D01*
X43600964Y-59354849D01*
X43600000Y-59350000D01*
X43600000Y-58525000D01*
X43600964Y-58520150D01*
X43606787Y-58469959D01*
X43614359Y-58452808D01*
X43619030Y-58429329D01*
X43635826Y-58404191D01*
X43644608Y-58384303D01*
X43658191Y-58370719D01*
X43673223Y-58348223D01*
X43695719Y-58333191D01*
X43709303Y-58319608D01*
X43729191Y-58310826D01*
X43754329Y-58294030D01*
X43777808Y-58289359D01*
X43794959Y-58281787D01*
X43845151Y-58275964D01*
X43850000Y-58275000D01*
X45150000Y-58275000D01*
X45154850Y-58275964D01*
G37*
G36*
X47654850Y-58275964D02*
G01*
X47705040Y-58281787D01*
X47722189Y-58289359D01*
X47745671Y-58294030D01*
X47770810Y-58310827D01*
X47790696Y-58319608D01*
X47804277Y-58333189D01*
X47826777Y-58348223D01*
X47841810Y-58370722D01*
X47855391Y-58384303D01*
X47864170Y-58404186D01*
X47880970Y-58429329D01*
X47885641Y-58452812D01*
X47893212Y-58469959D01*
X47899033Y-58520139D01*
X47900000Y-58525000D01*
X47900000Y-59350000D01*
X47899032Y-59354863D01*
X47893212Y-59405040D01*
X47885641Y-59422185D01*
X47880970Y-59445671D01*
X47864169Y-59470815D01*
X47855391Y-59490696D01*
X47841812Y-59504274D01*
X47826777Y-59526777D01*
X47804274Y-59541812D01*
X47790696Y-59555391D01*
X47770815Y-59564169D01*
X47745671Y-59580970D01*
X47722185Y-59585641D01*
X47705040Y-59593212D01*
X47654861Y-59599032D01*
X47650000Y-59600000D01*
X46350000Y-59600000D01*
X46345138Y-59599032D01*
X46294959Y-59593212D01*
X46277812Y-59585641D01*
X46254329Y-59580970D01*
X46229186Y-59564170D01*
X46209303Y-59555391D01*
X46195722Y-59541810D01*
X46173223Y-59526777D01*
X46158189Y-59504277D01*
X46144608Y-59490696D01*
X46135827Y-59470810D01*
X46119030Y-59445671D01*
X46114359Y-59422189D01*
X46106787Y-59405040D01*
X46100964Y-59354849D01*
X46100000Y-59350000D01*
X46100000Y-58525000D01*
X46100964Y-58520150D01*
X46106787Y-58469959D01*
X46114359Y-58452808D01*
X46119030Y-58429329D01*
X46135826Y-58404191D01*
X46144608Y-58384303D01*
X46158191Y-58370719D01*
X46173223Y-58348223D01*
X46195719Y-58333191D01*
X46209303Y-58319608D01*
X46229191Y-58310826D01*
X46254329Y-58294030D01*
X46277808Y-58289359D01*
X46294959Y-58281787D01*
X46345151Y-58275964D01*
X46350000Y-58275000D01*
X47650000Y-58275000D01*
X47654850Y-58275964D01*
G37*
G36*
X55154850Y-58275964D02*
G01*
X55205040Y-58281787D01*
X55222189Y-58289359D01*
X55245671Y-58294030D01*
X55270810Y-58310827D01*
X55290696Y-58319608D01*
X55304277Y-58333189D01*
X55326777Y-58348223D01*
X55341810Y-58370722D01*
X55355391Y-58384303D01*
X55364170Y-58404186D01*
X55380970Y-58429329D01*
X55385641Y-58452812D01*
X55393212Y-58469959D01*
X55399033Y-58520139D01*
X55400000Y-58525000D01*
X55400000Y-59350000D01*
X55399032Y-59354863D01*
X55393212Y-59405040D01*
X55385641Y-59422185D01*
X55380970Y-59445671D01*
X55364169Y-59470815D01*
X55355391Y-59490696D01*
X55341812Y-59504274D01*
X55326777Y-59526777D01*
X55304274Y-59541812D01*
X55290696Y-59555391D01*
X55270815Y-59564169D01*
X55245671Y-59580970D01*
X55222185Y-59585641D01*
X55205040Y-59593212D01*
X55154861Y-59599032D01*
X55150000Y-59600000D01*
X53850000Y-59600000D01*
X53845138Y-59599032D01*
X53794959Y-59593212D01*
X53777812Y-59585641D01*
X53754329Y-59580970D01*
X53729186Y-59564170D01*
X53709303Y-59555391D01*
X53695722Y-59541810D01*
X53673223Y-59526777D01*
X53658189Y-59504277D01*
X53644608Y-59490696D01*
X53635827Y-59470810D01*
X53619030Y-59445671D01*
X53614359Y-59422189D01*
X53606787Y-59405040D01*
X53600964Y-59354849D01*
X53600000Y-59350000D01*
X53600000Y-58525000D01*
X53600964Y-58520150D01*
X53606787Y-58469959D01*
X53614359Y-58452808D01*
X53619030Y-58429329D01*
X53635826Y-58404191D01*
X53644608Y-58384303D01*
X53658191Y-58370719D01*
X53673223Y-58348223D01*
X53695719Y-58333191D01*
X53709303Y-58319608D01*
X53729191Y-58310826D01*
X53754329Y-58294030D01*
X53777808Y-58289359D01*
X53794959Y-58281787D01*
X53845151Y-58275964D01*
X53850000Y-58275000D01*
X55150000Y-58275000D01*
X55154850Y-58275964D01*
G37*
G36*
X31465000Y-59580000D02*
G01*
X30305000Y-59580000D01*
X30305000Y-59280000D01*
X31465000Y-59280000D01*
X31465000Y-59580000D01*
G37*
G36*
X40432403Y-58761418D02*
G01*
X40481066Y-58793934D01*
X40513582Y-58842597D01*
X40525000Y-58900000D01*
X40525000Y-59200000D01*
X40513582Y-59257403D01*
X40481066Y-59306066D01*
X40432403Y-59338582D01*
X40375000Y-59350000D01*
X39350000Y-59350000D01*
X39292597Y-59338582D01*
X39243934Y-59306066D01*
X39211418Y-59257403D01*
X39200000Y-59200000D01*
X39200000Y-58900000D01*
X39211418Y-58842597D01*
X39243934Y-58793934D01*
X39292597Y-58761418D01*
X39350000Y-58750000D01*
X40375000Y-58750000D01*
X40432403Y-58761418D01*
G37*
G36*
X42707403Y-58761418D02*
G01*
X42756066Y-58793934D01*
X42788582Y-58842597D01*
X42800000Y-58900000D01*
X42800000Y-59200000D01*
X42788582Y-59257403D01*
X42756066Y-59306066D01*
X42707403Y-59338582D01*
X42650000Y-59350000D01*
X41625000Y-59350000D01*
X41567597Y-59338582D01*
X41518934Y-59306066D01*
X41486418Y-59257403D01*
X41475000Y-59200000D01*
X41475000Y-58900000D01*
X41486418Y-58842597D01*
X41518934Y-58793934D01*
X41567597Y-58761418D01*
X41625000Y-58750000D01*
X42650000Y-58750000D01*
X42707403Y-58761418D01*
G37*
G36*
X80360000Y-59250000D02*
G01*
X78860000Y-59250000D01*
X78860000Y-58350000D01*
X80360000Y-58350000D01*
X80360000Y-59250000D01*
G37*
G36*
X97860000Y-59250000D02*
G01*
X96360000Y-59250000D01*
X96360000Y-58350000D01*
X97860000Y-58350000D01*
X97860000Y-59250000D01*
G37*
G36*
X62898918Y-58279758D02*
G01*
X62919194Y-58293306D01*
X62932742Y-58313582D01*
X62937500Y-58337500D01*
X62937500Y-59037500D01*
X62932742Y-59061418D01*
X62919194Y-59081694D01*
X62898918Y-59095242D01*
X62875000Y-59100000D01*
X62750000Y-59100000D01*
X62726082Y-59095242D01*
X62705806Y-59081694D01*
X62692258Y-59061418D01*
X62687500Y-59037500D01*
X62687500Y-58337500D01*
X62692258Y-58313582D01*
X62705806Y-58293306D01*
X62726082Y-58279758D01*
X62750000Y-58275000D01*
X62875000Y-58275000D01*
X62898918Y-58279758D01*
G37*
G36*
X63398918Y-58279758D02*
G01*
X63419194Y-58293306D01*
X63432742Y-58313582D01*
X63437500Y-58337500D01*
X63437500Y-59037500D01*
X63432742Y-59061418D01*
X63419194Y-59081694D01*
X63398918Y-59095242D01*
X63375000Y-59100000D01*
X63250000Y-59100000D01*
X63226082Y-59095242D01*
X63205806Y-59081694D01*
X63192258Y-59061418D01*
X63187500Y-59037500D01*
X63187500Y-58337500D01*
X63192258Y-58313582D01*
X63205806Y-58293306D01*
X63226082Y-58279758D01*
X63250000Y-58275000D01*
X63375000Y-58275000D01*
X63398918Y-58279758D01*
G37*
G36*
X63898918Y-58279758D02*
G01*
X63919194Y-58293306D01*
X63932742Y-58313582D01*
X63937500Y-58337500D01*
X63937500Y-59037500D01*
X63932742Y-59061418D01*
X63919194Y-59081694D01*
X63898918Y-59095242D01*
X63875000Y-59100000D01*
X63750000Y-59100000D01*
X63726082Y-59095242D01*
X63705806Y-59081694D01*
X63692258Y-59061418D01*
X63687500Y-59037500D01*
X63687500Y-58337500D01*
X63692258Y-58313582D01*
X63705806Y-58293306D01*
X63726082Y-58279758D01*
X63750000Y-58275000D01*
X63875000Y-58275000D01*
X63898918Y-58279758D01*
G37*
G36*
X64398918Y-58279758D02*
G01*
X64419194Y-58293306D01*
X64432742Y-58313582D01*
X64437500Y-58337500D01*
X64437500Y-59037500D01*
X64432742Y-59061418D01*
X64419194Y-59081694D01*
X64398918Y-59095242D01*
X64375000Y-59100000D01*
X64250000Y-59100000D01*
X64226082Y-59095242D01*
X64205806Y-59081694D01*
X64192258Y-59061418D01*
X64187500Y-59037500D01*
X64187500Y-58337500D01*
X64192258Y-58313582D01*
X64205806Y-58293306D01*
X64226082Y-58279758D01*
X64250000Y-58275000D01*
X64375000Y-58275000D01*
X64398918Y-58279758D01*
G37*
G36*
X31465000Y-59080000D02*
G01*
X30305000Y-59080000D01*
X30305000Y-58480000D01*
X31465000Y-58480000D01*
X31465000Y-59080000D01*
G37*
G36*
X33654850Y-57150964D02*
G01*
X33705040Y-57156787D01*
X33722189Y-57164359D01*
X33745671Y-57169030D01*
X33770810Y-57185827D01*
X33790696Y-57194608D01*
X33804277Y-57208189D01*
X33826777Y-57223223D01*
X33841810Y-57245722D01*
X33855391Y-57259303D01*
X33864170Y-57279186D01*
X33880970Y-57304329D01*
X33885641Y-57327812D01*
X33893212Y-57344959D01*
X33899033Y-57395139D01*
X33900000Y-57400000D01*
X33900000Y-58600000D01*
X33899032Y-58604863D01*
X33893212Y-58655040D01*
X33885641Y-58672185D01*
X33880970Y-58695671D01*
X33864169Y-58720815D01*
X33855391Y-58740696D01*
X33841812Y-58754274D01*
X33826777Y-58776777D01*
X33804274Y-58791812D01*
X33790696Y-58805391D01*
X33770815Y-58814169D01*
X33745671Y-58830970D01*
X33722185Y-58835641D01*
X33705040Y-58843212D01*
X33654861Y-58849032D01*
X33650000Y-58850000D01*
X32850000Y-58850000D01*
X32845138Y-58849032D01*
X32794959Y-58843212D01*
X32777812Y-58835641D01*
X32754329Y-58830970D01*
X32729186Y-58814170D01*
X32709303Y-58805391D01*
X32695722Y-58791810D01*
X32673223Y-58776777D01*
X32658189Y-58754277D01*
X32644608Y-58740696D01*
X32635827Y-58720810D01*
X32619030Y-58695671D01*
X32614359Y-58672189D01*
X32606787Y-58655040D01*
X32600964Y-58604849D01*
X32600000Y-58600000D01*
X32600000Y-57400000D01*
X32600964Y-57395150D01*
X32606787Y-57344959D01*
X32614359Y-57327808D01*
X32619030Y-57304329D01*
X32635826Y-57279191D01*
X32644608Y-57259303D01*
X32658191Y-57245719D01*
X32673223Y-57223223D01*
X32695719Y-57208191D01*
X32709303Y-57194608D01*
X32729191Y-57185826D01*
X32754329Y-57169030D01*
X32777808Y-57164359D01*
X32794959Y-57156787D01*
X32845151Y-57150964D01*
X32850000Y-57150000D01*
X33650000Y-57150000D01*
X33654850Y-57150964D01*
G37*
G36*
X37154850Y-57150964D02*
G01*
X37205040Y-57156787D01*
X37222189Y-57164359D01*
X37245671Y-57169030D01*
X37270810Y-57185827D01*
X37290696Y-57194608D01*
X37304277Y-57208189D01*
X37326777Y-57223223D01*
X37341810Y-57245722D01*
X37355391Y-57259303D01*
X37364170Y-57279186D01*
X37380970Y-57304329D01*
X37385641Y-57327812D01*
X37393212Y-57344959D01*
X37399033Y-57395139D01*
X37400000Y-57400000D01*
X37400000Y-58600000D01*
X37399032Y-58604863D01*
X37393212Y-58655040D01*
X37385641Y-58672185D01*
X37380970Y-58695671D01*
X37364169Y-58720815D01*
X37355391Y-58740696D01*
X37341812Y-58754274D01*
X37326777Y-58776777D01*
X37304274Y-58791812D01*
X37290696Y-58805391D01*
X37270815Y-58814169D01*
X37245671Y-58830970D01*
X37222185Y-58835641D01*
X37205040Y-58843212D01*
X37154861Y-58849032D01*
X37150000Y-58850000D01*
X36350000Y-58850000D01*
X36345138Y-58849032D01*
X36294959Y-58843212D01*
X36277812Y-58835641D01*
X36254329Y-58830970D01*
X36229186Y-58814170D01*
X36209303Y-58805391D01*
X36195722Y-58791810D01*
X36173223Y-58776777D01*
X36158189Y-58754277D01*
X36144608Y-58740696D01*
X36135827Y-58720810D01*
X36119030Y-58695671D01*
X36114359Y-58672189D01*
X36106787Y-58655040D01*
X36100964Y-58604849D01*
X36100000Y-58600000D01*
X36100000Y-57400000D01*
X36100964Y-57395150D01*
X36106787Y-57344959D01*
X36114359Y-57327808D01*
X36119030Y-57304329D01*
X36135826Y-57279191D01*
X36144608Y-57259303D01*
X36158191Y-57245719D01*
X36173223Y-57223223D01*
X36195719Y-57208191D01*
X36209303Y-57194608D01*
X36229191Y-57185826D01*
X36254329Y-57169030D01*
X36277808Y-57164359D01*
X36294959Y-57156787D01*
X36345151Y-57150964D01*
X36350000Y-57150000D01*
X37150000Y-57150000D01*
X37154850Y-57150964D01*
G37*
G36*
X29939805Y-58012836D02*
G01*
X30007628Y-58051994D01*
X30063006Y-58107372D01*
X30102164Y-58175195D01*
X30122433Y-58250842D01*
X30122433Y-58329158D01*
X30102164Y-58404805D01*
X30063006Y-58472628D01*
X30007628Y-58528006D01*
X29939805Y-58567164D01*
X29864158Y-58587433D01*
X29785842Y-58587433D01*
X29710195Y-58567164D01*
X29642372Y-58528006D01*
X29586994Y-58472628D01*
X29547836Y-58404805D01*
X29527567Y-58329158D01*
X29527567Y-58250842D01*
X29547836Y-58175195D01*
X29586994Y-58107372D01*
X29642372Y-58051994D01*
X29710195Y-58012836D01*
X29785842Y-57992567D01*
X29864158Y-57992567D01*
X29939805Y-58012836D01*
G37*
G36*
X71157403Y-56898918D02*
G01*
X71206066Y-56931434D01*
X71238582Y-56980097D01*
X71250000Y-57037500D01*
X71250000Y-58212500D01*
X71238582Y-58269903D01*
X71206066Y-58318566D01*
X71157403Y-58351082D01*
X71100000Y-58362500D01*
X70800000Y-58362500D01*
X70742597Y-58351082D01*
X70693934Y-58318566D01*
X70661418Y-58269903D01*
X70650000Y-58212500D01*
X70650000Y-57037500D01*
X70661418Y-56980097D01*
X70693934Y-56931434D01*
X70742597Y-56898918D01*
X70800000Y-56887500D01*
X71100000Y-56887500D01*
X71157403Y-56898918D01*
G37*
G36*
X75157403Y-56898918D02*
G01*
X75206066Y-56931434D01*
X75238582Y-56980097D01*
X75250000Y-57037500D01*
X75250000Y-58212500D01*
X75238582Y-58269903D01*
X75206066Y-58318566D01*
X75157403Y-58351082D01*
X75100000Y-58362500D01*
X74800000Y-58362500D01*
X74742597Y-58351082D01*
X74693934Y-58318566D01*
X74661418Y-58269903D01*
X74650000Y-58212500D01*
X74650000Y-57037500D01*
X74661418Y-56980097D01*
X74693934Y-56931434D01*
X74742597Y-56898918D01*
X74800000Y-56887500D01*
X75100000Y-56887500D01*
X75157403Y-56898918D01*
G37*
G36*
X31465000Y-58280000D02*
G01*
X30305000Y-58280000D01*
X30305000Y-57680000D01*
X31465000Y-57680000D01*
X31465000Y-58280000D01*
G37*
G36*
X103154850Y-56900964D02*
G01*
X103205040Y-56906787D01*
X103222189Y-56914359D01*
X103245671Y-56919030D01*
X103270810Y-56935827D01*
X103290696Y-56944608D01*
X103304277Y-56958189D01*
X103326777Y-56973223D01*
X103341810Y-56995722D01*
X103355391Y-57009303D01*
X103364170Y-57029186D01*
X103380970Y-57054329D01*
X103385641Y-57077812D01*
X103393212Y-57094959D01*
X103399033Y-57145139D01*
X103400000Y-57150000D01*
X103400000Y-57975000D01*
X103399032Y-57979863D01*
X103393212Y-58030040D01*
X103385641Y-58047185D01*
X103380970Y-58070671D01*
X103364169Y-58095815D01*
X103355391Y-58115696D01*
X103341812Y-58129274D01*
X103326777Y-58151777D01*
X103304274Y-58166812D01*
X103290696Y-58180391D01*
X103270815Y-58189169D01*
X103245671Y-58205970D01*
X103222185Y-58210641D01*
X103205040Y-58218212D01*
X103154861Y-58224032D01*
X103150000Y-58225000D01*
X101850000Y-58225000D01*
X101845138Y-58224032D01*
X101794959Y-58218212D01*
X101777812Y-58210641D01*
X101754329Y-58205970D01*
X101729186Y-58189170D01*
X101709303Y-58180391D01*
X101695722Y-58166810D01*
X101673223Y-58151777D01*
X101658189Y-58129277D01*
X101644608Y-58115696D01*
X101635827Y-58095810D01*
X101619030Y-58070671D01*
X101614359Y-58047189D01*
X101606787Y-58030040D01*
X101600964Y-57979849D01*
X101600000Y-57975000D01*
X101600000Y-57150000D01*
X101600964Y-57145150D01*
X101606787Y-57094959D01*
X101614359Y-57077808D01*
X101619030Y-57054329D01*
X101635826Y-57029191D01*
X101644608Y-57009303D01*
X101658191Y-56995719D01*
X101673223Y-56973223D01*
X101695719Y-56958191D01*
X101709303Y-56944608D01*
X101729191Y-56935826D01*
X101754329Y-56919030D01*
X101777808Y-56914359D01*
X101794959Y-56906787D01*
X101845151Y-56900964D01*
X101850000Y-56900000D01*
X103150000Y-56900000D01*
X103154850Y-56900964D01*
G37*
G36*
X100629850Y-56900964D02*
G01*
X100680040Y-56906787D01*
X100697189Y-56914359D01*
X100720671Y-56919030D01*
X100745810Y-56935827D01*
X100765696Y-56944608D01*
X100779277Y-56958189D01*
X100801777Y-56973223D01*
X100816810Y-56995722D01*
X100830391Y-57009303D01*
X100839170Y-57029186D01*
X100855970Y-57054329D01*
X100860641Y-57077812D01*
X100868212Y-57094959D01*
X100874033Y-57145139D01*
X100875000Y-57150000D01*
X100875000Y-57950000D01*
X100874032Y-57954863D01*
X100868212Y-58005040D01*
X100860641Y-58022185D01*
X100855970Y-58045671D01*
X100839169Y-58070815D01*
X100830391Y-58090696D01*
X100816812Y-58104274D01*
X100801777Y-58126777D01*
X100779274Y-58141812D01*
X100765696Y-58155391D01*
X100745815Y-58164169D01*
X100720671Y-58180970D01*
X100697185Y-58185641D01*
X100680040Y-58193212D01*
X100629861Y-58199032D01*
X100625000Y-58200000D01*
X99375000Y-58200000D01*
X99370138Y-58199032D01*
X99319959Y-58193212D01*
X99302812Y-58185641D01*
X99279329Y-58180970D01*
X99254186Y-58164170D01*
X99234303Y-58155391D01*
X99220722Y-58141810D01*
X99198223Y-58126777D01*
X99183189Y-58104277D01*
X99169608Y-58090696D01*
X99160827Y-58070810D01*
X99144030Y-58045671D01*
X99139359Y-58022189D01*
X99131787Y-58005040D01*
X99125964Y-57954849D01*
X99125000Y-57950000D01*
X99125000Y-57150000D01*
X99125964Y-57145150D01*
X99131787Y-57094959D01*
X99139359Y-57077808D01*
X99144030Y-57054329D01*
X99160826Y-57029191D01*
X99169608Y-57009303D01*
X99183191Y-56995719D01*
X99198223Y-56973223D01*
X99220719Y-56958191D01*
X99234303Y-56944608D01*
X99254191Y-56935826D01*
X99279329Y-56919030D01*
X99302808Y-56914359D01*
X99319959Y-56906787D01*
X99370151Y-56900964D01*
X99375000Y-56900000D01*
X100625000Y-56900000D01*
X100629850Y-56900964D01*
G37*
G36*
X62498918Y-57879758D02*
G01*
X62519194Y-57893306D01*
X62532742Y-57913582D01*
X62537500Y-57937500D01*
X62537500Y-58062500D01*
X62532742Y-58086418D01*
X62519194Y-58106694D01*
X62498918Y-58120242D01*
X62475000Y-58125000D01*
X61775000Y-58125000D01*
X61751082Y-58120242D01*
X61730806Y-58106694D01*
X61717258Y-58086418D01*
X61712500Y-58062500D01*
X61712500Y-57937500D01*
X61717258Y-57913582D01*
X61730806Y-57893306D01*
X61751082Y-57879758D01*
X61775000Y-57875000D01*
X62475000Y-57875000D01*
X62498918Y-57879758D01*
G37*
G36*
X65373918Y-57879758D02*
G01*
X65394194Y-57893306D01*
X65407742Y-57913582D01*
X65412500Y-57937500D01*
X65412500Y-58062500D01*
X65407742Y-58086418D01*
X65394194Y-58106694D01*
X65373918Y-58120242D01*
X65350000Y-58125000D01*
X64650000Y-58125000D01*
X64626082Y-58120242D01*
X64605806Y-58106694D01*
X64592258Y-58086418D01*
X64587500Y-58062500D01*
X64587500Y-57937500D01*
X64592258Y-57913582D01*
X64605806Y-57893306D01*
X64626082Y-57879758D01*
X64650000Y-57875000D01*
X65350000Y-57875000D01*
X65373918Y-57879758D01*
G37*
G36*
X124625000Y-58000000D02*
G01*
X123375000Y-58000000D01*
X123375000Y-57000000D01*
X124625000Y-57000000D01*
X124625000Y-58000000D01*
G37*
G36*
X132375000Y-58000000D02*
G01*
X131125000Y-58000000D01*
X131125000Y-57000000D01*
X132375000Y-57000000D01*
X132375000Y-58000000D01*
G37*
G36*
X64177500Y-57865000D02*
G01*
X62947500Y-57865000D01*
X62947500Y-56635000D01*
X64177500Y-56635000D01*
X64177500Y-57865000D01*
G37*
G36*
X80360000Y-57750000D02*
G01*
X78860000Y-57750000D01*
X78860000Y-56850000D01*
X80360000Y-56850000D01*
X80360000Y-57750000D01*
G37*
G36*
X97860000Y-57750000D02*
G01*
X96360000Y-57750000D01*
X96360000Y-56850000D01*
X97860000Y-56850000D01*
X97860000Y-57750000D01*
G37*
G36*
X62498918Y-57379758D02*
G01*
X62519194Y-57393306D01*
X62532742Y-57413582D01*
X62537500Y-57437500D01*
X62537500Y-57562500D01*
X62532742Y-57586418D01*
X62519194Y-57606694D01*
X62498918Y-57620242D01*
X62475000Y-57625000D01*
X61775000Y-57625000D01*
X61751082Y-57620242D01*
X61730806Y-57606694D01*
X61717258Y-57586418D01*
X61712500Y-57562500D01*
X61712500Y-57437500D01*
X61717258Y-57413582D01*
X61730806Y-57393306D01*
X61751082Y-57379758D01*
X61775000Y-57375000D01*
X62475000Y-57375000D01*
X62498918Y-57379758D01*
G37*
G36*
X65373918Y-57379758D02*
G01*
X65394194Y-57393306D01*
X65407742Y-57413582D01*
X65412500Y-57437500D01*
X65412500Y-57562500D01*
X65407742Y-57586418D01*
X65394194Y-57606694D01*
X65373918Y-57620242D01*
X65350000Y-57625000D01*
X64650000Y-57625000D01*
X64626082Y-57620242D01*
X64605806Y-57606694D01*
X64592258Y-57586418D01*
X64587500Y-57562500D01*
X64587500Y-57437500D01*
X64592258Y-57413582D01*
X64605806Y-57393306D01*
X64626082Y-57379758D01*
X64650000Y-57375000D01*
X65350000Y-57375000D01*
X65373918Y-57379758D01*
G37*
G36*
X57304850Y-55625964D02*
G01*
X57355040Y-55631787D01*
X57372189Y-55639359D01*
X57395671Y-55644030D01*
X57420810Y-55660827D01*
X57440696Y-55669608D01*
X57454277Y-55683189D01*
X57476777Y-55698223D01*
X57491810Y-55720722D01*
X57505391Y-55734303D01*
X57514170Y-55754186D01*
X57530970Y-55779329D01*
X57535641Y-55802812D01*
X57543212Y-55819959D01*
X57549033Y-55870139D01*
X57550000Y-55875000D01*
X57550000Y-57125000D01*
X57549032Y-57129863D01*
X57543212Y-57180040D01*
X57535641Y-57197185D01*
X57530970Y-57220671D01*
X57514169Y-57245815D01*
X57505391Y-57265696D01*
X57491812Y-57279274D01*
X57476777Y-57301777D01*
X57454274Y-57316812D01*
X57440696Y-57330391D01*
X57420815Y-57339169D01*
X57395671Y-57355970D01*
X57372185Y-57360641D01*
X57355040Y-57368212D01*
X57304861Y-57374032D01*
X57300000Y-57375000D01*
X56500000Y-57375000D01*
X56495138Y-57374032D01*
X56444959Y-57368212D01*
X56427812Y-57360641D01*
X56404329Y-57355970D01*
X56379186Y-57339170D01*
X56359303Y-57330391D01*
X56345722Y-57316810D01*
X56323223Y-57301777D01*
X56308189Y-57279277D01*
X56294608Y-57265696D01*
X56285827Y-57245810D01*
X56269030Y-57220671D01*
X56264359Y-57197189D01*
X56256787Y-57180040D01*
X56250964Y-57129849D01*
X56250000Y-57125000D01*
X56250000Y-55875000D01*
X56250964Y-55870150D01*
X56256787Y-55819959D01*
X56264359Y-55802808D01*
X56269030Y-55779329D01*
X56285826Y-55754191D01*
X56294608Y-55734303D01*
X56308191Y-55720719D01*
X56323223Y-55698223D01*
X56345719Y-55683191D01*
X56359303Y-55669608D01*
X56379191Y-55660826D01*
X56404329Y-55644030D01*
X56427808Y-55639359D01*
X56444959Y-55631787D01*
X56495151Y-55625964D01*
X56500000Y-55625000D01*
X57300000Y-55625000D01*
X57304850Y-55625964D01*
G37*
G36*
X60404850Y-55625964D02*
G01*
X60455040Y-55631787D01*
X60472189Y-55639359D01*
X60495671Y-55644030D01*
X60520810Y-55660827D01*
X60540696Y-55669608D01*
X60554277Y-55683189D01*
X60576777Y-55698223D01*
X60591810Y-55720722D01*
X60605391Y-55734303D01*
X60614170Y-55754186D01*
X60630970Y-55779329D01*
X60635641Y-55802812D01*
X60643212Y-55819959D01*
X60649033Y-55870139D01*
X60650000Y-55875000D01*
X60650000Y-57125000D01*
X60649032Y-57129863D01*
X60643212Y-57180040D01*
X60635641Y-57197185D01*
X60630970Y-57220671D01*
X60614169Y-57245815D01*
X60605391Y-57265696D01*
X60591812Y-57279274D01*
X60576777Y-57301777D01*
X60554274Y-57316812D01*
X60540696Y-57330391D01*
X60520815Y-57339169D01*
X60495671Y-57355970D01*
X60472185Y-57360641D01*
X60455040Y-57368212D01*
X60404861Y-57374032D01*
X60400000Y-57375000D01*
X59600000Y-57375000D01*
X59595138Y-57374032D01*
X59544959Y-57368212D01*
X59527812Y-57360641D01*
X59504329Y-57355970D01*
X59479186Y-57339170D01*
X59459303Y-57330391D01*
X59445722Y-57316810D01*
X59423223Y-57301777D01*
X59408189Y-57279277D01*
X59394608Y-57265696D01*
X59385827Y-57245810D01*
X59369030Y-57220671D01*
X59364359Y-57197189D01*
X59356787Y-57180040D01*
X59350964Y-57129849D01*
X59350000Y-57125000D01*
X59350000Y-55875000D01*
X59350964Y-55870150D01*
X59356787Y-55819959D01*
X59364359Y-55802808D01*
X59369030Y-55779329D01*
X59385826Y-55754191D01*
X59394608Y-55734303D01*
X59408191Y-55720719D01*
X59423223Y-55698223D01*
X59445719Y-55683191D01*
X59459303Y-55669608D01*
X59479191Y-55660826D01*
X59504329Y-55644030D01*
X59527808Y-55639359D01*
X59544959Y-55631787D01*
X59595151Y-55625964D01*
X59600000Y-55625000D01*
X60400000Y-55625000D01*
X60404850Y-55625964D01*
G37*
G36*
X141644850Y-55625964D02*
G01*
X141695040Y-55631787D01*
X141712189Y-55639359D01*
X141735671Y-55644030D01*
X141760810Y-55660827D01*
X141780696Y-55669608D01*
X141794277Y-55683189D01*
X141816777Y-55698223D01*
X141831810Y-55720722D01*
X141845391Y-55734303D01*
X141854170Y-55754186D01*
X141870970Y-55779329D01*
X141875641Y-55802812D01*
X141883212Y-55819959D01*
X141889033Y-55870139D01*
X141890000Y-55875000D01*
X141890000Y-57125000D01*
X141889032Y-57129863D01*
X141883212Y-57180040D01*
X141875641Y-57197185D01*
X141870970Y-57220671D01*
X141854169Y-57245815D01*
X141845391Y-57265696D01*
X141831812Y-57279274D01*
X141816777Y-57301777D01*
X141794274Y-57316812D01*
X141780696Y-57330391D01*
X141760815Y-57339169D01*
X141735671Y-57355970D01*
X141712185Y-57360641D01*
X141695040Y-57368212D01*
X141644861Y-57374032D01*
X141640000Y-57375000D01*
X140840000Y-57375000D01*
X140835138Y-57374032D01*
X140784959Y-57368212D01*
X140767812Y-57360641D01*
X140744329Y-57355970D01*
X140719186Y-57339170D01*
X140699303Y-57330391D01*
X140685722Y-57316810D01*
X140663223Y-57301777D01*
X140648189Y-57279277D01*
X140634608Y-57265696D01*
X140625827Y-57245810D01*
X140609030Y-57220671D01*
X140604359Y-57197189D01*
X140596787Y-57180040D01*
X140590964Y-57129849D01*
X140590000Y-57125000D01*
X140590000Y-55875000D01*
X140590964Y-55870150D01*
X140596787Y-55819959D01*
X140604359Y-55802808D01*
X140609030Y-55779329D01*
X140625826Y-55754191D01*
X140634608Y-55734303D01*
X140648191Y-55720719D01*
X140663223Y-55698223D01*
X140685719Y-55683191D01*
X140699303Y-55669608D01*
X140719191Y-55660826D01*
X140744329Y-55644030D01*
X140767808Y-55639359D01*
X140784959Y-55631787D01*
X140835151Y-55625964D01*
X140840000Y-55625000D01*
X141640000Y-55625000D01*
X141644850Y-55625964D01*
G37*
G36*
X144744850Y-55625964D02*
G01*
X144795040Y-55631787D01*
X144812189Y-55639359D01*
X144835671Y-55644030D01*
X144860810Y-55660827D01*
X144880696Y-55669608D01*
X144894277Y-55683189D01*
X144916777Y-55698223D01*
X144931810Y-55720722D01*
X144945391Y-55734303D01*
X144954170Y-55754186D01*
X144970970Y-55779329D01*
X144975641Y-55802812D01*
X144983212Y-55819959D01*
X144989033Y-55870139D01*
X144990000Y-55875000D01*
X144990000Y-57125000D01*
X144989032Y-57129863D01*
X144983212Y-57180040D01*
X144975641Y-57197185D01*
X144970970Y-57220671D01*
X144954169Y-57245815D01*
X144945391Y-57265696D01*
X144931812Y-57279274D01*
X144916777Y-57301777D01*
X144894274Y-57316812D01*
X144880696Y-57330391D01*
X144860815Y-57339169D01*
X144835671Y-57355970D01*
X144812185Y-57360641D01*
X144795040Y-57368212D01*
X144744861Y-57374032D01*
X144740000Y-57375000D01*
X143940000Y-57375000D01*
X143935138Y-57374032D01*
X143884959Y-57368212D01*
X143867812Y-57360641D01*
X143844329Y-57355970D01*
X143819186Y-57339170D01*
X143799303Y-57330391D01*
X143785722Y-57316810D01*
X143763223Y-57301777D01*
X143748189Y-57279277D01*
X143734608Y-57265696D01*
X143725827Y-57245810D01*
X143709030Y-57220671D01*
X143704359Y-57197189D01*
X143696787Y-57180040D01*
X143690964Y-57129849D01*
X143690000Y-57125000D01*
X143690000Y-55875000D01*
X143690964Y-55870150D01*
X143696787Y-55819959D01*
X143704359Y-55802808D01*
X143709030Y-55779329D01*
X143725826Y-55754191D01*
X143734608Y-55734303D01*
X143748191Y-55720719D01*
X143763223Y-55698223D01*
X143785719Y-55683191D01*
X143799303Y-55669608D01*
X143819191Y-55660826D01*
X143844329Y-55644030D01*
X143867808Y-55639359D01*
X143884959Y-55631787D01*
X143935151Y-55625964D01*
X143940000Y-55625000D01*
X144740000Y-55625000D01*
X144744850Y-55625964D01*
G37*
G36*
X52250000Y-57350000D02*
G01*
X51750000Y-57350000D01*
X51750000Y-55350000D01*
X52250000Y-55350000D01*
X52250000Y-57350000D01*
G37*
G36*
X26593737Y-56413850D02*
G01*
X26707208Y-56444254D01*
X26808943Y-56502991D01*
X26892009Y-56586057D01*
X26950746Y-56687792D01*
X26981150Y-56801263D01*
X26981150Y-56918737D01*
X26950746Y-57032208D01*
X26892009Y-57133943D01*
X26808943Y-57217009D01*
X26707208Y-57275746D01*
X26593737Y-57306150D01*
X26535000Y-57310000D01*
X26533029Y-57310000D01*
X25736971Y-57310000D01*
X25735000Y-57310000D01*
X25676263Y-57306150D01*
X25562792Y-57275746D01*
X25461057Y-57217009D01*
X25377991Y-57133943D01*
X25319254Y-57032208D01*
X25288850Y-56918737D01*
X25288850Y-56801263D01*
X25319254Y-56687792D01*
X25377991Y-56586057D01*
X25461057Y-56502991D01*
X25562792Y-56444254D01*
X25676263Y-56413850D01*
X25735000Y-56410000D01*
X26535000Y-56410000D01*
X26593737Y-56413850D01*
G37*
G36*
X30913737Y-56413850D02*
G01*
X31027208Y-56444254D01*
X31128943Y-56502991D01*
X31212009Y-56586057D01*
X31270746Y-56687792D01*
X31301150Y-56801263D01*
X31301150Y-56918737D01*
X31270746Y-57032208D01*
X31212009Y-57133943D01*
X31128943Y-57217009D01*
X31027208Y-57275746D01*
X30913737Y-57306150D01*
X30855000Y-57310000D01*
X30853029Y-57310000D01*
X29756971Y-57310000D01*
X29755000Y-57310000D01*
X29696263Y-57306150D01*
X29582792Y-57275746D01*
X29481057Y-57217009D01*
X29397991Y-57133943D01*
X29339254Y-57032208D01*
X29308850Y-56918737D01*
X29308850Y-56801263D01*
X29339254Y-56687792D01*
X29397991Y-56586057D01*
X29481057Y-56502991D01*
X29582792Y-56444254D01*
X29696263Y-56413850D01*
X29755000Y-56410000D01*
X30855000Y-56410000D01*
X30913737Y-56413850D01*
G37*
G36*
X146726422Y-55753587D02*
G01*
X146867689Y-55812101D01*
X146994827Y-55897052D01*
X147102948Y-56005173D01*
X147187899Y-56132311D01*
X147246413Y-56273578D01*
X147276244Y-56423547D01*
X147276244Y-56576453D01*
X147246413Y-56726422D01*
X147187899Y-56867689D01*
X147102948Y-56994827D01*
X146994827Y-57102948D01*
X146867689Y-57187899D01*
X146726422Y-57246413D01*
X146576453Y-57276244D01*
X146423547Y-57276244D01*
X146273578Y-57246413D01*
X146132311Y-57187899D01*
X146005173Y-57102948D01*
X145897052Y-56994827D01*
X145812101Y-56867689D01*
X145753587Y-56726422D01*
X145723756Y-56576453D01*
X145723756Y-56423547D01*
X145753587Y-56273578D01*
X145812101Y-56132311D01*
X145897052Y-56005173D01*
X146005173Y-55897052D01*
X146132311Y-55812101D01*
X146273578Y-55753587D01*
X146423547Y-55723756D01*
X146576453Y-55723756D01*
X146726422Y-55753587D01*
G37*
G36*
X55154850Y-55900964D02*
G01*
X55205040Y-55906787D01*
X55222189Y-55914359D01*
X55245671Y-55919030D01*
X55270810Y-55935827D01*
X55290696Y-55944608D01*
X55304277Y-55958189D01*
X55326777Y-55973223D01*
X55341810Y-55995722D01*
X55355391Y-56009303D01*
X55364170Y-56029186D01*
X55380970Y-56054329D01*
X55385641Y-56077812D01*
X55393212Y-56094959D01*
X55399033Y-56145139D01*
X55400000Y-56150000D01*
X55400000Y-56975000D01*
X55399032Y-56979863D01*
X55393212Y-57030040D01*
X55385641Y-57047185D01*
X55380970Y-57070671D01*
X55364169Y-57095815D01*
X55355391Y-57115696D01*
X55341812Y-57129274D01*
X55326777Y-57151777D01*
X55304274Y-57166812D01*
X55290696Y-57180391D01*
X55270815Y-57189169D01*
X55245671Y-57205970D01*
X55222185Y-57210641D01*
X55205040Y-57218212D01*
X55154861Y-57224032D01*
X55150000Y-57225000D01*
X53850000Y-57225000D01*
X53845138Y-57224032D01*
X53794959Y-57218212D01*
X53777812Y-57210641D01*
X53754329Y-57205970D01*
X53729186Y-57189170D01*
X53709303Y-57180391D01*
X53695722Y-57166810D01*
X53673223Y-57151777D01*
X53658189Y-57129277D01*
X53644608Y-57115696D01*
X53635827Y-57095810D01*
X53619030Y-57070671D01*
X53614359Y-57047189D01*
X53606787Y-57030040D01*
X53600964Y-56979849D01*
X53600000Y-56975000D01*
X53600000Y-56150000D01*
X53600964Y-56145150D01*
X53606787Y-56094959D01*
X53614359Y-56077808D01*
X53619030Y-56054329D01*
X53635826Y-56029191D01*
X53644608Y-56009303D01*
X53658191Y-55995719D01*
X53673223Y-55973223D01*
X53695719Y-55958191D01*
X53709303Y-55944608D01*
X53729191Y-55935826D01*
X53754329Y-55919030D01*
X53777808Y-55914359D01*
X53794959Y-55906787D01*
X53845151Y-55900964D01*
X53850000Y-55900000D01*
X55150000Y-55900000D01*
X55154850Y-55900964D01*
G37*
G36*
X62498918Y-56879758D02*
G01*
X62519194Y-56893306D01*
X62532742Y-56913582D01*
X62537500Y-56937500D01*
X62537500Y-57062500D01*
X62532742Y-57086418D01*
X62519194Y-57106694D01*
X62498918Y-57120242D01*
X62475000Y-57125000D01*
X61775000Y-57125000D01*
X61751082Y-57120242D01*
X61730806Y-57106694D01*
X61717258Y-57086418D01*
X61712500Y-57062500D01*
X61712500Y-56937500D01*
X61717258Y-56913582D01*
X61730806Y-56893306D01*
X61751082Y-56879758D01*
X61775000Y-56875000D01*
X62475000Y-56875000D01*
X62498918Y-56879758D01*
G37*
G36*
X65373918Y-56879758D02*
G01*
X65394194Y-56893306D01*
X65407742Y-56913582D01*
X65412500Y-56937500D01*
X65412500Y-57062500D01*
X65407742Y-57086418D01*
X65394194Y-57106694D01*
X65373918Y-57120242D01*
X65350000Y-57125000D01*
X64650000Y-57125000D01*
X64626082Y-57120242D01*
X64605806Y-57106694D01*
X64592258Y-57086418D01*
X64587500Y-57062500D01*
X64587500Y-56937500D01*
X64592258Y-56913582D01*
X64605806Y-56893306D01*
X64626082Y-56879758D01*
X64650000Y-56875000D01*
X65350000Y-56875000D01*
X65373918Y-56879758D01*
G37*
G36*
X40762403Y-55011418D02*
G01*
X40811066Y-55043934D01*
X40843582Y-55092597D01*
X40855000Y-55150000D01*
X40855000Y-56800000D01*
X40843582Y-56857403D01*
X40811066Y-56906066D01*
X40762403Y-56938582D01*
X40705000Y-56950000D01*
X40405000Y-56950000D01*
X40347597Y-56938582D01*
X40298934Y-56906066D01*
X40266418Y-56857403D01*
X40255000Y-56800000D01*
X40255000Y-55150000D01*
X40266418Y-55092597D01*
X40298934Y-55043934D01*
X40347597Y-55011418D01*
X40405000Y-55000000D01*
X40705000Y-55000000D01*
X40762403Y-55011418D01*
G37*
G36*
X42032403Y-55011418D02*
G01*
X42081066Y-55043934D01*
X42113582Y-55092597D01*
X42125000Y-55150000D01*
X42125000Y-56800000D01*
X42113582Y-56857403D01*
X42081066Y-56906066D01*
X42032403Y-56938582D01*
X41975000Y-56950000D01*
X41675000Y-56950000D01*
X41617597Y-56938582D01*
X41568934Y-56906066D01*
X41536418Y-56857403D01*
X41525000Y-56800000D01*
X41525000Y-55150000D01*
X41536418Y-55092597D01*
X41568934Y-55043934D01*
X41617597Y-55011418D01*
X41675000Y-55000000D01*
X41975000Y-55000000D01*
X42032403Y-55011418D01*
G37*
G36*
X43302403Y-55011418D02*
G01*
X43351066Y-55043934D01*
X43383582Y-55092597D01*
X43395000Y-55150000D01*
X43395000Y-56800000D01*
X43383582Y-56857403D01*
X43351066Y-56906066D01*
X43302403Y-56938582D01*
X43245000Y-56950000D01*
X42945000Y-56950000D01*
X42887597Y-56938582D01*
X42838934Y-56906066D01*
X42806418Y-56857403D01*
X42795000Y-56800000D01*
X42795000Y-55150000D01*
X42806418Y-55092597D01*
X42838934Y-55043934D01*
X42887597Y-55011418D01*
X42945000Y-55000000D01*
X43245000Y-55000000D01*
X43302403Y-55011418D01*
G37*
G36*
X44572403Y-55011418D02*
G01*
X44621066Y-55043934D01*
X44653582Y-55092597D01*
X44665000Y-55150000D01*
X44665000Y-56800000D01*
X44653582Y-56857403D01*
X44621066Y-56906066D01*
X44572403Y-56938582D01*
X44515000Y-56950000D01*
X44215000Y-56950000D01*
X44157597Y-56938582D01*
X44108934Y-56906066D01*
X44076418Y-56857403D01*
X44065000Y-56800000D01*
X44065000Y-55150000D01*
X44076418Y-55092597D01*
X44108934Y-55043934D01*
X44157597Y-55011418D01*
X44215000Y-55000000D01*
X44515000Y-55000000D01*
X44572403Y-55011418D01*
G37*
G36*
X45842403Y-55011418D02*
G01*
X45891066Y-55043934D01*
X45923582Y-55092597D01*
X45935000Y-55150000D01*
X45935000Y-56800000D01*
X45923582Y-56857403D01*
X45891066Y-56906066D01*
X45842403Y-56938582D01*
X45785000Y-56950000D01*
X45485000Y-56950000D01*
X45427597Y-56938582D01*
X45378934Y-56906066D01*
X45346418Y-56857403D01*
X45335000Y-56800000D01*
X45335000Y-55150000D01*
X45346418Y-55092597D01*
X45378934Y-55043934D01*
X45427597Y-55011418D01*
X45485000Y-55000000D01*
X45785000Y-55000000D01*
X45842403Y-55011418D01*
G37*
G36*
X47112403Y-55011418D02*
G01*
X47161066Y-55043934D01*
X47193582Y-55092597D01*
X47205000Y-55150000D01*
X47205000Y-56800000D01*
X47193582Y-56857403D01*
X47161066Y-56906066D01*
X47112403Y-56938582D01*
X47055000Y-56950000D01*
X46755000Y-56950000D01*
X46697597Y-56938582D01*
X46648934Y-56906066D01*
X46616418Y-56857403D01*
X46605000Y-56800000D01*
X46605000Y-55150000D01*
X46616418Y-55092597D01*
X46648934Y-55043934D01*
X46697597Y-55011418D01*
X46755000Y-55000000D01*
X47055000Y-55000000D01*
X47112403Y-55011418D01*
G37*
G36*
X48382403Y-55011418D02*
G01*
X48431066Y-55043934D01*
X48463582Y-55092597D01*
X48475000Y-55150000D01*
X48475000Y-56800000D01*
X48463582Y-56857403D01*
X48431066Y-56906066D01*
X48382403Y-56938582D01*
X48325000Y-56950000D01*
X48025000Y-56950000D01*
X47967597Y-56938582D01*
X47918934Y-56906066D01*
X47886418Y-56857403D01*
X47875000Y-56800000D01*
X47875000Y-55150000D01*
X47886418Y-55092597D01*
X47918934Y-55043934D01*
X47967597Y-55011418D01*
X48025000Y-55000000D01*
X48325000Y-55000000D01*
X48382403Y-55011418D01*
G37*
G36*
X49652403Y-55011418D02*
G01*
X49701066Y-55043934D01*
X49733582Y-55092597D01*
X49745000Y-55150000D01*
X49745000Y-56800000D01*
X49733582Y-56857403D01*
X49701066Y-56906066D01*
X49652403Y-56938582D01*
X49595000Y-56950000D01*
X49295000Y-56950000D01*
X49237597Y-56938582D01*
X49188934Y-56906066D01*
X49156418Y-56857403D01*
X49145000Y-56800000D01*
X49145000Y-55150000D01*
X49156418Y-55092597D01*
X49188934Y-55043934D01*
X49237597Y-55011418D01*
X49295000Y-55000000D01*
X49595000Y-55000000D01*
X49652403Y-55011418D01*
G37*
G36*
X62498918Y-56379758D02*
G01*
X62519194Y-56393306D01*
X62532742Y-56413582D01*
X62537500Y-56437500D01*
X62537500Y-56562500D01*
X62532742Y-56586418D01*
X62519194Y-56606694D01*
X62498918Y-56620242D01*
X62475000Y-56625000D01*
X61775000Y-56625000D01*
X61751082Y-56620242D01*
X61730806Y-56606694D01*
X61717258Y-56586418D01*
X61712500Y-56562500D01*
X61712500Y-56437500D01*
X61717258Y-56413582D01*
X61730806Y-56393306D01*
X61751082Y-56379758D01*
X61775000Y-56375000D01*
X62475000Y-56375000D01*
X62498918Y-56379758D01*
G37*
G36*
X65373918Y-56379758D02*
G01*
X65394194Y-56393306D01*
X65407742Y-56413582D01*
X65412500Y-56437500D01*
X65412500Y-56562500D01*
X65407742Y-56586418D01*
X65394194Y-56606694D01*
X65373918Y-56620242D01*
X65350000Y-56625000D01*
X64650000Y-56625000D01*
X64626082Y-56620242D01*
X64605806Y-56606694D01*
X64592258Y-56586418D01*
X64587500Y-56562500D01*
X64587500Y-56437500D01*
X64592258Y-56413582D01*
X64605806Y-56393306D01*
X64626082Y-56379758D01*
X64650000Y-56375000D01*
X65350000Y-56375000D01*
X65373918Y-56379758D01*
G37*
G36*
X68154850Y-55275964D02*
G01*
X68205040Y-55281787D01*
X68222189Y-55289359D01*
X68245671Y-55294030D01*
X68270810Y-55310827D01*
X68290696Y-55319608D01*
X68304277Y-55333189D01*
X68326777Y-55348223D01*
X68341810Y-55370722D01*
X68355391Y-55384303D01*
X68364170Y-55404186D01*
X68380970Y-55429329D01*
X68385641Y-55452812D01*
X68393212Y-55469959D01*
X68399033Y-55520139D01*
X68400000Y-55525000D01*
X68400000Y-56350000D01*
X68399032Y-56354863D01*
X68393212Y-56405040D01*
X68385641Y-56422185D01*
X68380970Y-56445671D01*
X68364169Y-56470815D01*
X68355391Y-56490696D01*
X68341812Y-56504274D01*
X68326777Y-56526777D01*
X68304274Y-56541812D01*
X68290696Y-56555391D01*
X68270815Y-56564169D01*
X68245671Y-56580970D01*
X68222185Y-56585641D01*
X68205040Y-56593212D01*
X68154861Y-56599032D01*
X68150000Y-56600000D01*
X66850000Y-56600000D01*
X66845138Y-56599032D01*
X66794959Y-56593212D01*
X66777812Y-56585641D01*
X66754329Y-56580970D01*
X66729186Y-56564170D01*
X66709303Y-56555391D01*
X66695722Y-56541810D01*
X66673223Y-56526777D01*
X66658189Y-56504277D01*
X66644608Y-56490696D01*
X66635827Y-56470810D01*
X66619030Y-56445671D01*
X66614359Y-56422189D01*
X66606787Y-56405040D01*
X66600964Y-56354849D01*
X66600000Y-56350000D01*
X66600000Y-55525000D01*
X66600964Y-55520150D01*
X66606787Y-55469959D01*
X66614359Y-55452808D01*
X66619030Y-55429329D01*
X66635826Y-55404191D01*
X66644608Y-55384303D01*
X66658191Y-55370719D01*
X66673223Y-55348223D01*
X66695719Y-55333191D01*
X66709303Y-55319608D01*
X66729191Y-55310826D01*
X66754329Y-55294030D01*
X66777808Y-55289359D01*
X66794959Y-55281787D01*
X66845151Y-55275964D01*
X66850000Y-55275000D01*
X68150000Y-55275000D01*
X68154850Y-55275964D01*
G37*
G36*
X33854850Y-54600964D02*
G01*
X33905040Y-54606787D01*
X33922189Y-54614359D01*
X33945671Y-54619030D01*
X33970810Y-54635827D01*
X33990696Y-54644608D01*
X34004277Y-54658189D01*
X34026777Y-54673223D01*
X34041810Y-54695722D01*
X34055391Y-54709303D01*
X34064170Y-54729186D01*
X34080970Y-54754329D01*
X34085641Y-54777812D01*
X34093212Y-54794959D01*
X34099033Y-54845139D01*
X34100000Y-54850000D01*
X34100000Y-56150000D01*
X34099032Y-56154863D01*
X34093212Y-56205040D01*
X34085641Y-56222185D01*
X34080970Y-56245671D01*
X34064169Y-56270815D01*
X34055391Y-56290696D01*
X34041812Y-56304274D01*
X34026777Y-56326777D01*
X34004274Y-56341812D01*
X33990696Y-56355391D01*
X33970815Y-56364169D01*
X33945671Y-56380970D01*
X33922185Y-56385641D01*
X33905040Y-56393212D01*
X33854861Y-56399032D01*
X33850000Y-56400000D01*
X33025000Y-56400000D01*
X33020138Y-56399032D01*
X32969959Y-56393212D01*
X32952812Y-56385641D01*
X32929329Y-56380970D01*
X32904186Y-56364170D01*
X32884303Y-56355391D01*
X32870722Y-56341810D01*
X32848223Y-56326777D01*
X32833189Y-56304277D01*
X32819608Y-56290696D01*
X32810827Y-56270810D01*
X32794030Y-56245671D01*
X32789359Y-56222189D01*
X32781787Y-56205040D01*
X32775964Y-56154849D01*
X32775000Y-56150000D01*
X32775000Y-54850000D01*
X32775964Y-54845150D01*
X32781787Y-54794959D01*
X32789359Y-54777808D01*
X32794030Y-54754329D01*
X32810826Y-54729191D01*
X32819608Y-54709303D01*
X32833191Y-54695719D01*
X32848223Y-54673223D01*
X32870719Y-54658191D01*
X32884303Y-54644608D01*
X32904191Y-54635826D01*
X32929329Y-54619030D01*
X32952808Y-54614359D01*
X32969959Y-54606787D01*
X33020151Y-54600964D01*
X33025000Y-54600000D01*
X33850000Y-54600000D01*
X33854850Y-54600964D01*
G37*
G36*
X36979850Y-54600964D02*
G01*
X37030040Y-54606787D01*
X37047189Y-54614359D01*
X37070671Y-54619030D01*
X37095810Y-54635827D01*
X37115696Y-54644608D01*
X37129277Y-54658189D01*
X37151777Y-54673223D01*
X37166810Y-54695722D01*
X37180391Y-54709303D01*
X37189170Y-54729186D01*
X37205970Y-54754329D01*
X37210641Y-54777812D01*
X37218212Y-54794959D01*
X37224033Y-54845139D01*
X37225000Y-54850000D01*
X37225000Y-56150000D01*
X37224032Y-56154863D01*
X37218212Y-56205040D01*
X37210641Y-56222185D01*
X37205970Y-56245671D01*
X37189169Y-56270815D01*
X37180391Y-56290696D01*
X37166812Y-56304274D01*
X37151777Y-56326777D01*
X37129274Y-56341812D01*
X37115696Y-56355391D01*
X37095815Y-56364169D01*
X37070671Y-56380970D01*
X37047185Y-56385641D01*
X37030040Y-56393212D01*
X36979861Y-56399032D01*
X36975000Y-56400000D01*
X36150000Y-56400000D01*
X36145138Y-56399032D01*
X36094959Y-56393212D01*
X36077812Y-56385641D01*
X36054329Y-56380970D01*
X36029186Y-56364170D01*
X36009303Y-56355391D01*
X35995722Y-56341810D01*
X35973223Y-56326777D01*
X35958189Y-56304277D01*
X35944608Y-56290696D01*
X35935827Y-56270810D01*
X35919030Y-56245671D01*
X35914359Y-56222189D01*
X35906787Y-56205040D01*
X35900964Y-56154849D01*
X35900000Y-56150000D01*
X35900000Y-54850000D01*
X35900964Y-54845150D01*
X35906787Y-54794959D01*
X35914359Y-54777808D01*
X35919030Y-54754329D01*
X35935826Y-54729191D01*
X35944608Y-54709303D01*
X35958191Y-54695719D01*
X35973223Y-54673223D01*
X35995719Y-54658191D01*
X36009303Y-54644608D01*
X36029191Y-54635826D01*
X36054329Y-54619030D01*
X36077808Y-54614359D01*
X36094959Y-54606787D01*
X36145151Y-54600964D01*
X36150000Y-54600000D01*
X36975000Y-54600000D01*
X36979850Y-54600964D01*
G37*
G36*
X80360000Y-56250000D02*
G01*
X78860000Y-56250000D01*
X78860000Y-55350000D01*
X80360000Y-55350000D01*
X80360000Y-56250000D01*
G37*
G36*
X97860000Y-56250000D02*
G01*
X96360000Y-56250000D01*
X96360000Y-55350000D01*
X97860000Y-55350000D01*
X97860000Y-56250000D01*
G37*
G36*
X62898918Y-55404758D02*
G01*
X62919194Y-55418306D01*
X62932742Y-55438582D01*
X62937500Y-55462500D01*
X62937500Y-56162500D01*
X62932742Y-56186418D01*
X62919194Y-56206694D01*
X62898918Y-56220242D01*
X62875000Y-56225000D01*
X62750000Y-56225000D01*
X62726082Y-56220242D01*
X62705806Y-56206694D01*
X62692258Y-56186418D01*
X62687500Y-56162500D01*
X62687500Y-55462500D01*
X62692258Y-55438582D01*
X62705806Y-55418306D01*
X62726082Y-55404758D01*
X62750000Y-55400000D01*
X62875000Y-55400000D01*
X62898918Y-55404758D01*
G37*
G36*
X63398918Y-55404758D02*
G01*
X63419194Y-55418306D01*
X63432742Y-55438582D01*
X63437500Y-55462500D01*
X63437500Y-56162500D01*
X63432742Y-56186418D01*
X63419194Y-56206694D01*
X63398918Y-56220242D01*
X63375000Y-56225000D01*
X63250000Y-56225000D01*
X63226082Y-56220242D01*
X63205806Y-56206694D01*
X63192258Y-56186418D01*
X63187500Y-56162500D01*
X63187500Y-55462500D01*
X63192258Y-55438582D01*
X63205806Y-55418306D01*
X63226082Y-55404758D01*
X63250000Y-55400000D01*
X63375000Y-55400000D01*
X63398918Y-55404758D01*
G37*
G36*
X63898918Y-55404758D02*
G01*
X63919194Y-55418306D01*
X63932742Y-55438582D01*
X63937500Y-55462500D01*
X63937500Y-56162500D01*
X63932742Y-56186418D01*
X63919194Y-56206694D01*
X63898918Y-56220242D01*
X63875000Y-56225000D01*
X63750000Y-56225000D01*
X63726082Y-56220242D01*
X63705806Y-56206694D01*
X63692258Y-56186418D01*
X63687500Y-56162500D01*
X63687500Y-55462500D01*
X63692258Y-55438582D01*
X63705806Y-55418306D01*
X63726082Y-55404758D01*
X63750000Y-55400000D01*
X63875000Y-55400000D01*
X63898918Y-55404758D01*
G37*
G36*
X64398918Y-55404758D02*
G01*
X64419194Y-55418306D01*
X64432742Y-55438582D01*
X64437500Y-55462500D01*
X64437500Y-56162500D01*
X64432742Y-56186418D01*
X64419194Y-56206694D01*
X64398918Y-56220242D01*
X64375000Y-56225000D01*
X64250000Y-56225000D01*
X64226082Y-56220242D01*
X64205806Y-56206694D01*
X64192258Y-56186418D01*
X64187500Y-56162500D01*
X64187500Y-55462500D01*
X64192258Y-55438582D01*
X64205806Y-55418306D01*
X64226082Y-55404758D01*
X64250000Y-55400000D01*
X64375000Y-55400000D01*
X64398918Y-55404758D01*
G37*
G36*
X71854850Y-54125964D02*
G01*
X71905040Y-54131787D01*
X71922189Y-54139359D01*
X71945671Y-54144030D01*
X71970810Y-54160827D01*
X71990696Y-54169608D01*
X72004277Y-54183189D01*
X72026777Y-54198223D01*
X72041810Y-54220722D01*
X72055391Y-54234303D01*
X72064170Y-54254186D01*
X72080970Y-54279329D01*
X72085641Y-54302812D01*
X72093212Y-54319959D01*
X72099033Y-54370139D01*
X72100000Y-54375000D01*
X72100000Y-55625000D01*
X72099032Y-55629863D01*
X72093212Y-55680040D01*
X72085641Y-55697185D01*
X72080970Y-55720671D01*
X72064169Y-55745815D01*
X72055391Y-55765696D01*
X72041812Y-55779274D01*
X72026777Y-55801777D01*
X72004274Y-55816812D01*
X71990696Y-55830391D01*
X71970815Y-55839169D01*
X71945671Y-55855970D01*
X71922185Y-55860641D01*
X71905040Y-55868212D01*
X71854861Y-55874032D01*
X71850000Y-55875000D01*
X71050000Y-55875000D01*
X71045138Y-55874032D01*
X70994959Y-55868212D01*
X70977812Y-55860641D01*
X70954329Y-55855970D01*
X70929186Y-55839170D01*
X70909303Y-55830391D01*
X70895722Y-55816810D01*
X70873223Y-55801777D01*
X70858189Y-55779277D01*
X70844608Y-55765696D01*
X70835827Y-55745810D01*
X70819030Y-55720671D01*
X70814359Y-55697189D01*
X70806787Y-55680040D01*
X70800964Y-55629849D01*
X70800000Y-55625000D01*
X70800000Y-54375000D01*
X70800964Y-54370150D01*
X70806787Y-54319959D01*
X70814359Y-54302808D01*
X70819030Y-54279329D01*
X70835826Y-54254191D01*
X70844608Y-54234303D01*
X70858191Y-54220719D01*
X70873223Y-54198223D01*
X70895719Y-54183191D01*
X70909303Y-54169608D01*
X70929191Y-54160826D01*
X70954329Y-54144030D01*
X70977808Y-54139359D01*
X70994959Y-54131787D01*
X71045151Y-54125964D01*
X71050000Y-54125000D01*
X71850000Y-54125000D01*
X71854850Y-54125964D01*
G37*
G36*
X74954850Y-54125964D02*
G01*
X75005040Y-54131787D01*
X75022189Y-54139359D01*
X75045671Y-54144030D01*
X75070810Y-54160827D01*
X75090696Y-54169608D01*
X75104277Y-54183189D01*
X75126777Y-54198223D01*
X75141810Y-54220722D01*
X75155391Y-54234303D01*
X75164170Y-54254186D01*
X75180970Y-54279329D01*
X75185641Y-54302812D01*
X75193212Y-54319959D01*
X75199033Y-54370139D01*
X75200000Y-54375000D01*
X75200000Y-55625000D01*
X75199032Y-55629863D01*
X75193212Y-55680040D01*
X75185641Y-55697185D01*
X75180970Y-55720671D01*
X75164169Y-55745815D01*
X75155391Y-55765696D01*
X75141812Y-55779274D01*
X75126777Y-55801777D01*
X75104274Y-55816812D01*
X75090696Y-55830391D01*
X75070815Y-55839169D01*
X75045671Y-55855970D01*
X75022185Y-55860641D01*
X75005040Y-55868212D01*
X74954861Y-55874032D01*
X74950000Y-55875000D01*
X74150000Y-55875000D01*
X74145138Y-55874032D01*
X74094959Y-55868212D01*
X74077812Y-55860641D01*
X74054329Y-55855970D01*
X74029186Y-55839170D01*
X74009303Y-55830391D01*
X73995722Y-55816810D01*
X73973223Y-55801777D01*
X73958189Y-55779277D01*
X73944608Y-55765696D01*
X73935827Y-55745810D01*
X73919030Y-55720671D01*
X73914359Y-55697189D01*
X73906787Y-55680040D01*
X73900964Y-55629849D01*
X73900000Y-55625000D01*
X73900000Y-54375000D01*
X73900964Y-54370150D01*
X73906787Y-54319959D01*
X73914359Y-54302808D01*
X73919030Y-54279329D01*
X73935826Y-54254191D01*
X73944608Y-54234303D01*
X73958191Y-54220719D01*
X73973223Y-54198223D01*
X73995719Y-54183191D01*
X74009303Y-54169608D01*
X74029191Y-54160826D01*
X74054329Y-54144030D01*
X74077808Y-54139359D01*
X74094959Y-54131787D01*
X74145151Y-54125964D01*
X74150000Y-54125000D01*
X74950000Y-54125000D01*
X74954850Y-54125964D01*
G37*
G36*
X28354850Y-53625964D02*
G01*
X28405040Y-53631787D01*
X28422189Y-53639359D01*
X28445671Y-53644030D01*
X28470810Y-53660827D01*
X28490696Y-53669608D01*
X28504277Y-53683189D01*
X28526777Y-53698223D01*
X28541810Y-53720722D01*
X28555391Y-53734303D01*
X28564170Y-53754186D01*
X28580970Y-53779329D01*
X28585641Y-53802812D01*
X28593212Y-53819959D01*
X28599033Y-53870139D01*
X28600000Y-53875000D01*
X28600000Y-55125000D01*
X28599032Y-55129863D01*
X28593212Y-55180040D01*
X28585641Y-55197185D01*
X28580970Y-55220671D01*
X28564169Y-55245815D01*
X28555391Y-55265696D01*
X28541812Y-55279274D01*
X28526777Y-55301777D01*
X28504274Y-55316812D01*
X28490696Y-55330391D01*
X28470815Y-55339169D01*
X28445671Y-55355970D01*
X28422185Y-55360641D01*
X28405040Y-55368212D01*
X28354861Y-55374032D01*
X28350000Y-55375000D01*
X27550000Y-55375000D01*
X27545138Y-55374032D01*
X27494959Y-55368212D01*
X27477812Y-55360641D01*
X27454329Y-55355970D01*
X27429186Y-55339170D01*
X27409303Y-55330391D01*
X27395722Y-55316810D01*
X27373223Y-55301777D01*
X27358189Y-55279277D01*
X27344608Y-55265696D01*
X27335827Y-55245810D01*
X27319030Y-55220671D01*
X27314359Y-55197189D01*
X27306787Y-55180040D01*
X27300964Y-55129849D01*
X27300000Y-55125000D01*
X27300000Y-53875000D01*
X27300964Y-53870150D01*
X27306787Y-53819959D01*
X27314359Y-53802808D01*
X27319030Y-53779329D01*
X27335826Y-53754191D01*
X27344608Y-53734303D01*
X27358191Y-53720719D01*
X27373223Y-53698223D01*
X27395719Y-53683191D01*
X27409303Y-53669608D01*
X27429191Y-53660826D01*
X27454329Y-53644030D01*
X27477808Y-53639359D01*
X27494959Y-53631787D01*
X27545151Y-53625964D01*
X27550000Y-53625000D01*
X28350000Y-53625000D01*
X28354850Y-53625964D01*
G37*
G36*
X31454850Y-53625964D02*
G01*
X31505040Y-53631787D01*
X31522189Y-53639359D01*
X31545671Y-53644030D01*
X31570810Y-53660827D01*
X31590696Y-53669608D01*
X31604277Y-53683189D01*
X31626777Y-53698223D01*
X31641810Y-53720722D01*
X31655391Y-53734303D01*
X31664170Y-53754186D01*
X31680970Y-53779329D01*
X31685641Y-53802812D01*
X31693212Y-53819959D01*
X31699033Y-53870139D01*
X31700000Y-53875000D01*
X31700000Y-55125000D01*
X31699032Y-55129863D01*
X31693212Y-55180040D01*
X31685641Y-55197185D01*
X31680970Y-55220671D01*
X31664169Y-55245815D01*
X31655391Y-55265696D01*
X31641812Y-55279274D01*
X31626777Y-55301777D01*
X31604274Y-55316812D01*
X31590696Y-55330391D01*
X31570815Y-55339169D01*
X31545671Y-55355970D01*
X31522185Y-55360641D01*
X31505040Y-55368212D01*
X31454861Y-55374032D01*
X31450000Y-55375000D01*
X30650000Y-55375000D01*
X30645138Y-55374032D01*
X30594959Y-55368212D01*
X30577812Y-55360641D01*
X30554329Y-55355970D01*
X30529186Y-55339170D01*
X30509303Y-55330391D01*
X30495722Y-55316810D01*
X30473223Y-55301777D01*
X30458189Y-55279277D01*
X30444608Y-55265696D01*
X30435827Y-55245810D01*
X30419030Y-55220671D01*
X30414359Y-55197189D01*
X30406787Y-55180040D01*
X30400964Y-55129849D01*
X30400000Y-55125000D01*
X30400000Y-53875000D01*
X30400964Y-53870150D01*
X30406787Y-53819959D01*
X30414359Y-53802808D01*
X30419030Y-53779329D01*
X30435826Y-53754191D01*
X30444608Y-53734303D01*
X30458191Y-53720719D01*
X30473223Y-53698223D01*
X30495719Y-53683191D01*
X30509303Y-53669608D01*
X30529191Y-53660826D01*
X30554329Y-53644030D01*
X30577808Y-53639359D01*
X30594959Y-53631787D01*
X30645151Y-53625964D01*
X30650000Y-53625000D01*
X31450000Y-53625000D01*
X31454850Y-53625964D01*
G37*
G36*
X100629850Y-53800964D02*
G01*
X100680040Y-53806787D01*
X100697189Y-53814359D01*
X100720671Y-53819030D01*
X100745810Y-53835827D01*
X100765696Y-53844608D01*
X100779277Y-53858189D01*
X100801777Y-53873223D01*
X100816810Y-53895722D01*
X100830391Y-53909303D01*
X100839170Y-53929186D01*
X100855970Y-53954329D01*
X100860641Y-53977812D01*
X100868212Y-53994959D01*
X100874033Y-54045139D01*
X100875000Y-54050000D01*
X100875000Y-54850000D01*
X100874032Y-54854863D01*
X100868212Y-54905040D01*
X100860641Y-54922185D01*
X100855970Y-54945671D01*
X100839169Y-54970815D01*
X100830391Y-54990696D01*
X100816812Y-55004274D01*
X100801777Y-55026777D01*
X100779274Y-55041812D01*
X100765696Y-55055391D01*
X100745815Y-55064169D01*
X100720671Y-55080970D01*
X100697185Y-55085641D01*
X100680040Y-55093212D01*
X100629861Y-55099032D01*
X100625000Y-55100000D01*
X99375000Y-55100000D01*
X99370138Y-55099032D01*
X99319959Y-55093212D01*
X99302812Y-55085641D01*
X99279329Y-55080970D01*
X99254186Y-55064170D01*
X99234303Y-55055391D01*
X99220722Y-55041810D01*
X99198223Y-55026777D01*
X99183189Y-55004277D01*
X99169608Y-54990696D01*
X99160827Y-54970810D01*
X99144030Y-54945671D01*
X99139359Y-54922189D01*
X99131787Y-54905040D01*
X99125964Y-54854849D01*
X99125000Y-54850000D01*
X99125000Y-54050000D01*
X99125964Y-54045150D01*
X99131787Y-53994959D01*
X99139359Y-53977808D01*
X99144030Y-53954329D01*
X99160826Y-53929191D01*
X99169608Y-53909303D01*
X99183191Y-53895719D01*
X99198223Y-53873223D01*
X99220719Y-53858191D01*
X99234303Y-53844608D01*
X99254191Y-53835826D01*
X99279329Y-53819030D01*
X99302808Y-53814359D01*
X99319959Y-53806787D01*
X99370151Y-53800964D01*
X99375000Y-53800000D01*
X100625000Y-53800000D01*
X100629850Y-53800964D01*
G37*
G36*
X103154850Y-53775964D02*
G01*
X103205040Y-53781787D01*
X103222189Y-53789359D01*
X103245671Y-53794030D01*
X103270810Y-53810827D01*
X103290696Y-53819608D01*
X103304277Y-53833189D01*
X103326777Y-53848223D01*
X103341810Y-53870722D01*
X103355391Y-53884303D01*
X103364170Y-53904186D01*
X103380970Y-53929329D01*
X103385641Y-53952812D01*
X103393212Y-53969959D01*
X103399033Y-54020139D01*
X103400000Y-54025000D01*
X103400000Y-54850000D01*
X103399032Y-54854863D01*
X103393212Y-54905040D01*
X103385641Y-54922185D01*
X103380970Y-54945671D01*
X103364169Y-54970815D01*
X103355391Y-54990696D01*
X103341812Y-55004274D01*
X103326777Y-55026777D01*
X103304274Y-55041812D01*
X103290696Y-55055391D01*
X103270815Y-55064169D01*
X103245671Y-55080970D01*
X103222185Y-55085641D01*
X103205040Y-55093212D01*
X103154861Y-55099032D01*
X103150000Y-55100000D01*
X101850000Y-55100000D01*
X101845138Y-55099032D01*
X101794959Y-55093212D01*
X101777812Y-55085641D01*
X101754329Y-55080970D01*
X101729186Y-55064170D01*
X101709303Y-55055391D01*
X101695722Y-55041810D01*
X101673223Y-55026777D01*
X101658189Y-55004277D01*
X101644608Y-54990696D01*
X101635827Y-54970810D01*
X101619030Y-54945671D01*
X101614359Y-54922189D01*
X101606787Y-54905040D01*
X101600964Y-54854849D01*
X101600000Y-54850000D01*
X101600000Y-54025000D01*
X101600964Y-54020150D01*
X101606787Y-53969959D01*
X101614359Y-53952808D01*
X101619030Y-53929329D01*
X101635826Y-53904191D01*
X101644608Y-53884303D01*
X101658191Y-53870719D01*
X101673223Y-53848223D01*
X101695719Y-53833191D01*
X101709303Y-53819608D01*
X101729191Y-53810826D01*
X101754329Y-53794030D01*
X101777808Y-53789359D01*
X101794959Y-53781787D01*
X101845151Y-53775964D01*
X101850000Y-53775000D01*
X103150000Y-53775000D01*
X103154850Y-53775964D01*
G37*
G36*
X141726422Y-53253587D02*
G01*
X141867689Y-53312101D01*
X141994827Y-53397052D01*
X142102948Y-53505173D01*
X142187899Y-53632311D01*
X142246413Y-53773578D01*
X142276244Y-53923547D01*
X142276244Y-54076453D01*
X142246413Y-54226422D01*
X142187899Y-54367689D01*
X142102948Y-54494827D01*
X141994827Y-54602948D01*
X141867689Y-54687899D01*
X141726422Y-54746413D01*
X141576453Y-54776244D01*
X141423547Y-54776244D01*
X141273578Y-54746413D01*
X141132311Y-54687899D01*
X141005173Y-54602948D01*
X140897052Y-54494827D01*
X140812101Y-54367689D01*
X140753587Y-54226422D01*
X140723756Y-54076453D01*
X140723756Y-53923547D01*
X140753587Y-53773578D01*
X140812101Y-53632311D01*
X140897052Y-53505173D01*
X141005173Y-53397052D01*
X141132311Y-53312101D01*
X141273578Y-53253587D01*
X141423547Y-53223756D01*
X141576453Y-53223756D01*
X141726422Y-53253587D01*
G37*
G36*
X80360000Y-54750000D02*
G01*
X78860000Y-54750000D01*
X78860000Y-53850000D01*
X80360000Y-53850000D01*
X80360000Y-54750000D01*
G37*
G36*
X97860000Y-54750000D02*
G01*
X96360000Y-54750000D01*
X96360000Y-53850000D01*
X97860000Y-53850000D01*
X97860000Y-54750000D01*
G37*
G36*
X62500000Y-54500000D02*
G01*
X60500000Y-54500000D01*
X60500000Y-52500000D01*
X62500000Y-52500000D01*
X62500000Y-54500000D01*
G37*
G36*
X55154850Y-52775964D02*
G01*
X55205040Y-52781787D01*
X55222189Y-52789359D01*
X55245671Y-52794030D01*
X55270810Y-52810827D01*
X55290696Y-52819608D01*
X55304277Y-52833189D01*
X55326777Y-52848223D01*
X55341810Y-52870722D01*
X55355391Y-52884303D01*
X55364170Y-52904186D01*
X55380970Y-52929329D01*
X55385641Y-52952812D01*
X55393212Y-52969959D01*
X55399033Y-53020139D01*
X55400000Y-53025000D01*
X55400000Y-53850000D01*
X55399032Y-53854863D01*
X55393212Y-53905040D01*
X55385641Y-53922185D01*
X55380970Y-53945671D01*
X55364169Y-53970815D01*
X55355391Y-53990696D01*
X55341812Y-54004274D01*
X55326777Y-54026777D01*
X55304274Y-54041812D01*
X55290696Y-54055391D01*
X55270815Y-54064169D01*
X55245671Y-54080970D01*
X55222185Y-54085641D01*
X55205040Y-54093212D01*
X55154861Y-54099032D01*
X55150000Y-54100000D01*
X53850000Y-54100000D01*
X53845138Y-54099032D01*
X53794959Y-54093212D01*
X53777812Y-54085641D01*
X53754329Y-54080970D01*
X53729186Y-54064170D01*
X53709303Y-54055391D01*
X53695722Y-54041810D01*
X53673223Y-54026777D01*
X53658189Y-54004277D01*
X53644608Y-53990696D01*
X53635827Y-53970810D01*
X53619030Y-53945671D01*
X53614359Y-53922189D01*
X53606787Y-53905040D01*
X53600964Y-53854849D01*
X53600000Y-53850000D01*
X53600000Y-53025000D01*
X53600964Y-53020150D01*
X53606787Y-52969959D01*
X53614359Y-52952808D01*
X53619030Y-52929329D01*
X53635826Y-52904191D01*
X53644608Y-52884303D01*
X53658191Y-52870719D01*
X53673223Y-52848223D01*
X53695719Y-52833191D01*
X53709303Y-52819608D01*
X53729191Y-52810826D01*
X53754329Y-52794030D01*
X53777808Y-52789359D01*
X53794959Y-52781787D01*
X53845151Y-52775964D01*
X53850000Y-52775000D01*
X55150000Y-52775000D01*
X55154850Y-52775964D01*
G37*
G36*
X70000000Y-53500000D02*
G01*
X68000000Y-53500000D01*
X68000000Y-51500000D01*
X70000000Y-51500000D01*
X70000000Y-53500000D01*
G37*
G36*
X80360000Y-53250000D02*
G01*
X78860000Y-53250000D01*
X78860000Y-52350000D01*
X80360000Y-52350000D01*
X80360000Y-53250000D01*
G37*
G36*
X97860000Y-53250000D02*
G01*
X96360000Y-53250000D01*
X96360000Y-52350000D01*
X97860000Y-52350000D01*
X97860000Y-53250000D01*
G37*
G36*
X107572403Y-51108918D02*
G01*
X107621066Y-51141434D01*
X107653582Y-51190097D01*
X107665000Y-51247500D01*
X107665000Y-52997500D01*
X107653582Y-53054903D01*
X107621066Y-53103566D01*
X107572403Y-53136082D01*
X107515000Y-53147500D01*
X107215000Y-53147500D01*
X107157597Y-53136082D01*
X107108934Y-53103566D01*
X107076418Y-53054903D01*
X107065000Y-52997500D01*
X107065000Y-51247500D01*
X107076418Y-51190097D01*
X107108934Y-51141434D01*
X107157597Y-51108918D01*
X107215000Y-51097500D01*
X107515000Y-51097500D01*
X107572403Y-51108918D01*
G37*
G36*
X108842403Y-51108918D02*
G01*
X108891066Y-51141434D01*
X108923582Y-51190097D01*
X108935000Y-51247500D01*
X108935000Y-52997500D01*
X108923582Y-53054903D01*
X108891066Y-53103566D01*
X108842403Y-53136082D01*
X108785000Y-53147500D01*
X108485000Y-53147500D01*
X108427597Y-53136082D01*
X108378934Y-53103566D01*
X108346418Y-53054903D01*
X108335000Y-52997500D01*
X108335000Y-51247500D01*
X108346418Y-51190097D01*
X108378934Y-51141434D01*
X108427597Y-51108918D01*
X108485000Y-51097500D01*
X108785000Y-51097500D01*
X108842403Y-51108918D01*
G37*
G36*
X110112403Y-51108918D02*
G01*
X110161066Y-51141434D01*
X110193582Y-51190097D01*
X110205000Y-51247500D01*
X110205000Y-52997500D01*
X110193582Y-53054903D01*
X110161066Y-53103566D01*
X110112403Y-53136082D01*
X110055000Y-53147500D01*
X109755000Y-53147500D01*
X109697597Y-53136082D01*
X109648934Y-53103566D01*
X109616418Y-53054903D01*
X109605000Y-52997500D01*
X109605000Y-51247500D01*
X109616418Y-51190097D01*
X109648934Y-51141434D01*
X109697597Y-51108918D01*
X109755000Y-51097500D01*
X110055000Y-51097500D01*
X110112403Y-51108918D01*
G37*
G36*
X111382403Y-51108918D02*
G01*
X111431066Y-51141434D01*
X111463582Y-51190097D01*
X111475000Y-51247500D01*
X111475000Y-52997500D01*
X111463582Y-53054903D01*
X111431066Y-53103566D01*
X111382403Y-53136082D01*
X111325000Y-53147500D01*
X111025000Y-53147500D01*
X110967597Y-53136082D01*
X110918934Y-53103566D01*
X110886418Y-53054903D01*
X110875000Y-52997500D01*
X110875000Y-51247500D01*
X110886418Y-51190097D01*
X110918934Y-51141434D01*
X110967597Y-51108918D01*
X111025000Y-51097500D01*
X111325000Y-51097500D01*
X111382403Y-51108918D01*
G37*
G36*
X112652403Y-51108918D02*
G01*
X112701066Y-51141434D01*
X112733582Y-51190097D01*
X112745000Y-51247500D01*
X112745000Y-52997500D01*
X112733582Y-53054903D01*
X112701066Y-53103566D01*
X112652403Y-53136082D01*
X112595000Y-53147500D01*
X112295000Y-53147500D01*
X112237597Y-53136082D01*
X112188934Y-53103566D01*
X112156418Y-53054903D01*
X112145000Y-52997500D01*
X112145000Y-51247500D01*
X112156418Y-51190097D01*
X112188934Y-51141434D01*
X112237597Y-51108918D01*
X112295000Y-51097500D01*
X112595000Y-51097500D01*
X112652403Y-51108918D01*
G37*
G36*
X113922403Y-51108918D02*
G01*
X113971066Y-51141434D01*
X114003582Y-51190097D01*
X114015000Y-51247500D01*
X114015000Y-52997500D01*
X114003582Y-53054903D01*
X113971066Y-53103566D01*
X113922403Y-53136082D01*
X113865000Y-53147500D01*
X113565000Y-53147500D01*
X113507597Y-53136082D01*
X113458934Y-53103566D01*
X113426418Y-53054903D01*
X113415000Y-52997500D01*
X113415000Y-51247500D01*
X113426418Y-51190097D01*
X113458934Y-51141434D01*
X113507597Y-51108918D01*
X113565000Y-51097500D01*
X113865000Y-51097500D01*
X113922403Y-51108918D01*
G37*
G36*
X115192403Y-51108918D02*
G01*
X115241066Y-51141434D01*
X115273582Y-51190097D01*
X115285000Y-51247500D01*
X115285000Y-52997500D01*
X115273582Y-53054903D01*
X115241066Y-53103566D01*
X115192403Y-53136082D01*
X115135000Y-53147500D01*
X114835000Y-53147500D01*
X114777597Y-53136082D01*
X114728934Y-53103566D01*
X114696418Y-53054903D01*
X114685000Y-52997500D01*
X114685000Y-51247500D01*
X114696418Y-51190097D01*
X114728934Y-51141434D01*
X114777597Y-51108918D01*
X114835000Y-51097500D01*
X115135000Y-51097500D01*
X115192403Y-51108918D01*
G37*
G36*
X116462403Y-51108918D02*
G01*
X116511066Y-51141434D01*
X116543582Y-51190097D01*
X116555000Y-51247500D01*
X116555000Y-52997500D01*
X116543582Y-53054903D01*
X116511066Y-53103566D01*
X116462403Y-53136082D01*
X116405000Y-53147500D01*
X116105000Y-53147500D01*
X116047597Y-53136082D01*
X115998934Y-53103566D01*
X115966418Y-53054903D01*
X115955000Y-52997500D01*
X115955000Y-51247500D01*
X115966418Y-51190097D01*
X115998934Y-51141434D01*
X116047597Y-51108918D01*
X116105000Y-51097500D01*
X116405000Y-51097500D01*
X116462403Y-51108918D01*
G37*
G36*
X117732403Y-51108918D02*
G01*
X117781066Y-51141434D01*
X117813582Y-51190097D01*
X117825000Y-51247500D01*
X117825000Y-52997500D01*
X117813582Y-53054903D01*
X117781066Y-53103566D01*
X117732403Y-53136082D01*
X117675000Y-53147500D01*
X117375000Y-53147500D01*
X117317597Y-53136082D01*
X117268934Y-53103566D01*
X117236418Y-53054903D01*
X117225000Y-52997500D01*
X117225000Y-51247500D01*
X117236418Y-51190097D01*
X117268934Y-51141434D01*
X117317597Y-51108918D01*
X117375000Y-51097500D01*
X117675000Y-51097500D01*
X117732403Y-51108918D01*
G37*
G36*
X119002403Y-51108918D02*
G01*
X119051066Y-51141434D01*
X119083582Y-51190097D01*
X119095000Y-51247500D01*
X119095000Y-52997500D01*
X119083582Y-53054903D01*
X119051066Y-53103566D01*
X119002403Y-53136082D01*
X118945000Y-53147500D01*
X118645000Y-53147500D01*
X118587597Y-53136082D01*
X118538934Y-53103566D01*
X118506418Y-53054903D01*
X118495000Y-52997500D01*
X118495000Y-51247500D01*
X118506418Y-51190097D01*
X118538934Y-51141434D01*
X118587597Y-51108918D01*
X118645000Y-51097500D01*
X118945000Y-51097500D01*
X119002403Y-51108918D01*
G37*
G36*
X120272403Y-51108918D02*
G01*
X120321066Y-51141434D01*
X120353582Y-51190097D01*
X120365000Y-51247500D01*
X120365000Y-52997500D01*
X120353582Y-53054903D01*
X120321066Y-53103566D01*
X120272403Y-53136082D01*
X120215000Y-53147500D01*
X119915000Y-53147500D01*
X119857597Y-53136082D01*
X119808934Y-53103566D01*
X119776418Y-53054903D01*
X119765000Y-52997500D01*
X119765000Y-51247500D01*
X119776418Y-51190097D01*
X119808934Y-51141434D01*
X119857597Y-51108918D01*
X119915000Y-51097500D01*
X120215000Y-51097500D01*
X120272403Y-51108918D01*
G37*
G36*
X121542403Y-51108918D02*
G01*
X121591066Y-51141434D01*
X121623582Y-51190097D01*
X121635000Y-51247500D01*
X121635000Y-52997500D01*
X121623582Y-53054903D01*
X121591066Y-53103566D01*
X121542403Y-53136082D01*
X121485000Y-53147500D01*
X121185000Y-53147500D01*
X121127597Y-53136082D01*
X121078934Y-53103566D01*
X121046418Y-53054903D01*
X121035000Y-52997500D01*
X121035000Y-51247500D01*
X121046418Y-51190097D01*
X121078934Y-51141434D01*
X121127597Y-51108918D01*
X121185000Y-51097500D01*
X121485000Y-51097500D01*
X121542403Y-51108918D01*
G37*
G36*
X124625000Y-52500000D02*
G01*
X123375000Y-52500000D01*
X123375000Y-51500000D01*
X124625000Y-51500000D01*
X124625000Y-52500000D01*
G37*
G36*
X132375000Y-52500000D02*
G01*
X131125000Y-52500000D01*
X131125000Y-51500000D01*
X132375000Y-51500000D01*
X132375000Y-52500000D01*
G37*
G36*
X33917350Y-50600964D02*
G01*
X33967540Y-50606787D01*
X33984689Y-50614359D01*
X34008171Y-50619030D01*
X34033310Y-50635827D01*
X34053196Y-50644608D01*
X34066777Y-50658189D01*
X34089277Y-50673223D01*
X34104310Y-50695722D01*
X34117891Y-50709303D01*
X34126670Y-50729186D01*
X34143470Y-50754329D01*
X34148141Y-50777812D01*
X34155712Y-50794959D01*
X34161533Y-50845139D01*
X34162500Y-50850000D01*
X34162500Y-52150000D01*
X34161532Y-52154863D01*
X34155712Y-52205040D01*
X34148141Y-52222185D01*
X34143470Y-52245671D01*
X34126669Y-52270815D01*
X34117891Y-52290696D01*
X34104312Y-52304274D01*
X34089277Y-52326777D01*
X34066774Y-52341812D01*
X34053196Y-52355391D01*
X34033315Y-52364169D01*
X34008171Y-52380970D01*
X33984685Y-52385641D01*
X33967540Y-52393212D01*
X33917361Y-52399032D01*
X33912500Y-52400000D01*
X33087500Y-52400000D01*
X33082638Y-52399032D01*
X33032459Y-52393212D01*
X33015312Y-52385641D01*
X32991829Y-52380970D01*
X32966686Y-52364170D01*
X32946803Y-52355391D01*
X32933222Y-52341810D01*
X32910723Y-52326777D01*
X32895689Y-52304277D01*
X32882108Y-52290696D01*
X32873327Y-52270810D01*
X32856530Y-52245671D01*
X32851859Y-52222189D01*
X32844287Y-52205040D01*
X32838464Y-52154849D01*
X32837500Y-52150000D01*
X32837500Y-50850000D01*
X32838464Y-50845150D01*
X32844287Y-50794959D01*
X32851859Y-50777808D01*
X32856530Y-50754329D01*
X32873326Y-50729191D01*
X32882108Y-50709303D01*
X32895691Y-50695719D01*
X32910723Y-50673223D01*
X32933219Y-50658191D01*
X32946803Y-50644608D01*
X32966691Y-50635826D01*
X32991829Y-50619030D01*
X33015308Y-50614359D01*
X33032459Y-50606787D01*
X33082651Y-50600964D01*
X33087500Y-50600000D01*
X33912500Y-50600000D01*
X33917350Y-50600964D01*
G37*
G36*
X37042350Y-50600964D02*
G01*
X37092540Y-50606787D01*
X37109689Y-50614359D01*
X37133171Y-50619030D01*
X37158310Y-50635827D01*
X37178196Y-50644608D01*
X37191777Y-50658189D01*
X37214277Y-50673223D01*
X37229310Y-50695722D01*
X37242891Y-50709303D01*
X37251670Y-50729186D01*
X37268470Y-50754329D01*
X37273141Y-50777812D01*
X37280712Y-50794959D01*
X37286533Y-50845139D01*
X37287500Y-50850000D01*
X37287500Y-52150000D01*
X37286532Y-52154863D01*
X37280712Y-52205040D01*
X37273141Y-52222185D01*
X37268470Y-52245671D01*
X37251669Y-52270815D01*
X37242891Y-52290696D01*
X37229312Y-52304274D01*
X37214277Y-52326777D01*
X37191774Y-52341812D01*
X37178196Y-52355391D01*
X37158315Y-52364169D01*
X37133171Y-52380970D01*
X37109685Y-52385641D01*
X37092540Y-52393212D01*
X37042361Y-52399032D01*
X37037500Y-52400000D01*
X36212500Y-52400000D01*
X36207638Y-52399032D01*
X36157459Y-52393212D01*
X36140312Y-52385641D01*
X36116829Y-52380970D01*
X36091686Y-52364170D01*
X36071803Y-52355391D01*
X36058222Y-52341810D01*
X36035723Y-52326777D01*
X36020689Y-52304277D01*
X36007108Y-52290696D01*
X35998327Y-52270810D01*
X35981530Y-52245671D01*
X35976859Y-52222189D01*
X35969287Y-52205040D01*
X35963464Y-52154849D01*
X35962500Y-52150000D01*
X35962500Y-50850000D01*
X35963464Y-50845150D01*
X35969287Y-50794959D01*
X35976859Y-50777808D01*
X35981530Y-50754329D01*
X35998326Y-50729191D01*
X36007108Y-50709303D01*
X36020691Y-50695719D01*
X36035723Y-50673223D01*
X36058219Y-50658191D01*
X36071803Y-50644608D01*
X36091691Y-50635826D01*
X36116829Y-50619030D01*
X36140308Y-50614359D01*
X36157459Y-50606787D01*
X36207651Y-50600964D01*
X36212500Y-50600000D01*
X37037500Y-50600000D01*
X37042350Y-50600964D01*
G37*
G36*
X40762403Y-50061418D02*
G01*
X40811066Y-50093934D01*
X40843582Y-50142597D01*
X40855000Y-50200000D01*
X40855000Y-51850000D01*
X40843582Y-51907403D01*
X40811066Y-51956066D01*
X40762403Y-51988582D01*
X40705000Y-52000000D01*
X40405000Y-52000000D01*
X40347597Y-51988582D01*
X40298934Y-51956066D01*
X40266418Y-51907403D01*
X40255000Y-51850000D01*
X40255000Y-50200000D01*
X40266418Y-50142597D01*
X40298934Y-50093934D01*
X40347597Y-50061418D01*
X40405000Y-50050000D01*
X40705000Y-50050000D01*
X40762403Y-50061418D01*
G37*
G36*
X42032403Y-50061418D02*
G01*
X42081066Y-50093934D01*
X42113582Y-50142597D01*
X42125000Y-50200000D01*
X42125000Y-51850000D01*
X42113582Y-51907403D01*
X42081066Y-51956066D01*
X42032403Y-51988582D01*
X41975000Y-52000000D01*
X41675000Y-52000000D01*
X41617597Y-51988582D01*
X41568934Y-51956066D01*
X41536418Y-51907403D01*
X41525000Y-51850000D01*
X41525000Y-50200000D01*
X41536418Y-50142597D01*
X41568934Y-50093934D01*
X41617597Y-50061418D01*
X41675000Y-50050000D01*
X41975000Y-50050000D01*
X42032403Y-50061418D01*
G37*
G36*
X43302403Y-50061418D02*
G01*
X43351066Y-50093934D01*
X43383582Y-50142597D01*
X43395000Y-50200000D01*
X43395000Y-51850000D01*
X43383582Y-51907403D01*
X43351066Y-51956066D01*
X43302403Y-51988582D01*
X43245000Y-52000000D01*
X42945000Y-52000000D01*
X42887597Y-51988582D01*
X42838934Y-51956066D01*
X42806418Y-51907403D01*
X42795000Y-51850000D01*
X42795000Y-50200000D01*
X42806418Y-50142597D01*
X42838934Y-50093934D01*
X42887597Y-50061418D01*
X42945000Y-50050000D01*
X43245000Y-50050000D01*
X43302403Y-50061418D01*
G37*
G36*
X44572403Y-50061418D02*
G01*
X44621066Y-50093934D01*
X44653582Y-50142597D01*
X44665000Y-50200000D01*
X44665000Y-51850000D01*
X44653582Y-51907403D01*
X44621066Y-51956066D01*
X44572403Y-51988582D01*
X44515000Y-52000000D01*
X44215000Y-52000000D01*
X44157597Y-51988582D01*
X44108934Y-51956066D01*
X44076418Y-51907403D01*
X44065000Y-51850000D01*
X44065000Y-50200000D01*
X44076418Y-50142597D01*
X44108934Y-50093934D01*
X44157597Y-50061418D01*
X44215000Y-50050000D01*
X44515000Y-50050000D01*
X44572403Y-50061418D01*
G37*
G36*
X45842403Y-50061418D02*
G01*
X45891066Y-50093934D01*
X45923582Y-50142597D01*
X45935000Y-50200000D01*
X45935000Y-51850000D01*
X45923582Y-51907403D01*
X45891066Y-51956066D01*
X45842403Y-51988582D01*
X45785000Y-52000000D01*
X45485000Y-52000000D01*
X45427597Y-51988582D01*
X45378934Y-51956066D01*
X45346418Y-51907403D01*
X45335000Y-51850000D01*
X45335000Y-50200000D01*
X45346418Y-50142597D01*
X45378934Y-50093934D01*
X45427597Y-50061418D01*
X45485000Y-50050000D01*
X45785000Y-50050000D01*
X45842403Y-50061418D01*
G37*
G36*
X47112403Y-50061418D02*
G01*
X47161066Y-50093934D01*
X47193582Y-50142597D01*
X47205000Y-50200000D01*
X47205000Y-51850000D01*
X47193582Y-51907403D01*
X47161066Y-51956066D01*
X47112403Y-51988582D01*
X47055000Y-52000000D01*
X46755000Y-52000000D01*
X46697597Y-51988582D01*
X46648934Y-51956066D01*
X46616418Y-51907403D01*
X46605000Y-51850000D01*
X46605000Y-50200000D01*
X46616418Y-50142597D01*
X46648934Y-50093934D01*
X46697597Y-50061418D01*
X46755000Y-50050000D01*
X47055000Y-50050000D01*
X47112403Y-50061418D01*
G37*
G36*
X48382403Y-50061418D02*
G01*
X48431066Y-50093934D01*
X48463582Y-50142597D01*
X48475000Y-50200000D01*
X48475000Y-51850000D01*
X48463582Y-51907403D01*
X48431066Y-51956066D01*
X48382403Y-51988582D01*
X48325000Y-52000000D01*
X48025000Y-52000000D01*
X47967597Y-51988582D01*
X47918934Y-51956066D01*
X47886418Y-51907403D01*
X47875000Y-51850000D01*
X47875000Y-50200000D01*
X47886418Y-50142597D01*
X47918934Y-50093934D01*
X47967597Y-50061418D01*
X48025000Y-50050000D01*
X48325000Y-50050000D01*
X48382403Y-50061418D01*
G37*
G36*
X49652403Y-50061418D02*
G01*
X49701066Y-50093934D01*
X49733582Y-50142597D01*
X49745000Y-50200000D01*
X49745000Y-51850000D01*
X49733582Y-51907403D01*
X49701066Y-51956066D01*
X49652403Y-51988582D01*
X49595000Y-52000000D01*
X49295000Y-52000000D01*
X49237597Y-51988582D01*
X49188934Y-51956066D01*
X49156418Y-51907403D01*
X49145000Y-51850000D01*
X49145000Y-50200000D01*
X49156418Y-50142597D01*
X49188934Y-50093934D01*
X49237597Y-50061418D01*
X49295000Y-50050000D01*
X49595000Y-50050000D01*
X49652403Y-50061418D01*
G37*
G36*
X54000000Y-50000000D02*
G01*
X52000000Y-50000000D01*
X52000000Y-48000000D01*
X54000000Y-48000000D01*
X54000000Y-50000000D01*
G37*
G36*
X57367714Y-48292295D02*
G01*
X57503548Y-48348559D01*
X57625795Y-48430242D01*
X57729758Y-48534205D01*
X57811441Y-48656452D01*
X57867705Y-48792286D01*
X57896389Y-48936487D01*
X57896389Y-49083513D01*
X57867705Y-49227714D01*
X57811441Y-49363548D01*
X57729758Y-49485795D01*
X57625795Y-49589758D01*
X57503548Y-49671441D01*
X57367714Y-49727705D01*
X57223513Y-49756389D01*
X57076487Y-49756389D01*
X56932286Y-49727705D01*
X56796452Y-49671441D01*
X56674205Y-49589758D01*
X56570242Y-49485795D01*
X56488559Y-49363548D01*
X56432295Y-49227714D01*
X56403611Y-49083513D01*
X56403611Y-48936487D01*
X56432295Y-48792286D01*
X56488559Y-48656452D01*
X56570242Y-48534205D01*
X56674205Y-48430242D01*
X56796452Y-48348559D01*
X56932286Y-48292295D01*
X57076487Y-48263611D01*
X57223513Y-48263611D01*
X57367714Y-48292295D01*
G37*
G36*
X59907714Y-48292295D02*
G01*
X60043548Y-48348559D01*
X60165795Y-48430242D01*
X60269758Y-48534205D01*
X60351441Y-48656452D01*
X60407705Y-48792286D01*
X60436389Y-48936487D01*
X60436389Y-49083513D01*
X60407705Y-49227714D01*
X60351441Y-49363548D01*
X60269758Y-49485795D01*
X60165795Y-49589758D01*
X60043548Y-49671441D01*
X59907714Y-49727705D01*
X59763513Y-49756389D01*
X59616487Y-49756389D01*
X59472286Y-49727705D01*
X59336452Y-49671441D01*
X59214205Y-49589758D01*
X59110242Y-49485795D01*
X59028559Y-49363548D01*
X58972295Y-49227714D01*
X58943611Y-49083513D01*
X58943611Y-48936487D01*
X58972295Y-48792286D01*
X59028559Y-48656452D01*
X59110242Y-48534205D01*
X59214205Y-48430242D01*
X59336452Y-48348559D01*
X59472286Y-48292295D01*
X59616487Y-48263611D01*
X59763513Y-48263611D01*
X59907714Y-48292295D01*
G37*
G36*
X62447714Y-48292295D02*
G01*
X62583548Y-48348559D01*
X62705795Y-48430242D01*
X62809758Y-48534205D01*
X62891441Y-48656452D01*
X62947705Y-48792286D01*
X62976389Y-48936487D01*
X62976389Y-49083513D01*
X62947705Y-49227714D01*
X62891441Y-49363548D01*
X62809758Y-49485795D01*
X62705795Y-49589758D01*
X62583548Y-49671441D01*
X62447714Y-49727705D01*
X62303513Y-49756389D01*
X62156487Y-49756389D01*
X62012286Y-49727705D01*
X61876452Y-49671441D01*
X61754205Y-49589758D01*
X61650242Y-49485795D01*
X61568559Y-49363548D01*
X61512295Y-49227714D01*
X61483611Y-49083513D01*
X61483611Y-48936487D01*
X61512295Y-48792286D01*
X61568559Y-48656452D01*
X61650242Y-48534205D01*
X61754205Y-48430242D01*
X61876452Y-48348559D01*
X62012286Y-48292295D01*
X62156487Y-48263611D01*
X62303513Y-48263611D01*
X62447714Y-48292295D01*
G37*
G36*
X64987714Y-48292295D02*
G01*
X65123548Y-48348559D01*
X65245795Y-48430242D01*
X65349758Y-48534205D01*
X65431441Y-48656452D01*
X65487705Y-48792286D01*
X65516389Y-48936487D01*
X65516389Y-49083513D01*
X65487705Y-49227714D01*
X65431441Y-49363548D01*
X65349758Y-49485795D01*
X65245795Y-49589758D01*
X65123548Y-49671441D01*
X64987714Y-49727705D01*
X64843513Y-49756389D01*
X64696487Y-49756389D01*
X64552286Y-49727705D01*
X64416452Y-49671441D01*
X64294205Y-49589758D01*
X64190242Y-49485795D01*
X64108559Y-49363548D01*
X64052295Y-49227714D01*
X64023611Y-49083513D01*
X64023611Y-48936487D01*
X64052295Y-48792286D01*
X64108559Y-48656452D01*
X64190242Y-48534205D01*
X64294205Y-48430242D01*
X64416452Y-48348559D01*
X64552286Y-48292295D01*
X64696487Y-48263611D01*
X64843513Y-48263611D01*
X64987714Y-48292295D01*
G37*
G36*
X67527714Y-48292295D02*
G01*
X67663548Y-48348559D01*
X67785795Y-48430242D01*
X67889758Y-48534205D01*
X67971441Y-48656452D01*
X68027705Y-48792286D01*
X68056389Y-48936487D01*
X68056389Y-49083513D01*
X68027705Y-49227714D01*
X67971441Y-49363548D01*
X67889758Y-49485795D01*
X67785795Y-49589758D01*
X67663548Y-49671441D01*
X67527714Y-49727705D01*
X67383513Y-49756389D01*
X67236487Y-49756389D01*
X67092286Y-49727705D01*
X66956452Y-49671441D01*
X66834205Y-49589758D01*
X66730242Y-49485795D01*
X66648559Y-49363548D01*
X66592295Y-49227714D01*
X66563611Y-49083513D01*
X66563611Y-48936487D01*
X66592295Y-48792286D01*
X66648559Y-48656452D01*
X66730242Y-48534205D01*
X66834205Y-48430242D01*
X66956452Y-48348559D01*
X67092286Y-48292295D01*
X67236487Y-48263611D01*
X67383513Y-48263611D01*
X67527714Y-48292295D01*
G37*
G36*
X70067714Y-48292295D02*
G01*
X70203548Y-48348559D01*
X70325795Y-48430242D01*
X70429758Y-48534205D01*
X70511441Y-48656452D01*
X70567705Y-48792286D01*
X70596389Y-48936487D01*
X70596389Y-49083513D01*
X70567705Y-49227714D01*
X70511441Y-49363548D01*
X70429758Y-49485795D01*
X70325795Y-49589758D01*
X70203548Y-49671441D01*
X70067714Y-49727705D01*
X69923513Y-49756389D01*
X69776487Y-49756389D01*
X69632286Y-49727705D01*
X69496452Y-49671441D01*
X69374205Y-49589758D01*
X69270242Y-49485795D01*
X69188559Y-49363548D01*
X69132295Y-49227714D01*
X69103611Y-49083513D01*
X69103611Y-48936487D01*
X69132295Y-48792286D01*
X69188559Y-48656452D01*
X69270242Y-48534205D01*
X69374205Y-48430242D01*
X69496452Y-48348559D01*
X69632286Y-48292295D01*
X69776487Y-48263611D01*
X69923513Y-48263611D01*
X70067714Y-48292295D01*
G37*
G36*
X108217714Y-48292295D02*
G01*
X108353548Y-48348559D01*
X108475795Y-48430242D01*
X108579758Y-48534205D01*
X108661441Y-48656452D01*
X108717705Y-48792286D01*
X108746389Y-48936487D01*
X108746389Y-49083513D01*
X108717705Y-49227714D01*
X108661441Y-49363548D01*
X108579758Y-49485795D01*
X108475795Y-49589758D01*
X108353548Y-49671441D01*
X108217714Y-49727705D01*
X108073513Y-49756389D01*
X107926487Y-49756389D01*
X107782286Y-49727705D01*
X107646452Y-49671441D01*
X107524205Y-49589758D01*
X107420242Y-49485795D01*
X107338559Y-49363548D01*
X107282295Y-49227714D01*
X107253611Y-49083513D01*
X107253611Y-48936487D01*
X107282295Y-48792286D01*
X107338559Y-48656452D01*
X107420242Y-48534205D01*
X107524205Y-48430242D01*
X107646452Y-48348559D01*
X107782286Y-48292295D01*
X107926487Y-48263611D01*
X108073513Y-48263611D01*
X108217714Y-48292295D01*
G37*
G36*
X110757714Y-48292295D02*
G01*
X110893548Y-48348559D01*
X111015795Y-48430242D01*
X111119758Y-48534205D01*
X111201441Y-48656452D01*
X111257705Y-48792286D01*
X111286389Y-48936487D01*
X111286389Y-49083513D01*
X111257705Y-49227714D01*
X111201441Y-49363548D01*
X111119758Y-49485795D01*
X111015795Y-49589758D01*
X110893548Y-49671441D01*
X110757714Y-49727705D01*
X110613513Y-49756389D01*
X110466487Y-49756389D01*
X110322286Y-49727705D01*
X110186452Y-49671441D01*
X110064205Y-49589758D01*
X109960242Y-49485795D01*
X109878559Y-49363548D01*
X109822295Y-49227714D01*
X109793611Y-49083513D01*
X109793611Y-48936487D01*
X109822295Y-48792286D01*
X109878559Y-48656452D01*
X109960242Y-48534205D01*
X110064205Y-48430242D01*
X110186452Y-48348559D01*
X110322286Y-48292295D01*
X110466487Y-48263611D01*
X110613513Y-48263611D01*
X110757714Y-48292295D01*
G37*
G36*
X113297714Y-48292295D02*
G01*
X113433548Y-48348559D01*
X113555795Y-48430242D01*
X113659758Y-48534205D01*
X113741441Y-48656452D01*
X113797705Y-48792286D01*
X113826389Y-48936487D01*
X113826389Y-49083513D01*
X113797705Y-49227714D01*
X113741441Y-49363548D01*
X113659758Y-49485795D01*
X113555795Y-49589758D01*
X113433548Y-49671441D01*
X113297714Y-49727705D01*
X113153513Y-49756389D01*
X113006487Y-49756389D01*
X112862286Y-49727705D01*
X112726452Y-49671441D01*
X112604205Y-49589758D01*
X112500242Y-49485795D01*
X112418559Y-49363548D01*
X112362295Y-49227714D01*
X112333611Y-49083513D01*
X112333611Y-48936487D01*
X112362295Y-48792286D01*
X112418559Y-48656452D01*
X112500242Y-48534205D01*
X112604205Y-48430242D01*
X112726452Y-48348559D01*
X112862286Y-48292295D01*
X113006487Y-48263611D01*
X113153513Y-48263611D01*
X113297714Y-48292295D01*
G37*
G36*
X115837714Y-48292295D02*
G01*
X115973548Y-48348559D01*
X116095795Y-48430242D01*
X116199758Y-48534205D01*
X116281441Y-48656452D01*
X116337705Y-48792286D01*
X116366389Y-48936487D01*
X116366389Y-49083513D01*
X116337705Y-49227714D01*
X116281441Y-49363548D01*
X116199758Y-49485795D01*
X116095795Y-49589758D01*
X115973548Y-49671441D01*
X115837714Y-49727705D01*
X115693513Y-49756389D01*
X115546487Y-49756389D01*
X115402286Y-49727705D01*
X115266452Y-49671441D01*
X115144205Y-49589758D01*
X115040242Y-49485795D01*
X114958559Y-49363548D01*
X114902295Y-49227714D01*
X114873611Y-49083513D01*
X114873611Y-48936487D01*
X114902295Y-48792286D01*
X114958559Y-48656452D01*
X115040242Y-48534205D01*
X115144205Y-48430242D01*
X115266452Y-48348559D01*
X115402286Y-48292295D01*
X115546487Y-48263611D01*
X115693513Y-48263611D01*
X115837714Y-48292295D01*
G37*
G36*
X118377714Y-48292295D02*
G01*
X118513548Y-48348559D01*
X118635795Y-48430242D01*
X118739758Y-48534205D01*
X118821441Y-48656452D01*
X118877705Y-48792286D01*
X118906389Y-48936487D01*
X118906389Y-49083513D01*
X118877705Y-49227714D01*
X118821441Y-49363548D01*
X118739758Y-49485795D01*
X118635795Y-49589758D01*
X118513548Y-49671441D01*
X118377714Y-49727705D01*
X118233513Y-49756389D01*
X118086487Y-49756389D01*
X117942286Y-49727705D01*
X117806452Y-49671441D01*
X117684205Y-49589758D01*
X117580242Y-49485795D01*
X117498559Y-49363548D01*
X117442295Y-49227714D01*
X117413611Y-49083513D01*
X117413611Y-48936487D01*
X117442295Y-48792286D01*
X117498559Y-48656452D01*
X117580242Y-48534205D01*
X117684205Y-48430242D01*
X117806452Y-48348559D01*
X117942286Y-48292295D01*
X118086487Y-48263611D01*
X118233513Y-48263611D01*
X118377714Y-48292295D01*
G37*
G36*
X120917714Y-48292295D02*
G01*
X121053548Y-48348559D01*
X121175795Y-48430242D01*
X121279758Y-48534205D01*
X121361441Y-48656452D01*
X121417705Y-48792286D01*
X121446389Y-48936487D01*
X121446389Y-49083513D01*
X121417705Y-49227714D01*
X121361441Y-49363548D01*
X121279758Y-49485795D01*
X121175795Y-49589758D01*
X121053548Y-49671441D01*
X120917714Y-49727705D01*
X120773513Y-49756389D01*
X120626487Y-49756389D01*
X120482286Y-49727705D01*
X120346452Y-49671441D01*
X120224205Y-49589758D01*
X120120242Y-49485795D01*
X120038559Y-49363548D01*
X119982295Y-49227714D01*
X119953611Y-49083513D01*
X119953611Y-48936487D01*
X119982295Y-48792286D01*
X120038559Y-48656452D01*
X120120242Y-48534205D01*
X120224205Y-48430242D01*
X120346452Y-48348559D01*
X120482286Y-48292295D01*
X120626487Y-48263611D01*
X120773513Y-48263611D01*
X120917714Y-48292295D01*
G37*
%LPD*%
M02*
