%TF.GenerationSoftware,KiCad,Pcbnew,9.0.3*%
%TF.CreationDate,2025-09-30T21:03:42-04:00*%
%TF.ProjectId,shiftclock-2.0,73686966-7463-46c6-9f63-6b2d322e302e,rev?*%
%TF.SameCoordinates,Original*%
%TF.FileFunction,Drillmap*%
%TF.FilePolarity,Positive*%
%FSLAX45Y45*%
G04 Gerber Fmt 4.5, Leading zero omitted, Abs format (unit mm)*
G04 Created by KiCad (PCBNEW 9.0.3) date 2025-09-30 21:03:42*
%MOMM*%
%LPD*%
G01*
G04 APERTURE LIST*
%ADD10C,0.038100*%
%ADD11C,0.200000*%
%ADD12C,0.100000*%
G04 APERTURE END LIST*
D10*
X3925000Y-4800000D02*
X16875000Y-4800000D01*
X16875000Y-7550000D01*
X3925000Y-7550000D01*
X3925000Y-4800000D01*
D11*
D12*
X4602500Y-6681000D02*
X4662500Y-6741000D01*
X4662500Y-6681000D02*
X4602500Y-6741000D01*
X4602500Y-7259000D02*
X4662500Y-7319000D01*
X4662500Y-7259000D02*
X4602500Y-7319000D01*
D11*
X4183872Y-7863389D02*
X4183872Y-7663389D01*
X4183872Y-7663389D02*
X4231491Y-7663389D01*
X4231491Y-7663389D02*
X4260062Y-7672913D01*
X4260062Y-7672913D02*
X4279110Y-7691960D01*
X4279110Y-7691960D02*
X4288634Y-7711008D01*
X4288634Y-7711008D02*
X4298158Y-7749103D01*
X4298158Y-7749103D02*
X4298158Y-7777674D01*
X4298158Y-7777674D02*
X4288634Y-7815770D01*
X4288634Y-7815770D02*
X4279110Y-7834817D01*
X4279110Y-7834817D02*
X4260062Y-7853865D01*
X4260062Y-7853865D02*
X4231491Y-7863389D01*
X4231491Y-7863389D02*
X4183872Y-7863389D01*
X4383872Y-7863389D02*
X4383872Y-7730055D01*
X4383872Y-7768151D02*
X4393396Y-7749103D01*
X4393396Y-7749103D02*
X4402919Y-7739579D01*
X4402919Y-7739579D02*
X4421967Y-7730055D01*
X4421967Y-7730055D02*
X4441015Y-7730055D01*
X4507681Y-7863389D02*
X4507681Y-7730055D01*
X4507681Y-7663389D02*
X4498158Y-7672913D01*
X4498158Y-7672913D02*
X4507681Y-7682436D01*
X4507681Y-7682436D02*
X4517205Y-7672913D01*
X4517205Y-7672913D02*
X4507681Y-7663389D01*
X4507681Y-7663389D02*
X4507681Y-7682436D01*
X4631491Y-7863389D02*
X4612443Y-7853865D01*
X4612443Y-7853865D02*
X4602919Y-7834817D01*
X4602919Y-7834817D02*
X4602919Y-7663389D01*
X4736253Y-7863389D02*
X4717205Y-7853865D01*
X4717205Y-7853865D02*
X4707681Y-7834817D01*
X4707681Y-7834817D02*
X4707681Y-7663389D01*
X4964824Y-7863389D02*
X4964824Y-7663389D01*
X4964824Y-7663389D02*
X5031491Y-7806246D01*
X5031491Y-7806246D02*
X5098158Y-7663389D01*
X5098158Y-7663389D02*
X5098158Y-7863389D01*
X5279110Y-7863389D02*
X5279110Y-7758627D01*
X5279110Y-7758627D02*
X5269586Y-7739579D01*
X5269586Y-7739579D02*
X5250539Y-7730055D01*
X5250539Y-7730055D02*
X5212443Y-7730055D01*
X5212443Y-7730055D02*
X5193396Y-7739579D01*
X5279110Y-7853865D02*
X5260062Y-7863389D01*
X5260062Y-7863389D02*
X5212443Y-7863389D01*
X5212443Y-7863389D02*
X5193396Y-7853865D01*
X5193396Y-7853865D02*
X5183872Y-7834817D01*
X5183872Y-7834817D02*
X5183872Y-7815770D01*
X5183872Y-7815770D02*
X5193396Y-7796722D01*
X5193396Y-7796722D02*
X5212443Y-7787198D01*
X5212443Y-7787198D02*
X5260062Y-7787198D01*
X5260062Y-7787198D02*
X5279110Y-7777674D01*
X5374348Y-7730055D02*
X5374348Y-7930055D01*
X5374348Y-7739579D02*
X5393396Y-7730055D01*
X5393396Y-7730055D02*
X5431491Y-7730055D01*
X5431491Y-7730055D02*
X5450539Y-7739579D01*
X5450539Y-7739579D02*
X5460062Y-7749103D01*
X5460062Y-7749103D02*
X5469586Y-7768151D01*
X5469586Y-7768151D02*
X5469586Y-7825293D01*
X5469586Y-7825293D02*
X5460062Y-7844341D01*
X5460062Y-7844341D02*
X5450539Y-7853865D01*
X5450539Y-7853865D02*
X5431491Y-7863389D01*
X5431491Y-7863389D02*
X5393396Y-7863389D01*
X5393396Y-7863389D02*
X5374348Y-7853865D01*
X5555300Y-7844341D02*
X5564824Y-7853865D01*
X5564824Y-7853865D02*
X5555300Y-7863389D01*
X5555300Y-7863389D02*
X5545777Y-7853865D01*
X5545777Y-7853865D02*
X5555300Y-7844341D01*
X5555300Y-7844341D02*
X5555300Y-7863389D01*
X5555300Y-7739579D02*
X5564824Y-7749103D01*
X5564824Y-7749103D02*
X5555300Y-7758627D01*
X5555300Y-7758627D02*
X5545777Y-7749103D01*
X5545777Y-7749103D02*
X5555300Y-7739579D01*
X5555300Y-7739579D02*
X5555300Y-7758627D01*
D12*
X3863095Y-8161905D02*
X3923095Y-8221905D01*
X3923095Y-8161905D02*
X3863095Y-8221905D01*
D11*
X4221967Y-8083389D02*
X4241015Y-8083389D01*
X4241015Y-8083389D02*
X4260062Y-8092913D01*
X4260062Y-8092913D02*
X4269586Y-8102436D01*
X4269586Y-8102436D02*
X4279110Y-8121484D01*
X4279110Y-8121484D02*
X4288634Y-8159579D01*
X4288634Y-8159579D02*
X4288634Y-8207198D01*
X4288634Y-8207198D02*
X4279110Y-8245293D01*
X4279110Y-8245293D02*
X4269586Y-8264341D01*
X4269586Y-8264341D02*
X4260062Y-8273865D01*
X4260062Y-8273865D02*
X4241015Y-8283389D01*
X4241015Y-8283389D02*
X4221967Y-8283389D01*
X4221967Y-8283389D02*
X4202919Y-8273865D01*
X4202919Y-8273865D02*
X4193396Y-8264341D01*
X4193396Y-8264341D02*
X4183872Y-8245293D01*
X4183872Y-8245293D02*
X4174348Y-8207198D01*
X4174348Y-8207198D02*
X4174348Y-8159579D01*
X4174348Y-8159579D02*
X4183872Y-8121484D01*
X4183872Y-8121484D02*
X4193396Y-8102436D01*
X4193396Y-8102436D02*
X4202919Y-8092913D01*
X4202919Y-8092913D02*
X4221967Y-8083389D01*
X4374348Y-8264341D02*
X4383872Y-8273865D01*
X4383872Y-8273865D02*
X4374348Y-8283389D01*
X4374348Y-8283389D02*
X4364824Y-8273865D01*
X4364824Y-8273865D02*
X4374348Y-8264341D01*
X4374348Y-8264341D02*
X4374348Y-8283389D01*
X4555300Y-8083389D02*
X4517205Y-8083389D01*
X4517205Y-8083389D02*
X4498158Y-8092913D01*
X4498158Y-8092913D02*
X4488634Y-8102436D01*
X4488634Y-8102436D02*
X4469586Y-8131008D01*
X4469586Y-8131008D02*
X4460062Y-8169103D01*
X4460062Y-8169103D02*
X4460062Y-8245293D01*
X4460062Y-8245293D02*
X4469586Y-8264341D01*
X4469586Y-8264341D02*
X4479110Y-8273865D01*
X4479110Y-8273865D02*
X4498158Y-8283389D01*
X4498158Y-8283389D02*
X4536253Y-8283389D01*
X4536253Y-8283389D02*
X4555300Y-8273865D01*
X4555300Y-8273865D02*
X4564824Y-8264341D01*
X4564824Y-8264341D02*
X4574348Y-8245293D01*
X4574348Y-8245293D02*
X4574348Y-8197674D01*
X4574348Y-8197674D02*
X4564824Y-8178627D01*
X4564824Y-8178627D02*
X4555300Y-8169103D01*
X4555300Y-8169103D02*
X4536253Y-8159579D01*
X4536253Y-8159579D02*
X4498158Y-8159579D01*
X4498158Y-8159579D02*
X4479110Y-8169103D01*
X4479110Y-8169103D02*
X4469586Y-8178627D01*
X4469586Y-8178627D02*
X4460062Y-8197674D01*
X4698158Y-8083389D02*
X4717205Y-8083389D01*
X4717205Y-8083389D02*
X4736253Y-8092913D01*
X4736253Y-8092913D02*
X4745777Y-8102436D01*
X4745777Y-8102436D02*
X4755300Y-8121484D01*
X4755300Y-8121484D02*
X4764824Y-8159579D01*
X4764824Y-8159579D02*
X4764824Y-8207198D01*
X4764824Y-8207198D02*
X4755300Y-8245293D01*
X4755300Y-8245293D02*
X4745777Y-8264341D01*
X4745777Y-8264341D02*
X4736253Y-8273865D01*
X4736253Y-8273865D02*
X4717205Y-8283389D01*
X4717205Y-8283389D02*
X4698158Y-8283389D01*
X4698158Y-8283389D02*
X4679110Y-8273865D01*
X4679110Y-8273865D02*
X4669586Y-8264341D01*
X4669586Y-8264341D02*
X4660062Y-8245293D01*
X4660062Y-8245293D02*
X4650539Y-8207198D01*
X4650539Y-8207198D02*
X4650539Y-8159579D01*
X4650539Y-8159579D02*
X4660062Y-8121484D01*
X4660062Y-8121484D02*
X4669586Y-8102436D01*
X4669586Y-8102436D02*
X4679110Y-8092913D01*
X4679110Y-8092913D02*
X4698158Y-8083389D01*
X4888634Y-8083389D02*
X4907681Y-8083389D01*
X4907681Y-8083389D02*
X4926729Y-8092913D01*
X4926729Y-8092913D02*
X4936253Y-8102436D01*
X4936253Y-8102436D02*
X4945777Y-8121484D01*
X4945777Y-8121484D02*
X4955300Y-8159579D01*
X4955300Y-8159579D02*
X4955300Y-8207198D01*
X4955300Y-8207198D02*
X4945777Y-8245293D01*
X4945777Y-8245293D02*
X4936253Y-8264341D01*
X4936253Y-8264341D02*
X4926729Y-8273865D01*
X4926729Y-8273865D02*
X4907681Y-8283389D01*
X4907681Y-8283389D02*
X4888634Y-8283389D01*
X4888634Y-8283389D02*
X4869586Y-8273865D01*
X4869586Y-8273865D02*
X4860062Y-8264341D01*
X4860062Y-8264341D02*
X4850539Y-8245293D01*
X4850539Y-8245293D02*
X4841015Y-8207198D01*
X4841015Y-8207198D02*
X4841015Y-8159579D01*
X4841015Y-8159579D02*
X4850539Y-8121484D01*
X4850539Y-8121484D02*
X4860062Y-8102436D01*
X4860062Y-8102436D02*
X4869586Y-8092913D01*
X4869586Y-8092913D02*
X4888634Y-8083389D01*
X5041015Y-8283389D02*
X5041015Y-8150055D01*
X5041015Y-8169103D02*
X5050539Y-8159579D01*
X5050539Y-8159579D02*
X5069586Y-8150055D01*
X5069586Y-8150055D02*
X5098158Y-8150055D01*
X5098158Y-8150055D02*
X5117205Y-8159579D01*
X5117205Y-8159579D02*
X5126729Y-8178627D01*
X5126729Y-8178627D02*
X5126729Y-8283389D01*
X5126729Y-8178627D02*
X5136253Y-8159579D01*
X5136253Y-8159579D02*
X5155300Y-8150055D01*
X5155300Y-8150055D02*
X5183872Y-8150055D01*
X5183872Y-8150055D02*
X5202920Y-8159579D01*
X5202920Y-8159579D02*
X5212443Y-8178627D01*
X5212443Y-8178627D02*
X5212443Y-8283389D01*
X5307681Y-8283389D02*
X5307681Y-8150055D01*
X5307681Y-8169103D02*
X5317205Y-8159579D01*
X5317205Y-8159579D02*
X5336253Y-8150055D01*
X5336253Y-8150055D02*
X5364824Y-8150055D01*
X5364824Y-8150055D02*
X5383872Y-8159579D01*
X5383872Y-8159579D02*
X5393396Y-8178627D01*
X5393396Y-8178627D02*
X5393396Y-8283389D01*
X5393396Y-8178627D02*
X5402920Y-8159579D01*
X5402920Y-8159579D02*
X5421967Y-8150055D01*
X5421967Y-8150055D02*
X5450539Y-8150055D01*
X5450539Y-8150055D02*
X5469586Y-8159579D01*
X5469586Y-8159579D02*
X5479110Y-8178627D01*
X5479110Y-8178627D02*
X5479110Y-8283389D01*
X5869586Y-8073865D02*
X5698158Y-8331008D01*
X6126729Y-8083389D02*
X6145777Y-8083389D01*
X6145777Y-8083389D02*
X6164824Y-8092913D01*
X6164824Y-8092913D02*
X6174348Y-8102436D01*
X6174348Y-8102436D02*
X6183872Y-8121484D01*
X6183872Y-8121484D02*
X6193396Y-8159579D01*
X6193396Y-8159579D02*
X6193396Y-8207198D01*
X6193396Y-8207198D02*
X6183872Y-8245293D01*
X6183872Y-8245293D02*
X6174348Y-8264341D01*
X6174348Y-8264341D02*
X6164824Y-8273865D01*
X6164824Y-8273865D02*
X6145777Y-8283389D01*
X6145777Y-8283389D02*
X6126729Y-8283389D01*
X6126729Y-8283389D02*
X6107681Y-8273865D01*
X6107681Y-8273865D02*
X6098158Y-8264341D01*
X6098158Y-8264341D02*
X6088634Y-8245293D01*
X6088634Y-8245293D02*
X6079110Y-8207198D01*
X6079110Y-8207198D02*
X6079110Y-8159579D01*
X6079110Y-8159579D02*
X6088634Y-8121484D01*
X6088634Y-8121484D02*
X6098158Y-8102436D01*
X6098158Y-8102436D02*
X6107681Y-8092913D01*
X6107681Y-8092913D02*
X6126729Y-8083389D01*
X6279110Y-8264341D02*
X6288634Y-8273865D01*
X6288634Y-8273865D02*
X6279110Y-8283389D01*
X6279110Y-8283389D02*
X6269586Y-8273865D01*
X6269586Y-8273865D02*
X6279110Y-8264341D01*
X6279110Y-8264341D02*
X6279110Y-8283389D01*
X6412443Y-8083389D02*
X6431491Y-8083389D01*
X6431491Y-8083389D02*
X6450539Y-8092913D01*
X6450539Y-8092913D02*
X6460062Y-8102436D01*
X6460062Y-8102436D02*
X6469586Y-8121484D01*
X6469586Y-8121484D02*
X6479110Y-8159579D01*
X6479110Y-8159579D02*
X6479110Y-8207198D01*
X6479110Y-8207198D02*
X6469586Y-8245293D01*
X6469586Y-8245293D02*
X6460062Y-8264341D01*
X6460062Y-8264341D02*
X6450539Y-8273865D01*
X6450539Y-8273865D02*
X6431491Y-8283389D01*
X6431491Y-8283389D02*
X6412443Y-8283389D01*
X6412443Y-8283389D02*
X6393396Y-8273865D01*
X6393396Y-8273865D02*
X6383872Y-8264341D01*
X6383872Y-8264341D02*
X6374348Y-8245293D01*
X6374348Y-8245293D02*
X6364824Y-8207198D01*
X6364824Y-8207198D02*
X6364824Y-8159579D01*
X6364824Y-8159579D02*
X6374348Y-8121484D01*
X6374348Y-8121484D02*
X6383872Y-8102436D01*
X6383872Y-8102436D02*
X6393396Y-8092913D01*
X6393396Y-8092913D02*
X6412443Y-8083389D01*
X6555301Y-8102436D02*
X6564824Y-8092913D01*
X6564824Y-8092913D02*
X6583872Y-8083389D01*
X6583872Y-8083389D02*
X6631491Y-8083389D01*
X6631491Y-8083389D02*
X6650539Y-8092913D01*
X6650539Y-8092913D02*
X6660062Y-8102436D01*
X6660062Y-8102436D02*
X6669586Y-8121484D01*
X6669586Y-8121484D02*
X6669586Y-8140532D01*
X6669586Y-8140532D02*
X6660062Y-8169103D01*
X6660062Y-8169103D02*
X6545777Y-8283389D01*
X6545777Y-8283389D02*
X6669586Y-8283389D01*
X6736253Y-8083389D02*
X6860062Y-8083389D01*
X6860062Y-8083389D02*
X6793396Y-8159579D01*
X6793396Y-8159579D02*
X6821967Y-8159579D01*
X6821967Y-8159579D02*
X6841015Y-8169103D01*
X6841015Y-8169103D02*
X6850539Y-8178627D01*
X6850539Y-8178627D02*
X6860062Y-8197674D01*
X6860062Y-8197674D02*
X6860062Y-8245293D01*
X6860062Y-8245293D02*
X6850539Y-8264341D01*
X6850539Y-8264341D02*
X6841015Y-8273865D01*
X6841015Y-8273865D02*
X6821967Y-8283389D01*
X6821967Y-8283389D02*
X6764824Y-8283389D01*
X6764824Y-8283389D02*
X6745777Y-8273865D01*
X6745777Y-8273865D02*
X6736253Y-8264341D01*
X7031491Y-8083389D02*
X6993396Y-8083389D01*
X6993396Y-8083389D02*
X6974348Y-8092913D01*
X6974348Y-8092913D02*
X6964824Y-8102436D01*
X6964824Y-8102436D02*
X6945777Y-8131008D01*
X6945777Y-8131008D02*
X6936253Y-8169103D01*
X6936253Y-8169103D02*
X6936253Y-8245293D01*
X6936253Y-8245293D02*
X6945777Y-8264341D01*
X6945777Y-8264341D02*
X6955301Y-8273865D01*
X6955301Y-8273865D02*
X6974348Y-8283389D01*
X6974348Y-8283389D02*
X7012443Y-8283389D01*
X7012443Y-8283389D02*
X7031491Y-8273865D01*
X7031491Y-8273865D02*
X7041015Y-8264341D01*
X7041015Y-8264341D02*
X7050539Y-8245293D01*
X7050539Y-8245293D02*
X7050539Y-8197674D01*
X7050539Y-8197674D02*
X7041015Y-8178627D01*
X7041015Y-8178627D02*
X7031491Y-8169103D01*
X7031491Y-8169103D02*
X7012443Y-8159579D01*
X7012443Y-8159579D02*
X6974348Y-8159579D01*
X6974348Y-8159579D02*
X6955301Y-8169103D01*
X6955301Y-8169103D02*
X6945777Y-8178627D01*
X6945777Y-8178627D02*
X6936253Y-8197674D01*
X7126729Y-8083389D02*
X7126729Y-8121484D01*
X7202920Y-8083389D02*
X7202920Y-8121484D01*
X7498158Y-8359579D02*
X7488634Y-8350055D01*
X7488634Y-8350055D02*
X7469586Y-8321484D01*
X7469586Y-8321484D02*
X7460063Y-8302436D01*
X7460063Y-8302436D02*
X7450539Y-8273865D01*
X7450539Y-8273865D02*
X7441015Y-8226246D01*
X7441015Y-8226246D02*
X7441015Y-8188151D01*
X7441015Y-8188151D02*
X7450539Y-8140532D01*
X7450539Y-8140532D02*
X7460063Y-8111960D01*
X7460063Y-8111960D02*
X7469586Y-8092913D01*
X7469586Y-8092913D02*
X7488634Y-8064341D01*
X7488634Y-8064341D02*
X7498158Y-8054817D01*
X7564824Y-8102436D02*
X7574348Y-8092913D01*
X7574348Y-8092913D02*
X7593396Y-8083389D01*
X7593396Y-8083389D02*
X7641015Y-8083389D01*
X7641015Y-8083389D02*
X7660063Y-8092913D01*
X7660063Y-8092913D02*
X7669586Y-8102436D01*
X7669586Y-8102436D02*
X7679110Y-8121484D01*
X7679110Y-8121484D02*
X7679110Y-8140532D01*
X7679110Y-8140532D02*
X7669586Y-8169103D01*
X7669586Y-8169103D02*
X7555301Y-8283389D01*
X7555301Y-8283389D02*
X7679110Y-8283389D01*
X7917205Y-8283389D02*
X7917205Y-8083389D01*
X8002920Y-8283389D02*
X8002920Y-8178627D01*
X8002920Y-8178627D02*
X7993396Y-8159579D01*
X7993396Y-8159579D02*
X7974348Y-8150055D01*
X7974348Y-8150055D02*
X7945777Y-8150055D01*
X7945777Y-8150055D02*
X7926729Y-8159579D01*
X7926729Y-8159579D02*
X7917205Y-8169103D01*
X8126729Y-8283389D02*
X8107682Y-8273865D01*
X8107682Y-8273865D02*
X8098158Y-8264341D01*
X8098158Y-8264341D02*
X8088634Y-8245293D01*
X8088634Y-8245293D02*
X8088634Y-8188151D01*
X8088634Y-8188151D02*
X8098158Y-8169103D01*
X8098158Y-8169103D02*
X8107682Y-8159579D01*
X8107682Y-8159579D02*
X8126729Y-8150055D01*
X8126729Y-8150055D02*
X8155301Y-8150055D01*
X8155301Y-8150055D02*
X8174348Y-8159579D01*
X8174348Y-8159579D02*
X8183872Y-8169103D01*
X8183872Y-8169103D02*
X8193396Y-8188151D01*
X8193396Y-8188151D02*
X8193396Y-8245293D01*
X8193396Y-8245293D02*
X8183872Y-8264341D01*
X8183872Y-8264341D02*
X8174348Y-8273865D01*
X8174348Y-8273865D02*
X8155301Y-8283389D01*
X8155301Y-8283389D02*
X8126729Y-8283389D01*
X8307682Y-8283389D02*
X8288634Y-8273865D01*
X8288634Y-8273865D02*
X8279110Y-8254817D01*
X8279110Y-8254817D02*
X8279110Y-8083389D01*
X8460063Y-8273865D02*
X8441015Y-8283389D01*
X8441015Y-8283389D02*
X8402920Y-8283389D01*
X8402920Y-8283389D02*
X8383872Y-8273865D01*
X8383872Y-8273865D02*
X8374348Y-8254817D01*
X8374348Y-8254817D02*
X8374348Y-8178627D01*
X8374348Y-8178627D02*
X8383872Y-8159579D01*
X8383872Y-8159579D02*
X8402920Y-8150055D01*
X8402920Y-8150055D02*
X8441015Y-8150055D01*
X8441015Y-8150055D02*
X8460063Y-8159579D01*
X8460063Y-8159579D02*
X8469587Y-8178627D01*
X8469587Y-8178627D02*
X8469587Y-8197674D01*
X8469587Y-8197674D02*
X8374348Y-8216722D01*
X8545777Y-8273865D02*
X8564825Y-8283389D01*
X8564825Y-8283389D02*
X8602920Y-8283389D01*
X8602920Y-8283389D02*
X8621968Y-8273865D01*
X8621968Y-8273865D02*
X8631491Y-8254817D01*
X8631491Y-8254817D02*
X8631491Y-8245293D01*
X8631491Y-8245293D02*
X8621968Y-8226246D01*
X8621968Y-8226246D02*
X8602920Y-8216722D01*
X8602920Y-8216722D02*
X8574348Y-8216722D01*
X8574348Y-8216722D02*
X8555301Y-8207198D01*
X8555301Y-8207198D02*
X8545777Y-8188151D01*
X8545777Y-8188151D02*
X8545777Y-8178627D01*
X8545777Y-8178627D02*
X8555301Y-8159579D01*
X8555301Y-8159579D02*
X8574348Y-8150055D01*
X8574348Y-8150055D02*
X8602920Y-8150055D01*
X8602920Y-8150055D02*
X8621968Y-8159579D01*
X8698158Y-8359579D02*
X8707682Y-8350055D01*
X8707682Y-8350055D02*
X8726729Y-8321484D01*
X8726729Y-8321484D02*
X8736253Y-8302436D01*
X8736253Y-8302436D02*
X8745777Y-8273865D01*
X8745777Y-8273865D02*
X8755301Y-8226246D01*
X8755301Y-8226246D02*
X8755301Y-8188151D01*
X8755301Y-8188151D02*
X8745777Y-8140532D01*
X8745777Y-8140532D02*
X8736253Y-8111960D01*
X8736253Y-8111960D02*
X8726729Y-8092913D01*
X8726729Y-8092913D02*
X8707682Y-8064341D01*
X8707682Y-8064341D02*
X8698158Y-8054817D01*
X9060063Y-8359579D02*
X9050539Y-8350055D01*
X9050539Y-8350055D02*
X9031491Y-8321484D01*
X9031491Y-8321484D02*
X9021968Y-8302436D01*
X9021968Y-8302436D02*
X9012444Y-8273865D01*
X9012444Y-8273865D02*
X9002920Y-8226246D01*
X9002920Y-8226246D02*
X9002920Y-8188151D01*
X9002920Y-8188151D02*
X9012444Y-8140532D01*
X9012444Y-8140532D02*
X9021968Y-8111960D01*
X9021968Y-8111960D02*
X9031491Y-8092913D01*
X9031491Y-8092913D02*
X9050539Y-8064341D01*
X9050539Y-8064341D02*
X9060063Y-8054817D01*
X9136253Y-8150055D02*
X9136253Y-8283389D01*
X9136253Y-8169103D02*
X9145777Y-8159579D01*
X9145777Y-8159579D02*
X9164825Y-8150055D01*
X9164825Y-8150055D02*
X9193396Y-8150055D01*
X9193396Y-8150055D02*
X9212444Y-8159579D01*
X9212444Y-8159579D02*
X9221968Y-8178627D01*
X9221968Y-8178627D02*
X9221968Y-8283389D01*
X9345777Y-8283389D02*
X9326729Y-8273865D01*
X9326729Y-8273865D02*
X9317206Y-8264341D01*
X9317206Y-8264341D02*
X9307682Y-8245293D01*
X9307682Y-8245293D02*
X9307682Y-8188151D01*
X9307682Y-8188151D02*
X9317206Y-8169103D01*
X9317206Y-8169103D02*
X9326729Y-8159579D01*
X9326729Y-8159579D02*
X9345777Y-8150055D01*
X9345777Y-8150055D02*
X9374349Y-8150055D01*
X9374349Y-8150055D02*
X9393396Y-8159579D01*
X9393396Y-8159579D02*
X9402920Y-8169103D01*
X9402920Y-8169103D02*
X9412444Y-8188151D01*
X9412444Y-8188151D02*
X9412444Y-8245293D01*
X9412444Y-8245293D02*
X9402920Y-8264341D01*
X9402920Y-8264341D02*
X9393396Y-8273865D01*
X9393396Y-8273865D02*
X9374349Y-8283389D01*
X9374349Y-8283389D02*
X9345777Y-8283389D01*
X9469587Y-8150055D02*
X9545777Y-8150055D01*
X9498158Y-8083389D02*
X9498158Y-8254817D01*
X9498158Y-8254817D02*
X9507682Y-8273865D01*
X9507682Y-8273865D02*
X9526729Y-8283389D01*
X9526729Y-8283389D02*
X9545777Y-8283389D01*
X9764825Y-8150055D02*
X9764825Y-8350055D01*
X9764825Y-8159579D02*
X9783872Y-8150055D01*
X9783872Y-8150055D02*
X9821968Y-8150055D01*
X9821968Y-8150055D02*
X9841015Y-8159579D01*
X9841015Y-8159579D02*
X9850539Y-8169103D01*
X9850539Y-8169103D02*
X9860063Y-8188151D01*
X9860063Y-8188151D02*
X9860063Y-8245293D01*
X9860063Y-8245293D02*
X9850539Y-8264341D01*
X9850539Y-8264341D02*
X9841015Y-8273865D01*
X9841015Y-8273865D02*
X9821968Y-8283389D01*
X9821968Y-8283389D02*
X9783872Y-8283389D01*
X9783872Y-8283389D02*
X9764825Y-8273865D01*
X9974349Y-8283389D02*
X9955301Y-8273865D01*
X9955301Y-8273865D02*
X9945777Y-8254817D01*
X9945777Y-8254817D02*
X9945777Y-8083389D01*
X10136253Y-8283389D02*
X10136253Y-8178627D01*
X10136253Y-8178627D02*
X10126730Y-8159579D01*
X10126730Y-8159579D02*
X10107682Y-8150055D01*
X10107682Y-8150055D02*
X10069587Y-8150055D01*
X10069587Y-8150055D02*
X10050539Y-8159579D01*
X10136253Y-8273865D02*
X10117206Y-8283389D01*
X10117206Y-8283389D02*
X10069587Y-8283389D01*
X10069587Y-8283389D02*
X10050539Y-8273865D01*
X10050539Y-8273865D02*
X10041015Y-8254817D01*
X10041015Y-8254817D02*
X10041015Y-8235770D01*
X10041015Y-8235770D02*
X10050539Y-8216722D01*
X10050539Y-8216722D02*
X10069587Y-8207198D01*
X10069587Y-8207198D02*
X10117206Y-8207198D01*
X10117206Y-8207198D02*
X10136253Y-8197674D01*
X10202920Y-8150055D02*
X10279110Y-8150055D01*
X10231491Y-8083389D02*
X10231491Y-8254817D01*
X10231491Y-8254817D02*
X10241015Y-8273865D01*
X10241015Y-8273865D02*
X10260063Y-8283389D01*
X10260063Y-8283389D02*
X10279110Y-8283389D01*
X10421968Y-8273865D02*
X10402920Y-8283389D01*
X10402920Y-8283389D02*
X10364825Y-8283389D01*
X10364825Y-8283389D02*
X10345777Y-8273865D01*
X10345777Y-8273865D02*
X10336253Y-8254817D01*
X10336253Y-8254817D02*
X10336253Y-8178627D01*
X10336253Y-8178627D02*
X10345777Y-8159579D01*
X10345777Y-8159579D02*
X10364825Y-8150055D01*
X10364825Y-8150055D02*
X10402920Y-8150055D01*
X10402920Y-8150055D02*
X10421968Y-8159579D01*
X10421968Y-8159579D02*
X10431491Y-8178627D01*
X10431491Y-8178627D02*
X10431491Y-8197674D01*
X10431491Y-8197674D02*
X10336253Y-8216722D01*
X10602920Y-8283389D02*
X10602920Y-8083389D01*
X10602920Y-8273865D02*
X10583872Y-8283389D01*
X10583872Y-8283389D02*
X10545777Y-8283389D01*
X10545777Y-8283389D02*
X10526730Y-8273865D01*
X10526730Y-8273865D02*
X10517206Y-8264341D01*
X10517206Y-8264341D02*
X10507682Y-8245293D01*
X10507682Y-8245293D02*
X10507682Y-8188151D01*
X10507682Y-8188151D02*
X10517206Y-8169103D01*
X10517206Y-8169103D02*
X10526730Y-8159579D01*
X10526730Y-8159579D02*
X10545777Y-8150055D01*
X10545777Y-8150055D02*
X10583872Y-8150055D01*
X10583872Y-8150055D02*
X10602920Y-8159579D01*
X10679111Y-8359579D02*
X10688634Y-8350055D01*
X10688634Y-8350055D02*
X10707682Y-8321484D01*
X10707682Y-8321484D02*
X10717206Y-8302436D01*
X10717206Y-8302436D02*
X10726730Y-8273865D01*
X10726730Y-8273865D02*
X10736253Y-8226246D01*
X10736253Y-8226246D02*
X10736253Y-8188151D01*
X10736253Y-8188151D02*
X10726730Y-8140532D01*
X10726730Y-8140532D02*
X10717206Y-8111960D01*
X10717206Y-8111960D02*
X10707682Y-8092913D01*
X10707682Y-8092913D02*
X10688634Y-8064341D01*
X10688634Y-8064341D02*
X10679111Y-8054817D01*
M02*
