%TF.GenerationSoftware,KiCad,Pcbnew,9.0.4*%
%TF.CreationDate,2025-12-06T15:03:00-05:00*%
%TF.ProjectId,shiftclock-3.0,73686966-7463-46c6-9f63-6b2d332e302e,rev?*%
%TF.SameCoordinates,Original*%
%TF.FileFunction,Drillmap*%
%TF.FilePolarity,Positive*%
%FSLAX45Y45*%
G04 Gerber Fmt 4.5, Leading zero omitted, Abs format (unit mm)*
G04 Created by KiCad (PCBNEW 9.0.4) date 2025-12-06 15:03:00*
%MOMM*%
%LPD*%
G01*
G04 APERTURE LIST*
%ADD10C,0.038100*%
%ADD11C,0.200000*%
%ADD12C,0.100000*%
G04 APERTURE END LIST*
D10*
X3800000Y-3900000D02*
X15495000Y-3900000D01*
X15495000Y-6650000D01*
X3800000Y-6650000D01*
X3800000Y-3900000D01*
D11*
D12*
X4478000Y-5773000D02*
X4538000Y-5833000D01*
X4538000Y-5773000D02*
X4478000Y-5833000D01*
X4478000Y-6351000D02*
X4538000Y-6411000D01*
X4538000Y-6351000D02*
X4478000Y-6411000D01*
D11*
X4058872Y-6963389D02*
X4058872Y-6763389D01*
X4058872Y-6763389D02*
X4106491Y-6763389D01*
X4106491Y-6763389D02*
X4135062Y-6772913D01*
X4135062Y-6772913D02*
X4154110Y-6791960D01*
X4154110Y-6791960D02*
X4163634Y-6811008D01*
X4163634Y-6811008D02*
X4173157Y-6849103D01*
X4173157Y-6849103D02*
X4173157Y-6877674D01*
X4173157Y-6877674D02*
X4163634Y-6915770D01*
X4163634Y-6915770D02*
X4154110Y-6934817D01*
X4154110Y-6934817D02*
X4135062Y-6953865D01*
X4135062Y-6953865D02*
X4106491Y-6963389D01*
X4106491Y-6963389D02*
X4058872Y-6963389D01*
X4258872Y-6963389D02*
X4258872Y-6830055D01*
X4258872Y-6868151D02*
X4268396Y-6849103D01*
X4268396Y-6849103D02*
X4277919Y-6839579D01*
X4277919Y-6839579D02*
X4296967Y-6830055D01*
X4296967Y-6830055D02*
X4316015Y-6830055D01*
X4382681Y-6963389D02*
X4382681Y-6830055D01*
X4382681Y-6763389D02*
X4373158Y-6772913D01*
X4373158Y-6772913D02*
X4382681Y-6782436D01*
X4382681Y-6782436D02*
X4392205Y-6772913D01*
X4392205Y-6772913D02*
X4382681Y-6763389D01*
X4382681Y-6763389D02*
X4382681Y-6782436D01*
X4506491Y-6963389D02*
X4487443Y-6953865D01*
X4487443Y-6953865D02*
X4477919Y-6934817D01*
X4477919Y-6934817D02*
X4477919Y-6763389D01*
X4611253Y-6963389D02*
X4592205Y-6953865D01*
X4592205Y-6953865D02*
X4582681Y-6934817D01*
X4582681Y-6934817D02*
X4582681Y-6763389D01*
X4839824Y-6963389D02*
X4839824Y-6763389D01*
X4839824Y-6763389D02*
X4906491Y-6906246D01*
X4906491Y-6906246D02*
X4973158Y-6763389D01*
X4973158Y-6763389D02*
X4973158Y-6963389D01*
X5154110Y-6963389D02*
X5154110Y-6858627D01*
X5154110Y-6858627D02*
X5144586Y-6839579D01*
X5144586Y-6839579D02*
X5125539Y-6830055D01*
X5125539Y-6830055D02*
X5087443Y-6830055D01*
X5087443Y-6830055D02*
X5068396Y-6839579D01*
X5154110Y-6953865D02*
X5135062Y-6963389D01*
X5135062Y-6963389D02*
X5087443Y-6963389D01*
X5087443Y-6963389D02*
X5068396Y-6953865D01*
X5068396Y-6953865D02*
X5058872Y-6934817D01*
X5058872Y-6934817D02*
X5058872Y-6915770D01*
X5058872Y-6915770D02*
X5068396Y-6896722D01*
X5068396Y-6896722D02*
X5087443Y-6887198D01*
X5087443Y-6887198D02*
X5135062Y-6887198D01*
X5135062Y-6887198D02*
X5154110Y-6877674D01*
X5249348Y-6830055D02*
X5249348Y-7030055D01*
X5249348Y-6839579D02*
X5268396Y-6830055D01*
X5268396Y-6830055D02*
X5306491Y-6830055D01*
X5306491Y-6830055D02*
X5325539Y-6839579D01*
X5325539Y-6839579D02*
X5335062Y-6849103D01*
X5335062Y-6849103D02*
X5344586Y-6868151D01*
X5344586Y-6868151D02*
X5344586Y-6925293D01*
X5344586Y-6925293D02*
X5335062Y-6944341D01*
X5335062Y-6944341D02*
X5325539Y-6953865D01*
X5325539Y-6953865D02*
X5306491Y-6963389D01*
X5306491Y-6963389D02*
X5268396Y-6963389D01*
X5268396Y-6963389D02*
X5249348Y-6953865D01*
X5430300Y-6944341D02*
X5439824Y-6953865D01*
X5439824Y-6953865D02*
X5430300Y-6963389D01*
X5430300Y-6963389D02*
X5420777Y-6953865D01*
X5420777Y-6953865D02*
X5430300Y-6944341D01*
X5430300Y-6944341D02*
X5430300Y-6963389D01*
X5430300Y-6839579D02*
X5439824Y-6849103D01*
X5439824Y-6849103D02*
X5430300Y-6858627D01*
X5430300Y-6858627D02*
X5420777Y-6849103D01*
X5420777Y-6849103D02*
X5430300Y-6839579D01*
X5430300Y-6839579D02*
X5430300Y-6858627D01*
D12*
X3738095Y-7261905D02*
X3798095Y-7321905D01*
X3798095Y-7261905D02*
X3738095Y-7321905D01*
D11*
X4096967Y-7183389D02*
X4116015Y-7183389D01*
X4116015Y-7183389D02*
X4135062Y-7192913D01*
X4135062Y-7192913D02*
X4144586Y-7202436D01*
X4144586Y-7202436D02*
X4154110Y-7221484D01*
X4154110Y-7221484D02*
X4163634Y-7259579D01*
X4163634Y-7259579D02*
X4163634Y-7307198D01*
X4163634Y-7307198D02*
X4154110Y-7345293D01*
X4154110Y-7345293D02*
X4144586Y-7364341D01*
X4144586Y-7364341D02*
X4135062Y-7373865D01*
X4135062Y-7373865D02*
X4116015Y-7383389D01*
X4116015Y-7383389D02*
X4096967Y-7383389D01*
X4096967Y-7383389D02*
X4077919Y-7373865D01*
X4077919Y-7373865D02*
X4068396Y-7364341D01*
X4068396Y-7364341D02*
X4058872Y-7345293D01*
X4058872Y-7345293D02*
X4049348Y-7307198D01*
X4049348Y-7307198D02*
X4049348Y-7259579D01*
X4049348Y-7259579D02*
X4058872Y-7221484D01*
X4058872Y-7221484D02*
X4068396Y-7202436D01*
X4068396Y-7202436D02*
X4077919Y-7192913D01*
X4077919Y-7192913D02*
X4096967Y-7183389D01*
X4249348Y-7364341D02*
X4258872Y-7373865D01*
X4258872Y-7373865D02*
X4249348Y-7383389D01*
X4249348Y-7383389D02*
X4239824Y-7373865D01*
X4239824Y-7373865D02*
X4249348Y-7364341D01*
X4249348Y-7364341D02*
X4249348Y-7383389D01*
X4430300Y-7183389D02*
X4392205Y-7183389D01*
X4392205Y-7183389D02*
X4373158Y-7192913D01*
X4373158Y-7192913D02*
X4363634Y-7202436D01*
X4363634Y-7202436D02*
X4344586Y-7231008D01*
X4344586Y-7231008D02*
X4335062Y-7269103D01*
X4335062Y-7269103D02*
X4335062Y-7345293D01*
X4335062Y-7345293D02*
X4344586Y-7364341D01*
X4344586Y-7364341D02*
X4354110Y-7373865D01*
X4354110Y-7373865D02*
X4373158Y-7383389D01*
X4373158Y-7383389D02*
X4411253Y-7383389D01*
X4411253Y-7383389D02*
X4430300Y-7373865D01*
X4430300Y-7373865D02*
X4439824Y-7364341D01*
X4439824Y-7364341D02*
X4449348Y-7345293D01*
X4449348Y-7345293D02*
X4449348Y-7297674D01*
X4449348Y-7297674D02*
X4439824Y-7278627D01*
X4439824Y-7278627D02*
X4430300Y-7269103D01*
X4430300Y-7269103D02*
X4411253Y-7259579D01*
X4411253Y-7259579D02*
X4373158Y-7259579D01*
X4373158Y-7259579D02*
X4354110Y-7269103D01*
X4354110Y-7269103D02*
X4344586Y-7278627D01*
X4344586Y-7278627D02*
X4335062Y-7297674D01*
X4573158Y-7183389D02*
X4592205Y-7183389D01*
X4592205Y-7183389D02*
X4611253Y-7192913D01*
X4611253Y-7192913D02*
X4620777Y-7202436D01*
X4620777Y-7202436D02*
X4630300Y-7221484D01*
X4630300Y-7221484D02*
X4639824Y-7259579D01*
X4639824Y-7259579D02*
X4639824Y-7307198D01*
X4639824Y-7307198D02*
X4630300Y-7345293D01*
X4630300Y-7345293D02*
X4620777Y-7364341D01*
X4620777Y-7364341D02*
X4611253Y-7373865D01*
X4611253Y-7373865D02*
X4592205Y-7383389D01*
X4592205Y-7383389D02*
X4573158Y-7383389D01*
X4573158Y-7383389D02*
X4554110Y-7373865D01*
X4554110Y-7373865D02*
X4544586Y-7364341D01*
X4544586Y-7364341D02*
X4535062Y-7345293D01*
X4535062Y-7345293D02*
X4525539Y-7307198D01*
X4525539Y-7307198D02*
X4525539Y-7259579D01*
X4525539Y-7259579D02*
X4535062Y-7221484D01*
X4535062Y-7221484D02*
X4544586Y-7202436D01*
X4544586Y-7202436D02*
X4554110Y-7192913D01*
X4554110Y-7192913D02*
X4573158Y-7183389D01*
X4763634Y-7183389D02*
X4782681Y-7183389D01*
X4782681Y-7183389D02*
X4801729Y-7192913D01*
X4801729Y-7192913D02*
X4811253Y-7202436D01*
X4811253Y-7202436D02*
X4820777Y-7221484D01*
X4820777Y-7221484D02*
X4830300Y-7259579D01*
X4830300Y-7259579D02*
X4830300Y-7307198D01*
X4830300Y-7307198D02*
X4820777Y-7345293D01*
X4820777Y-7345293D02*
X4811253Y-7364341D01*
X4811253Y-7364341D02*
X4801729Y-7373865D01*
X4801729Y-7373865D02*
X4782681Y-7383389D01*
X4782681Y-7383389D02*
X4763634Y-7383389D01*
X4763634Y-7383389D02*
X4744586Y-7373865D01*
X4744586Y-7373865D02*
X4735062Y-7364341D01*
X4735062Y-7364341D02*
X4725539Y-7345293D01*
X4725539Y-7345293D02*
X4716015Y-7307198D01*
X4716015Y-7307198D02*
X4716015Y-7259579D01*
X4716015Y-7259579D02*
X4725539Y-7221484D01*
X4725539Y-7221484D02*
X4735062Y-7202436D01*
X4735062Y-7202436D02*
X4744586Y-7192913D01*
X4744586Y-7192913D02*
X4763634Y-7183389D01*
X4916015Y-7383389D02*
X4916015Y-7250055D01*
X4916015Y-7269103D02*
X4925539Y-7259579D01*
X4925539Y-7259579D02*
X4944586Y-7250055D01*
X4944586Y-7250055D02*
X4973158Y-7250055D01*
X4973158Y-7250055D02*
X4992205Y-7259579D01*
X4992205Y-7259579D02*
X5001729Y-7278627D01*
X5001729Y-7278627D02*
X5001729Y-7383389D01*
X5001729Y-7278627D02*
X5011253Y-7259579D01*
X5011253Y-7259579D02*
X5030300Y-7250055D01*
X5030300Y-7250055D02*
X5058872Y-7250055D01*
X5058872Y-7250055D02*
X5077920Y-7259579D01*
X5077920Y-7259579D02*
X5087443Y-7278627D01*
X5087443Y-7278627D02*
X5087443Y-7383389D01*
X5182681Y-7383389D02*
X5182681Y-7250055D01*
X5182681Y-7269103D02*
X5192205Y-7259579D01*
X5192205Y-7259579D02*
X5211253Y-7250055D01*
X5211253Y-7250055D02*
X5239824Y-7250055D01*
X5239824Y-7250055D02*
X5258872Y-7259579D01*
X5258872Y-7259579D02*
X5268396Y-7278627D01*
X5268396Y-7278627D02*
X5268396Y-7383389D01*
X5268396Y-7278627D02*
X5277920Y-7259579D01*
X5277920Y-7259579D02*
X5296967Y-7250055D01*
X5296967Y-7250055D02*
X5325539Y-7250055D01*
X5325539Y-7250055D02*
X5344586Y-7259579D01*
X5344586Y-7259579D02*
X5354110Y-7278627D01*
X5354110Y-7278627D02*
X5354110Y-7383389D01*
X5744586Y-7173865D02*
X5573158Y-7431008D01*
X6001729Y-7183389D02*
X6020777Y-7183389D01*
X6020777Y-7183389D02*
X6039824Y-7192913D01*
X6039824Y-7192913D02*
X6049348Y-7202436D01*
X6049348Y-7202436D02*
X6058872Y-7221484D01*
X6058872Y-7221484D02*
X6068396Y-7259579D01*
X6068396Y-7259579D02*
X6068396Y-7307198D01*
X6068396Y-7307198D02*
X6058872Y-7345293D01*
X6058872Y-7345293D02*
X6049348Y-7364341D01*
X6049348Y-7364341D02*
X6039824Y-7373865D01*
X6039824Y-7373865D02*
X6020777Y-7383389D01*
X6020777Y-7383389D02*
X6001729Y-7383389D01*
X6001729Y-7383389D02*
X5982681Y-7373865D01*
X5982681Y-7373865D02*
X5973158Y-7364341D01*
X5973158Y-7364341D02*
X5963634Y-7345293D01*
X5963634Y-7345293D02*
X5954110Y-7307198D01*
X5954110Y-7307198D02*
X5954110Y-7259579D01*
X5954110Y-7259579D02*
X5963634Y-7221484D01*
X5963634Y-7221484D02*
X5973158Y-7202436D01*
X5973158Y-7202436D02*
X5982681Y-7192913D01*
X5982681Y-7192913D02*
X6001729Y-7183389D01*
X6154110Y-7364341D02*
X6163634Y-7373865D01*
X6163634Y-7373865D02*
X6154110Y-7383389D01*
X6154110Y-7383389D02*
X6144586Y-7373865D01*
X6144586Y-7373865D02*
X6154110Y-7364341D01*
X6154110Y-7364341D02*
X6154110Y-7383389D01*
X6287443Y-7183389D02*
X6306491Y-7183389D01*
X6306491Y-7183389D02*
X6325539Y-7192913D01*
X6325539Y-7192913D02*
X6335062Y-7202436D01*
X6335062Y-7202436D02*
X6344586Y-7221484D01*
X6344586Y-7221484D02*
X6354110Y-7259579D01*
X6354110Y-7259579D02*
X6354110Y-7307198D01*
X6354110Y-7307198D02*
X6344586Y-7345293D01*
X6344586Y-7345293D02*
X6335062Y-7364341D01*
X6335062Y-7364341D02*
X6325539Y-7373865D01*
X6325539Y-7373865D02*
X6306491Y-7383389D01*
X6306491Y-7383389D02*
X6287443Y-7383389D01*
X6287443Y-7383389D02*
X6268396Y-7373865D01*
X6268396Y-7373865D02*
X6258872Y-7364341D01*
X6258872Y-7364341D02*
X6249348Y-7345293D01*
X6249348Y-7345293D02*
X6239824Y-7307198D01*
X6239824Y-7307198D02*
X6239824Y-7259579D01*
X6239824Y-7259579D02*
X6249348Y-7221484D01*
X6249348Y-7221484D02*
X6258872Y-7202436D01*
X6258872Y-7202436D02*
X6268396Y-7192913D01*
X6268396Y-7192913D02*
X6287443Y-7183389D01*
X6430301Y-7202436D02*
X6439824Y-7192913D01*
X6439824Y-7192913D02*
X6458872Y-7183389D01*
X6458872Y-7183389D02*
X6506491Y-7183389D01*
X6506491Y-7183389D02*
X6525539Y-7192913D01*
X6525539Y-7192913D02*
X6535062Y-7202436D01*
X6535062Y-7202436D02*
X6544586Y-7221484D01*
X6544586Y-7221484D02*
X6544586Y-7240532D01*
X6544586Y-7240532D02*
X6535062Y-7269103D01*
X6535062Y-7269103D02*
X6420777Y-7383389D01*
X6420777Y-7383389D02*
X6544586Y-7383389D01*
X6611253Y-7183389D02*
X6735062Y-7183389D01*
X6735062Y-7183389D02*
X6668396Y-7259579D01*
X6668396Y-7259579D02*
X6696967Y-7259579D01*
X6696967Y-7259579D02*
X6716015Y-7269103D01*
X6716015Y-7269103D02*
X6725539Y-7278627D01*
X6725539Y-7278627D02*
X6735062Y-7297674D01*
X6735062Y-7297674D02*
X6735062Y-7345293D01*
X6735062Y-7345293D02*
X6725539Y-7364341D01*
X6725539Y-7364341D02*
X6716015Y-7373865D01*
X6716015Y-7373865D02*
X6696967Y-7383389D01*
X6696967Y-7383389D02*
X6639824Y-7383389D01*
X6639824Y-7383389D02*
X6620777Y-7373865D01*
X6620777Y-7373865D02*
X6611253Y-7364341D01*
X6906491Y-7183389D02*
X6868396Y-7183389D01*
X6868396Y-7183389D02*
X6849348Y-7192913D01*
X6849348Y-7192913D02*
X6839824Y-7202436D01*
X6839824Y-7202436D02*
X6820777Y-7231008D01*
X6820777Y-7231008D02*
X6811253Y-7269103D01*
X6811253Y-7269103D02*
X6811253Y-7345293D01*
X6811253Y-7345293D02*
X6820777Y-7364341D01*
X6820777Y-7364341D02*
X6830301Y-7373865D01*
X6830301Y-7373865D02*
X6849348Y-7383389D01*
X6849348Y-7383389D02*
X6887443Y-7383389D01*
X6887443Y-7383389D02*
X6906491Y-7373865D01*
X6906491Y-7373865D02*
X6916015Y-7364341D01*
X6916015Y-7364341D02*
X6925539Y-7345293D01*
X6925539Y-7345293D02*
X6925539Y-7297674D01*
X6925539Y-7297674D02*
X6916015Y-7278627D01*
X6916015Y-7278627D02*
X6906491Y-7269103D01*
X6906491Y-7269103D02*
X6887443Y-7259579D01*
X6887443Y-7259579D02*
X6849348Y-7259579D01*
X6849348Y-7259579D02*
X6830301Y-7269103D01*
X6830301Y-7269103D02*
X6820777Y-7278627D01*
X6820777Y-7278627D02*
X6811253Y-7297674D01*
X7001729Y-7183389D02*
X7001729Y-7221484D01*
X7077920Y-7183389D02*
X7077920Y-7221484D01*
X7373158Y-7459579D02*
X7363634Y-7450055D01*
X7363634Y-7450055D02*
X7344586Y-7421484D01*
X7344586Y-7421484D02*
X7335063Y-7402436D01*
X7335063Y-7402436D02*
X7325539Y-7373865D01*
X7325539Y-7373865D02*
X7316015Y-7326246D01*
X7316015Y-7326246D02*
X7316015Y-7288151D01*
X7316015Y-7288151D02*
X7325539Y-7240532D01*
X7325539Y-7240532D02*
X7335063Y-7211960D01*
X7335063Y-7211960D02*
X7344586Y-7192913D01*
X7344586Y-7192913D02*
X7363634Y-7164341D01*
X7363634Y-7164341D02*
X7373158Y-7154817D01*
X7439824Y-7202436D02*
X7449348Y-7192913D01*
X7449348Y-7192913D02*
X7468396Y-7183389D01*
X7468396Y-7183389D02*
X7516015Y-7183389D01*
X7516015Y-7183389D02*
X7535063Y-7192913D01*
X7535063Y-7192913D02*
X7544586Y-7202436D01*
X7544586Y-7202436D02*
X7554110Y-7221484D01*
X7554110Y-7221484D02*
X7554110Y-7240532D01*
X7554110Y-7240532D02*
X7544586Y-7269103D01*
X7544586Y-7269103D02*
X7430301Y-7383389D01*
X7430301Y-7383389D02*
X7554110Y-7383389D01*
X7792205Y-7383389D02*
X7792205Y-7183389D01*
X7877920Y-7383389D02*
X7877920Y-7278627D01*
X7877920Y-7278627D02*
X7868396Y-7259579D01*
X7868396Y-7259579D02*
X7849348Y-7250055D01*
X7849348Y-7250055D02*
X7820777Y-7250055D01*
X7820777Y-7250055D02*
X7801729Y-7259579D01*
X7801729Y-7259579D02*
X7792205Y-7269103D01*
X8001729Y-7383389D02*
X7982682Y-7373865D01*
X7982682Y-7373865D02*
X7973158Y-7364341D01*
X7973158Y-7364341D02*
X7963634Y-7345293D01*
X7963634Y-7345293D02*
X7963634Y-7288151D01*
X7963634Y-7288151D02*
X7973158Y-7269103D01*
X7973158Y-7269103D02*
X7982682Y-7259579D01*
X7982682Y-7259579D02*
X8001729Y-7250055D01*
X8001729Y-7250055D02*
X8030301Y-7250055D01*
X8030301Y-7250055D02*
X8049348Y-7259579D01*
X8049348Y-7259579D02*
X8058872Y-7269103D01*
X8058872Y-7269103D02*
X8068396Y-7288151D01*
X8068396Y-7288151D02*
X8068396Y-7345293D01*
X8068396Y-7345293D02*
X8058872Y-7364341D01*
X8058872Y-7364341D02*
X8049348Y-7373865D01*
X8049348Y-7373865D02*
X8030301Y-7383389D01*
X8030301Y-7383389D02*
X8001729Y-7383389D01*
X8182682Y-7383389D02*
X8163634Y-7373865D01*
X8163634Y-7373865D02*
X8154110Y-7354817D01*
X8154110Y-7354817D02*
X8154110Y-7183389D01*
X8335063Y-7373865D02*
X8316015Y-7383389D01*
X8316015Y-7383389D02*
X8277920Y-7383389D01*
X8277920Y-7383389D02*
X8258872Y-7373865D01*
X8258872Y-7373865D02*
X8249348Y-7354817D01*
X8249348Y-7354817D02*
X8249348Y-7278627D01*
X8249348Y-7278627D02*
X8258872Y-7259579D01*
X8258872Y-7259579D02*
X8277920Y-7250055D01*
X8277920Y-7250055D02*
X8316015Y-7250055D01*
X8316015Y-7250055D02*
X8335063Y-7259579D01*
X8335063Y-7259579D02*
X8344586Y-7278627D01*
X8344586Y-7278627D02*
X8344586Y-7297674D01*
X8344586Y-7297674D02*
X8249348Y-7316722D01*
X8420777Y-7373865D02*
X8439825Y-7383389D01*
X8439825Y-7383389D02*
X8477920Y-7383389D01*
X8477920Y-7383389D02*
X8496968Y-7373865D01*
X8496968Y-7373865D02*
X8506491Y-7354817D01*
X8506491Y-7354817D02*
X8506491Y-7345293D01*
X8506491Y-7345293D02*
X8496968Y-7326246D01*
X8496968Y-7326246D02*
X8477920Y-7316722D01*
X8477920Y-7316722D02*
X8449348Y-7316722D01*
X8449348Y-7316722D02*
X8430301Y-7307198D01*
X8430301Y-7307198D02*
X8420777Y-7288151D01*
X8420777Y-7288151D02*
X8420777Y-7278627D01*
X8420777Y-7278627D02*
X8430301Y-7259579D01*
X8430301Y-7259579D02*
X8449348Y-7250055D01*
X8449348Y-7250055D02*
X8477920Y-7250055D01*
X8477920Y-7250055D02*
X8496968Y-7259579D01*
X8573158Y-7459579D02*
X8582682Y-7450055D01*
X8582682Y-7450055D02*
X8601729Y-7421484D01*
X8601729Y-7421484D02*
X8611253Y-7402436D01*
X8611253Y-7402436D02*
X8620777Y-7373865D01*
X8620777Y-7373865D02*
X8630301Y-7326246D01*
X8630301Y-7326246D02*
X8630301Y-7288151D01*
X8630301Y-7288151D02*
X8620777Y-7240532D01*
X8620777Y-7240532D02*
X8611253Y-7211960D01*
X8611253Y-7211960D02*
X8601729Y-7192913D01*
X8601729Y-7192913D02*
X8582682Y-7164341D01*
X8582682Y-7164341D02*
X8573158Y-7154817D01*
X8935063Y-7459579D02*
X8925539Y-7450055D01*
X8925539Y-7450055D02*
X8906491Y-7421484D01*
X8906491Y-7421484D02*
X8896968Y-7402436D01*
X8896968Y-7402436D02*
X8887444Y-7373865D01*
X8887444Y-7373865D02*
X8877920Y-7326246D01*
X8877920Y-7326246D02*
X8877920Y-7288151D01*
X8877920Y-7288151D02*
X8887444Y-7240532D01*
X8887444Y-7240532D02*
X8896968Y-7211960D01*
X8896968Y-7211960D02*
X8906491Y-7192913D01*
X8906491Y-7192913D02*
X8925539Y-7164341D01*
X8925539Y-7164341D02*
X8935063Y-7154817D01*
X9011253Y-7250055D02*
X9011253Y-7383389D01*
X9011253Y-7269103D02*
X9020777Y-7259579D01*
X9020777Y-7259579D02*
X9039825Y-7250055D01*
X9039825Y-7250055D02*
X9068396Y-7250055D01*
X9068396Y-7250055D02*
X9087444Y-7259579D01*
X9087444Y-7259579D02*
X9096968Y-7278627D01*
X9096968Y-7278627D02*
X9096968Y-7383389D01*
X9220777Y-7383389D02*
X9201729Y-7373865D01*
X9201729Y-7373865D02*
X9192206Y-7364341D01*
X9192206Y-7364341D02*
X9182682Y-7345293D01*
X9182682Y-7345293D02*
X9182682Y-7288151D01*
X9182682Y-7288151D02*
X9192206Y-7269103D01*
X9192206Y-7269103D02*
X9201729Y-7259579D01*
X9201729Y-7259579D02*
X9220777Y-7250055D01*
X9220777Y-7250055D02*
X9249349Y-7250055D01*
X9249349Y-7250055D02*
X9268396Y-7259579D01*
X9268396Y-7259579D02*
X9277920Y-7269103D01*
X9277920Y-7269103D02*
X9287444Y-7288151D01*
X9287444Y-7288151D02*
X9287444Y-7345293D01*
X9287444Y-7345293D02*
X9277920Y-7364341D01*
X9277920Y-7364341D02*
X9268396Y-7373865D01*
X9268396Y-7373865D02*
X9249349Y-7383389D01*
X9249349Y-7383389D02*
X9220777Y-7383389D01*
X9344587Y-7250055D02*
X9420777Y-7250055D01*
X9373158Y-7183389D02*
X9373158Y-7354817D01*
X9373158Y-7354817D02*
X9382682Y-7373865D01*
X9382682Y-7373865D02*
X9401729Y-7383389D01*
X9401729Y-7383389D02*
X9420777Y-7383389D01*
X9639825Y-7250055D02*
X9639825Y-7450055D01*
X9639825Y-7259579D02*
X9658872Y-7250055D01*
X9658872Y-7250055D02*
X9696968Y-7250055D01*
X9696968Y-7250055D02*
X9716015Y-7259579D01*
X9716015Y-7259579D02*
X9725539Y-7269103D01*
X9725539Y-7269103D02*
X9735063Y-7288151D01*
X9735063Y-7288151D02*
X9735063Y-7345293D01*
X9735063Y-7345293D02*
X9725539Y-7364341D01*
X9725539Y-7364341D02*
X9716015Y-7373865D01*
X9716015Y-7373865D02*
X9696968Y-7383389D01*
X9696968Y-7383389D02*
X9658872Y-7383389D01*
X9658872Y-7383389D02*
X9639825Y-7373865D01*
X9849349Y-7383389D02*
X9830301Y-7373865D01*
X9830301Y-7373865D02*
X9820777Y-7354817D01*
X9820777Y-7354817D02*
X9820777Y-7183389D01*
X10011253Y-7383389D02*
X10011253Y-7278627D01*
X10011253Y-7278627D02*
X10001730Y-7259579D01*
X10001730Y-7259579D02*
X9982682Y-7250055D01*
X9982682Y-7250055D02*
X9944587Y-7250055D01*
X9944587Y-7250055D02*
X9925539Y-7259579D01*
X10011253Y-7373865D02*
X9992206Y-7383389D01*
X9992206Y-7383389D02*
X9944587Y-7383389D01*
X9944587Y-7383389D02*
X9925539Y-7373865D01*
X9925539Y-7373865D02*
X9916015Y-7354817D01*
X9916015Y-7354817D02*
X9916015Y-7335770D01*
X9916015Y-7335770D02*
X9925539Y-7316722D01*
X9925539Y-7316722D02*
X9944587Y-7307198D01*
X9944587Y-7307198D02*
X9992206Y-7307198D01*
X9992206Y-7307198D02*
X10011253Y-7297674D01*
X10077920Y-7250055D02*
X10154110Y-7250055D01*
X10106491Y-7183389D02*
X10106491Y-7354817D01*
X10106491Y-7354817D02*
X10116015Y-7373865D01*
X10116015Y-7373865D02*
X10135063Y-7383389D01*
X10135063Y-7383389D02*
X10154110Y-7383389D01*
X10296968Y-7373865D02*
X10277920Y-7383389D01*
X10277920Y-7383389D02*
X10239825Y-7383389D01*
X10239825Y-7383389D02*
X10220777Y-7373865D01*
X10220777Y-7373865D02*
X10211253Y-7354817D01*
X10211253Y-7354817D02*
X10211253Y-7278627D01*
X10211253Y-7278627D02*
X10220777Y-7259579D01*
X10220777Y-7259579D02*
X10239825Y-7250055D01*
X10239825Y-7250055D02*
X10277920Y-7250055D01*
X10277920Y-7250055D02*
X10296968Y-7259579D01*
X10296968Y-7259579D02*
X10306491Y-7278627D01*
X10306491Y-7278627D02*
X10306491Y-7297674D01*
X10306491Y-7297674D02*
X10211253Y-7316722D01*
X10477920Y-7383389D02*
X10477920Y-7183389D01*
X10477920Y-7373865D02*
X10458872Y-7383389D01*
X10458872Y-7383389D02*
X10420777Y-7383389D01*
X10420777Y-7383389D02*
X10401730Y-7373865D01*
X10401730Y-7373865D02*
X10392206Y-7364341D01*
X10392206Y-7364341D02*
X10382682Y-7345293D01*
X10382682Y-7345293D02*
X10382682Y-7288151D01*
X10382682Y-7288151D02*
X10392206Y-7269103D01*
X10392206Y-7269103D02*
X10401730Y-7259579D01*
X10401730Y-7259579D02*
X10420777Y-7250055D01*
X10420777Y-7250055D02*
X10458872Y-7250055D01*
X10458872Y-7250055D02*
X10477920Y-7259579D01*
X10554111Y-7459579D02*
X10563634Y-7450055D01*
X10563634Y-7450055D02*
X10582682Y-7421484D01*
X10582682Y-7421484D02*
X10592206Y-7402436D01*
X10592206Y-7402436D02*
X10601730Y-7373865D01*
X10601730Y-7373865D02*
X10611253Y-7326246D01*
X10611253Y-7326246D02*
X10611253Y-7288151D01*
X10611253Y-7288151D02*
X10601730Y-7240532D01*
X10601730Y-7240532D02*
X10592206Y-7211960D01*
X10592206Y-7211960D02*
X10582682Y-7192913D01*
X10582682Y-7192913D02*
X10563634Y-7164341D01*
X10563634Y-7164341D02*
X10554111Y-7154817D01*
M02*
