%TF.GenerationSoftware,KiCad,Pcbnew,9.0.4*%
%TF.CreationDate,2025-12-06T15:03:00-05:00*%
%TF.ProjectId,shiftclock-3.0,73686966-7463-46c6-9f63-6b2d332e302e,rev?*%
%TF.SameCoordinates,Original*%
%TF.FileFunction,Drillmap*%
%TF.FilePolarity,Positive*%
%FSLAX45Y45*%
G04 Gerber Fmt 4.5, Leading zero omitted, Abs format (unit mm)*
G04 Created by KiCad (PCBNEW 9.0.4) date 2025-12-06 15:03:00*
%MOMM*%
%LPD*%
G01*
G04 APERTURE LIST*
%ADD10C,0.038100*%
%ADD11C,0.200000*%
%ADD12C,0.100000*%
%ADD13C,0.110000*%
%ADD14C,0.220000*%
G04 APERTURE END LIST*
D10*
X3800000Y-3900000D02*
X15495000Y-3900000D01*
X15495000Y-6650000D01*
X3800000Y-6650000D01*
X3800000Y-3900000D01*
D11*
D12*
X5098500Y-4837500D02*
X5128500Y-4867500D01*
X5128500Y-4837500D02*
X5098500Y-4867500D01*
X5160000Y-6385000D02*
X5190000Y-6415000D01*
X5190000Y-6385000D02*
X5160000Y-6415000D01*
X5197500Y-6422500D02*
X5227500Y-6452500D01*
X5227500Y-6422500D02*
X5197500Y-6452500D01*
X5225500Y-4837500D02*
X5255500Y-4867500D01*
X5255500Y-4837500D02*
X5225500Y-4867500D01*
X5310000Y-6535000D02*
X5340000Y-6565000D01*
X5340000Y-6535000D02*
X5310000Y-6565000D01*
X5347500Y-6572500D02*
X5377500Y-6602500D01*
X5377500Y-6572500D02*
X5347500Y-6602500D01*
X5479500Y-4837500D02*
X5509500Y-4867500D01*
X5509500Y-4837500D02*
X5479500Y-4867500D01*
X5485000Y-5135000D02*
X5515000Y-5165000D01*
X5515000Y-5135000D02*
X5485000Y-5165000D01*
X5695000Y-5463504D02*
X5725000Y-5493504D01*
X5725000Y-5463504D02*
X5695000Y-5493504D01*
X5960000Y-5560000D02*
X5990000Y-5590000D01*
X5990000Y-5560000D02*
X5960000Y-5590000D01*
X5960000Y-5635000D02*
X5990000Y-5665000D01*
X5990000Y-5635000D02*
X5960000Y-5665000D01*
X6335000Y-5685000D02*
X6365000Y-5715000D01*
X6365000Y-5685000D02*
X6335000Y-5715000D01*
X6797500Y-5447500D02*
X6827500Y-5477500D01*
X6827500Y-5447500D02*
X6797500Y-5477500D01*
X6846998Y-5496998D02*
X6876998Y-5526998D01*
X6876998Y-5496998D02*
X6846998Y-5526998D01*
X6910000Y-5210000D02*
X6940000Y-5240000D01*
X6940000Y-5210000D02*
X6910000Y-5240000D01*
X7019684Y-5250316D02*
X7049684Y-5280316D01*
X7049684Y-5250316D02*
X7019684Y-5280316D01*
X7035000Y-5035000D02*
X7065000Y-5065000D01*
X7065000Y-5035000D02*
X7035000Y-5065000D01*
X7083593Y-4786407D02*
X7113593Y-4816407D01*
X7113593Y-4786407D02*
X7083593Y-4816407D01*
X7185000Y-4785000D02*
X7215000Y-4815000D01*
X7215000Y-4785000D02*
X7185000Y-4815000D01*
X7210000Y-5460000D02*
X7240000Y-5490000D01*
X7240000Y-5460000D02*
X7210000Y-5490000D01*
X7275316Y-5194684D02*
X7305316Y-5224684D01*
X7305316Y-5194684D02*
X7275316Y-5224684D01*
X7285000Y-4785000D02*
X7315000Y-4815000D01*
X7315000Y-4785000D02*
X7285000Y-4815000D01*
X7335000Y-5085000D02*
X7365000Y-5115000D01*
X7365000Y-5085000D02*
X7335000Y-5115000D01*
X7360000Y-6410000D02*
X7390000Y-6440000D01*
X7390000Y-6410000D02*
X7360000Y-6440000D01*
X7485000Y-5085000D02*
X7515000Y-5115000D01*
X7515000Y-5085000D02*
X7485000Y-5115000D01*
X8115000Y-5385000D02*
X8145000Y-5415000D01*
X8145000Y-5385000D02*
X8115000Y-5415000D01*
X8135000Y-5285000D02*
X8165000Y-5315000D01*
X8165000Y-5285000D02*
X8135000Y-5315000D01*
X8485000Y-6085000D02*
X8515000Y-6115000D01*
X8515000Y-6085000D02*
X8485000Y-6115000D01*
X9635000Y-5785000D02*
X9665000Y-5815000D01*
X9665000Y-5785000D02*
X9635000Y-5815000D01*
X9860000Y-5410000D02*
X9890000Y-5440000D01*
X9890000Y-5410000D02*
X9860000Y-5440000D01*
X9885000Y-5685000D02*
X9915000Y-5715000D01*
X9915000Y-5685000D02*
X9885000Y-5715000D01*
X9985000Y-5735000D02*
X10015000Y-5765000D01*
X10015000Y-5735000D02*
X9985000Y-5765000D01*
X10385000Y-5835000D02*
X10415000Y-5865000D01*
X10415000Y-5835000D02*
X10385000Y-5865000D01*
X10385000Y-5935000D02*
X10415000Y-5965000D01*
X10415000Y-5935000D02*
X10385000Y-5965000D01*
X10385000Y-6035000D02*
X10415000Y-6065000D01*
X10415000Y-6035000D02*
X10385000Y-6065000D01*
X10536500Y-5196250D02*
X10566500Y-5226250D01*
X10566500Y-5196250D02*
X10536500Y-5226250D01*
X10785000Y-5760000D02*
X10815000Y-5790000D01*
X10815000Y-5760000D02*
X10785000Y-5790000D01*
X10790500Y-6126250D02*
X10820500Y-6156250D01*
X10820500Y-6126250D02*
X10790500Y-6156250D01*
X11060000Y-5760000D02*
X11090000Y-5790000D01*
X11090000Y-5760000D02*
X11060000Y-5790000D01*
X11171500Y-5196250D02*
X11201500Y-5226250D01*
X11201500Y-5196250D02*
X11171500Y-5226250D01*
X11235000Y-5435000D02*
X11265000Y-5465000D01*
X11265000Y-5435000D02*
X11235000Y-5465000D01*
X11363000Y-5434050D02*
X11393000Y-5464050D01*
X11393000Y-5434050D02*
X11363000Y-5464050D01*
X11806500Y-5196250D02*
X11836500Y-5226250D01*
X11836500Y-5196250D02*
X11806500Y-5226250D01*
X11933500Y-6126250D02*
X11963500Y-6156250D01*
X11963500Y-6126250D02*
X11933500Y-6156250D01*
X12122975Y-5272975D02*
X12152975Y-5302975D01*
X12152975Y-5272975D02*
X12122975Y-5302975D01*
X12735000Y-5515000D02*
X12765000Y-5545000D01*
X12765000Y-5515000D02*
X12735000Y-5545000D01*
X12985000Y-6285000D02*
X13015000Y-6315000D01*
X13015000Y-6285000D02*
X12985000Y-6315000D01*
X4169000Y-5660000D02*
G75*
G02*
X4109000Y-5660000I-30000J0D01*
G01*
X4109000Y-5660000D02*
G75*
G02*
X4169000Y-5660000I30000J0D01*
G01*
X4099000Y-5690000D02*
X4179000Y-5690000D01*
X4179000Y-5630000D02*
G75*
G02*
X4179000Y-5690000I0J-30000D01*
G01*
X4179000Y-5630000D02*
X4099000Y-5630000D01*
X4099000Y-5630000D02*
G75*
G03*
X4099000Y-5690000I0J-30000D01*
G01*
X4169000Y-6524000D02*
G75*
G02*
X4109000Y-6524000I-30000J0D01*
G01*
X4109000Y-6524000D02*
G75*
G02*
X4169000Y-6524000I30000J0D01*
G01*
X4099000Y-6554000D02*
X4179000Y-6554000D01*
X4179000Y-6494000D02*
G75*
G02*
X4179000Y-6554000I0J-30000D01*
G01*
X4179000Y-6494000D02*
X4099000Y-6494000D01*
X4099000Y-6494000D02*
G75*
G03*
X4099000Y-6554000I0J-30000D01*
G01*
X4586000Y-5660000D02*
G75*
G02*
X4526000Y-5660000I-30000J0D01*
G01*
X4526000Y-5660000D02*
G75*
G02*
X4586000Y-5660000I30000J0D01*
G01*
X4501000Y-5690000D02*
X4611000Y-5690000D01*
X4611000Y-5630000D02*
G75*
G02*
X4611000Y-5690000I0J-30000D01*
G01*
X4611000Y-5630000D02*
X4501000Y-5630000D01*
X4501000Y-5630000D02*
G75*
G03*
X4501000Y-5690000I0J-30000D01*
G01*
X4586000Y-6524000D02*
G75*
G02*
X4526000Y-6524000I-30000J0D01*
G01*
X4526000Y-6524000D02*
G75*
G02*
X4586000Y-6524000I30000J0D01*
G01*
X4501000Y-6554000D02*
X4611000Y-6554000D01*
X4611000Y-6494000D02*
G75*
G02*
X4611000Y-6554000I0J-30000D01*
G01*
X4611000Y-6494000D02*
X4501000Y-6494000D01*
X4501000Y-6494000D02*
G75*
G03*
X4501000Y-6554000I0J-30000D01*
G01*
X5715000Y-4851000D02*
X5715000Y-4951000D01*
X5665000Y-4901000D02*
X5765000Y-4901000D01*
X5715000Y-6375000D02*
X5715000Y-6475000D01*
X5665000Y-6425000D02*
X5765000Y-6425000D01*
X5969000Y-4851000D02*
X5969000Y-4951000D01*
X5919000Y-4901000D02*
X6019000Y-4901000D01*
X5969000Y-6375000D02*
X5969000Y-6475000D01*
X5919000Y-6425000D02*
X6019000Y-6425000D01*
X6223000Y-4851000D02*
X6223000Y-4951000D01*
X6173000Y-4901000D02*
X6273000Y-4901000D01*
X6223000Y-6375000D02*
X6223000Y-6475000D01*
X6173000Y-6425000D02*
X6273000Y-6425000D01*
X6477000Y-4851000D02*
X6477000Y-4951000D01*
X6427000Y-4901000D02*
X6527000Y-4901000D01*
X6477000Y-6375000D02*
X6477000Y-6475000D01*
X6427000Y-6425000D02*
X6527000Y-6425000D01*
X6731000Y-4851000D02*
X6731000Y-4951000D01*
X6681000Y-4901000D02*
X6781000Y-4901000D01*
X6731000Y-6375000D02*
X6731000Y-6475000D01*
X6681000Y-6425000D02*
X6781000Y-6425000D01*
X6985000Y-4851000D02*
X6985000Y-4951000D01*
X6935000Y-4901000D02*
X7035000Y-4901000D01*
X6985000Y-6375000D02*
X6985000Y-6475000D01*
X6935000Y-6425000D02*
X7035000Y-6425000D01*
X10800000Y-4851000D02*
X10800000Y-4951000D01*
X10750000Y-4901000D02*
X10850000Y-4901000D01*
X10800000Y-6375000D02*
X10800000Y-6475000D01*
X10750000Y-6425000D02*
X10850000Y-6425000D01*
X11054000Y-4851000D02*
X11054000Y-4951000D01*
X11004000Y-4901000D02*
X11104000Y-4901000D01*
X11054000Y-6375000D02*
X11054000Y-6475000D01*
X11004000Y-6425000D02*
X11104000Y-6425000D01*
X11308000Y-4851000D02*
X11308000Y-4951000D01*
X11258000Y-4901000D02*
X11358000Y-4901000D01*
X11308000Y-6375000D02*
X11308000Y-6475000D01*
X11258000Y-6425000D02*
X11358000Y-6425000D01*
X11562000Y-4851000D02*
X11562000Y-4951000D01*
X11512000Y-4901000D02*
X11612000Y-4901000D01*
X11562000Y-6375000D02*
X11562000Y-6475000D01*
X11512000Y-6425000D02*
X11612000Y-6425000D01*
X11816000Y-4851000D02*
X11816000Y-4951000D01*
X11766000Y-4901000D02*
X11866000Y-4901000D01*
X11816000Y-6375000D02*
X11816000Y-6475000D01*
X11766000Y-6425000D02*
X11866000Y-6425000D01*
X12070000Y-4851000D02*
X12070000Y-4951000D01*
X12020000Y-4901000D02*
X12120000Y-4901000D01*
X12070000Y-6375000D02*
X12070000Y-6475000D01*
X12020000Y-6425000D02*
X12120000Y-6425000D01*
X13329000Y-4250000D02*
X13329000Y-4350000D01*
X13279000Y-4300000D02*
X13379000Y-4300000D01*
X13829000Y-4000000D02*
X13829000Y-4100000D01*
X13779000Y-4050000D02*
X13879000Y-4050000D01*
X13829000Y-4500000D02*
X13829000Y-4600000D01*
X13779000Y-4550000D02*
X13879000Y-4550000D01*
X14490000Y-5000000D02*
X14490000Y-5100000D01*
X14440000Y-5050000D02*
X14540000Y-5050000D01*
X14490000Y-6450000D02*
X14490000Y-6550000D01*
X14440000Y-6500000D02*
X14540000Y-6500000D01*
X14740000Y-5000000D02*
X14740000Y-5100000D01*
X14690000Y-5050000D02*
X14790000Y-5050000D01*
X14990000Y-5000000D02*
X14990000Y-5100000D01*
X14940000Y-5050000D02*
X15040000Y-5050000D01*
X14990000Y-6450000D02*
X14990000Y-6550000D01*
X14940000Y-6500000D02*
X15040000Y-6500000D01*
D13*
X4013891Y-4113891D02*
X4013891Y-4036109D01*
X3936109Y-4036109D01*
X3936109Y-4113891D01*
X4013891Y-4113891D01*
X4013891Y-4563891D02*
X4013891Y-4486109D01*
X3936109Y-4486109D01*
X3936109Y-4563891D01*
X4013891Y-4563891D01*
X4663891Y-4113891D02*
X4663891Y-4036109D01*
X4586109Y-4036109D01*
X4586109Y-4113891D01*
X4663891Y-4113891D01*
X4663891Y-4563891D02*
X4663891Y-4486109D01*
X4586109Y-4486109D01*
X4586109Y-4563891D01*
X4663891Y-4563891D01*
X4963891Y-4113891D02*
X4963891Y-4036109D01*
X4886109Y-4036109D01*
X4886109Y-4113891D01*
X4963891Y-4113891D01*
X4963891Y-4563891D02*
X4963891Y-4486109D01*
X4886109Y-4486109D01*
X4886109Y-4563891D01*
X4963891Y-4563891D01*
X5613891Y-4113891D02*
X5613891Y-4036109D01*
X5536109Y-4036109D01*
X5536109Y-4113891D01*
X5613891Y-4113891D01*
X5613891Y-4563891D02*
X5613891Y-4486109D01*
X5536109Y-4486109D01*
X5536109Y-4563891D01*
X5613891Y-4563891D01*
X5913891Y-4113891D02*
X5913891Y-4036109D01*
X5836109Y-4036109D01*
X5836109Y-4113891D01*
X5913891Y-4113891D01*
X5913891Y-4563891D02*
X5913891Y-4486109D01*
X5836109Y-4486109D01*
X5836109Y-4563891D01*
X5913891Y-4563891D01*
X6563891Y-4113891D02*
X6563891Y-4036109D01*
X6486109Y-4036109D01*
X6486109Y-4113891D01*
X6563891Y-4113891D01*
X6563891Y-4563891D02*
X6563891Y-4486109D01*
X6486109Y-4486109D01*
X6486109Y-4563891D01*
X6563891Y-4563891D01*
D14*
X14180000Y-5910000D02*
X14290000Y-5800000D01*
X14180000Y-5690000D01*
X14070000Y-5800000D01*
X14180000Y-5910000D01*
X15300000Y-5910000D02*
X15410000Y-5800000D01*
X15300000Y-5690000D01*
X15190000Y-5800000D01*
X15300000Y-5910000D01*
D11*
X4058872Y-6963389D02*
X4058872Y-6763389D01*
X4058872Y-6763389D02*
X4106491Y-6763389D01*
X4106491Y-6763389D02*
X4135062Y-6772913D01*
X4135062Y-6772913D02*
X4154110Y-6791960D01*
X4154110Y-6791960D02*
X4163634Y-6811008D01*
X4163634Y-6811008D02*
X4173157Y-6849103D01*
X4173157Y-6849103D02*
X4173157Y-6877674D01*
X4173157Y-6877674D02*
X4163634Y-6915770D01*
X4163634Y-6915770D02*
X4154110Y-6934817D01*
X4154110Y-6934817D02*
X4135062Y-6953865D01*
X4135062Y-6953865D02*
X4106491Y-6963389D01*
X4106491Y-6963389D02*
X4058872Y-6963389D01*
X4258872Y-6963389D02*
X4258872Y-6830055D01*
X4258872Y-6868151D02*
X4268396Y-6849103D01*
X4268396Y-6849103D02*
X4277919Y-6839579D01*
X4277919Y-6839579D02*
X4296967Y-6830055D01*
X4296967Y-6830055D02*
X4316015Y-6830055D01*
X4382681Y-6963389D02*
X4382681Y-6830055D01*
X4382681Y-6763389D02*
X4373158Y-6772913D01*
X4373158Y-6772913D02*
X4382681Y-6782436D01*
X4382681Y-6782436D02*
X4392205Y-6772913D01*
X4392205Y-6772913D02*
X4382681Y-6763389D01*
X4382681Y-6763389D02*
X4382681Y-6782436D01*
X4506491Y-6963389D02*
X4487443Y-6953865D01*
X4487443Y-6953865D02*
X4477919Y-6934817D01*
X4477919Y-6934817D02*
X4477919Y-6763389D01*
X4611253Y-6963389D02*
X4592205Y-6953865D01*
X4592205Y-6953865D02*
X4582681Y-6934817D01*
X4582681Y-6934817D02*
X4582681Y-6763389D01*
X4839824Y-6963389D02*
X4839824Y-6763389D01*
X4839824Y-6763389D02*
X4906491Y-6906246D01*
X4906491Y-6906246D02*
X4973158Y-6763389D01*
X4973158Y-6763389D02*
X4973158Y-6963389D01*
X5154110Y-6963389D02*
X5154110Y-6858627D01*
X5154110Y-6858627D02*
X5144586Y-6839579D01*
X5144586Y-6839579D02*
X5125539Y-6830055D01*
X5125539Y-6830055D02*
X5087443Y-6830055D01*
X5087443Y-6830055D02*
X5068396Y-6839579D01*
X5154110Y-6953865D02*
X5135062Y-6963389D01*
X5135062Y-6963389D02*
X5087443Y-6963389D01*
X5087443Y-6963389D02*
X5068396Y-6953865D01*
X5068396Y-6953865D02*
X5058872Y-6934817D01*
X5058872Y-6934817D02*
X5058872Y-6915770D01*
X5058872Y-6915770D02*
X5068396Y-6896722D01*
X5068396Y-6896722D02*
X5087443Y-6887198D01*
X5087443Y-6887198D02*
X5135062Y-6887198D01*
X5135062Y-6887198D02*
X5154110Y-6877674D01*
X5249348Y-6830055D02*
X5249348Y-7030055D01*
X5249348Y-6839579D02*
X5268396Y-6830055D01*
X5268396Y-6830055D02*
X5306491Y-6830055D01*
X5306491Y-6830055D02*
X5325539Y-6839579D01*
X5325539Y-6839579D02*
X5335062Y-6849103D01*
X5335062Y-6849103D02*
X5344586Y-6868151D01*
X5344586Y-6868151D02*
X5344586Y-6925293D01*
X5344586Y-6925293D02*
X5335062Y-6944341D01*
X5335062Y-6944341D02*
X5325539Y-6953865D01*
X5325539Y-6953865D02*
X5306491Y-6963389D01*
X5306491Y-6963389D02*
X5268396Y-6963389D01*
X5268396Y-6963389D02*
X5249348Y-6953865D01*
X5430300Y-6944341D02*
X5439824Y-6953865D01*
X5439824Y-6953865D02*
X5430300Y-6963389D01*
X5430300Y-6963389D02*
X5420777Y-6953865D01*
X5420777Y-6953865D02*
X5430300Y-6944341D01*
X5430300Y-6944341D02*
X5430300Y-6963389D01*
X5430300Y-6839579D02*
X5439824Y-6849103D01*
X5439824Y-6849103D02*
X5430300Y-6858627D01*
X5430300Y-6858627D02*
X5420777Y-6849103D01*
X5420777Y-6849103D02*
X5430300Y-6839579D01*
X5430300Y-6839579D02*
X5430300Y-6858627D01*
D12*
X3768095Y-7276905D02*
X3798095Y-7306905D01*
X3798095Y-7276905D02*
X3768095Y-7306905D01*
D11*
X4096967Y-7183389D02*
X4116015Y-7183389D01*
X4116015Y-7183389D02*
X4135062Y-7192913D01*
X4135062Y-7192913D02*
X4144586Y-7202436D01*
X4144586Y-7202436D02*
X4154110Y-7221484D01*
X4154110Y-7221484D02*
X4163634Y-7259579D01*
X4163634Y-7259579D02*
X4163634Y-7307198D01*
X4163634Y-7307198D02*
X4154110Y-7345293D01*
X4154110Y-7345293D02*
X4144586Y-7364341D01*
X4144586Y-7364341D02*
X4135062Y-7373865D01*
X4135062Y-7373865D02*
X4116015Y-7383389D01*
X4116015Y-7383389D02*
X4096967Y-7383389D01*
X4096967Y-7383389D02*
X4077919Y-7373865D01*
X4077919Y-7373865D02*
X4068396Y-7364341D01*
X4068396Y-7364341D02*
X4058872Y-7345293D01*
X4058872Y-7345293D02*
X4049348Y-7307198D01*
X4049348Y-7307198D02*
X4049348Y-7259579D01*
X4049348Y-7259579D02*
X4058872Y-7221484D01*
X4058872Y-7221484D02*
X4068396Y-7202436D01*
X4068396Y-7202436D02*
X4077919Y-7192913D01*
X4077919Y-7192913D02*
X4096967Y-7183389D01*
X4249348Y-7364341D02*
X4258872Y-7373865D01*
X4258872Y-7373865D02*
X4249348Y-7383389D01*
X4249348Y-7383389D02*
X4239824Y-7373865D01*
X4239824Y-7373865D02*
X4249348Y-7364341D01*
X4249348Y-7364341D02*
X4249348Y-7383389D01*
X4325539Y-7183389D02*
X4449348Y-7183389D01*
X4449348Y-7183389D02*
X4382681Y-7259579D01*
X4382681Y-7259579D02*
X4411253Y-7259579D01*
X4411253Y-7259579D02*
X4430300Y-7269103D01*
X4430300Y-7269103D02*
X4439824Y-7278627D01*
X4439824Y-7278627D02*
X4449348Y-7297674D01*
X4449348Y-7297674D02*
X4449348Y-7345293D01*
X4449348Y-7345293D02*
X4439824Y-7364341D01*
X4439824Y-7364341D02*
X4430300Y-7373865D01*
X4430300Y-7373865D02*
X4411253Y-7383389D01*
X4411253Y-7383389D02*
X4354110Y-7383389D01*
X4354110Y-7383389D02*
X4335062Y-7373865D01*
X4335062Y-7373865D02*
X4325539Y-7364341D01*
X4573158Y-7183389D02*
X4592205Y-7183389D01*
X4592205Y-7183389D02*
X4611253Y-7192913D01*
X4611253Y-7192913D02*
X4620777Y-7202436D01*
X4620777Y-7202436D02*
X4630300Y-7221484D01*
X4630300Y-7221484D02*
X4639824Y-7259579D01*
X4639824Y-7259579D02*
X4639824Y-7307198D01*
X4639824Y-7307198D02*
X4630300Y-7345293D01*
X4630300Y-7345293D02*
X4620777Y-7364341D01*
X4620777Y-7364341D02*
X4611253Y-7373865D01*
X4611253Y-7373865D02*
X4592205Y-7383389D01*
X4592205Y-7383389D02*
X4573158Y-7383389D01*
X4573158Y-7383389D02*
X4554110Y-7373865D01*
X4554110Y-7373865D02*
X4544586Y-7364341D01*
X4544586Y-7364341D02*
X4535062Y-7345293D01*
X4535062Y-7345293D02*
X4525539Y-7307198D01*
X4525539Y-7307198D02*
X4525539Y-7259579D01*
X4525539Y-7259579D02*
X4535062Y-7221484D01*
X4535062Y-7221484D02*
X4544586Y-7202436D01*
X4544586Y-7202436D02*
X4554110Y-7192913D01*
X4554110Y-7192913D02*
X4573158Y-7183389D01*
X4763634Y-7183389D02*
X4782681Y-7183389D01*
X4782681Y-7183389D02*
X4801729Y-7192913D01*
X4801729Y-7192913D02*
X4811253Y-7202436D01*
X4811253Y-7202436D02*
X4820777Y-7221484D01*
X4820777Y-7221484D02*
X4830300Y-7259579D01*
X4830300Y-7259579D02*
X4830300Y-7307198D01*
X4830300Y-7307198D02*
X4820777Y-7345293D01*
X4820777Y-7345293D02*
X4811253Y-7364341D01*
X4811253Y-7364341D02*
X4801729Y-7373865D01*
X4801729Y-7373865D02*
X4782681Y-7383389D01*
X4782681Y-7383389D02*
X4763634Y-7383389D01*
X4763634Y-7383389D02*
X4744586Y-7373865D01*
X4744586Y-7373865D02*
X4735062Y-7364341D01*
X4735062Y-7364341D02*
X4725539Y-7345293D01*
X4725539Y-7345293D02*
X4716015Y-7307198D01*
X4716015Y-7307198D02*
X4716015Y-7259579D01*
X4716015Y-7259579D02*
X4725539Y-7221484D01*
X4725539Y-7221484D02*
X4735062Y-7202436D01*
X4735062Y-7202436D02*
X4744586Y-7192913D01*
X4744586Y-7192913D02*
X4763634Y-7183389D01*
X4916015Y-7383389D02*
X4916015Y-7250055D01*
X4916015Y-7269103D02*
X4925539Y-7259579D01*
X4925539Y-7259579D02*
X4944586Y-7250055D01*
X4944586Y-7250055D02*
X4973158Y-7250055D01*
X4973158Y-7250055D02*
X4992205Y-7259579D01*
X4992205Y-7259579D02*
X5001729Y-7278627D01*
X5001729Y-7278627D02*
X5001729Y-7383389D01*
X5001729Y-7278627D02*
X5011253Y-7259579D01*
X5011253Y-7259579D02*
X5030300Y-7250055D01*
X5030300Y-7250055D02*
X5058872Y-7250055D01*
X5058872Y-7250055D02*
X5077920Y-7259579D01*
X5077920Y-7259579D02*
X5087443Y-7278627D01*
X5087443Y-7278627D02*
X5087443Y-7383389D01*
X5182681Y-7383389D02*
X5182681Y-7250055D01*
X5182681Y-7269103D02*
X5192205Y-7259579D01*
X5192205Y-7259579D02*
X5211253Y-7250055D01*
X5211253Y-7250055D02*
X5239824Y-7250055D01*
X5239824Y-7250055D02*
X5258872Y-7259579D01*
X5258872Y-7259579D02*
X5268396Y-7278627D01*
X5268396Y-7278627D02*
X5268396Y-7383389D01*
X5268396Y-7278627D02*
X5277920Y-7259579D01*
X5277920Y-7259579D02*
X5296967Y-7250055D01*
X5296967Y-7250055D02*
X5325539Y-7250055D01*
X5325539Y-7250055D02*
X5344586Y-7259579D01*
X5344586Y-7259579D02*
X5354110Y-7278627D01*
X5354110Y-7278627D02*
X5354110Y-7383389D01*
X5744586Y-7173865D02*
X5573158Y-7431008D01*
X6001729Y-7183389D02*
X6020777Y-7183389D01*
X6020777Y-7183389D02*
X6039824Y-7192913D01*
X6039824Y-7192913D02*
X6049348Y-7202436D01*
X6049348Y-7202436D02*
X6058872Y-7221484D01*
X6058872Y-7221484D02*
X6068396Y-7259579D01*
X6068396Y-7259579D02*
X6068396Y-7307198D01*
X6068396Y-7307198D02*
X6058872Y-7345293D01*
X6058872Y-7345293D02*
X6049348Y-7364341D01*
X6049348Y-7364341D02*
X6039824Y-7373865D01*
X6039824Y-7373865D02*
X6020777Y-7383389D01*
X6020777Y-7383389D02*
X6001729Y-7383389D01*
X6001729Y-7383389D02*
X5982681Y-7373865D01*
X5982681Y-7373865D02*
X5973158Y-7364341D01*
X5973158Y-7364341D02*
X5963634Y-7345293D01*
X5963634Y-7345293D02*
X5954110Y-7307198D01*
X5954110Y-7307198D02*
X5954110Y-7259579D01*
X5954110Y-7259579D02*
X5963634Y-7221484D01*
X5963634Y-7221484D02*
X5973158Y-7202436D01*
X5973158Y-7202436D02*
X5982681Y-7192913D01*
X5982681Y-7192913D02*
X6001729Y-7183389D01*
X6154110Y-7364341D02*
X6163634Y-7373865D01*
X6163634Y-7373865D02*
X6154110Y-7383389D01*
X6154110Y-7383389D02*
X6144586Y-7373865D01*
X6144586Y-7373865D02*
X6154110Y-7364341D01*
X6154110Y-7364341D02*
X6154110Y-7383389D01*
X6287443Y-7183389D02*
X6306491Y-7183389D01*
X6306491Y-7183389D02*
X6325539Y-7192913D01*
X6325539Y-7192913D02*
X6335062Y-7202436D01*
X6335062Y-7202436D02*
X6344586Y-7221484D01*
X6344586Y-7221484D02*
X6354110Y-7259579D01*
X6354110Y-7259579D02*
X6354110Y-7307198D01*
X6354110Y-7307198D02*
X6344586Y-7345293D01*
X6344586Y-7345293D02*
X6335062Y-7364341D01*
X6335062Y-7364341D02*
X6325539Y-7373865D01*
X6325539Y-7373865D02*
X6306491Y-7383389D01*
X6306491Y-7383389D02*
X6287443Y-7383389D01*
X6287443Y-7383389D02*
X6268396Y-7373865D01*
X6268396Y-7373865D02*
X6258872Y-7364341D01*
X6258872Y-7364341D02*
X6249348Y-7345293D01*
X6249348Y-7345293D02*
X6239824Y-7307198D01*
X6239824Y-7307198D02*
X6239824Y-7259579D01*
X6239824Y-7259579D02*
X6249348Y-7221484D01*
X6249348Y-7221484D02*
X6258872Y-7202436D01*
X6258872Y-7202436D02*
X6268396Y-7192913D01*
X6268396Y-7192913D02*
X6287443Y-7183389D01*
X6544586Y-7383389D02*
X6430301Y-7383389D01*
X6487443Y-7383389D02*
X6487443Y-7183389D01*
X6487443Y-7183389D02*
X6468396Y-7211960D01*
X6468396Y-7211960D02*
X6449348Y-7231008D01*
X6449348Y-7231008D02*
X6430301Y-7240532D01*
X6735062Y-7383389D02*
X6620777Y-7383389D01*
X6677920Y-7383389D02*
X6677920Y-7183389D01*
X6677920Y-7183389D02*
X6658872Y-7211960D01*
X6658872Y-7211960D02*
X6639824Y-7231008D01*
X6639824Y-7231008D02*
X6620777Y-7240532D01*
X6849348Y-7269103D02*
X6830301Y-7259579D01*
X6830301Y-7259579D02*
X6820777Y-7250055D01*
X6820777Y-7250055D02*
X6811253Y-7231008D01*
X6811253Y-7231008D02*
X6811253Y-7221484D01*
X6811253Y-7221484D02*
X6820777Y-7202436D01*
X6820777Y-7202436D02*
X6830301Y-7192913D01*
X6830301Y-7192913D02*
X6849348Y-7183389D01*
X6849348Y-7183389D02*
X6887443Y-7183389D01*
X6887443Y-7183389D02*
X6906491Y-7192913D01*
X6906491Y-7192913D02*
X6916015Y-7202436D01*
X6916015Y-7202436D02*
X6925539Y-7221484D01*
X6925539Y-7221484D02*
X6925539Y-7231008D01*
X6925539Y-7231008D02*
X6916015Y-7250055D01*
X6916015Y-7250055D02*
X6906491Y-7259579D01*
X6906491Y-7259579D02*
X6887443Y-7269103D01*
X6887443Y-7269103D02*
X6849348Y-7269103D01*
X6849348Y-7269103D02*
X6830301Y-7278627D01*
X6830301Y-7278627D02*
X6820777Y-7288151D01*
X6820777Y-7288151D02*
X6811253Y-7307198D01*
X6811253Y-7307198D02*
X6811253Y-7345293D01*
X6811253Y-7345293D02*
X6820777Y-7364341D01*
X6820777Y-7364341D02*
X6830301Y-7373865D01*
X6830301Y-7373865D02*
X6849348Y-7383389D01*
X6849348Y-7383389D02*
X6887443Y-7383389D01*
X6887443Y-7383389D02*
X6906491Y-7373865D01*
X6906491Y-7373865D02*
X6916015Y-7364341D01*
X6916015Y-7364341D02*
X6925539Y-7345293D01*
X6925539Y-7345293D02*
X6925539Y-7307198D01*
X6925539Y-7307198D02*
X6916015Y-7288151D01*
X6916015Y-7288151D02*
X6906491Y-7278627D01*
X6906491Y-7278627D02*
X6887443Y-7269103D01*
X7001729Y-7183389D02*
X7001729Y-7221484D01*
X7077920Y-7183389D02*
X7077920Y-7221484D01*
X7373158Y-7459579D02*
X7363634Y-7450055D01*
X7363634Y-7450055D02*
X7344586Y-7421484D01*
X7344586Y-7421484D02*
X7335063Y-7402436D01*
X7335063Y-7402436D02*
X7325539Y-7373865D01*
X7325539Y-7373865D02*
X7316015Y-7326246D01*
X7316015Y-7326246D02*
X7316015Y-7288151D01*
X7316015Y-7288151D02*
X7325539Y-7240532D01*
X7325539Y-7240532D02*
X7335063Y-7211960D01*
X7335063Y-7211960D02*
X7344586Y-7192913D01*
X7344586Y-7192913D02*
X7363634Y-7164341D01*
X7363634Y-7164341D02*
X7373158Y-7154817D01*
X7535063Y-7250055D02*
X7535063Y-7383389D01*
X7487443Y-7173865D02*
X7439824Y-7316722D01*
X7439824Y-7316722D02*
X7563634Y-7316722D01*
X7620777Y-7183389D02*
X7754110Y-7183389D01*
X7754110Y-7183389D02*
X7668396Y-7383389D01*
X7982682Y-7383389D02*
X7982682Y-7183389D01*
X8068396Y-7383389D02*
X8068396Y-7278627D01*
X8068396Y-7278627D02*
X8058872Y-7259579D01*
X8058872Y-7259579D02*
X8039825Y-7250055D01*
X8039825Y-7250055D02*
X8011253Y-7250055D01*
X8011253Y-7250055D02*
X7992205Y-7259579D01*
X7992205Y-7259579D02*
X7982682Y-7269103D01*
X8192205Y-7383389D02*
X8173158Y-7373865D01*
X8173158Y-7373865D02*
X8163634Y-7364341D01*
X8163634Y-7364341D02*
X8154110Y-7345293D01*
X8154110Y-7345293D02*
X8154110Y-7288151D01*
X8154110Y-7288151D02*
X8163634Y-7269103D01*
X8163634Y-7269103D02*
X8173158Y-7259579D01*
X8173158Y-7259579D02*
X8192205Y-7250055D01*
X8192205Y-7250055D02*
X8220777Y-7250055D01*
X8220777Y-7250055D02*
X8239825Y-7259579D01*
X8239825Y-7259579D02*
X8249348Y-7269103D01*
X8249348Y-7269103D02*
X8258872Y-7288151D01*
X8258872Y-7288151D02*
X8258872Y-7345293D01*
X8258872Y-7345293D02*
X8249348Y-7364341D01*
X8249348Y-7364341D02*
X8239825Y-7373865D01*
X8239825Y-7373865D02*
X8220777Y-7383389D01*
X8220777Y-7383389D02*
X8192205Y-7383389D01*
X8373158Y-7383389D02*
X8354110Y-7373865D01*
X8354110Y-7373865D02*
X8344586Y-7354817D01*
X8344586Y-7354817D02*
X8344586Y-7183389D01*
X8525539Y-7373865D02*
X8506491Y-7383389D01*
X8506491Y-7383389D02*
X8468396Y-7383389D01*
X8468396Y-7383389D02*
X8449348Y-7373865D01*
X8449348Y-7373865D02*
X8439825Y-7354817D01*
X8439825Y-7354817D02*
X8439825Y-7278627D01*
X8439825Y-7278627D02*
X8449348Y-7259579D01*
X8449348Y-7259579D02*
X8468396Y-7250055D01*
X8468396Y-7250055D02*
X8506491Y-7250055D01*
X8506491Y-7250055D02*
X8525539Y-7259579D01*
X8525539Y-7259579D02*
X8535063Y-7278627D01*
X8535063Y-7278627D02*
X8535063Y-7297674D01*
X8535063Y-7297674D02*
X8439825Y-7316722D01*
X8611253Y-7373865D02*
X8630301Y-7383389D01*
X8630301Y-7383389D02*
X8668396Y-7383389D01*
X8668396Y-7383389D02*
X8687444Y-7373865D01*
X8687444Y-7373865D02*
X8696968Y-7354817D01*
X8696968Y-7354817D02*
X8696968Y-7345293D01*
X8696968Y-7345293D02*
X8687444Y-7326246D01*
X8687444Y-7326246D02*
X8668396Y-7316722D01*
X8668396Y-7316722D02*
X8639825Y-7316722D01*
X8639825Y-7316722D02*
X8620777Y-7307198D01*
X8620777Y-7307198D02*
X8611253Y-7288151D01*
X8611253Y-7288151D02*
X8611253Y-7278627D01*
X8611253Y-7278627D02*
X8620777Y-7259579D01*
X8620777Y-7259579D02*
X8639825Y-7250055D01*
X8639825Y-7250055D02*
X8668396Y-7250055D01*
X8668396Y-7250055D02*
X8687444Y-7259579D01*
X8763634Y-7459579D02*
X8773158Y-7450055D01*
X8773158Y-7450055D02*
X8792206Y-7421484D01*
X8792206Y-7421484D02*
X8801729Y-7402436D01*
X8801729Y-7402436D02*
X8811253Y-7373865D01*
X8811253Y-7373865D02*
X8820777Y-7326246D01*
X8820777Y-7326246D02*
X8820777Y-7288151D01*
X8820777Y-7288151D02*
X8811253Y-7240532D01*
X8811253Y-7240532D02*
X8801729Y-7211960D01*
X8801729Y-7211960D02*
X8792206Y-7192913D01*
X8792206Y-7192913D02*
X8773158Y-7164341D01*
X8773158Y-7164341D02*
X8763634Y-7154817D01*
D12*
X3798095Y-7555905D02*
G75*
G02*
X3738095Y-7555905I-30000J0D01*
G01*
X3738095Y-7555905D02*
G75*
G02*
X3798095Y-7555905I30000J0D01*
G01*
D11*
X4096967Y-7447389D02*
X4116015Y-7447389D01*
X4116015Y-7447389D02*
X4135062Y-7456913D01*
X4135062Y-7456913D02*
X4144586Y-7466436D01*
X4144586Y-7466436D02*
X4154110Y-7485484D01*
X4154110Y-7485484D02*
X4163634Y-7523579D01*
X4163634Y-7523579D02*
X4163634Y-7571198D01*
X4163634Y-7571198D02*
X4154110Y-7609293D01*
X4154110Y-7609293D02*
X4144586Y-7628341D01*
X4144586Y-7628341D02*
X4135062Y-7637865D01*
X4135062Y-7637865D02*
X4116015Y-7647389D01*
X4116015Y-7647389D02*
X4096967Y-7647389D01*
X4096967Y-7647389D02*
X4077919Y-7637865D01*
X4077919Y-7637865D02*
X4068396Y-7628341D01*
X4068396Y-7628341D02*
X4058872Y-7609293D01*
X4058872Y-7609293D02*
X4049348Y-7571198D01*
X4049348Y-7571198D02*
X4049348Y-7523579D01*
X4049348Y-7523579D02*
X4058872Y-7485484D01*
X4058872Y-7485484D02*
X4068396Y-7466436D01*
X4068396Y-7466436D02*
X4077919Y-7456913D01*
X4077919Y-7456913D02*
X4096967Y-7447389D01*
X4249348Y-7628341D02*
X4258872Y-7637865D01*
X4258872Y-7637865D02*
X4249348Y-7647389D01*
X4249348Y-7647389D02*
X4239824Y-7637865D01*
X4239824Y-7637865D02*
X4249348Y-7628341D01*
X4249348Y-7628341D02*
X4249348Y-7647389D01*
X4430300Y-7447389D02*
X4392205Y-7447389D01*
X4392205Y-7447389D02*
X4373158Y-7456913D01*
X4373158Y-7456913D02*
X4363634Y-7466436D01*
X4363634Y-7466436D02*
X4344586Y-7495008D01*
X4344586Y-7495008D02*
X4335062Y-7533103D01*
X4335062Y-7533103D02*
X4335062Y-7609293D01*
X4335062Y-7609293D02*
X4344586Y-7628341D01*
X4344586Y-7628341D02*
X4354110Y-7637865D01*
X4354110Y-7637865D02*
X4373158Y-7647389D01*
X4373158Y-7647389D02*
X4411253Y-7647389D01*
X4411253Y-7647389D02*
X4430300Y-7637865D01*
X4430300Y-7637865D02*
X4439824Y-7628341D01*
X4439824Y-7628341D02*
X4449348Y-7609293D01*
X4449348Y-7609293D02*
X4449348Y-7561674D01*
X4449348Y-7561674D02*
X4439824Y-7542627D01*
X4439824Y-7542627D02*
X4430300Y-7533103D01*
X4430300Y-7533103D02*
X4411253Y-7523579D01*
X4411253Y-7523579D02*
X4373158Y-7523579D01*
X4373158Y-7523579D02*
X4354110Y-7533103D01*
X4354110Y-7533103D02*
X4344586Y-7542627D01*
X4344586Y-7542627D02*
X4335062Y-7561674D01*
X4573158Y-7447389D02*
X4592205Y-7447389D01*
X4592205Y-7447389D02*
X4611253Y-7456913D01*
X4611253Y-7456913D02*
X4620777Y-7466436D01*
X4620777Y-7466436D02*
X4630300Y-7485484D01*
X4630300Y-7485484D02*
X4639824Y-7523579D01*
X4639824Y-7523579D02*
X4639824Y-7571198D01*
X4639824Y-7571198D02*
X4630300Y-7609293D01*
X4630300Y-7609293D02*
X4620777Y-7628341D01*
X4620777Y-7628341D02*
X4611253Y-7637865D01*
X4611253Y-7637865D02*
X4592205Y-7647389D01*
X4592205Y-7647389D02*
X4573158Y-7647389D01*
X4573158Y-7647389D02*
X4554110Y-7637865D01*
X4554110Y-7637865D02*
X4544586Y-7628341D01*
X4544586Y-7628341D02*
X4535062Y-7609293D01*
X4535062Y-7609293D02*
X4525539Y-7571198D01*
X4525539Y-7571198D02*
X4525539Y-7523579D01*
X4525539Y-7523579D02*
X4535062Y-7485484D01*
X4535062Y-7485484D02*
X4544586Y-7466436D01*
X4544586Y-7466436D02*
X4554110Y-7456913D01*
X4554110Y-7456913D02*
X4573158Y-7447389D01*
X4763634Y-7447389D02*
X4782681Y-7447389D01*
X4782681Y-7447389D02*
X4801729Y-7456913D01*
X4801729Y-7456913D02*
X4811253Y-7466436D01*
X4811253Y-7466436D02*
X4820777Y-7485484D01*
X4820777Y-7485484D02*
X4830300Y-7523579D01*
X4830300Y-7523579D02*
X4830300Y-7571198D01*
X4830300Y-7571198D02*
X4820777Y-7609293D01*
X4820777Y-7609293D02*
X4811253Y-7628341D01*
X4811253Y-7628341D02*
X4801729Y-7637865D01*
X4801729Y-7637865D02*
X4782681Y-7647389D01*
X4782681Y-7647389D02*
X4763634Y-7647389D01*
X4763634Y-7647389D02*
X4744586Y-7637865D01*
X4744586Y-7637865D02*
X4735062Y-7628341D01*
X4735062Y-7628341D02*
X4725539Y-7609293D01*
X4725539Y-7609293D02*
X4716015Y-7571198D01*
X4716015Y-7571198D02*
X4716015Y-7523579D01*
X4716015Y-7523579D02*
X4725539Y-7485484D01*
X4725539Y-7485484D02*
X4735062Y-7466436D01*
X4735062Y-7466436D02*
X4744586Y-7456913D01*
X4744586Y-7456913D02*
X4763634Y-7447389D01*
X4916015Y-7647389D02*
X4916015Y-7514055D01*
X4916015Y-7533103D02*
X4925539Y-7523579D01*
X4925539Y-7523579D02*
X4944586Y-7514055D01*
X4944586Y-7514055D02*
X4973158Y-7514055D01*
X4973158Y-7514055D02*
X4992205Y-7523579D01*
X4992205Y-7523579D02*
X5001729Y-7542627D01*
X5001729Y-7542627D02*
X5001729Y-7647389D01*
X5001729Y-7542627D02*
X5011253Y-7523579D01*
X5011253Y-7523579D02*
X5030300Y-7514055D01*
X5030300Y-7514055D02*
X5058872Y-7514055D01*
X5058872Y-7514055D02*
X5077920Y-7523579D01*
X5077920Y-7523579D02*
X5087443Y-7542627D01*
X5087443Y-7542627D02*
X5087443Y-7647389D01*
X5182681Y-7647389D02*
X5182681Y-7514055D01*
X5182681Y-7533103D02*
X5192205Y-7523579D01*
X5192205Y-7523579D02*
X5211253Y-7514055D01*
X5211253Y-7514055D02*
X5239824Y-7514055D01*
X5239824Y-7514055D02*
X5258872Y-7523579D01*
X5258872Y-7523579D02*
X5268396Y-7542627D01*
X5268396Y-7542627D02*
X5268396Y-7647389D01*
X5268396Y-7542627D02*
X5277920Y-7523579D01*
X5277920Y-7523579D02*
X5296967Y-7514055D01*
X5296967Y-7514055D02*
X5325539Y-7514055D01*
X5325539Y-7514055D02*
X5344586Y-7523579D01*
X5344586Y-7523579D02*
X5354110Y-7542627D01*
X5354110Y-7542627D02*
X5354110Y-7647389D01*
X5744586Y-7437865D02*
X5573158Y-7695008D01*
X6001729Y-7447389D02*
X6020777Y-7447389D01*
X6020777Y-7447389D02*
X6039824Y-7456913D01*
X6039824Y-7456913D02*
X6049348Y-7466436D01*
X6049348Y-7466436D02*
X6058872Y-7485484D01*
X6058872Y-7485484D02*
X6068396Y-7523579D01*
X6068396Y-7523579D02*
X6068396Y-7571198D01*
X6068396Y-7571198D02*
X6058872Y-7609293D01*
X6058872Y-7609293D02*
X6049348Y-7628341D01*
X6049348Y-7628341D02*
X6039824Y-7637865D01*
X6039824Y-7637865D02*
X6020777Y-7647389D01*
X6020777Y-7647389D02*
X6001729Y-7647389D01*
X6001729Y-7647389D02*
X5982681Y-7637865D01*
X5982681Y-7637865D02*
X5973158Y-7628341D01*
X5973158Y-7628341D02*
X5963634Y-7609293D01*
X5963634Y-7609293D02*
X5954110Y-7571198D01*
X5954110Y-7571198D02*
X5954110Y-7523579D01*
X5954110Y-7523579D02*
X5963634Y-7485484D01*
X5963634Y-7485484D02*
X5973158Y-7466436D01*
X5973158Y-7466436D02*
X5982681Y-7456913D01*
X5982681Y-7456913D02*
X6001729Y-7447389D01*
X6154110Y-7628341D02*
X6163634Y-7637865D01*
X6163634Y-7637865D02*
X6154110Y-7647389D01*
X6154110Y-7647389D02*
X6144586Y-7637865D01*
X6144586Y-7637865D02*
X6154110Y-7628341D01*
X6154110Y-7628341D02*
X6154110Y-7647389D01*
X6287443Y-7447389D02*
X6306491Y-7447389D01*
X6306491Y-7447389D02*
X6325539Y-7456913D01*
X6325539Y-7456913D02*
X6335062Y-7466436D01*
X6335062Y-7466436D02*
X6344586Y-7485484D01*
X6344586Y-7485484D02*
X6354110Y-7523579D01*
X6354110Y-7523579D02*
X6354110Y-7571198D01*
X6354110Y-7571198D02*
X6344586Y-7609293D01*
X6344586Y-7609293D02*
X6335062Y-7628341D01*
X6335062Y-7628341D02*
X6325539Y-7637865D01*
X6325539Y-7637865D02*
X6306491Y-7647389D01*
X6306491Y-7647389D02*
X6287443Y-7647389D01*
X6287443Y-7647389D02*
X6268396Y-7637865D01*
X6268396Y-7637865D02*
X6258872Y-7628341D01*
X6258872Y-7628341D02*
X6249348Y-7609293D01*
X6249348Y-7609293D02*
X6239824Y-7571198D01*
X6239824Y-7571198D02*
X6239824Y-7523579D01*
X6239824Y-7523579D02*
X6249348Y-7485484D01*
X6249348Y-7485484D02*
X6258872Y-7466436D01*
X6258872Y-7466436D02*
X6268396Y-7456913D01*
X6268396Y-7456913D02*
X6287443Y-7447389D01*
X6430301Y-7466436D02*
X6439824Y-7456913D01*
X6439824Y-7456913D02*
X6458872Y-7447389D01*
X6458872Y-7447389D02*
X6506491Y-7447389D01*
X6506491Y-7447389D02*
X6525539Y-7456913D01*
X6525539Y-7456913D02*
X6535062Y-7466436D01*
X6535062Y-7466436D02*
X6544586Y-7485484D01*
X6544586Y-7485484D02*
X6544586Y-7504532D01*
X6544586Y-7504532D02*
X6535062Y-7533103D01*
X6535062Y-7533103D02*
X6420777Y-7647389D01*
X6420777Y-7647389D02*
X6544586Y-7647389D01*
X6611253Y-7447389D02*
X6735062Y-7447389D01*
X6735062Y-7447389D02*
X6668396Y-7523579D01*
X6668396Y-7523579D02*
X6696967Y-7523579D01*
X6696967Y-7523579D02*
X6716015Y-7533103D01*
X6716015Y-7533103D02*
X6725539Y-7542627D01*
X6725539Y-7542627D02*
X6735062Y-7561674D01*
X6735062Y-7561674D02*
X6735062Y-7609293D01*
X6735062Y-7609293D02*
X6725539Y-7628341D01*
X6725539Y-7628341D02*
X6716015Y-7637865D01*
X6716015Y-7637865D02*
X6696967Y-7647389D01*
X6696967Y-7647389D02*
X6639824Y-7647389D01*
X6639824Y-7647389D02*
X6620777Y-7637865D01*
X6620777Y-7637865D02*
X6611253Y-7628341D01*
X6906491Y-7447389D02*
X6868396Y-7447389D01*
X6868396Y-7447389D02*
X6849348Y-7456913D01*
X6849348Y-7456913D02*
X6839824Y-7466436D01*
X6839824Y-7466436D02*
X6820777Y-7495008D01*
X6820777Y-7495008D02*
X6811253Y-7533103D01*
X6811253Y-7533103D02*
X6811253Y-7609293D01*
X6811253Y-7609293D02*
X6820777Y-7628341D01*
X6820777Y-7628341D02*
X6830301Y-7637865D01*
X6830301Y-7637865D02*
X6849348Y-7647389D01*
X6849348Y-7647389D02*
X6887443Y-7647389D01*
X6887443Y-7647389D02*
X6906491Y-7637865D01*
X6906491Y-7637865D02*
X6916015Y-7628341D01*
X6916015Y-7628341D02*
X6925539Y-7609293D01*
X6925539Y-7609293D02*
X6925539Y-7561674D01*
X6925539Y-7561674D02*
X6916015Y-7542627D01*
X6916015Y-7542627D02*
X6906491Y-7533103D01*
X6906491Y-7533103D02*
X6887443Y-7523579D01*
X6887443Y-7523579D02*
X6849348Y-7523579D01*
X6849348Y-7523579D02*
X6830301Y-7533103D01*
X6830301Y-7533103D02*
X6820777Y-7542627D01*
X6820777Y-7542627D02*
X6811253Y-7561674D01*
X7001729Y-7447389D02*
X7001729Y-7485484D01*
X7077920Y-7447389D02*
X7077920Y-7485484D01*
X7373158Y-7723579D02*
X7363634Y-7714055D01*
X7363634Y-7714055D02*
X7344586Y-7685484D01*
X7344586Y-7685484D02*
X7335063Y-7666436D01*
X7335063Y-7666436D02*
X7325539Y-7637865D01*
X7325539Y-7637865D02*
X7316015Y-7590246D01*
X7316015Y-7590246D02*
X7316015Y-7552151D01*
X7316015Y-7552151D02*
X7325539Y-7504532D01*
X7325539Y-7504532D02*
X7335063Y-7475960D01*
X7335063Y-7475960D02*
X7344586Y-7456913D01*
X7344586Y-7456913D02*
X7363634Y-7428341D01*
X7363634Y-7428341D02*
X7373158Y-7418817D01*
X7487443Y-7447389D02*
X7506491Y-7447389D01*
X7506491Y-7447389D02*
X7525539Y-7456913D01*
X7525539Y-7456913D02*
X7535063Y-7466436D01*
X7535063Y-7466436D02*
X7544586Y-7485484D01*
X7544586Y-7485484D02*
X7554110Y-7523579D01*
X7554110Y-7523579D02*
X7554110Y-7571198D01*
X7554110Y-7571198D02*
X7544586Y-7609293D01*
X7544586Y-7609293D02*
X7535063Y-7628341D01*
X7535063Y-7628341D02*
X7525539Y-7637865D01*
X7525539Y-7637865D02*
X7506491Y-7647389D01*
X7506491Y-7647389D02*
X7487443Y-7647389D01*
X7487443Y-7647389D02*
X7468396Y-7637865D01*
X7468396Y-7637865D02*
X7458872Y-7628341D01*
X7458872Y-7628341D02*
X7449348Y-7609293D01*
X7449348Y-7609293D02*
X7439824Y-7571198D01*
X7439824Y-7571198D02*
X7439824Y-7523579D01*
X7439824Y-7523579D02*
X7449348Y-7485484D01*
X7449348Y-7485484D02*
X7458872Y-7466436D01*
X7458872Y-7466436D02*
X7468396Y-7456913D01*
X7468396Y-7456913D02*
X7487443Y-7447389D01*
X7792205Y-7647389D02*
X7792205Y-7447389D01*
X7877920Y-7647389D02*
X7877920Y-7542627D01*
X7877920Y-7542627D02*
X7868396Y-7523579D01*
X7868396Y-7523579D02*
X7849348Y-7514055D01*
X7849348Y-7514055D02*
X7820777Y-7514055D01*
X7820777Y-7514055D02*
X7801729Y-7523579D01*
X7801729Y-7523579D02*
X7792205Y-7533103D01*
X8001729Y-7647389D02*
X7982682Y-7637865D01*
X7982682Y-7637865D02*
X7973158Y-7628341D01*
X7973158Y-7628341D02*
X7963634Y-7609293D01*
X7963634Y-7609293D02*
X7963634Y-7552151D01*
X7963634Y-7552151D02*
X7973158Y-7533103D01*
X7973158Y-7533103D02*
X7982682Y-7523579D01*
X7982682Y-7523579D02*
X8001729Y-7514055D01*
X8001729Y-7514055D02*
X8030301Y-7514055D01*
X8030301Y-7514055D02*
X8049348Y-7523579D01*
X8049348Y-7523579D02*
X8058872Y-7533103D01*
X8058872Y-7533103D02*
X8068396Y-7552151D01*
X8068396Y-7552151D02*
X8068396Y-7609293D01*
X8068396Y-7609293D02*
X8058872Y-7628341D01*
X8058872Y-7628341D02*
X8049348Y-7637865D01*
X8049348Y-7637865D02*
X8030301Y-7647389D01*
X8030301Y-7647389D02*
X8001729Y-7647389D01*
X8182682Y-7647389D02*
X8163634Y-7637865D01*
X8163634Y-7637865D02*
X8154110Y-7618817D01*
X8154110Y-7618817D02*
X8154110Y-7447389D01*
X8335063Y-7637865D02*
X8316015Y-7647389D01*
X8316015Y-7647389D02*
X8277920Y-7647389D01*
X8277920Y-7647389D02*
X8258872Y-7637865D01*
X8258872Y-7637865D02*
X8249348Y-7618817D01*
X8249348Y-7618817D02*
X8249348Y-7542627D01*
X8249348Y-7542627D02*
X8258872Y-7523579D01*
X8258872Y-7523579D02*
X8277920Y-7514055D01*
X8277920Y-7514055D02*
X8316015Y-7514055D01*
X8316015Y-7514055D02*
X8335063Y-7523579D01*
X8335063Y-7523579D02*
X8344586Y-7542627D01*
X8344586Y-7542627D02*
X8344586Y-7561674D01*
X8344586Y-7561674D02*
X8249348Y-7580722D01*
X8420777Y-7637865D02*
X8439825Y-7647389D01*
X8439825Y-7647389D02*
X8477920Y-7647389D01*
X8477920Y-7647389D02*
X8496968Y-7637865D01*
X8496968Y-7637865D02*
X8506491Y-7618817D01*
X8506491Y-7618817D02*
X8506491Y-7609293D01*
X8506491Y-7609293D02*
X8496968Y-7590246D01*
X8496968Y-7590246D02*
X8477920Y-7580722D01*
X8477920Y-7580722D02*
X8449348Y-7580722D01*
X8449348Y-7580722D02*
X8430301Y-7571198D01*
X8430301Y-7571198D02*
X8420777Y-7552151D01*
X8420777Y-7552151D02*
X8420777Y-7542627D01*
X8420777Y-7542627D02*
X8430301Y-7523579D01*
X8430301Y-7523579D02*
X8449348Y-7514055D01*
X8449348Y-7514055D02*
X8477920Y-7514055D01*
X8477920Y-7514055D02*
X8496968Y-7523579D01*
X8744587Y-7571198D02*
X8896968Y-7571198D01*
X8820777Y-7647389D02*
X8820777Y-7495008D01*
X9230301Y-7514055D02*
X9230301Y-7647389D01*
X9182682Y-7437865D02*
X9135063Y-7580722D01*
X9135063Y-7580722D02*
X9258872Y-7580722D01*
X9477920Y-7637865D02*
X9496968Y-7647389D01*
X9496968Y-7647389D02*
X9535063Y-7647389D01*
X9535063Y-7647389D02*
X9554111Y-7637865D01*
X9554111Y-7637865D02*
X9563634Y-7618817D01*
X9563634Y-7618817D02*
X9563634Y-7609293D01*
X9563634Y-7609293D02*
X9554111Y-7590246D01*
X9554111Y-7590246D02*
X9535063Y-7580722D01*
X9535063Y-7580722D02*
X9506491Y-7580722D01*
X9506491Y-7580722D02*
X9487444Y-7571198D01*
X9487444Y-7571198D02*
X9477920Y-7552151D01*
X9477920Y-7552151D02*
X9477920Y-7542627D01*
X9477920Y-7542627D02*
X9487444Y-7523579D01*
X9487444Y-7523579D02*
X9506491Y-7514055D01*
X9506491Y-7514055D02*
X9535063Y-7514055D01*
X9535063Y-7514055D02*
X9554111Y-7523579D01*
X9677920Y-7647389D02*
X9658872Y-7637865D01*
X9658872Y-7637865D02*
X9649349Y-7618817D01*
X9649349Y-7618817D02*
X9649349Y-7447389D01*
X9782682Y-7647389D02*
X9763634Y-7637865D01*
X9763634Y-7637865D02*
X9754111Y-7628341D01*
X9754111Y-7628341D02*
X9744587Y-7609293D01*
X9744587Y-7609293D02*
X9744587Y-7552151D01*
X9744587Y-7552151D02*
X9754111Y-7533103D01*
X9754111Y-7533103D02*
X9763634Y-7523579D01*
X9763634Y-7523579D02*
X9782682Y-7514055D01*
X9782682Y-7514055D02*
X9811253Y-7514055D01*
X9811253Y-7514055D02*
X9830301Y-7523579D01*
X9830301Y-7523579D02*
X9839825Y-7533103D01*
X9839825Y-7533103D02*
X9849349Y-7552151D01*
X9849349Y-7552151D02*
X9849349Y-7609293D01*
X9849349Y-7609293D02*
X9839825Y-7628341D01*
X9839825Y-7628341D02*
X9830301Y-7637865D01*
X9830301Y-7637865D02*
X9811253Y-7647389D01*
X9811253Y-7647389D02*
X9782682Y-7647389D01*
X9906492Y-7514055D02*
X9982682Y-7514055D01*
X9935063Y-7447389D02*
X9935063Y-7618817D01*
X9935063Y-7618817D02*
X9944587Y-7637865D01*
X9944587Y-7637865D02*
X9963634Y-7647389D01*
X9963634Y-7647389D02*
X9982682Y-7647389D01*
X10039825Y-7637865D02*
X10058872Y-7647389D01*
X10058872Y-7647389D02*
X10096968Y-7647389D01*
X10096968Y-7647389D02*
X10116015Y-7637865D01*
X10116015Y-7637865D02*
X10125539Y-7618817D01*
X10125539Y-7618817D02*
X10125539Y-7609293D01*
X10125539Y-7609293D02*
X10116015Y-7590246D01*
X10116015Y-7590246D02*
X10096968Y-7580722D01*
X10096968Y-7580722D02*
X10068396Y-7580722D01*
X10068396Y-7580722D02*
X10049349Y-7571198D01*
X10049349Y-7571198D02*
X10039825Y-7552151D01*
X10039825Y-7552151D02*
X10039825Y-7542627D01*
X10039825Y-7542627D02*
X10049349Y-7523579D01*
X10049349Y-7523579D02*
X10068396Y-7514055D01*
X10068396Y-7514055D02*
X10096968Y-7514055D01*
X10096968Y-7514055D02*
X10116015Y-7523579D01*
X10192206Y-7723579D02*
X10201730Y-7714055D01*
X10201730Y-7714055D02*
X10220777Y-7685484D01*
X10220777Y-7685484D02*
X10230301Y-7666436D01*
X10230301Y-7666436D02*
X10239825Y-7637865D01*
X10239825Y-7637865D02*
X10249349Y-7590246D01*
X10249349Y-7590246D02*
X10249349Y-7552151D01*
X10249349Y-7552151D02*
X10239825Y-7504532D01*
X10239825Y-7504532D02*
X10230301Y-7475960D01*
X10230301Y-7475960D02*
X10220777Y-7456913D01*
X10220777Y-7456913D02*
X10201730Y-7428341D01*
X10201730Y-7428341D02*
X10192206Y-7418817D01*
D12*
X3748095Y-7769905D02*
X3748095Y-7869905D01*
X3698095Y-7819905D02*
X3798095Y-7819905D01*
D11*
X4163634Y-7911389D02*
X4049348Y-7911389D01*
X4106491Y-7911389D02*
X4106491Y-7711389D01*
X4106491Y-7711389D02*
X4087443Y-7739960D01*
X4087443Y-7739960D02*
X4068396Y-7759008D01*
X4068396Y-7759008D02*
X4049348Y-7768532D01*
X4249348Y-7892341D02*
X4258872Y-7901865D01*
X4258872Y-7901865D02*
X4249348Y-7911389D01*
X4249348Y-7911389D02*
X4239824Y-7901865D01*
X4239824Y-7901865D02*
X4249348Y-7892341D01*
X4249348Y-7892341D02*
X4249348Y-7911389D01*
X4382681Y-7711389D02*
X4401729Y-7711389D01*
X4401729Y-7711389D02*
X4420777Y-7720913D01*
X4420777Y-7720913D02*
X4430300Y-7730436D01*
X4430300Y-7730436D02*
X4439824Y-7749484D01*
X4439824Y-7749484D02*
X4449348Y-7787579D01*
X4449348Y-7787579D02*
X4449348Y-7835198D01*
X4449348Y-7835198D02*
X4439824Y-7873293D01*
X4439824Y-7873293D02*
X4430300Y-7892341D01*
X4430300Y-7892341D02*
X4420777Y-7901865D01*
X4420777Y-7901865D02*
X4401729Y-7911389D01*
X4401729Y-7911389D02*
X4382681Y-7911389D01*
X4382681Y-7911389D02*
X4363634Y-7901865D01*
X4363634Y-7901865D02*
X4354110Y-7892341D01*
X4354110Y-7892341D02*
X4344586Y-7873293D01*
X4344586Y-7873293D02*
X4335062Y-7835198D01*
X4335062Y-7835198D02*
X4335062Y-7787579D01*
X4335062Y-7787579D02*
X4344586Y-7749484D01*
X4344586Y-7749484D02*
X4354110Y-7730436D01*
X4354110Y-7730436D02*
X4363634Y-7720913D01*
X4363634Y-7720913D02*
X4382681Y-7711389D01*
X4573158Y-7711389D02*
X4592205Y-7711389D01*
X4592205Y-7711389D02*
X4611253Y-7720913D01*
X4611253Y-7720913D02*
X4620777Y-7730436D01*
X4620777Y-7730436D02*
X4630300Y-7749484D01*
X4630300Y-7749484D02*
X4639824Y-7787579D01*
X4639824Y-7787579D02*
X4639824Y-7835198D01*
X4639824Y-7835198D02*
X4630300Y-7873293D01*
X4630300Y-7873293D02*
X4620777Y-7892341D01*
X4620777Y-7892341D02*
X4611253Y-7901865D01*
X4611253Y-7901865D02*
X4592205Y-7911389D01*
X4592205Y-7911389D02*
X4573158Y-7911389D01*
X4573158Y-7911389D02*
X4554110Y-7901865D01*
X4554110Y-7901865D02*
X4544586Y-7892341D01*
X4544586Y-7892341D02*
X4535062Y-7873293D01*
X4535062Y-7873293D02*
X4525539Y-7835198D01*
X4525539Y-7835198D02*
X4525539Y-7787579D01*
X4525539Y-7787579D02*
X4535062Y-7749484D01*
X4535062Y-7749484D02*
X4544586Y-7730436D01*
X4544586Y-7730436D02*
X4554110Y-7720913D01*
X4554110Y-7720913D02*
X4573158Y-7711389D01*
X4763634Y-7711389D02*
X4782681Y-7711389D01*
X4782681Y-7711389D02*
X4801729Y-7720913D01*
X4801729Y-7720913D02*
X4811253Y-7730436D01*
X4811253Y-7730436D02*
X4820777Y-7749484D01*
X4820777Y-7749484D02*
X4830300Y-7787579D01*
X4830300Y-7787579D02*
X4830300Y-7835198D01*
X4830300Y-7835198D02*
X4820777Y-7873293D01*
X4820777Y-7873293D02*
X4811253Y-7892341D01*
X4811253Y-7892341D02*
X4801729Y-7901865D01*
X4801729Y-7901865D02*
X4782681Y-7911389D01*
X4782681Y-7911389D02*
X4763634Y-7911389D01*
X4763634Y-7911389D02*
X4744586Y-7901865D01*
X4744586Y-7901865D02*
X4735062Y-7892341D01*
X4735062Y-7892341D02*
X4725539Y-7873293D01*
X4725539Y-7873293D02*
X4716015Y-7835198D01*
X4716015Y-7835198D02*
X4716015Y-7787579D01*
X4716015Y-7787579D02*
X4725539Y-7749484D01*
X4725539Y-7749484D02*
X4735062Y-7730436D01*
X4735062Y-7730436D02*
X4744586Y-7720913D01*
X4744586Y-7720913D02*
X4763634Y-7711389D01*
X4916015Y-7911389D02*
X4916015Y-7778055D01*
X4916015Y-7797103D02*
X4925539Y-7787579D01*
X4925539Y-7787579D02*
X4944586Y-7778055D01*
X4944586Y-7778055D02*
X4973158Y-7778055D01*
X4973158Y-7778055D02*
X4992205Y-7787579D01*
X4992205Y-7787579D02*
X5001729Y-7806627D01*
X5001729Y-7806627D02*
X5001729Y-7911389D01*
X5001729Y-7806627D02*
X5011253Y-7787579D01*
X5011253Y-7787579D02*
X5030300Y-7778055D01*
X5030300Y-7778055D02*
X5058872Y-7778055D01*
X5058872Y-7778055D02*
X5077920Y-7787579D01*
X5077920Y-7787579D02*
X5087443Y-7806627D01*
X5087443Y-7806627D02*
X5087443Y-7911389D01*
X5182681Y-7911389D02*
X5182681Y-7778055D01*
X5182681Y-7797103D02*
X5192205Y-7787579D01*
X5192205Y-7787579D02*
X5211253Y-7778055D01*
X5211253Y-7778055D02*
X5239824Y-7778055D01*
X5239824Y-7778055D02*
X5258872Y-7787579D01*
X5258872Y-7787579D02*
X5268396Y-7806627D01*
X5268396Y-7806627D02*
X5268396Y-7911389D01*
X5268396Y-7806627D02*
X5277920Y-7787579D01*
X5277920Y-7787579D02*
X5296967Y-7778055D01*
X5296967Y-7778055D02*
X5325539Y-7778055D01*
X5325539Y-7778055D02*
X5344586Y-7787579D01*
X5344586Y-7787579D02*
X5354110Y-7806627D01*
X5354110Y-7806627D02*
X5354110Y-7911389D01*
X5744586Y-7701865D02*
X5573158Y-7959008D01*
X6001729Y-7711389D02*
X6020777Y-7711389D01*
X6020777Y-7711389D02*
X6039824Y-7720913D01*
X6039824Y-7720913D02*
X6049348Y-7730436D01*
X6049348Y-7730436D02*
X6058872Y-7749484D01*
X6058872Y-7749484D02*
X6068396Y-7787579D01*
X6068396Y-7787579D02*
X6068396Y-7835198D01*
X6068396Y-7835198D02*
X6058872Y-7873293D01*
X6058872Y-7873293D02*
X6049348Y-7892341D01*
X6049348Y-7892341D02*
X6039824Y-7901865D01*
X6039824Y-7901865D02*
X6020777Y-7911389D01*
X6020777Y-7911389D02*
X6001729Y-7911389D01*
X6001729Y-7911389D02*
X5982681Y-7901865D01*
X5982681Y-7901865D02*
X5973158Y-7892341D01*
X5973158Y-7892341D02*
X5963634Y-7873293D01*
X5963634Y-7873293D02*
X5954110Y-7835198D01*
X5954110Y-7835198D02*
X5954110Y-7787579D01*
X5954110Y-7787579D02*
X5963634Y-7749484D01*
X5963634Y-7749484D02*
X5973158Y-7730436D01*
X5973158Y-7730436D02*
X5982681Y-7720913D01*
X5982681Y-7720913D02*
X6001729Y-7711389D01*
X6154110Y-7892341D02*
X6163634Y-7901865D01*
X6163634Y-7901865D02*
X6154110Y-7911389D01*
X6154110Y-7911389D02*
X6144586Y-7901865D01*
X6144586Y-7901865D02*
X6154110Y-7892341D01*
X6154110Y-7892341D02*
X6154110Y-7911389D01*
X6287443Y-7711389D02*
X6306491Y-7711389D01*
X6306491Y-7711389D02*
X6325539Y-7720913D01*
X6325539Y-7720913D02*
X6335062Y-7730436D01*
X6335062Y-7730436D02*
X6344586Y-7749484D01*
X6344586Y-7749484D02*
X6354110Y-7787579D01*
X6354110Y-7787579D02*
X6354110Y-7835198D01*
X6354110Y-7835198D02*
X6344586Y-7873293D01*
X6344586Y-7873293D02*
X6335062Y-7892341D01*
X6335062Y-7892341D02*
X6325539Y-7901865D01*
X6325539Y-7901865D02*
X6306491Y-7911389D01*
X6306491Y-7911389D02*
X6287443Y-7911389D01*
X6287443Y-7911389D02*
X6268396Y-7901865D01*
X6268396Y-7901865D02*
X6258872Y-7892341D01*
X6258872Y-7892341D02*
X6249348Y-7873293D01*
X6249348Y-7873293D02*
X6239824Y-7835198D01*
X6239824Y-7835198D02*
X6239824Y-7787579D01*
X6239824Y-7787579D02*
X6249348Y-7749484D01*
X6249348Y-7749484D02*
X6258872Y-7730436D01*
X6258872Y-7730436D02*
X6268396Y-7720913D01*
X6268396Y-7720913D02*
X6287443Y-7711389D01*
X6420777Y-7711389D02*
X6544586Y-7711389D01*
X6544586Y-7711389D02*
X6477920Y-7787579D01*
X6477920Y-7787579D02*
X6506491Y-7787579D01*
X6506491Y-7787579D02*
X6525539Y-7797103D01*
X6525539Y-7797103D02*
X6535062Y-7806627D01*
X6535062Y-7806627D02*
X6544586Y-7825674D01*
X6544586Y-7825674D02*
X6544586Y-7873293D01*
X6544586Y-7873293D02*
X6535062Y-7892341D01*
X6535062Y-7892341D02*
X6525539Y-7901865D01*
X6525539Y-7901865D02*
X6506491Y-7911389D01*
X6506491Y-7911389D02*
X6449348Y-7911389D01*
X6449348Y-7911389D02*
X6430301Y-7901865D01*
X6430301Y-7901865D02*
X6420777Y-7892341D01*
X6639824Y-7911389D02*
X6677920Y-7911389D01*
X6677920Y-7911389D02*
X6696967Y-7901865D01*
X6696967Y-7901865D02*
X6706491Y-7892341D01*
X6706491Y-7892341D02*
X6725539Y-7863770D01*
X6725539Y-7863770D02*
X6735062Y-7825674D01*
X6735062Y-7825674D02*
X6735062Y-7749484D01*
X6735062Y-7749484D02*
X6725539Y-7730436D01*
X6725539Y-7730436D02*
X6716015Y-7720913D01*
X6716015Y-7720913D02*
X6696967Y-7711389D01*
X6696967Y-7711389D02*
X6658872Y-7711389D01*
X6658872Y-7711389D02*
X6639824Y-7720913D01*
X6639824Y-7720913D02*
X6630301Y-7730436D01*
X6630301Y-7730436D02*
X6620777Y-7749484D01*
X6620777Y-7749484D02*
X6620777Y-7797103D01*
X6620777Y-7797103D02*
X6630301Y-7816151D01*
X6630301Y-7816151D02*
X6639824Y-7825674D01*
X6639824Y-7825674D02*
X6658872Y-7835198D01*
X6658872Y-7835198D02*
X6696967Y-7835198D01*
X6696967Y-7835198D02*
X6716015Y-7825674D01*
X6716015Y-7825674D02*
X6725539Y-7816151D01*
X6725539Y-7816151D02*
X6735062Y-7797103D01*
X6906491Y-7778055D02*
X6906491Y-7911389D01*
X6858872Y-7701865D02*
X6811253Y-7844722D01*
X6811253Y-7844722D02*
X6935062Y-7844722D01*
X7001729Y-7711389D02*
X7001729Y-7749484D01*
X7077920Y-7711389D02*
X7077920Y-7749484D01*
X7373158Y-7987579D02*
X7363634Y-7978055D01*
X7363634Y-7978055D02*
X7344586Y-7949484D01*
X7344586Y-7949484D02*
X7335063Y-7930436D01*
X7335063Y-7930436D02*
X7325539Y-7901865D01*
X7325539Y-7901865D02*
X7316015Y-7854246D01*
X7316015Y-7854246D02*
X7316015Y-7816151D01*
X7316015Y-7816151D02*
X7325539Y-7768532D01*
X7325539Y-7768532D02*
X7335063Y-7739960D01*
X7335063Y-7739960D02*
X7344586Y-7720913D01*
X7344586Y-7720913D02*
X7363634Y-7692341D01*
X7363634Y-7692341D02*
X7373158Y-7682817D01*
X7430301Y-7711389D02*
X7554110Y-7711389D01*
X7554110Y-7711389D02*
X7487443Y-7787579D01*
X7487443Y-7787579D02*
X7516015Y-7787579D01*
X7516015Y-7787579D02*
X7535063Y-7797103D01*
X7535063Y-7797103D02*
X7544586Y-7806627D01*
X7544586Y-7806627D02*
X7554110Y-7825674D01*
X7554110Y-7825674D02*
X7554110Y-7873293D01*
X7554110Y-7873293D02*
X7544586Y-7892341D01*
X7544586Y-7892341D02*
X7535063Y-7901865D01*
X7535063Y-7901865D02*
X7516015Y-7911389D01*
X7516015Y-7911389D02*
X7458872Y-7911389D01*
X7458872Y-7911389D02*
X7439824Y-7901865D01*
X7439824Y-7901865D02*
X7430301Y-7892341D01*
X7630301Y-7730436D02*
X7639824Y-7720913D01*
X7639824Y-7720913D02*
X7658872Y-7711389D01*
X7658872Y-7711389D02*
X7706491Y-7711389D01*
X7706491Y-7711389D02*
X7725539Y-7720913D01*
X7725539Y-7720913D02*
X7735063Y-7730436D01*
X7735063Y-7730436D02*
X7744586Y-7749484D01*
X7744586Y-7749484D02*
X7744586Y-7768532D01*
X7744586Y-7768532D02*
X7735063Y-7797103D01*
X7735063Y-7797103D02*
X7620777Y-7911389D01*
X7620777Y-7911389D02*
X7744586Y-7911389D01*
X7982682Y-7911389D02*
X7982682Y-7711389D01*
X8068396Y-7911389D02*
X8068396Y-7806627D01*
X8068396Y-7806627D02*
X8058872Y-7787579D01*
X8058872Y-7787579D02*
X8039825Y-7778055D01*
X8039825Y-7778055D02*
X8011253Y-7778055D01*
X8011253Y-7778055D02*
X7992205Y-7787579D01*
X7992205Y-7787579D02*
X7982682Y-7797103D01*
X8192205Y-7911389D02*
X8173158Y-7901865D01*
X8173158Y-7901865D02*
X8163634Y-7892341D01*
X8163634Y-7892341D02*
X8154110Y-7873293D01*
X8154110Y-7873293D02*
X8154110Y-7816151D01*
X8154110Y-7816151D02*
X8163634Y-7797103D01*
X8163634Y-7797103D02*
X8173158Y-7787579D01*
X8173158Y-7787579D02*
X8192205Y-7778055D01*
X8192205Y-7778055D02*
X8220777Y-7778055D01*
X8220777Y-7778055D02*
X8239825Y-7787579D01*
X8239825Y-7787579D02*
X8249348Y-7797103D01*
X8249348Y-7797103D02*
X8258872Y-7816151D01*
X8258872Y-7816151D02*
X8258872Y-7873293D01*
X8258872Y-7873293D02*
X8249348Y-7892341D01*
X8249348Y-7892341D02*
X8239825Y-7901865D01*
X8239825Y-7901865D02*
X8220777Y-7911389D01*
X8220777Y-7911389D02*
X8192205Y-7911389D01*
X8373158Y-7911389D02*
X8354110Y-7901865D01*
X8354110Y-7901865D02*
X8344586Y-7882817D01*
X8344586Y-7882817D02*
X8344586Y-7711389D01*
X8525539Y-7901865D02*
X8506491Y-7911389D01*
X8506491Y-7911389D02*
X8468396Y-7911389D01*
X8468396Y-7911389D02*
X8449348Y-7901865D01*
X8449348Y-7901865D02*
X8439825Y-7882817D01*
X8439825Y-7882817D02*
X8439825Y-7806627D01*
X8439825Y-7806627D02*
X8449348Y-7787579D01*
X8449348Y-7787579D02*
X8468396Y-7778055D01*
X8468396Y-7778055D02*
X8506491Y-7778055D01*
X8506491Y-7778055D02*
X8525539Y-7787579D01*
X8525539Y-7787579D02*
X8535063Y-7806627D01*
X8535063Y-7806627D02*
X8535063Y-7825674D01*
X8535063Y-7825674D02*
X8439825Y-7844722D01*
X8611253Y-7901865D02*
X8630301Y-7911389D01*
X8630301Y-7911389D02*
X8668396Y-7911389D01*
X8668396Y-7911389D02*
X8687444Y-7901865D01*
X8687444Y-7901865D02*
X8696968Y-7882817D01*
X8696968Y-7882817D02*
X8696968Y-7873293D01*
X8696968Y-7873293D02*
X8687444Y-7854246D01*
X8687444Y-7854246D02*
X8668396Y-7844722D01*
X8668396Y-7844722D02*
X8639825Y-7844722D01*
X8639825Y-7844722D02*
X8620777Y-7835198D01*
X8620777Y-7835198D02*
X8611253Y-7816151D01*
X8611253Y-7816151D02*
X8611253Y-7806627D01*
X8611253Y-7806627D02*
X8620777Y-7787579D01*
X8620777Y-7787579D02*
X8639825Y-7778055D01*
X8639825Y-7778055D02*
X8668396Y-7778055D01*
X8668396Y-7778055D02*
X8687444Y-7787579D01*
X8763634Y-7987579D02*
X8773158Y-7978055D01*
X8773158Y-7978055D02*
X8792206Y-7949484D01*
X8792206Y-7949484D02*
X8801729Y-7930436D01*
X8801729Y-7930436D02*
X8811253Y-7901865D01*
X8811253Y-7901865D02*
X8820777Y-7854246D01*
X8820777Y-7854246D02*
X8820777Y-7816151D01*
X8820777Y-7816151D02*
X8811253Y-7768532D01*
X8811253Y-7768532D02*
X8801729Y-7739960D01*
X8801729Y-7739960D02*
X8792206Y-7720913D01*
X8792206Y-7720913D02*
X8773158Y-7692341D01*
X8773158Y-7692341D02*
X8763634Y-7682817D01*
D13*
X3781986Y-8122796D02*
X3781986Y-8045014D01*
X3704204Y-8045014D01*
X3704204Y-8122796D01*
X3781986Y-8122796D01*
D11*
X4163634Y-8175389D02*
X4049348Y-8175389D01*
X4106491Y-8175389D02*
X4106491Y-7975389D01*
X4106491Y-7975389D02*
X4087443Y-8003960D01*
X4087443Y-8003960D02*
X4068396Y-8023008D01*
X4068396Y-8023008D02*
X4049348Y-8032532D01*
X4249348Y-8156341D02*
X4258872Y-8165865D01*
X4258872Y-8165865D02*
X4249348Y-8175389D01*
X4249348Y-8175389D02*
X4239824Y-8165865D01*
X4239824Y-8165865D02*
X4249348Y-8156341D01*
X4249348Y-8156341D02*
X4249348Y-8175389D01*
X4449348Y-8175389D02*
X4335062Y-8175389D01*
X4392205Y-8175389D02*
X4392205Y-7975389D01*
X4392205Y-7975389D02*
X4373158Y-8003960D01*
X4373158Y-8003960D02*
X4354110Y-8023008D01*
X4354110Y-8023008D02*
X4335062Y-8032532D01*
X4573158Y-7975389D02*
X4592205Y-7975389D01*
X4592205Y-7975389D02*
X4611253Y-7984913D01*
X4611253Y-7984913D02*
X4620777Y-7994436D01*
X4620777Y-7994436D02*
X4630300Y-8013484D01*
X4630300Y-8013484D02*
X4639824Y-8051579D01*
X4639824Y-8051579D02*
X4639824Y-8099198D01*
X4639824Y-8099198D02*
X4630300Y-8137293D01*
X4630300Y-8137293D02*
X4620777Y-8156341D01*
X4620777Y-8156341D02*
X4611253Y-8165865D01*
X4611253Y-8165865D02*
X4592205Y-8175389D01*
X4592205Y-8175389D02*
X4573158Y-8175389D01*
X4573158Y-8175389D02*
X4554110Y-8165865D01*
X4554110Y-8165865D02*
X4544586Y-8156341D01*
X4544586Y-8156341D02*
X4535062Y-8137293D01*
X4535062Y-8137293D02*
X4525539Y-8099198D01*
X4525539Y-8099198D02*
X4525539Y-8051579D01*
X4525539Y-8051579D02*
X4535062Y-8013484D01*
X4535062Y-8013484D02*
X4544586Y-7994436D01*
X4544586Y-7994436D02*
X4554110Y-7984913D01*
X4554110Y-7984913D02*
X4573158Y-7975389D01*
X4763634Y-7975389D02*
X4782681Y-7975389D01*
X4782681Y-7975389D02*
X4801729Y-7984913D01*
X4801729Y-7984913D02*
X4811253Y-7994436D01*
X4811253Y-7994436D02*
X4820777Y-8013484D01*
X4820777Y-8013484D02*
X4830300Y-8051579D01*
X4830300Y-8051579D02*
X4830300Y-8099198D01*
X4830300Y-8099198D02*
X4820777Y-8137293D01*
X4820777Y-8137293D02*
X4811253Y-8156341D01*
X4811253Y-8156341D02*
X4801729Y-8165865D01*
X4801729Y-8165865D02*
X4782681Y-8175389D01*
X4782681Y-8175389D02*
X4763634Y-8175389D01*
X4763634Y-8175389D02*
X4744586Y-8165865D01*
X4744586Y-8165865D02*
X4735062Y-8156341D01*
X4735062Y-8156341D02*
X4725539Y-8137293D01*
X4725539Y-8137293D02*
X4716015Y-8099198D01*
X4716015Y-8099198D02*
X4716015Y-8051579D01*
X4716015Y-8051579D02*
X4725539Y-8013484D01*
X4725539Y-8013484D02*
X4735062Y-7994436D01*
X4735062Y-7994436D02*
X4744586Y-7984913D01*
X4744586Y-7984913D02*
X4763634Y-7975389D01*
X4916015Y-8175389D02*
X4916015Y-8042055D01*
X4916015Y-8061103D02*
X4925539Y-8051579D01*
X4925539Y-8051579D02*
X4944586Y-8042055D01*
X4944586Y-8042055D02*
X4973158Y-8042055D01*
X4973158Y-8042055D02*
X4992205Y-8051579D01*
X4992205Y-8051579D02*
X5001729Y-8070627D01*
X5001729Y-8070627D02*
X5001729Y-8175389D01*
X5001729Y-8070627D02*
X5011253Y-8051579D01*
X5011253Y-8051579D02*
X5030300Y-8042055D01*
X5030300Y-8042055D02*
X5058872Y-8042055D01*
X5058872Y-8042055D02*
X5077920Y-8051579D01*
X5077920Y-8051579D02*
X5087443Y-8070627D01*
X5087443Y-8070627D02*
X5087443Y-8175389D01*
X5182681Y-8175389D02*
X5182681Y-8042055D01*
X5182681Y-8061103D02*
X5192205Y-8051579D01*
X5192205Y-8051579D02*
X5211253Y-8042055D01*
X5211253Y-8042055D02*
X5239824Y-8042055D01*
X5239824Y-8042055D02*
X5258872Y-8051579D01*
X5258872Y-8051579D02*
X5268396Y-8070627D01*
X5268396Y-8070627D02*
X5268396Y-8175389D01*
X5268396Y-8070627D02*
X5277920Y-8051579D01*
X5277920Y-8051579D02*
X5296967Y-8042055D01*
X5296967Y-8042055D02*
X5325539Y-8042055D01*
X5325539Y-8042055D02*
X5344586Y-8051579D01*
X5344586Y-8051579D02*
X5354110Y-8070627D01*
X5354110Y-8070627D02*
X5354110Y-8175389D01*
X5744586Y-7965865D02*
X5573158Y-8223008D01*
X6001729Y-7975389D02*
X6020777Y-7975389D01*
X6020777Y-7975389D02*
X6039824Y-7984913D01*
X6039824Y-7984913D02*
X6049348Y-7994436D01*
X6049348Y-7994436D02*
X6058872Y-8013484D01*
X6058872Y-8013484D02*
X6068396Y-8051579D01*
X6068396Y-8051579D02*
X6068396Y-8099198D01*
X6068396Y-8099198D02*
X6058872Y-8137293D01*
X6058872Y-8137293D02*
X6049348Y-8156341D01*
X6049348Y-8156341D02*
X6039824Y-8165865D01*
X6039824Y-8165865D02*
X6020777Y-8175389D01*
X6020777Y-8175389D02*
X6001729Y-8175389D01*
X6001729Y-8175389D02*
X5982681Y-8165865D01*
X5982681Y-8165865D02*
X5973158Y-8156341D01*
X5973158Y-8156341D02*
X5963634Y-8137293D01*
X5963634Y-8137293D02*
X5954110Y-8099198D01*
X5954110Y-8099198D02*
X5954110Y-8051579D01*
X5954110Y-8051579D02*
X5963634Y-8013484D01*
X5963634Y-8013484D02*
X5973158Y-7994436D01*
X5973158Y-7994436D02*
X5982681Y-7984913D01*
X5982681Y-7984913D02*
X6001729Y-7975389D01*
X6154110Y-8156341D02*
X6163634Y-8165865D01*
X6163634Y-8165865D02*
X6154110Y-8175389D01*
X6154110Y-8175389D02*
X6144586Y-8165865D01*
X6144586Y-8165865D02*
X6154110Y-8156341D01*
X6154110Y-8156341D02*
X6154110Y-8175389D01*
X6287443Y-7975389D02*
X6306491Y-7975389D01*
X6306491Y-7975389D02*
X6325539Y-7984913D01*
X6325539Y-7984913D02*
X6335062Y-7994436D01*
X6335062Y-7994436D02*
X6344586Y-8013484D01*
X6344586Y-8013484D02*
X6354110Y-8051579D01*
X6354110Y-8051579D02*
X6354110Y-8099198D01*
X6354110Y-8099198D02*
X6344586Y-8137293D01*
X6344586Y-8137293D02*
X6335062Y-8156341D01*
X6335062Y-8156341D02*
X6325539Y-8165865D01*
X6325539Y-8165865D02*
X6306491Y-8175389D01*
X6306491Y-8175389D02*
X6287443Y-8175389D01*
X6287443Y-8175389D02*
X6268396Y-8165865D01*
X6268396Y-8165865D02*
X6258872Y-8156341D01*
X6258872Y-8156341D02*
X6249348Y-8137293D01*
X6249348Y-8137293D02*
X6239824Y-8099198D01*
X6239824Y-8099198D02*
X6239824Y-8051579D01*
X6239824Y-8051579D02*
X6249348Y-8013484D01*
X6249348Y-8013484D02*
X6258872Y-7994436D01*
X6258872Y-7994436D02*
X6268396Y-7984913D01*
X6268396Y-7984913D02*
X6287443Y-7975389D01*
X6525539Y-8042055D02*
X6525539Y-8175389D01*
X6477920Y-7965865D02*
X6430301Y-8108722D01*
X6430301Y-8108722D02*
X6554110Y-8108722D01*
X6611253Y-7975389D02*
X6735062Y-7975389D01*
X6735062Y-7975389D02*
X6668396Y-8051579D01*
X6668396Y-8051579D02*
X6696967Y-8051579D01*
X6696967Y-8051579D02*
X6716015Y-8061103D01*
X6716015Y-8061103D02*
X6725539Y-8070627D01*
X6725539Y-8070627D02*
X6735062Y-8089674D01*
X6735062Y-8089674D02*
X6735062Y-8137293D01*
X6735062Y-8137293D02*
X6725539Y-8156341D01*
X6725539Y-8156341D02*
X6716015Y-8165865D01*
X6716015Y-8165865D02*
X6696967Y-8175389D01*
X6696967Y-8175389D02*
X6639824Y-8175389D01*
X6639824Y-8175389D02*
X6620777Y-8165865D01*
X6620777Y-8165865D02*
X6611253Y-8156341D01*
X6801729Y-7975389D02*
X6925539Y-7975389D01*
X6925539Y-7975389D02*
X6858872Y-8051579D01*
X6858872Y-8051579D02*
X6887443Y-8051579D01*
X6887443Y-8051579D02*
X6906491Y-8061103D01*
X6906491Y-8061103D02*
X6916015Y-8070627D01*
X6916015Y-8070627D02*
X6925539Y-8089674D01*
X6925539Y-8089674D02*
X6925539Y-8137293D01*
X6925539Y-8137293D02*
X6916015Y-8156341D01*
X6916015Y-8156341D02*
X6906491Y-8165865D01*
X6906491Y-8165865D02*
X6887443Y-8175389D01*
X6887443Y-8175389D02*
X6830301Y-8175389D01*
X6830301Y-8175389D02*
X6811253Y-8165865D01*
X6811253Y-8165865D02*
X6801729Y-8156341D01*
X7001729Y-7975389D02*
X7001729Y-8013484D01*
X7077920Y-7975389D02*
X7077920Y-8013484D01*
X7373158Y-8251579D02*
X7363634Y-8242055D01*
X7363634Y-8242055D02*
X7344586Y-8213484D01*
X7344586Y-8213484D02*
X7335063Y-8194436D01*
X7335063Y-8194436D02*
X7325539Y-8165865D01*
X7325539Y-8165865D02*
X7316015Y-8118246D01*
X7316015Y-8118246D02*
X7316015Y-8080151D01*
X7316015Y-8080151D02*
X7325539Y-8032532D01*
X7325539Y-8032532D02*
X7335063Y-8003960D01*
X7335063Y-8003960D02*
X7344586Y-7984913D01*
X7344586Y-7984913D02*
X7363634Y-7956341D01*
X7363634Y-7956341D02*
X7373158Y-7946817D01*
X7554110Y-8175389D02*
X7439824Y-8175389D01*
X7496967Y-8175389D02*
X7496967Y-7975389D01*
X7496967Y-7975389D02*
X7477920Y-8003960D01*
X7477920Y-8003960D02*
X7458872Y-8023008D01*
X7458872Y-8023008D02*
X7439824Y-8032532D01*
X7630301Y-7994436D02*
X7639824Y-7984913D01*
X7639824Y-7984913D02*
X7658872Y-7975389D01*
X7658872Y-7975389D02*
X7706491Y-7975389D01*
X7706491Y-7975389D02*
X7725539Y-7984913D01*
X7725539Y-7984913D02*
X7735063Y-7994436D01*
X7735063Y-7994436D02*
X7744586Y-8013484D01*
X7744586Y-8013484D02*
X7744586Y-8032532D01*
X7744586Y-8032532D02*
X7735063Y-8061103D01*
X7735063Y-8061103D02*
X7620777Y-8175389D01*
X7620777Y-8175389D02*
X7744586Y-8175389D01*
X7982682Y-8175389D02*
X7982682Y-7975389D01*
X8068396Y-8175389D02*
X8068396Y-8070627D01*
X8068396Y-8070627D02*
X8058872Y-8051579D01*
X8058872Y-8051579D02*
X8039825Y-8042055D01*
X8039825Y-8042055D02*
X8011253Y-8042055D01*
X8011253Y-8042055D02*
X7992205Y-8051579D01*
X7992205Y-8051579D02*
X7982682Y-8061103D01*
X8192205Y-8175389D02*
X8173158Y-8165865D01*
X8173158Y-8165865D02*
X8163634Y-8156341D01*
X8163634Y-8156341D02*
X8154110Y-8137293D01*
X8154110Y-8137293D02*
X8154110Y-8080151D01*
X8154110Y-8080151D02*
X8163634Y-8061103D01*
X8163634Y-8061103D02*
X8173158Y-8051579D01*
X8173158Y-8051579D02*
X8192205Y-8042055D01*
X8192205Y-8042055D02*
X8220777Y-8042055D01*
X8220777Y-8042055D02*
X8239825Y-8051579D01*
X8239825Y-8051579D02*
X8249348Y-8061103D01*
X8249348Y-8061103D02*
X8258872Y-8080151D01*
X8258872Y-8080151D02*
X8258872Y-8137293D01*
X8258872Y-8137293D02*
X8249348Y-8156341D01*
X8249348Y-8156341D02*
X8239825Y-8165865D01*
X8239825Y-8165865D02*
X8220777Y-8175389D01*
X8220777Y-8175389D02*
X8192205Y-8175389D01*
X8373158Y-8175389D02*
X8354110Y-8165865D01*
X8354110Y-8165865D02*
X8344586Y-8146817D01*
X8344586Y-8146817D02*
X8344586Y-7975389D01*
X8525539Y-8165865D02*
X8506491Y-8175389D01*
X8506491Y-8175389D02*
X8468396Y-8175389D01*
X8468396Y-8175389D02*
X8449348Y-8165865D01*
X8449348Y-8165865D02*
X8439825Y-8146817D01*
X8439825Y-8146817D02*
X8439825Y-8070627D01*
X8439825Y-8070627D02*
X8449348Y-8051579D01*
X8449348Y-8051579D02*
X8468396Y-8042055D01*
X8468396Y-8042055D02*
X8506491Y-8042055D01*
X8506491Y-8042055D02*
X8525539Y-8051579D01*
X8525539Y-8051579D02*
X8535063Y-8070627D01*
X8535063Y-8070627D02*
X8535063Y-8089674D01*
X8535063Y-8089674D02*
X8439825Y-8108722D01*
X8611253Y-8165865D02*
X8630301Y-8175389D01*
X8630301Y-8175389D02*
X8668396Y-8175389D01*
X8668396Y-8175389D02*
X8687444Y-8165865D01*
X8687444Y-8165865D02*
X8696968Y-8146817D01*
X8696968Y-8146817D02*
X8696968Y-8137293D01*
X8696968Y-8137293D02*
X8687444Y-8118246D01*
X8687444Y-8118246D02*
X8668396Y-8108722D01*
X8668396Y-8108722D02*
X8639825Y-8108722D01*
X8639825Y-8108722D02*
X8620777Y-8099198D01*
X8620777Y-8099198D02*
X8611253Y-8080151D01*
X8611253Y-8080151D02*
X8611253Y-8070627D01*
X8611253Y-8070627D02*
X8620777Y-8051579D01*
X8620777Y-8051579D02*
X8639825Y-8042055D01*
X8639825Y-8042055D02*
X8668396Y-8042055D01*
X8668396Y-8042055D02*
X8687444Y-8051579D01*
X8763634Y-8251579D02*
X8773158Y-8242055D01*
X8773158Y-8242055D02*
X8792206Y-8213484D01*
X8792206Y-8213484D02*
X8801729Y-8194436D01*
X8801729Y-8194436D02*
X8811253Y-8165865D01*
X8811253Y-8165865D02*
X8820777Y-8118246D01*
X8820777Y-8118246D02*
X8820777Y-8080151D01*
X8820777Y-8080151D02*
X8811253Y-8032532D01*
X8811253Y-8032532D02*
X8801729Y-8003960D01*
X8801729Y-8003960D02*
X8792206Y-7984913D01*
X8792206Y-7984913D02*
X8773158Y-7956341D01*
X8773158Y-7956341D02*
X8763634Y-7946817D01*
X3698095Y-8447905D02*
X3798095Y-8347905D01*
X3698095Y-8247905D01*
X3598095Y-8347905D01*
X3698095Y-8447905D01*
X4049348Y-8258436D02*
X4058872Y-8248913D01*
X4058872Y-8248913D02*
X4077919Y-8239389D01*
X4077919Y-8239389D02*
X4125538Y-8239389D01*
X4125538Y-8239389D02*
X4144586Y-8248913D01*
X4144586Y-8248913D02*
X4154110Y-8258436D01*
X4154110Y-8258436D02*
X4163634Y-8277484D01*
X4163634Y-8277484D02*
X4163634Y-8296532D01*
X4163634Y-8296532D02*
X4154110Y-8325103D01*
X4154110Y-8325103D02*
X4039824Y-8439389D01*
X4039824Y-8439389D02*
X4163634Y-8439389D01*
X4249348Y-8420341D02*
X4258872Y-8429865D01*
X4258872Y-8429865D02*
X4249348Y-8439389D01*
X4249348Y-8439389D02*
X4239824Y-8429865D01*
X4239824Y-8429865D02*
X4249348Y-8420341D01*
X4249348Y-8420341D02*
X4249348Y-8439389D01*
X4335062Y-8258436D02*
X4344586Y-8248913D01*
X4344586Y-8248913D02*
X4363634Y-8239389D01*
X4363634Y-8239389D02*
X4411253Y-8239389D01*
X4411253Y-8239389D02*
X4430300Y-8248913D01*
X4430300Y-8248913D02*
X4439824Y-8258436D01*
X4439824Y-8258436D02*
X4449348Y-8277484D01*
X4449348Y-8277484D02*
X4449348Y-8296532D01*
X4449348Y-8296532D02*
X4439824Y-8325103D01*
X4439824Y-8325103D02*
X4325539Y-8439389D01*
X4325539Y-8439389D02*
X4449348Y-8439389D01*
X4573158Y-8239389D02*
X4592205Y-8239389D01*
X4592205Y-8239389D02*
X4611253Y-8248913D01*
X4611253Y-8248913D02*
X4620777Y-8258436D01*
X4620777Y-8258436D02*
X4630300Y-8277484D01*
X4630300Y-8277484D02*
X4639824Y-8315579D01*
X4639824Y-8315579D02*
X4639824Y-8363198D01*
X4639824Y-8363198D02*
X4630300Y-8401294D01*
X4630300Y-8401294D02*
X4620777Y-8420341D01*
X4620777Y-8420341D02*
X4611253Y-8429865D01*
X4611253Y-8429865D02*
X4592205Y-8439389D01*
X4592205Y-8439389D02*
X4573158Y-8439389D01*
X4573158Y-8439389D02*
X4554110Y-8429865D01*
X4554110Y-8429865D02*
X4544586Y-8420341D01*
X4544586Y-8420341D02*
X4535062Y-8401294D01*
X4535062Y-8401294D02*
X4525539Y-8363198D01*
X4525539Y-8363198D02*
X4525539Y-8315579D01*
X4525539Y-8315579D02*
X4535062Y-8277484D01*
X4535062Y-8277484D02*
X4544586Y-8258436D01*
X4544586Y-8258436D02*
X4554110Y-8248913D01*
X4554110Y-8248913D02*
X4573158Y-8239389D01*
X4763634Y-8239389D02*
X4782681Y-8239389D01*
X4782681Y-8239389D02*
X4801729Y-8248913D01*
X4801729Y-8248913D02*
X4811253Y-8258436D01*
X4811253Y-8258436D02*
X4820777Y-8277484D01*
X4820777Y-8277484D02*
X4830300Y-8315579D01*
X4830300Y-8315579D02*
X4830300Y-8363198D01*
X4830300Y-8363198D02*
X4820777Y-8401294D01*
X4820777Y-8401294D02*
X4811253Y-8420341D01*
X4811253Y-8420341D02*
X4801729Y-8429865D01*
X4801729Y-8429865D02*
X4782681Y-8439389D01*
X4782681Y-8439389D02*
X4763634Y-8439389D01*
X4763634Y-8439389D02*
X4744586Y-8429865D01*
X4744586Y-8429865D02*
X4735062Y-8420341D01*
X4735062Y-8420341D02*
X4725539Y-8401294D01*
X4725539Y-8401294D02*
X4716015Y-8363198D01*
X4716015Y-8363198D02*
X4716015Y-8315579D01*
X4716015Y-8315579D02*
X4725539Y-8277484D01*
X4725539Y-8277484D02*
X4735062Y-8258436D01*
X4735062Y-8258436D02*
X4744586Y-8248913D01*
X4744586Y-8248913D02*
X4763634Y-8239389D01*
X4916015Y-8439389D02*
X4916015Y-8306055D01*
X4916015Y-8325103D02*
X4925539Y-8315579D01*
X4925539Y-8315579D02*
X4944586Y-8306055D01*
X4944586Y-8306055D02*
X4973158Y-8306055D01*
X4973158Y-8306055D02*
X4992205Y-8315579D01*
X4992205Y-8315579D02*
X5001729Y-8334627D01*
X5001729Y-8334627D02*
X5001729Y-8439389D01*
X5001729Y-8334627D02*
X5011253Y-8315579D01*
X5011253Y-8315579D02*
X5030300Y-8306055D01*
X5030300Y-8306055D02*
X5058872Y-8306055D01*
X5058872Y-8306055D02*
X5077920Y-8315579D01*
X5077920Y-8315579D02*
X5087443Y-8334627D01*
X5087443Y-8334627D02*
X5087443Y-8439389D01*
X5182681Y-8439389D02*
X5182681Y-8306055D01*
X5182681Y-8325103D02*
X5192205Y-8315579D01*
X5192205Y-8315579D02*
X5211253Y-8306055D01*
X5211253Y-8306055D02*
X5239824Y-8306055D01*
X5239824Y-8306055D02*
X5258872Y-8315579D01*
X5258872Y-8315579D02*
X5268396Y-8334627D01*
X5268396Y-8334627D02*
X5268396Y-8439389D01*
X5268396Y-8334627D02*
X5277920Y-8315579D01*
X5277920Y-8315579D02*
X5296967Y-8306055D01*
X5296967Y-8306055D02*
X5325539Y-8306055D01*
X5325539Y-8306055D02*
X5344586Y-8315579D01*
X5344586Y-8315579D02*
X5354110Y-8334627D01*
X5354110Y-8334627D02*
X5354110Y-8439389D01*
X5744586Y-8229865D02*
X5573158Y-8487008D01*
X6001729Y-8239389D02*
X6020777Y-8239389D01*
X6020777Y-8239389D02*
X6039824Y-8248913D01*
X6039824Y-8248913D02*
X6049348Y-8258436D01*
X6049348Y-8258436D02*
X6058872Y-8277484D01*
X6058872Y-8277484D02*
X6068396Y-8315579D01*
X6068396Y-8315579D02*
X6068396Y-8363198D01*
X6068396Y-8363198D02*
X6058872Y-8401294D01*
X6058872Y-8401294D02*
X6049348Y-8420341D01*
X6049348Y-8420341D02*
X6039824Y-8429865D01*
X6039824Y-8429865D02*
X6020777Y-8439389D01*
X6020777Y-8439389D02*
X6001729Y-8439389D01*
X6001729Y-8439389D02*
X5982681Y-8429865D01*
X5982681Y-8429865D02*
X5973158Y-8420341D01*
X5973158Y-8420341D02*
X5963634Y-8401294D01*
X5963634Y-8401294D02*
X5954110Y-8363198D01*
X5954110Y-8363198D02*
X5954110Y-8315579D01*
X5954110Y-8315579D02*
X5963634Y-8277484D01*
X5963634Y-8277484D02*
X5973158Y-8258436D01*
X5973158Y-8258436D02*
X5982681Y-8248913D01*
X5982681Y-8248913D02*
X6001729Y-8239389D01*
X6154110Y-8420341D02*
X6163634Y-8429865D01*
X6163634Y-8429865D02*
X6154110Y-8439389D01*
X6154110Y-8439389D02*
X6144586Y-8429865D01*
X6144586Y-8429865D02*
X6154110Y-8420341D01*
X6154110Y-8420341D02*
X6154110Y-8439389D01*
X6287443Y-8239389D02*
X6306491Y-8239389D01*
X6306491Y-8239389D02*
X6325539Y-8248913D01*
X6325539Y-8248913D02*
X6335062Y-8258436D01*
X6335062Y-8258436D02*
X6344586Y-8277484D01*
X6344586Y-8277484D02*
X6354110Y-8315579D01*
X6354110Y-8315579D02*
X6354110Y-8363198D01*
X6354110Y-8363198D02*
X6344586Y-8401294D01*
X6344586Y-8401294D02*
X6335062Y-8420341D01*
X6335062Y-8420341D02*
X6325539Y-8429865D01*
X6325539Y-8429865D02*
X6306491Y-8439389D01*
X6306491Y-8439389D02*
X6287443Y-8439389D01*
X6287443Y-8439389D02*
X6268396Y-8429865D01*
X6268396Y-8429865D02*
X6258872Y-8420341D01*
X6258872Y-8420341D02*
X6249348Y-8401294D01*
X6249348Y-8401294D02*
X6239824Y-8363198D01*
X6239824Y-8363198D02*
X6239824Y-8315579D01*
X6239824Y-8315579D02*
X6249348Y-8277484D01*
X6249348Y-8277484D02*
X6258872Y-8258436D01*
X6258872Y-8258436D02*
X6268396Y-8248913D01*
X6268396Y-8248913D02*
X6287443Y-8239389D01*
X6468396Y-8325103D02*
X6449348Y-8315579D01*
X6449348Y-8315579D02*
X6439824Y-8306055D01*
X6439824Y-8306055D02*
X6430301Y-8287008D01*
X6430301Y-8287008D02*
X6430301Y-8277484D01*
X6430301Y-8277484D02*
X6439824Y-8258436D01*
X6439824Y-8258436D02*
X6449348Y-8248913D01*
X6449348Y-8248913D02*
X6468396Y-8239389D01*
X6468396Y-8239389D02*
X6506491Y-8239389D01*
X6506491Y-8239389D02*
X6525539Y-8248913D01*
X6525539Y-8248913D02*
X6535062Y-8258436D01*
X6535062Y-8258436D02*
X6544586Y-8277484D01*
X6544586Y-8277484D02*
X6544586Y-8287008D01*
X6544586Y-8287008D02*
X6535062Y-8306055D01*
X6535062Y-8306055D02*
X6525539Y-8315579D01*
X6525539Y-8315579D02*
X6506491Y-8325103D01*
X6506491Y-8325103D02*
X6468396Y-8325103D01*
X6468396Y-8325103D02*
X6449348Y-8334627D01*
X6449348Y-8334627D02*
X6439824Y-8344151D01*
X6439824Y-8344151D02*
X6430301Y-8363198D01*
X6430301Y-8363198D02*
X6430301Y-8401294D01*
X6430301Y-8401294D02*
X6439824Y-8420341D01*
X6439824Y-8420341D02*
X6449348Y-8429865D01*
X6449348Y-8429865D02*
X6468396Y-8439389D01*
X6468396Y-8439389D02*
X6506491Y-8439389D01*
X6506491Y-8439389D02*
X6525539Y-8429865D01*
X6525539Y-8429865D02*
X6535062Y-8420341D01*
X6535062Y-8420341D02*
X6544586Y-8401294D01*
X6544586Y-8401294D02*
X6544586Y-8363198D01*
X6544586Y-8363198D02*
X6535062Y-8344151D01*
X6535062Y-8344151D02*
X6525539Y-8334627D01*
X6525539Y-8334627D02*
X6506491Y-8325103D01*
X6716015Y-8239389D02*
X6677920Y-8239389D01*
X6677920Y-8239389D02*
X6658872Y-8248913D01*
X6658872Y-8248913D02*
X6649348Y-8258436D01*
X6649348Y-8258436D02*
X6630301Y-8287008D01*
X6630301Y-8287008D02*
X6620777Y-8325103D01*
X6620777Y-8325103D02*
X6620777Y-8401294D01*
X6620777Y-8401294D02*
X6630301Y-8420341D01*
X6630301Y-8420341D02*
X6639824Y-8429865D01*
X6639824Y-8429865D02*
X6658872Y-8439389D01*
X6658872Y-8439389D02*
X6696967Y-8439389D01*
X6696967Y-8439389D02*
X6716015Y-8429865D01*
X6716015Y-8429865D02*
X6725539Y-8420341D01*
X6725539Y-8420341D02*
X6735062Y-8401294D01*
X6735062Y-8401294D02*
X6735062Y-8353674D01*
X6735062Y-8353674D02*
X6725539Y-8334627D01*
X6725539Y-8334627D02*
X6716015Y-8325103D01*
X6716015Y-8325103D02*
X6696967Y-8315579D01*
X6696967Y-8315579D02*
X6658872Y-8315579D01*
X6658872Y-8315579D02*
X6639824Y-8325103D01*
X6639824Y-8325103D02*
X6630301Y-8334627D01*
X6630301Y-8334627D02*
X6620777Y-8353674D01*
X6906491Y-8239389D02*
X6868396Y-8239389D01*
X6868396Y-8239389D02*
X6849348Y-8248913D01*
X6849348Y-8248913D02*
X6839824Y-8258436D01*
X6839824Y-8258436D02*
X6820777Y-8287008D01*
X6820777Y-8287008D02*
X6811253Y-8325103D01*
X6811253Y-8325103D02*
X6811253Y-8401294D01*
X6811253Y-8401294D02*
X6820777Y-8420341D01*
X6820777Y-8420341D02*
X6830301Y-8429865D01*
X6830301Y-8429865D02*
X6849348Y-8439389D01*
X6849348Y-8439389D02*
X6887443Y-8439389D01*
X6887443Y-8439389D02*
X6906491Y-8429865D01*
X6906491Y-8429865D02*
X6916015Y-8420341D01*
X6916015Y-8420341D02*
X6925539Y-8401294D01*
X6925539Y-8401294D02*
X6925539Y-8353674D01*
X6925539Y-8353674D02*
X6916015Y-8334627D01*
X6916015Y-8334627D02*
X6906491Y-8325103D01*
X6906491Y-8325103D02*
X6887443Y-8315579D01*
X6887443Y-8315579D02*
X6849348Y-8315579D01*
X6849348Y-8315579D02*
X6830301Y-8325103D01*
X6830301Y-8325103D02*
X6820777Y-8334627D01*
X6820777Y-8334627D02*
X6811253Y-8353674D01*
X7001729Y-8239389D02*
X7001729Y-8277484D01*
X7077920Y-8239389D02*
X7077920Y-8277484D01*
X7373158Y-8515579D02*
X7363634Y-8506055D01*
X7363634Y-8506055D02*
X7344586Y-8477484D01*
X7344586Y-8477484D02*
X7335063Y-8458436D01*
X7335063Y-8458436D02*
X7325539Y-8429865D01*
X7325539Y-8429865D02*
X7316015Y-8382246D01*
X7316015Y-8382246D02*
X7316015Y-8344151D01*
X7316015Y-8344151D02*
X7325539Y-8296532D01*
X7325539Y-8296532D02*
X7335063Y-8267960D01*
X7335063Y-8267960D02*
X7344586Y-8248913D01*
X7344586Y-8248913D02*
X7363634Y-8220341D01*
X7363634Y-8220341D02*
X7373158Y-8210817D01*
X7439824Y-8258436D02*
X7449348Y-8248913D01*
X7449348Y-8248913D02*
X7468396Y-8239389D01*
X7468396Y-8239389D02*
X7516015Y-8239389D01*
X7516015Y-8239389D02*
X7535063Y-8248913D01*
X7535063Y-8248913D02*
X7544586Y-8258436D01*
X7544586Y-8258436D02*
X7554110Y-8277484D01*
X7554110Y-8277484D02*
X7554110Y-8296532D01*
X7554110Y-8296532D02*
X7544586Y-8325103D01*
X7544586Y-8325103D02*
X7430301Y-8439389D01*
X7430301Y-8439389D02*
X7554110Y-8439389D01*
X7792205Y-8439389D02*
X7792205Y-8239389D01*
X7877920Y-8439389D02*
X7877920Y-8334627D01*
X7877920Y-8334627D02*
X7868396Y-8315579D01*
X7868396Y-8315579D02*
X7849348Y-8306055D01*
X7849348Y-8306055D02*
X7820777Y-8306055D01*
X7820777Y-8306055D02*
X7801729Y-8315579D01*
X7801729Y-8315579D02*
X7792205Y-8325103D01*
X8001729Y-8439389D02*
X7982682Y-8429865D01*
X7982682Y-8429865D02*
X7973158Y-8420341D01*
X7973158Y-8420341D02*
X7963634Y-8401294D01*
X7963634Y-8401294D02*
X7963634Y-8344151D01*
X7963634Y-8344151D02*
X7973158Y-8325103D01*
X7973158Y-8325103D02*
X7982682Y-8315579D01*
X7982682Y-8315579D02*
X8001729Y-8306055D01*
X8001729Y-8306055D02*
X8030301Y-8306055D01*
X8030301Y-8306055D02*
X8049348Y-8315579D01*
X8049348Y-8315579D02*
X8058872Y-8325103D01*
X8058872Y-8325103D02*
X8068396Y-8344151D01*
X8068396Y-8344151D02*
X8068396Y-8401294D01*
X8068396Y-8401294D02*
X8058872Y-8420341D01*
X8058872Y-8420341D02*
X8049348Y-8429865D01*
X8049348Y-8429865D02*
X8030301Y-8439389D01*
X8030301Y-8439389D02*
X8001729Y-8439389D01*
X8182682Y-8439389D02*
X8163634Y-8429865D01*
X8163634Y-8429865D02*
X8154110Y-8410817D01*
X8154110Y-8410817D02*
X8154110Y-8239389D01*
X8335063Y-8429865D02*
X8316015Y-8439389D01*
X8316015Y-8439389D02*
X8277920Y-8439389D01*
X8277920Y-8439389D02*
X8258872Y-8429865D01*
X8258872Y-8429865D02*
X8249348Y-8410817D01*
X8249348Y-8410817D02*
X8249348Y-8334627D01*
X8249348Y-8334627D02*
X8258872Y-8315579D01*
X8258872Y-8315579D02*
X8277920Y-8306055D01*
X8277920Y-8306055D02*
X8316015Y-8306055D01*
X8316015Y-8306055D02*
X8335063Y-8315579D01*
X8335063Y-8315579D02*
X8344586Y-8334627D01*
X8344586Y-8334627D02*
X8344586Y-8353674D01*
X8344586Y-8353674D02*
X8249348Y-8372722D01*
X8420777Y-8429865D02*
X8439825Y-8439389D01*
X8439825Y-8439389D02*
X8477920Y-8439389D01*
X8477920Y-8439389D02*
X8496968Y-8429865D01*
X8496968Y-8429865D02*
X8506491Y-8410817D01*
X8506491Y-8410817D02*
X8506491Y-8401294D01*
X8506491Y-8401294D02*
X8496968Y-8382246D01*
X8496968Y-8382246D02*
X8477920Y-8372722D01*
X8477920Y-8372722D02*
X8449348Y-8372722D01*
X8449348Y-8372722D02*
X8430301Y-8363198D01*
X8430301Y-8363198D02*
X8420777Y-8344151D01*
X8420777Y-8344151D02*
X8420777Y-8334627D01*
X8420777Y-8334627D02*
X8430301Y-8315579D01*
X8430301Y-8315579D02*
X8449348Y-8306055D01*
X8449348Y-8306055D02*
X8477920Y-8306055D01*
X8477920Y-8306055D02*
X8496968Y-8315579D01*
X8573158Y-8515579D02*
X8582682Y-8506055D01*
X8582682Y-8506055D02*
X8601729Y-8477484D01*
X8601729Y-8477484D02*
X8611253Y-8458436D01*
X8611253Y-8458436D02*
X8620777Y-8429865D01*
X8620777Y-8429865D02*
X8630301Y-8382246D01*
X8630301Y-8382246D02*
X8630301Y-8344151D01*
X8630301Y-8344151D02*
X8620777Y-8296532D01*
X8620777Y-8296532D02*
X8611253Y-8267960D01*
X8611253Y-8267960D02*
X8601729Y-8248913D01*
X8601729Y-8248913D02*
X8582682Y-8220341D01*
X8582682Y-8220341D02*
X8573158Y-8210817D01*
M02*
