G04 #@! TF.GenerationSoftware,KiCad,Pcbnew,9.0.4*
G04 #@! TF.CreationDate,2026-01-25T17:53:05-05:00*
G04 #@! TF.ProjectId,shiftclock-4.0,73686966-7463-46c6-9f63-6b2d342e302e,rev?*
G04 #@! TF.SameCoordinates,Original*
G04 #@! TF.FileFunction,Soldermask,Top*
G04 #@! TF.FilePolarity,Negative*
%FSLAX46Y46*%
G04 Gerber Fmt 4.6, Leading zero omitted, Abs format (unit mm)*
G04 Created by KiCad (PCBNEW 9.0.4) date 2026-01-25 17:53:05*
%MOMM*%
%LPD*%
G01*
G04 APERTURE LIST*
G04 APERTURE END LIST*
G36*
X145190285Y-64043060D02*
G01*
X145371397Y-64118079D01*
X145534393Y-64226990D01*
X145673010Y-64365607D01*
X145781921Y-64528603D01*
X145856940Y-64709715D01*
X145895185Y-64901983D01*
X145895185Y-65098017D01*
X145856940Y-65290285D01*
X145781921Y-65471397D01*
X145673010Y-65634393D01*
X145534393Y-65773010D01*
X145371397Y-65881921D01*
X145190285Y-65956940D01*
X144998017Y-65995185D01*
X144801983Y-65995185D01*
X144609715Y-65956940D01*
X144428603Y-65881921D01*
X144265607Y-65773010D01*
X144126990Y-65634393D01*
X144018079Y-65471397D01*
X143943060Y-65290285D01*
X143904815Y-65098017D01*
X143904815Y-64901983D01*
X143943060Y-64709715D01*
X144018079Y-64528603D01*
X144126990Y-64365607D01*
X144265607Y-64226990D01*
X144428603Y-64118079D01*
X144609715Y-64043060D01*
X144801983Y-64004815D01*
X144998017Y-64004815D01*
X145190285Y-64043060D01*
G37*
G36*
X150190285Y-64043060D02*
G01*
X150371397Y-64118079D01*
X150534393Y-64226990D01*
X150673010Y-64365607D01*
X150781921Y-64528603D01*
X150856940Y-64709715D01*
X150895185Y-64901983D01*
X150895185Y-65098017D01*
X150856940Y-65290285D01*
X150781921Y-65471397D01*
X150673010Y-65634393D01*
X150534393Y-65773010D01*
X150371397Y-65881921D01*
X150190285Y-65956940D01*
X149998017Y-65995185D01*
X149801983Y-65995185D01*
X149609715Y-65956940D01*
X149428603Y-65881921D01*
X149265607Y-65773010D01*
X149126990Y-65634393D01*
X149018079Y-65471397D01*
X148943060Y-65290285D01*
X148904815Y-65098017D01*
X148904815Y-64901983D01*
X148943060Y-64709715D01*
X149018079Y-64528603D01*
X149126990Y-64365607D01*
X149265607Y-64226990D01*
X149428603Y-64118079D01*
X149609715Y-64043060D01*
X149801983Y-64004815D01*
X149998017Y-64004815D01*
X150190285Y-64043060D01*
G37*
G36*
X26593737Y-65053850D02*
G01*
X26707208Y-65084254D01*
X26808943Y-65142991D01*
X26892009Y-65226057D01*
X26950746Y-65327792D01*
X26981150Y-65441263D01*
X26981150Y-65558737D01*
X26950746Y-65672208D01*
X26892009Y-65773943D01*
X26808943Y-65857009D01*
X26707208Y-65915746D01*
X26593737Y-65946150D01*
X26535000Y-65950000D01*
X26533029Y-65950000D01*
X25736971Y-65950000D01*
X25735000Y-65950000D01*
X25676263Y-65946150D01*
X25562792Y-65915746D01*
X25461057Y-65857009D01*
X25377991Y-65773943D01*
X25319254Y-65672208D01*
X25288850Y-65558737D01*
X25288850Y-65441263D01*
X25319254Y-65327792D01*
X25377991Y-65226057D01*
X25461057Y-65142991D01*
X25562792Y-65084254D01*
X25676263Y-65053850D01*
X25735000Y-65050000D01*
X26535000Y-65050000D01*
X26593737Y-65053850D01*
G37*
G36*
X30913737Y-65053850D02*
G01*
X31027208Y-65084254D01*
X31128943Y-65142991D01*
X31212009Y-65226057D01*
X31270746Y-65327792D01*
X31301150Y-65441263D01*
X31301150Y-65558737D01*
X31270746Y-65672208D01*
X31212009Y-65773943D01*
X31128943Y-65857009D01*
X31027208Y-65915746D01*
X30913737Y-65946150D01*
X30855000Y-65950000D01*
X30853029Y-65950000D01*
X29756971Y-65950000D01*
X29755000Y-65950000D01*
X29696263Y-65946150D01*
X29582792Y-65915746D01*
X29481057Y-65857009D01*
X29397991Y-65773943D01*
X29339254Y-65672208D01*
X29308850Y-65558737D01*
X29308850Y-65441263D01*
X29339254Y-65327792D01*
X29397991Y-65226057D01*
X29481057Y-65142991D01*
X29582792Y-65084254D01*
X29696263Y-65053850D01*
X29755000Y-65050000D01*
X30855000Y-65050000D01*
X30913737Y-65053850D01*
G37*
G36*
X57900000Y-65000000D02*
G01*
X56400000Y-65000000D01*
X56400000Y-63500000D01*
X57900000Y-63500000D01*
X57900000Y-65000000D01*
G37*
G36*
X108750000Y-65000000D02*
G01*
X107250000Y-65000000D01*
X107250000Y-63500000D01*
X108750000Y-63500000D01*
X108750000Y-65000000D01*
G37*
G36*
X59907714Y-63532295D02*
G01*
X60043548Y-63588559D01*
X60165795Y-63670242D01*
X60269758Y-63774205D01*
X60351441Y-63896452D01*
X60407705Y-64032286D01*
X60436389Y-64176487D01*
X60436389Y-64323513D01*
X60407705Y-64467714D01*
X60351441Y-64603548D01*
X60269758Y-64725795D01*
X60165795Y-64829758D01*
X60043548Y-64911441D01*
X59907714Y-64967705D01*
X59763513Y-64996389D01*
X59616487Y-64996389D01*
X59472286Y-64967705D01*
X59336452Y-64911441D01*
X59214205Y-64829758D01*
X59110242Y-64725795D01*
X59028559Y-64603548D01*
X58972295Y-64467714D01*
X58943611Y-64323513D01*
X58943611Y-64176487D01*
X58972295Y-64032286D01*
X59028559Y-63896452D01*
X59110242Y-63774205D01*
X59214205Y-63670242D01*
X59336452Y-63588559D01*
X59472286Y-63532295D01*
X59616487Y-63503611D01*
X59763513Y-63503611D01*
X59907714Y-63532295D01*
G37*
G36*
X62447714Y-63532295D02*
G01*
X62583548Y-63588559D01*
X62705795Y-63670242D01*
X62809758Y-63774205D01*
X62891441Y-63896452D01*
X62947705Y-64032286D01*
X62976389Y-64176487D01*
X62976389Y-64323513D01*
X62947705Y-64467714D01*
X62891441Y-64603548D01*
X62809758Y-64725795D01*
X62705795Y-64829758D01*
X62583548Y-64911441D01*
X62447714Y-64967705D01*
X62303513Y-64996389D01*
X62156487Y-64996389D01*
X62012286Y-64967705D01*
X61876452Y-64911441D01*
X61754205Y-64829758D01*
X61650242Y-64725795D01*
X61568559Y-64603548D01*
X61512295Y-64467714D01*
X61483611Y-64323513D01*
X61483611Y-64176487D01*
X61512295Y-64032286D01*
X61568559Y-63896452D01*
X61650242Y-63774205D01*
X61754205Y-63670242D01*
X61876452Y-63588559D01*
X62012286Y-63532295D01*
X62156487Y-63503611D01*
X62303513Y-63503611D01*
X62447714Y-63532295D01*
G37*
G36*
X64987714Y-63532295D02*
G01*
X65123548Y-63588559D01*
X65245795Y-63670242D01*
X65349758Y-63774205D01*
X65431441Y-63896452D01*
X65487705Y-64032286D01*
X65516389Y-64176487D01*
X65516389Y-64323513D01*
X65487705Y-64467714D01*
X65431441Y-64603548D01*
X65349758Y-64725795D01*
X65245795Y-64829758D01*
X65123548Y-64911441D01*
X64987714Y-64967705D01*
X64843513Y-64996389D01*
X64696487Y-64996389D01*
X64552286Y-64967705D01*
X64416452Y-64911441D01*
X64294205Y-64829758D01*
X64190242Y-64725795D01*
X64108559Y-64603548D01*
X64052295Y-64467714D01*
X64023611Y-64323513D01*
X64023611Y-64176487D01*
X64052295Y-64032286D01*
X64108559Y-63896452D01*
X64190242Y-63774205D01*
X64294205Y-63670242D01*
X64416452Y-63588559D01*
X64552286Y-63532295D01*
X64696487Y-63503611D01*
X64843513Y-63503611D01*
X64987714Y-63532295D01*
G37*
G36*
X67527714Y-63532295D02*
G01*
X67663548Y-63588559D01*
X67785795Y-63670242D01*
X67889758Y-63774205D01*
X67971441Y-63896452D01*
X68027705Y-64032286D01*
X68056389Y-64176487D01*
X68056389Y-64323513D01*
X68027705Y-64467714D01*
X67971441Y-64603548D01*
X67889758Y-64725795D01*
X67785795Y-64829758D01*
X67663548Y-64911441D01*
X67527714Y-64967705D01*
X67383513Y-64996389D01*
X67236487Y-64996389D01*
X67092286Y-64967705D01*
X66956452Y-64911441D01*
X66834205Y-64829758D01*
X66730242Y-64725795D01*
X66648559Y-64603548D01*
X66592295Y-64467714D01*
X66563611Y-64323513D01*
X66563611Y-64176487D01*
X66592295Y-64032286D01*
X66648559Y-63896452D01*
X66730242Y-63774205D01*
X66834205Y-63670242D01*
X66956452Y-63588559D01*
X67092286Y-63532295D01*
X67236487Y-63503611D01*
X67383513Y-63503611D01*
X67527714Y-63532295D01*
G37*
G36*
X70067714Y-63532295D02*
G01*
X70203548Y-63588559D01*
X70325795Y-63670242D01*
X70429758Y-63774205D01*
X70511441Y-63896452D01*
X70567705Y-64032286D01*
X70596389Y-64176487D01*
X70596389Y-64323513D01*
X70567705Y-64467714D01*
X70511441Y-64603548D01*
X70429758Y-64725795D01*
X70325795Y-64829758D01*
X70203548Y-64911441D01*
X70067714Y-64967705D01*
X69923513Y-64996389D01*
X69776487Y-64996389D01*
X69632286Y-64967705D01*
X69496452Y-64911441D01*
X69374205Y-64829758D01*
X69270242Y-64725795D01*
X69188559Y-64603548D01*
X69132295Y-64467714D01*
X69103611Y-64323513D01*
X69103611Y-64176487D01*
X69132295Y-64032286D01*
X69188559Y-63896452D01*
X69270242Y-63774205D01*
X69374205Y-63670242D01*
X69496452Y-63588559D01*
X69632286Y-63532295D01*
X69776487Y-63503611D01*
X69923513Y-63503611D01*
X70067714Y-63532295D01*
G37*
G36*
X110757714Y-63532295D02*
G01*
X110893548Y-63588559D01*
X111015795Y-63670242D01*
X111119758Y-63774205D01*
X111201441Y-63896452D01*
X111257705Y-64032286D01*
X111286389Y-64176487D01*
X111286389Y-64323513D01*
X111257705Y-64467714D01*
X111201441Y-64603548D01*
X111119758Y-64725795D01*
X111015795Y-64829758D01*
X110893548Y-64911441D01*
X110757714Y-64967705D01*
X110613513Y-64996389D01*
X110466487Y-64996389D01*
X110322286Y-64967705D01*
X110186452Y-64911441D01*
X110064205Y-64829758D01*
X109960242Y-64725795D01*
X109878559Y-64603548D01*
X109822295Y-64467714D01*
X109793611Y-64323513D01*
X109793611Y-64176487D01*
X109822295Y-64032286D01*
X109878559Y-63896452D01*
X109960242Y-63774205D01*
X110064205Y-63670242D01*
X110186452Y-63588559D01*
X110322286Y-63532295D01*
X110466487Y-63503611D01*
X110613513Y-63503611D01*
X110757714Y-63532295D01*
G37*
G36*
X113297714Y-63532295D02*
G01*
X113433548Y-63588559D01*
X113555795Y-63670242D01*
X113659758Y-63774205D01*
X113741441Y-63896452D01*
X113797705Y-64032286D01*
X113826389Y-64176487D01*
X113826389Y-64323513D01*
X113797705Y-64467714D01*
X113741441Y-64603548D01*
X113659758Y-64725795D01*
X113555795Y-64829758D01*
X113433548Y-64911441D01*
X113297714Y-64967705D01*
X113153513Y-64996389D01*
X113006487Y-64996389D01*
X112862286Y-64967705D01*
X112726452Y-64911441D01*
X112604205Y-64829758D01*
X112500242Y-64725795D01*
X112418559Y-64603548D01*
X112362295Y-64467714D01*
X112333611Y-64323513D01*
X112333611Y-64176487D01*
X112362295Y-64032286D01*
X112418559Y-63896452D01*
X112500242Y-63774205D01*
X112604205Y-63670242D01*
X112726452Y-63588559D01*
X112862286Y-63532295D01*
X113006487Y-63503611D01*
X113153513Y-63503611D01*
X113297714Y-63532295D01*
G37*
G36*
X115837714Y-63532295D02*
G01*
X115973548Y-63588559D01*
X116095795Y-63670242D01*
X116199758Y-63774205D01*
X116281441Y-63896452D01*
X116337705Y-64032286D01*
X116366389Y-64176487D01*
X116366389Y-64323513D01*
X116337705Y-64467714D01*
X116281441Y-64603548D01*
X116199758Y-64725795D01*
X116095795Y-64829758D01*
X115973548Y-64911441D01*
X115837714Y-64967705D01*
X115693513Y-64996389D01*
X115546487Y-64996389D01*
X115402286Y-64967705D01*
X115266452Y-64911441D01*
X115144205Y-64829758D01*
X115040242Y-64725795D01*
X114958559Y-64603548D01*
X114902295Y-64467714D01*
X114873611Y-64323513D01*
X114873611Y-64176487D01*
X114902295Y-64032286D01*
X114958559Y-63896452D01*
X115040242Y-63774205D01*
X115144205Y-63670242D01*
X115266452Y-63588559D01*
X115402286Y-63532295D01*
X115546487Y-63503611D01*
X115693513Y-63503611D01*
X115837714Y-63532295D01*
G37*
G36*
X118377714Y-63532295D02*
G01*
X118513548Y-63588559D01*
X118635795Y-63670242D01*
X118739758Y-63774205D01*
X118821441Y-63896452D01*
X118877705Y-64032286D01*
X118906389Y-64176487D01*
X118906389Y-64323513D01*
X118877705Y-64467714D01*
X118821441Y-64603548D01*
X118739758Y-64725795D01*
X118635795Y-64829758D01*
X118513548Y-64911441D01*
X118377714Y-64967705D01*
X118233513Y-64996389D01*
X118086487Y-64996389D01*
X117942286Y-64967705D01*
X117806452Y-64911441D01*
X117684205Y-64829758D01*
X117580242Y-64725795D01*
X117498559Y-64603548D01*
X117442295Y-64467714D01*
X117413611Y-64323513D01*
X117413611Y-64176487D01*
X117442295Y-64032286D01*
X117498559Y-63896452D01*
X117580242Y-63774205D01*
X117684205Y-63670242D01*
X117806452Y-63588559D01*
X117942286Y-63532295D01*
X118086487Y-63503611D01*
X118233513Y-63503611D01*
X118377714Y-63532295D01*
G37*
G36*
X120917714Y-63532295D02*
G01*
X121053548Y-63588559D01*
X121175795Y-63670242D01*
X121279758Y-63774205D01*
X121361441Y-63896452D01*
X121417705Y-64032286D01*
X121446389Y-64176487D01*
X121446389Y-64323513D01*
X121417705Y-64467714D01*
X121361441Y-64603548D01*
X121279758Y-64725795D01*
X121175795Y-64829758D01*
X121053548Y-64911441D01*
X120917714Y-64967705D01*
X120773513Y-64996389D01*
X120626487Y-64996389D01*
X120482286Y-64967705D01*
X120346452Y-64911441D01*
X120224205Y-64829758D01*
X120120242Y-64725795D01*
X120038559Y-64603548D01*
X119982295Y-64467714D01*
X119953611Y-64323513D01*
X119953611Y-64176487D01*
X119982295Y-64032286D01*
X120038559Y-63896452D01*
X120120242Y-63774205D01*
X120224205Y-63670242D01*
X120346452Y-63588559D01*
X120482286Y-63532295D01*
X120626487Y-63503611D01*
X120773513Y-63503611D01*
X120917714Y-63532295D01*
G37*
G36*
X29939805Y-63792836D02*
G01*
X30007628Y-63831994D01*
X30063006Y-63887372D01*
X30102164Y-63955195D01*
X30122433Y-64030842D01*
X30122433Y-64109158D01*
X30102164Y-64184805D01*
X30063006Y-64252628D01*
X30007628Y-64308006D01*
X29939805Y-64347164D01*
X29864158Y-64367433D01*
X29785842Y-64367433D01*
X29710195Y-64347164D01*
X29642372Y-64308006D01*
X29586994Y-64252628D01*
X29547836Y-64184805D01*
X29527567Y-64109158D01*
X29527567Y-64030842D01*
X29547836Y-63955195D01*
X29586994Y-63887372D01*
X29642372Y-63831994D01*
X29710195Y-63792836D01*
X29785842Y-63772567D01*
X29864158Y-63772567D01*
X29939805Y-63792836D01*
G37*
G36*
X142126824Y-56638682D02*
G01*
X142335757Y-56706569D01*
X142531498Y-56806304D01*
X142709227Y-56935432D01*
X142864568Y-57090773D01*
X142993696Y-57268502D01*
X143093431Y-57464243D01*
X143161318Y-57673176D01*
X143195684Y-57890157D01*
X143195684Y-58109843D01*
X143161318Y-58326824D01*
X143093431Y-58535757D01*
X142993696Y-58731498D01*
X142864568Y-58909227D01*
X142709227Y-59064568D01*
X142531498Y-59193696D01*
X142335757Y-59293431D01*
X142126824Y-59361318D01*
X141909843Y-59395684D01*
X141690157Y-59395684D01*
X141473176Y-59361318D01*
X141264243Y-59293431D01*
X141068502Y-59193696D01*
X140890773Y-59064568D01*
X140735432Y-58909227D01*
X140606304Y-58731498D01*
X140506569Y-58535757D01*
X140438682Y-58326824D01*
X140404316Y-58109843D01*
X140404316Y-57890157D01*
X140438682Y-57673176D01*
X140506569Y-57464243D01*
X140606304Y-57268502D01*
X140735432Y-57090773D01*
X140890773Y-56935432D01*
X141068502Y-56806304D01*
X141264243Y-56706569D01*
X141473176Y-56638682D01*
X141690157Y-56604316D01*
X141909843Y-56604316D01*
X142126824Y-56638682D01*
G37*
G36*
X153326824Y-56638682D02*
G01*
X153535757Y-56706569D01*
X153731498Y-56806304D01*
X153909227Y-56935432D01*
X154064568Y-57090773D01*
X154193696Y-57268502D01*
X154293431Y-57464243D01*
X154361318Y-57673176D01*
X154395684Y-57890157D01*
X154395684Y-58109843D01*
X154361318Y-58326824D01*
X154293431Y-58535757D01*
X154193696Y-58731498D01*
X154064568Y-58909227D01*
X153909227Y-59064568D01*
X153731498Y-59193696D01*
X153535757Y-59293431D01*
X153326824Y-59361318D01*
X153109843Y-59395684D01*
X152890157Y-59395684D01*
X152673176Y-59361318D01*
X152464243Y-59293431D01*
X152268502Y-59193696D01*
X152090773Y-59064568D01*
X151935432Y-58909227D01*
X151806304Y-58731498D01*
X151706569Y-58535757D01*
X151638682Y-58326824D01*
X151604316Y-58109843D01*
X151604316Y-57890157D01*
X151638682Y-57673176D01*
X151706569Y-57464243D01*
X151806304Y-57268502D01*
X151935432Y-57090773D01*
X152090773Y-56935432D01*
X152268502Y-56806304D01*
X152464243Y-56706569D01*
X152673176Y-56638682D01*
X152890157Y-56604316D01*
X153109843Y-56604316D01*
X153326824Y-56638682D01*
G37*
G36*
X29939805Y-58012836D02*
G01*
X30007628Y-58051994D01*
X30063006Y-58107372D01*
X30102164Y-58175195D01*
X30122433Y-58250842D01*
X30122433Y-58329158D01*
X30102164Y-58404805D01*
X30063006Y-58472628D01*
X30007628Y-58528006D01*
X29939805Y-58567164D01*
X29864158Y-58587433D01*
X29785842Y-58587433D01*
X29710195Y-58567164D01*
X29642372Y-58528006D01*
X29586994Y-58472628D01*
X29547836Y-58404805D01*
X29527567Y-58329158D01*
X29527567Y-58250842D01*
X29547836Y-58175195D01*
X29586994Y-58107372D01*
X29642372Y-58051994D01*
X29710195Y-58012836D01*
X29785842Y-57992567D01*
X29864158Y-57992567D01*
X29939805Y-58012836D01*
G37*
G36*
X26593737Y-56413850D02*
G01*
X26707208Y-56444254D01*
X26808943Y-56502991D01*
X26892009Y-56586057D01*
X26950746Y-56687792D01*
X26981150Y-56801263D01*
X26981150Y-56918737D01*
X26950746Y-57032208D01*
X26892009Y-57133943D01*
X26808943Y-57217009D01*
X26707208Y-57275746D01*
X26593737Y-57306150D01*
X26535000Y-57310000D01*
X26533029Y-57310000D01*
X25736971Y-57310000D01*
X25735000Y-57310000D01*
X25676263Y-57306150D01*
X25562792Y-57275746D01*
X25461057Y-57217009D01*
X25377991Y-57133943D01*
X25319254Y-57032208D01*
X25288850Y-56918737D01*
X25288850Y-56801263D01*
X25319254Y-56687792D01*
X25377991Y-56586057D01*
X25461057Y-56502991D01*
X25562792Y-56444254D01*
X25676263Y-56413850D01*
X25735000Y-56410000D01*
X26535000Y-56410000D01*
X26593737Y-56413850D01*
G37*
G36*
X30913737Y-56413850D02*
G01*
X31027208Y-56444254D01*
X31128943Y-56502991D01*
X31212009Y-56586057D01*
X31270746Y-56687792D01*
X31301150Y-56801263D01*
X31301150Y-56918737D01*
X31270746Y-57032208D01*
X31212009Y-57133943D01*
X31128943Y-57217009D01*
X31027208Y-57275746D01*
X30913737Y-57306150D01*
X30855000Y-57310000D01*
X30853029Y-57310000D01*
X29756971Y-57310000D01*
X29755000Y-57310000D01*
X29696263Y-57306150D01*
X29582792Y-57275746D01*
X29481057Y-57217009D01*
X29397991Y-57133943D01*
X29339254Y-57032208D01*
X29308850Y-56918737D01*
X29308850Y-56801263D01*
X29339254Y-56687792D01*
X29397991Y-56586057D01*
X29481057Y-56502991D01*
X29582792Y-56444254D01*
X29696263Y-56413850D01*
X29755000Y-56410000D01*
X30855000Y-56410000D01*
X30913737Y-56413850D01*
G37*
G36*
X150900000Y-51500000D02*
G01*
X148900000Y-51500000D01*
X148900000Y-49500000D01*
X150900000Y-49500000D01*
X150900000Y-51500000D01*
G37*
G36*
X145190285Y-49543060D02*
G01*
X145371397Y-49618079D01*
X145534393Y-49726990D01*
X145673010Y-49865607D01*
X145781921Y-50028603D01*
X145856940Y-50209715D01*
X145895185Y-50401983D01*
X145895185Y-50598017D01*
X145856940Y-50790285D01*
X145781921Y-50971397D01*
X145673010Y-51134393D01*
X145534393Y-51273010D01*
X145371397Y-51381921D01*
X145190285Y-51456940D01*
X144998017Y-51495185D01*
X144801983Y-51495185D01*
X144609715Y-51456940D01*
X144428603Y-51381921D01*
X144265607Y-51273010D01*
X144126990Y-51134393D01*
X144018079Y-50971397D01*
X143943060Y-50790285D01*
X143904815Y-50598017D01*
X143904815Y-50401983D01*
X143943060Y-50209715D01*
X144018079Y-50028603D01*
X144126990Y-49865607D01*
X144265607Y-49726990D01*
X144428603Y-49618079D01*
X144609715Y-49543060D01*
X144801983Y-49504815D01*
X144998017Y-49504815D01*
X145190285Y-49543060D01*
G37*
G36*
X147690285Y-49543060D02*
G01*
X147871397Y-49618079D01*
X148034393Y-49726990D01*
X148173010Y-49865607D01*
X148281921Y-50028603D01*
X148356940Y-50209715D01*
X148395185Y-50401983D01*
X148395185Y-50598017D01*
X148356940Y-50790285D01*
X148281921Y-50971397D01*
X148173010Y-51134393D01*
X148034393Y-51273010D01*
X147871397Y-51381921D01*
X147690285Y-51456940D01*
X147498017Y-51495185D01*
X147301983Y-51495185D01*
X147109715Y-51456940D01*
X146928603Y-51381921D01*
X146765607Y-51273010D01*
X146626990Y-51134393D01*
X146518079Y-50971397D01*
X146443060Y-50790285D01*
X146404815Y-50598017D01*
X146404815Y-50401983D01*
X146443060Y-50209715D01*
X146518079Y-50028603D01*
X146626990Y-49865607D01*
X146765607Y-49726990D01*
X146928603Y-49618079D01*
X147109715Y-49543060D01*
X147301983Y-49504815D01*
X147498017Y-49504815D01*
X147690285Y-49543060D01*
G37*
G36*
X57367714Y-48292295D02*
G01*
X57503548Y-48348559D01*
X57625795Y-48430242D01*
X57729758Y-48534205D01*
X57811441Y-48656452D01*
X57867705Y-48792286D01*
X57896389Y-48936487D01*
X57896389Y-49083513D01*
X57867705Y-49227714D01*
X57811441Y-49363548D01*
X57729758Y-49485795D01*
X57625795Y-49589758D01*
X57503548Y-49671441D01*
X57367714Y-49727705D01*
X57223513Y-49756389D01*
X57076487Y-49756389D01*
X56932286Y-49727705D01*
X56796452Y-49671441D01*
X56674205Y-49589758D01*
X56570242Y-49485795D01*
X56488559Y-49363548D01*
X56432295Y-49227714D01*
X56403611Y-49083513D01*
X56403611Y-48936487D01*
X56432295Y-48792286D01*
X56488559Y-48656452D01*
X56570242Y-48534205D01*
X56674205Y-48430242D01*
X56796452Y-48348559D01*
X56932286Y-48292295D01*
X57076487Y-48263611D01*
X57223513Y-48263611D01*
X57367714Y-48292295D01*
G37*
G36*
X59907714Y-48292295D02*
G01*
X60043548Y-48348559D01*
X60165795Y-48430242D01*
X60269758Y-48534205D01*
X60351441Y-48656452D01*
X60407705Y-48792286D01*
X60436389Y-48936487D01*
X60436389Y-49083513D01*
X60407705Y-49227714D01*
X60351441Y-49363548D01*
X60269758Y-49485795D01*
X60165795Y-49589758D01*
X60043548Y-49671441D01*
X59907714Y-49727705D01*
X59763513Y-49756389D01*
X59616487Y-49756389D01*
X59472286Y-49727705D01*
X59336452Y-49671441D01*
X59214205Y-49589758D01*
X59110242Y-49485795D01*
X59028559Y-49363548D01*
X58972295Y-49227714D01*
X58943611Y-49083513D01*
X58943611Y-48936487D01*
X58972295Y-48792286D01*
X59028559Y-48656452D01*
X59110242Y-48534205D01*
X59214205Y-48430242D01*
X59336452Y-48348559D01*
X59472286Y-48292295D01*
X59616487Y-48263611D01*
X59763513Y-48263611D01*
X59907714Y-48292295D01*
G37*
G36*
X62447714Y-48292295D02*
G01*
X62583548Y-48348559D01*
X62705795Y-48430242D01*
X62809758Y-48534205D01*
X62891441Y-48656452D01*
X62947705Y-48792286D01*
X62976389Y-48936487D01*
X62976389Y-49083513D01*
X62947705Y-49227714D01*
X62891441Y-49363548D01*
X62809758Y-49485795D01*
X62705795Y-49589758D01*
X62583548Y-49671441D01*
X62447714Y-49727705D01*
X62303513Y-49756389D01*
X62156487Y-49756389D01*
X62012286Y-49727705D01*
X61876452Y-49671441D01*
X61754205Y-49589758D01*
X61650242Y-49485795D01*
X61568559Y-49363548D01*
X61512295Y-49227714D01*
X61483611Y-49083513D01*
X61483611Y-48936487D01*
X61512295Y-48792286D01*
X61568559Y-48656452D01*
X61650242Y-48534205D01*
X61754205Y-48430242D01*
X61876452Y-48348559D01*
X62012286Y-48292295D01*
X62156487Y-48263611D01*
X62303513Y-48263611D01*
X62447714Y-48292295D01*
G37*
G36*
X64987714Y-48292295D02*
G01*
X65123548Y-48348559D01*
X65245795Y-48430242D01*
X65349758Y-48534205D01*
X65431441Y-48656452D01*
X65487705Y-48792286D01*
X65516389Y-48936487D01*
X65516389Y-49083513D01*
X65487705Y-49227714D01*
X65431441Y-49363548D01*
X65349758Y-49485795D01*
X65245795Y-49589758D01*
X65123548Y-49671441D01*
X64987714Y-49727705D01*
X64843513Y-49756389D01*
X64696487Y-49756389D01*
X64552286Y-49727705D01*
X64416452Y-49671441D01*
X64294205Y-49589758D01*
X64190242Y-49485795D01*
X64108559Y-49363548D01*
X64052295Y-49227714D01*
X64023611Y-49083513D01*
X64023611Y-48936487D01*
X64052295Y-48792286D01*
X64108559Y-48656452D01*
X64190242Y-48534205D01*
X64294205Y-48430242D01*
X64416452Y-48348559D01*
X64552286Y-48292295D01*
X64696487Y-48263611D01*
X64843513Y-48263611D01*
X64987714Y-48292295D01*
G37*
G36*
X67527714Y-48292295D02*
G01*
X67663548Y-48348559D01*
X67785795Y-48430242D01*
X67889758Y-48534205D01*
X67971441Y-48656452D01*
X68027705Y-48792286D01*
X68056389Y-48936487D01*
X68056389Y-49083513D01*
X68027705Y-49227714D01*
X67971441Y-49363548D01*
X67889758Y-49485795D01*
X67785795Y-49589758D01*
X67663548Y-49671441D01*
X67527714Y-49727705D01*
X67383513Y-49756389D01*
X67236487Y-49756389D01*
X67092286Y-49727705D01*
X66956452Y-49671441D01*
X66834205Y-49589758D01*
X66730242Y-49485795D01*
X66648559Y-49363548D01*
X66592295Y-49227714D01*
X66563611Y-49083513D01*
X66563611Y-48936487D01*
X66592295Y-48792286D01*
X66648559Y-48656452D01*
X66730242Y-48534205D01*
X66834205Y-48430242D01*
X66956452Y-48348559D01*
X67092286Y-48292295D01*
X67236487Y-48263611D01*
X67383513Y-48263611D01*
X67527714Y-48292295D01*
G37*
G36*
X70067714Y-48292295D02*
G01*
X70203548Y-48348559D01*
X70325795Y-48430242D01*
X70429758Y-48534205D01*
X70511441Y-48656452D01*
X70567705Y-48792286D01*
X70596389Y-48936487D01*
X70596389Y-49083513D01*
X70567705Y-49227714D01*
X70511441Y-49363548D01*
X70429758Y-49485795D01*
X70325795Y-49589758D01*
X70203548Y-49671441D01*
X70067714Y-49727705D01*
X69923513Y-49756389D01*
X69776487Y-49756389D01*
X69632286Y-49727705D01*
X69496452Y-49671441D01*
X69374205Y-49589758D01*
X69270242Y-49485795D01*
X69188559Y-49363548D01*
X69132295Y-49227714D01*
X69103611Y-49083513D01*
X69103611Y-48936487D01*
X69132295Y-48792286D01*
X69188559Y-48656452D01*
X69270242Y-48534205D01*
X69374205Y-48430242D01*
X69496452Y-48348559D01*
X69632286Y-48292295D01*
X69776487Y-48263611D01*
X69923513Y-48263611D01*
X70067714Y-48292295D01*
G37*
G36*
X108217714Y-48292295D02*
G01*
X108353548Y-48348559D01*
X108475795Y-48430242D01*
X108579758Y-48534205D01*
X108661441Y-48656452D01*
X108717705Y-48792286D01*
X108746389Y-48936487D01*
X108746389Y-49083513D01*
X108717705Y-49227714D01*
X108661441Y-49363548D01*
X108579758Y-49485795D01*
X108475795Y-49589758D01*
X108353548Y-49671441D01*
X108217714Y-49727705D01*
X108073513Y-49756389D01*
X107926487Y-49756389D01*
X107782286Y-49727705D01*
X107646452Y-49671441D01*
X107524205Y-49589758D01*
X107420242Y-49485795D01*
X107338559Y-49363548D01*
X107282295Y-49227714D01*
X107253611Y-49083513D01*
X107253611Y-48936487D01*
X107282295Y-48792286D01*
X107338559Y-48656452D01*
X107420242Y-48534205D01*
X107524205Y-48430242D01*
X107646452Y-48348559D01*
X107782286Y-48292295D01*
X107926487Y-48263611D01*
X108073513Y-48263611D01*
X108217714Y-48292295D01*
G37*
G36*
X110757714Y-48292295D02*
G01*
X110893548Y-48348559D01*
X111015795Y-48430242D01*
X111119758Y-48534205D01*
X111201441Y-48656452D01*
X111257705Y-48792286D01*
X111286389Y-48936487D01*
X111286389Y-49083513D01*
X111257705Y-49227714D01*
X111201441Y-49363548D01*
X111119758Y-49485795D01*
X111015795Y-49589758D01*
X110893548Y-49671441D01*
X110757714Y-49727705D01*
X110613513Y-49756389D01*
X110466487Y-49756389D01*
X110322286Y-49727705D01*
X110186452Y-49671441D01*
X110064205Y-49589758D01*
X109960242Y-49485795D01*
X109878559Y-49363548D01*
X109822295Y-49227714D01*
X109793611Y-49083513D01*
X109793611Y-48936487D01*
X109822295Y-48792286D01*
X109878559Y-48656452D01*
X109960242Y-48534205D01*
X110064205Y-48430242D01*
X110186452Y-48348559D01*
X110322286Y-48292295D01*
X110466487Y-48263611D01*
X110613513Y-48263611D01*
X110757714Y-48292295D01*
G37*
G36*
X113297714Y-48292295D02*
G01*
X113433548Y-48348559D01*
X113555795Y-48430242D01*
X113659758Y-48534205D01*
X113741441Y-48656452D01*
X113797705Y-48792286D01*
X113826389Y-48936487D01*
X113826389Y-49083513D01*
X113797705Y-49227714D01*
X113741441Y-49363548D01*
X113659758Y-49485795D01*
X113555795Y-49589758D01*
X113433548Y-49671441D01*
X113297714Y-49727705D01*
X113153513Y-49756389D01*
X113006487Y-49756389D01*
X112862286Y-49727705D01*
X112726452Y-49671441D01*
X112604205Y-49589758D01*
X112500242Y-49485795D01*
X112418559Y-49363548D01*
X112362295Y-49227714D01*
X112333611Y-49083513D01*
X112333611Y-48936487D01*
X112362295Y-48792286D01*
X112418559Y-48656452D01*
X112500242Y-48534205D01*
X112604205Y-48430242D01*
X112726452Y-48348559D01*
X112862286Y-48292295D01*
X113006487Y-48263611D01*
X113153513Y-48263611D01*
X113297714Y-48292295D01*
G37*
G36*
X115837714Y-48292295D02*
G01*
X115973548Y-48348559D01*
X116095795Y-48430242D01*
X116199758Y-48534205D01*
X116281441Y-48656452D01*
X116337705Y-48792286D01*
X116366389Y-48936487D01*
X116366389Y-49083513D01*
X116337705Y-49227714D01*
X116281441Y-49363548D01*
X116199758Y-49485795D01*
X116095795Y-49589758D01*
X115973548Y-49671441D01*
X115837714Y-49727705D01*
X115693513Y-49756389D01*
X115546487Y-49756389D01*
X115402286Y-49727705D01*
X115266452Y-49671441D01*
X115144205Y-49589758D01*
X115040242Y-49485795D01*
X114958559Y-49363548D01*
X114902295Y-49227714D01*
X114873611Y-49083513D01*
X114873611Y-48936487D01*
X114902295Y-48792286D01*
X114958559Y-48656452D01*
X115040242Y-48534205D01*
X115144205Y-48430242D01*
X115266452Y-48348559D01*
X115402286Y-48292295D01*
X115546487Y-48263611D01*
X115693513Y-48263611D01*
X115837714Y-48292295D01*
G37*
G36*
X118377714Y-48292295D02*
G01*
X118513548Y-48348559D01*
X118635795Y-48430242D01*
X118739758Y-48534205D01*
X118821441Y-48656452D01*
X118877705Y-48792286D01*
X118906389Y-48936487D01*
X118906389Y-49083513D01*
X118877705Y-49227714D01*
X118821441Y-49363548D01*
X118739758Y-49485795D01*
X118635795Y-49589758D01*
X118513548Y-49671441D01*
X118377714Y-49727705D01*
X118233513Y-49756389D01*
X118086487Y-49756389D01*
X117942286Y-49727705D01*
X117806452Y-49671441D01*
X117684205Y-49589758D01*
X117580242Y-49485795D01*
X117498559Y-49363548D01*
X117442295Y-49227714D01*
X117413611Y-49083513D01*
X117413611Y-48936487D01*
X117442295Y-48792286D01*
X117498559Y-48656452D01*
X117580242Y-48534205D01*
X117684205Y-48430242D01*
X117806452Y-48348559D01*
X117942286Y-48292295D01*
X118086487Y-48263611D01*
X118233513Y-48263611D01*
X118377714Y-48292295D01*
G37*
G36*
X120917714Y-48292295D02*
G01*
X121053548Y-48348559D01*
X121175795Y-48430242D01*
X121279758Y-48534205D01*
X121361441Y-48656452D01*
X121417705Y-48792286D01*
X121446389Y-48936487D01*
X121446389Y-49083513D01*
X121417705Y-49227714D01*
X121361441Y-49363548D01*
X121279758Y-49485795D01*
X121175795Y-49589758D01*
X121053548Y-49671441D01*
X120917714Y-49727705D01*
X120773513Y-49756389D01*
X120626487Y-49756389D01*
X120482286Y-49727705D01*
X120346452Y-49671441D01*
X120224205Y-49589758D01*
X120120242Y-49485795D01*
X120038559Y-49363548D01*
X119982295Y-49227714D01*
X119953611Y-49083513D01*
X119953611Y-48936487D01*
X119982295Y-48792286D01*
X120038559Y-48656452D01*
X120120242Y-48534205D01*
X120224205Y-48430242D01*
X120346452Y-48348559D01*
X120482286Y-48292295D01*
X120626487Y-48263611D01*
X120773513Y-48263611D01*
X120917714Y-48292295D01*
G37*
G36*
X134040000Y-46280000D02*
G01*
X132480000Y-46280000D01*
X132480000Y-44720000D01*
X134040000Y-44720000D01*
X134040000Y-46280000D01*
G37*
G36*
X25040285Y-44293060D02*
G01*
X25221397Y-44368079D01*
X25384393Y-44476990D01*
X25523010Y-44615607D01*
X25631921Y-44778603D01*
X25706940Y-44959715D01*
X25745185Y-45151983D01*
X25745185Y-45348017D01*
X25706940Y-45540285D01*
X25631921Y-45721397D01*
X25523010Y-45884393D01*
X25384393Y-46023010D01*
X25221397Y-46131921D01*
X25040285Y-46206940D01*
X24848017Y-46245185D01*
X24651983Y-46245185D01*
X24459715Y-46206940D01*
X24278603Y-46131921D01*
X24115607Y-46023010D01*
X23976990Y-45884393D01*
X23868079Y-45721397D01*
X23793060Y-45540285D01*
X23754815Y-45348017D01*
X23754815Y-45151983D01*
X23793060Y-44959715D01*
X23868079Y-44778603D01*
X23976990Y-44615607D01*
X24115607Y-44476990D01*
X24278603Y-44368079D01*
X24459715Y-44293060D01*
X24651983Y-44254815D01*
X24848017Y-44254815D01*
X25040285Y-44293060D01*
G37*
G36*
X31540285Y-44293060D02*
G01*
X31721397Y-44368079D01*
X31884393Y-44476990D01*
X32023010Y-44615607D01*
X32131921Y-44778603D01*
X32206940Y-44959715D01*
X32245185Y-45151983D01*
X32245185Y-45348017D01*
X32206940Y-45540285D01*
X32131921Y-45721397D01*
X32023010Y-45884393D01*
X31884393Y-46023010D01*
X31721397Y-46131921D01*
X31540285Y-46206940D01*
X31348017Y-46245185D01*
X31151983Y-46245185D01*
X30959715Y-46206940D01*
X30778603Y-46131921D01*
X30615607Y-46023010D01*
X30476990Y-45884393D01*
X30368079Y-45721397D01*
X30293060Y-45540285D01*
X30254815Y-45348017D01*
X30254815Y-45151983D01*
X30293060Y-44959715D01*
X30368079Y-44778603D01*
X30476990Y-44615607D01*
X30615607Y-44476990D01*
X30778603Y-44368079D01*
X30959715Y-44293060D01*
X31151983Y-44254815D01*
X31348017Y-44254815D01*
X31540285Y-44293060D01*
G37*
G36*
X34540285Y-44293060D02*
G01*
X34721397Y-44368079D01*
X34884393Y-44476990D01*
X35023010Y-44615607D01*
X35131921Y-44778603D01*
X35206940Y-44959715D01*
X35245185Y-45151983D01*
X35245185Y-45348017D01*
X35206940Y-45540285D01*
X35131921Y-45721397D01*
X35023010Y-45884393D01*
X34884393Y-46023010D01*
X34721397Y-46131921D01*
X34540285Y-46206940D01*
X34348017Y-46245185D01*
X34151983Y-46245185D01*
X33959715Y-46206940D01*
X33778603Y-46131921D01*
X33615607Y-46023010D01*
X33476990Y-45884393D01*
X33368079Y-45721397D01*
X33293060Y-45540285D01*
X33254815Y-45348017D01*
X33254815Y-45151983D01*
X33293060Y-44959715D01*
X33368079Y-44778603D01*
X33476990Y-44615607D01*
X33615607Y-44476990D01*
X33778603Y-44368079D01*
X33959715Y-44293060D01*
X34151983Y-44254815D01*
X34348017Y-44254815D01*
X34540285Y-44293060D01*
G37*
G36*
X41040285Y-44293060D02*
G01*
X41221397Y-44368079D01*
X41384393Y-44476990D01*
X41523010Y-44615607D01*
X41631921Y-44778603D01*
X41706940Y-44959715D01*
X41745185Y-45151983D01*
X41745185Y-45348017D01*
X41706940Y-45540285D01*
X41631921Y-45721397D01*
X41523010Y-45884393D01*
X41384393Y-46023010D01*
X41221397Y-46131921D01*
X41040285Y-46206940D01*
X40848017Y-46245185D01*
X40651983Y-46245185D01*
X40459715Y-46206940D01*
X40278603Y-46131921D01*
X40115607Y-46023010D01*
X39976990Y-45884393D01*
X39868079Y-45721397D01*
X39793060Y-45540285D01*
X39754815Y-45348017D01*
X39754815Y-45151983D01*
X39793060Y-44959715D01*
X39868079Y-44778603D01*
X39976990Y-44615607D01*
X40115607Y-44476990D01*
X40278603Y-44368079D01*
X40459715Y-44293060D01*
X40651983Y-44254815D01*
X40848017Y-44254815D01*
X41040285Y-44293060D01*
G37*
G36*
X44040285Y-44293060D02*
G01*
X44221397Y-44368079D01*
X44384393Y-44476990D01*
X44523010Y-44615607D01*
X44631921Y-44778603D01*
X44706940Y-44959715D01*
X44745185Y-45151983D01*
X44745185Y-45348017D01*
X44706940Y-45540285D01*
X44631921Y-45721397D01*
X44523010Y-45884393D01*
X44384393Y-46023010D01*
X44221397Y-46131921D01*
X44040285Y-46206940D01*
X43848017Y-46245185D01*
X43651983Y-46245185D01*
X43459715Y-46206940D01*
X43278603Y-46131921D01*
X43115607Y-46023010D01*
X42976990Y-45884393D01*
X42868079Y-45721397D01*
X42793060Y-45540285D01*
X42754815Y-45348017D01*
X42754815Y-45151983D01*
X42793060Y-44959715D01*
X42868079Y-44778603D01*
X42976990Y-44615607D01*
X43115607Y-44476990D01*
X43278603Y-44368079D01*
X43459715Y-44293060D01*
X43651983Y-44254815D01*
X43848017Y-44254815D01*
X44040285Y-44293060D01*
G37*
G36*
X50540285Y-44293060D02*
G01*
X50721397Y-44368079D01*
X50884393Y-44476990D01*
X51023010Y-44615607D01*
X51131921Y-44778603D01*
X51206940Y-44959715D01*
X51245185Y-45151983D01*
X51245185Y-45348017D01*
X51206940Y-45540285D01*
X51131921Y-45721397D01*
X51023010Y-45884393D01*
X50884393Y-46023010D01*
X50721397Y-46131921D01*
X50540285Y-46206940D01*
X50348017Y-46245185D01*
X50151983Y-46245185D01*
X49959715Y-46206940D01*
X49778603Y-46131921D01*
X49615607Y-46023010D01*
X49476990Y-45884393D01*
X49368079Y-45721397D01*
X49293060Y-45540285D01*
X49254815Y-45348017D01*
X49254815Y-45151983D01*
X49293060Y-44959715D01*
X49368079Y-44778603D01*
X49476990Y-44615607D01*
X49615607Y-44476990D01*
X49778603Y-44368079D01*
X49959715Y-44293060D01*
X50151983Y-44254815D01*
X50348017Y-44254815D01*
X50540285Y-44293060D01*
G37*
G36*
X138486422Y-42253587D02*
G01*
X138627689Y-42312101D01*
X138754827Y-42397052D01*
X138862948Y-42505173D01*
X138947899Y-42632311D01*
X139006413Y-42773578D01*
X139036244Y-42923547D01*
X139036244Y-43076453D01*
X139006413Y-43226422D01*
X138947899Y-43367689D01*
X138862948Y-43494827D01*
X138754827Y-43602948D01*
X138627689Y-43687899D01*
X138486422Y-43746413D01*
X138336453Y-43776244D01*
X138183547Y-43776244D01*
X138033578Y-43746413D01*
X137892311Y-43687899D01*
X137765173Y-43602948D01*
X137657052Y-43494827D01*
X137572101Y-43367689D01*
X137513587Y-43226422D01*
X137483756Y-43076453D01*
X137483756Y-42923547D01*
X137513587Y-42773578D01*
X137572101Y-42632311D01*
X137657052Y-42505173D01*
X137765173Y-42397052D01*
X137892311Y-42312101D01*
X138033578Y-42253587D01*
X138183547Y-42223756D01*
X138336453Y-42223756D01*
X138486422Y-42253587D01*
G37*
G36*
X25040285Y-39793060D02*
G01*
X25221397Y-39868079D01*
X25384393Y-39976990D01*
X25523010Y-40115607D01*
X25631921Y-40278603D01*
X25706940Y-40459715D01*
X25745185Y-40651983D01*
X25745185Y-40848017D01*
X25706940Y-41040285D01*
X25631921Y-41221397D01*
X25523010Y-41384393D01*
X25384393Y-41523010D01*
X25221397Y-41631921D01*
X25040285Y-41706940D01*
X24848017Y-41745185D01*
X24651983Y-41745185D01*
X24459715Y-41706940D01*
X24278603Y-41631921D01*
X24115607Y-41523010D01*
X23976990Y-41384393D01*
X23868079Y-41221397D01*
X23793060Y-41040285D01*
X23754815Y-40848017D01*
X23754815Y-40651983D01*
X23793060Y-40459715D01*
X23868079Y-40278603D01*
X23976990Y-40115607D01*
X24115607Y-39976990D01*
X24278603Y-39868079D01*
X24459715Y-39793060D01*
X24651983Y-39754815D01*
X24848017Y-39754815D01*
X25040285Y-39793060D01*
G37*
G36*
X31540285Y-39793060D02*
G01*
X31721397Y-39868079D01*
X31884393Y-39976990D01*
X32023010Y-40115607D01*
X32131921Y-40278603D01*
X32206940Y-40459715D01*
X32245185Y-40651983D01*
X32245185Y-40848017D01*
X32206940Y-41040285D01*
X32131921Y-41221397D01*
X32023010Y-41384393D01*
X31884393Y-41523010D01*
X31721397Y-41631921D01*
X31540285Y-41706940D01*
X31348017Y-41745185D01*
X31151983Y-41745185D01*
X30959715Y-41706940D01*
X30778603Y-41631921D01*
X30615607Y-41523010D01*
X30476990Y-41384393D01*
X30368079Y-41221397D01*
X30293060Y-41040285D01*
X30254815Y-40848017D01*
X30254815Y-40651983D01*
X30293060Y-40459715D01*
X30368079Y-40278603D01*
X30476990Y-40115607D01*
X30615607Y-39976990D01*
X30778603Y-39868079D01*
X30959715Y-39793060D01*
X31151983Y-39754815D01*
X31348017Y-39754815D01*
X31540285Y-39793060D01*
G37*
G36*
X34540285Y-39793060D02*
G01*
X34721397Y-39868079D01*
X34884393Y-39976990D01*
X35023010Y-40115607D01*
X35131921Y-40278603D01*
X35206940Y-40459715D01*
X35245185Y-40651983D01*
X35245185Y-40848017D01*
X35206940Y-41040285D01*
X35131921Y-41221397D01*
X35023010Y-41384393D01*
X34884393Y-41523010D01*
X34721397Y-41631921D01*
X34540285Y-41706940D01*
X34348017Y-41745185D01*
X34151983Y-41745185D01*
X33959715Y-41706940D01*
X33778603Y-41631921D01*
X33615607Y-41523010D01*
X33476990Y-41384393D01*
X33368079Y-41221397D01*
X33293060Y-41040285D01*
X33254815Y-40848017D01*
X33254815Y-40651983D01*
X33293060Y-40459715D01*
X33368079Y-40278603D01*
X33476990Y-40115607D01*
X33615607Y-39976990D01*
X33778603Y-39868079D01*
X33959715Y-39793060D01*
X34151983Y-39754815D01*
X34348017Y-39754815D01*
X34540285Y-39793060D01*
G37*
G36*
X41040285Y-39793060D02*
G01*
X41221397Y-39868079D01*
X41384393Y-39976990D01*
X41523010Y-40115607D01*
X41631921Y-40278603D01*
X41706940Y-40459715D01*
X41745185Y-40651983D01*
X41745185Y-40848017D01*
X41706940Y-41040285D01*
X41631921Y-41221397D01*
X41523010Y-41384393D01*
X41384393Y-41523010D01*
X41221397Y-41631921D01*
X41040285Y-41706940D01*
X40848017Y-41745185D01*
X40651983Y-41745185D01*
X40459715Y-41706940D01*
X40278603Y-41631921D01*
X40115607Y-41523010D01*
X39976990Y-41384393D01*
X39868079Y-41221397D01*
X39793060Y-41040285D01*
X39754815Y-40848017D01*
X39754815Y-40651983D01*
X39793060Y-40459715D01*
X39868079Y-40278603D01*
X39976990Y-40115607D01*
X40115607Y-39976990D01*
X40278603Y-39868079D01*
X40459715Y-39793060D01*
X40651983Y-39754815D01*
X40848017Y-39754815D01*
X41040285Y-39793060D01*
G37*
G36*
X44040285Y-39793060D02*
G01*
X44221397Y-39868079D01*
X44384393Y-39976990D01*
X44523010Y-40115607D01*
X44631921Y-40278603D01*
X44706940Y-40459715D01*
X44745185Y-40651983D01*
X44745185Y-40848017D01*
X44706940Y-41040285D01*
X44631921Y-41221397D01*
X44523010Y-41384393D01*
X44384393Y-41523010D01*
X44221397Y-41631921D01*
X44040285Y-41706940D01*
X43848017Y-41745185D01*
X43651983Y-41745185D01*
X43459715Y-41706940D01*
X43278603Y-41631921D01*
X43115607Y-41523010D01*
X42976990Y-41384393D01*
X42868079Y-41221397D01*
X42793060Y-41040285D01*
X42754815Y-40848017D01*
X42754815Y-40651983D01*
X42793060Y-40459715D01*
X42868079Y-40278603D01*
X42976990Y-40115607D01*
X43115607Y-39976990D01*
X43278603Y-39868079D01*
X43459715Y-39793060D01*
X43651983Y-39754815D01*
X43848017Y-39754815D01*
X44040285Y-39793060D01*
G37*
G36*
X50540285Y-39793060D02*
G01*
X50721397Y-39868079D01*
X50884393Y-39976990D01*
X51023010Y-40115607D01*
X51131921Y-40278603D01*
X51206940Y-40459715D01*
X51245185Y-40651983D01*
X51245185Y-40848017D01*
X51206940Y-41040285D01*
X51131921Y-41221397D01*
X51023010Y-41384393D01*
X50884393Y-41523010D01*
X50721397Y-41631921D01*
X50540285Y-41706940D01*
X50348017Y-41745185D01*
X50151983Y-41745185D01*
X49959715Y-41706940D01*
X49778603Y-41631921D01*
X49615607Y-41523010D01*
X49476990Y-41384393D01*
X49368079Y-41221397D01*
X49293060Y-41040285D01*
X49254815Y-40848017D01*
X49254815Y-40651983D01*
X49293060Y-40459715D01*
X49368079Y-40278603D01*
X49476990Y-40115607D01*
X49615607Y-39976990D01*
X49778603Y-39868079D01*
X49959715Y-39793060D01*
X50151983Y-39754815D01*
X50348017Y-39754815D01*
X50540285Y-39793060D01*
G37*
G36*
X133486422Y-39753587D02*
G01*
X133627689Y-39812101D01*
X133754827Y-39897052D01*
X133862948Y-40005173D01*
X133947899Y-40132311D01*
X134006413Y-40273578D01*
X134036244Y-40423547D01*
X134036244Y-40576453D01*
X134006413Y-40726422D01*
X133947899Y-40867689D01*
X133862948Y-40994827D01*
X133754827Y-41102948D01*
X133627689Y-41187899D01*
X133486422Y-41246413D01*
X133336453Y-41276244D01*
X133183547Y-41276244D01*
X133033578Y-41246413D01*
X132892311Y-41187899D01*
X132765173Y-41102948D01*
X132657052Y-40994827D01*
X132572101Y-40867689D01*
X132513587Y-40726422D01*
X132483756Y-40576453D01*
X132483756Y-40423547D01*
X132513587Y-40273578D01*
X132572101Y-40132311D01*
X132657052Y-40005173D01*
X132765173Y-39897052D01*
X132892311Y-39812101D01*
X133033578Y-39753587D01*
X133183547Y-39723756D01*
X133336453Y-39723756D01*
X133486422Y-39753587D01*
G37*
M02*
