G04 #@! TF.GenerationSoftware,KiCad,Pcbnew,9.0.3*
G04 #@! TF.CreationDate,2025-09-30T21:03:46-04:00*
G04 #@! TF.ProjectId,shiftclock-2.0,73686966-7463-46c6-9f63-6b2d322e302e,rev?*
G04 #@! TF.SameCoordinates,Original*
G04 #@! TF.FileFunction,Soldermask,Bot*
G04 #@! TF.FilePolarity,Negative*
%FSLAX46Y46*%
G04 Gerber Fmt 4.6, Leading zero omitted, Abs format (unit mm)*
G04 Created by KiCad (PCBNEW 9.0.3) date 2025-09-30 21:03:46*
%MOMM*%
%LPD*%
G01*
G04 APERTURE LIST*
G04 APERTURE END LIST*
G36*
X43093737Y-73873850D02*
G01*
X43207208Y-73904254D01*
X43308943Y-73962991D01*
X43392009Y-74046057D01*
X43450746Y-74147792D01*
X43481150Y-74261263D01*
X43481150Y-74378737D01*
X43450746Y-74492208D01*
X43392009Y-74593943D01*
X43308943Y-74677009D01*
X43207208Y-74735746D01*
X43093737Y-74766150D01*
X43035000Y-74770000D01*
X43033029Y-74770000D01*
X42236971Y-74770000D01*
X42235000Y-74770000D01*
X42176263Y-74766150D01*
X42062792Y-74735746D01*
X41961057Y-74677009D01*
X41877991Y-74593943D01*
X41819254Y-74492208D01*
X41788850Y-74378737D01*
X41788850Y-74261263D01*
X41819254Y-74147792D01*
X41877991Y-74046057D01*
X41961057Y-73962991D01*
X42062792Y-73904254D01*
X42176263Y-73873850D01*
X42235000Y-73870000D01*
X43035000Y-73870000D01*
X43093737Y-73873850D01*
G37*
G36*
X47413737Y-73873850D02*
G01*
X47527208Y-73904254D01*
X47628943Y-73962991D01*
X47712009Y-74046057D01*
X47770746Y-74147792D01*
X47801150Y-74261263D01*
X47801150Y-74378737D01*
X47770746Y-74492208D01*
X47712009Y-74593943D01*
X47628943Y-74677009D01*
X47527208Y-74735746D01*
X47413737Y-74766150D01*
X47355000Y-74770000D01*
X47353029Y-74770000D01*
X46256971Y-74770000D01*
X46255000Y-74770000D01*
X46196263Y-74766150D01*
X46082792Y-74735746D01*
X45981057Y-74677009D01*
X45897991Y-74593943D01*
X45839254Y-74492208D01*
X45808850Y-74378737D01*
X45808850Y-74261263D01*
X45839254Y-74147792D01*
X45897991Y-74046057D01*
X45981057Y-73962991D01*
X46082792Y-73904254D01*
X46196263Y-73873850D01*
X46255000Y-73870000D01*
X47355000Y-73870000D01*
X47413737Y-73873850D01*
G37*
G36*
X89629850Y-73400964D02*
G01*
X89680040Y-73406787D01*
X89697189Y-73414359D01*
X89720671Y-73419030D01*
X89745810Y-73435827D01*
X89765696Y-73444608D01*
X89779277Y-73458189D01*
X89801777Y-73473223D01*
X89816810Y-73495722D01*
X89830391Y-73509303D01*
X89839170Y-73529186D01*
X89855970Y-73554329D01*
X89860641Y-73577812D01*
X89868212Y-73594959D01*
X89874033Y-73645139D01*
X89875000Y-73650000D01*
X89875000Y-74450000D01*
X89874032Y-74454863D01*
X89868212Y-74505040D01*
X89860641Y-74522185D01*
X89855970Y-74545671D01*
X89839169Y-74570815D01*
X89830391Y-74590696D01*
X89816812Y-74604274D01*
X89801777Y-74626777D01*
X89779274Y-74641812D01*
X89765696Y-74655391D01*
X89745815Y-74664169D01*
X89720671Y-74680970D01*
X89697185Y-74685641D01*
X89680040Y-74693212D01*
X89629861Y-74699032D01*
X89625000Y-74700000D01*
X88375000Y-74700000D01*
X88370138Y-74699032D01*
X88319959Y-74693212D01*
X88302812Y-74685641D01*
X88279329Y-74680970D01*
X88254186Y-74664170D01*
X88234303Y-74655391D01*
X88220722Y-74641810D01*
X88198223Y-74626777D01*
X88183189Y-74604277D01*
X88169608Y-74590696D01*
X88160827Y-74570810D01*
X88144030Y-74545671D01*
X88139359Y-74522189D01*
X88131787Y-74505040D01*
X88125964Y-74454849D01*
X88125000Y-74450000D01*
X88125000Y-73650000D01*
X88125964Y-73645150D01*
X88131787Y-73594959D01*
X88139359Y-73577808D01*
X88144030Y-73554329D01*
X88160826Y-73529191D01*
X88169608Y-73509303D01*
X88183191Y-73495719D01*
X88198223Y-73473223D01*
X88220719Y-73458191D01*
X88234303Y-73444608D01*
X88254191Y-73435826D01*
X88279329Y-73419030D01*
X88302808Y-73414359D01*
X88319959Y-73406787D01*
X88370151Y-73400964D01*
X88375000Y-73400000D01*
X89625000Y-73400000D01*
X89629850Y-73400964D01*
G37*
G36*
X160326824Y-71738682D02*
G01*
X160535757Y-71806569D01*
X160731498Y-71906304D01*
X160909227Y-72035432D01*
X161064568Y-72190773D01*
X161193696Y-72368502D01*
X161293431Y-72564243D01*
X161361318Y-72773176D01*
X161395684Y-72990157D01*
X161395684Y-73209843D01*
X161361318Y-73426824D01*
X161293431Y-73635757D01*
X161193696Y-73831498D01*
X161064568Y-74009227D01*
X160909227Y-74164568D01*
X160731498Y-74293696D01*
X160535757Y-74393431D01*
X160326824Y-74461318D01*
X160109843Y-74495684D01*
X159890157Y-74495684D01*
X159673176Y-74461318D01*
X159464243Y-74393431D01*
X159268502Y-74293696D01*
X159090773Y-74164568D01*
X158935432Y-74009227D01*
X158806304Y-73831498D01*
X158706569Y-73635757D01*
X158638682Y-73426824D01*
X158604316Y-73209843D01*
X158604316Y-72990157D01*
X158638682Y-72773176D01*
X158706569Y-72564243D01*
X158806304Y-72368502D01*
X158935432Y-72190773D01*
X159090773Y-72035432D01*
X159268502Y-71906304D01*
X159464243Y-71806569D01*
X159673176Y-71738682D01*
X159890157Y-71704316D01*
X160109843Y-71704316D01*
X160326824Y-71738682D01*
G37*
G36*
X112854850Y-72625964D02*
G01*
X112905040Y-72631787D01*
X112922189Y-72639359D01*
X112945671Y-72644030D01*
X112970810Y-72660827D01*
X112990696Y-72669608D01*
X113004277Y-72683189D01*
X113026777Y-72698223D01*
X113041810Y-72720722D01*
X113055391Y-72734303D01*
X113064170Y-72754186D01*
X113080970Y-72779329D01*
X113085641Y-72802812D01*
X113093212Y-72819959D01*
X113099033Y-72870139D01*
X113100000Y-72875000D01*
X113100000Y-74125000D01*
X113099032Y-74129863D01*
X113093212Y-74180040D01*
X113085641Y-74197185D01*
X113080970Y-74220671D01*
X113064169Y-74245815D01*
X113055391Y-74265696D01*
X113041812Y-74279274D01*
X113026777Y-74301777D01*
X113004274Y-74316812D01*
X112990696Y-74330391D01*
X112970815Y-74339169D01*
X112945671Y-74355970D01*
X112922185Y-74360641D01*
X112905040Y-74368212D01*
X112854861Y-74374032D01*
X112850000Y-74375000D01*
X112050000Y-74375000D01*
X112045138Y-74374032D01*
X111994959Y-74368212D01*
X111977812Y-74360641D01*
X111954329Y-74355970D01*
X111929186Y-74339170D01*
X111909303Y-74330391D01*
X111895722Y-74316810D01*
X111873223Y-74301777D01*
X111858189Y-74279277D01*
X111844608Y-74265696D01*
X111835827Y-74245810D01*
X111819030Y-74220671D01*
X111814359Y-74197189D01*
X111806787Y-74180040D01*
X111800964Y-74129849D01*
X111800000Y-74125000D01*
X111800000Y-72875000D01*
X111800964Y-72870150D01*
X111806787Y-72819959D01*
X111814359Y-72802808D01*
X111819030Y-72779329D01*
X111835826Y-72754191D01*
X111844608Y-72734303D01*
X111858191Y-72720719D01*
X111873223Y-72698223D01*
X111895719Y-72683191D01*
X111909303Y-72669608D01*
X111929191Y-72660826D01*
X111954329Y-72644030D01*
X111977808Y-72639359D01*
X111994959Y-72631787D01*
X112045151Y-72625964D01*
X112050000Y-72625000D01*
X112850000Y-72625000D01*
X112854850Y-72625964D01*
G37*
G36*
X115954850Y-72625964D02*
G01*
X116005040Y-72631787D01*
X116022189Y-72639359D01*
X116045671Y-72644030D01*
X116070810Y-72660827D01*
X116090696Y-72669608D01*
X116104277Y-72683189D01*
X116126777Y-72698223D01*
X116141810Y-72720722D01*
X116155391Y-72734303D01*
X116164170Y-72754186D01*
X116180970Y-72779329D01*
X116185641Y-72802812D01*
X116193212Y-72819959D01*
X116199033Y-72870139D01*
X116200000Y-72875000D01*
X116200000Y-74125000D01*
X116199032Y-74129863D01*
X116193212Y-74180040D01*
X116185641Y-74197185D01*
X116180970Y-74220671D01*
X116164169Y-74245815D01*
X116155391Y-74265696D01*
X116141812Y-74279274D01*
X116126777Y-74301777D01*
X116104274Y-74316812D01*
X116090696Y-74330391D01*
X116070815Y-74339169D01*
X116045671Y-74355970D01*
X116022185Y-74360641D01*
X116005040Y-74368212D01*
X115954861Y-74374032D01*
X115950000Y-74375000D01*
X115150000Y-74375000D01*
X115145138Y-74374032D01*
X115094959Y-74368212D01*
X115077812Y-74360641D01*
X115054329Y-74355970D01*
X115029186Y-74339170D01*
X115009303Y-74330391D01*
X114995722Y-74316810D01*
X114973223Y-74301777D01*
X114958189Y-74279277D01*
X114944608Y-74265696D01*
X114935827Y-74245810D01*
X114919030Y-74220671D01*
X114914359Y-74197189D01*
X114906787Y-74180040D01*
X114900964Y-74129849D01*
X114900000Y-74125000D01*
X114900000Y-72875000D01*
X114900964Y-72870150D01*
X114906787Y-72819959D01*
X114914359Y-72802808D01*
X114919030Y-72779329D01*
X114935826Y-72754191D01*
X114944608Y-72734303D01*
X114958191Y-72720719D01*
X114973223Y-72698223D01*
X114995719Y-72683191D01*
X115009303Y-72669608D01*
X115029191Y-72660826D01*
X115054329Y-72644030D01*
X115077808Y-72639359D01*
X115094959Y-72631787D01*
X115145151Y-72625964D01*
X115150000Y-72625000D01*
X115950000Y-72625000D01*
X115954850Y-72625964D01*
G37*
G36*
X51654850Y-72650964D02*
G01*
X51705040Y-72656787D01*
X51722189Y-72664359D01*
X51745671Y-72669030D01*
X51770810Y-72685827D01*
X51790696Y-72694608D01*
X51804277Y-72708189D01*
X51826777Y-72723223D01*
X51841810Y-72745722D01*
X51855391Y-72759303D01*
X51864170Y-72779186D01*
X51880970Y-72804329D01*
X51885641Y-72827812D01*
X51893212Y-72844959D01*
X51899033Y-72895139D01*
X51900000Y-72900000D01*
X51900000Y-74100000D01*
X51899032Y-74104863D01*
X51893212Y-74155040D01*
X51885641Y-74172185D01*
X51880970Y-74195671D01*
X51864169Y-74220815D01*
X51855391Y-74240696D01*
X51841812Y-74254274D01*
X51826777Y-74276777D01*
X51804274Y-74291812D01*
X51790696Y-74305391D01*
X51770815Y-74314169D01*
X51745671Y-74330970D01*
X51722185Y-74335641D01*
X51705040Y-74343212D01*
X51654861Y-74349032D01*
X51650000Y-74350000D01*
X50850000Y-74350000D01*
X50845138Y-74349032D01*
X50794959Y-74343212D01*
X50777812Y-74335641D01*
X50754329Y-74330970D01*
X50729186Y-74314170D01*
X50709303Y-74305391D01*
X50695722Y-74291810D01*
X50673223Y-74276777D01*
X50658189Y-74254277D01*
X50644608Y-74240696D01*
X50635827Y-74220810D01*
X50619030Y-74195671D01*
X50614359Y-74172189D01*
X50606787Y-74155040D01*
X50600964Y-74104849D01*
X50600000Y-74100000D01*
X50600000Y-72900000D01*
X50600964Y-72895150D01*
X50606787Y-72844959D01*
X50614359Y-72827808D01*
X50619030Y-72804329D01*
X50635826Y-72779191D01*
X50644608Y-72759303D01*
X50658191Y-72745719D01*
X50673223Y-72723223D01*
X50695719Y-72708191D01*
X50709303Y-72694608D01*
X50729191Y-72685826D01*
X50754329Y-72669030D01*
X50777808Y-72664359D01*
X50794959Y-72656787D01*
X50845151Y-72650964D01*
X50850000Y-72650000D01*
X51650000Y-72650000D01*
X51654850Y-72650964D01*
G37*
G36*
X55154850Y-72650964D02*
G01*
X55205040Y-72656787D01*
X55222189Y-72664359D01*
X55245671Y-72669030D01*
X55270810Y-72685827D01*
X55290696Y-72694608D01*
X55304277Y-72708189D01*
X55326777Y-72723223D01*
X55341810Y-72745722D01*
X55355391Y-72759303D01*
X55364170Y-72779186D01*
X55380970Y-72804329D01*
X55385641Y-72827812D01*
X55393212Y-72844959D01*
X55399033Y-72895139D01*
X55400000Y-72900000D01*
X55400000Y-74100000D01*
X55399032Y-74104863D01*
X55393212Y-74155040D01*
X55385641Y-74172185D01*
X55380970Y-74195671D01*
X55364169Y-74220815D01*
X55355391Y-74240696D01*
X55341812Y-74254274D01*
X55326777Y-74276777D01*
X55304274Y-74291812D01*
X55290696Y-74305391D01*
X55270815Y-74314169D01*
X55245671Y-74330970D01*
X55222185Y-74335641D01*
X55205040Y-74343212D01*
X55154861Y-74349032D01*
X55150000Y-74350000D01*
X54350000Y-74350000D01*
X54345138Y-74349032D01*
X54294959Y-74343212D01*
X54277812Y-74335641D01*
X54254329Y-74330970D01*
X54229186Y-74314170D01*
X54209303Y-74305391D01*
X54195722Y-74291810D01*
X54173223Y-74276777D01*
X54158189Y-74254277D01*
X54144608Y-74240696D01*
X54135827Y-74220810D01*
X54119030Y-74195671D01*
X54114359Y-74172189D01*
X54106787Y-74155040D01*
X54100964Y-74104849D01*
X54100000Y-74100000D01*
X54100000Y-72900000D01*
X54100964Y-72895150D01*
X54106787Y-72844959D01*
X54114359Y-72827808D01*
X54119030Y-72804329D01*
X54135826Y-72779191D01*
X54144608Y-72759303D01*
X54158191Y-72745719D01*
X54173223Y-72723223D01*
X54195719Y-72708191D01*
X54209303Y-72694608D01*
X54229191Y-72685826D01*
X54254329Y-72669030D01*
X54277808Y-72664359D01*
X54294959Y-72656787D01*
X54345151Y-72650964D01*
X54350000Y-72650000D01*
X55150000Y-72650000D01*
X55154850Y-72650964D01*
G37*
G36*
X84154850Y-72900964D02*
G01*
X84205040Y-72906787D01*
X84222189Y-72914359D01*
X84245671Y-72919030D01*
X84270810Y-72935827D01*
X84290696Y-72944608D01*
X84304277Y-72958189D01*
X84326777Y-72973223D01*
X84341810Y-72995722D01*
X84355391Y-73009303D01*
X84364170Y-73029186D01*
X84380970Y-73054329D01*
X84385641Y-73077812D01*
X84393212Y-73094959D01*
X84399033Y-73145139D01*
X84400000Y-73150000D01*
X84400000Y-73975000D01*
X84399032Y-73979863D01*
X84393212Y-74030040D01*
X84385641Y-74047185D01*
X84380970Y-74070671D01*
X84364169Y-74095815D01*
X84355391Y-74115696D01*
X84341812Y-74129274D01*
X84326777Y-74151777D01*
X84304274Y-74166812D01*
X84290696Y-74180391D01*
X84270815Y-74189169D01*
X84245671Y-74205970D01*
X84222185Y-74210641D01*
X84205040Y-74218212D01*
X84154861Y-74224032D01*
X84150000Y-74225000D01*
X82850000Y-74225000D01*
X82845138Y-74224032D01*
X82794959Y-74218212D01*
X82777812Y-74210641D01*
X82754329Y-74205970D01*
X82729186Y-74189170D01*
X82709303Y-74180391D01*
X82695722Y-74166810D01*
X82673223Y-74151777D01*
X82658189Y-74129277D01*
X82644608Y-74115696D01*
X82635827Y-74095810D01*
X82619030Y-74070671D01*
X82614359Y-74047189D01*
X82606787Y-74030040D01*
X82600964Y-73979849D01*
X82600000Y-73975000D01*
X82600000Y-73150000D01*
X82600964Y-73145150D01*
X82606787Y-73094959D01*
X82614359Y-73077808D01*
X82619030Y-73054329D01*
X82635826Y-73029191D01*
X82644608Y-73009303D01*
X82658191Y-72995719D01*
X82673223Y-72973223D01*
X82695719Y-72958191D01*
X82709303Y-72944608D01*
X82729191Y-72935826D01*
X82754329Y-72919030D01*
X82777808Y-72914359D01*
X82794959Y-72906787D01*
X82845151Y-72900964D01*
X82850000Y-72900000D01*
X84150000Y-72900000D01*
X84154850Y-72900964D01*
G37*
G36*
X86654850Y-72900964D02*
G01*
X86705040Y-72906787D01*
X86722189Y-72914359D01*
X86745671Y-72919030D01*
X86770810Y-72935827D01*
X86790696Y-72944608D01*
X86804277Y-72958189D01*
X86826777Y-72973223D01*
X86841810Y-72995722D01*
X86855391Y-73009303D01*
X86864170Y-73029186D01*
X86880970Y-73054329D01*
X86885641Y-73077812D01*
X86893212Y-73094959D01*
X86899033Y-73145139D01*
X86900000Y-73150000D01*
X86900000Y-73975000D01*
X86899032Y-73979863D01*
X86893212Y-74030040D01*
X86885641Y-74047185D01*
X86880970Y-74070671D01*
X86864169Y-74095815D01*
X86855391Y-74115696D01*
X86841812Y-74129274D01*
X86826777Y-74151777D01*
X86804274Y-74166812D01*
X86790696Y-74180391D01*
X86770815Y-74189169D01*
X86745671Y-74205970D01*
X86722185Y-74210641D01*
X86705040Y-74218212D01*
X86654861Y-74224032D01*
X86650000Y-74225000D01*
X85350000Y-74225000D01*
X85345138Y-74224032D01*
X85294959Y-74218212D01*
X85277812Y-74210641D01*
X85254329Y-74205970D01*
X85229186Y-74189170D01*
X85209303Y-74180391D01*
X85195722Y-74166810D01*
X85173223Y-74151777D01*
X85158189Y-74129277D01*
X85144608Y-74115696D01*
X85135827Y-74095810D01*
X85119030Y-74070671D01*
X85114359Y-74047189D01*
X85106787Y-74030040D01*
X85100964Y-73979849D01*
X85100000Y-73975000D01*
X85100000Y-73150000D01*
X85100964Y-73145150D01*
X85106787Y-73094959D01*
X85114359Y-73077808D01*
X85119030Y-73054329D01*
X85135826Y-73029191D01*
X85144608Y-73009303D01*
X85158191Y-72995719D01*
X85173223Y-72973223D01*
X85195719Y-72958191D01*
X85209303Y-72944608D01*
X85229191Y-72935826D01*
X85254329Y-72919030D01*
X85277808Y-72914359D01*
X85294959Y-72906787D01*
X85345151Y-72900964D01*
X85350000Y-72900000D01*
X86650000Y-72900000D01*
X86654850Y-72900964D01*
G37*
G36*
X68550000Y-73990000D02*
G01*
X67050000Y-73990000D01*
X67050000Y-72490000D01*
X68550000Y-72490000D01*
X68550000Y-73990000D01*
G37*
G36*
X119750000Y-73990000D02*
G01*
X118250000Y-73990000D01*
X118250000Y-72490000D01*
X119750000Y-72490000D01*
X119750000Y-73990000D01*
G37*
G36*
X70557714Y-72522295D02*
G01*
X70693548Y-72578559D01*
X70815795Y-72660242D01*
X70919758Y-72764205D01*
X71001441Y-72886452D01*
X71057705Y-73022286D01*
X71086389Y-73166487D01*
X71086389Y-73313513D01*
X71057705Y-73457714D01*
X71001441Y-73593548D01*
X70919758Y-73715795D01*
X70815795Y-73819758D01*
X70693548Y-73901441D01*
X70557714Y-73957705D01*
X70413513Y-73986389D01*
X70266487Y-73986389D01*
X70122286Y-73957705D01*
X69986452Y-73901441D01*
X69864205Y-73819758D01*
X69760242Y-73715795D01*
X69678559Y-73593548D01*
X69622295Y-73457714D01*
X69593611Y-73313513D01*
X69593611Y-73166487D01*
X69622295Y-73022286D01*
X69678559Y-72886452D01*
X69760242Y-72764205D01*
X69864205Y-72660242D01*
X69986452Y-72578559D01*
X70122286Y-72522295D01*
X70266487Y-72493611D01*
X70413513Y-72493611D01*
X70557714Y-72522295D01*
G37*
G36*
X73097714Y-72522295D02*
G01*
X73233548Y-72578559D01*
X73355795Y-72660242D01*
X73459758Y-72764205D01*
X73541441Y-72886452D01*
X73597705Y-73022286D01*
X73626389Y-73166487D01*
X73626389Y-73313513D01*
X73597705Y-73457714D01*
X73541441Y-73593548D01*
X73459758Y-73715795D01*
X73355795Y-73819758D01*
X73233548Y-73901441D01*
X73097714Y-73957705D01*
X72953513Y-73986389D01*
X72806487Y-73986389D01*
X72662286Y-73957705D01*
X72526452Y-73901441D01*
X72404205Y-73819758D01*
X72300242Y-73715795D01*
X72218559Y-73593548D01*
X72162295Y-73457714D01*
X72133611Y-73313513D01*
X72133611Y-73166487D01*
X72162295Y-73022286D01*
X72218559Y-72886452D01*
X72300242Y-72764205D01*
X72404205Y-72660242D01*
X72526452Y-72578559D01*
X72662286Y-72522295D01*
X72806487Y-72493611D01*
X72953513Y-72493611D01*
X73097714Y-72522295D01*
G37*
G36*
X75637714Y-72522295D02*
G01*
X75773548Y-72578559D01*
X75895795Y-72660242D01*
X75999758Y-72764205D01*
X76081441Y-72886452D01*
X76137705Y-73022286D01*
X76166389Y-73166487D01*
X76166389Y-73313513D01*
X76137705Y-73457714D01*
X76081441Y-73593548D01*
X75999758Y-73715795D01*
X75895795Y-73819758D01*
X75773548Y-73901441D01*
X75637714Y-73957705D01*
X75493513Y-73986389D01*
X75346487Y-73986389D01*
X75202286Y-73957705D01*
X75066452Y-73901441D01*
X74944205Y-73819758D01*
X74840242Y-73715795D01*
X74758559Y-73593548D01*
X74702295Y-73457714D01*
X74673611Y-73313513D01*
X74673611Y-73166487D01*
X74702295Y-73022286D01*
X74758559Y-72886452D01*
X74840242Y-72764205D01*
X74944205Y-72660242D01*
X75066452Y-72578559D01*
X75202286Y-72522295D01*
X75346487Y-72493611D01*
X75493513Y-72493611D01*
X75637714Y-72522295D01*
G37*
G36*
X78177714Y-72522295D02*
G01*
X78313548Y-72578559D01*
X78435795Y-72660242D01*
X78539758Y-72764205D01*
X78621441Y-72886452D01*
X78677705Y-73022286D01*
X78706389Y-73166487D01*
X78706389Y-73313513D01*
X78677705Y-73457714D01*
X78621441Y-73593548D01*
X78539758Y-73715795D01*
X78435795Y-73819758D01*
X78313548Y-73901441D01*
X78177714Y-73957705D01*
X78033513Y-73986389D01*
X77886487Y-73986389D01*
X77742286Y-73957705D01*
X77606452Y-73901441D01*
X77484205Y-73819758D01*
X77380242Y-73715795D01*
X77298559Y-73593548D01*
X77242295Y-73457714D01*
X77213611Y-73313513D01*
X77213611Y-73166487D01*
X77242295Y-73022286D01*
X77298559Y-72886452D01*
X77380242Y-72764205D01*
X77484205Y-72660242D01*
X77606452Y-72578559D01*
X77742286Y-72522295D01*
X77886487Y-72493611D01*
X78033513Y-72493611D01*
X78177714Y-72522295D01*
G37*
G36*
X80717714Y-72522295D02*
G01*
X80853548Y-72578559D01*
X80975795Y-72660242D01*
X81079758Y-72764205D01*
X81161441Y-72886452D01*
X81217705Y-73022286D01*
X81246389Y-73166487D01*
X81246389Y-73313513D01*
X81217705Y-73457714D01*
X81161441Y-73593548D01*
X81079758Y-73715795D01*
X80975795Y-73819758D01*
X80853548Y-73901441D01*
X80717714Y-73957705D01*
X80573513Y-73986389D01*
X80426487Y-73986389D01*
X80282286Y-73957705D01*
X80146452Y-73901441D01*
X80024205Y-73819758D01*
X79920242Y-73715795D01*
X79838559Y-73593548D01*
X79782295Y-73457714D01*
X79753611Y-73313513D01*
X79753611Y-73166487D01*
X79782295Y-73022286D01*
X79838559Y-72886452D01*
X79920242Y-72764205D01*
X80024205Y-72660242D01*
X80146452Y-72578559D01*
X80282286Y-72522295D01*
X80426487Y-72493611D01*
X80573513Y-72493611D01*
X80717714Y-72522295D01*
G37*
G36*
X121757714Y-72522295D02*
G01*
X121893548Y-72578559D01*
X122015795Y-72660242D01*
X122119758Y-72764205D01*
X122201441Y-72886452D01*
X122257705Y-73022286D01*
X122286389Y-73166487D01*
X122286389Y-73313513D01*
X122257705Y-73457714D01*
X122201441Y-73593548D01*
X122119758Y-73715795D01*
X122015795Y-73819758D01*
X121893548Y-73901441D01*
X121757714Y-73957705D01*
X121613513Y-73986389D01*
X121466487Y-73986389D01*
X121322286Y-73957705D01*
X121186452Y-73901441D01*
X121064205Y-73819758D01*
X120960242Y-73715795D01*
X120878559Y-73593548D01*
X120822295Y-73457714D01*
X120793611Y-73313513D01*
X120793611Y-73166487D01*
X120822295Y-73022286D01*
X120878559Y-72886452D01*
X120960242Y-72764205D01*
X121064205Y-72660242D01*
X121186452Y-72578559D01*
X121322286Y-72522295D01*
X121466487Y-72493611D01*
X121613513Y-72493611D01*
X121757714Y-72522295D01*
G37*
G36*
X124297714Y-72522295D02*
G01*
X124433548Y-72578559D01*
X124555795Y-72660242D01*
X124659758Y-72764205D01*
X124741441Y-72886452D01*
X124797705Y-73022286D01*
X124826389Y-73166487D01*
X124826389Y-73313513D01*
X124797705Y-73457714D01*
X124741441Y-73593548D01*
X124659758Y-73715795D01*
X124555795Y-73819758D01*
X124433548Y-73901441D01*
X124297714Y-73957705D01*
X124153513Y-73986389D01*
X124006487Y-73986389D01*
X123862286Y-73957705D01*
X123726452Y-73901441D01*
X123604205Y-73819758D01*
X123500242Y-73715795D01*
X123418559Y-73593548D01*
X123362295Y-73457714D01*
X123333611Y-73313513D01*
X123333611Y-73166487D01*
X123362295Y-73022286D01*
X123418559Y-72886452D01*
X123500242Y-72764205D01*
X123604205Y-72660242D01*
X123726452Y-72578559D01*
X123862286Y-72522295D01*
X124006487Y-72493611D01*
X124153513Y-72493611D01*
X124297714Y-72522295D01*
G37*
G36*
X126837714Y-72522295D02*
G01*
X126973548Y-72578559D01*
X127095795Y-72660242D01*
X127199758Y-72764205D01*
X127281441Y-72886452D01*
X127337705Y-73022286D01*
X127366389Y-73166487D01*
X127366389Y-73313513D01*
X127337705Y-73457714D01*
X127281441Y-73593548D01*
X127199758Y-73715795D01*
X127095795Y-73819758D01*
X126973548Y-73901441D01*
X126837714Y-73957705D01*
X126693513Y-73986389D01*
X126546487Y-73986389D01*
X126402286Y-73957705D01*
X126266452Y-73901441D01*
X126144205Y-73819758D01*
X126040242Y-73715795D01*
X125958559Y-73593548D01*
X125902295Y-73457714D01*
X125873611Y-73313513D01*
X125873611Y-73166487D01*
X125902295Y-73022286D01*
X125958559Y-72886452D01*
X126040242Y-72764205D01*
X126144205Y-72660242D01*
X126266452Y-72578559D01*
X126402286Y-72522295D01*
X126546487Y-72493611D01*
X126693513Y-72493611D01*
X126837714Y-72522295D01*
G37*
G36*
X129377714Y-72522295D02*
G01*
X129513548Y-72578559D01*
X129635795Y-72660242D01*
X129739758Y-72764205D01*
X129821441Y-72886452D01*
X129877705Y-73022286D01*
X129906389Y-73166487D01*
X129906389Y-73313513D01*
X129877705Y-73457714D01*
X129821441Y-73593548D01*
X129739758Y-73715795D01*
X129635795Y-73819758D01*
X129513548Y-73901441D01*
X129377714Y-73957705D01*
X129233513Y-73986389D01*
X129086487Y-73986389D01*
X128942286Y-73957705D01*
X128806452Y-73901441D01*
X128684205Y-73819758D01*
X128580242Y-73715795D01*
X128498559Y-73593548D01*
X128442295Y-73457714D01*
X128413611Y-73313513D01*
X128413611Y-73166487D01*
X128442295Y-73022286D01*
X128498559Y-72886452D01*
X128580242Y-72764205D01*
X128684205Y-72660242D01*
X128806452Y-72578559D01*
X128942286Y-72522295D01*
X129086487Y-72493611D01*
X129233513Y-72493611D01*
X129377714Y-72522295D01*
G37*
G36*
X131917714Y-72522295D02*
G01*
X132053548Y-72578559D01*
X132175795Y-72660242D01*
X132279758Y-72764205D01*
X132361441Y-72886452D01*
X132417705Y-73022286D01*
X132446389Y-73166487D01*
X132446389Y-73313513D01*
X132417705Y-73457714D01*
X132361441Y-73593548D01*
X132279758Y-73715795D01*
X132175795Y-73819758D01*
X132053548Y-73901441D01*
X131917714Y-73957705D01*
X131773513Y-73986389D01*
X131626487Y-73986389D01*
X131482286Y-73957705D01*
X131346452Y-73901441D01*
X131224205Y-73819758D01*
X131120242Y-73715795D01*
X131038559Y-73593548D01*
X130982295Y-73457714D01*
X130953611Y-73313513D01*
X130953611Y-73166487D01*
X130982295Y-73022286D01*
X131038559Y-72886452D01*
X131120242Y-72764205D01*
X131224205Y-72660242D01*
X131346452Y-72578559D01*
X131482286Y-72522295D01*
X131626487Y-72493611D01*
X131773513Y-72493611D01*
X131917714Y-72522295D01*
G37*
G36*
X57854850Y-72100964D02*
G01*
X57905040Y-72106787D01*
X57922189Y-72114359D01*
X57945671Y-72119030D01*
X57970810Y-72135827D01*
X57990696Y-72144608D01*
X58004277Y-72158189D01*
X58026777Y-72173223D01*
X58041810Y-72195722D01*
X58055391Y-72209303D01*
X58064170Y-72229186D01*
X58080970Y-72254329D01*
X58085641Y-72277812D01*
X58093212Y-72294959D01*
X58099033Y-72345139D01*
X58100000Y-72350000D01*
X58100000Y-73650000D01*
X58099032Y-73654863D01*
X58093212Y-73705040D01*
X58085641Y-73722185D01*
X58080970Y-73745671D01*
X58064169Y-73770815D01*
X58055391Y-73790696D01*
X58041812Y-73804274D01*
X58026777Y-73826777D01*
X58004274Y-73841812D01*
X57990696Y-73855391D01*
X57970815Y-73864169D01*
X57945671Y-73880970D01*
X57922185Y-73885641D01*
X57905040Y-73893212D01*
X57854861Y-73899032D01*
X57850000Y-73900000D01*
X57025000Y-73900000D01*
X57020138Y-73899032D01*
X56969959Y-73893212D01*
X56952812Y-73885641D01*
X56929329Y-73880970D01*
X56904186Y-73864170D01*
X56884303Y-73855391D01*
X56870722Y-73841810D01*
X56848223Y-73826777D01*
X56833189Y-73804277D01*
X56819608Y-73790696D01*
X56810827Y-73770810D01*
X56794030Y-73745671D01*
X56789359Y-73722189D01*
X56781787Y-73705040D01*
X56775964Y-73654849D01*
X56775000Y-73650000D01*
X56775000Y-72350000D01*
X56775964Y-72345150D01*
X56781787Y-72294959D01*
X56789359Y-72277808D01*
X56794030Y-72254329D01*
X56810826Y-72229191D01*
X56819608Y-72209303D01*
X56833191Y-72195719D01*
X56848223Y-72173223D01*
X56870719Y-72158191D01*
X56884303Y-72144608D01*
X56904191Y-72135826D01*
X56929329Y-72119030D01*
X56952808Y-72114359D01*
X56969959Y-72106787D01*
X57020151Y-72100964D01*
X57025000Y-72100000D01*
X57850000Y-72100000D01*
X57854850Y-72100964D01*
G37*
G36*
X60979850Y-72100964D02*
G01*
X61030040Y-72106787D01*
X61047189Y-72114359D01*
X61070671Y-72119030D01*
X61095810Y-72135827D01*
X61115696Y-72144608D01*
X61129277Y-72158189D01*
X61151777Y-72173223D01*
X61166810Y-72195722D01*
X61180391Y-72209303D01*
X61189170Y-72229186D01*
X61205970Y-72254329D01*
X61210641Y-72277812D01*
X61218212Y-72294959D01*
X61224033Y-72345139D01*
X61225000Y-72350000D01*
X61225000Y-73650000D01*
X61224032Y-73654863D01*
X61218212Y-73705040D01*
X61210641Y-73722185D01*
X61205970Y-73745671D01*
X61189169Y-73770815D01*
X61180391Y-73790696D01*
X61166812Y-73804274D01*
X61151777Y-73826777D01*
X61129274Y-73841812D01*
X61115696Y-73855391D01*
X61095815Y-73864169D01*
X61070671Y-73880970D01*
X61047185Y-73885641D01*
X61030040Y-73893212D01*
X60979861Y-73899032D01*
X60975000Y-73900000D01*
X60150000Y-73900000D01*
X60145138Y-73899032D01*
X60094959Y-73893212D01*
X60077812Y-73885641D01*
X60054329Y-73880970D01*
X60029186Y-73864170D01*
X60009303Y-73855391D01*
X59995722Y-73841810D01*
X59973223Y-73826777D01*
X59958189Y-73804277D01*
X59944608Y-73790696D01*
X59935827Y-73770810D01*
X59919030Y-73745671D01*
X59914359Y-73722189D01*
X59906787Y-73705040D01*
X59900964Y-73654849D01*
X59900000Y-73650000D01*
X59900000Y-72350000D01*
X59900964Y-72345150D01*
X59906787Y-72294959D01*
X59914359Y-72277808D01*
X59919030Y-72254329D01*
X59935826Y-72229191D01*
X59944608Y-72209303D01*
X59958191Y-72195719D01*
X59973223Y-72173223D01*
X59995719Y-72158191D01*
X60009303Y-72144608D01*
X60029191Y-72135826D01*
X60054329Y-72119030D01*
X60077808Y-72114359D01*
X60094959Y-72106787D01*
X60145151Y-72100964D01*
X60150000Y-72100000D01*
X60975000Y-72100000D01*
X60979850Y-72100964D01*
G37*
G36*
X140907403Y-73116418D02*
G01*
X140956066Y-73148934D01*
X140988582Y-73197597D01*
X141000000Y-73255000D01*
X141000000Y-73555000D01*
X140988582Y-73612403D01*
X140956066Y-73661066D01*
X140907403Y-73693582D01*
X140850000Y-73705000D01*
X139200000Y-73705000D01*
X139142597Y-73693582D01*
X139093934Y-73661066D01*
X139061418Y-73612403D01*
X139050000Y-73555000D01*
X139050000Y-73255000D01*
X139061418Y-73197597D01*
X139093934Y-73148934D01*
X139142597Y-73116418D01*
X139200000Y-73105000D01*
X140850000Y-73105000D01*
X140907403Y-73116418D01*
G37*
G36*
X145857403Y-73116418D02*
G01*
X145906066Y-73148934D01*
X145938582Y-73197597D01*
X145950000Y-73255000D01*
X145950000Y-73555000D01*
X145938582Y-73612403D01*
X145906066Y-73661066D01*
X145857403Y-73693582D01*
X145800000Y-73705000D01*
X144150000Y-73705000D01*
X144092597Y-73693582D01*
X144043934Y-73661066D01*
X144011418Y-73612403D01*
X144000000Y-73555000D01*
X144000000Y-73255000D01*
X144011418Y-73197597D01*
X144043934Y-73148934D01*
X144092597Y-73116418D01*
X144150000Y-73105000D01*
X145800000Y-73105000D01*
X145857403Y-73116418D01*
G37*
G36*
X47965000Y-73500000D02*
G01*
X46805000Y-73500000D01*
X46805000Y-72900000D01*
X47965000Y-72900000D01*
X47965000Y-73500000D01*
G37*
G36*
X96000000Y-73400000D02*
G01*
X95000000Y-73400000D01*
X95000000Y-71600000D01*
X96000000Y-71600000D01*
X96000000Y-73400000D01*
G37*
G36*
X98000000Y-73400000D02*
G01*
X97000000Y-73400000D01*
X97000000Y-71600000D01*
X98000000Y-71600000D01*
X98000000Y-73400000D01*
G37*
G36*
X100000000Y-73400000D02*
G01*
X99000000Y-73400000D01*
X99000000Y-71600000D01*
X100000000Y-71600000D01*
X100000000Y-73400000D01*
G37*
G36*
X102000000Y-73400000D02*
G01*
X101000000Y-73400000D01*
X101000000Y-71600000D01*
X102000000Y-71600000D01*
X102000000Y-73400000D01*
G37*
G36*
X104000000Y-73400000D02*
G01*
X103000000Y-73400000D01*
X103000000Y-71600000D01*
X104000000Y-71600000D01*
X104000000Y-73400000D01*
G37*
G36*
X106000000Y-73400000D02*
G01*
X105000000Y-73400000D01*
X105000000Y-71600000D01*
X106000000Y-71600000D01*
X106000000Y-73400000D01*
G37*
G36*
X46439805Y-72612836D02*
G01*
X46507628Y-72651994D01*
X46563006Y-72707372D01*
X46602164Y-72775195D01*
X46622433Y-72850842D01*
X46622433Y-72929158D01*
X46602164Y-73004805D01*
X46563006Y-73072628D01*
X46507628Y-73128006D01*
X46439805Y-73167164D01*
X46364158Y-73187433D01*
X46285842Y-73187433D01*
X46210195Y-73167164D01*
X46142372Y-73128006D01*
X46086994Y-73072628D01*
X46047836Y-73004805D01*
X46027567Y-72929158D01*
X46027567Y-72850842D01*
X46047836Y-72775195D01*
X46086994Y-72707372D01*
X46142372Y-72651994D01*
X46210195Y-72612836D01*
X46285842Y-72592567D01*
X46364158Y-72592567D01*
X46439805Y-72612836D01*
G37*
G36*
X47965000Y-72700000D02*
G01*
X46805000Y-72700000D01*
X46805000Y-72100000D01*
X47965000Y-72100000D01*
X47965000Y-72700000D01*
G37*
G36*
X140907403Y-71846418D02*
G01*
X140956066Y-71878934D01*
X140988582Y-71927597D01*
X141000000Y-71985000D01*
X141000000Y-72285000D01*
X140988582Y-72342403D01*
X140956066Y-72391066D01*
X140907403Y-72423582D01*
X140850000Y-72435000D01*
X139200000Y-72435000D01*
X139142597Y-72423582D01*
X139093934Y-72391066D01*
X139061418Y-72342403D01*
X139050000Y-72285000D01*
X139050000Y-71985000D01*
X139061418Y-71927597D01*
X139093934Y-71878934D01*
X139142597Y-71846418D01*
X139200000Y-71835000D01*
X140850000Y-71835000D01*
X140907403Y-71846418D01*
G37*
G36*
X145857403Y-71846418D02*
G01*
X145906066Y-71878934D01*
X145938582Y-71927597D01*
X145950000Y-71985000D01*
X145950000Y-72285000D01*
X145938582Y-72342403D01*
X145906066Y-72391066D01*
X145857403Y-72423582D01*
X145800000Y-72435000D01*
X144150000Y-72435000D01*
X144092597Y-72423582D01*
X144043934Y-72391066D01*
X144011418Y-72342403D01*
X144000000Y-72285000D01*
X144000000Y-71985000D01*
X144011418Y-71927597D01*
X144043934Y-71878934D01*
X144092597Y-71846418D01*
X144150000Y-71835000D01*
X145800000Y-71835000D01*
X145857403Y-71846418D01*
G37*
G36*
X149154850Y-70900964D02*
G01*
X149205040Y-70906787D01*
X149222189Y-70914359D01*
X149245671Y-70919030D01*
X149270810Y-70935827D01*
X149290696Y-70944608D01*
X149304277Y-70958189D01*
X149326777Y-70973223D01*
X149341810Y-70995722D01*
X149355391Y-71009303D01*
X149364170Y-71029186D01*
X149380970Y-71054329D01*
X149385641Y-71077812D01*
X149393212Y-71094959D01*
X149399033Y-71145139D01*
X149400000Y-71150000D01*
X149400000Y-71975000D01*
X149399032Y-71979863D01*
X149393212Y-72030040D01*
X149385641Y-72047185D01*
X149380970Y-72070671D01*
X149364169Y-72095815D01*
X149355391Y-72115696D01*
X149341812Y-72129274D01*
X149326777Y-72151777D01*
X149304274Y-72166812D01*
X149290696Y-72180391D01*
X149270815Y-72189169D01*
X149245671Y-72205970D01*
X149222185Y-72210641D01*
X149205040Y-72218212D01*
X149154861Y-72224032D01*
X149150000Y-72225000D01*
X147850000Y-72225000D01*
X147845138Y-72224032D01*
X147794959Y-72218212D01*
X147777812Y-72210641D01*
X147754329Y-72205970D01*
X147729186Y-72189170D01*
X147709303Y-72180391D01*
X147695722Y-72166810D01*
X147673223Y-72151777D01*
X147658189Y-72129277D01*
X147644608Y-72115696D01*
X147635827Y-72095810D01*
X147619030Y-72070671D01*
X147614359Y-72047189D01*
X147606787Y-72030040D01*
X147600964Y-71979849D01*
X147600000Y-71975000D01*
X147600000Y-71150000D01*
X147600964Y-71145150D01*
X147606787Y-71094959D01*
X147614359Y-71077808D01*
X147619030Y-71054329D01*
X147635826Y-71029191D01*
X147644608Y-71009303D01*
X147658191Y-70995719D01*
X147673223Y-70973223D01*
X147695719Y-70958191D01*
X147709303Y-70944608D01*
X147729191Y-70935826D01*
X147754329Y-70919030D01*
X147777808Y-70914359D01*
X147794959Y-70906787D01*
X147845151Y-70900964D01*
X147850000Y-70900000D01*
X149150000Y-70900000D01*
X149154850Y-70900964D01*
G37*
G36*
X47965000Y-71900000D02*
G01*
X46805000Y-71900000D01*
X46805000Y-71600000D01*
X47965000Y-71600000D01*
X47965000Y-71900000D01*
G37*
G36*
X78354850Y-70100964D02*
G01*
X78405040Y-70106787D01*
X78422189Y-70114359D01*
X78445671Y-70119030D01*
X78470810Y-70135827D01*
X78490696Y-70144608D01*
X78504277Y-70158189D01*
X78526777Y-70173223D01*
X78541810Y-70195722D01*
X78555391Y-70209303D01*
X78564170Y-70229186D01*
X78580970Y-70254329D01*
X78585641Y-70277812D01*
X78593212Y-70294959D01*
X78599033Y-70345139D01*
X78600000Y-70350000D01*
X78600000Y-71650000D01*
X78599032Y-71654863D01*
X78593212Y-71705040D01*
X78585641Y-71722185D01*
X78580970Y-71745671D01*
X78564169Y-71770815D01*
X78555391Y-71790696D01*
X78541812Y-71804274D01*
X78526777Y-71826777D01*
X78504274Y-71841812D01*
X78490696Y-71855391D01*
X78470815Y-71864169D01*
X78445671Y-71880970D01*
X78422185Y-71885641D01*
X78405040Y-71893212D01*
X78354861Y-71899032D01*
X78350000Y-71900000D01*
X77525000Y-71900000D01*
X77520138Y-71899032D01*
X77469959Y-71893212D01*
X77452812Y-71885641D01*
X77429329Y-71880970D01*
X77404186Y-71864170D01*
X77384303Y-71855391D01*
X77370722Y-71841810D01*
X77348223Y-71826777D01*
X77333189Y-71804277D01*
X77319608Y-71790696D01*
X77310827Y-71770810D01*
X77294030Y-71745671D01*
X77289359Y-71722189D01*
X77281787Y-71705040D01*
X77275964Y-71654849D01*
X77275000Y-71650000D01*
X77275000Y-70350000D01*
X77275964Y-70345150D01*
X77281787Y-70294959D01*
X77289359Y-70277808D01*
X77294030Y-70254329D01*
X77310826Y-70229191D01*
X77319608Y-70209303D01*
X77333191Y-70195719D01*
X77348223Y-70173223D01*
X77370719Y-70158191D01*
X77384303Y-70144608D01*
X77404191Y-70135826D01*
X77429329Y-70119030D01*
X77452808Y-70114359D01*
X77469959Y-70106787D01*
X77520151Y-70100964D01*
X77525000Y-70100000D01*
X78350000Y-70100000D01*
X78354850Y-70100964D01*
G37*
G36*
X81479850Y-70100964D02*
G01*
X81530040Y-70106787D01*
X81547189Y-70114359D01*
X81570671Y-70119030D01*
X81595810Y-70135827D01*
X81615696Y-70144608D01*
X81629277Y-70158189D01*
X81651777Y-70173223D01*
X81666810Y-70195722D01*
X81680391Y-70209303D01*
X81689170Y-70229186D01*
X81705970Y-70254329D01*
X81710641Y-70277812D01*
X81718212Y-70294959D01*
X81724033Y-70345139D01*
X81725000Y-70350000D01*
X81725000Y-71650000D01*
X81724032Y-71654863D01*
X81718212Y-71705040D01*
X81710641Y-71722185D01*
X81705970Y-71745671D01*
X81689169Y-71770815D01*
X81680391Y-71790696D01*
X81666812Y-71804274D01*
X81651777Y-71826777D01*
X81629274Y-71841812D01*
X81615696Y-71855391D01*
X81595815Y-71864169D01*
X81570671Y-71880970D01*
X81547185Y-71885641D01*
X81530040Y-71893212D01*
X81479861Y-71899032D01*
X81475000Y-71900000D01*
X80650000Y-71900000D01*
X80645138Y-71899032D01*
X80594959Y-71893212D01*
X80577812Y-71885641D01*
X80554329Y-71880970D01*
X80529186Y-71864170D01*
X80509303Y-71855391D01*
X80495722Y-71841810D01*
X80473223Y-71826777D01*
X80458189Y-71804277D01*
X80444608Y-71790696D01*
X80435827Y-71770810D01*
X80419030Y-71745671D01*
X80414359Y-71722189D01*
X80406787Y-71705040D01*
X80400964Y-71654849D01*
X80400000Y-71650000D01*
X80400000Y-70350000D01*
X80400964Y-70345150D01*
X80406787Y-70294959D01*
X80414359Y-70277808D01*
X80419030Y-70254329D01*
X80435826Y-70229191D01*
X80444608Y-70209303D01*
X80458191Y-70195719D01*
X80473223Y-70173223D01*
X80495719Y-70158191D01*
X80509303Y-70144608D01*
X80529191Y-70135826D01*
X80554329Y-70119030D01*
X80577808Y-70114359D01*
X80594959Y-70106787D01*
X80645151Y-70100964D01*
X80650000Y-70100000D01*
X81475000Y-70100000D01*
X81479850Y-70100964D01*
G37*
G36*
X51854850Y-70125964D02*
G01*
X51905040Y-70131787D01*
X51922189Y-70139359D01*
X51945671Y-70144030D01*
X51970810Y-70160827D01*
X51990696Y-70169608D01*
X52004277Y-70183189D01*
X52026777Y-70198223D01*
X52041810Y-70220722D01*
X52055391Y-70234303D01*
X52064170Y-70254186D01*
X52080970Y-70279329D01*
X52085641Y-70302812D01*
X52093212Y-70319959D01*
X52099033Y-70370139D01*
X52100000Y-70375000D01*
X52100000Y-71625000D01*
X52099032Y-71629863D01*
X52093212Y-71680040D01*
X52085641Y-71697185D01*
X52080970Y-71720671D01*
X52064169Y-71745815D01*
X52055391Y-71765696D01*
X52041812Y-71779274D01*
X52026777Y-71801777D01*
X52004274Y-71816812D01*
X51990696Y-71830391D01*
X51970815Y-71839169D01*
X51945671Y-71855970D01*
X51922185Y-71860641D01*
X51905040Y-71868212D01*
X51854861Y-71874032D01*
X51850000Y-71875000D01*
X51050000Y-71875000D01*
X51045138Y-71874032D01*
X50994959Y-71868212D01*
X50977812Y-71860641D01*
X50954329Y-71855970D01*
X50929186Y-71839170D01*
X50909303Y-71830391D01*
X50895722Y-71816810D01*
X50873223Y-71801777D01*
X50858189Y-71779277D01*
X50844608Y-71765696D01*
X50835827Y-71745810D01*
X50819030Y-71720671D01*
X50814359Y-71697189D01*
X50806787Y-71680040D01*
X50800964Y-71629849D01*
X50800000Y-71625000D01*
X50800000Y-70375000D01*
X50800964Y-70370150D01*
X50806787Y-70319959D01*
X50814359Y-70302808D01*
X50819030Y-70279329D01*
X50835826Y-70254191D01*
X50844608Y-70234303D01*
X50858191Y-70220719D01*
X50873223Y-70198223D01*
X50895719Y-70183191D01*
X50909303Y-70169608D01*
X50929191Y-70160826D01*
X50954329Y-70144030D01*
X50977808Y-70139359D01*
X50994959Y-70131787D01*
X51045151Y-70125964D01*
X51050000Y-70125000D01*
X51850000Y-70125000D01*
X51854850Y-70125964D01*
G37*
G36*
X54954850Y-70125964D02*
G01*
X55005040Y-70131787D01*
X55022189Y-70139359D01*
X55045671Y-70144030D01*
X55070810Y-70160827D01*
X55090696Y-70169608D01*
X55104277Y-70183189D01*
X55126777Y-70198223D01*
X55141810Y-70220722D01*
X55155391Y-70234303D01*
X55164170Y-70254186D01*
X55180970Y-70279329D01*
X55185641Y-70302812D01*
X55193212Y-70319959D01*
X55199033Y-70370139D01*
X55200000Y-70375000D01*
X55200000Y-71625000D01*
X55199032Y-71629863D01*
X55193212Y-71680040D01*
X55185641Y-71697185D01*
X55180970Y-71720671D01*
X55164169Y-71745815D01*
X55155391Y-71765696D01*
X55141812Y-71779274D01*
X55126777Y-71801777D01*
X55104274Y-71816812D01*
X55090696Y-71830391D01*
X55070815Y-71839169D01*
X55045671Y-71855970D01*
X55022185Y-71860641D01*
X55005040Y-71868212D01*
X54954861Y-71874032D01*
X54950000Y-71875000D01*
X54150000Y-71875000D01*
X54145138Y-71874032D01*
X54094959Y-71868212D01*
X54077812Y-71860641D01*
X54054329Y-71855970D01*
X54029186Y-71839170D01*
X54009303Y-71830391D01*
X53995722Y-71816810D01*
X53973223Y-71801777D01*
X53958189Y-71779277D01*
X53944608Y-71765696D01*
X53935827Y-71745810D01*
X53919030Y-71720671D01*
X53914359Y-71697189D01*
X53906787Y-71680040D01*
X53900964Y-71629849D01*
X53900000Y-71625000D01*
X53900000Y-70375000D01*
X53900964Y-70370150D01*
X53906787Y-70319959D01*
X53914359Y-70302808D01*
X53919030Y-70279329D01*
X53935826Y-70254191D01*
X53944608Y-70234303D01*
X53958191Y-70220719D01*
X53973223Y-70198223D01*
X53995719Y-70183191D01*
X54009303Y-70169608D01*
X54029191Y-70160826D01*
X54054329Y-70144030D01*
X54077808Y-70139359D01*
X54094959Y-70131787D01*
X54145151Y-70125964D01*
X54150000Y-70125000D01*
X54950000Y-70125000D01*
X54954850Y-70125964D01*
G37*
G36*
X89629850Y-70300964D02*
G01*
X89680040Y-70306787D01*
X89697189Y-70314359D01*
X89720671Y-70319030D01*
X89745810Y-70335827D01*
X89765696Y-70344608D01*
X89779277Y-70358189D01*
X89801777Y-70373223D01*
X89816810Y-70395722D01*
X89830391Y-70409303D01*
X89839170Y-70429186D01*
X89855970Y-70454329D01*
X89860641Y-70477812D01*
X89868212Y-70494959D01*
X89874033Y-70545139D01*
X89875000Y-70550000D01*
X89875000Y-71350000D01*
X89874032Y-71354863D01*
X89868212Y-71405040D01*
X89860641Y-71422185D01*
X89855970Y-71445671D01*
X89839169Y-71470815D01*
X89830391Y-71490696D01*
X89816812Y-71504274D01*
X89801777Y-71526777D01*
X89779274Y-71541812D01*
X89765696Y-71555391D01*
X89745815Y-71564169D01*
X89720671Y-71580970D01*
X89697185Y-71585641D01*
X89680040Y-71593212D01*
X89629861Y-71599032D01*
X89625000Y-71600000D01*
X88375000Y-71600000D01*
X88370138Y-71599032D01*
X88319959Y-71593212D01*
X88302812Y-71585641D01*
X88279329Y-71580970D01*
X88254186Y-71564170D01*
X88234303Y-71555391D01*
X88220722Y-71541810D01*
X88198223Y-71526777D01*
X88183189Y-71504277D01*
X88169608Y-71490696D01*
X88160827Y-71470810D01*
X88144030Y-71445671D01*
X88139359Y-71422189D01*
X88131787Y-71405040D01*
X88125964Y-71354849D01*
X88125000Y-71350000D01*
X88125000Y-70550000D01*
X88125964Y-70545150D01*
X88131787Y-70494959D01*
X88139359Y-70477808D01*
X88144030Y-70454329D01*
X88160826Y-70429191D01*
X88169608Y-70409303D01*
X88183191Y-70395719D01*
X88198223Y-70373223D01*
X88220719Y-70358191D01*
X88234303Y-70344608D01*
X88254191Y-70335826D01*
X88279329Y-70319030D01*
X88302808Y-70314359D01*
X88319959Y-70306787D01*
X88370151Y-70300964D01*
X88375000Y-70300000D01*
X89625000Y-70300000D01*
X89629850Y-70300964D01*
G37*
G36*
X94150000Y-71500000D02*
G01*
X91650000Y-71500000D01*
X91650000Y-70500000D01*
X94150000Y-70500000D01*
X94150000Y-71500000D01*
G37*
G36*
X109350000Y-71500000D02*
G01*
X106850000Y-71500000D01*
X106850000Y-70500000D01*
X109350000Y-70500000D01*
X109350000Y-71500000D01*
G37*
G36*
X47965000Y-71400000D02*
G01*
X46805000Y-71400000D01*
X46805000Y-71100000D01*
X47965000Y-71100000D01*
X47965000Y-71400000D01*
G37*
G36*
X121722403Y-69136418D02*
G01*
X121771066Y-69168934D01*
X121803582Y-69217597D01*
X121815000Y-69275000D01*
X121815000Y-71025000D01*
X121803582Y-71082403D01*
X121771066Y-71131066D01*
X121722403Y-71163582D01*
X121665000Y-71175000D01*
X121365000Y-71175000D01*
X121307597Y-71163582D01*
X121258934Y-71131066D01*
X121226418Y-71082403D01*
X121215000Y-71025000D01*
X121215000Y-69275000D01*
X121226418Y-69217597D01*
X121258934Y-69168934D01*
X121307597Y-69136418D01*
X121365000Y-69125000D01*
X121665000Y-69125000D01*
X121722403Y-69136418D01*
G37*
G36*
X122992403Y-69136418D02*
G01*
X123041066Y-69168934D01*
X123073582Y-69217597D01*
X123085000Y-69275000D01*
X123085000Y-71025000D01*
X123073582Y-71082403D01*
X123041066Y-71131066D01*
X122992403Y-71163582D01*
X122935000Y-71175000D01*
X122635000Y-71175000D01*
X122577597Y-71163582D01*
X122528934Y-71131066D01*
X122496418Y-71082403D01*
X122485000Y-71025000D01*
X122485000Y-69275000D01*
X122496418Y-69217597D01*
X122528934Y-69168934D01*
X122577597Y-69136418D01*
X122635000Y-69125000D01*
X122935000Y-69125000D01*
X122992403Y-69136418D01*
G37*
G36*
X124262403Y-69136418D02*
G01*
X124311066Y-69168934D01*
X124343582Y-69217597D01*
X124355000Y-69275000D01*
X124355000Y-71025000D01*
X124343582Y-71082403D01*
X124311066Y-71131066D01*
X124262403Y-71163582D01*
X124205000Y-71175000D01*
X123905000Y-71175000D01*
X123847597Y-71163582D01*
X123798934Y-71131066D01*
X123766418Y-71082403D01*
X123755000Y-71025000D01*
X123755000Y-69275000D01*
X123766418Y-69217597D01*
X123798934Y-69168934D01*
X123847597Y-69136418D01*
X123905000Y-69125000D01*
X124205000Y-69125000D01*
X124262403Y-69136418D01*
G37*
G36*
X125532403Y-69136418D02*
G01*
X125581066Y-69168934D01*
X125613582Y-69217597D01*
X125625000Y-69275000D01*
X125625000Y-71025000D01*
X125613582Y-71082403D01*
X125581066Y-71131066D01*
X125532403Y-71163582D01*
X125475000Y-71175000D01*
X125175000Y-71175000D01*
X125117597Y-71163582D01*
X125068934Y-71131066D01*
X125036418Y-71082403D01*
X125025000Y-71025000D01*
X125025000Y-69275000D01*
X125036418Y-69217597D01*
X125068934Y-69168934D01*
X125117597Y-69136418D01*
X125175000Y-69125000D01*
X125475000Y-69125000D01*
X125532403Y-69136418D01*
G37*
G36*
X126802403Y-69136418D02*
G01*
X126851066Y-69168934D01*
X126883582Y-69217597D01*
X126895000Y-69275000D01*
X126895000Y-71025000D01*
X126883582Y-71082403D01*
X126851066Y-71131066D01*
X126802403Y-71163582D01*
X126745000Y-71175000D01*
X126445000Y-71175000D01*
X126387597Y-71163582D01*
X126338934Y-71131066D01*
X126306418Y-71082403D01*
X126295000Y-71025000D01*
X126295000Y-69275000D01*
X126306418Y-69217597D01*
X126338934Y-69168934D01*
X126387597Y-69136418D01*
X126445000Y-69125000D01*
X126745000Y-69125000D01*
X126802403Y-69136418D01*
G37*
G36*
X128072403Y-69136418D02*
G01*
X128121066Y-69168934D01*
X128153582Y-69217597D01*
X128165000Y-69275000D01*
X128165000Y-71025000D01*
X128153582Y-71082403D01*
X128121066Y-71131066D01*
X128072403Y-71163582D01*
X128015000Y-71175000D01*
X127715000Y-71175000D01*
X127657597Y-71163582D01*
X127608934Y-71131066D01*
X127576418Y-71082403D01*
X127565000Y-71025000D01*
X127565000Y-69275000D01*
X127576418Y-69217597D01*
X127608934Y-69168934D01*
X127657597Y-69136418D01*
X127715000Y-69125000D01*
X128015000Y-69125000D01*
X128072403Y-69136418D01*
G37*
G36*
X129342403Y-69136418D02*
G01*
X129391066Y-69168934D01*
X129423582Y-69217597D01*
X129435000Y-69275000D01*
X129435000Y-71025000D01*
X129423582Y-71082403D01*
X129391066Y-71131066D01*
X129342403Y-71163582D01*
X129285000Y-71175000D01*
X128985000Y-71175000D01*
X128927597Y-71163582D01*
X128878934Y-71131066D01*
X128846418Y-71082403D01*
X128835000Y-71025000D01*
X128835000Y-69275000D01*
X128846418Y-69217597D01*
X128878934Y-69168934D01*
X128927597Y-69136418D01*
X128985000Y-69125000D01*
X129285000Y-69125000D01*
X129342403Y-69136418D01*
G37*
G36*
X130612403Y-69136418D02*
G01*
X130661066Y-69168934D01*
X130693582Y-69217597D01*
X130705000Y-69275000D01*
X130705000Y-71025000D01*
X130693582Y-71082403D01*
X130661066Y-71131066D01*
X130612403Y-71163582D01*
X130555000Y-71175000D01*
X130255000Y-71175000D01*
X130197597Y-71163582D01*
X130148934Y-71131066D01*
X130116418Y-71082403D01*
X130105000Y-71025000D01*
X130105000Y-69275000D01*
X130116418Y-69217597D01*
X130148934Y-69168934D01*
X130197597Y-69136418D01*
X130255000Y-69125000D01*
X130555000Y-69125000D01*
X130612403Y-69136418D01*
G37*
G36*
X131882403Y-69136418D02*
G01*
X131931066Y-69168934D01*
X131963582Y-69217597D01*
X131975000Y-69275000D01*
X131975000Y-71025000D01*
X131963582Y-71082403D01*
X131931066Y-71131066D01*
X131882403Y-71163582D01*
X131825000Y-71175000D01*
X131525000Y-71175000D01*
X131467597Y-71163582D01*
X131418934Y-71131066D01*
X131386418Y-71082403D01*
X131375000Y-71025000D01*
X131375000Y-69275000D01*
X131386418Y-69217597D01*
X131418934Y-69168934D01*
X131467597Y-69136418D01*
X131525000Y-69125000D01*
X131825000Y-69125000D01*
X131882403Y-69136418D01*
G37*
G36*
X133152403Y-69136418D02*
G01*
X133201066Y-69168934D01*
X133233582Y-69217597D01*
X133245000Y-69275000D01*
X133245000Y-71025000D01*
X133233582Y-71082403D01*
X133201066Y-71131066D01*
X133152403Y-71163582D01*
X133095000Y-71175000D01*
X132795000Y-71175000D01*
X132737597Y-71163582D01*
X132688934Y-71131066D01*
X132656418Y-71082403D01*
X132645000Y-71025000D01*
X132645000Y-69275000D01*
X132656418Y-69217597D01*
X132688934Y-69168934D01*
X132737597Y-69136418D01*
X132795000Y-69125000D01*
X133095000Y-69125000D01*
X133152403Y-69136418D01*
G37*
G36*
X134422403Y-69136418D02*
G01*
X134471066Y-69168934D01*
X134503582Y-69217597D01*
X134515000Y-69275000D01*
X134515000Y-71025000D01*
X134503582Y-71082403D01*
X134471066Y-71131066D01*
X134422403Y-71163582D01*
X134365000Y-71175000D01*
X134065000Y-71175000D01*
X134007597Y-71163582D01*
X133958934Y-71131066D01*
X133926418Y-71082403D01*
X133915000Y-71025000D01*
X133915000Y-69275000D01*
X133926418Y-69217597D01*
X133958934Y-69168934D01*
X134007597Y-69136418D01*
X134065000Y-69125000D01*
X134365000Y-69125000D01*
X134422403Y-69136418D01*
G37*
G36*
X135692403Y-69136418D02*
G01*
X135741066Y-69168934D01*
X135773582Y-69217597D01*
X135785000Y-69275000D01*
X135785000Y-71025000D01*
X135773582Y-71082403D01*
X135741066Y-71131066D01*
X135692403Y-71163582D01*
X135635000Y-71175000D01*
X135335000Y-71175000D01*
X135277597Y-71163582D01*
X135228934Y-71131066D01*
X135196418Y-71082403D01*
X135185000Y-71025000D01*
X135185000Y-69275000D01*
X135196418Y-69217597D01*
X135228934Y-69168934D01*
X135277597Y-69136418D01*
X135335000Y-69125000D01*
X135635000Y-69125000D01*
X135692403Y-69136418D01*
G37*
G36*
X140907403Y-70576418D02*
G01*
X140956066Y-70608934D01*
X140988582Y-70657597D01*
X141000000Y-70715000D01*
X141000000Y-71015000D01*
X140988582Y-71072403D01*
X140956066Y-71121066D01*
X140907403Y-71153582D01*
X140850000Y-71165000D01*
X139200000Y-71165000D01*
X139142597Y-71153582D01*
X139093934Y-71121066D01*
X139061418Y-71072403D01*
X139050000Y-71015000D01*
X139050000Y-70715000D01*
X139061418Y-70657597D01*
X139093934Y-70608934D01*
X139142597Y-70576418D01*
X139200000Y-70565000D01*
X140850000Y-70565000D01*
X140907403Y-70576418D01*
G37*
G36*
X145857403Y-70576418D02*
G01*
X145906066Y-70608934D01*
X145938582Y-70657597D01*
X145950000Y-70715000D01*
X145950000Y-71015000D01*
X145938582Y-71072403D01*
X145906066Y-71121066D01*
X145857403Y-71153582D01*
X145800000Y-71165000D01*
X144150000Y-71165000D01*
X144092597Y-71153582D01*
X144043934Y-71121066D01*
X144011418Y-71072403D01*
X144000000Y-71015000D01*
X144000000Y-70715000D01*
X144011418Y-70657597D01*
X144043934Y-70608934D01*
X144092597Y-70576418D01*
X144150000Y-70565000D01*
X145800000Y-70565000D01*
X145857403Y-70576418D01*
G37*
G36*
X84154850Y-69775964D02*
G01*
X84205040Y-69781787D01*
X84222189Y-69789359D01*
X84245671Y-69794030D01*
X84270810Y-69810827D01*
X84290696Y-69819608D01*
X84304277Y-69833189D01*
X84326777Y-69848223D01*
X84341810Y-69870722D01*
X84355391Y-69884303D01*
X84364170Y-69904186D01*
X84380970Y-69929329D01*
X84385641Y-69952812D01*
X84393212Y-69969959D01*
X84399033Y-70020139D01*
X84400000Y-70025000D01*
X84400000Y-70850000D01*
X84399032Y-70854863D01*
X84393212Y-70905040D01*
X84385641Y-70922185D01*
X84380970Y-70945671D01*
X84364169Y-70970815D01*
X84355391Y-70990696D01*
X84341812Y-71004274D01*
X84326777Y-71026777D01*
X84304274Y-71041812D01*
X84290696Y-71055391D01*
X84270815Y-71064169D01*
X84245671Y-71080970D01*
X84222185Y-71085641D01*
X84205040Y-71093212D01*
X84154861Y-71099032D01*
X84150000Y-71100000D01*
X82850000Y-71100000D01*
X82845138Y-71099032D01*
X82794959Y-71093212D01*
X82777812Y-71085641D01*
X82754329Y-71080970D01*
X82729186Y-71064170D01*
X82709303Y-71055391D01*
X82695722Y-71041810D01*
X82673223Y-71026777D01*
X82658189Y-71004277D01*
X82644608Y-70990696D01*
X82635827Y-70970810D01*
X82619030Y-70945671D01*
X82614359Y-70922189D01*
X82606787Y-70905040D01*
X82600964Y-70854849D01*
X82600000Y-70850000D01*
X82600000Y-70025000D01*
X82600964Y-70020150D01*
X82606787Y-69969959D01*
X82614359Y-69952808D01*
X82619030Y-69929329D01*
X82635826Y-69904191D01*
X82644608Y-69884303D01*
X82658191Y-69870719D01*
X82673223Y-69848223D01*
X82695719Y-69833191D01*
X82709303Y-69819608D01*
X82729191Y-69810826D01*
X82754329Y-69794030D01*
X82777808Y-69789359D01*
X82794959Y-69781787D01*
X82845151Y-69775964D01*
X82850000Y-69775000D01*
X84150000Y-69775000D01*
X84154850Y-69775964D01*
G37*
G36*
X86654850Y-69775964D02*
G01*
X86705040Y-69781787D01*
X86722189Y-69789359D01*
X86745671Y-69794030D01*
X86770810Y-69810827D01*
X86790696Y-69819608D01*
X86804277Y-69833189D01*
X86826777Y-69848223D01*
X86841810Y-69870722D01*
X86855391Y-69884303D01*
X86864170Y-69904186D01*
X86880970Y-69929329D01*
X86885641Y-69952812D01*
X86893212Y-69969959D01*
X86899033Y-70020139D01*
X86900000Y-70025000D01*
X86900000Y-70850000D01*
X86899032Y-70854863D01*
X86893212Y-70905040D01*
X86885641Y-70922185D01*
X86880970Y-70945671D01*
X86864169Y-70970815D01*
X86855391Y-70990696D01*
X86841812Y-71004274D01*
X86826777Y-71026777D01*
X86804274Y-71041812D01*
X86790696Y-71055391D01*
X86770815Y-71064169D01*
X86745671Y-71080970D01*
X86722185Y-71085641D01*
X86705040Y-71093212D01*
X86654861Y-71099032D01*
X86650000Y-71100000D01*
X85350000Y-71100000D01*
X85345138Y-71099032D01*
X85294959Y-71093212D01*
X85277812Y-71085641D01*
X85254329Y-71080970D01*
X85229186Y-71064170D01*
X85209303Y-71055391D01*
X85195722Y-71041810D01*
X85173223Y-71026777D01*
X85158189Y-71004277D01*
X85144608Y-70990696D01*
X85135827Y-70970810D01*
X85119030Y-70945671D01*
X85114359Y-70922189D01*
X85106787Y-70905040D01*
X85100964Y-70854849D01*
X85100000Y-70850000D01*
X85100000Y-70025000D01*
X85100964Y-70020150D01*
X85106787Y-69969959D01*
X85114359Y-69952808D01*
X85119030Y-69929329D01*
X85135826Y-69904191D01*
X85144608Y-69884303D01*
X85158191Y-69870719D01*
X85173223Y-69848223D01*
X85195719Y-69833191D01*
X85209303Y-69819608D01*
X85229191Y-69810826D01*
X85254329Y-69794030D01*
X85277808Y-69789359D01*
X85294959Y-69781787D01*
X85345151Y-69775964D01*
X85350000Y-69775000D01*
X86650000Y-69775000D01*
X86654850Y-69775964D01*
G37*
G36*
X152790285Y-69043060D02*
G01*
X152971397Y-69118079D01*
X153134393Y-69226990D01*
X153273010Y-69365607D01*
X153381921Y-69528603D01*
X153456940Y-69709715D01*
X153495185Y-69901983D01*
X153495185Y-70098017D01*
X153456940Y-70290285D01*
X153381921Y-70471397D01*
X153273010Y-70634393D01*
X153134393Y-70773010D01*
X152971397Y-70881921D01*
X152790285Y-70956940D01*
X152598017Y-70995185D01*
X152401983Y-70995185D01*
X152209715Y-70956940D01*
X152028603Y-70881921D01*
X151865607Y-70773010D01*
X151726990Y-70634393D01*
X151618079Y-70471397D01*
X151543060Y-70290285D01*
X151504815Y-70098017D01*
X151504815Y-69901983D01*
X151543060Y-69709715D01*
X151618079Y-69528603D01*
X151726990Y-69365607D01*
X151865607Y-69226990D01*
X152028603Y-69118079D01*
X152209715Y-69043060D01*
X152401983Y-69004815D01*
X152598017Y-69004815D01*
X152790285Y-69043060D01*
G37*
G36*
X167290285Y-69043060D02*
G01*
X167471397Y-69118079D01*
X167634393Y-69226990D01*
X167773010Y-69365607D01*
X167881921Y-69528603D01*
X167956940Y-69709715D01*
X167995185Y-69901983D01*
X167995185Y-70098017D01*
X167956940Y-70290285D01*
X167881921Y-70471397D01*
X167773010Y-70634393D01*
X167634393Y-70773010D01*
X167471397Y-70881921D01*
X167290285Y-70956940D01*
X167098017Y-70995185D01*
X166901983Y-70995185D01*
X166709715Y-70956940D01*
X166528603Y-70881921D01*
X166365607Y-70773010D01*
X166226990Y-70634393D01*
X166118079Y-70471397D01*
X166043060Y-70290285D01*
X166004815Y-70098017D01*
X166004815Y-69901983D01*
X166043060Y-69709715D01*
X166118079Y-69528603D01*
X166226990Y-69365607D01*
X166365607Y-69226990D01*
X166528603Y-69118079D01*
X166709715Y-69043060D01*
X166901983Y-69004815D01*
X167098017Y-69004815D01*
X167290285Y-69043060D01*
G37*
G36*
X47965000Y-70900000D02*
G01*
X46805000Y-70900000D01*
X46805000Y-70600000D01*
X47965000Y-70600000D01*
X47965000Y-70900000D01*
G37*
G36*
X61907403Y-70156418D02*
G01*
X61956066Y-70188934D01*
X61988582Y-70237597D01*
X62000000Y-70295000D01*
X62000000Y-70595000D01*
X61988582Y-70652403D01*
X61956066Y-70701066D01*
X61907403Y-70733582D01*
X61850000Y-70745000D01*
X60200000Y-70745000D01*
X60142597Y-70733582D01*
X60093934Y-70701066D01*
X60061418Y-70652403D01*
X60050000Y-70595000D01*
X60050000Y-70295000D01*
X60061418Y-70237597D01*
X60093934Y-70188934D01*
X60142597Y-70156418D01*
X60200000Y-70145000D01*
X61850000Y-70145000D01*
X61907403Y-70156418D01*
G37*
G36*
X66857403Y-70156418D02*
G01*
X66906066Y-70188934D01*
X66938582Y-70237597D01*
X66950000Y-70295000D01*
X66950000Y-70595000D01*
X66938582Y-70652403D01*
X66906066Y-70701066D01*
X66857403Y-70733582D01*
X66800000Y-70745000D01*
X65150000Y-70745000D01*
X65092597Y-70733582D01*
X65043934Y-70701066D01*
X65011418Y-70652403D01*
X65000000Y-70595000D01*
X65000000Y-70295000D01*
X65011418Y-70237597D01*
X65043934Y-70188934D01*
X65092597Y-70156418D01*
X65150000Y-70145000D01*
X66800000Y-70145000D01*
X66857403Y-70156418D01*
G37*
G36*
X113629850Y-69400964D02*
G01*
X113680040Y-69406787D01*
X113697189Y-69414359D01*
X113720671Y-69419030D01*
X113745810Y-69435827D01*
X113765696Y-69444608D01*
X113779277Y-69458189D01*
X113801777Y-69473223D01*
X113816810Y-69495722D01*
X113830391Y-69509303D01*
X113839170Y-69529186D01*
X113855970Y-69554329D01*
X113860641Y-69577812D01*
X113868212Y-69594959D01*
X113874033Y-69645139D01*
X113875000Y-69650000D01*
X113875000Y-70450000D01*
X113874032Y-70454863D01*
X113868212Y-70505040D01*
X113860641Y-70522185D01*
X113855970Y-70545671D01*
X113839169Y-70570815D01*
X113830391Y-70590696D01*
X113816812Y-70604274D01*
X113801777Y-70626777D01*
X113779274Y-70641812D01*
X113765696Y-70655391D01*
X113745815Y-70664169D01*
X113720671Y-70680970D01*
X113697185Y-70685641D01*
X113680040Y-70693212D01*
X113629861Y-70699032D01*
X113625000Y-70700000D01*
X112375000Y-70700000D01*
X112370138Y-70699032D01*
X112319959Y-70693212D01*
X112302812Y-70685641D01*
X112279329Y-70680970D01*
X112254186Y-70664170D01*
X112234303Y-70655391D01*
X112220722Y-70641810D01*
X112198223Y-70626777D01*
X112183189Y-70604277D01*
X112169608Y-70590696D01*
X112160827Y-70570810D01*
X112144030Y-70545671D01*
X112139359Y-70522189D01*
X112131787Y-70505040D01*
X112125964Y-70454849D01*
X112125000Y-70450000D01*
X112125000Y-69650000D01*
X112125964Y-69645150D01*
X112131787Y-69594959D01*
X112139359Y-69577808D01*
X112144030Y-69554329D01*
X112160826Y-69529191D01*
X112169608Y-69509303D01*
X112183191Y-69495719D01*
X112198223Y-69473223D01*
X112220719Y-69458191D01*
X112234303Y-69444608D01*
X112254191Y-69435826D01*
X112279329Y-69419030D01*
X112302808Y-69414359D01*
X112319959Y-69406787D01*
X112370151Y-69400964D01*
X112375000Y-69400000D01*
X113625000Y-69400000D01*
X113629850Y-69400964D01*
G37*
G36*
X116129850Y-69400964D02*
G01*
X116180040Y-69406787D01*
X116197189Y-69414359D01*
X116220671Y-69419030D01*
X116245810Y-69435827D01*
X116265696Y-69444608D01*
X116279277Y-69458189D01*
X116301777Y-69473223D01*
X116316810Y-69495722D01*
X116330391Y-69509303D01*
X116339170Y-69529186D01*
X116355970Y-69554329D01*
X116360641Y-69577812D01*
X116368212Y-69594959D01*
X116374033Y-69645139D01*
X116375000Y-69650000D01*
X116375000Y-70450000D01*
X116374032Y-70454863D01*
X116368212Y-70505040D01*
X116360641Y-70522185D01*
X116355970Y-70545671D01*
X116339169Y-70570815D01*
X116330391Y-70590696D01*
X116316812Y-70604274D01*
X116301777Y-70626777D01*
X116279274Y-70641812D01*
X116265696Y-70655391D01*
X116245815Y-70664169D01*
X116220671Y-70680970D01*
X116197185Y-70685641D01*
X116180040Y-70693212D01*
X116129861Y-70699032D01*
X116125000Y-70700000D01*
X114875000Y-70700000D01*
X114870138Y-70699032D01*
X114819959Y-70693212D01*
X114802812Y-70685641D01*
X114779329Y-70680970D01*
X114754186Y-70664170D01*
X114734303Y-70655391D01*
X114720722Y-70641810D01*
X114698223Y-70626777D01*
X114683189Y-70604277D01*
X114669608Y-70590696D01*
X114660827Y-70570810D01*
X114644030Y-70545671D01*
X114639359Y-70522189D01*
X114631787Y-70505040D01*
X114625964Y-70454849D01*
X114625000Y-70450000D01*
X114625000Y-69650000D01*
X114625964Y-69645150D01*
X114631787Y-69594959D01*
X114639359Y-69577808D01*
X114644030Y-69554329D01*
X114660826Y-69529191D01*
X114669608Y-69509303D01*
X114683191Y-69495719D01*
X114698223Y-69473223D01*
X114720719Y-69458191D01*
X114734303Y-69444608D01*
X114754191Y-69435826D01*
X114779329Y-69419030D01*
X114802808Y-69414359D01*
X114819959Y-69406787D01*
X114870151Y-69400964D01*
X114875000Y-69400000D01*
X116125000Y-69400000D01*
X116129850Y-69400964D01*
G37*
G36*
X47965000Y-70400000D02*
G01*
X46805000Y-70400000D01*
X46805000Y-70100000D01*
X47965000Y-70100000D01*
X47965000Y-70400000D01*
G37*
G36*
X47965000Y-69900000D02*
G01*
X46805000Y-69900000D01*
X46805000Y-69600000D01*
X47965000Y-69600000D01*
X47965000Y-69900000D01*
G37*
G36*
X140907403Y-69306418D02*
G01*
X140956066Y-69338934D01*
X140988582Y-69387597D01*
X141000000Y-69445000D01*
X141000000Y-69745000D01*
X140988582Y-69802403D01*
X140956066Y-69851066D01*
X140907403Y-69883582D01*
X140850000Y-69895000D01*
X139200000Y-69895000D01*
X139142597Y-69883582D01*
X139093934Y-69851066D01*
X139061418Y-69802403D01*
X139050000Y-69745000D01*
X139050000Y-69445000D01*
X139061418Y-69387597D01*
X139093934Y-69338934D01*
X139142597Y-69306418D01*
X139200000Y-69295000D01*
X140850000Y-69295000D01*
X140907403Y-69306418D01*
G37*
G36*
X145857403Y-69306418D02*
G01*
X145906066Y-69338934D01*
X145938582Y-69387597D01*
X145950000Y-69445000D01*
X145950000Y-69745000D01*
X145938582Y-69802403D01*
X145906066Y-69851066D01*
X145857403Y-69883582D01*
X145800000Y-69895000D01*
X144150000Y-69895000D01*
X144092597Y-69883582D01*
X144043934Y-69851066D01*
X144011418Y-69802403D01*
X144000000Y-69745000D01*
X144000000Y-69445000D01*
X144011418Y-69387597D01*
X144043934Y-69338934D01*
X144092597Y-69306418D01*
X144150000Y-69295000D01*
X145800000Y-69295000D01*
X145857403Y-69306418D01*
G37*
G36*
X94150000Y-69500000D02*
G01*
X91650000Y-69500000D01*
X91650000Y-68500000D01*
X94150000Y-68500000D01*
X94150000Y-69500000D01*
G37*
G36*
X109350000Y-69500000D02*
G01*
X106850000Y-69500000D01*
X106850000Y-68500000D01*
X109350000Y-68500000D01*
X109350000Y-69500000D01*
G37*
G36*
X61907403Y-68886418D02*
G01*
X61956066Y-68918934D01*
X61988582Y-68967597D01*
X62000000Y-69025000D01*
X62000000Y-69325000D01*
X61988582Y-69382403D01*
X61956066Y-69431066D01*
X61907403Y-69463582D01*
X61850000Y-69475000D01*
X60200000Y-69475000D01*
X60142597Y-69463582D01*
X60093934Y-69431066D01*
X60061418Y-69382403D01*
X60050000Y-69325000D01*
X60050000Y-69025000D01*
X60061418Y-68967597D01*
X60093934Y-68918934D01*
X60142597Y-68886418D01*
X60200000Y-68875000D01*
X61850000Y-68875000D01*
X61907403Y-68886418D01*
G37*
G36*
X66857403Y-68886418D02*
G01*
X66906066Y-68918934D01*
X66938582Y-68967597D01*
X66950000Y-69025000D01*
X66950000Y-69325000D01*
X66938582Y-69382403D01*
X66906066Y-69431066D01*
X66857403Y-69463582D01*
X66800000Y-69475000D01*
X65150000Y-69475000D01*
X65092597Y-69463582D01*
X65043934Y-69431066D01*
X65011418Y-69382403D01*
X65000000Y-69325000D01*
X65000000Y-69025000D01*
X65011418Y-68967597D01*
X65043934Y-68918934D01*
X65092597Y-68886418D01*
X65150000Y-68875000D01*
X66800000Y-68875000D01*
X66857403Y-68886418D01*
G37*
G36*
X47965000Y-69400000D02*
G01*
X46805000Y-69400000D01*
X46805000Y-69100000D01*
X47965000Y-69100000D01*
X47965000Y-69400000D01*
G37*
G36*
X51854850Y-67625964D02*
G01*
X51905040Y-67631787D01*
X51922189Y-67639359D01*
X51945671Y-67644030D01*
X51970810Y-67660827D01*
X51990696Y-67669608D01*
X52004277Y-67683189D01*
X52026777Y-67698223D01*
X52041810Y-67720722D01*
X52055391Y-67734303D01*
X52064170Y-67754186D01*
X52080970Y-67779329D01*
X52085641Y-67802812D01*
X52093212Y-67819959D01*
X52099033Y-67870139D01*
X52100000Y-67875000D01*
X52100000Y-69125000D01*
X52099032Y-69129863D01*
X52093212Y-69180040D01*
X52085641Y-69197185D01*
X52080970Y-69220671D01*
X52064169Y-69245815D01*
X52055391Y-69265696D01*
X52041812Y-69279274D01*
X52026777Y-69301777D01*
X52004274Y-69316812D01*
X51990696Y-69330391D01*
X51970815Y-69339169D01*
X51945671Y-69355970D01*
X51922185Y-69360641D01*
X51905040Y-69368212D01*
X51854861Y-69374032D01*
X51850000Y-69375000D01*
X51050000Y-69375000D01*
X51045138Y-69374032D01*
X50994959Y-69368212D01*
X50977812Y-69360641D01*
X50954329Y-69355970D01*
X50929186Y-69339170D01*
X50909303Y-69330391D01*
X50895722Y-69316810D01*
X50873223Y-69301777D01*
X50858189Y-69279277D01*
X50844608Y-69265696D01*
X50835827Y-69245810D01*
X50819030Y-69220671D01*
X50814359Y-69197189D01*
X50806787Y-69180040D01*
X50800964Y-69129849D01*
X50800000Y-69125000D01*
X50800000Y-67875000D01*
X50800964Y-67870150D01*
X50806787Y-67819959D01*
X50814359Y-67802808D01*
X50819030Y-67779329D01*
X50835826Y-67754191D01*
X50844608Y-67734303D01*
X50858191Y-67720719D01*
X50873223Y-67698223D01*
X50895719Y-67683191D01*
X50909303Y-67669608D01*
X50929191Y-67660826D01*
X50954329Y-67644030D01*
X50977808Y-67639359D01*
X50994959Y-67631787D01*
X51045151Y-67625964D01*
X51050000Y-67625000D01*
X51850000Y-67625000D01*
X51854850Y-67625964D01*
G37*
G36*
X54954850Y-67625964D02*
G01*
X55005040Y-67631787D01*
X55022189Y-67639359D01*
X55045671Y-67644030D01*
X55070810Y-67660827D01*
X55090696Y-67669608D01*
X55104277Y-67683189D01*
X55126777Y-67698223D01*
X55141810Y-67720722D01*
X55155391Y-67734303D01*
X55164170Y-67754186D01*
X55180970Y-67779329D01*
X55185641Y-67802812D01*
X55193212Y-67819959D01*
X55199033Y-67870139D01*
X55200000Y-67875000D01*
X55200000Y-69125000D01*
X55199032Y-69129863D01*
X55193212Y-69180040D01*
X55185641Y-69197185D01*
X55180970Y-69220671D01*
X55164169Y-69245815D01*
X55155391Y-69265696D01*
X55141812Y-69279274D01*
X55126777Y-69301777D01*
X55104274Y-69316812D01*
X55090696Y-69330391D01*
X55070815Y-69339169D01*
X55045671Y-69355970D01*
X55022185Y-69360641D01*
X55005040Y-69368212D01*
X54954861Y-69374032D01*
X54950000Y-69375000D01*
X54150000Y-69375000D01*
X54145138Y-69374032D01*
X54094959Y-69368212D01*
X54077812Y-69360641D01*
X54054329Y-69355970D01*
X54029186Y-69339170D01*
X54009303Y-69330391D01*
X53995722Y-69316810D01*
X53973223Y-69301777D01*
X53958189Y-69279277D01*
X53944608Y-69265696D01*
X53935827Y-69245810D01*
X53919030Y-69220671D01*
X53914359Y-69197189D01*
X53906787Y-69180040D01*
X53900964Y-69129849D01*
X53900000Y-69125000D01*
X53900000Y-67875000D01*
X53900964Y-67870150D01*
X53906787Y-67819959D01*
X53914359Y-67802808D01*
X53919030Y-67779329D01*
X53935826Y-67754191D01*
X53944608Y-67734303D01*
X53958191Y-67720719D01*
X53973223Y-67698223D01*
X53995719Y-67683191D01*
X54009303Y-67669608D01*
X54029191Y-67660826D01*
X54054329Y-67644030D01*
X54077808Y-67639359D01*
X54094959Y-67631787D01*
X54145151Y-67625964D01*
X54150000Y-67625000D01*
X54950000Y-67625000D01*
X54954850Y-67625964D01*
G37*
G36*
X78354850Y-67625964D02*
G01*
X78405040Y-67631787D01*
X78422189Y-67639359D01*
X78445671Y-67644030D01*
X78470810Y-67660827D01*
X78490696Y-67669608D01*
X78504277Y-67683189D01*
X78526777Y-67698223D01*
X78541810Y-67720722D01*
X78555391Y-67734303D01*
X78564170Y-67754186D01*
X78580970Y-67779329D01*
X78585641Y-67802812D01*
X78593212Y-67819959D01*
X78599033Y-67870139D01*
X78600000Y-67875000D01*
X78600000Y-69125000D01*
X78599032Y-69129863D01*
X78593212Y-69180040D01*
X78585641Y-69197185D01*
X78580970Y-69220671D01*
X78564169Y-69245815D01*
X78555391Y-69265696D01*
X78541812Y-69279274D01*
X78526777Y-69301777D01*
X78504274Y-69316812D01*
X78490696Y-69330391D01*
X78470815Y-69339169D01*
X78445671Y-69355970D01*
X78422185Y-69360641D01*
X78405040Y-69368212D01*
X78354861Y-69374032D01*
X78350000Y-69375000D01*
X77550000Y-69375000D01*
X77545138Y-69374032D01*
X77494959Y-69368212D01*
X77477812Y-69360641D01*
X77454329Y-69355970D01*
X77429186Y-69339170D01*
X77409303Y-69330391D01*
X77395722Y-69316810D01*
X77373223Y-69301777D01*
X77358189Y-69279277D01*
X77344608Y-69265696D01*
X77335827Y-69245810D01*
X77319030Y-69220671D01*
X77314359Y-69197189D01*
X77306787Y-69180040D01*
X77300964Y-69129849D01*
X77300000Y-69125000D01*
X77300000Y-67875000D01*
X77300964Y-67870150D01*
X77306787Y-67819959D01*
X77314359Y-67802808D01*
X77319030Y-67779329D01*
X77335826Y-67754191D01*
X77344608Y-67734303D01*
X77358191Y-67720719D01*
X77373223Y-67698223D01*
X77395719Y-67683191D01*
X77409303Y-67669608D01*
X77429191Y-67660826D01*
X77454329Y-67644030D01*
X77477808Y-67639359D01*
X77494959Y-67631787D01*
X77545151Y-67625964D01*
X77550000Y-67625000D01*
X78350000Y-67625000D01*
X78354850Y-67625964D01*
G37*
G36*
X81454850Y-67625964D02*
G01*
X81505040Y-67631787D01*
X81522189Y-67639359D01*
X81545671Y-67644030D01*
X81570810Y-67660827D01*
X81590696Y-67669608D01*
X81604277Y-67683189D01*
X81626777Y-67698223D01*
X81641810Y-67720722D01*
X81655391Y-67734303D01*
X81664170Y-67754186D01*
X81680970Y-67779329D01*
X81685641Y-67802812D01*
X81693212Y-67819959D01*
X81699033Y-67870139D01*
X81700000Y-67875000D01*
X81700000Y-69125000D01*
X81699032Y-69129863D01*
X81693212Y-69180040D01*
X81685641Y-69197185D01*
X81680970Y-69220671D01*
X81664169Y-69245815D01*
X81655391Y-69265696D01*
X81641812Y-69279274D01*
X81626777Y-69301777D01*
X81604274Y-69316812D01*
X81590696Y-69330391D01*
X81570815Y-69339169D01*
X81545671Y-69355970D01*
X81522185Y-69360641D01*
X81505040Y-69368212D01*
X81454861Y-69374032D01*
X81450000Y-69375000D01*
X80650000Y-69375000D01*
X80645138Y-69374032D01*
X80594959Y-69368212D01*
X80577812Y-69360641D01*
X80554329Y-69355970D01*
X80529186Y-69339170D01*
X80509303Y-69330391D01*
X80495722Y-69316810D01*
X80473223Y-69301777D01*
X80458189Y-69279277D01*
X80444608Y-69265696D01*
X80435827Y-69245810D01*
X80419030Y-69220671D01*
X80414359Y-69197189D01*
X80406787Y-69180040D01*
X80400964Y-69129849D01*
X80400000Y-69125000D01*
X80400000Y-67875000D01*
X80400964Y-67870150D01*
X80406787Y-67819959D01*
X80414359Y-67802808D01*
X80419030Y-67779329D01*
X80435826Y-67754191D01*
X80444608Y-67734303D01*
X80458191Y-67720719D01*
X80473223Y-67698223D01*
X80495719Y-67683191D01*
X80509303Y-67669608D01*
X80529191Y-67660826D01*
X80554329Y-67644030D01*
X80577808Y-67639359D01*
X80594959Y-67631787D01*
X80645151Y-67625964D01*
X80650000Y-67625000D01*
X81450000Y-67625000D01*
X81454850Y-67625964D01*
G37*
G36*
X149154850Y-67775964D02*
G01*
X149205040Y-67781787D01*
X149222189Y-67789359D01*
X149245671Y-67794030D01*
X149270810Y-67810827D01*
X149290696Y-67819608D01*
X149304277Y-67833189D01*
X149326777Y-67848223D01*
X149341810Y-67870722D01*
X149355391Y-67884303D01*
X149364170Y-67904186D01*
X149380970Y-67929329D01*
X149385641Y-67952812D01*
X149393212Y-67969959D01*
X149399033Y-68020139D01*
X149400000Y-68025000D01*
X149400000Y-68850000D01*
X149399032Y-68854863D01*
X149393212Y-68905040D01*
X149385641Y-68922185D01*
X149380970Y-68945671D01*
X149364169Y-68970815D01*
X149355391Y-68990696D01*
X149341812Y-69004274D01*
X149326777Y-69026777D01*
X149304274Y-69041812D01*
X149290696Y-69055391D01*
X149270815Y-69064169D01*
X149245671Y-69080970D01*
X149222185Y-69085641D01*
X149205040Y-69093212D01*
X149154861Y-69099032D01*
X149150000Y-69100000D01*
X147850000Y-69100000D01*
X147845138Y-69099032D01*
X147794959Y-69093212D01*
X147777812Y-69085641D01*
X147754329Y-69080970D01*
X147729186Y-69064170D01*
X147709303Y-69055391D01*
X147695722Y-69041810D01*
X147673223Y-69026777D01*
X147658189Y-69004277D01*
X147644608Y-68990696D01*
X147635827Y-68970810D01*
X147619030Y-68945671D01*
X147614359Y-68922189D01*
X147606787Y-68905040D01*
X147600964Y-68854849D01*
X147600000Y-68850000D01*
X147600000Y-68025000D01*
X147600964Y-68020150D01*
X147606787Y-67969959D01*
X147614359Y-67952808D01*
X147619030Y-67929329D01*
X147635826Y-67904191D01*
X147644608Y-67884303D01*
X147658191Y-67870719D01*
X147673223Y-67848223D01*
X147695719Y-67833191D01*
X147709303Y-67819608D01*
X147729191Y-67810826D01*
X147754329Y-67794030D01*
X147777808Y-67789359D01*
X147794959Y-67781787D01*
X147845151Y-67775964D01*
X147850000Y-67775000D01*
X149150000Y-67775000D01*
X149154850Y-67775964D01*
G37*
G36*
X47965000Y-68900000D02*
G01*
X46805000Y-68900000D01*
X46805000Y-68600000D01*
X47965000Y-68600000D01*
X47965000Y-68900000D01*
G37*
G36*
X89629850Y-67400964D02*
G01*
X89680040Y-67406787D01*
X89697189Y-67414359D01*
X89720671Y-67419030D01*
X89745810Y-67435827D01*
X89765696Y-67444608D01*
X89779277Y-67458189D01*
X89801777Y-67473223D01*
X89816810Y-67495722D01*
X89830391Y-67509303D01*
X89839170Y-67529186D01*
X89855970Y-67554329D01*
X89860641Y-67577812D01*
X89868212Y-67594959D01*
X89874033Y-67645139D01*
X89875000Y-67650000D01*
X89875000Y-68450000D01*
X89874032Y-68454863D01*
X89868212Y-68505040D01*
X89860641Y-68522185D01*
X89855970Y-68545671D01*
X89839169Y-68570815D01*
X89830391Y-68590696D01*
X89816812Y-68604274D01*
X89801777Y-68626777D01*
X89779274Y-68641812D01*
X89765696Y-68655391D01*
X89745815Y-68664169D01*
X89720671Y-68680970D01*
X89697185Y-68685641D01*
X89680040Y-68693212D01*
X89629861Y-68699032D01*
X89625000Y-68700000D01*
X88375000Y-68700000D01*
X88370138Y-68699032D01*
X88319959Y-68693212D01*
X88302812Y-68685641D01*
X88279329Y-68680970D01*
X88254186Y-68664170D01*
X88234303Y-68655391D01*
X88220722Y-68641810D01*
X88198223Y-68626777D01*
X88183189Y-68604277D01*
X88169608Y-68590696D01*
X88160827Y-68570810D01*
X88144030Y-68545671D01*
X88139359Y-68522189D01*
X88131787Y-68505040D01*
X88125964Y-68454849D01*
X88125000Y-68450000D01*
X88125000Y-67650000D01*
X88125964Y-67645150D01*
X88131787Y-67594959D01*
X88139359Y-67577808D01*
X88144030Y-67554329D01*
X88160826Y-67529191D01*
X88169608Y-67509303D01*
X88183191Y-67495719D01*
X88198223Y-67473223D01*
X88220719Y-67458191D01*
X88234303Y-67444608D01*
X88254191Y-67435826D01*
X88279329Y-67419030D01*
X88302808Y-67414359D01*
X88319959Y-67406787D01*
X88370151Y-67400964D01*
X88375000Y-67400000D01*
X89625000Y-67400000D01*
X89629850Y-67400964D01*
G37*
G36*
X152790285Y-66543060D02*
G01*
X152971397Y-66618079D01*
X153134393Y-66726990D01*
X153273010Y-66865607D01*
X153381921Y-67028603D01*
X153456940Y-67209715D01*
X153495185Y-67401983D01*
X153495185Y-67598017D01*
X153456940Y-67790285D01*
X153381921Y-67971397D01*
X153273010Y-68134393D01*
X153134393Y-68273010D01*
X152971397Y-68381921D01*
X152790285Y-68456940D01*
X152598017Y-68495185D01*
X152401983Y-68495185D01*
X152209715Y-68456940D01*
X152028603Y-68381921D01*
X151865607Y-68273010D01*
X151726990Y-68134393D01*
X151618079Y-67971397D01*
X151543060Y-67790285D01*
X151504815Y-67598017D01*
X151504815Y-67401983D01*
X151543060Y-67209715D01*
X151618079Y-67028603D01*
X151726990Y-66865607D01*
X151865607Y-66726990D01*
X152028603Y-66618079D01*
X152209715Y-66543060D01*
X152401983Y-66504815D01*
X152598017Y-66504815D01*
X152790285Y-66543060D01*
G37*
G36*
X47965000Y-68400000D02*
G01*
X46805000Y-68400000D01*
X46805000Y-68100000D01*
X47965000Y-68100000D01*
X47965000Y-68400000D01*
G37*
G36*
X84144903Y-67661418D02*
G01*
X84193566Y-67693934D01*
X84226082Y-67742597D01*
X84237500Y-67800000D01*
X84237500Y-68100000D01*
X84226082Y-68157403D01*
X84193566Y-68206066D01*
X84144903Y-68238582D01*
X84087500Y-68250000D01*
X82912500Y-68250000D01*
X82855097Y-68238582D01*
X82806434Y-68206066D01*
X82773918Y-68157403D01*
X82762500Y-68100000D01*
X82762500Y-67800000D01*
X82773918Y-67742597D01*
X82806434Y-67693934D01*
X82855097Y-67661418D01*
X82912500Y-67650000D01*
X84087500Y-67650000D01*
X84144903Y-67661418D01*
G37*
G36*
X61907403Y-67616418D02*
G01*
X61956066Y-67648934D01*
X61988582Y-67697597D01*
X62000000Y-67755000D01*
X62000000Y-68055000D01*
X61988582Y-68112403D01*
X61956066Y-68161066D01*
X61907403Y-68193582D01*
X61850000Y-68205000D01*
X60200000Y-68205000D01*
X60142597Y-68193582D01*
X60093934Y-68161066D01*
X60061418Y-68112403D01*
X60050000Y-68055000D01*
X60050000Y-67755000D01*
X60061418Y-67697597D01*
X60093934Y-67648934D01*
X60142597Y-67616418D01*
X60200000Y-67605000D01*
X61850000Y-67605000D01*
X61907403Y-67616418D01*
G37*
G36*
X66857403Y-67616418D02*
G01*
X66906066Y-67648934D01*
X66938582Y-67697597D01*
X66950000Y-67755000D01*
X66950000Y-68055000D01*
X66938582Y-68112403D01*
X66906066Y-68161066D01*
X66857403Y-68193582D01*
X66800000Y-68205000D01*
X65150000Y-68205000D01*
X65092597Y-68193582D01*
X65043934Y-68161066D01*
X65011418Y-68112403D01*
X65000000Y-68055000D01*
X65000000Y-67755000D01*
X65011418Y-67697597D01*
X65043934Y-67648934D01*
X65092597Y-67616418D01*
X65150000Y-67605000D01*
X66800000Y-67605000D01*
X66857403Y-67616418D01*
G37*
G36*
X47965000Y-67900000D02*
G01*
X46805000Y-67900000D01*
X46805000Y-67300000D01*
X47965000Y-67300000D01*
X47965000Y-67900000D01*
G37*
G36*
X113629850Y-66300964D02*
G01*
X113680040Y-66306787D01*
X113697189Y-66314359D01*
X113720671Y-66319030D01*
X113745810Y-66335827D01*
X113765696Y-66344608D01*
X113779277Y-66358189D01*
X113801777Y-66373223D01*
X113816810Y-66395722D01*
X113830391Y-66409303D01*
X113839170Y-66429186D01*
X113855970Y-66454329D01*
X113860641Y-66477812D01*
X113868212Y-66494959D01*
X113874033Y-66545139D01*
X113875000Y-66550000D01*
X113875000Y-67350000D01*
X113874032Y-67354863D01*
X113868212Y-67405040D01*
X113860641Y-67422185D01*
X113855970Y-67445671D01*
X113839169Y-67470815D01*
X113830391Y-67490696D01*
X113816812Y-67504274D01*
X113801777Y-67526777D01*
X113779274Y-67541812D01*
X113765696Y-67555391D01*
X113745815Y-67564169D01*
X113720671Y-67580970D01*
X113697185Y-67585641D01*
X113680040Y-67593212D01*
X113629861Y-67599032D01*
X113625000Y-67600000D01*
X112375000Y-67600000D01*
X112370138Y-67599032D01*
X112319959Y-67593212D01*
X112302812Y-67585641D01*
X112279329Y-67580970D01*
X112254186Y-67564170D01*
X112234303Y-67555391D01*
X112220722Y-67541810D01*
X112198223Y-67526777D01*
X112183189Y-67504277D01*
X112169608Y-67490696D01*
X112160827Y-67470810D01*
X112144030Y-67445671D01*
X112139359Y-67422189D01*
X112131787Y-67405040D01*
X112125964Y-67354849D01*
X112125000Y-67350000D01*
X112125000Y-66550000D01*
X112125964Y-66545150D01*
X112131787Y-66494959D01*
X112139359Y-66477808D01*
X112144030Y-66454329D01*
X112160826Y-66429191D01*
X112169608Y-66409303D01*
X112183191Y-66395719D01*
X112198223Y-66373223D01*
X112220719Y-66358191D01*
X112234303Y-66344608D01*
X112254191Y-66335826D01*
X112279329Y-66319030D01*
X112302808Y-66314359D01*
X112319959Y-66306787D01*
X112370151Y-66300964D01*
X112375000Y-66300000D01*
X113625000Y-66300000D01*
X113629850Y-66300964D01*
G37*
G36*
X116129850Y-66300964D02*
G01*
X116180040Y-66306787D01*
X116197189Y-66314359D01*
X116220671Y-66319030D01*
X116245810Y-66335827D01*
X116265696Y-66344608D01*
X116279277Y-66358189D01*
X116301777Y-66373223D01*
X116316810Y-66395722D01*
X116330391Y-66409303D01*
X116339170Y-66429186D01*
X116355970Y-66454329D01*
X116360641Y-66477812D01*
X116368212Y-66494959D01*
X116374033Y-66545139D01*
X116375000Y-66550000D01*
X116375000Y-67350000D01*
X116374032Y-67354863D01*
X116368212Y-67405040D01*
X116360641Y-67422185D01*
X116355970Y-67445671D01*
X116339169Y-67470815D01*
X116330391Y-67490696D01*
X116316812Y-67504274D01*
X116301777Y-67526777D01*
X116279274Y-67541812D01*
X116265696Y-67555391D01*
X116245815Y-67564169D01*
X116220671Y-67580970D01*
X116197185Y-67585641D01*
X116180040Y-67593212D01*
X116129861Y-67599032D01*
X116125000Y-67600000D01*
X114875000Y-67600000D01*
X114870138Y-67599032D01*
X114819959Y-67593212D01*
X114802812Y-67585641D01*
X114779329Y-67580970D01*
X114754186Y-67564170D01*
X114734303Y-67555391D01*
X114720722Y-67541810D01*
X114698223Y-67526777D01*
X114683189Y-67504277D01*
X114669608Y-67490696D01*
X114660827Y-67470810D01*
X114644030Y-67445671D01*
X114639359Y-67422189D01*
X114631787Y-67405040D01*
X114625964Y-67354849D01*
X114625000Y-67350000D01*
X114625000Y-66550000D01*
X114625964Y-66545150D01*
X114631787Y-66494959D01*
X114639359Y-66477808D01*
X114644030Y-66454329D01*
X114660826Y-66429191D01*
X114669608Y-66409303D01*
X114683191Y-66395719D01*
X114698223Y-66373223D01*
X114720719Y-66358191D01*
X114734303Y-66344608D01*
X114754191Y-66335826D01*
X114779329Y-66319030D01*
X114802808Y-66314359D01*
X114819959Y-66306787D01*
X114870151Y-66300964D01*
X114875000Y-66300000D01*
X116125000Y-66300000D01*
X116129850Y-66300964D01*
G37*
G36*
X94150000Y-67500000D02*
G01*
X91650000Y-67500000D01*
X91650000Y-66500000D01*
X94150000Y-66500000D01*
X94150000Y-67500000D01*
G37*
G36*
X109350000Y-67500000D02*
G01*
X106850000Y-67500000D01*
X106850000Y-66500000D01*
X109350000Y-66500000D01*
X109350000Y-67500000D01*
G37*
G36*
X46439805Y-66832836D02*
G01*
X46507628Y-66871994D01*
X46563006Y-66927372D01*
X46602164Y-66995195D01*
X46622433Y-67070842D01*
X46622433Y-67149158D01*
X46602164Y-67224805D01*
X46563006Y-67292628D01*
X46507628Y-67348006D01*
X46439805Y-67387164D01*
X46364158Y-67407433D01*
X46285842Y-67407433D01*
X46210195Y-67387164D01*
X46142372Y-67348006D01*
X46086994Y-67292628D01*
X46047836Y-67224805D01*
X46027567Y-67149158D01*
X46027567Y-67070842D01*
X46047836Y-66995195D01*
X46086994Y-66927372D01*
X46142372Y-66871994D01*
X46210195Y-66832836D01*
X46285842Y-66812567D01*
X46364158Y-66812567D01*
X46439805Y-66832836D01*
G37*
G36*
X86019903Y-66711418D02*
G01*
X86068566Y-66743934D01*
X86101082Y-66792597D01*
X86112500Y-66850000D01*
X86112500Y-67150000D01*
X86101082Y-67207403D01*
X86068566Y-67256066D01*
X86019903Y-67288582D01*
X85962500Y-67300000D01*
X84787500Y-67300000D01*
X84730097Y-67288582D01*
X84681434Y-67256066D01*
X84648918Y-67207403D01*
X84637500Y-67150000D01*
X84637500Y-66850000D01*
X84648918Y-66792597D01*
X84681434Y-66743934D01*
X84730097Y-66711418D01*
X84787500Y-66700000D01*
X85962500Y-66700000D01*
X86019903Y-66711418D01*
G37*
G36*
X47965000Y-67100000D02*
G01*
X46805000Y-67100000D01*
X46805000Y-66500000D01*
X47965000Y-66500000D01*
X47965000Y-67100000D01*
G37*
G36*
X61907403Y-66346418D02*
G01*
X61956066Y-66378934D01*
X61988582Y-66427597D01*
X62000000Y-66485000D01*
X62000000Y-66785000D01*
X61988582Y-66842403D01*
X61956066Y-66891066D01*
X61907403Y-66923582D01*
X61850000Y-66935000D01*
X60200000Y-66935000D01*
X60142597Y-66923582D01*
X60093934Y-66891066D01*
X60061418Y-66842403D01*
X60050000Y-66785000D01*
X60050000Y-66485000D01*
X60061418Y-66427597D01*
X60093934Y-66378934D01*
X60142597Y-66346418D01*
X60200000Y-66335000D01*
X61850000Y-66335000D01*
X61907403Y-66346418D01*
G37*
G36*
X66857403Y-66346418D02*
G01*
X66906066Y-66378934D01*
X66938582Y-66427597D01*
X66950000Y-66485000D01*
X66950000Y-66785000D01*
X66938582Y-66842403D01*
X66906066Y-66891066D01*
X66857403Y-66923582D01*
X66800000Y-66935000D01*
X65150000Y-66935000D01*
X65092597Y-66923582D01*
X65043934Y-66891066D01*
X65011418Y-66842403D01*
X65000000Y-66785000D01*
X65000000Y-66485000D01*
X65011418Y-66427597D01*
X65043934Y-66378934D01*
X65092597Y-66346418D01*
X65150000Y-66335000D01*
X66800000Y-66335000D01*
X66857403Y-66346418D01*
G37*
G36*
X79780071Y-65050738D02*
G01*
X79842973Y-65056637D01*
X79858968Y-65062234D01*
X79882001Y-65065590D01*
X79915852Y-65082139D01*
X79949909Y-65094056D01*
X79968902Y-65108073D01*
X79992904Y-65119807D01*
X80015730Y-65142633D01*
X80039686Y-65160313D01*
X80057365Y-65184268D01*
X80080193Y-65207096D01*
X80091927Y-65231099D01*
X80105943Y-65250090D01*
X80117858Y-65284142D01*
X80134410Y-65317999D01*
X80137766Y-65341034D01*
X80143362Y-65357026D01*
X80149258Y-65419912D01*
X80150000Y-65425000D01*
X80150000Y-66175000D01*
X80149258Y-66180091D01*
X80143362Y-66242973D01*
X80137766Y-66258963D01*
X80134410Y-66282001D01*
X80117857Y-66315859D01*
X80105943Y-66349909D01*
X80091928Y-66368898D01*
X80080193Y-66392904D01*
X80057362Y-66415734D01*
X80039686Y-66439686D01*
X80015734Y-66457362D01*
X79992904Y-66480193D01*
X79968898Y-66491928D01*
X79949909Y-66505943D01*
X79915859Y-66517857D01*
X79882001Y-66534410D01*
X79858963Y-66537766D01*
X79842973Y-66543362D01*
X79780089Y-66549258D01*
X79775000Y-66550000D01*
X78525000Y-66550000D01*
X78519910Y-66549258D01*
X78457026Y-66543362D01*
X78441034Y-66537766D01*
X78417999Y-66534410D01*
X78384142Y-66517858D01*
X78350090Y-66505943D01*
X78331099Y-66491927D01*
X78307096Y-66480193D01*
X78284268Y-66457365D01*
X78260313Y-66439686D01*
X78242633Y-66415730D01*
X78219807Y-66392904D01*
X78208073Y-66368902D01*
X78194056Y-66349909D01*
X78182139Y-66315852D01*
X78165590Y-66282001D01*
X78162234Y-66258968D01*
X78156637Y-66242973D01*
X78150738Y-66180070D01*
X78150000Y-66175000D01*
X78150000Y-65425000D01*
X78150738Y-65419930D01*
X78156637Y-65357026D01*
X78162234Y-65341029D01*
X78165590Y-65317999D01*
X78182137Y-65284149D01*
X78194056Y-65250090D01*
X78208074Y-65231095D01*
X78219807Y-65207096D01*
X78242630Y-65184272D01*
X78260313Y-65160313D01*
X78284272Y-65142630D01*
X78307096Y-65119807D01*
X78331095Y-65108074D01*
X78350090Y-65094056D01*
X78384149Y-65082137D01*
X78417999Y-65065590D01*
X78441029Y-65062234D01*
X78457026Y-65056637D01*
X78519931Y-65050738D01*
X78525000Y-65050000D01*
X79775000Y-65050000D01*
X79780071Y-65050738D01*
G37*
G36*
X84144903Y-65761418D02*
G01*
X84193566Y-65793934D01*
X84226082Y-65842597D01*
X84237500Y-65900000D01*
X84237500Y-66200000D01*
X84226082Y-66257403D01*
X84193566Y-66306066D01*
X84144903Y-66338582D01*
X84087500Y-66350000D01*
X82912500Y-66350000D01*
X82855097Y-66338582D01*
X82806434Y-66306066D01*
X82773918Y-66257403D01*
X82762500Y-66200000D01*
X82762500Y-65900000D01*
X82773918Y-65842597D01*
X82806434Y-65793934D01*
X82855097Y-65761418D01*
X82912500Y-65750000D01*
X84087500Y-65750000D01*
X84144903Y-65761418D01*
G37*
G36*
X43093737Y-65233850D02*
G01*
X43207208Y-65264254D01*
X43308943Y-65322991D01*
X43392009Y-65406057D01*
X43450746Y-65507792D01*
X43481150Y-65621263D01*
X43481150Y-65738737D01*
X43450746Y-65852208D01*
X43392009Y-65953943D01*
X43308943Y-66037009D01*
X43207208Y-66095746D01*
X43093737Y-66126150D01*
X43035000Y-66130000D01*
X43033029Y-66130000D01*
X42236971Y-66130000D01*
X42235000Y-66130000D01*
X42176263Y-66126150D01*
X42062792Y-66095746D01*
X41961057Y-66037009D01*
X41877991Y-65953943D01*
X41819254Y-65852208D01*
X41788850Y-65738737D01*
X41788850Y-65621263D01*
X41819254Y-65507792D01*
X41877991Y-65406057D01*
X41961057Y-65322991D01*
X42062792Y-65264254D01*
X42176263Y-65233850D01*
X42235000Y-65230000D01*
X43035000Y-65230000D01*
X43093737Y-65233850D01*
G37*
G36*
X47413737Y-65233850D02*
G01*
X47527208Y-65264254D01*
X47628943Y-65322991D01*
X47712009Y-65406057D01*
X47770746Y-65507792D01*
X47801150Y-65621263D01*
X47801150Y-65738737D01*
X47770746Y-65852208D01*
X47712009Y-65953943D01*
X47628943Y-66037009D01*
X47527208Y-66095746D01*
X47413737Y-66126150D01*
X47355000Y-66130000D01*
X47353029Y-66130000D01*
X46256971Y-66130000D01*
X46255000Y-66130000D01*
X46196263Y-66126150D01*
X46082792Y-66095746D01*
X45981057Y-66037009D01*
X45897991Y-65953943D01*
X45839254Y-65852208D01*
X45808850Y-65738737D01*
X45808850Y-65621263D01*
X45839254Y-65507792D01*
X45897991Y-65406057D01*
X45981057Y-65322991D01*
X46082792Y-65264254D01*
X46196263Y-65233850D01*
X46255000Y-65230000D01*
X47355000Y-65230000D01*
X47413737Y-65233850D01*
G37*
G36*
X153500000Y-66000000D02*
G01*
X151500000Y-66000000D01*
X151500000Y-64000000D01*
X153500000Y-64000000D01*
X153500000Y-66000000D01*
G37*
G36*
X167290285Y-64043060D02*
G01*
X167471397Y-64118079D01*
X167634393Y-64226990D01*
X167773010Y-64365607D01*
X167881921Y-64528603D01*
X167956940Y-64709715D01*
X167995185Y-64901983D01*
X167995185Y-65098017D01*
X167956940Y-65290285D01*
X167881921Y-65471397D01*
X167773010Y-65634393D01*
X167634393Y-65773010D01*
X167471397Y-65881921D01*
X167290285Y-65956940D01*
X167098017Y-65995185D01*
X166901983Y-65995185D01*
X166709715Y-65956940D01*
X166528603Y-65881921D01*
X166365607Y-65773010D01*
X166226990Y-65634393D01*
X166118079Y-65471397D01*
X166043060Y-65290285D01*
X166004815Y-65098017D01*
X166004815Y-64901983D01*
X166043060Y-64709715D01*
X166118079Y-64528603D01*
X166226990Y-64365607D01*
X166365607Y-64226990D01*
X166528603Y-64118079D01*
X166709715Y-64043060D01*
X166901983Y-64004815D01*
X167098017Y-64004815D01*
X167290285Y-64043060D01*
G37*
G36*
X70654850Y-64400964D02*
G01*
X70705040Y-64406787D01*
X70722189Y-64414359D01*
X70745671Y-64419030D01*
X70770810Y-64435827D01*
X70790696Y-64444608D01*
X70804277Y-64458189D01*
X70826777Y-64473223D01*
X70841810Y-64495722D01*
X70855391Y-64509303D01*
X70864170Y-64529186D01*
X70880970Y-64554329D01*
X70885641Y-64577812D01*
X70893212Y-64594959D01*
X70899033Y-64645139D01*
X70900000Y-64650000D01*
X70900000Y-65475000D01*
X70899032Y-65479863D01*
X70893212Y-65530040D01*
X70885641Y-65547185D01*
X70880970Y-65570671D01*
X70864169Y-65595815D01*
X70855391Y-65615696D01*
X70841812Y-65629274D01*
X70826777Y-65651777D01*
X70804274Y-65666812D01*
X70790696Y-65680391D01*
X70770815Y-65689169D01*
X70745671Y-65705970D01*
X70722185Y-65710641D01*
X70705040Y-65718212D01*
X70654861Y-65724032D01*
X70650000Y-65725000D01*
X69350000Y-65725000D01*
X69345138Y-65724032D01*
X69294959Y-65718212D01*
X69277812Y-65710641D01*
X69254329Y-65705970D01*
X69229186Y-65689170D01*
X69209303Y-65680391D01*
X69195722Y-65666810D01*
X69173223Y-65651777D01*
X69158189Y-65629277D01*
X69144608Y-65615696D01*
X69135827Y-65595810D01*
X69119030Y-65570671D01*
X69114359Y-65547189D01*
X69106787Y-65530040D01*
X69100964Y-65479849D01*
X69100000Y-65475000D01*
X69100000Y-64650000D01*
X69100964Y-64645150D01*
X69106787Y-64594959D01*
X69114359Y-64577808D01*
X69119030Y-64554329D01*
X69135826Y-64529191D01*
X69144608Y-64509303D01*
X69158191Y-64495719D01*
X69173223Y-64473223D01*
X69195719Y-64458191D01*
X69209303Y-64444608D01*
X69229191Y-64435826D01*
X69254329Y-64419030D01*
X69277808Y-64414359D01*
X69294959Y-64406787D01*
X69345151Y-64400964D01*
X69350000Y-64400000D01*
X70650000Y-64400000D01*
X70654850Y-64400964D01*
G37*
G36*
X61907403Y-65076418D02*
G01*
X61956066Y-65108934D01*
X61988582Y-65157597D01*
X62000000Y-65215000D01*
X62000000Y-65515000D01*
X61988582Y-65572403D01*
X61956066Y-65621066D01*
X61907403Y-65653582D01*
X61850000Y-65665000D01*
X60200000Y-65665000D01*
X60142597Y-65653582D01*
X60093934Y-65621066D01*
X60061418Y-65572403D01*
X60050000Y-65515000D01*
X60050000Y-65215000D01*
X60061418Y-65157597D01*
X60093934Y-65108934D01*
X60142597Y-65076418D01*
X60200000Y-65065000D01*
X61850000Y-65065000D01*
X61907403Y-65076418D01*
G37*
G36*
X66857403Y-65076418D02*
G01*
X66906066Y-65108934D01*
X66938582Y-65157597D01*
X66950000Y-65215000D01*
X66950000Y-65515000D01*
X66938582Y-65572403D01*
X66906066Y-65621066D01*
X66857403Y-65653582D01*
X66800000Y-65665000D01*
X65150000Y-65665000D01*
X65092597Y-65653582D01*
X65043934Y-65621066D01*
X65011418Y-65572403D01*
X65000000Y-65515000D01*
X65000000Y-65215000D01*
X65011418Y-65157597D01*
X65043934Y-65108934D01*
X65092597Y-65076418D01*
X65150000Y-65065000D01*
X66800000Y-65065000D01*
X66857403Y-65076418D01*
G37*
G36*
X89629850Y-64300964D02*
G01*
X89680040Y-64306787D01*
X89697189Y-64314359D01*
X89720671Y-64319030D01*
X89745810Y-64335827D01*
X89765696Y-64344608D01*
X89779277Y-64358189D01*
X89801777Y-64373223D01*
X89816810Y-64395722D01*
X89830391Y-64409303D01*
X89839170Y-64429186D01*
X89855970Y-64454329D01*
X89860641Y-64477812D01*
X89868212Y-64494959D01*
X89874033Y-64545139D01*
X89875000Y-64550000D01*
X89875000Y-65350000D01*
X89874032Y-65354863D01*
X89868212Y-65405040D01*
X89860641Y-65422185D01*
X89855970Y-65445671D01*
X89839169Y-65470815D01*
X89830391Y-65490696D01*
X89816812Y-65504274D01*
X89801777Y-65526777D01*
X89779274Y-65541812D01*
X89765696Y-65555391D01*
X89745815Y-65564169D01*
X89720671Y-65580970D01*
X89697185Y-65585641D01*
X89680040Y-65593212D01*
X89629861Y-65599032D01*
X89625000Y-65600000D01*
X88375000Y-65600000D01*
X88370138Y-65599032D01*
X88319959Y-65593212D01*
X88302812Y-65585641D01*
X88279329Y-65580970D01*
X88254186Y-65564170D01*
X88234303Y-65555391D01*
X88220722Y-65541810D01*
X88198223Y-65526777D01*
X88183189Y-65504277D01*
X88169608Y-65490696D01*
X88160827Y-65470810D01*
X88144030Y-65445671D01*
X88139359Y-65422189D01*
X88131787Y-65405040D01*
X88125964Y-65354849D01*
X88125000Y-65350000D01*
X88125000Y-64550000D01*
X88125964Y-64545150D01*
X88131787Y-64494959D01*
X88139359Y-64477808D01*
X88144030Y-64454329D01*
X88160826Y-64429191D01*
X88169608Y-64409303D01*
X88183191Y-64395719D01*
X88198223Y-64373223D01*
X88220719Y-64358191D01*
X88234303Y-64344608D01*
X88254191Y-64335826D01*
X88279329Y-64319030D01*
X88302808Y-64314359D01*
X88319959Y-64306787D01*
X88370151Y-64300964D01*
X88375000Y-64300000D01*
X89625000Y-64300000D01*
X89629850Y-64300964D01*
G37*
G36*
X94150000Y-65500000D02*
G01*
X91650000Y-65500000D01*
X91650000Y-64500000D01*
X94150000Y-64500000D01*
X94150000Y-65500000D01*
G37*
G36*
X109350000Y-65500000D02*
G01*
X106850000Y-65500000D01*
X106850000Y-64500000D01*
X109350000Y-64500000D01*
X109350000Y-65500000D01*
G37*
G36*
X73456283Y-61611427D02*
G01*
X73463268Y-61614032D01*
X73467762Y-61614572D01*
X73520931Y-61635539D01*
X73589624Y-61661161D01*
X73593768Y-61664263D01*
X73594776Y-61664661D01*
X73631416Y-61692446D01*
X73703553Y-61746447D01*
X73757572Y-61818608D01*
X73785338Y-61855223D01*
X73785734Y-61856229D01*
X73788839Y-61860376D01*
X73814470Y-61929096D01*
X73835427Y-61982237D01*
X73835966Y-61986728D01*
X73838573Y-61993717D01*
X73850000Y-62100000D01*
X73850000Y-64900000D01*
X73838573Y-65006283D01*
X73835966Y-65013272D01*
X73835427Y-65017762D01*
X73814477Y-65070884D01*
X73788839Y-65139624D01*
X73785734Y-65143771D01*
X73785338Y-65144776D01*
X73757630Y-65181313D01*
X73703553Y-65253553D01*
X73631313Y-65307630D01*
X73594776Y-65335338D01*
X73593771Y-65335734D01*
X73589624Y-65338839D01*
X73520884Y-65364477D01*
X73467762Y-65385427D01*
X73463272Y-65385966D01*
X73456283Y-65388573D01*
X73350000Y-65400000D01*
X72350000Y-65400000D01*
X72243717Y-65388573D01*
X72236728Y-65385966D01*
X72232237Y-65385427D01*
X72179096Y-65364470D01*
X72110376Y-65338839D01*
X72106229Y-65335734D01*
X72105223Y-65335338D01*
X72068608Y-65307572D01*
X71996447Y-65253553D01*
X71942446Y-65181416D01*
X71914661Y-65144776D01*
X71914263Y-65143768D01*
X71911161Y-65139624D01*
X71885539Y-65070931D01*
X71864572Y-65017762D01*
X71864032Y-65013268D01*
X71861427Y-65006283D01*
X71850000Y-64900000D01*
X71850000Y-62100000D01*
X71861427Y-61993717D01*
X71864032Y-61986732D01*
X71864572Y-61982237D01*
X71885546Y-61929049D01*
X71911161Y-61860376D01*
X71914263Y-61856232D01*
X71914661Y-61855223D01*
X71942504Y-61818506D01*
X71996447Y-61746447D01*
X72068506Y-61692504D01*
X72105223Y-61664661D01*
X72106232Y-61664263D01*
X72110376Y-61661161D01*
X72179049Y-61635546D01*
X72232237Y-61614572D01*
X72236732Y-61614032D01*
X72243717Y-61611427D01*
X72350000Y-61600000D01*
X73350000Y-61600000D01*
X73456283Y-61611427D01*
G37*
G36*
X61907403Y-63806418D02*
G01*
X61956066Y-63838934D01*
X61988582Y-63887597D01*
X62000000Y-63945000D01*
X62000000Y-64245000D01*
X61988582Y-64302403D01*
X61956066Y-64351066D01*
X61907403Y-64383582D01*
X61850000Y-64395000D01*
X60200000Y-64395000D01*
X60142597Y-64383582D01*
X60093934Y-64351066D01*
X60061418Y-64302403D01*
X60050000Y-64245000D01*
X60050000Y-63945000D01*
X60061418Y-63887597D01*
X60093934Y-63838934D01*
X60142597Y-63806418D01*
X60200000Y-63795000D01*
X61850000Y-63795000D01*
X61907403Y-63806418D01*
G37*
G36*
X66857403Y-63806418D02*
G01*
X66906066Y-63838934D01*
X66938582Y-63887597D01*
X66950000Y-63945000D01*
X66950000Y-64245000D01*
X66938582Y-64302403D01*
X66906066Y-64351066D01*
X66857403Y-64383582D01*
X66800000Y-64395000D01*
X65150000Y-64395000D01*
X65092597Y-64383582D01*
X65043934Y-64351066D01*
X65011418Y-64302403D01*
X65000000Y-64245000D01*
X65000000Y-63945000D01*
X65011418Y-63887597D01*
X65043934Y-63838934D01*
X65092597Y-63806418D01*
X65150000Y-63795000D01*
X66800000Y-63795000D01*
X66857403Y-63806418D01*
G37*
G36*
X79780071Y-62750738D02*
G01*
X79842973Y-62756637D01*
X79858968Y-62762234D01*
X79882001Y-62765590D01*
X79915852Y-62782139D01*
X79949909Y-62794056D01*
X79968902Y-62808073D01*
X79992904Y-62819807D01*
X80015730Y-62842633D01*
X80039686Y-62860313D01*
X80057365Y-62884268D01*
X80080193Y-62907096D01*
X80091927Y-62931099D01*
X80105943Y-62950090D01*
X80117858Y-62984142D01*
X80134410Y-63017999D01*
X80137766Y-63041034D01*
X80143362Y-63057026D01*
X80149258Y-63119912D01*
X80150000Y-63125000D01*
X80150000Y-63875000D01*
X80149258Y-63880091D01*
X80143362Y-63942973D01*
X80137766Y-63958963D01*
X80134410Y-63982001D01*
X80117857Y-64015859D01*
X80105943Y-64049909D01*
X80091928Y-64068898D01*
X80080193Y-64092904D01*
X80057362Y-64115734D01*
X80039686Y-64139686D01*
X80015734Y-64157362D01*
X79992904Y-64180193D01*
X79968898Y-64191928D01*
X79949909Y-64205943D01*
X79915859Y-64217857D01*
X79882001Y-64234410D01*
X79858963Y-64237766D01*
X79842973Y-64243362D01*
X79780089Y-64249258D01*
X79775000Y-64250000D01*
X78525000Y-64250000D01*
X78519910Y-64249258D01*
X78457026Y-64243362D01*
X78441034Y-64237766D01*
X78417999Y-64234410D01*
X78384142Y-64217858D01*
X78350090Y-64205943D01*
X78331099Y-64191927D01*
X78307096Y-64180193D01*
X78284268Y-64157365D01*
X78260313Y-64139686D01*
X78242633Y-64115730D01*
X78219807Y-64092904D01*
X78208073Y-64068902D01*
X78194056Y-64049909D01*
X78182139Y-64015852D01*
X78165590Y-63982001D01*
X78162234Y-63958968D01*
X78156637Y-63942973D01*
X78150738Y-63880070D01*
X78150000Y-63875000D01*
X78150000Y-63125000D01*
X78150738Y-63119930D01*
X78156637Y-63057026D01*
X78162234Y-63041029D01*
X78165590Y-63017999D01*
X78182137Y-62984149D01*
X78194056Y-62950090D01*
X78208074Y-62931095D01*
X78219807Y-62907096D01*
X78242630Y-62884272D01*
X78260313Y-62860313D01*
X78284272Y-62842630D01*
X78307096Y-62819807D01*
X78331095Y-62808074D01*
X78350090Y-62794056D01*
X78384149Y-62782137D01*
X78417999Y-62765590D01*
X78441029Y-62762234D01*
X78457026Y-62756637D01*
X78519931Y-62750738D01*
X78525000Y-62750000D01*
X79775000Y-62750000D01*
X79780071Y-62750738D01*
G37*
G36*
X116654850Y-62900964D02*
G01*
X116705040Y-62906787D01*
X116722189Y-62914359D01*
X116745671Y-62919030D01*
X116770810Y-62935827D01*
X116790696Y-62944608D01*
X116804277Y-62958189D01*
X116826777Y-62973223D01*
X116841810Y-62995722D01*
X116855391Y-63009303D01*
X116864170Y-63029186D01*
X116880970Y-63054329D01*
X116885641Y-63077812D01*
X116893212Y-63094959D01*
X116899033Y-63145139D01*
X116900000Y-63150000D01*
X116900000Y-63975000D01*
X116899032Y-63979863D01*
X116893212Y-64030040D01*
X116885641Y-64047185D01*
X116880970Y-64070671D01*
X116864169Y-64095815D01*
X116855391Y-64115696D01*
X116841812Y-64129274D01*
X116826777Y-64151777D01*
X116804274Y-64166812D01*
X116790696Y-64180391D01*
X116770815Y-64189169D01*
X116745671Y-64205970D01*
X116722185Y-64210641D01*
X116705040Y-64218212D01*
X116654861Y-64224032D01*
X116650000Y-64225000D01*
X115350000Y-64225000D01*
X115345138Y-64224032D01*
X115294959Y-64218212D01*
X115277812Y-64210641D01*
X115254329Y-64205970D01*
X115229186Y-64189170D01*
X115209303Y-64180391D01*
X115195722Y-64166810D01*
X115173223Y-64151777D01*
X115158189Y-64129277D01*
X115144608Y-64115696D01*
X115135827Y-64095810D01*
X115119030Y-64070671D01*
X115114359Y-64047189D01*
X115106787Y-64030040D01*
X115100964Y-63979849D01*
X115100000Y-63975000D01*
X115100000Y-63150000D01*
X115100964Y-63145150D01*
X115106787Y-63094959D01*
X115114359Y-63077808D01*
X115119030Y-63054329D01*
X115135826Y-63029191D01*
X115144608Y-63009303D01*
X115158191Y-62995719D01*
X115173223Y-62973223D01*
X115195719Y-62958191D01*
X115209303Y-62944608D01*
X115229191Y-62935826D01*
X115254329Y-62919030D01*
X115277808Y-62914359D01*
X115294959Y-62906787D01*
X115345151Y-62900964D01*
X115350000Y-62900000D01*
X116650000Y-62900000D01*
X116654850Y-62900964D01*
G37*
G36*
X58629850Y-62900964D02*
G01*
X58680040Y-62906787D01*
X58697189Y-62914359D01*
X58720671Y-62919030D01*
X58745810Y-62935827D01*
X58765696Y-62944608D01*
X58779277Y-62958189D01*
X58801777Y-62973223D01*
X58816810Y-62995722D01*
X58830391Y-63009303D01*
X58839170Y-63029186D01*
X58855970Y-63054329D01*
X58860641Y-63077812D01*
X58868212Y-63094959D01*
X58874033Y-63145139D01*
X58875000Y-63150000D01*
X58875000Y-63950000D01*
X58874032Y-63954863D01*
X58868212Y-64005040D01*
X58860641Y-64022185D01*
X58855970Y-64045671D01*
X58839169Y-64070815D01*
X58830391Y-64090696D01*
X58816812Y-64104274D01*
X58801777Y-64126777D01*
X58779274Y-64141812D01*
X58765696Y-64155391D01*
X58745815Y-64164169D01*
X58720671Y-64180970D01*
X58697185Y-64185641D01*
X58680040Y-64193212D01*
X58629861Y-64199032D01*
X58625000Y-64200000D01*
X57375000Y-64200000D01*
X57370138Y-64199032D01*
X57319959Y-64193212D01*
X57302812Y-64185641D01*
X57279329Y-64180970D01*
X57254186Y-64164170D01*
X57234303Y-64155391D01*
X57220722Y-64141810D01*
X57198223Y-64126777D01*
X57183189Y-64104277D01*
X57169608Y-64090696D01*
X57160827Y-64070810D01*
X57144030Y-64045671D01*
X57139359Y-64022189D01*
X57131787Y-64005040D01*
X57125964Y-63954849D01*
X57125000Y-63950000D01*
X57125000Y-63150000D01*
X57125964Y-63145150D01*
X57131787Y-63094959D01*
X57139359Y-63077808D01*
X57144030Y-63054329D01*
X57160826Y-63029191D01*
X57169608Y-63009303D01*
X57183191Y-62995719D01*
X57198223Y-62973223D01*
X57220719Y-62958191D01*
X57234303Y-62944608D01*
X57254191Y-62935826D01*
X57279329Y-62919030D01*
X57302808Y-62914359D01*
X57319959Y-62906787D01*
X57370151Y-62900964D01*
X57375000Y-62900000D01*
X58625000Y-62900000D01*
X58629850Y-62900964D01*
G37*
G36*
X119629850Y-62900964D02*
G01*
X119680040Y-62906787D01*
X119697189Y-62914359D01*
X119720671Y-62919030D01*
X119745810Y-62935827D01*
X119765696Y-62944608D01*
X119779277Y-62958189D01*
X119801777Y-62973223D01*
X119816810Y-62995722D01*
X119830391Y-63009303D01*
X119839170Y-63029186D01*
X119855970Y-63054329D01*
X119860641Y-63077812D01*
X119868212Y-63094959D01*
X119874033Y-63145139D01*
X119875000Y-63150000D01*
X119875000Y-63950000D01*
X119874032Y-63954863D01*
X119868212Y-64005040D01*
X119860641Y-64022185D01*
X119855970Y-64045671D01*
X119839169Y-64070815D01*
X119830391Y-64090696D01*
X119816812Y-64104274D01*
X119801777Y-64126777D01*
X119779274Y-64141812D01*
X119765696Y-64155391D01*
X119745815Y-64164169D01*
X119720671Y-64180970D01*
X119697185Y-64185641D01*
X119680040Y-64193212D01*
X119629861Y-64199032D01*
X119625000Y-64200000D01*
X118375000Y-64200000D01*
X118370138Y-64199032D01*
X118319959Y-64193212D01*
X118302812Y-64185641D01*
X118279329Y-64180970D01*
X118254186Y-64164170D01*
X118234303Y-64155391D01*
X118220722Y-64141810D01*
X118198223Y-64126777D01*
X118183189Y-64104277D01*
X118169608Y-64090696D01*
X118160827Y-64070810D01*
X118144030Y-64045671D01*
X118139359Y-64022189D01*
X118131787Y-64005040D01*
X118125964Y-63954849D01*
X118125000Y-63950000D01*
X118125000Y-63150000D01*
X118125964Y-63145150D01*
X118131787Y-63094959D01*
X118139359Y-63077808D01*
X118144030Y-63054329D01*
X118160826Y-63029191D01*
X118169608Y-63009303D01*
X118183191Y-62995719D01*
X118198223Y-62973223D01*
X118220719Y-62958191D01*
X118234303Y-62944608D01*
X118254191Y-62935826D01*
X118279329Y-62919030D01*
X118302808Y-62914359D01*
X118319959Y-62906787D01*
X118370151Y-62900964D01*
X118375000Y-62900000D01*
X119625000Y-62900000D01*
X119629850Y-62900964D01*
G37*
G36*
X94150000Y-63500000D02*
G01*
X91650000Y-63500000D01*
X91650000Y-62500000D01*
X94150000Y-62500000D01*
X94150000Y-63500000D01*
G37*
G36*
X109350000Y-63500000D02*
G01*
X106850000Y-63500000D01*
X106850000Y-62500000D01*
X109350000Y-62500000D01*
X109350000Y-63500000D01*
G37*
G36*
X84082403Y-62711418D02*
G01*
X84131066Y-62743934D01*
X84163582Y-62792597D01*
X84175000Y-62850000D01*
X84175000Y-63150000D01*
X84163582Y-63207403D01*
X84131066Y-63256066D01*
X84082403Y-63288582D01*
X84025000Y-63300000D01*
X82850000Y-63300000D01*
X82792597Y-63288582D01*
X82743934Y-63256066D01*
X82711418Y-63207403D01*
X82700000Y-63150000D01*
X82700000Y-62850000D01*
X82711418Y-62792597D01*
X82743934Y-62743934D01*
X82792597Y-62711418D01*
X82850000Y-62700000D01*
X84025000Y-62700000D01*
X84082403Y-62711418D01*
G37*
G36*
X160326824Y-60538682D02*
G01*
X160535757Y-60606569D01*
X160731498Y-60706304D01*
X160909227Y-60835432D01*
X161064568Y-60990773D01*
X161193696Y-61168502D01*
X161293431Y-61364243D01*
X161361318Y-61573176D01*
X161395684Y-61790157D01*
X161395684Y-62009843D01*
X161361318Y-62226824D01*
X161293431Y-62435757D01*
X161193696Y-62631498D01*
X161064568Y-62809227D01*
X160909227Y-62964568D01*
X160731498Y-63093696D01*
X160535757Y-63193431D01*
X160326824Y-63261318D01*
X160109843Y-63295684D01*
X159890157Y-63295684D01*
X159673176Y-63261318D01*
X159464243Y-63193431D01*
X159268502Y-63093696D01*
X159090773Y-62964568D01*
X158935432Y-62809227D01*
X158806304Y-62631498D01*
X158706569Y-62435757D01*
X158638682Y-62226824D01*
X158604316Y-62009843D01*
X158604316Y-61790157D01*
X158638682Y-61573176D01*
X158706569Y-61364243D01*
X158806304Y-61168502D01*
X158935432Y-60990773D01*
X159090773Y-60835432D01*
X159268502Y-60706304D01*
X159464243Y-60606569D01*
X159673176Y-60538682D01*
X159890157Y-60504316D01*
X160109843Y-60504316D01*
X160326824Y-60538682D01*
G37*
G36*
X61907403Y-62536418D02*
G01*
X61956066Y-62568934D01*
X61988582Y-62617597D01*
X62000000Y-62675000D01*
X62000000Y-62975000D01*
X61988582Y-63032403D01*
X61956066Y-63081066D01*
X61907403Y-63113582D01*
X61850000Y-63125000D01*
X60200000Y-63125000D01*
X60142597Y-63113582D01*
X60093934Y-63081066D01*
X60061418Y-63032403D01*
X60050000Y-62975000D01*
X60050000Y-62675000D01*
X60061418Y-62617597D01*
X60093934Y-62568934D01*
X60142597Y-62536418D01*
X60200000Y-62525000D01*
X61850000Y-62525000D01*
X61907403Y-62536418D01*
G37*
G36*
X66857403Y-62536418D02*
G01*
X66906066Y-62568934D01*
X66938582Y-62617597D01*
X66950000Y-62675000D01*
X66950000Y-62975000D01*
X66938582Y-63032403D01*
X66906066Y-63081066D01*
X66857403Y-63113582D01*
X66800000Y-63125000D01*
X65150000Y-63125000D01*
X65092597Y-63113582D01*
X65043934Y-63081066D01*
X65011418Y-63032403D01*
X65000000Y-62975000D01*
X65000000Y-62675000D01*
X65011418Y-62617597D01*
X65043934Y-62568934D01*
X65092597Y-62536418D01*
X65150000Y-62525000D01*
X66800000Y-62525000D01*
X66857403Y-62536418D01*
G37*
G36*
X143304850Y-61200964D02*
G01*
X143355040Y-61206787D01*
X143372189Y-61214359D01*
X143395671Y-61219030D01*
X143420810Y-61235827D01*
X143440696Y-61244608D01*
X143454277Y-61258189D01*
X143476777Y-61273223D01*
X143491810Y-61295722D01*
X143505391Y-61309303D01*
X143514170Y-61329186D01*
X143530970Y-61354329D01*
X143535641Y-61377812D01*
X143543212Y-61394959D01*
X143549033Y-61445139D01*
X143550000Y-61450000D01*
X143550000Y-62550000D01*
X143549032Y-62554863D01*
X143543212Y-62605040D01*
X143535641Y-62622185D01*
X143530970Y-62645671D01*
X143514169Y-62670815D01*
X143505391Y-62690696D01*
X143491812Y-62704274D01*
X143476777Y-62726777D01*
X143454274Y-62741812D01*
X143440696Y-62755391D01*
X143420815Y-62764169D01*
X143395671Y-62780970D01*
X143372185Y-62785641D01*
X143355040Y-62793212D01*
X143304861Y-62799032D01*
X143300000Y-62800000D01*
X140300000Y-62800000D01*
X140295138Y-62799032D01*
X140244959Y-62793212D01*
X140227812Y-62785641D01*
X140204329Y-62780970D01*
X140179186Y-62764170D01*
X140159303Y-62755391D01*
X140145722Y-62741810D01*
X140123223Y-62726777D01*
X140108189Y-62704277D01*
X140094608Y-62690696D01*
X140085827Y-62670810D01*
X140069030Y-62645671D01*
X140064359Y-62622189D01*
X140056787Y-62605040D01*
X140050964Y-62554849D01*
X140050000Y-62550000D01*
X140050000Y-61450000D01*
X140050964Y-61445150D01*
X140056787Y-61394959D01*
X140064359Y-61377808D01*
X140069030Y-61354329D01*
X140085826Y-61329191D01*
X140094608Y-61309303D01*
X140108191Y-61295719D01*
X140123223Y-61273223D01*
X140145719Y-61258191D01*
X140159303Y-61244608D01*
X140179191Y-61235826D01*
X140204329Y-61219030D01*
X140227808Y-61214359D01*
X140244959Y-61206787D01*
X140295151Y-61200964D01*
X140300000Y-61200000D01*
X143300000Y-61200000D01*
X143304850Y-61200964D01*
G37*
G36*
X148704850Y-61200964D02*
G01*
X148755040Y-61206787D01*
X148772189Y-61214359D01*
X148795671Y-61219030D01*
X148820810Y-61235827D01*
X148840696Y-61244608D01*
X148854277Y-61258189D01*
X148876777Y-61273223D01*
X148891810Y-61295722D01*
X148905391Y-61309303D01*
X148914170Y-61329186D01*
X148930970Y-61354329D01*
X148935641Y-61377812D01*
X148943212Y-61394959D01*
X148949033Y-61445139D01*
X148950000Y-61450000D01*
X148950000Y-62550000D01*
X148949032Y-62554863D01*
X148943212Y-62605040D01*
X148935641Y-62622185D01*
X148930970Y-62645671D01*
X148914169Y-62670815D01*
X148905391Y-62690696D01*
X148891812Y-62704274D01*
X148876777Y-62726777D01*
X148854274Y-62741812D01*
X148840696Y-62755391D01*
X148820815Y-62764169D01*
X148795671Y-62780970D01*
X148772185Y-62785641D01*
X148755040Y-62793212D01*
X148704861Y-62799032D01*
X148700000Y-62800000D01*
X145700000Y-62800000D01*
X145695138Y-62799032D01*
X145644959Y-62793212D01*
X145627812Y-62785641D01*
X145604329Y-62780970D01*
X145579186Y-62764170D01*
X145559303Y-62755391D01*
X145545722Y-62741810D01*
X145523223Y-62726777D01*
X145508189Y-62704277D01*
X145494608Y-62690696D01*
X145485827Y-62670810D01*
X145469030Y-62645671D01*
X145464359Y-62622189D01*
X145456787Y-62605040D01*
X145450964Y-62554849D01*
X145450000Y-62550000D01*
X145450000Y-61450000D01*
X145450964Y-61445150D01*
X145456787Y-61394959D01*
X145464359Y-61377808D01*
X145469030Y-61354329D01*
X145485826Y-61329191D01*
X145494608Y-61309303D01*
X145508191Y-61295719D01*
X145523223Y-61273223D01*
X145545719Y-61258191D01*
X145559303Y-61244608D01*
X145579191Y-61235826D01*
X145604329Y-61219030D01*
X145627808Y-61214359D01*
X145644959Y-61206787D01*
X145695151Y-61200964D01*
X145700000Y-61200000D01*
X148700000Y-61200000D01*
X148704850Y-61200964D01*
G37*
G36*
X89629850Y-61400964D02*
G01*
X89680040Y-61406787D01*
X89697189Y-61414359D01*
X89720671Y-61419030D01*
X89745810Y-61435827D01*
X89765696Y-61444608D01*
X89779277Y-61458189D01*
X89801777Y-61473223D01*
X89816810Y-61495722D01*
X89830391Y-61509303D01*
X89839170Y-61529186D01*
X89855970Y-61554329D01*
X89860641Y-61577812D01*
X89868212Y-61594959D01*
X89874033Y-61645139D01*
X89875000Y-61650000D01*
X89875000Y-62450000D01*
X89874032Y-62454863D01*
X89868212Y-62505040D01*
X89860641Y-62522185D01*
X89855970Y-62545671D01*
X89839169Y-62570815D01*
X89830391Y-62590696D01*
X89816812Y-62604274D01*
X89801777Y-62626777D01*
X89779274Y-62641812D01*
X89765696Y-62655391D01*
X89745815Y-62664169D01*
X89720671Y-62680970D01*
X89697185Y-62685641D01*
X89680040Y-62693212D01*
X89629861Y-62699032D01*
X89625000Y-62700000D01*
X88375000Y-62700000D01*
X88370138Y-62699032D01*
X88319959Y-62693212D01*
X88302812Y-62685641D01*
X88279329Y-62680970D01*
X88254186Y-62664170D01*
X88234303Y-62655391D01*
X88220722Y-62641810D01*
X88198223Y-62626777D01*
X88183189Y-62604277D01*
X88169608Y-62590696D01*
X88160827Y-62570810D01*
X88144030Y-62545671D01*
X88139359Y-62522189D01*
X88131787Y-62505040D01*
X88125964Y-62454849D01*
X88125000Y-62450000D01*
X88125000Y-61650000D01*
X88125964Y-61645150D01*
X88131787Y-61594959D01*
X88139359Y-61577808D01*
X88144030Y-61554329D01*
X88160826Y-61529191D01*
X88169608Y-61509303D01*
X88183191Y-61495719D01*
X88198223Y-61473223D01*
X88220719Y-61458191D01*
X88234303Y-61444608D01*
X88254191Y-61435826D01*
X88279329Y-61419030D01*
X88302808Y-61414359D01*
X88319959Y-61406787D01*
X88370151Y-61400964D01*
X88375000Y-61400000D01*
X89625000Y-61400000D01*
X89629850Y-61400964D01*
G37*
G36*
X70654850Y-61275964D02*
G01*
X70705040Y-61281787D01*
X70722189Y-61289359D01*
X70745671Y-61294030D01*
X70770810Y-61310827D01*
X70790696Y-61319608D01*
X70804277Y-61333189D01*
X70826777Y-61348223D01*
X70841810Y-61370722D01*
X70855391Y-61384303D01*
X70864170Y-61404186D01*
X70880970Y-61429329D01*
X70885641Y-61452812D01*
X70893212Y-61469959D01*
X70899033Y-61520139D01*
X70900000Y-61525000D01*
X70900000Y-62350000D01*
X70899032Y-62354863D01*
X70893212Y-62405040D01*
X70885641Y-62422185D01*
X70880970Y-62445671D01*
X70864169Y-62470815D01*
X70855391Y-62490696D01*
X70841812Y-62504274D01*
X70826777Y-62526777D01*
X70804274Y-62541812D01*
X70790696Y-62555391D01*
X70770815Y-62564169D01*
X70745671Y-62580970D01*
X70722185Y-62585641D01*
X70705040Y-62593212D01*
X70654861Y-62599032D01*
X70650000Y-62600000D01*
X69350000Y-62600000D01*
X69345138Y-62599032D01*
X69294959Y-62593212D01*
X69277812Y-62585641D01*
X69254329Y-62580970D01*
X69229186Y-62564170D01*
X69209303Y-62555391D01*
X69195722Y-62541810D01*
X69173223Y-62526777D01*
X69158189Y-62504277D01*
X69144608Y-62490696D01*
X69135827Y-62470810D01*
X69119030Y-62445671D01*
X69114359Y-62422189D01*
X69106787Y-62405040D01*
X69100964Y-62354849D01*
X69100000Y-62350000D01*
X69100000Y-61525000D01*
X69100964Y-61520150D01*
X69106787Y-61469959D01*
X69114359Y-61452808D01*
X69119030Y-61429329D01*
X69135826Y-61404191D01*
X69144608Y-61384303D01*
X69158191Y-61370719D01*
X69173223Y-61348223D01*
X69195719Y-61333191D01*
X69209303Y-61319608D01*
X69229191Y-61310826D01*
X69254329Y-61294030D01*
X69277808Y-61289359D01*
X69294959Y-61281787D01*
X69345151Y-61275964D01*
X69350000Y-61275000D01*
X70650000Y-61275000D01*
X70654850Y-61275964D01*
G37*
G36*
X85957403Y-61761418D02*
G01*
X86006066Y-61793934D01*
X86038582Y-61842597D01*
X86050000Y-61900000D01*
X86050000Y-62200000D01*
X86038582Y-62257403D01*
X86006066Y-62306066D01*
X85957403Y-62338582D01*
X85900000Y-62350000D01*
X84725000Y-62350000D01*
X84667597Y-62338582D01*
X84618934Y-62306066D01*
X84586418Y-62257403D01*
X84575000Y-62200000D01*
X84575000Y-61900000D01*
X84586418Y-61842597D01*
X84618934Y-61793934D01*
X84667597Y-61761418D01*
X84725000Y-61750000D01*
X85900000Y-61750000D01*
X85957403Y-61761418D01*
G37*
G36*
X79780071Y-60450738D02*
G01*
X79842973Y-60456637D01*
X79858968Y-60462234D01*
X79882001Y-60465590D01*
X79915852Y-60482139D01*
X79949909Y-60494056D01*
X79968902Y-60508073D01*
X79992904Y-60519807D01*
X80015730Y-60542633D01*
X80039686Y-60560313D01*
X80057365Y-60584268D01*
X80080193Y-60607096D01*
X80091927Y-60631099D01*
X80105943Y-60650090D01*
X80117858Y-60684142D01*
X80134410Y-60717999D01*
X80137766Y-60741034D01*
X80143362Y-60757026D01*
X80149258Y-60819912D01*
X80150000Y-60825000D01*
X80150000Y-61575000D01*
X80149258Y-61580091D01*
X80143362Y-61642973D01*
X80137766Y-61658963D01*
X80134410Y-61682001D01*
X80117857Y-61715859D01*
X80105943Y-61749909D01*
X80091928Y-61768898D01*
X80080193Y-61792904D01*
X80057362Y-61815734D01*
X80039686Y-61839686D01*
X80015734Y-61857362D01*
X79992904Y-61880193D01*
X79968898Y-61891928D01*
X79949909Y-61905943D01*
X79915859Y-61917857D01*
X79882001Y-61934410D01*
X79858963Y-61937766D01*
X79842973Y-61943362D01*
X79780089Y-61949258D01*
X79775000Y-61950000D01*
X78525000Y-61950000D01*
X78519910Y-61949258D01*
X78457026Y-61943362D01*
X78441034Y-61937766D01*
X78417999Y-61934410D01*
X78384142Y-61917858D01*
X78350090Y-61905943D01*
X78331099Y-61891927D01*
X78307096Y-61880193D01*
X78284268Y-61857365D01*
X78260313Y-61839686D01*
X78242633Y-61815730D01*
X78219807Y-61792904D01*
X78208073Y-61768902D01*
X78194056Y-61749909D01*
X78182139Y-61715852D01*
X78165590Y-61682001D01*
X78162234Y-61658968D01*
X78156637Y-61642973D01*
X78150738Y-61580070D01*
X78150000Y-61575000D01*
X78150000Y-60825000D01*
X78150738Y-60819930D01*
X78156637Y-60757026D01*
X78162234Y-60741029D01*
X78165590Y-60717999D01*
X78182137Y-60684149D01*
X78194056Y-60650090D01*
X78208074Y-60631095D01*
X78219807Y-60607096D01*
X78242630Y-60584272D01*
X78260313Y-60560313D01*
X78284272Y-60542630D01*
X78307096Y-60519807D01*
X78331095Y-60508074D01*
X78350090Y-60494056D01*
X78384149Y-60482137D01*
X78417999Y-60465590D01*
X78441029Y-60462234D01*
X78457026Y-60456637D01*
X78519931Y-60450738D01*
X78525000Y-60450000D01*
X79775000Y-60450000D01*
X79780071Y-60450738D01*
G37*
G36*
X121722403Y-59836418D02*
G01*
X121771066Y-59868934D01*
X121803582Y-59917597D01*
X121815000Y-59975000D01*
X121815000Y-61725000D01*
X121803582Y-61782403D01*
X121771066Y-61831066D01*
X121722403Y-61863582D01*
X121665000Y-61875000D01*
X121365000Y-61875000D01*
X121307597Y-61863582D01*
X121258934Y-61831066D01*
X121226418Y-61782403D01*
X121215000Y-61725000D01*
X121215000Y-59975000D01*
X121226418Y-59917597D01*
X121258934Y-59868934D01*
X121307597Y-59836418D01*
X121365000Y-59825000D01*
X121665000Y-59825000D01*
X121722403Y-59836418D01*
G37*
G36*
X122992403Y-59836418D02*
G01*
X123041066Y-59868934D01*
X123073582Y-59917597D01*
X123085000Y-59975000D01*
X123085000Y-61725000D01*
X123073582Y-61782403D01*
X123041066Y-61831066D01*
X122992403Y-61863582D01*
X122935000Y-61875000D01*
X122635000Y-61875000D01*
X122577597Y-61863582D01*
X122528934Y-61831066D01*
X122496418Y-61782403D01*
X122485000Y-61725000D01*
X122485000Y-59975000D01*
X122496418Y-59917597D01*
X122528934Y-59868934D01*
X122577597Y-59836418D01*
X122635000Y-59825000D01*
X122935000Y-59825000D01*
X122992403Y-59836418D01*
G37*
G36*
X124262403Y-59836418D02*
G01*
X124311066Y-59868934D01*
X124343582Y-59917597D01*
X124355000Y-59975000D01*
X124355000Y-61725000D01*
X124343582Y-61782403D01*
X124311066Y-61831066D01*
X124262403Y-61863582D01*
X124205000Y-61875000D01*
X123905000Y-61875000D01*
X123847597Y-61863582D01*
X123798934Y-61831066D01*
X123766418Y-61782403D01*
X123755000Y-61725000D01*
X123755000Y-59975000D01*
X123766418Y-59917597D01*
X123798934Y-59868934D01*
X123847597Y-59836418D01*
X123905000Y-59825000D01*
X124205000Y-59825000D01*
X124262403Y-59836418D01*
G37*
G36*
X125532403Y-59836418D02*
G01*
X125581066Y-59868934D01*
X125613582Y-59917597D01*
X125625000Y-59975000D01*
X125625000Y-61725000D01*
X125613582Y-61782403D01*
X125581066Y-61831066D01*
X125532403Y-61863582D01*
X125475000Y-61875000D01*
X125175000Y-61875000D01*
X125117597Y-61863582D01*
X125068934Y-61831066D01*
X125036418Y-61782403D01*
X125025000Y-61725000D01*
X125025000Y-59975000D01*
X125036418Y-59917597D01*
X125068934Y-59868934D01*
X125117597Y-59836418D01*
X125175000Y-59825000D01*
X125475000Y-59825000D01*
X125532403Y-59836418D01*
G37*
G36*
X126802403Y-59836418D02*
G01*
X126851066Y-59868934D01*
X126883582Y-59917597D01*
X126895000Y-59975000D01*
X126895000Y-61725000D01*
X126883582Y-61782403D01*
X126851066Y-61831066D01*
X126802403Y-61863582D01*
X126745000Y-61875000D01*
X126445000Y-61875000D01*
X126387597Y-61863582D01*
X126338934Y-61831066D01*
X126306418Y-61782403D01*
X126295000Y-61725000D01*
X126295000Y-59975000D01*
X126306418Y-59917597D01*
X126338934Y-59868934D01*
X126387597Y-59836418D01*
X126445000Y-59825000D01*
X126745000Y-59825000D01*
X126802403Y-59836418D01*
G37*
G36*
X128072403Y-59836418D02*
G01*
X128121066Y-59868934D01*
X128153582Y-59917597D01*
X128165000Y-59975000D01*
X128165000Y-61725000D01*
X128153582Y-61782403D01*
X128121066Y-61831066D01*
X128072403Y-61863582D01*
X128015000Y-61875000D01*
X127715000Y-61875000D01*
X127657597Y-61863582D01*
X127608934Y-61831066D01*
X127576418Y-61782403D01*
X127565000Y-61725000D01*
X127565000Y-59975000D01*
X127576418Y-59917597D01*
X127608934Y-59868934D01*
X127657597Y-59836418D01*
X127715000Y-59825000D01*
X128015000Y-59825000D01*
X128072403Y-59836418D01*
G37*
G36*
X129342403Y-59836418D02*
G01*
X129391066Y-59868934D01*
X129423582Y-59917597D01*
X129435000Y-59975000D01*
X129435000Y-61725000D01*
X129423582Y-61782403D01*
X129391066Y-61831066D01*
X129342403Y-61863582D01*
X129285000Y-61875000D01*
X128985000Y-61875000D01*
X128927597Y-61863582D01*
X128878934Y-61831066D01*
X128846418Y-61782403D01*
X128835000Y-61725000D01*
X128835000Y-59975000D01*
X128846418Y-59917597D01*
X128878934Y-59868934D01*
X128927597Y-59836418D01*
X128985000Y-59825000D01*
X129285000Y-59825000D01*
X129342403Y-59836418D01*
G37*
G36*
X130612403Y-59836418D02*
G01*
X130661066Y-59868934D01*
X130693582Y-59917597D01*
X130705000Y-59975000D01*
X130705000Y-61725000D01*
X130693582Y-61782403D01*
X130661066Y-61831066D01*
X130612403Y-61863582D01*
X130555000Y-61875000D01*
X130255000Y-61875000D01*
X130197597Y-61863582D01*
X130148934Y-61831066D01*
X130116418Y-61782403D01*
X130105000Y-61725000D01*
X130105000Y-59975000D01*
X130116418Y-59917597D01*
X130148934Y-59868934D01*
X130197597Y-59836418D01*
X130255000Y-59825000D01*
X130555000Y-59825000D01*
X130612403Y-59836418D01*
G37*
G36*
X131882403Y-59836418D02*
G01*
X131931066Y-59868934D01*
X131963582Y-59917597D01*
X131975000Y-59975000D01*
X131975000Y-61725000D01*
X131963582Y-61782403D01*
X131931066Y-61831066D01*
X131882403Y-61863582D01*
X131825000Y-61875000D01*
X131525000Y-61875000D01*
X131467597Y-61863582D01*
X131418934Y-61831066D01*
X131386418Y-61782403D01*
X131375000Y-61725000D01*
X131375000Y-59975000D01*
X131386418Y-59917597D01*
X131418934Y-59868934D01*
X131467597Y-59836418D01*
X131525000Y-59825000D01*
X131825000Y-59825000D01*
X131882403Y-59836418D01*
G37*
G36*
X133152403Y-59836418D02*
G01*
X133201066Y-59868934D01*
X133233582Y-59917597D01*
X133245000Y-59975000D01*
X133245000Y-61725000D01*
X133233582Y-61782403D01*
X133201066Y-61831066D01*
X133152403Y-61863582D01*
X133095000Y-61875000D01*
X132795000Y-61875000D01*
X132737597Y-61863582D01*
X132688934Y-61831066D01*
X132656418Y-61782403D01*
X132645000Y-61725000D01*
X132645000Y-59975000D01*
X132656418Y-59917597D01*
X132688934Y-59868934D01*
X132737597Y-59836418D01*
X132795000Y-59825000D01*
X133095000Y-59825000D01*
X133152403Y-59836418D01*
G37*
G36*
X134422403Y-59836418D02*
G01*
X134471066Y-59868934D01*
X134503582Y-59917597D01*
X134515000Y-59975000D01*
X134515000Y-61725000D01*
X134503582Y-61782403D01*
X134471066Y-61831066D01*
X134422403Y-61863582D01*
X134365000Y-61875000D01*
X134065000Y-61875000D01*
X134007597Y-61863582D01*
X133958934Y-61831066D01*
X133926418Y-61782403D01*
X133915000Y-61725000D01*
X133915000Y-59975000D01*
X133926418Y-59917597D01*
X133958934Y-59868934D01*
X134007597Y-59836418D01*
X134065000Y-59825000D01*
X134365000Y-59825000D01*
X134422403Y-59836418D01*
G37*
G36*
X135692403Y-59836418D02*
G01*
X135741066Y-59868934D01*
X135773582Y-59917597D01*
X135785000Y-59975000D01*
X135785000Y-61725000D01*
X135773582Y-61782403D01*
X135741066Y-61831066D01*
X135692403Y-61863582D01*
X135635000Y-61875000D01*
X135335000Y-61875000D01*
X135277597Y-61863582D01*
X135228934Y-61831066D01*
X135196418Y-61782403D01*
X135185000Y-61725000D01*
X135185000Y-59975000D01*
X135196418Y-59917597D01*
X135228934Y-59868934D01*
X135277597Y-59836418D01*
X135335000Y-59825000D01*
X135635000Y-59825000D01*
X135692403Y-59836418D01*
G37*
G36*
X61907403Y-61266418D02*
G01*
X61956066Y-61298934D01*
X61988582Y-61347597D01*
X62000000Y-61405000D01*
X62000000Y-61705000D01*
X61988582Y-61762403D01*
X61956066Y-61811066D01*
X61907403Y-61843582D01*
X61850000Y-61855000D01*
X60200000Y-61855000D01*
X60142597Y-61843582D01*
X60093934Y-61811066D01*
X60061418Y-61762403D01*
X60050000Y-61705000D01*
X60050000Y-61405000D01*
X60061418Y-61347597D01*
X60093934Y-61298934D01*
X60142597Y-61266418D01*
X60200000Y-61255000D01*
X61850000Y-61255000D01*
X61907403Y-61266418D01*
G37*
G36*
X66857403Y-61266418D02*
G01*
X66906066Y-61298934D01*
X66938582Y-61347597D01*
X66950000Y-61405000D01*
X66950000Y-61705000D01*
X66938582Y-61762403D01*
X66906066Y-61811066D01*
X66857403Y-61843582D01*
X66800000Y-61855000D01*
X65150000Y-61855000D01*
X65092597Y-61843582D01*
X65043934Y-61811066D01*
X65011418Y-61762403D01*
X65000000Y-61705000D01*
X65000000Y-61405000D01*
X65011418Y-61347597D01*
X65043934Y-61298934D01*
X65092597Y-61266418D01*
X65150000Y-61255000D01*
X66800000Y-61255000D01*
X66857403Y-61266418D01*
G37*
G36*
X94150000Y-61500000D02*
G01*
X91650000Y-61500000D01*
X91650000Y-60500000D01*
X94150000Y-60500000D01*
X94150000Y-61500000D01*
G37*
G36*
X109350000Y-61500000D02*
G01*
X106850000Y-61500000D01*
X106850000Y-60500000D01*
X109350000Y-60500000D01*
X109350000Y-61500000D01*
G37*
G36*
X84082403Y-60811418D02*
G01*
X84131066Y-60843934D01*
X84163582Y-60892597D01*
X84175000Y-60950000D01*
X84175000Y-61250000D01*
X84163582Y-61307403D01*
X84131066Y-61356066D01*
X84082403Y-61388582D01*
X84025000Y-61400000D01*
X82850000Y-61400000D01*
X82792597Y-61388582D01*
X82743934Y-61356066D01*
X82711418Y-61307403D01*
X82700000Y-61250000D01*
X82700000Y-60950000D01*
X82711418Y-60892597D01*
X82743934Y-60843934D01*
X82792597Y-60811418D01*
X82850000Y-60800000D01*
X84025000Y-60800000D01*
X84082403Y-60811418D01*
G37*
G36*
X58629850Y-59800964D02*
G01*
X58680040Y-59806787D01*
X58697189Y-59814359D01*
X58720671Y-59819030D01*
X58745810Y-59835827D01*
X58765696Y-59844608D01*
X58779277Y-59858189D01*
X58801777Y-59873223D01*
X58816810Y-59895722D01*
X58830391Y-59909303D01*
X58839170Y-59929186D01*
X58855970Y-59954329D01*
X58860641Y-59977812D01*
X58868212Y-59994959D01*
X58874033Y-60045139D01*
X58875000Y-60050000D01*
X58875000Y-60850000D01*
X58874032Y-60854863D01*
X58868212Y-60905040D01*
X58860641Y-60922185D01*
X58855970Y-60945671D01*
X58839169Y-60970815D01*
X58830391Y-60990696D01*
X58816812Y-61004274D01*
X58801777Y-61026777D01*
X58779274Y-61041812D01*
X58765696Y-61055391D01*
X58745815Y-61064169D01*
X58720671Y-61080970D01*
X58697185Y-61085641D01*
X58680040Y-61093212D01*
X58629861Y-61099032D01*
X58625000Y-61100000D01*
X57375000Y-61100000D01*
X57370138Y-61099032D01*
X57319959Y-61093212D01*
X57302812Y-61085641D01*
X57279329Y-61080970D01*
X57254186Y-61064170D01*
X57234303Y-61055391D01*
X57220722Y-61041810D01*
X57198223Y-61026777D01*
X57183189Y-61004277D01*
X57169608Y-60990696D01*
X57160827Y-60970810D01*
X57144030Y-60945671D01*
X57139359Y-60922189D01*
X57131787Y-60905040D01*
X57125964Y-60854849D01*
X57125000Y-60850000D01*
X57125000Y-60050000D01*
X57125964Y-60045150D01*
X57131787Y-59994959D01*
X57139359Y-59977808D01*
X57144030Y-59954329D01*
X57160826Y-59929191D01*
X57169608Y-59909303D01*
X57183191Y-59895719D01*
X57198223Y-59873223D01*
X57220719Y-59858191D01*
X57234303Y-59844608D01*
X57254191Y-59835826D01*
X57279329Y-59819030D01*
X57302808Y-59814359D01*
X57319959Y-59806787D01*
X57370151Y-59800964D01*
X57375000Y-59800000D01*
X58625000Y-59800000D01*
X58629850Y-59800964D01*
G37*
G36*
X116654850Y-59775964D02*
G01*
X116705040Y-59781787D01*
X116722189Y-59789359D01*
X116745671Y-59794030D01*
X116770810Y-59810827D01*
X116790696Y-59819608D01*
X116804277Y-59833189D01*
X116826777Y-59848223D01*
X116841810Y-59870722D01*
X116855391Y-59884303D01*
X116864170Y-59904186D01*
X116880970Y-59929329D01*
X116885641Y-59952812D01*
X116893212Y-59969959D01*
X116899033Y-60020139D01*
X116900000Y-60025000D01*
X116900000Y-60850000D01*
X116899032Y-60854863D01*
X116893212Y-60905040D01*
X116885641Y-60922185D01*
X116880970Y-60945671D01*
X116864169Y-60970815D01*
X116855391Y-60990696D01*
X116841812Y-61004274D01*
X116826777Y-61026777D01*
X116804274Y-61041812D01*
X116790696Y-61055391D01*
X116770815Y-61064169D01*
X116745671Y-61080970D01*
X116722185Y-61085641D01*
X116705040Y-61093212D01*
X116654861Y-61099032D01*
X116650000Y-61100000D01*
X115350000Y-61100000D01*
X115345138Y-61099032D01*
X115294959Y-61093212D01*
X115277812Y-61085641D01*
X115254329Y-61080970D01*
X115229186Y-61064170D01*
X115209303Y-61055391D01*
X115195722Y-61041810D01*
X115173223Y-61026777D01*
X115158189Y-61004277D01*
X115144608Y-60990696D01*
X115135827Y-60970810D01*
X115119030Y-60945671D01*
X115114359Y-60922189D01*
X115106787Y-60905040D01*
X115100964Y-60854849D01*
X115100000Y-60850000D01*
X115100000Y-60025000D01*
X115100964Y-60020150D01*
X115106787Y-59969959D01*
X115114359Y-59952808D01*
X115119030Y-59929329D01*
X115135826Y-59904191D01*
X115144608Y-59884303D01*
X115158191Y-59870719D01*
X115173223Y-59848223D01*
X115195719Y-59833191D01*
X115209303Y-59819608D01*
X115229191Y-59810826D01*
X115254329Y-59794030D01*
X115277808Y-59789359D01*
X115294959Y-59781787D01*
X115345151Y-59775964D01*
X115350000Y-59775000D01*
X116650000Y-59775000D01*
X116654850Y-59775964D01*
G37*
G36*
X119629850Y-59800964D02*
G01*
X119680040Y-59806787D01*
X119697189Y-59814359D01*
X119720671Y-59819030D01*
X119745810Y-59835827D01*
X119765696Y-59844608D01*
X119779277Y-59858189D01*
X119801777Y-59873223D01*
X119816810Y-59895722D01*
X119830391Y-59909303D01*
X119839170Y-59929186D01*
X119855970Y-59954329D01*
X119860641Y-59977812D01*
X119868212Y-59994959D01*
X119874033Y-60045139D01*
X119875000Y-60050000D01*
X119875000Y-60850000D01*
X119874032Y-60854863D01*
X119868212Y-60905040D01*
X119860641Y-60922185D01*
X119855970Y-60945671D01*
X119839169Y-60970815D01*
X119830391Y-60990696D01*
X119816812Y-61004274D01*
X119801777Y-61026777D01*
X119779274Y-61041812D01*
X119765696Y-61055391D01*
X119745815Y-61064169D01*
X119720671Y-61080970D01*
X119697185Y-61085641D01*
X119680040Y-61093212D01*
X119629861Y-61099032D01*
X119625000Y-61100000D01*
X118375000Y-61100000D01*
X118370138Y-61099032D01*
X118319959Y-61093212D01*
X118302812Y-61085641D01*
X118279329Y-61080970D01*
X118254186Y-61064170D01*
X118234303Y-61055391D01*
X118220722Y-61041810D01*
X118198223Y-61026777D01*
X118183189Y-61004277D01*
X118169608Y-60990696D01*
X118160827Y-60970810D01*
X118144030Y-60945671D01*
X118139359Y-60922189D01*
X118131787Y-60905040D01*
X118125964Y-60854849D01*
X118125000Y-60850000D01*
X118125000Y-60050000D01*
X118125964Y-60045150D01*
X118131787Y-59994959D01*
X118139359Y-59977808D01*
X118144030Y-59954329D01*
X118160826Y-59929191D01*
X118169608Y-59909303D01*
X118183191Y-59895719D01*
X118198223Y-59873223D01*
X118220719Y-59858191D01*
X118234303Y-59844608D01*
X118254191Y-59835826D01*
X118279329Y-59819030D01*
X118302808Y-59814359D01*
X118319959Y-59806787D01*
X118370151Y-59800964D01*
X118375000Y-59800000D01*
X119625000Y-59800000D01*
X119629850Y-59800964D01*
G37*
G36*
X89629850Y-58300964D02*
G01*
X89680040Y-58306787D01*
X89697189Y-58314359D01*
X89720671Y-58319030D01*
X89745810Y-58335827D01*
X89765696Y-58344608D01*
X89779277Y-58358189D01*
X89801777Y-58373223D01*
X89816810Y-58395722D01*
X89830391Y-58409303D01*
X89839170Y-58429186D01*
X89855970Y-58454329D01*
X89860641Y-58477812D01*
X89868212Y-58494959D01*
X89874033Y-58545139D01*
X89875000Y-58550000D01*
X89875000Y-59350000D01*
X89874032Y-59354863D01*
X89868212Y-59405040D01*
X89860641Y-59422185D01*
X89855970Y-59445671D01*
X89839169Y-59470815D01*
X89830391Y-59490696D01*
X89816812Y-59504274D01*
X89801777Y-59526777D01*
X89779274Y-59541812D01*
X89765696Y-59555391D01*
X89745815Y-59564169D01*
X89720671Y-59580970D01*
X89697185Y-59585641D01*
X89680040Y-59593212D01*
X89629861Y-59599032D01*
X89625000Y-59600000D01*
X88375000Y-59600000D01*
X88370138Y-59599032D01*
X88319959Y-59593212D01*
X88302812Y-59585641D01*
X88279329Y-59580970D01*
X88254186Y-59564170D01*
X88234303Y-59555391D01*
X88220722Y-59541810D01*
X88198223Y-59526777D01*
X88183189Y-59504277D01*
X88169608Y-59490696D01*
X88160827Y-59470810D01*
X88144030Y-59445671D01*
X88139359Y-59422189D01*
X88131787Y-59405040D01*
X88125964Y-59354849D01*
X88125000Y-59350000D01*
X88125000Y-58550000D01*
X88125964Y-58545150D01*
X88131787Y-58494959D01*
X88139359Y-58477808D01*
X88144030Y-58454329D01*
X88160826Y-58429191D01*
X88169608Y-58409303D01*
X88183191Y-58395719D01*
X88198223Y-58373223D01*
X88220719Y-58358191D01*
X88234303Y-58344608D01*
X88254191Y-58335826D01*
X88279329Y-58319030D01*
X88302808Y-58314359D01*
X88319959Y-58306787D01*
X88370151Y-58300964D01*
X88375000Y-58300000D01*
X89625000Y-58300000D01*
X89629850Y-58300964D01*
G37*
G36*
X94150000Y-59500000D02*
G01*
X91650000Y-59500000D01*
X91650000Y-58500000D01*
X94150000Y-58500000D01*
X94150000Y-59500000D01*
G37*
G36*
X109350000Y-59500000D02*
G01*
X106850000Y-59500000D01*
X106850000Y-58500000D01*
X109350000Y-58500000D01*
X109350000Y-59500000D01*
G37*
G36*
X112854850Y-57125964D02*
G01*
X112905040Y-57131787D01*
X112922189Y-57139359D01*
X112945671Y-57144030D01*
X112970810Y-57160827D01*
X112990696Y-57169608D01*
X113004277Y-57183189D01*
X113026777Y-57198223D01*
X113041810Y-57220722D01*
X113055391Y-57234303D01*
X113064170Y-57254186D01*
X113080970Y-57279329D01*
X113085641Y-57302812D01*
X113093212Y-57319959D01*
X113099033Y-57370139D01*
X113100000Y-57375000D01*
X113100000Y-58625000D01*
X113099032Y-58629863D01*
X113093212Y-58680040D01*
X113085641Y-58697185D01*
X113080970Y-58720671D01*
X113064169Y-58745815D01*
X113055391Y-58765696D01*
X113041812Y-58779274D01*
X113026777Y-58801777D01*
X113004274Y-58816812D01*
X112990696Y-58830391D01*
X112970815Y-58839169D01*
X112945671Y-58855970D01*
X112922185Y-58860641D01*
X112905040Y-58868212D01*
X112854861Y-58874032D01*
X112850000Y-58875000D01*
X112050000Y-58875000D01*
X112045138Y-58874032D01*
X111994959Y-58868212D01*
X111977812Y-58860641D01*
X111954329Y-58855970D01*
X111929186Y-58839170D01*
X111909303Y-58830391D01*
X111895722Y-58816810D01*
X111873223Y-58801777D01*
X111858189Y-58779277D01*
X111844608Y-58765696D01*
X111835827Y-58745810D01*
X111819030Y-58720671D01*
X111814359Y-58697189D01*
X111806787Y-58680040D01*
X111800964Y-58629849D01*
X111800000Y-58625000D01*
X111800000Y-57375000D01*
X111800964Y-57370150D01*
X111806787Y-57319959D01*
X111814359Y-57302808D01*
X111819030Y-57279329D01*
X111835826Y-57254191D01*
X111844608Y-57234303D01*
X111858191Y-57220719D01*
X111873223Y-57198223D01*
X111895719Y-57183191D01*
X111909303Y-57169608D01*
X111929191Y-57160826D01*
X111954329Y-57144030D01*
X111977808Y-57139359D01*
X111994959Y-57131787D01*
X112045151Y-57125964D01*
X112050000Y-57125000D01*
X112850000Y-57125000D01*
X112854850Y-57125964D01*
G37*
G36*
X115954850Y-57125964D02*
G01*
X116005040Y-57131787D01*
X116022189Y-57139359D01*
X116045671Y-57144030D01*
X116070810Y-57160827D01*
X116090696Y-57169608D01*
X116104277Y-57183189D01*
X116126777Y-57198223D01*
X116141810Y-57220722D01*
X116155391Y-57234303D01*
X116164170Y-57254186D01*
X116180970Y-57279329D01*
X116185641Y-57302812D01*
X116193212Y-57319959D01*
X116199033Y-57370139D01*
X116200000Y-57375000D01*
X116200000Y-58625000D01*
X116199032Y-58629863D01*
X116193212Y-58680040D01*
X116185641Y-58697185D01*
X116180970Y-58720671D01*
X116164169Y-58745815D01*
X116155391Y-58765696D01*
X116141812Y-58779274D01*
X116126777Y-58801777D01*
X116104274Y-58816812D01*
X116090696Y-58830391D01*
X116070815Y-58839169D01*
X116045671Y-58855970D01*
X116022185Y-58860641D01*
X116005040Y-58868212D01*
X115954861Y-58874032D01*
X115950000Y-58875000D01*
X115150000Y-58875000D01*
X115145138Y-58874032D01*
X115094959Y-58868212D01*
X115077812Y-58860641D01*
X115054329Y-58855970D01*
X115029186Y-58839170D01*
X115009303Y-58830391D01*
X114995722Y-58816810D01*
X114973223Y-58801777D01*
X114958189Y-58779277D01*
X114944608Y-58765696D01*
X114935827Y-58745810D01*
X114919030Y-58720671D01*
X114914359Y-58697189D01*
X114906787Y-58680040D01*
X114900964Y-58629849D01*
X114900000Y-58625000D01*
X114900000Y-57375000D01*
X114900964Y-57370150D01*
X114906787Y-57319959D01*
X114914359Y-57302808D01*
X114919030Y-57279329D01*
X114935826Y-57254191D01*
X114944608Y-57234303D01*
X114958191Y-57220719D01*
X114973223Y-57198223D01*
X114995719Y-57183191D01*
X115009303Y-57169608D01*
X115029191Y-57160826D01*
X115054329Y-57144030D01*
X115077808Y-57139359D01*
X115094959Y-57131787D01*
X115145151Y-57125964D01*
X115150000Y-57125000D01*
X115950000Y-57125000D01*
X115954850Y-57125964D01*
G37*
G36*
X68017714Y-57282295D02*
G01*
X68153548Y-57338559D01*
X68275795Y-57420242D01*
X68379758Y-57524205D01*
X68461441Y-57646452D01*
X68517705Y-57782286D01*
X68546389Y-57926487D01*
X68546389Y-58073513D01*
X68517705Y-58217714D01*
X68461441Y-58353548D01*
X68379758Y-58475795D01*
X68275795Y-58579758D01*
X68153548Y-58661441D01*
X68017714Y-58717705D01*
X67873513Y-58746389D01*
X67726487Y-58746389D01*
X67582286Y-58717705D01*
X67446452Y-58661441D01*
X67324205Y-58579758D01*
X67220242Y-58475795D01*
X67138559Y-58353548D01*
X67082295Y-58217714D01*
X67053611Y-58073513D01*
X67053611Y-57926487D01*
X67082295Y-57782286D01*
X67138559Y-57646452D01*
X67220242Y-57524205D01*
X67324205Y-57420242D01*
X67446452Y-57338559D01*
X67582286Y-57282295D01*
X67726487Y-57253611D01*
X67873513Y-57253611D01*
X68017714Y-57282295D01*
G37*
G36*
X70557714Y-57282295D02*
G01*
X70693548Y-57338559D01*
X70815795Y-57420242D01*
X70919758Y-57524205D01*
X71001441Y-57646452D01*
X71057705Y-57782286D01*
X71086389Y-57926487D01*
X71086389Y-58073513D01*
X71057705Y-58217714D01*
X71001441Y-58353548D01*
X70919758Y-58475795D01*
X70815795Y-58579758D01*
X70693548Y-58661441D01*
X70557714Y-58717705D01*
X70413513Y-58746389D01*
X70266487Y-58746389D01*
X70122286Y-58717705D01*
X69986452Y-58661441D01*
X69864205Y-58579758D01*
X69760242Y-58475795D01*
X69678559Y-58353548D01*
X69622295Y-58217714D01*
X69593611Y-58073513D01*
X69593611Y-57926487D01*
X69622295Y-57782286D01*
X69678559Y-57646452D01*
X69760242Y-57524205D01*
X69864205Y-57420242D01*
X69986452Y-57338559D01*
X70122286Y-57282295D01*
X70266487Y-57253611D01*
X70413513Y-57253611D01*
X70557714Y-57282295D01*
G37*
G36*
X73097714Y-57282295D02*
G01*
X73233548Y-57338559D01*
X73355795Y-57420242D01*
X73459758Y-57524205D01*
X73541441Y-57646452D01*
X73597705Y-57782286D01*
X73626389Y-57926487D01*
X73626389Y-58073513D01*
X73597705Y-58217714D01*
X73541441Y-58353548D01*
X73459758Y-58475795D01*
X73355795Y-58579758D01*
X73233548Y-58661441D01*
X73097714Y-58717705D01*
X72953513Y-58746389D01*
X72806487Y-58746389D01*
X72662286Y-58717705D01*
X72526452Y-58661441D01*
X72404205Y-58579758D01*
X72300242Y-58475795D01*
X72218559Y-58353548D01*
X72162295Y-58217714D01*
X72133611Y-58073513D01*
X72133611Y-57926487D01*
X72162295Y-57782286D01*
X72218559Y-57646452D01*
X72300242Y-57524205D01*
X72404205Y-57420242D01*
X72526452Y-57338559D01*
X72662286Y-57282295D01*
X72806487Y-57253611D01*
X72953513Y-57253611D01*
X73097714Y-57282295D01*
G37*
G36*
X75637714Y-57282295D02*
G01*
X75773548Y-57338559D01*
X75895795Y-57420242D01*
X75999758Y-57524205D01*
X76081441Y-57646452D01*
X76137705Y-57782286D01*
X76166389Y-57926487D01*
X76166389Y-58073513D01*
X76137705Y-58217714D01*
X76081441Y-58353548D01*
X75999758Y-58475795D01*
X75895795Y-58579758D01*
X75773548Y-58661441D01*
X75637714Y-58717705D01*
X75493513Y-58746389D01*
X75346487Y-58746389D01*
X75202286Y-58717705D01*
X75066452Y-58661441D01*
X74944205Y-58579758D01*
X74840242Y-58475795D01*
X74758559Y-58353548D01*
X74702295Y-58217714D01*
X74673611Y-58073513D01*
X74673611Y-57926487D01*
X74702295Y-57782286D01*
X74758559Y-57646452D01*
X74840242Y-57524205D01*
X74944205Y-57420242D01*
X75066452Y-57338559D01*
X75202286Y-57282295D01*
X75346487Y-57253611D01*
X75493513Y-57253611D01*
X75637714Y-57282295D01*
G37*
G36*
X78177714Y-57282295D02*
G01*
X78313548Y-57338559D01*
X78435795Y-57420242D01*
X78539758Y-57524205D01*
X78621441Y-57646452D01*
X78677705Y-57782286D01*
X78706389Y-57926487D01*
X78706389Y-58073513D01*
X78677705Y-58217714D01*
X78621441Y-58353548D01*
X78539758Y-58475795D01*
X78435795Y-58579758D01*
X78313548Y-58661441D01*
X78177714Y-58717705D01*
X78033513Y-58746389D01*
X77886487Y-58746389D01*
X77742286Y-58717705D01*
X77606452Y-58661441D01*
X77484205Y-58579758D01*
X77380242Y-58475795D01*
X77298559Y-58353548D01*
X77242295Y-58217714D01*
X77213611Y-58073513D01*
X77213611Y-57926487D01*
X77242295Y-57782286D01*
X77298559Y-57646452D01*
X77380242Y-57524205D01*
X77484205Y-57420242D01*
X77606452Y-57338559D01*
X77742286Y-57282295D01*
X77886487Y-57253611D01*
X78033513Y-57253611D01*
X78177714Y-57282295D01*
G37*
G36*
X80717714Y-57282295D02*
G01*
X80853548Y-57338559D01*
X80975795Y-57420242D01*
X81079758Y-57524205D01*
X81161441Y-57646452D01*
X81217705Y-57782286D01*
X81246389Y-57926487D01*
X81246389Y-58073513D01*
X81217705Y-58217714D01*
X81161441Y-58353548D01*
X81079758Y-58475795D01*
X80975795Y-58579758D01*
X80853548Y-58661441D01*
X80717714Y-58717705D01*
X80573513Y-58746389D01*
X80426487Y-58746389D01*
X80282286Y-58717705D01*
X80146452Y-58661441D01*
X80024205Y-58579758D01*
X79920242Y-58475795D01*
X79838559Y-58353548D01*
X79782295Y-58217714D01*
X79753611Y-58073513D01*
X79753611Y-57926487D01*
X79782295Y-57782286D01*
X79838559Y-57646452D01*
X79920242Y-57524205D01*
X80024205Y-57420242D01*
X80146452Y-57338559D01*
X80282286Y-57282295D01*
X80426487Y-57253611D01*
X80573513Y-57253611D01*
X80717714Y-57282295D01*
G37*
G36*
X119217714Y-57282295D02*
G01*
X119353548Y-57338559D01*
X119475795Y-57420242D01*
X119579758Y-57524205D01*
X119661441Y-57646452D01*
X119717705Y-57782286D01*
X119746389Y-57926487D01*
X119746389Y-58073513D01*
X119717705Y-58217714D01*
X119661441Y-58353548D01*
X119579758Y-58475795D01*
X119475795Y-58579758D01*
X119353548Y-58661441D01*
X119217714Y-58717705D01*
X119073513Y-58746389D01*
X118926487Y-58746389D01*
X118782286Y-58717705D01*
X118646452Y-58661441D01*
X118524205Y-58579758D01*
X118420242Y-58475795D01*
X118338559Y-58353548D01*
X118282295Y-58217714D01*
X118253611Y-58073513D01*
X118253611Y-57926487D01*
X118282295Y-57782286D01*
X118338559Y-57646452D01*
X118420242Y-57524205D01*
X118524205Y-57420242D01*
X118646452Y-57338559D01*
X118782286Y-57282295D01*
X118926487Y-57253611D01*
X119073513Y-57253611D01*
X119217714Y-57282295D01*
G37*
G36*
X121757714Y-57282295D02*
G01*
X121893548Y-57338559D01*
X122015795Y-57420242D01*
X122119758Y-57524205D01*
X122201441Y-57646452D01*
X122257705Y-57782286D01*
X122286389Y-57926487D01*
X122286389Y-58073513D01*
X122257705Y-58217714D01*
X122201441Y-58353548D01*
X122119758Y-58475795D01*
X122015795Y-58579758D01*
X121893548Y-58661441D01*
X121757714Y-58717705D01*
X121613513Y-58746389D01*
X121466487Y-58746389D01*
X121322286Y-58717705D01*
X121186452Y-58661441D01*
X121064205Y-58579758D01*
X120960242Y-58475795D01*
X120878559Y-58353548D01*
X120822295Y-58217714D01*
X120793611Y-58073513D01*
X120793611Y-57926487D01*
X120822295Y-57782286D01*
X120878559Y-57646452D01*
X120960242Y-57524205D01*
X121064205Y-57420242D01*
X121186452Y-57338559D01*
X121322286Y-57282295D01*
X121466487Y-57253611D01*
X121613513Y-57253611D01*
X121757714Y-57282295D01*
G37*
G36*
X124297714Y-57282295D02*
G01*
X124433548Y-57338559D01*
X124555795Y-57420242D01*
X124659758Y-57524205D01*
X124741441Y-57646452D01*
X124797705Y-57782286D01*
X124826389Y-57926487D01*
X124826389Y-58073513D01*
X124797705Y-58217714D01*
X124741441Y-58353548D01*
X124659758Y-58475795D01*
X124555795Y-58579758D01*
X124433548Y-58661441D01*
X124297714Y-58717705D01*
X124153513Y-58746389D01*
X124006487Y-58746389D01*
X123862286Y-58717705D01*
X123726452Y-58661441D01*
X123604205Y-58579758D01*
X123500242Y-58475795D01*
X123418559Y-58353548D01*
X123362295Y-58217714D01*
X123333611Y-58073513D01*
X123333611Y-57926487D01*
X123362295Y-57782286D01*
X123418559Y-57646452D01*
X123500242Y-57524205D01*
X123604205Y-57420242D01*
X123726452Y-57338559D01*
X123862286Y-57282295D01*
X124006487Y-57253611D01*
X124153513Y-57253611D01*
X124297714Y-57282295D01*
G37*
G36*
X126837714Y-57282295D02*
G01*
X126973548Y-57338559D01*
X127095795Y-57420242D01*
X127199758Y-57524205D01*
X127281441Y-57646452D01*
X127337705Y-57782286D01*
X127366389Y-57926487D01*
X127366389Y-58073513D01*
X127337705Y-58217714D01*
X127281441Y-58353548D01*
X127199758Y-58475795D01*
X127095795Y-58579758D01*
X126973548Y-58661441D01*
X126837714Y-58717705D01*
X126693513Y-58746389D01*
X126546487Y-58746389D01*
X126402286Y-58717705D01*
X126266452Y-58661441D01*
X126144205Y-58579758D01*
X126040242Y-58475795D01*
X125958559Y-58353548D01*
X125902295Y-58217714D01*
X125873611Y-58073513D01*
X125873611Y-57926487D01*
X125902295Y-57782286D01*
X125958559Y-57646452D01*
X126040242Y-57524205D01*
X126144205Y-57420242D01*
X126266452Y-57338559D01*
X126402286Y-57282295D01*
X126546487Y-57253611D01*
X126693513Y-57253611D01*
X126837714Y-57282295D01*
G37*
G36*
X129377714Y-57282295D02*
G01*
X129513548Y-57338559D01*
X129635795Y-57420242D01*
X129739758Y-57524205D01*
X129821441Y-57646452D01*
X129877705Y-57782286D01*
X129906389Y-57926487D01*
X129906389Y-58073513D01*
X129877705Y-58217714D01*
X129821441Y-58353548D01*
X129739758Y-58475795D01*
X129635795Y-58579758D01*
X129513548Y-58661441D01*
X129377714Y-58717705D01*
X129233513Y-58746389D01*
X129086487Y-58746389D01*
X128942286Y-58717705D01*
X128806452Y-58661441D01*
X128684205Y-58579758D01*
X128580242Y-58475795D01*
X128498559Y-58353548D01*
X128442295Y-58217714D01*
X128413611Y-58073513D01*
X128413611Y-57926487D01*
X128442295Y-57782286D01*
X128498559Y-57646452D01*
X128580242Y-57524205D01*
X128684205Y-57420242D01*
X128806452Y-57338559D01*
X128942286Y-57282295D01*
X129086487Y-57253611D01*
X129233513Y-57253611D01*
X129377714Y-57282295D01*
G37*
G36*
X131917714Y-57282295D02*
G01*
X132053548Y-57338559D01*
X132175795Y-57420242D01*
X132279758Y-57524205D01*
X132361441Y-57646452D01*
X132417705Y-57782286D01*
X132446389Y-57926487D01*
X132446389Y-58073513D01*
X132417705Y-58217714D01*
X132361441Y-58353548D01*
X132279758Y-58475795D01*
X132175795Y-58579758D01*
X132053548Y-58661441D01*
X131917714Y-58717705D01*
X131773513Y-58746389D01*
X131626487Y-58746389D01*
X131482286Y-58717705D01*
X131346452Y-58661441D01*
X131224205Y-58579758D01*
X131120242Y-58475795D01*
X131038559Y-58353548D01*
X130982295Y-58217714D01*
X130953611Y-58073513D01*
X130953611Y-57926487D01*
X130982295Y-57782286D01*
X131038559Y-57646452D01*
X131120242Y-57524205D01*
X131224205Y-57420242D01*
X131346452Y-57338559D01*
X131482286Y-57282295D01*
X131626487Y-57253611D01*
X131773513Y-57253611D01*
X131917714Y-57282295D01*
G37*
G36*
X152662640Y-57607351D02*
G01*
X152758724Y-57662825D01*
X152837175Y-57741276D01*
X152892649Y-57837360D01*
X152921364Y-57944526D01*
X152921364Y-58055474D01*
X152892649Y-58162640D01*
X152837175Y-58258724D01*
X152758724Y-58337175D01*
X152662640Y-58392649D01*
X152555474Y-58421364D01*
X152444526Y-58421364D01*
X152337360Y-58392649D01*
X152241276Y-58337175D01*
X152162825Y-58258724D01*
X152107351Y-58162640D01*
X152078636Y-58055474D01*
X152078636Y-57944526D01*
X152107351Y-57837360D01*
X152162825Y-57741276D01*
X152241276Y-57662825D01*
X152337360Y-57607351D01*
X152444526Y-57578636D01*
X152555474Y-57578636D01*
X152662640Y-57607351D01*
G37*
G36*
X94150000Y-57500000D02*
G01*
X91650000Y-57500000D01*
X91650000Y-56500000D01*
X94150000Y-56500000D01*
X94150000Y-57500000D01*
G37*
G36*
X109350000Y-57500000D02*
G01*
X106850000Y-57500000D01*
X106850000Y-56500000D01*
X109350000Y-56500000D01*
X109350000Y-57500000D01*
G37*
G36*
X152925000Y-57425000D02*
G01*
X152075000Y-57425000D01*
X152075000Y-56575000D01*
X152925000Y-56575000D01*
X152925000Y-57425000D01*
G37*
G36*
X50790285Y-53293060D02*
G01*
X50971397Y-53368079D01*
X51134393Y-53476990D01*
X51273010Y-53615607D01*
X51381921Y-53778603D01*
X51456940Y-53959715D01*
X51495185Y-54151983D01*
X51495185Y-54348017D01*
X51456940Y-54540285D01*
X51381921Y-54721397D01*
X51273010Y-54884393D01*
X51134393Y-55023010D01*
X50971397Y-55131921D01*
X50790285Y-55206940D01*
X50598017Y-55245185D01*
X50401983Y-55245185D01*
X50209715Y-55206940D01*
X50028603Y-55131921D01*
X49865607Y-55023010D01*
X49726990Y-54884393D01*
X49618079Y-54721397D01*
X49543060Y-54540285D01*
X49504815Y-54348017D01*
X49504815Y-54151983D01*
X49543060Y-53959715D01*
X49618079Y-53778603D01*
X49726990Y-53615607D01*
X49865607Y-53476990D01*
X50028603Y-53368079D01*
X50209715Y-53293060D01*
X50401983Y-53254815D01*
X50598017Y-53254815D01*
X50790285Y-53293060D01*
G37*
G36*
X57290285Y-53293060D02*
G01*
X57471397Y-53368079D01*
X57634393Y-53476990D01*
X57773010Y-53615607D01*
X57881921Y-53778603D01*
X57956940Y-53959715D01*
X57995185Y-54151983D01*
X57995185Y-54348017D01*
X57956940Y-54540285D01*
X57881921Y-54721397D01*
X57773010Y-54884393D01*
X57634393Y-55023010D01*
X57471397Y-55131921D01*
X57290285Y-55206940D01*
X57098017Y-55245185D01*
X56901983Y-55245185D01*
X56709715Y-55206940D01*
X56528603Y-55131921D01*
X56365607Y-55023010D01*
X56226990Y-54884393D01*
X56118079Y-54721397D01*
X56043060Y-54540285D01*
X56004815Y-54348017D01*
X56004815Y-54151983D01*
X56043060Y-53959715D01*
X56118079Y-53778603D01*
X56226990Y-53615607D01*
X56365607Y-53476990D01*
X56528603Y-53368079D01*
X56709715Y-53293060D01*
X56901983Y-53254815D01*
X57098017Y-53254815D01*
X57290285Y-53293060D01*
G37*
G36*
X60290285Y-53293060D02*
G01*
X60471397Y-53368079D01*
X60634393Y-53476990D01*
X60773010Y-53615607D01*
X60881921Y-53778603D01*
X60956940Y-53959715D01*
X60995185Y-54151983D01*
X60995185Y-54348017D01*
X60956940Y-54540285D01*
X60881921Y-54721397D01*
X60773010Y-54884393D01*
X60634393Y-55023010D01*
X60471397Y-55131921D01*
X60290285Y-55206940D01*
X60098017Y-55245185D01*
X59901983Y-55245185D01*
X59709715Y-55206940D01*
X59528603Y-55131921D01*
X59365607Y-55023010D01*
X59226990Y-54884393D01*
X59118079Y-54721397D01*
X59043060Y-54540285D01*
X59004815Y-54348017D01*
X59004815Y-54151983D01*
X59043060Y-53959715D01*
X59118079Y-53778603D01*
X59226990Y-53615607D01*
X59365607Y-53476990D01*
X59528603Y-53368079D01*
X59709715Y-53293060D01*
X59901983Y-53254815D01*
X60098017Y-53254815D01*
X60290285Y-53293060D01*
G37*
G36*
X66790285Y-53293060D02*
G01*
X66971397Y-53368079D01*
X67134393Y-53476990D01*
X67273010Y-53615607D01*
X67381921Y-53778603D01*
X67456940Y-53959715D01*
X67495185Y-54151983D01*
X67495185Y-54348017D01*
X67456940Y-54540285D01*
X67381921Y-54721397D01*
X67273010Y-54884393D01*
X67134393Y-55023010D01*
X66971397Y-55131921D01*
X66790285Y-55206940D01*
X66598017Y-55245185D01*
X66401983Y-55245185D01*
X66209715Y-55206940D01*
X66028603Y-55131921D01*
X65865607Y-55023010D01*
X65726990Y-54884393D01*
X65618079Y-54721397D01*
X65543060Y-54540285D01*
X65504815Y-54348017D01*
X65504815Y-54151983D01*
X65543060Y-53959715D01*
X65618079Y-53778603D01*
X65726990Y-53615607D01*
X65865607Y-53476990D01*
X66028603Y-53368079D01*
X66209715Y-53293060D01*
X66401983Y-53254815D01*
X66598017Y-53254815D01*
X66790285Y-53293060D01*
G37*
G36*
X69790285Y-53293060D02*
G01*
X69971397Y-53368079D01*
X70134393Y-53476990D01*
X70273010Y-53615607D01*
X70381921Y-53778603D01*
X70456940Y-53959715D01*
X70495185Y-54151983D01*
X70495185Y-54348017D01*
X70456940Y-54540285D01*
X70381921Y-54721397D01*
X70273010Y-54884393D01*
X70134393Y-55023010D01*
X69971397Y-55131921D01*
X69790285Y-55206940D01*
X69598017Y-55245185D01*
X69401983Y-55245185D01*
X69209715Y-55206940D01*
X69028603Y-55131921D01*
X68865607Y-55023010D01*
X68726990Y-54884393D01*
X68618079Y-54721397D01*
X68543060Y-54540285D01*
X68504815Y-54348017D01*
X68504815Y-54151983D01*
X68543060Y-53959715D01*
X68618079Y-53778603D01*
X68726990Y-53615607D01*
X68865607Y-53476990D01*
X69028603Y-53368079D01*
X69209715Y-53293060D01*
X69401983Y-53254815D01*
X69598017Y-53254815D01*
X69790285Y-53293060D01*
G37*
G36*
X76290285Y-53293060D02*
G01*
X76471397Y-53368079D01*
X76634393Y-53476990D01*
X76773010Y-53615607D01*
X76881921Y-53778603D01*
X76956940Y-53959715D01*
X76995185Y-54151983D01*
X76995185Y-54348017D01*
X76956940Y-54540285D01*
X76881921Y-54721397D01*
X76773010Y-54884393D01*
X76634393Y-55023010D01*
X76471397Y-55131921D01*
X76290285Y-55206940D01*
X76098017Y-55245185D01*
X75901983Y-55245185D01*
X75709715Y-55206940D01*
X75528603Y-55131921D01*
X75365607Y-55023010D01*
X75226990Y-54884393D01*
X75118079Y-54721397D01*
X75043060Y-54540285D01*
X75004815Y-54348017D01*
X75004815Y-54151983D01*
X75043060Y-53959715D01*
X75118079Y-53778603D01*
X75226990Y-53615607D01*
X75365607Y-53476990D01*
X75528603Y-53368079D01*
X75709715Y-53293060D01*
X75901983Y-53254815D01*
X76098017Y-53254815D01*
X76290285Y-53293060D01*
G37*
G36*
X117250000Y-53500000D02*
G01*
X116000000Y-53500000D01*
X116000000Y-52500000D01*
X117250000Y-52500000D01*
X117250000Y-53500000D01*
G37*
G36*
X125000000Y-53500000D02*
G01*
X123750000Y-53500000D01*
X123750000Y-52500000D01*
X125000000Y-52500000D01*
X125000000Y-53500000D01*
G37*
G36*
X50790285Y-48793060D02*
G01*
X50971397Y-48868079D01*
X51134393Y-48976990D01*
X51273010Y-49115607D01*
X51381921Y-49278603D01*
X51456940Y-49459715D01*
X51495185Y-49651983D01*
X51495185Y-49848017D01*
X51456940Y-50040285D01*
X51381921Y-50221397D01*
X51273010Y-50384393D01*
X51134393Y-50523010D01*
X50971397Y-50631921D01*
X50790285Y-50706940D01*
X50598017Y-50745185D01*
X50401983Y-50745185D01*
X50209715Y-50706940D01*
X50028603Y-50631921D01*
X49865607Y-50523010D01*
X49726990Y-50384393D01*
X49618079Y-50221397D01*
X49543060Y-50040285D01*
X49504815Y-49848017D01*
X49504815Y-49651983D01*
X49543060Y-49459715D01*
X49618079Y-49278603D01*
X49726990Y-49115607D01*
X49865607Y-48976990D01*
X50028603Y-48868079D01*
X50209715Y-48793060D01*
X50401983Y-48754815D01*
X50598017Y-48754815D01*
X50790285Y-48793060D01*
G37*
G36*
X57290285Y-48793060D02*
G01*
X57471397Y-48868079D01*
X57634393Y-48976990D01*
X57773010Y-49115607D01*
X57881921Y-49278603D01*
X57956940Y-49459715D01*
X57995185Y-49651983D01*
X57995185Y-49848017D01*
X57956940Y-50040285D01*
X57881921Y-50221397D01*
X57773010Y-50384393D01*
X57634393Y-50523010D01*
X57471397Y-50631921D01*
X57290285Y-50706940D01*
X57098017Y-50745185D01*
X56901983Y-50745185D01*
X56709715Y-50706940D01*
X56528603Y-50631921D01*
X56365607Y-50523010D01*
X56226990Y-50384393D01*
X56118079Y-50221397D01*
X56043060Y-50040285D01*
X56004815Y-49848017D01*
X56004815Y-49651983D01*
X56043060Y-49459715D01*
X56118079Y-49278603D01*
X56226990Y-49115607D01*
X56365607Y-48976990D01*
X56528603Y-48868079D01*
X56709715Y-48793060D01*
X56901983Y-48754815D01*
X57098017Y-48754815D01*
X57290285Y-48793060D01*
G37*
G36*
X60290285Y-48793060D02*
G01*
X60471397Y-48868079D01*
X60634393Y-48976990D01*
X60773010Y-49115607D01*
X60881921Y-49278603D01*
X60956940Y-49459715D01*
X60995185Y-49651983D01*
X60995185Y-49848017D01*
X60956940Y-50040285D01*
X60881921Y-50221397D01*
X60773010Y-50384393D01*
X60634393Y-50523010D01*
X60471397Y-50631921D01*
X60290285Y-50706940D01*
X60098017Y-50745185D01*
X59901983Y-50745185D01*
X59709715Y-50706940D01*
X59528603Y-50631921D01*
X59365607Y-50523010D01*
X59226990Y-50384393D01*
X59118079Y-50221397D01*
X59043060Y-50040285D01*
X59004815Y-49848017D01*
X59004815Y-49651983D01*
X59043060Y-49459715D01*
X59118079Y-49278603D01*
X59226990Y-49115607D01*
X59365607Y-48976990D01*
X59528603Y-48868079D01*
X59709715Y-48793060D01*
X59901983Y-48754815D01*
X60098017Y-48754815D01*
X60290285Y-48793060D01*
G37*
G36*
X66790285Y-48793060D02*
G01*
X66971397Y-48868079D01*
X67134393Y-48976990D01*
X67273010Y-49115607D01*
X67381921Y-49278603D01*
X67456940Y-49459715D01*
X67495185Y-49651983D01*
X67495185Y-49848017D01*
X67456940Y-50040285D01*
X67381921Y-50221397D01*
X67273010Y-50384393D01*
X67134393Y-50523010D01*
X66971397Y-50631921D01*
X66790285Y-50706940D01*
X66598017Y-50745185D01*
X66401983Y-50745185D01*
X66209715Y-50706940D01*
X66028603Y-50631921D01*
X65865607Y-50523010D01*
X65726990Y-50384393D01*
X65618079Y-50221397D01*
X65543060Y-50040285D01*
X65504815Y-49848017D01*
X65504815Y-49651983D01*
X65543060Y-49459715D01*
X65618079Y-49278603D01*
X65726990Y-49115607D01*
X65865607Y-48976990D01*
X66028603Y-48868079D01*
X66209715Y-48793060D01*
X66401983Y-48754815D01*
X66598017Y-48754815D01*
X66790285Y-48793060D01*
G37*
G36*
X69790285Y-48793060D02*
G01*
X69971397Y-48868079D01*
X70134393Y-48976990D01*
X70273010Y-49115607D01*
X70381921Y-49278603D01*
X70456940Y-49459715D01*
X70495185Y-49651983D01*
X70495185Y-49848017D01*
X70456940Y-50040285D01*
X70381921Y-50221397D01*
X70273010Y-50384393D01*
X70134393Y-50523010D01*
X69971397Y-50631921D01*
X69790285Y-50706940D01*
X69598017Y-50745185D01*
X69401983Y-50745185D01*
X69209715Y-50706940D01*
X69028603Y-50631921D01*
X68865607Y-50523010D01*
X68726990Y-50384393D01*
X68618079Y-50221397D01*
X68543060Y-50040285D01*
X68504815Y-49848017D01*
X68504815Y-49651983D01*
X68543060Y-49459715D01*
X68618079Y-49278603D01*
X68726990Y-49115607D01*
X68865607Y-48976990D01*
X69028603Y-48868079D01*
X69209715Y-48793060D01*
X69401983Y-48754815D01*
X69598017Y-48754815D01*
X69790285Y-48793060D01*
G37*
G36*
X76290285Y-48793060D02*
G01*
X76471397Y-48868079D01*
X76634393Y-48976990D01*
X76773010Y-49115607D01*
X76881921Y-49278603D01*
X76956940Y-49459715D01*
X76995185Y-49651983D01*
X76995185Y-49848017D01*
X76956940Y-50040285D01*
X76881921Y-50221397D01*
X76773010Y-50384393D01*
X76634393Y-50523010D01*
X76471397Y-50631921D01*
X76290285Y-50706940D01*
X76098017Y-50745185D01*
X75901983Y-50745185D01*
X75709715Y-50706940D01*
X75528603Y-50631921D01*
X75365607Y-50523010D01*
X75226990Y-50384393D01*
X75118079Y-50221397D01*
X75043060Y-50040285D01*
X75004815Y-49848017D01*
X75004815Y-49651983D01*
X75043060Y-49459715D01*
X75118079Y-49278603D01*
X75226990Y-49115607D01*
X75365607Y-48976990D01*
X75528603Y-48868079D01*
X75709715Y-48793060D01*
X75901983Y-48754815D01*
X76098017Y-48754815D01*
X76290285Y-48793060D01*
G37*
M02*
