G04 #@! TF.GenerationSoftware,KiCad,Pcbnew,9.0.4*
G04 #@! TF.CreationDate,2025-12-06T15:03:03-05:00*
G04 #@! TF.ProjectId,shiftclock-3.0,73686966-7463-46c6-9f63-6b2d332e302e,rev?*
G04 #@! TF.SameCoordinates,Original*
G04 #@! TF.FileFunction,Soldermask,Bot*
G04 #@! TF.FilePolarity,Negative*
%FSLAX46Y46*%
G04 Gerber Fmt 4.6, Leading zero omitted, Abs format (unit mm)*
G04 Created by KiCad (PCBNEW 9.0.4) date 2025-12-06 15:03:03*
%MOMM*%
%LPD*%
G01*
G04 APERTURE LIST*
G04 APERTURE END LIST*
G36*
X145190285Y-64043060D02*
G01*
X145371397Y-64118079D01*
X145534393Y-64226990D01*
X145673010Y-64365607D01*
X145781921Y-64528603D01*
X145856940Y-64709715D01*
X145895185Y-64901983D01*
X145895185Y-65098017D01*
X145856940Y-65290285D01*
X145781921Y-65471397D01*
X145673010Y-65634393D01*
X145534393Y-65773010D01*
X145371397Y-65881921D01*
X145190285Y-65956940D01*
X144998017Y-65995185D01*
X144801983Y-65995185D01*
X144609715Y-65956940D01*
X144428603Y-65881921D01*
X144265607Y-65773010D01*
X144126990Y-65634393D01*
X144018079Y-65471397D01*
X143943060Y-65290285D01*
X143904815Y-65098017D01*
X143904815Y-64901983D01*
X143943060Y-64709715D01*
X144018079Y-64528603D01*
X144126990Y-64365607D01*
X144265607Y-64226990D01*
X144428603Y-64118079D01*
X144609715Y-64043060D01*
X144801983Y-64004815D01*
X144998017Y-64004815D01*
X145190285Y-64043060D01*
G37*
G36*
X150190285Y-64043060D02*
G01*
X150371397Y-64118079D01*
X150534393Y-64226990D01*
X150673010Y-64365607D01*
X150781921Y-64528603D01*
X150856940Y-64709715D01*
X150895185Y-64901983D01*
X150895185Y-65098017D01*
X150856940Y-65290285D01*
X150781921Y-65471397D01*
X150673010Y-65634393D01*
X150534393Y-65773010D01*
X150371397Y-65881921D01*
X150190285Y-65956940D01*
X149998017Y-65995185D01*
X149801983Y-65995185D01*
X149609715Y-65956940D01*
X149428603Y-65881921D01*
X149265607Y-65773010D01*
X149126990Y-65634393D01*
X149018079Y-65471397D01*
X148943060Y-65290285D01*
X148904815Y-65098017D01*
X148904815Y-64901983D01*
X148943060Y-64709715D01*
X149018079Y-64528603D01*
X149126990Y-64365607D01*
X149265607Y-64226990D01*
X149428603Y-64118079D01*
X149609715Y-64043060D01*
X149801983Y-64004815D01*
X149998017Y-64004815D01*
X150190285Y-64043060D01*
G37*
G36*
X102054850Y-62700964D02*
G01*
X102105040Y-62706787D01*
X102122189Y-62714359D01*
X102145671Y-62719030D01*
X102170810Y-62735827D01*
X102190696Y-62744608D01*
X102204277Y-62758189D01*
X102226777Y-62773223D01*
X102241810Y-62795722D01*
X102255391Y-62809303D01*
X102264170Y-62829186D01*
X102280970Y-62854329D01*
X102285641Y-62877812D01*
X102293212Y-62894959D01*
X102299033Y-62945139D01*
X102300000Y-62950000D01*
X102300000Y-65450000D01*
X102299032Y-65454863D01*
X102293212Y-65505040D01*
X102285641Y-65522185D01*
X102280970Y-65545671D01*
X102264169Y-65570815D01*
X102255391Y-65590696D01*
X102241812Y-65604274D01*
X102226777Y-65626777D01*
X102204274Y-65641812D01*
X102190696Y-65655391D01*
X102170815Y-65664169D01*
X102145671Y-65680970D01*
X102122185Y-65685641D01*
X102105040Y-65693212D01*
X102054861Y-65699032D01*
X102050000Y-65700000D01*
X100950000Y-65700000D01*
X100945138Y-65699032D01*
X100894959Y-65693212D01*
X100877812Y-65685641D01*
X100854329Y-65680970D01*
X100829186Y-65664170D01*
X100809303Y-65655391D01*
X100795722Y-65641810D01*
X100773223Y-65626777D01*
X100758189Y-65604277D01*
X100744608Y-65590696D01*
X100735827Y-65570810D01*
X100719030Y-65545671D01*
X100714359Y-65522189D01*
X100706787Y-65505040D01*
X100700964Y-65454849D01*
X100700000Y-65450000D01*
X100700000Y-62950000D01*
X100700964Y-62945150D01*
X100706787Y-62894959D01*
X100714359Y-62877808D01*
X100719030Y-62854329D01*
X100735826Y-62829191D01*
X100744608Y-62809303D01*
X100758191Y-62795719D01*
X100773223Y-62773223D01*
X100795719Y-62758191D01*
X100809303Y-62744608D01*
X100829191Y-62735826D01*
X100854329Y-62719030D01*
X100877808Y-62714359D01*
X100894959Y-62706787D01*
X100945151Y-62700964D01*
X100950000Y-62700000D01*
X102050000Y-62700000D01*
X102054850Y-62700964D01*
G37*
G36*
X41848737Y-64793850D02*
G01*
X41962208Y-64824254D01*
X42063943Y-64882991D01*
X42147009Y-64966057D01*
X42205746Y-65067792D01*
X42236150Y-65181263D01*
X42236150Y-65298737D01*
X42205746Y-65412208D01*
X42147009Y-65513943D01*
X42063943Y-65597009D01*
X41962208Y-65655746D01*
X41848737Y-65686150D01*
X41790000Y-65690000D01*
X41788029Y-65690000D01*
X40991971Y-65690000D01*
X40990000Y-65690000D01*
X40931263Y-65686150D01*
X40817792Y-65655746D01*
X40716057Y-65597009D01*
X40632991Y-65513943D01*
X40574254Y-65412208D01*
X40543850Y-65298737D01*
X40543850Y-65181263D01*
X40574254Y-65067792D01*
X40632991Y-64966057D01*
X40716057Y-64882991D01*
X40817792Y-64824254D01*
X40931263Y-64793850D01*
X40990000Y-64790000D01*
X41790000Y-64790000D01*
X41848737Y-64793850D01*
G37*
G36*
X46168737Y-64793850D02*
G01*
X46282208Y-64824254D01*
X46383943Y-64882991D01*
X46467009Y-64966057D01*
X46525746Y-65067792D01*
X46556150Y-65181263D01*
X46556150Y-65298737D01*
X46525746Y-65412208D01*
X46467009Y-65513943D01*
X46383943Y-65597009D01*
X46282208Y-65655746D01*
X46168737Y-65686150D01*
X46110000Y-65690000D01*
X46108029Y-65690000D01*
X45011971Y-65690000D01*
X45010000Y-65690000D01*
X44951263Y-65686150D01*
X44837792Y-65655746D01*
X44736057Y-65597009D01*
X44652991Y-65513943D01*
X44594254Y-65412208D01*
X44563850Y-65298737D01*
X44563850Y-65181263D01*
X44594254Y-65067792D01*
X44652991Y-64966057D01*
X44736057Y-64882991D01*
X44837792Y-64824254D01*
X44951263Y-64793850D01*
X45010000Y-64790000D01*
X46110000Y-64790000D01*
X46168737Y-64793850D01*
G37*
G36*
X57900000Y-65000000D02*
G01*
X56400000Y-65000000D01*
X56400000Y-63500000D01*
X57900000Y-63500000D01*
X57900000Y-65000000D01*
G37*
G36*
X108750000Y-65000000D02*
G01*
X107250000Y-65000000D01*
X107250000Y-63500000D01*
X108750000Y-63500000D01*
X108750000Y-65000000D01*
G37*
G36*
X59907714Y-63532295D02*
G01*
X60043548Y-63588559D01*
X60165795Y-63670242D01*
X60269758Y-63774205D01*
X60351441Y-63896452D01*
X60407705Y-64032286D01*
X60436389Y-64176487D01*
X60436389Y-64323513D01*
X60407705Y-64467714D01*
X60351441Y-64603548D01*
X60269758Y-64725795D01*
X60165795Y-64829758D01*
X60043548Y-64911441D01*
X59907714Y-64967705D01*
X59763513Y-64996389D01*
X59616487Y-64996389D01*
X59472286Y-64967705D01*
X59336452Y-64911441D01*
X59214205Y-64829758D01*
X59110242Y-64725795D01*
X59028559Y-64603548D01*
X58972295Y-64467714D01*
X58943611Y-64323513D01*
X58943611Y-64176487D01*
X58972295Y-64032286D01*
X59028559Y-63896452D01*
X59110242Y-63774205D01*
X59214205Y-63670242D01*
X59336452Y-63588559D01*
X59472286Y-63532295D01*
X59616487Y-63503611D01*
X59763513Y-63503611D01*
X59907714Y-63532295D01*
G37*
G36*
X62447714Y-63532295D02*
G01*
X62583548Y-63588559D01*
X62705795Y-63670242D01*
X62809758Y-63774205D01*
X62891441Y-63896452D01*
X62947705Y-64032286D01*
X62976389Y-64176487D01*
X62976389Y-64323513D01*
X62947705Y-64467714D01*
X62891441Y-64603548D01*
X62809758Y-64725795D01*
X62705795Y-64829758D01*
X62583548Y-64911441D01*
X62447714Y-64967705D01*
X62303513Y-64996389D01*
X62156487Y-64996389D01*
X62012286Y-64967705D01*
X61876452Y-64911441D01*
X61754205Y-64829758D01*
X61650242Y-64725795D01*
X61568559Y-64603548D01*
X61512295Y-64467714D01*
X61483611Y-64323513D01*
X61483611Y-64176487D01*
X61512295Y-64032286D01*
X61568559Y-63896452D01*
X61650242Y-63774205D01*
X61754205Y-63670242D01*
X61876452Y-63588559D01*
X62012286Y-63532295D01*
X62156487Y-63503611D01*
X62303513Y-63503611D01*
X62447714Y-63532295D01*
G37*
G36*
X64987714Y-63532295D02*
G01*
X65123548Y-63588559D01*
X65245795Y-63670242D01*
X65349758Y-63774205D01*
X65431441Y-63896452D01*
X65487705Y-64032286D01*
X65516389Y-64176487D01*
X65516389Y-64323513D01*
X65487705Y-64467714D01*
X65431441Y-64603548D01*
X65349758Y-64725795D01*
X65245795Y-64829758D01*
X65123548Y-64911441D01*
X64987714Y-64967705D01*
X64843513Y-64996389D01*
X64696487Y-64996389D01*
X64552286Y-64967705D01*
X64416452Y-64911441D01*
X64294205Y-64829758D01*
X64190242Y-64725795D01*
X64108559Y-64603548D01*
X64052295Y-64467714D01*
X64023611Y-64323513D01*
X64023611Y-64176487D01*
X64052295Y-64032286D01*
X64108559Y-63896452D01*
X64190242Y-63774205D01*
X64294205Y-63670242D01*
X64416452Y-63588559D01*
X64552286Y-63532295D01*
X64696487Y-63503611D01*
X64843513Y-63503611D01*
X64987714Y-63532295D01*
G37*
G36*
X67527714Y-63532295D02*
G01*
X67663548Y-63588559D01*
X67785795Y-63670242D01*
X67889758Y-63774205D01*
X67971441Y-63896452D01*
X68027705Y-64032286D01*
X68056389Y-64176487D01*
X68056389Y-64323513D01*
X68027705Y-64467714D01*
X67971441Y-64603548D01*
X67889758Y-64725795D01*
X67785795Y-64829758D01*
X67663548Y-64911441D01*
X67527714Y-64967705D01*
X67383513Y-64996389D01*
X67236487Y-64996389D01*
X67092286Y-64967705D01*
X66956452Y-64911441D01*
X66834205Y-64829758D01*
X66730242Y-64725795D01*
X66648559Y-64603548D01*
X66592295Y-64467714D01*
X66563611Y-64323513D01*
X66563611Y-64176487D01*
X66592295Y-64032286D01*
X66648559Y-63896452D01*
X66730242Y-63774205D01*
X66834205Y-63670242D01*
X66956452Y-63588559D01*
X67092286Y-63532295D01*
X67236487Y-63503611D01*
X67383513Y-63503611D01*
X67527714Y-63532295D01*
G37*
G36*
X70067714Y-63532295D02*
G01*
X70203548Y-63588559D01*
X70325795Y-63670242D01*
X70429758Y-63774205D01*
X70511441Y-63896452D01*
X70567705Y-64032286D01*
X70596389Y-64176487D01*
X70596389Y-64323513D01*
X70567705Y-64467714D01*
X70511441Y-64603548D01*
X70429758Y-64725795D01*
X70325795Y-64829758D01*
X70203548Y-64911441D01*
X70067714Y-64967705D01*
X69923513Y-64996389D01*
X69776487Y-64996389D01*
X69632286Y-64967705D01*
X69496452Y-64911441D01*
X69374205Y-64829758D01*
X69270242Y-64725795D01*
X69188559Y-64603548D01*
X69132295Y-64467714D01*
X69103611Y-64323513D01*
X69103611Y-64176487D01*
X69132295Y-64032286D01*
X69188559Y-63896452D01*
X69270242Y-63774205D01*
X69374205Y-63670242D01*
X69496452Y-63588559D01*
X69632286Y-63532295D01*
X69776487Y-63503611D01*
X69923513Y-63503611D01*
X70067714Y-63532295D01*
G37*
G36*
X110757714Y-63532295D02*
G01*
X110893548Y-63588559D01*
X111015795Y-63670242D01*
X111119758Y-63774205D01*
X111201441Y-63896452D01*
X111257705Y-64032286D01*
X111286389Y-64176487D01*
X111286389Y-64323513D01*
X111257705Y-64467714D01*
X111201441Y-64603548D01*
X111119758Y-64725795D01*
X111015795Y-64829758D01*
X110893548Y-64911441D01*
X110757714Y-64967705D01*
X110613513Y-64996389D01*
X110466487Y-64996389D01*
X110322286Y-64967705D01*
X110186452Y-64911441D01*
X110064205Y-64829758D01*
X109960242Y-64725795D01*
X109878559Y-64603548D01*
X109822295Y-64467714D01*
X109793611Y-64323513D01*
X109793611Y-64176487D01*
X109822295Y-64032286D01*
X109878559Y-63896452D01*
X109960242Y-63774205D01*
X110064205Y-63670242D01*
X110186452Y-63588559D01*
X110322286Y-63532295D01*
X110466487Y-63503611D01*
X110613513Y-63503611D01*
X110757714Y-63532295D01*
G37*
G36*
X113297714Y-63532295D02*
G01*
X113433548Y-63588559D01*
X113555795Y-63670242D01*
X113659758Y-63774205D01*
X113741441Y-63896452D01*
X113797705Y-64032286D01*
X113826389Y-64176487D01*
X113826389Y-64323513D01*
X113797705Y-64467714D01*
X113741441Y-64603548D01*
X113659758Y-64725795D01*
X113555795Y-64829758D01*
X113433548Y-64911441D01*
X113297714Y-64967705D01*
X113153513Y-64996389D01*
X113006487Y-64996389D01*
X112862286Y-64967705D01*
X112726452Y-64911441D01*
X112604205Y-64829758D01*
X112500242Y-64725795D01*
X112418559Y-64603548D01*
X112362295Y-64467714D01*
X112333611Y-64323513D01*
X112333611Y-64176487D01*
X112362295Y-64032286D01*
X112418559Y-63896452D01*
X112500242Y-63774205D01*
X112604205Y-63670242D01*
X112726452Y-63588559D01*
X112862286Y-63532295D01*
X113006487Y-63503611D01*
X113153513Y-63503611D01*
X113297714Y-63532295D01*
G37*
G36*
X115837714Y-63532295D02*
G01*
X115973548Y-63588559D01*
X116095795Y-63670242D01*
X116199758Y-63774205D01*
X116281441Y-63896452D01*
X116337705Y-64032286D01*
X116366389Y-64176487D01*
X116366389Y-64323513D01*
X116337705Y-64467714D01*
X116281441Y-64603548D01*
X116199758Y-64725795D01*
X116095795Y-64829758D01*
X115973548Y-64911441D01*
X115837714Y-64967705D01*
X115693513Y-64996389D01*
X115546487Y-64996389D01*
X115402286Y-64967705D01*
X115266452Y-64911441D01*
X115144205Y-64829758D01*
X115040242Y-64725795D01*
X114958559Y-64603548D01*
X114902295Y-64467714D01*
X114873611Y-64323513D01*
X114873611Y-64176487D01*
X114902295Y-64032286D01*
X114958559Y-63896452D01*
X115040242Y-63774205D01*
X115144205Y-63670242D01*
X115266452Y-63588559D01*
X115402286Y-63532295D01*
X115546487Y-63503611D01*
X115693513Y-63503611D01*
X115837714Y-63532295D01*
G37*
G36*
X118377714Y-63532295D02*
G01*
X118513548Y-63588559D01*
X118635795Y-63670242D01*
X118739758Y-63774205D01*
X118821441Y-63896452D01*
X118877705Y-64032286D01*
X118906389Y-64176487D01*
X118906389Y-64323513D01*
X118877705Y-64467714D01*
X118821441Y-64603548D01*
X118739758Y-64725795D01*
X118635795Y-64829758D01*
X118513548Y-64911441D01*
X118377714Y-64967705D01*
X118233513Y-64996389D01*
X118086487Y-64996389D01*
X117942286Y-64967705D01*
X117806452Y-64911441D01*
X117684205Y-64829758D01*
X117580242Y-64725795D01*
X117498559Y-64603548D01*
X117442295Y-64467714D01*
X117413611Y-64323513D01*
X117413611Y-64176487D01*
X117442295Y-64032286D01*
X117498559Y-63896452D01*
X117580242Y-63774205D01*
X117684205Y-63670242D01*
X117806452Y-63588559D01*
X117942286Y-63532295D01*
X118086487Y-63503611D01*
X118233513Y-63503611D01*
X118377714Y-63532295D01*
G37*
G36*
X120917714Y-63532295D02*
G01*
X121053548Y-63588559D01*
X121175795Y-63670242D01*
X121279758Y-63774205D01*
X121361441Y-63896452D01*
X121417705Y-64032286D01*
X121446389Y-64176487D01*
X121446389Y-64323513D01*
X121417705Y-64467714D01*
X121361441Y-64603548D01*
X121279758Y-64725795D01*
X121175795Y-64829758D01*
X121053548Y-64911441D01*
X120917714Y-64967705D01*
X120773513Y-64996389D01*
X120626487Y-64996389D01*
X120482286Y-64967705D01*
X120346452Y-64911441D01*
X120224205Y-64829758D01*
X120120242Y-64725795D01*
X120038559Y-64603548D01*
X119982295Y-64467714D01*
X119953611Y-64323513D01*
X119953611Y-64176487D01*
X119982295Y-64032286D01*
X120038559Y-63896452D01*
X120120242Y-63774205D01*
X120224205Y-63670242D01*
X120346452Y-63588559D01*
X120482286Y-63532295D01*
X120626487Y-63503611D01*
X120773513Y-63503611D01*
X120917714Y-63532295D01*
G37*
G36*
X48654850Y-63150964D02*
G01*
X48705040Y-63156787D01*
X48722189Y-63164359D01*
X48745671Y-63169030D01*
X48770810Y-63185827D01*
X48790696Y-63194608D01*
X48804277Y-63208189D01*
X48826777Y-63223223D01*
X48841810Y-63245722D01*
X48855391Y-63259303D01*
X48864170Y-63279186D01*
X48880970Y-63304329D01*
X48885641Y-63327812D01*
X48893212Y-63344959D01*
X48899033Y-63395139D01*
X48900000Y-63400000D01*
X48900000Y-64600000D01*
X48899032Y-64604863D01*
X48893212Y-64655040D01*
X48885641Y-64672185D01*
X48880970Y-64695671D01*
X48864169Y-64720815D01*
X48855391Y-64740696D01*
X48841812Y-64754274D01*
X48826777Y-64776777D01*
X48804274Y-64791812D01*
X48790696Y-64805391D01*
X48770815Y-64814169D01*
X48745671Y-64830970D01*
X48722185Y-64835641D01*
X48705040Y-64843212D01*
X48654861Y-64849032D01*
X48650000Y-64850000D01*
X47850000Y-64850000D01*
X47845138Y-64849032D01*
X47794959Y-64843212D01*
X47777812Y-64835641D01*
X47754329Y-64830970D01*
X47729186Y-64814170D01*
X47709303Y-64805391D01*
X47695722Y-64791810D01*
X47673223Y-64776777D01*
X47658189Y-64754277D01*
X47644608Y-64740696D01*
X47635827Y-64720810D01*
X47619030Y-64695671D01*
X47614359Y-64672189D01*
X47606787Y-64655040D01*
X47600964Y-64604849D01*
X47600000Y-64600000D01*
X47600000Y-63400000D01*
X47600964Y-63395150D01*
X47606787Y-63344959D01*
X47614359Y-63327808D01*
X47619030Y-63304329D01*
X47635826Y-63279191D01*
X47644608Y-63259303D01*
X47658191Y-63245719D01*
X47673223Y-63223223D01*
X47695719Y-63208191D01*
X47709303Y-63194608D01*
X47729191Y-63185826D01*
X47754329Y-63169030D01*
X47777808Y-63164359D01*
X47794959Y-63156787D01*
X47845151Y-63150964D01*
X47850000Y-63150000D01*
X48650000Y-63150000D01*
X48654850Y-63150964D01*
G37*
G36*
X52154850Y-63150964D02*
G01*
X52205040Y-63156787D01*
X52222189Y-63164359D01*
X52245671Y-63169030D01*
X52270810Y-63185827D01*
X52290696Y-63194608D01*
X52304277Y-63208189D01*
X52326777Y-63223223D01*
X52341810Y-63245722D01*
X52355391Y-63259303D01*
X52364170Y-63279186D01*
X52380970Y-63304329D01*
X52385641Y-63327812D01*
X52393212Y-63344959D01*
X52399033Y-63395139D01*
X52400000Y-63400000D01*
X52400000Y-64600000D01*
X52399032Y-64604863D01*
X52393212Y-64655040D01*
X52385641Y-64672185D01*
X52380970Y-64695671D01*
X52364169Y-64720815D01*
X52355391Y-64740696D01*
X52341812Y-64754274D01*
X52326777Y-64776777D01*
X52304274Y-64791812D01*
X52290696Y-64805391D01*
X52270815Y-64814169D01*
X52245671Y-64830970D01*
X52222185Y-64835641D01*
X52205040Y-64843212D01*
X52154861Y-64849032D01*
X52150000Y-64850000D01*
X51350000Y-64850000D01*
X51345138Y-64849032D01*
X51294959Y-64843212D01*
X51277812Y-64835641D01*
X51254329Y-64830970D01*
X51229186Y-64814170D01*
X51209303Y-64805391D01*
X51195722Y-64791810D01*
X51173223Y-64776777D01*
X51158189Y-64754277D01*
X51144608Y-64740696D01*
X51135827Y-64720810D01*
X51119030Y-64695671D01*
X51114359Y-64672189D01*
X51106787Y-64655040D01*
X51100964Y-64604849D01*
X51100000Y-64600000D01*
X51100000Y-63400000D01*
X51100964Y-63395150D01*
X51106787Y-63344959D01*
X51114359Y-63327808D01*
X51119030Y-63304329D01*
X51135826Y-63279191D01*
X51144608Y-63259303D01*
X51158191Y-63245719D01*
X51173223Y-63223223D01*
X51195719Y-63208191D01*
X51209303Y-63194608D01*
X51229191Y-63185826D01*
X51254329Y-63169030D01*
X51277808Y-63164359D01*
X51294959Y-63156787D01*
X51345151Y-63150964D01*
X51350000Y-63150000D01*
X52150000Y-63150000D01*
X52154850Y-63150964D01*
G37*
G36*
X46720000Y-64420000D02*
G01*
X45560000Y-64420000D01*
X45560000Y-63820000D01*
X46720000Y-63820000D01*
X46720000Y-64420000D01*
G37*
G36*
X86400000Y-64400000D02*
G01*
X85400000Y-64400000D01*
X85400000Y-62600000D01*
X86400000Y-62600000D01*
X86400000Y-64400000D01*
G37*
G36*
X88400000Y-64400000D02*
G01*
X87400000Y-64400000D01*
X87400000Y-62600000D01*
X88400000Y-62600000D01*
X88400000Y-64400000D01*
G37*
G36*
X90400000Y-64400000D02*
G01*
X89400000Y-64400000D01*
X89400000Y-62600000D01*
X90400000Y-62600000D01*
X90400000Y-64400000D01*
G37*
G36*
X92400000Y-64400000D02*
G01*
X91400000Y-64400000D01*
X91400000Y-62600000D01*
X92400000Y-62600000D01*
X92400000Y-64400000D01*
G37*
G36*
X84400000Y-64399999D02*
G01*
X83400000Y-64399999D01*
X83400000Y-62599999D01*
X84400000Y-62599999D01*
X84400000Y-64399999D01*
G37*
G36*
X94400000Y-64399999D02*
G01*
X93400000Y-64399999D01*
X93400000Y-62599999D01*
X94400000Y-62599999D01*
X94400000Y-64399999D01*
G37*
G36*
X55154850Y-62900964D02*
G01*
X55205040Y-62906787D01*
X55222189Y-62914359D01*
X55245671Y-62919030D01*
X55270810Y-62935827D01*
X55290696Y-62944608D01*
X55304277Y-62958189D01*
X55326777Y-62973223D01*
X55341810Y-62995722D01*
X55355391Y-63009303D01*
X55364170Y-63029186D01*
X55380970Y-63054329D01*
X55385641Y-63077812D01*
X55393212Y-63094959D01*
X55399033Y-63145139D01*
X55400000Y-63150000D01*
X55400000Y-63975000D01*
X55399032Y-63979863D01*
X55393212Y-64030040D01*
X55385641Y-64047185D01*
X55380970Y-64070671D01*
X55364169Y-64095815D01*
X55355391Y-64115696D01*
X55341812Y-64129274D01*
X55326777Y-64151777D01*
X55304274Y-64166812D01*
X55290696Y-64180391D01*
X55270815Y-64189169D01*
X55245671Y-64205970D01*
X55222185Y-64210641D01*
X55205040Y-64218212D01*
X55154861Y-64224032D01*
X55150000Y-64225000D01*
X53850000Y-64225000D01*
X53845138Y-64224032D01*
X53794959Y-64218212D01*
X53777812Y-64210641D01*
X53754329Y-64205970D01*
X53729186Y-64189170D01*
X53709303Y-64180391D01*
X53695722Y-64166810D01*
X53673223Y-64151777D01*
X53658189Y-64129277D01*
X53644608Y-64115696D01*
X53635827Y-64095810D01*
X53619030Y-64070671D01*
X53614359Y-64047189D01*
X53606787Y-64030040D01*
X53600964Y-63979849D01*
X53600000Y-63975000D01*
X53600000Y-63150000D01*
X53600964Y-63145150D01*
X53606787Y-63094959D01*
X53614359Y-63077808D01*
X53619030Y-63054329D01*
X53635826Y-63029191D01*
X53644608Y-63009303D01*
X53658191Y-62995719D01*
X53673223Y-62973223D01*
X53695719Y-62958191D01*
X53709303Y-62944608D01*
X53729191Y-62935826D01*
X53754329Y-62919030D01*
X53777808Y-62914359D01*
X53794959Y-62906787D01*
X53845151Y-62900964D01*
X53850000Y-62900000D01*
X55150000Y-62900000D01*
X55154850Y-62900964D01*
G37*
G36*
X78629850Y-62900964D02*
G01*
X78680040Y-62906787D01*
X78697189Y-62914359D01*
X78720671Y-62919030D01*
X78745810Y-62935827D01*
X78765696Y-62944608D01*
X78779277Y-62958189D01*
X78801777Y-62973223D01*
X78816810Y-62995722D01*
X78830391Y-63009303D01*
X78839170Y-63029186D01*
X78855970Y-63054329D01*
X78860641Y-63077812D01*
X78868212Y-63094959D01*
X78874033Y-63145139D01*
X78875000Y-63150000D01*
X78875000Y-63950000D01*
X78874032Y-63954863D01*
X78868212Y-64005040D01*
X78860641Y-64022185D01*
X78855970Y-64045671D01*
X78839169Y-64070815D01*
X78830391Y-64090696D01*
X78816812Y-64104274D01*
X78801777Y-64126777D01*
X78779274Y-64141812D01*
X78765696Y-64155391D01*
X78745815Y-64164169D01*
X78720671Y-64180970D01*
X78697185Y-64185641D01*
X78680040Y-64193212D01*
X78629861Y-64199032D01*
X78625000Y-64200000D01*
X77375000Y-64200000D01*
X77370138Y-64199032D01*
X77319959Y-64193212D01*
X77302812Y-64185641D01*
X77279329Y-64180970D01*
X77254186Y-64164170D01*
X77234303Y-64155391D01*
X77220722Y-64141810D01*
X77198223Y-64126777D01*
X77183189Y-64104277D01*
X77169608Y-64090696D01*
X77160827Y-64070810D01*
X77144030Y-64045671D01*
X77139359Y-64022189D01*
X77131787Y-64005040D01*
X77125964Y-63954849D01*
X77125000Y-63950000D01*
X77125000Y-63150000D01*
X77125964Y-63145150D01*
X77131787Y-63094959D01*
X77139359Y-63077808D01*
X77144030Y-63054329D01*
X77160826Y-63029191D01*
X77169608Y-63009303D01*
X77183191Y-62995719D01*
X77198223Y-62973223D01*
X77220719Y-62958191D01*
X77234303Y-62944608D01*
X77254191Y-62935826D01*
X77279329Y-62919030D01*
X77302808Y-62914359D01*
X77319959Y-62906787D01*
X77370151Y-62900964D01*
X77375000Y-62900000D01*
X78625000Y-62900000D01*
X78629850Y-62900964D01*
G37*
G36*
X45194805Y-63532836D02*
G01*
X45262628Y-63571994D01*
X45318006Y-63627372D01*
X45357164Y-63695195D01*
X45377433Y-63770842D01*
X45377433Y-63849158D01*
X45357164Y-63924805D01*
X45318006Y-63992628D01*
X45262628Y-64048006D01*
X45194805Y-64087164D01*
X45119158Y-64107433D01*
X45040842Y-64107433D01*
X44965195Y-64087164D01*
X44897372Y-64048006D01*
X44841994Y-63992628D01*
X44802836Y-63924805D01*
X44782567Y-63849158D01*
X44782567Y-63770842D01*
X44802836Y-63695195D01*
X44841994Y-63627372D01*
X44897372Y-63571994D01*
X44965195Y-63532836D01*
X45040842Y-63512567D01*
X45119158Y-63512567D01*
X45194805Y-63532836D01*
G37*
G36*
X46720000Y-63620000D02*
G01*
X45560000Y-63620000D01*
X45560000Y-63020000D01*
X46720000Y-63020000D01*
X46720000Y-63620000D01*
G37*
G36*
X46720000Y-62820000D02*
G01*
X45560000Y-62820000D01*
X45560000Y-62520000D01*
X46720000Y-62520000D01*
X46720000Y-62820000D01*
G37*
G36*
X82550000Y-62500000D02*
G01*
X80050000Y-62500000D01*
X80050000Y-61500000D01*
X82550000Y-61500000D01*
X82550000Y-62500000D01*
G37*
G36*
X97750000Y-62500000D02*
G01*
X95250000Y-62500000D01*
X95250000Y-61500000D01*
X97750000Y-61500000D01*
X97750000Y-62500000D01*
G37*
G36*
X105722403Y-60398918D02*
G01*
X105771066Y-60431434D01*
X105803582Y-60480097D01*
X105815000Y-60537500D01*
X105815000Y-62287500D01*
X105803582Y-62344903D01*
X105771066Y-62393566D01*
X105722403Y-62426082D01*
X105665000Y-62437500D01*
X105365000Y-62437500D01*
X105307597Y-62426082D01*
X105258934Y-62393566D01*
X105226418Y-62344903D01*
X105215000Y-62287500D01*
X105215000Y-60537500D01*
X105226418Y-60480097D01*
X105258934Y-60431434D01*
X105307597Y-60398918D01*
X105365000Y-60387500D01*
X105665000Y-60387500D01*
X105722403Y-60398918D01*
G37*
G36*
X106992403Y-60398918D02*
G01*
X107041066Y-60431434D01*
X107073582Y-60480097D01*
X107085000Y-60537500D01*
X107085000Y-62287500D01*
X107073582Y-62344903D01*
X107041066Y-62393566D01*
X106992403Y-62426082D01*
X106935000Y-62437500D01*
X106635000Y-62437500D01*
X106577597Y-62426082D01*
X106528934Y-62393566D01*
X106496418Y-62344903D01*
X106485000Y-62287500D01*
X106485000Y-60537500D01*
X106496418Y-60480097D01*
X106528934Y-60431434D01*
X106577597Y-60398918D01*
X106635000Y-60387500D01*
X106935000Y-60387500D01*
X106992403Y-60398918D01*
G37*
G36*
X108262403Y-60398918D02*
G01*
X108311066Y-60431434D01*
X108343582Y-60480097D01*
X108355000Y-60537500D01*
X108355000Y-62287500D01*
X108343582Y-62344903D01*
X108311066Y-62393566D01*
X108262403Y-62426082D01*
X108205000Y-62437500D01*
X107905000Y-62437500D01*
X107847597Y-62426082D01*
X107798934Y-62393566D01*
X107766418Y-62344903D01*
X107755000Y-62287500D01*
X107755000Y-60537500D01*
X107766418Y-60480097D01*
X107798934Y-60431434D01*
X107847597Y-60398918D01*
X107905000Y-60387500D01*
X108205000Y-60387500D01*
X108262403Y-60398918D01*
G37*
G36*
X109532403Y-60398918D02*
G01*
X109581066Y-60431434D01*
X109613582Y-60480097D01*
X109625000Y-60537500D01*
X109625000Y-62287500D01*
X109613582Y-62344903D01*
X109581066Y-62393566D01*
X109532403Y-62426082D01*
X109475000Y-62437500D01*
X109175000Y-62437500D01*
X109117597Y-62426082D01*
X109068934Y-62393566D01*
X109036418Y-62344903D01*
X109025000Y-62287500D01*
X109025000Y-60537500D01*
X109036418Y-60480097D01*
X109068934Y-60431434D01*
X109117597Y-60398918D01*
X109175000Y-60387500D01*
X109475000Y-60387500D01*
X109532403Y-60398918D01*
G37*
G36*
X110802403Y-60398918D02*
G01*
X110851066Y-60431434D01*
X110883582Y-60480097D01*
X110895000Y-60537500D01*
X110895000Y-62287500D01*
X110883582Y-62344903D01*
X110851066Y-62393566D01*
X110802403Y-62426082D01*
X110745000Y-62437500D01*
X110445000Y-62437500D01*
X110387597Y-62426082D01*
X110338934Y-62393566D01*
X110306418Y-62344903D01*
X110295000Y-62287500D01*
X110295000Y-60537500D01*
X110306418Y-60480097D01*
X110338934Y-60431434D01*
X110387597Y-60398918D01*
X110445000Y-60387500D01*
X110745000Y-60387500D01*
X110802403Y-60398918D01*
G37*
G36*
X112072403Y-60398918D02*
G01*
X112121066Y-60431434D01*
X112153582Y-60480097D01*
X112165000Y-60537500D01*
X112165000Y-62287500D01*
X112153582Y-62344903D01*
X112121066Y-62393566D01*
X112072403Y-62426082D01*
X112015000Y-62437500D01*
X111715000Y-62437500D01*
X111657597Y-62426082D01*
X111608934Y-62393566D01*
X111576418Y-62344903D01*
X111565000Y-62287500D01*
X111565000Y-60537500D01*
X111576418Y-60480097D01*
X111608934Y-60431434D01*
X111657597Y-60398918D01*
X111715000Y-60387500D01*
X112015000Y-60387500D01*
X112072403Y-60398918D01*
G37*
G36*
X113342403Y-60398918D02*
G01*
X113391066Y-60431434D01*
X113423582Y-60480097D01*
X113435000Y-60537500D01*
X113435000Y-62287500D01*
X113423582Y-62344903D01*
X113391066Y-62393566D01*
X113342403Y-62426082D01*
X113285000Y-62437500D01*
X112985000Y-62437500D01*
X112927597Y-62426082D01*
X112878934Y-62393566D01*
X112846418Y-62344903D01*
X112835000Y-62287500D01*
X112835000Y-60537500D01*
X112846418Y-60480097D01*
X112878934Y-60431434D01*
X112927597Y-60398918D01*
X112985000Y-60387500D01*
X113285000Y-60387500D01*
X113342403Y-60398918D01*
G37*
G36*
X114612403Y-60398918D02*
G01*
X114661066Y-60431434D01*
X114693582Y-60480097D01*
X114705000Y-60537500D01*
X114705000Y-62287500D01*
X114693582Y-62344903D01*
X114661066Y-62393566D01*
X114612403Y-62426082D01*
X114555000Y-62437500D01*
X114255000Y-62437500D01*
X114197597Y-62426082D01*
X114148934Y-62393566D01*
X114116418Y-62344903D01*
X114105000Y-62287500D01*
X114105000Y-60537500D01*
X114116418Y-60480097D01*
X114148934Y-60431434D01*
X114197597Y-60398918D01*
X114255000Y-60387500D01*
X114555000Y-60387500D01*
X114612403Y-60398918D01*
G37*
G36*
X115882403Y-60398918D02*
G01*
X115931066Y-60431434D01*
X115963582Y-60480097D01*
X115975000Y-60537500D01*
X115975000Y-62287500D01*
X115963582Y-62344903D01*
X115931066Y-62393566D01*
X115882403Y-62426082D01*
X115825000Y-62437500D01*
X115525000Y-62437500D01*
X115467597Y-62426082D01*
X115418934Y-62393566D01*
X115386418Y-62344903D01*
X115375000Y-62287500D01*
X115375000Y-60537500D01*
X115386418Y-60480097D01*
X115418934Y-60431434D01*
X115467597Y-60398918D01*
X115525000Y-60387500D01*
X115825000Y-60387500D01*
X115882403Y-60398918D01*
G37*
G36*
X117152403Y-60398918D02*
G01*
X117201066Y-60431434D01*
X117233582Y-60480097D01*
X117245000Y-60537500D01*
X117245000Y-62287500D01*
X117233582Y-62344903D01*
X117201066Y-62393566D01*
X117152403Y-62426082D01*
X117095000Y-62437500D01*
X116795000Y-62437500D01*
X116737597Y-62426082D01*
X116688934Y-62393566D01*
X116656418Y-62344903D01*
X116645000Y-62287500D01*
X116645000Y-60537500D01*
X116656418Y-60480097D01*
X116688934Y-60431434D01*
X116737597Y-60398918D01*
X116795000Y-60387500D01*
X117095000Y-60387500D01*
X117152403Y-60398918D01*
G37*
G36*
X118422403Y-60398918D02*
G01*
X118471066Y-60431434D01*
X118503582Y-60480097D01*
X118515000Y-60537500D01*
X118515000Y-62287500D01*
X118503582Y-62344903D01*
X118471066Y-62393566D01*
X118422403Y-62426082D01*
X118365000Y-62437500D01*
X118065000Y-62437500D01*
X118007597Y-62426082D01*
X117958934Y-62393566D01*
X117926418Y-62344903D01*
X117915000Y-62287500D01*
X117915000Y-60537500D01*
X117926418Y-60480097D01*
X117958934Y-60431434D01*
X118007597Y-60398918D01*
X118065000Y-60387500D01*
X118365000Y-60387500D01*
X118422403Y-60398918D01*
G37*
G36*
X119692403Y-60398918D02*
G01*
X119741066Y-60431434D01*
X119773582Y-60480097D01*
X119785000Y-60537500D01*
X119785000Y-62287500D01*
X119773582Y-62344903D01*
X119741066Y-62393566D01*
X119692403Y-62426082D01*
X119635000Y-62437500D01*
X119335000Y-62437500D01*
X119277597Y-62426082D01*
X119228934Y-62393566D01*
X119196418Y-62344903D01*
X119185000Y-62287500D01*
X119185000Y-60537500D01*
X119196418Y-60480097D01*
X119228934Y-60431434D01*
X119277597Y-60398918D01*
X119335000Y-60387500D01*
X119635000Y-60387500D01*
X119692403Y-60398918D01*
G37*
G36*
X48854850Y-60625964D02*
G01*
X48905040Y-60631787D01*
X48922189Y-60639359D01*
X48945671Y-60644030D01*
X48970810Y-60660827D01*
X48990696Y-60669608D01*
X49004277Y-60683189D01*
X49026777Y-60698223D01*
X49041810Y-60720722D01*
X49055391Y-60734303D01*
X49064170Y-60754186D01*
X49080970Y-60779329D01*
X49085641Y-60802812D01*
X49093212Y-60819959D01*
X49099033Y-60870139D01*
X49100000Y-60875000D01*
X49100000Y-62125000D01*
X49099032Y-62129863D01*
X49093212Y-62180040D01*
X49085641Y-62197185D01*
X49080970Y-62220671D01*
X49064169Y-62245815D01*
X49055391Y-62265696D01*
X49041812Y-62279274D01*
X49026777Y-62301777D01*
X49004274Y-62316812D01*
X48990696Y-62330391D01*
X48970815Y-62339169D01*
X48945671Y-62355970D01*
X48922185Y-62360641D01*
X48905040Y-62368212D01*
X48854861Y-62374032D01*
X48850000Y-62375000D01*
X48050000Y-62375000D01*
X48045138Y-62374032D01*
X47994959Y-62368212D01*
X47977812Y-62360641D01*
X47954329Y-62355970D01*
X47929186Y-62339170D01*
X47909303Y-62330391D01*
X47895722Y-62316810D01*
X47873223Y-62301777D01*
X47858189Y-62279277D01*
X47844608Y-62265696D01*
X47835827Y-62245810D01*
X47819030Y-62220671D01*
X47814359Y-62197189D01*
X47806787Y-62180040D01*
X47800964Y-62129849D01*
X47800000Y-62125000D01*
X47800000Y-60875000D01*
X47800964Y-60870150D01*
X47806787Y-60819959D01*
X47814359Y-60802808D01*
X47819030Y-60779329D01*
X47835826Y-60754191D01*
X47844608Y-60734303D01*
X47858191Y-60720719D01*
X47873223Y-60698223D01*
X47895719Y-60683191D01*
X47909303Y-60669608D01*
X47929191Y-60660826D01*
X47954329Y-60644030D01*
X47977808Y-60639359D01*
X47994959Y-60631787D01*
X48045151Y-60625964D01*
X48050000Y-60625000D01*
X48850000Y-60625000D01*
X48854850Y-60625964D01*
G37*
G36*
X51954850Y-60625964D02*
G01*
X52005040Y-60631787D01*
X52022189Y-60639359D01*
X52045671Y-60644030D01*
X52070810Y-60660827D01*
X52090696Y-60669608D01*
X52104277Y-60683189D01*
X52126777Y-60698223D01*
X52141810Y-60720722D01*
X52155391Y-60734303D01*
X52164170Y-60754186D01*
X52180970Y-60779329D01*
X52185641Y-60802812D01*
X52193212Y-60819959D01*
X52199033Y-60870139D01*
X52200000Y-60875000D01*
X52200000Y-62125000D01*
X52199032Y-62129863D01*
X52193212Y-62180040D01*
X52185641Y-62197185D01*
X52180970Y-62220671D01*
X52164169Y-62245815D01*
X52155391Y-62265696D01*
X52141812Y-62279274D01*
X52126777Y-62301777D01*
X52104274Y-62316812D01*
X52090696Y-62330391D01*
X52070815Y-62339169D01*
X52045671Y-62355970D01*
X52022185Y-62360641D01*
X52005040Y-62368212D01*
X51954861Y-62374032D01*
X51950000Y-62375000D01*
X51150000Y-62375000D01*
X51145138Y-62374032D01*
X51094959Y-62368212D01*
X51077812Y-62360641D01*
X51054329Y-62355970D01*
X51029186Y-62339170D01*
X51009303Y-62330391D01*
X50995722Y-62316810D01*
X50973223Y-62301777D01*
X50958189Y-62279277D01*
X50944608Y-62265696D01*
X50935827Y-62245810D01*
X50919030Y-62220671D01*
X50914359Y-62197189D01*
X50906787Y-62180040D01*
X50900964Y-62129849D01*
X50900000Y-62125000D01*
X50900000Y-60875000D01*
X50900964Y-60870150D01*
X50906787Y-60819959D01*
X50914359Y-60802808D01*
X50919030Y-60779329D01*
X50935826Y-60754191D01*
X50944608Y-60734303D01*
X50958191Y-60720719D01*
X50973223Y-60698223D01*
X50995719Y-60683191D01*
X51009303Y-60669608D01*
X51029191Y-60660826D01*
X51054329Y-60644030D01*
X51077808Y-60639359D01*
X51094959Y-60631787D01*
X51145151Y-60625964D01*
X51150000Y-60625000D01*
X51950000Y-60625000D01*
X51954850Y-60625964D01*
G37*
G36*
X46720000Y-62320000D02*
G01*
X45560000Y-62320000D01*
X45560000Y-62020000D01*
X46720000Y-62020000D01*
X46720000Y-62320000D01*
G37*
G36*
X58154850Y-60900964D02*
G01*
X58205040Y-60906787D01*
X58222189Y-60914359D01*
X58245671Y-60919030D01*
X58270810Y-60935827D01*
X58290696Y-60944608D01*
X58304277Y-60958189D01*
X58326777Y-60973223D01*
X58341810Y-60995722D01*
X58355391Y-61009303D01*
X58364170Y-61029186D01*
X58380970Y-61054329D01*
X58385641Y-61077812D01*
X58393212Y-61094959D01*
X58399033Y-61145139D01*
X58400000Y-61150000D01*
X58400000Y-61975000D01*
X58399032Y-61979863D01*
X58393212Y-62030040D01*
X58385641Y-62047185D01*
X58380970Y-62070671D01*
X58364169Y-62095815D01*
X58355391Y-62115696D01*
X58341812Y-62129274D01*
X58326777Y-62151777D01*
X58304274Y-62166812D01*
X58290696Y-62180391D01*
X58270815Y-62189169D01*
X58245671Y-62205970D01*
X58222185Y-62210641D01*
X58205040Y-62218212D01*
X58154861Y-62224032D01*
X58150000Y-62225000D01*
X56850000Y-62225000D01*
X56845138Y-62224032D01*
X56794959Y-62218212D01*
X56777812Y-62210641D01*
X56754329Y-62205970D01*
X56729186Y-62189170D01*
X56709303Y-62180391D01*
X56695722Y-62166810D01*
X56673223Y-62151777D01*
X56658189Y-62129277D01*
X56644608Y-62115696D01*
X56635827Y-62095810D01*
X56619030Y-62070671D01*
X56614359Y-62047189D01*
X56606787Y-62030040D01*
X56600964Y-61979849D01*
X56600000Y-61975000D01*
X56600000Y-61150000D01*
X56600964Y-61145150D01*
X56606787Y-61094959D01*
X56614359Y-61077808D01*
X56619030Y-61054329D01*
X56635826Y-61029191D01*
X56644608Y-61009303D01*
X56658191Y-60995719D01*
X56673223Y-60973223D01*
X56695719Y-60958191D01*
X56709303Y-60944608D01*
X56729191Y-60935826D01*
X56754329Y-60919030D01*
X56777808Y-60914359D01*
X56794959Y-60906787D01*
X56845151Y-60900964D01*
X56850000Y-60900000D01*
X58150000Y-60900000D01*
X58154850Y-60900964D01*
G37*
G36*
X68154850Y-60900964D02*
G01*
X68205040Y-60906787D01*
X68222189Y-60914359D01*
X68245671Y-60919030D01*
X68270810Y-60935827D01*
X68290696Y-60944608D01*
X68304277Y-60958189D01*
X68326777Y-60973223D01*
X68341810Y-60995722D01*
X68355391Y-61009303D01*
X68364170Y-61029186D01*
X68380970Y-61054329D01*
X68385641Y-61077812D01*
X68393212Y-61094959D01*
X68399033Y-61145139D01*
X68400000Y-61150000D01*
X68400000Y-61975000D01*
X68399032Y-61979863D01*
X68393212Y-62030040D01*
X68385641Y-62047185D01*
X68380970Y-62070671D01*
X68364169Y-62095815D01*
X68355391Y-62115696D01*
X68341812Y-62129274D01*
X68326777Y-62151777D01*
X68304274Y-62166812D01*
X68290696Y-62180391D01*
X68270815Y-62189169D01*
X68245671Y-62205970D01*
X68222185Y-62210641D01*
X68205040Y-62218212D01*
X68154861Y-62224032D01*
X68150000Y-62225000D01*
X66850000Y-62225000D01*
X66845138Y-62224032D01*
X66794959Y-62218212D01*
X66777812Y-62210641D01*
X66754329Y-62205970D01*
X66729186Y-62189170D01*
X66709303Y-62180391D01*
X66695722Y-62166810D01*
X66673223Y-62151777D01*
X66658189Y-62129277D01*
X66644608Y-62115696D01*
X66635827Y-62095810D01*
X66619030Y-62070671D01*
X66614359Y-62047189D01*
X66606787Y-62030040D01*
X66600964Y-61979849D01*
X66600000Y-61975000D01*
X66600000Y-61150000D01*
X66600964Y-61145150D01*
X66606787Y-61094959D01*
X66614359Y-61077808D01*
X66619030Y-61054329D01*
X66635826Y-61029191D01*
X66644608Y-61009303D01*
X66658191Y-60995719D01*
X66673223Y-60973223D01*
X66695719Y-60958191D01*
X66709303Y-60944608D01*
X66729191Y-60935826D01*
X66754329Y-60919030D01*
X66777808Y-60914359D01*
X66794959Y-60906787D01*
X66845151Y-60900964D01*
X66850000Y-60900000D01*
X68150000Y-60900000D01*
X68154850Y-60900964D01*
G37*
G36*
X70654850Y-60900964D02*
G01*
X70705040Y-60906787D01*
X70722189Y-60914359D01*
X70745671Y-60919030D01*
X70770810Y-60935827D01*
X70790696Y-60944608D01*
X70804277Y-60958189D01*
X70826777Y-60973223D01*
X70841810Y-60995722D01*
X70855391Y-61009303D01*
X70864170Y-61029186D01*
X70880970Y-61054329D01*
X70885641Y-61077812D01*
X70893212Y-61094959D01*
X70899033Y-61145139D01*
X70900000Y-61150000D01*
X70900000Y-61975000D01*
X70899032Y-61979863D01*
X70893212Y-62030040D01*
X70885641Y-62047185D01*
X70880970Y-62070671D01*
X70864169Y-62095815D01*
X70855391Y-62115696D01*
X70841812Y-62129274D01*
X70826777Y-62151777D01*
X70804274Y-62166812D01*
X70790696Y-62180391D01*
X70770815Y-62189169D01*
X70745671Y-62205970D01*
X70722185Y-62210641D01*
X70705040Y-62218212D01*
X70654861Y-62224032D01*
X70650000Y-62225000D01*
X69350000Y-62225000D01*
X69345138Y-62224032D01*
X69294959Y-62218212D01*
X69277812Y-62210641D01*
X69254329Y-62205970D01*
X69229186Y-62189170D01*
X69209303Y-62180391D01*
X69195722Y-62166810D01*
X69173223Y-62151777D01*
X69158189Y-62129277D01*
X69144608Y-62115696D01*
X69135827Y-62095810D01*
X69119030Y-62070671D01*
X69114359Y-62047189D01*
X69106787Y-62030040D01*
X69100964Y-61979849D01*
X69100000Y-61975000D01*
X69100000Y-61150000D01*
X69100964Y-61145150D01*
X69106787Y-61094959D01*
X69114359Y-61077808D01*
X69119030Y-61054329D01*
X69135826Y-61029191D01*
X69144608Y-61009303D01*
X69158191Y-60995719D01*
X69173223Y-60973223D01*
X69195719Y-60958191D01*
X69209303Y-60944608D01*
X69229191Y-60935826D01*
X69254329Y-60919030D01*
X69277808Y-60914359D01*
X69294959Y-60906787D01*
X69345151Y-60900964D01*
X69350000Y-60900000D01*
X70650000Y-60900000D01*
X70654850Y-60900964D01*
G37*
G36*
X60580071Y-60150738D02*
G01*
X60642973Y-60156637D01*
X60658968Y-60162234D01*
X60682001Y-60165590D01*
X60715852Y-60182139D01*
X60749909Y-60194056D01*
X60768902Y-60208073D01*
X60792904Y-60219807D01*
X60815730Y-60242633D01*
X60839686Y-60260313D01*
X60857365Y-60284268D01*
X60880193Y-60307096D01*
X60891927Y-60331099D01*
X60905943Y-60350090D01*
X60917858Y-60384142D01*
X60934410Y-60417999D01*
X60937766Y-60441034D01*
X60943362Y-60457026D01*
X60949258Y-60519912D01*
X60950000Y-60525000D01*
X60950000Y-61775000D01*
X60949258Y-61780091D01*
X60943362Y-61842973D01*
X60937766Y-61858963D01*
X60934410Y-61882001D01*
X60917857Y-61915859D01*
X60905943Y-61949909D01*
X60891928Y-61968898D01*
X60880193Y-61992904D01*
X60857362Y-62015734D01*
X60839686Y-62039686D01*
X60815734Y-62057362D01*
X60792904Y-62080193D01*
X60768898Y-62091928D01*
X60749909Y-62105943D01*
X60715859Y-62117857D01*
X60682001Y-62134410D01*
X60658963Y-62137766D01*
X60642973Y-62143362D01*
X60580089Y-62149258D01*
X60575000Y-62150000D01*
X59825000Y-62150000D01*
X59819910Y-62149258D01*
X59757026Y-62143362D01*
X59741034Y-62137766D01*
X59717999Y-62134410D01*
X59684142Y-62117858D01*
X59650090Y-62105943D01*
X59631099Y-62091927D01*
X59607096Y-62080193D01*
X59584268Y-62057365D01*
X59560313Y-62039686D01*
X59542633Y-62015730D01*
X59519807Y-61992904D01*
X59508073Y-61968902D01*
X59494056Y-61949909D01*
X59482139Y-61915852D01*
X59465590Y-61882001D01*
X59462234Y-61858968D01*
X59456637Y-61842973D01*
X59450738Y-61780070D01*
X59450000Y-61775000D01*
X59450000Y-60525000D01*
X59450738Y-60519930D01*
X59456637Y-60457026D01*
X59462234Y-60441029D01*
X59465590Y-60417999D01*
X59482137Y-60384149D01*
X59494056Y-60350090D01*
X59508074Y-60331095D01*
X59519807Y-60307096D01*
X59542630Y-60284272D01*
X59560313Y-60260313D01*
X59584272Y-60242630D01*
X59607096Y-60219807D01*
X59631095Y-60208074D01*
X59650090Y-60194056D01*
X59684149Y-60182137D01*
X59717999Y-60165590D01*
X59741029Y-60162234D01*
X59757026Y-60156637D01*
X59819931Y-60150738D01*
X59825000Y-60150000D01*
X60575000Y-60150000D01*
X60580071Y-60150738D01*
G37*
G36*
X62880071Y-60150738D02*
G01*
X62942973Y-60156637D01*
X62958968Y-60162234D01*
X62982001Y-60165590D01*
X63015852Y-60182139D01*
X63049909Y-60194056D01*
X63068902Y-60208073D01*
X63092904Y-60219807D01*
X63115730Y-60242633D01*
X63139686Y-60260313D01*
X63157365Y-60284268D01*
X63180193Y-60307096D01*
X63191927Y-60331099D01*
X63205943Y-60350090D01*
X63217858Y-60384142D01*
X63234410Y-60417999D01*
X63237766Y-60441034D01*
X63243362Y-60457026D01*
X63249258Y-60519912D01*
X63250000Y-60525000D01*
X63250000Y-61775000D01*
X63249258Y-61780091D01*
X63243362Y-61842973D01*
X63237766Y-61858963D01*
X63234410Y-61882001D01*
X63217857Y-61915859D01*
X63205943Y-61949909D01*
X63191928Y-61968898D01*
X63180193Y-61992904D01*
X63157362Y-62015734D01*
X63139686Y-62039686D01*
X63115734Y-62057362D01*
X63092904Y-62080193D01*
X63068898Y-62091928D01*
X63049909Y-62105943D01*
X63015859Y-62117857D01*
X62982001Y-62134410D01*
X62958963Y-62137766D01*
X62942973Y-62143362D01*
X62880089Y-62149258D01*
X62875000Y-62150000D01*
X62125000Y-62150000D01*
X62119910Y-62149258D01*
X62057026Y-62143362D01*
X62041034Y-62137766D01*
X62017999Y-62134410D01*
X61984142Y-62117858D01*
X61950090Y-62105943D01*
X61931099Y-62091927D01*
X61907096Y-62080193D01*
X61884268Y-62057365D01*
X61860313Y-62039686D01*
X61842633Y-62015730D01*
X61819807Y-61992904D01*
X61808073Y-61968902D01*
X61794056Y-61949909D01*
X61782139Y-61915852D01*
X61765590Y-61882001D01*
X61762234Y-61858968D01*
X61756637Y-61842973D01*
X61750738Y-61780070D01*
X61750000Y-61775000D01*
X61750000Y-60525000D01*
X61750738Y-60519930D01*
X61756637Y-60457026D01*
X61762234Y-60441029D01*
X61765590Y-60417999D01*
X61782137Y-60384149D01*
X61794056Y-60350090D01*
X61808074Y-60331095D01*
X61819807Y-60307096D01*
X61842630Y-60284272D01*
X61860313Y-60260313D01*
X61884272Y-60242630D01*
X61907096Y-60219807D01*
X61931095Y-60208074D01*
X61950090Y-60194056D01*
X61984149Y-60182137D01*
X62017999Y-60165590D01*
X62041029Y-60162234D01*
X62057026Y-60156637D01*
X62119931Y-60150738D01*
X62125000Y-60150000D01*
X62875000Y-60150000D01*
X62880071Y-60150738D01*
G37*
G36*
X65180071Y-60150738D02*
G01*
X65242973Y-60156637D01*
X65258968Y-60162234D01*
X65282001Y-60165590D01*
X65315852Y-60182139D01*
X65349909Y-60194056D01*
X65368902Y-60208073D01*
X65392904Y-60219807D01*
X65415730Y-60242633D01*
X65439686Y-60260313D01*
X65457365Y-60284268D01*
X65480193Y-60307096D01*
X65491927Y-60331099D01*
X65505943Y-60350090D01*
X65517858Y-60384142D01*
X65534410Y-60417999D01*
X65537766Y-60441034D01*
X65543362Y-60457026D01*
X65549258Y-60519912D01*
X65550000Y-60525000D01*
X65550000Y-61775000D01*
X65549258Y-61780091D01*
X65543362Y-61842973D01*
X65537766Y-61858963D01*
X65534410Y-61882001D01*
X65517857Y-61915859D01*
X65505943Y-61949909D01*
X65491928Y-61968898D01*
X65480193Y-61992904D01*
X65457362Y-62015734D01*
X65439686Y-62039686D01*
X65415734Y-62057362D01*
X65392904Y-62080193D01*
X65368898Y-62091928D01*
X65349909Y-62105943D01*
X65315859Y-62117857D01*
X65282001Y-62134410D01*
X65258963Y-62137766D01*
X65242973Y-62143362D01*
X65180089Y-62149258D01*
X65175000Y-62150000D01*
X64425000Y-62150000D01*
X64419910Y-62149258D01*
X64357026Y-62143362D01*
X64341034Y-62137766D01*
X64317999Y-62134410D01*
X64284142Y-62117858D01*
X64250090Y-62105943D01*
X64231099Y-62091927D01*
X64207096Y-62080193D01*
X64184268Y-62057365D01*
X64160313Y-62039686D01*
X64142633Y-62015730D01*
X64119807Y-61992904D01*
X64108073Y-61968902D01*
X64094056Y-61949909D01*
X64082139Y-61915852D01*
X64065590Y-61882001D01*
X64062234Y-61858968D01*
X64056637Y-61842973D01*
X64050738Y-61780070D01*
X64050000Y-61775000D01*
X64050000Y-60525000D01*
X64050738Y-60519930D01*
X64056637Y-60457026D01*
X64062234Y-60441029D01*
X64065590Y-60417999D01*
X64082137Y-60384149D01*
X64094056Y-60350090D01*
X64108074Y-60331095D01*
X64119807Y-60307096D01*
X64142630Y-60284272D01*
X64160313Y-60260313D01*
X64184272Y-60242630D01*
X64207096Y-60219807D01*
X64231095Y-60208074D01*
X64250090Y-60194056D01*
X64284149Y-60182137D01*
X64317999Y-60165590D01*
X64341029Y-60162234D01*
X64357026Y-60156637D01*
X64419931Y-60150738D01*
X64425000Y-60150000D01*
X65175000Y-60150000D01*
X65180071Y-60150738D01*
G37*
G36*
X72854850Y-60125964D02*
G01*
X72905040Y-60131787D01*
X72922189Y-60139359D01*
X72945671Y-60144030D01*
X72970810Y-60160827D01*
X72990696Y-60169608D01*
X73004277Y-60183189D01*
X73026777Y-60198223D01*
X73041810Y-60220722D01*
X73055391Y-60234303D01*
X73064170Y-60254186D01*
X73080970Y-60279329D01*
X73085641Y-60302812D01*
X73093212Y-60319959D01*
X73099033Y-60370139D01*
X73100000Y-60375000D01*
X73100000Y-61625000D01*
X73099032Y-61629863D01*
X73093212Y-61680040D01*
X73085641Y-61697185D01*
X73080970Y-61720671D01*
X73064169Y-61745815D01*
X73055391Y-61765696D01*
X73041812Y-61779274D01*
X73026777Y-61801777D01*
X73004274Y-61816812D01*
X72990696Y-61830391D01*
X72970815Y-61839169D01*
X72945671Y-61855970D01*
X72922185Y-61860641D01*
X72905040Y-61868212D01*
X72854861Y-61874032D01*
X72850000Y-61875000D01*
X72050000Y-61875000D01*
X72045138Y-61874032D01*
X71994959Y-61868212D01*
X71977812Y-61860641D01*
X71954329Y-61855970D01*
X71929186Y-61839170D01*
X71909303Y-61830391D01*
X71895722Y-61816810D01*
X71873223Y-61801777D01*
X71858189Y-61779277D01*
X71844608Y-61765696D01*
X71835827Y-61745810D01*
X71819030Y-61720671D01*
X71814359Y-61697189D01*
X71806787Y-61680040D01*
X71800964Y-61629849D01*
X71800000Y-61625000D01*
X71800000Y-60375000D01*
X71800964Y-60370150D01*
X71806787Y-60319959D01*
X71814359Y-60302808D01*
X71819030Y-60279329D01*
X71835826Y-60254191D01*
X71844608Y-60234303D01*
X71858191Y-60220719D01*
X71873223Y-60198223D01*
X71895719Y-60183191D01*
X71909303Y-60169608D01*
X71929191Y-60160826D01*
X71954329Y-60144030D01*
X71977808Y-60139359D01*
X71994959Y-60131787D01*
X72045151Y-60125964D01*
X72050000Y-60125000D01*
X72850000Y-60125000D01*
X72854850Y-60125964D01*
G37*
G36*
X75954850Y-60125964D02*
G01*
X76005040Y-60131787D01*
X76022189Y-60139359D01*
X76045671Y-60144030D01*
X76070810Y-60160827D01*
X76090696Y-60169608D01*
X76104277Y-60183189D01*
X76126777Y-60198223D01*
X76141810Y-60220722D01*
X76155391Y-60234303D01*
X76164170Y-60254186D01*
X76180970Y-60279329D01*
X76185641Y-60302812D01*
X76193212Y-60319959D01*
X76199033Y-60370139D01*
X76200000Y-60375000D01*
X76200000Y-61625000D01*
X76199032Y-61629863D01*
X76193212Y-61680040D01*
X76185641Y-61697185D01*
X76180970Y-61720671D01*
X76164169Y-61745815D01*
X76155391Y-61765696D01*
X76141812Y-61779274D01*
X76126777Y-61801777D01*
X76104274Y-61816812D01*
X76090696Y-61830391D01*
X76070815Y-61839169D01*
X76045671Y-61855970D01*
X76022185Y-61860641D01*
X76005040Y-61868212D01*
X75954861Y-61874032D01*
X75950000Y-61875000D01*
X75150000Y-61875000D01*
X75145138Y-61874032D01*
X75094959Y-61868212D01*
X75077812Y-61860641D01*
X75054329Y-61855970D01*
X75029186Y-61839170D01*
X75009303Y-61830391D01*
X74995722Y-61816810D01*
X74973223Y-61801777D01*
X74958189Y-61779277D01*
X74944608Y-61765696D01*
X74935827Y-61745810D01*
X74919030Y-61720671D01*
X74914359Y-61697189D01*
X74906787Y-61680040D01*
X74900964Y-61629849D01*
X74900000Y-61625000D01*
X74900000Y-60375000D01*
X74900964Y-60370150D01*
X74906787Y-60319959D01*
X74914359Y-60302808D01*
X74919030Y-60279329D01*
X74935826Y-60254191D01*
X74944608Y-60234303D01*
X74958191Y-60220719D01*
X74973223Y-60198223D01*
X74995719Y-60183191D01*
X75009303Y-60169608D01*
X75029191Y-60160826D01*
X75054329Y-60144030D01*
X75077808Y-60139359D01*
X75094959Y-60131787D01*
X75145151Y-60125964D01*
X75150000Y-60125000D01*
X75950000Y-60125000D01*
X75954850Y-60125964D01*
G37*
G36*
X46720000Y-61820000D02*
G01*
X45560000Y-61820000D01*
X45560000Y-61520000D01*
X46720000Y-61520000D01*
X46720000Y-61820000D01*
G37*
G36*
X46720000Y-61320000D02*
G01*
X45560000Y-61320000D01*
X45560000Y-61020000D01*
X46720000Y-61020000D01*
X46720000Y-61320000D01*
G37*
G36*
X102054850Y-58300964D02*
G01*
X102105040Y-58306787D01*
X102122189Y-58314359D01*
X102145671Y-58319030D01*
X102170810Y-58335827D01*
X102190696Y-58344608D01*
X102204277Y-58358189D01*
X102226777Y-58373223D01*
X102241810Y-58395722D01*
X102255391Y-58409303D01*
X102264170Y-58429186D01*
X102280970Y-58454329D01*
X102285641Y-58477812D01*
X102293212Y-58494959D01*
X102299033Y-58545139D01*
X102300000Y-58550000D01*
X102300000Y-61050000D01*
X102299032Y-61054863D01*
X102293212Y-61105040D01*
X102285641Y-61122185D01*
X102280970Y-61145671D01*
X102264169Y-61170815D01*
X102255391Y-61190696D01*
X102241812Y-61204274D01*
X102226777Y-61226777D01*
X102204274Y-61241812D01*
X102190696Y-61255391D01*
X102170815Y-61264169D01*
X102145671Y-61280970D01*
X102122185Y-61285641D01*
X102105040Y-61293212D01*
X102054861Y-61299032D01*
X102050000Y-61300000D01*
X100950000Y-61300000D01*
X100945138Y-61299032D01*
X100894959Y-61293212D01*
X100877812Y-61285641D01*
X100854329Y-61280970D01*
X100829186Y-61264170D01*
X100809303Y-61255391D01*
X100795722Y-61241810D01*
X100773223Y-61226777D01*
X100758189Y-61204277D01*
X100744608Y-61190696D01*
X100735827Y-61170810D01*
X100719030Y-61145671D01*
X100714359Y-61122189D01*
X100706787Y-61105040D01*
X100700964Y-61054849D01*
X100700000Y-61050000D01*
X100700000Y-58550000D01*
X100700964Y-58545150D01*
X100706787Y-58494959D01*
X100714359Y-58477808D01*
X100719030Y-58454329D01*
X100735826Y-58429191D01*
X100744608Y-58409303D01*
X100758191Y-58395719D01*
X100773223Y-58373223D01*
X100795719Y-58358191D01*
X100809303Y-58344608D01*
X100829191Y-58335826D01*
X100854329Y-58319030D01*
X100877808Y-58314359D01*
X100894959Y-58306787D01*
X100945151Y-58300964D01*
X100950000Y-58300000D01*
X102050000Y-58300000D01*
X102054850Y-58300964D01*
G37*
G36*
X55154850Y-59775964D02*
G01*
X55205040Y-59781787D01*
X55222189Y-59789359D01*
X55245671Y-59794030D01*
X55270810Y-59810827D01*
X55290696Y-59819608D01*
X55304277Y-59833189D01*
X55326777Y-59848223D01*
X55341810Y-59870722D01*
X55355391Y-59884303D01*
X55364170Y-59904186D01*
X55380970Y-59929329D01*
X55385641Y-59952812D01*
X55393212Y-59969959D01*
X55399033Y-60020139D01*
X55400000Y-60025000D01*
X55400000Y-60850000D01*
X55399032Y-60854863D01*
X55393212Y-60905040D01*
X55385641Y-60922185D01*
X55380970Y-60945671D01*
X55364169Y-60970815D01*
X55355391Y-60990696D01*
X55341812Y-61004274D01*
X55326777Y-61026777D01*
X55304274Y-61041812D01*
X55290696Y-61055391D01*
X55270815Y-61064169D01*
X55245671Y-61080970D01*
X55222185Y-61085641D01*
X55205040Y-61093212D01*
X55154861Y-61099032D01*
X55150000Y-61100000D01*
X53850000Y-61100000D01*
X53845138Y-61099032D01*
X53794959Y-61093212D01*
X53777812Y-61085641D01*
X53754329Y-61080970D01*
X53729186Y-61064170D01*
X53709303Y-61055391D01*
X53695722Y-61041810D01*
X53673223Y-61026777D01*
X53658189Y-61004277D01*
X53644608Y-60990696D01*
X53635827Y-60970810D01*
X53619030Y-60945671D01*
X53614359Y-60922189D01*
X53606787Y-60905040D01*
X53600964Y-60854849D01*
X53600000Y-60850000D01*
X53600000Y-60025000D01*
X53600964Y-60020150D01*
X53606787Y-59969959D01*
X53614359Y-59952808D01*
X53619030Y-59929329D01*
X53635826Y-59904191D01*
X53644608Y-59884303D01*
X53658191Y-59870719D01*
X53673223Y-59848223D01*
X53695719Y-59833191D01*
X53709303Y-59819608D01*
X53729191Y-59810826D01*
X53754329Y-59794030D01*
X53777808Y-59789359D01*
X53794959Y-59781787D01*
X53845151Y-59775964D01*
X53850000Y-59775000D01*
X55150000Y-59775000D01*
X55154850Y-59775964D01*
G37*
G36*
X78629850Y-59800964D02*
G01*
X78680040Y-59806787D01*
X78697189Y-59814359D01*
X78720671Y-59819030D01*
X78745810Y-59835827D01*
X78765696Y-59844608D01*
X78779277Y-59858189D01*
X78801777Y-59873223D01*
X78816810Y-59895722D01*
X78830391Y-59909303D01*
X78839170Y-59929186D01*
X78855970Y-59954329D01*
X78860641Y-59977812D01*
X78868212Y-59994959D01*
X78874033Y-60045139D01*
X78875000Y-60050000D01*
X78875000Y-60850000D01*
X78874032Y-60854863D01*
X78868212Y-60905040D01*
X78860641Y-60922185D01*
X78855970Y-60945671D01*
X78839169Y-60970815D01*
X78830391Y-60990696D01*
X78816812Y-61004274D01*
X78801777Y-61026777D01*
X78779274Y-61041812D01*
X78765696Y-61055391D01*
X78745815Y-61064169D01*
X78720671Y-61080970D01*
X78697185Y-61085641D01*
X78680040Y-61093212D01*
X78629861Y-61099032D01*
X78625000Y-61100000D01*
X77375000Y-61100000D01*
X77370138Y-61099032D01*
X77319959Y-61093212D01*
X77302812Y-61085641D01*
X77279329Y-61080970D01*
X77254186Y-61064170D01*
X77234303Y-61055391D01*
X77220722Y-61041810D01*
X77198223Y-61026777D01*
X77183189Y-61004277D01*
X77169608Y-60990696D01*
X77160827Y-60970810D01*
X77144030Y-60945671D01*
X77139359Y-60922189D01*
X77131787Y-60905040D01*
X77125964Y-60854849D01*
X77125000Y-60850000D01*
X77125000Y-60050000D01*
X77125964Y-60045150D01*
X77131787Y-59994959D01*
X77139359Y-59977808D01*
X77144030Y-59954329D01*
X77160826Y-59929191D01*
X77169608Y-59909303D01*
X77183191Y-59895719D01*
X77198223Y-59873223D01*
X77220719Y-59858191D01*
X77234303Y-59844608D01*
X77254191Y-59835826D01*
X77279329Y-59819030D01*
X77302808Y-59814359D01*
X77319959Y-59806787D01*
X77370151Y-59800964D01*
X77375000Y-59800000D01*
X78625000Y-59800000D01*
X78629850Y-59800964D01*
G37*
G36*
X46720000Y-60820000D02*
G01*
X45560000Y-60820000D01*
X45560000Y-60520000D01*
X46720000Y-60520000D01*
X46720000Y-60820000D01*
G37*
G36*
X82550000Y-60500000D02*
G01*
X80050000Y-60500000D01*
X80050000Y-59500000D01*
X82550000Y-59500000D01*
X82550000Y-60500000D01*
G37*
G36*
X97750000Y-60500000D02*
G01*
X95250000Y-60500000D01*
X95250000Y-59500000D01*
X97750000Y-59500000D01*
X97750000Y-60500000D01*
G37*
G36*
X46720000Y-60320000D02*
G01*
X45560000Y-60320000D01*
X45560000Y-60020000D01*
X46720000Y-60020000D01*
X46720000Y-60320000D01*
G37*
G36*
X48854850Y-58125964D02*
G01*
X48905040Y-58131787D01*
X48922189Y-58139359D01*
X48945671Y-58144030D01*
X48970810Y-58160827D01*
X48990696Y-58169608D01*
X49004277Y-58183189D01*
X49026777Y-58198223D01*
X49041810Y-58220722D01*
X49055391Y-58234303D01*
X49064170Y-58254186D01*
X49080970Y-58279329D01*
X49085641Y-58302812D01*
X49093212Y-58319959D01*
X49099033Y-58370139D01*
X49100000Y-58375000D01*
X49100000Y-59625000D01*
X49099032Y-59629863D01*
X49093212Y-59680040D01*
X49085641Y-59697185D01*
X49080970Y-59720671D01*
X49064169Y-59745815D01*
X49055391Y-59765696D01*
X49041812Y-59779274D01*
X49026777Y-59801777D01*
X49004274Y-59816812D01*
X48990696Y-59830391D01*
X48970815Y-59839169D01*
X48945671Y-59855970D01*
X48922185Y-59860641D01*
X48905040Y-59868212D01*
X48854861Y-59874032D01*
X48850000Y-59875000D01*
X48050000Y-59875000D01*
X48045138Y-59874032D01*
X47994959Y-59868212D01*
X47977812Y-59860641D01*
X47954329Y-59855970D01*
X47929186Y-59839170D01*
X47909303Y-59830391D01*
X47895722Y-59816810D01*
X47873223Y-59801777D01*
X47858189Y-59779277D01*
X47844608Y-59765696D01*
X47835827Y-59745810D01*
X47819030Y-59720671D01*
X47814359Y-59697189D01*
X47806787Y-59680040D01*
X47800964Y-59629849D01*
X47800000Y-59625000D01*
X47800000Y-58375000D01*
X47800964Y-58370150D01*
X47806787Y-58319959D01*
X47814359Y-58302808D01*
X47819030Y-58279329D01*
X47835826Y-58254191D01*
X47844608Y-58234303D01*
X47858191Y-58220719D01*
X47873223Y-58198223D01*
X47895719Y-58183191D01*
X47909303Y-58169608D01*
X47929191Y-58160826D01*
X47954329Y-58144030D01*
X47977808Y-58139359D01*
X47994959Y-58131787D01*
X48045151Y-58125964D01*
X48050000Y-58125000D01*
X48850000Y-58125000D01*
X48854850Y-58125964D01*
G37*
G36*
X51954850Y-58125964D02*
G01*
X52005040Y-58131787D01*
X52022189Y-58139359D01*
X52045671Y-58144030D01*
X52070810Y-58160827D01*
X52090696Y-58169608D01*
X52104277Y-58183189D01*
X52126777Y-58198223D01*
X52141810Y-58220722D01*
X52155391Y-58234303D01*
X52164170Y-58254186D01*
X52180970Y-58279329D01*
X52185641Y-58302812D01*
X52193212Y-58319959D01*
X52199033Y-58370139D01*
X52200000Y-58375000D01*
X52200000Y-59625000D01*
X52199032Y-59629863D01*
X52193212Y-59680040D01*
X52185641Y-59697185D01*
X52180970Y-59720671D01*
X52164169Y-59745815D01*
X52155391Y-59765696D01*
X52141812Y-59779274D01*
X52126777Y-59801777D01*
X52104274Y-59816812D01*
X52090696Y-59830391D01*
X52070815Y-59839169D01*
X52045671Y-59855970D01*
X52022185Y-59860641D01*
X52005040Y-59868212D01*
X51954861Y-59874032D01*
X51950000Y-59875000D01*
X51150000Y-59875000D01*
X51145138Y-59874032D01*
X51094959Y-59868212D01*
X51077812Y-59860641D01*
X51054329Y-59855970D01*
X51029186Y-59839170D01*
X51009303Y-59830391D01*
X50995722Y-59816810D01*
X50973223Y-59801777D01*
X50958189Y-59779277D01*
X50944608Y-59765696D01*
X50935827Y-59745810D01*
X50919030Y-59720671D01*
X50914359Y-59697189D01*
X50906787Y-59680040D01*
X50900964Y-59629849D01*
X50900000Y-59625000D01*
X50900000Y-58375000D01*
X50900964Y-58370150D01*
X50906787Y-58319959D01*
X50914359Y-58302808D01*
X50919030Y-58279329D01*
X50935826Y-58254191D01*
X50944608Y-58234303D01*
X50958191Y-58220719D01*
X50973223Y-58198223D01*
X50995719Y-58183191D01*
X51009303Y-58169608D01*
X51029191Y-58160826D01*
X51054329Y-58144030D01*
X51077808Y-58139359D01*
X51094959Y-58131787D01*
X51145151Y-58125964D01*
X51150000Y-58125000D01*
X51950000Y-58125000D01*
X51954850Y-58125964D01*
G37*
G36*
X46720000Y-59820000D02*
G01*
X45560000Y-59820000D01*
X45560000Y-59520000D01*
X46720000Y-59520000D01*
X46720000Y-59820000D01*
G37*
G36*
X72854850Y-57600964D02*
G01*
X72905040Y-57606787D01*
X72922189Y-57614359D01*
X72945671Y-57619030D01*
X72970810Y-57635827D01*
X72990696Y-57644608D01*
X73004277Y-57658189D01*
X73026777Y-57673223D01*
X73041810Y-57695722D01*
X73055391Y-57709303D01*
X73064170Y-57729186D01*
X73080970Y-57754329D01*
X73085641Y-57777812D01*
X73093212Y-57794959D01*
X73099033Y-57845139D01*
X73100000Y-57850000D01*
X73100000Y-59150000D01*
X73099032Y-59154863D01*
X73093212Y-59205040D01*
X73085641Y-59222185D01*
X73080970Y-59245671D01*
X73064169Y-59270815D01*
X73055391Y-59290696D01*
X73041812Y-59304274D01*
X73026777Y-59326777D01*
X73004274Y-59341812D01*
X72990696Y-59355391D01*
X72970815Y-59364169D01*
X72945671Y-59380970D01*
X72922185Y-59385641D01*
X72905040Y-59393212D01*
X72854861Y-59399032D01*
X72850000Y-59400000D01*
X72025000Y-59400000D01*
X72020138Y-59399032D01*
X71969959Y-59393212D01*
X71952812Y-59385641D01*
X71929329Y-59380970D01*
X71904186Y-59364170D01*
X71884303Y-59355391D01*
X71870722Y-59341810D01*
X71848223Y-59326777D01*
X71833189Y-59304277D01*
X71819608Y-59290696D01*
X71810827Y-59270810D01*
X71794030Y-59245671D01*
X71789359Y-59222189D01*
X71781787Y-59205040D01*
X71775964Y-59154849D01*
X71775000Y-59150000D01*
X71775000Y-57850000D01*
X71775964Y-57845150D01*
X71781787Y-57794959D01*
X71789359Y-57777808D01*
X71794030Y-57754329D01*
X71810826Y-57729191D01*
X71819608Y-57709303D01*
X71833191Y-57695719D01*
X71848223Y-57673223D01*
X71870719Y-57658191D01*
X71884303Y-57644608D01*
X71904191Y-57635826D01*
X71929329Y-57619030D01*
X71952808Y-57614359D01*
X71969959Y-57606787D01*
X72020151Y-57600964D01*
X72025000Y-57600000D01*
X72850000Y-57600000D01*
X72854850Y-57600964D01*
G37*
G36*
X75979850Y-57600964D02*
G01*
X76030040Y-57606787D01*
X76047189Y-57614359D01*
X76070671Y-57619030D01*
X76095810Y-57635827D01*
X76115696Y-57644608D01*
X76129277Y-57658189D01*
X76151777Y-57673223D01*
X76166810Y-57695722D01*
X76180391Y-57709303D01*
X76189170Y-57729186D01*
X76205970Y-57754329D01*
X76210641Y-57777812D01*
X76218212Y-57794959D01*
X76224033Y-57845139D01*
X76225000Y-57850000D01*
X76225000Y-59150000D01*
X76224032Y-59154863D01*
X76218212Y-59205040D01*
X76210641Y-59222185D01*
X76205970Y-59245671D01*
X76189169Y-59270815D01*
X76180391Y-59290696D01*
X76166812Y-59304274D01*
X76151777Y-59326777D01*
X76129274Y-59341812D01*
X76115696Y-59355391D01*
X76095815Y-59364169D01*
X76070671Y-59380970D01*
X76047185Y-59385641D01*
X76030040Y-59393212D01*
X75979861Y-59399032D01*
X75975000Y-59400000D01*
X75150000Y-59400000D01*
X75145138Y-59399032D01*
X75094959Y-59393212D01*
X75077812Y-59385641D01*
X75054329Y-59380970D01*
X75029186Y-59364170D01*
X75009303Y-59355391D01*
X74995722Y-59341810D01*
X74973223Y-59326777D01*
X74958189Y-59304277D01*
X74944608Y-59290696D01*
X74935827Y-59270810D01*
X74919030Y-59245671D01*
X74914359Y-59222189D01*
X74906787Y-59205040D01*
X74900964Y-59154849D01*
X74900000Y-59150000D01*
X74900000Y-57850000D01*
X74900964Y-57845150D01*
X74906787Y-57794959D01*
X74914359Y-57777808D01*
X74919030Y-57754329D01*
X74935826Y-57729191D01*
X74944608Y-57709303D01*
X74958191Y-57695719D01*
X74973223Y-57673223D01*
X74995719Y-57658191D01*
X75009303Y-57644608D01*
X75029191Y-57635826D01*
X75054329Y-57619030D01*
X75077808Y-57614359D01*
X75094959Y-57606787D01*
X75145151Y-57600964D01*
X75150000Y-57600000D01*
X75975000Y-57600000D01*
X75979850Y-57600964D01*
G37*
G36*
X142126824Y-56638682D02*
G01*
X142335757Y-56706569D01*
X142531498Y-56806304D01*
X142709227Y-56935432D01*
X142864568Y-57090773D01*
X142993696Y-57268502D01*
X143093431Y-57464243D01*
X143161318Y-57673176D01*
X143195684Y-57890157D01*
X143195684Y-58109843D01*
X143161318Y-58326824D01*
X143093431Y-58535757D01*
X142993696Y-58731498D01*
X142864568Y-58909227D01*
X142709227Y-59064568D01*
X142531498Y-59193696D01*
X142335757Y-59293431D01*
X142126824Y-59361318D01*
X141909843Y-59395684D01*
X141690157Y-59395684D01*
X141473176Y-59361318D01*
X141264243Y-59293431D01*
X141068502Y-59193696D01*
X140890773Y-59064568D01*
X140735432Y-58909227D01*
X140606304Y-58731498D01*
X140506569Y-58535757D01*
X140438682Y-58326824D01*
X140404316Y-58109843D01*
X140404316Y-57890157D01*
X140438682Y-57673176D01*
X140506569Y-57464243D01*
X140606304Y-57268502D01*
X140735432Y-57090773D01*
X140890773Y-56935432D01*
X141068502Y-56806304D01*
X141264243Y-56706569D01*
X141473176Y-56638682D01*
X141690157Y-56604316D01*
X141909843Y-56604316D01*
X142126824Y-56638682D01*
G37*
G36*
X153326824Y-56638682D02*
G01*
X153535757Y-56706569D01*
X153731498Y-56806304D01*
X153909227Y-56935432D01*
X154064568Y-57090773D01*
X154193696Y-57268502D01*
X154293431Y-57464243D01*
X154361318Y-57673176D01*
X154395684Y-57890157D01*
X154395684Y-58109843D01*
X154361318Y-58326824D01*
X154293431Y-58535757D01*
X154193696Y-58731498D01*
X154064568Y-58909227D01*
X153909227Y-59064568D01*
X153731498Y-59193696D01*
X153535757Y-59293431D01*
X153326824Y-59361318D01*
X153109843Y-59395684D01*
X152890157Y-59395684D01*
X152673176Y-59361318D01*
X152464243Y-59293431D01*
X152268502Y-59193696D01*
X152090773Y-59064568D01*
X151935432Y-58909227D01*
X151806304Y-58731498D01*
X151706569Y-58535757D01*
X151638682Y-58326824D01*
X151604316Y-58109843D01*
X151604316Y-57890157D01*
X151638682Y-57673176D01*
X151706569Y-57464243D01*
X151806304Y-57268502D01*
X151935432Y-57090773D01*
X152090773Y-56935432D01*
X152268502Y-56806304D01*
X152464243Y-56706569D01*
X152673176Y-56638682D01*
X152890157Y-56604316D01*
X153109843Y-56604316D01*
X153326824Y-56638682D01*
G37*
G36*
X46720000Y-59320000D02*
G01*
X45560000Y-59320000D01*
X45560000Y-59020000D01*
X46720000Y-59020000D01*
X46720000Y-59320000D01*
G37*
G36*
X58154850Y-57775964D02*
G01*
X58205040Y-57781787D01*
X58222189Y-57789359D01*
X58245671Y-57794030D01*
X58270810Y-57810827D01*
X58290696Y-57819608D01*
X58304277Y-57833189D01*
X58326777Y-57848223D01*
X58341810Y-57870722D01*
X58355391Y-57884303D01*
X58364170Y-57904186D01*
X58380970Y-57929329D01*
X58385641Y-57952812D01*
X58393212Y-57969959D01*
X58399033Y-58020139D01*
X58400000Y-58025000D01*
X58400000Y-58850000D01*
X58399032Y-58854863D01*
X58393212Y-58905040D01*
X58385641Y-58922185D01*
X58380970Y-58945671D01*
X58364169Y-58970815D01*
X58355391Y-58990696D01*
X58341812Y-59004274D01*
X58326777Y-59026777D01*
X58304274Y-59041812D01*
X58290696Y-59055391D01*
X58270815Y-59064169D01*
X58245671Y-59080970D01*
X58222185Y-59085641D01*
X58205040Y-59093212D01*
X58154861Y-59099032D01*
X58150000Y-59100000D01*
X56850000Y-59100000D01*
X56845138Y-59099032D01*
X56794959Y-59093212D01*
X56777812Y-59085641D01*
X56754329Y-59080970D01*
X56729186Y-59064170D01*
X56709303Y-59055391D01*
X56695722Y-59041810D01*
X56673223Y-59026777D01*
X56658189Y-59004277D01*
X56644608Y-58990696D01*
X56635827Y-58970810D01*
X56619030Y-58945671D01*
X56614359Y-58922189D01*
X56606787Y-58905040D01*
X56600964Y-58854849D01*
X56600000Y-58850000D01*
X56600000Y-58025000D01*
X56600964Y-58020150D01*
X56606787Y-57969959D01*
X56614359Y-57952808D01*
X56619030Y-57929329D01*
X56635826Y-57904191D01*
X56644608Y-57884303D01*
X56658191Y-57870719D01*
X56673223Y-57848223D01*
X56695719Y-57833191D01*
X56709303Y-57819608D01*
X56729191Y-57810826D01*
X56754329Y-57794030D01*
X56777808Y-57789359D01*
X56794959Y-57781787D01*
X56845151Y-57775964D01*
X56850000Y-57775000D01*
X58150000Y-57775000D01*
X58154850Y-57775964D01*
G37*
G36*
X68154850Y-57775964D02*
G01*
X68205040Y-57781787D01*
X68222189Y-57789359D01*
X68245671Y-57794030D01*
X68270810Y-57810827D01*
X68290696Y-57819608D01*
X68304277Y-57833189D01*
X68326777Y-57848223D01*
X68341810Y-57870722D01*
X68355391Y-57884303D01*
X68364170Y-57904186D01*
X68380970Y-57929329D01*
X68385641Y-57952812D01*
X68393212Y-57969959D01*
X68399033Y-58020139D01*
X68400000Y-58025000D01*
X68400000Y-58850000D01*
X68399032Y-58854863D01*
X68393212Y-58905040D01*
X68385641Y-58922185D01*
X68380970Y-58945671D01*
X68364169Y-58970815D01*
X68355391Y-58990696D01*
X68341812Y-59004274D01*
X68326777Y-59026777D01*
X68304274Y-59041812D01*
X68290696Y-59055391D01*
X68270815Y-59064169D01*
X68245671Y-59080970D01*
X68222185Y-59085641D01*
X68205040Y-59093212D01*
X68154861Y-59099032D01*
X68150000Y-59100000D01*
X66850000Y-59100000D01*
X66845138Y-59099032D01*
X66794959Y-59093212D01*
X66777812Y-59085641D01*
X66754329Y-59080970D01*
X66729186Y-59064170D01*
X66709303Y-59055391D01*
X66695722Y-59041810D01*
X66673223Y-59026777D01*
X66658189Y-59004277D01*
X66644608Y-58990696D01*
X66635827Y-58970810D01*
X66619030Y-58945671D01*
X66614359Y-58922189D01*
X66606787Y-58905040D01*
X66600964Y-58854849D01*
X66600000Y-58850000D01*
X66600000Y-58025000D01*
X66600964Y-58020150D01*
X66606787Y-57969959D01*
X66614359Y-57952808D01*
X66619030Y-57929329D01*
X66635826Y-57904191D01*
X66644608Y-57884303D01*
X66658191Y-57870719D01*
X66673223Y-57848223D01*
X66695719Y-57833191D01*
X66709303Y-57819608D01*
X66729191Y-57810826D01*
X66754329Y-57794030D01*
X66777808Y-57789359D01*
X66794959Y-57781787D01*
X66845151Y-57775964D01*
X66850000Y-57775000D01*
X68150000Y-57775000D01*
X68154850Y-57775964D01*
G37*
G36*
X70654850Y-57775964D02*
G01*
X70705040Y-57781787D01*
X70722189Y-57789359D01*
X70745671Y-57794030D01*
X70770810Y-57810827D01*
X70790696Y-57819608D01*
X70804277Y-57833189D01*
X70826777Y-57848223D01*
X70841810Y-57870722D01*
X70855391Y-57884303D01*
X70864170Y-57904186D01*
X70880970Y-57929329D01*
X70885641Y-57952812D01*
X70893212Y-57969959D01*
X70899033Y-58020139D01*
X70900000Y-58025000D01*
X70900000Y-58850000D01*
X70899032Y-58854863D01*
X70893212Y-58905040D01*
X70885641Y-58922185D01*
X70880970Y-58945671D01*
X70864169Y-58970815D01*
X70855391Y-58990696D01*
X70841812Y-59004274D01*
X70826777Y-59026777D01*
X70804274Y-59041812D01*
X70790696Y-59055391D01*
X70770815Y-59064169D01*
X70745671Y-59080970D01*
X70722185Y-59085641D01*
X70705040Y-59093212D01*
X70654861Y-59099032D01*
X70650000Y-59100000D01*
X69350000Y-59100000D01*
X69345138Y-59099032D01*
X69294959Y-59093212D01*
X69277812Y-59085641D01*
X69254329Y-59080970D01*
X69229186Y-59064170D01*
X69209303Y-59055391D01*
X69195722Y-59041810D01*
X69173223Y-59026777D01*
X69158189Y-59004277D01*
X69144608Y-58990696D01*
X69135827Y-58970810D01*
X69119030Y-58945671D01*
X69114359Y-58922189D01*
X69106787Y-58905040D01*
X69100964Y-58854849D01*
X69100000Y-58850000D01*
X69100000Y-58025000D01*
X69100964Y-58020150D01*
X69106787Y-57969959D01*
X69114359Y-57952808D01*
X69119030Y-57929329D01*
X69135826Y-57904191D01*
X69144608Y-57884303D01*
X69158191Y-57870719D01*
X69173223Y-57848223D01*
X69195719Y-57833191D01*
X69209303Y-57819608D01*
X69229191Y-57810826D01*
X69254329Y-57794030D01*
X69277808Y-57789359D01*
X69294959Y-57781787D01*
X69345151Y-57775964D01*
X69350000Y-57775000D01*
X70650000Y-57775000D01*
X70654850Y-57775964D01*
G37*
G36*
X46720000Y-58820000D02*
G01*
X45560000Y-58820000D01*
X45560000Y-58220000D01*
X46720000Y-58220000D01*
X46720000Y-58820000D01*
G37*
G36*
X82550000Y-58500001D02*
G01*
X80050000Y-58500001D01*
X80050000Y-57500001D01*
X82550000Y-57500001D01*
X82550000Y-58500001D01*
G37*
G36*
X97750000Y-58500001D02*
G01*
X95250000Y-58500001D01*
X95250000Y-57500001D01*
X97750000Y-57500001D01*
X97750000Y-58500001D01*
G37*
G36*
X45194805Y-57752836D02*
G01*
X45262628Y-57791994D01*
X45318006Y-57847372D01*
X45357164Y-57915195D01*
X45377433Y-57990842D01*
X45377433Y-58069158D01*
X45357164Y-58144805D01*
X45318006Y-58212628D01*
X45262628Y-58268006D01*
X45194805Y-58307164D01*
X45119158Y-58327433D01*
X45040842Y-58327433D01*
X44965195Y-58307164D01*
X44897372Y-58268006D01*
X44841994Y-58212628D01*
X44802836Y-58144805D01*
X44782567Y-58069158D01*
X44782567Y-57990842D01*
X44802836Y-57915195D01*
X44841994Y-57847372D01*
X44897372Y-57791994D01*
X44965195Y-57752836D01*
X45040842Y-57732567D01*
X45119158Y-57732567D01*
X45194805Y-57752836D01*
G37*
G36*
X46720000Y-58020000D02*
G01*
X45560000Y-58020000D01*
X45560000Y-57420000D01*
X46720000Y-57420000D01*
X46720000Y-58020000D01*
G37*
G36*
X41848737Y-56153850D02*
G01*
X41962208Y-56184254D01*
X42063943Y-56242991D01*
X42147009Y-56326057D01*
X42205746Y-56427792D01*
X42236150Y-56541263D01*
X42236150Y-56658737D01*
X42205746Y-56772208D01*
X42147009Y-56873943D01*
X42063943Y-56957009D01*
X41962208Y-57015746D01*
X41848737Y-57046150D01*
X41790000Y-57050000D01*
X41788029Y-57050000D01*
X40991971Y-57050000D01*
X40990000Y-57050000D01*
X40931263Y-57046150D01*
X40817792Y-57015746D01*
X40716057Y-56957009D01*
X40632991Y-56873943D01*
X40574254Y-56772208D01*
X40543850Y-56658737D01*
X40543850Y-56541263D01*
X40574254Y-56427792D01*
X40632991Y-56326057D01*
X40716057Y-56242991D01*
X40817792Y-56184254D01*
X40931263Y-56153850D01*
X40990000Y-56150000D01*
X41790000Y-56150000D01*
X41848737Y-56153850D01*
G37*
G36*
X46168737Y-56153850D02*
G01*
X46282208Y-56184254D01*
X46383943Y-56242991D01*
X46467009Y-56326057D01*
X46525746Y-56427792D01*
X46556150Y-56541263D01*
X46556150Y-56658737D01*
X46525746Y-56772208D01*
X46467009Y-56873943D01*
X46383943Y-56957009D01*
X46282208Y-57015746D01*
X46168737Y-57046150D01*
X46110000Y-57050000D01*
X46108029Y-57050000D01*
X45011971Y-57050000D01*
X45010000Y-57050000D01*
X44951263Y-57046150D01*
X44837792Y-57015746D01*
X44736057Y-56957009D01*
X44652991Y-56873943D01*
X44594254Y-56772208D01*
X44563850Y-56658737D01*
X44563850Y-56541263D01*
X44594254Y-56427792D01*
X44652991Y-56326057D01*
X44736057Y-56242991D01*
X44837792Y-56184254D01*
X44951263Y-56153850D01*
X45010000Y-56150000D01*
X46110000Y-56150000D01*
X46168737Y-56153850D01*
G37*
G36*
X72404850Y-55650964D02*
G01*
X72455040Y-55656787D01*
X72472189Y-55664359D01*
X72495671Y-55669030D01*
X72520810Y-55685827D01*
X72540696Y-55694608D01*
X72554277Y-55708189D01*
X72576777Y-55723223D01*
X72591810Y-55745722D01*
X72605391Y-55759303D01*
X72614170Y-55779186D01*
X72630970Y-55804329D01*
X72635641Y-55827812D01*
X72643212Y-55844959D01*
X72649033Y-55895139D01*
X72650000Y-55900000D01*
X72650000Y-56725000D01*
X72649032Y-56729863D01*
X72643212Y-56780040D01*
X72635641Y-56797185D01*
X72630970Y-56820671D01*
X72614169Y-56845815D01*
X72605391Y-56865696D01*
X72591812Y-56879274D01*
X72576777Y-56901777D01*
X72554274Y-56916812D01*
X72540696Y-56930391D01*
X72520815Y-56939169D01*
X72495671Y-56955970D01*
X72472185Y-56960641D01*
X72455040Y-56968212D01*
X72404861Y-56974032D01*
X72400000Y-56975000D01*
X71100000Y-56975000D01*
X71095138Y-56974032D01*
X71044959Y-56968212D01*
X71027812Y-56960641D01*
X71004329Y-56955970D01*
X70979186Y-56939170D01*
X70959303Y-56930391D01*
X70945722Y-56916810D01*
X70923223Y-56901777D01*
X70908189Y-56879277D01*
X70894608Y-56865696D01*
X70885827Y-56845810D01*
X70869030Y-56820671D01*
X70864359Y-56797189D01*
X70856787Y-56780040D01*
X70850964Y-56729849D01*
X70850000Y-56725000D01*
X70850000Y-55900000D01*
X70850964Y-55895150D01*
X70856787Y-55844959D01*
X70864359Y-55827808D01*
X70869030Y-55804329D01*
X70885826Y-55779191D01*
X70894608Y-55759303D01*
X70908191Y-55745719D01*
X70923223Y-55723223D01*
X70945719Y-55708191D01*
X70959303Y-55694608D01*
X70979191Y-55685826D01*
X71004329Y-55669030D01*
X71027808Y-55664359D01*
X71044959Y-55656787D01*
X71095151Y-55650964D01*
X71100000Y-55650000D01*
X72400000Y-55650000D01*
X72404850Y-55650964D01*
G37*
G36*
X51854850Y-55100964D02*
G01*
X51905040Y-55106787D01*
X51922189Y-55114359D01*
X51945671Y-55119030D01*
X51970810Y-55135827D01*
X51990696Y-55144608D01*
X52004277Y-55158189D01*
X52026777Y-55173223D01*
X52041810Y-55195722D01*
X52055391Y-55209303D01*
X52064170Y-55229186D01*
X52080970Y-55254329D01*
X52085641Y-55277812D01*
X52093212Y-55294959D01*
X52099033Y-55345139D01*
X52100000Y-55350000D01*
X52100000Y-56650000D01*
X52099032Y-56654863D01*
X52093212Y-56705040D01*
X52085641Y-56722185D01*
X52080970Y-56745671D01*
X52064169Y-56770815D01*
X52055391Y-56790696D01*
X52041812Y-56804274D01*
X52026777Y-56826777D01*
X52004274Y-56841812D01*
X51990696Y-56855391D01*
X51970815Y-56864169D01*
X51945671Y-56880970D01*
X51922185Y-56885641D01*
X51905040Y-56893212D01*
X51854861Y-56899032D01*
X51850000Y-56900000D01*
X51025000Y-56900000D01*
X51020138Y-56899032D01*
X50969959Y-56893212D01*
X50952812Y-56885641D01*
X50929329Y-56880970D01*
X50904186Y-56864170D01*
X50884303Y-56855391D01*
X50870722Y-56841810D01*
X50848223Y-56826777D01*
X50833189Y-56804277D01*
X50819608Y-56790696D01*
X50810827Y-56770810D01*
X50794030Y-56745671D01*
X50789359Y-56722189D01*
X50781787Y-56705040D01*
X50775964Y-56654849D01*
X50775000Y-56650000D01*
X50775000Y-55350000D01*
X50775964Y-55345150D01*
X50781787Y-55294959D01*
X50789359Y-55277808D01*
X50794030Y-55254329D01*
X50810826Y-55229191D01*
X50819608Y-55209303D01*
X50833191Y-55195719D01*
X50848223Y-55173223D01*
X50870719Y-55158191D01*
X50884303Y-55144608D01*
X50904191Y-55135826D01*
X50929329Y-55119030D01*
X50952808Y-55114359D01*
X50969959Y-55106787D01*
X51020151Y-55100964D01*
X51025000Y-55100000D01*
X51850000Y-55100000D01*
X51854850Y-55100964D01*
G37*
G36*
X54979850Y-55100964D02*
G01*
X55030040Y-55106787D01*
X55047189Y-55114359D01*
X55070671Y-55119030D01*
X55095810Y-55135827D01*
X55115696Y-55144608D01*
X55129277Y-55158189D01*
X55151777Y-55173223D01*
X55166810Y-55195722D01*
X55180391Y-55209303D01*
X55189170Y-55229186D01*
X55205970Y-55254329D01*
X55210641Y-55277812D01*
X55218212Y-55294959D01*
X55224033Y-55345139D01*
X55225000Y-55350000D01*
X55225000Y-56650000D01*
X55224032Y-56654863D01*
X55218212Y-56705040D01*
X55210641Y-56722185D01*
X55205970Y-56745671D01*
X55189169Y-56770815D01*
X55180391Y-56790696D01*
X55166812Y-56804274D01*
X55151777Y-56826777D01*
X55129274Y-56841812D01*
X55115696Y-56855391D01*
X55095815Y-56864169D01*
X55070671Y-56880970D01*
X55047185Y-56885641D01*
X55030040Y-56893212D01*
X54979861Y-56899032D01*
X54975000Y-56900000D01*
X54150000Y-56900000D01*
X54145138Y-56899032D01*
X54094959Y-56893212D01*
X54077812Y-56885641D01*
X54054329Y-56880970D01*
X54029186Y-56864170D01*
X54009303Y-56855391D01*
X53995722Y-56841810D01*
X53973223Y-56826777D01*
X53958189Y-56804277D01*
X53944608Y-56790696D01*
X53935827Y-56770810D01*
X53919030Y-56745671D01*
X53914359Y-56722189D01*
X53906787Y-56705040D01*
X53900964Y-56654849D01*
X53900000Y-56650000D01*
X53900000Y-55350000D01*
X53900964Y-55345150D01*
X53906787Y-55294959D01*
X53914359Y-55277808D01*
X53919030Y-55254329D01*
X53935826Y-55229191D01*
X53944608Y-55209303D01*
X53958191Y-55195719D01*
X53973223Y-55173223D01*
X53995719Y-55158191D01*
X54009303Y-55144608D01*
X54029191Y-55135826D01*
X54054329Y-55119030D01*
X54077808Y-55114359D01*
X54094959Y-55106787D01*
X54145151Y-55100964D01*
X54150000Y-55100000D01*
X54975000Y-55100000D01*
X54979850Y-55100964D01*
G37*
G36*
X74354850Y-55125964D02*
G01*
X74405040Y-55131787D01*
X74422189Y-55139359D01*
X74445671Y-55144030D01*
X74470810Y-55160827D01*
X74490696Y-55169608D01*
X74504277Y-55183189D01*
X74526777Y-55198223D01*
X74541810Y-55220722D01*
X74555391Y-55234303D01*
X74564170Y-55254186D01*
X74580970Y-55279329D01*
X74585641Y-55302812D01*
X74593212Y-55319959D01*
X74599033Y-55370139D01*
X74600000Y-55375000D01*
X74600000Y-56625000D01*
X74599032Y-56629863D01*
X74593212Y-56680040D01*
X74585641Y-56697185D01*
X74580970Y-56720671D01*
X74564169Y-56745815D01*
X74555391Y-56765696D01*
X74541812Y-56779274D01*
X74526777Y-56801777D01*
X74504274Y-56816812D01*
X74490696Y-56830391D01*
X74470815Y-56839169D01*
X74445671Y-56855970D01*
X74422185Y-56860641D01*
X74405040Y-56868212D01*
X74354861Y-56874032D01*
X74350000Y-56875000D01*
X73550000Y-56875000D01*
X73545138Y-56874032D01*
X73494959Y-56868212D01*
X73477812Y-56860641D01*
X73454329Y-56855970D01*
X73429186Y-56839170D01*
X73409303Y-56830391D01*
X73395722Y-56816810D01*
X73373223Y-56801777D01*
X73358189Y-56779277D01*
X73344608Y-56765696D01*
X73335827Y-56745810D01*
X73319030Y-56720671D01*
X73314359Y-56697189D01*
X73306787Y-56680040D01*
X73300964Y-56629849D01*
X73300000Y-56625000D01*
X73300000Y-55375000D01*
X73300964Y-55370150D01*
X73306787Y-55319959D01*
X73314359Y-55302808D01*
X73319030Y-55279329D01*
X73335826Y-55254191D01*
X73344608Y-55234303D01*
X73358191Y-55220719D01*
X73373223Y-55198223D01*
X73395719Y-55183191D01*
X73409303Y-55169608D01*
X73429191Y-55160826D01*
X73454329Y-55144030D01*
X73477808Y-55139359D01*
X73494959Y-55131787D01*
X73545151Y-55125964D01*
X73550000Y-55125000D01*
X74350000Y-55125000D01*
X74354850Y-55125964D01*
G37*
G36*
X77454850Y-55125964D02*
G01*
X77505040Y-55131787D01*
X77522189Y-55139359D01*
X77545671Y-55144030D01*
X77570810Y-55160827D01*
X77590696Y-55169608D01*
X77604277Y-55183189D01*
X77626777Y-55198223D01*
X77641810Y-55220722D01*
X77655391Y-55234303D01*
X77664170Y-55254186D01*
X77680970Y-55279329D01*
X77685641Y-55302812D01*
X77693212Y-55319959D01*
X77699033Y-55370139D01*
X77700000Y-55375000D01*
X77700000Y-56625000D01*
X77699032Y-56629863D01*
X77693212Y-56680040D01*
X77685641Y-56697185D01*
X77680970Y-56720671D01*
X77664169Y-56745815D01*
X77655391Y-56765696D01*
X77641812Y-56779274D01*
X77626777Y-56801777D01*
X77604274Y-56816812D01*
X77590696Y-56830391D01*
X77570815Y-56839169D01*
X77545671Y-56855970D01*
X77522185Y-56860641D01*
X77505040Y-56868212D01*
X77454861Y-56874032D01*
X77450000Y-56875000D01*
X76650000Y-56875000D01*
X76645138Y-56874032D01*
X76594959Y-56868212D01*
X76577812Y-56860641D01*
X76554329Y-56855970D01*
X76529186Y-56839170D01*
X76509303Y-56830391D01*
X76495722Y-56816810D01*
X76473223Y-56801777D01*
X76458189Y-56779277D01*
X76444608Y-56765696D01*
X76435827Y-56745810D01*
X76419030Y-56720671D01*
X76414359Y-56697189D01*
X76406787Y-56680040D01*
X76400964Y-56629849D01*
X76400000Y-56625000D01*
X76400000Y-55375000D01*
X76400964Y-55370150D01*
X76406787Y-55319959D01*
X76414359Y-55302808D01*
X76419030Y-55279329D01*
X76435826Y-55254191D01*
X76444608Y-55234303D01*
X76458191Y-55220719D01*
X76473223Y-55198223D01*
X76495719Y-55183191D01*
X76509303Y-55169608D01*
X76529191Y-55160826D01*
X76554329Y-55144030D01*
X76577808Y-55139359D01*
X76594959Y-55131787D01*
X76645151Y-55125964D01*
X76650000Y-55125000D01*
X77450000Y-55125000D01*
X77454850Y-55125964D01*
G37*
G36*
X67711418Y-55904758D02*
G01*
X67731694Y-55918306D01*
X67745242Y-55938582D01*
X67750000Y-55962500D01*
X67750000Y-56662500D01*
X67745242Y-56686418D01*
X67731694Y-56706694D01*
X67711418Y-56720242D01*
X67687500Y-56725000D01*
X67562500Y-56725000D01*
X67538582Y-56720242D01*
X67518306Y-56706694D01*
X67504758Y-56686418D01*
X67500000Y-56662500D01*
X67500000Y-55962500D01*
X67504758Y-55938582D01*
X67518306Y-55918306D01*
X67538582Y-55904758D01*
X67562500Y-55900000D01*
X67687500Y-55900000D01*
X67711418Y-55904758D01*
G37*
G36*
X68211418Y-55904758D02*
G01*
X68231694Y-55918306D01*
X68245242Y-55938582D01*
X68250000Y-55962500D01*
X68250000Y-56662500D01*
X68245242Y-56686418D01*
X68231694Y-56706694D01*
X68211418Y-56720242D01*
X68187500Y-56725000D01*
X68062500Y-56725000D01*
X68038582Y-56720242D01*
X68018306Y-56706694D01*
X68004758Y-56686418D01*
X68000000Y-56662500D01*
X68000000Y-55962500D01*
X68004758Y-55938582D01*
X68018306Y-55918306D01*
X68038582Y-55904758D01*
X68062500Y-55900000D01*
X68187500Y-55900000D01*
X68211418Y-55904758D01*
G37*
G36*
X68711418Y-55904758D02*
G01*
X68731694Y-55918306D01*
X68745242Y-55938582D01*
X68750000Y-55962500D01*
X68750000Y-56662500D01*
X68745242Y-56686418D01*
X68731694Y-56706694D01*
X68711418Y-56720242D01*
X68687500Y-56725000D01*
X68562500Y-56725000D01*
X68538582Y-56720242D01*
X68518306Y-56706694D01*
X68504758Y-56686418D01*
X68500000Y-56662500D01*
X68500000Y-55962500D01*
X68504758Y-55938582D01*
X68518306Y-55918306D01*
X68538582Y-55904758D01*
X68562500Y-55900000D01*
X68687500Y-55900000D01*
X68711418Y-55904758D01*
G37*
G36*
X69211418Y-55904758D02*
G01*
X69231694Y-55918306D01*
X69245242Y-55938582D01*
X69250000Y-55962500D01*
X69250000Y-56662500D01*
X69245242Y-56686418D01*
X69231694Y-56706694D01*
X69211418Y-56720242D01*
X69187500Y-56725000D01*
X69062500Y-56725000D01*
X69038582Y-56720242D01*
X69018306Y-56706694D01*
X69004758Y-56686418D01*
X69000000Y-56662500D01*
X69000000Y-55962500D01*
X69004758Y-55938582D01*
X69018306Y-55918306D01*
X69038582Y-55904758D01*
X69062500Y-55900000D01*
X69187500Y-55900000D01*
X69211418Y-55904758D01*
G37*
G36*
X82550000Y-56500000D02*
G01*
X80050000Y-56500000D01*
X80050000Y-55500000D01*
X82550000Y-55500000D01*
X82550000Y-56500000D01*
G37*
G36*
X97750000Y-56500000D02*
G01*
X95250000Y-56500000D01*
X95250000Y-55500000D01*
X97750000Y-55500000D01*
X97750000Y-56500000D01*
G37*
G36*
X100379850Y-55150964D02*
G01*
X100430040Y-55156787D01*
X100447189Y-55164359D01*
X100470671Y-55169030D01*
X100495810Y-55185827D01*
X100515696Y-55194608D01*
X100529277Y-55208189D01*
X100551777Y-55223223D01*
X100566810Y-55245722D01*
X100580391Y-55259303D01*
X100589170Y-55279186D01*
X100605970Y-55304329D01*
X100610641Y-55327812D01*
X100618212Y-55344959D01*
X100624033Y-55395139D01*
X100625000Y-55400000D01*
X100625000Y-56200000D01*
X100624032Y-56204863D01*
X100618212Y-56255040D01*
X100610641Y-56272185D01*
X100605970Y-56295671D01*
X100589169Y-56320815D01*
X100580391Y-56340696D01*
X100566812Y-56354274D01*
X100551777Y-56376777D01*
X100529274Y-56391812D01*
X100515696Y-56405391D01*
X100495815Y-56414169D01*
X100470671Y-56430970D01*
X100447185Y-56435641D01*
X100430040Y-56443212D01*
X100379861Y-56449032D01*
X100375000Y-56450000D01*
X99125000Y-56450000D01*
X99120138Y-56449032D01*
X99069959Y-56443212D01*
X99052812Y-56435641D01*
X99029329Y-56430970D01*
X99004186Y-56414170D01*
X98984303Y-56405391D01*
X98970722Y-56391810D01*
X98948223Y-56376777D01*
X98933189Y-56354277D01*
X98919608Y-56340696D01*
X98910827Y-56320810D01*
X98894030Y-56295671D01*
X98889359Y-56272189D01*
X98881787Y-56255040D01*
X98875964Y-56204849D01*
X98875000Y-56200000D01*
X98875000Y-55400000D01*
X98875964Y-55395150D01*
X98881787Y-55344959D01*
X98889359Y-55327808D01*
X98894030Y-55304329D01*
X98910826Y-55279191D01*
X98919608Y-55259303D01*
X98933191Y-55245719D01*
X98948223Y-55223223D01*
X98970719Y-55208191D01*
X98984303Y-55194608D01*
X99004191Y-55185826D01*
X99029329Y-55169030D01*
X99052808Y-55164359D01*
X99069959Y-55156787D01*
X99120151Y-55150964D01*
X99125000Y-55150000D01*
X100375000Y-55150000D01*
X100379850Y-55150964D01*
G37*
G36*
X64006283Y-53861427D02*
G01*
X64013268Y-53864032D01*
X64017762Y-53864572D01*
X64070931Y-53885539D01*
X64139624Y-53911161D01*
X64143768Y-53914263D01*
X64144776Y-53914661D01*
X64181416Y-53942446D01*
X64253553Y-53996447D01*
X64307572Y-54068608D01*
X64335338Y-54105223D01*
X64335734Y-54106229D01*
X64338839Y-54110376D01*
X64364470Y-54179096D01*
X64385427Y-54232237D01*
X64385966Y-54236728D01*
X64388573Y-54243717D01*
X64400000Y-54350000D01*
X64400000Y-55350000D01*
X64388573Y-55456283D01*
X64385966Y-55463272D01*
X64385427Y-55467762D01*
X64364477Y-55520884D01*
X64338839Y-55589624D01*
X64335734Y-55593771D01*
X64335338Y-55594776D01*
X64307630Y-55631313D01*
X64253553Y-55703553D01*
X64181313Y-55757630D01*
X64144776Y-55785338D01*
X64143771Y-55785734D01*
X64139624Y-55788839D01*
X64070884Y-55814477D01*
X64017762Y-55835427D01*
X64013272Y-55835966D01*
X64006283Y-55838573D01*
X63900000Y-55850000D01*
X61100000Y-55850000D01*
X60993717Y-55838573D01*
X60986728Y-55835966D01*
X60982237Y-55835427D01*
X60929096Y-55814470D01*
X60860376Y-55788839D01*
X60856229Y-55785734D01*
X60855223Y-55785338D01*
X60818608Y-55757572D01*
X60746447Y-55703553D01*
X60692446Y-55631416D01*
X60664661Y-55594776D01*
X60664263Y-55593768D01*
X60661161Y-55589624D01*
X60635539Y-55520931D01*
X60614572Y-55467762D01*
X60614032Y-55463268D01*
X60611427Y-55456283D01*
X60600000Y-55350000D01*
X60600000Y-54350000D01*
X60611427Y-54243717D01*
X60614032Y-54236732D01*
X60614572Y-54232237D01*
X60635546Y-54179049D01*
X60661161Y-54110376D01*
X60664263Y-54106232D01*
X60664661Y-54105223D01*
X60692504Y-54068506D01*
X60746447Y-53996447D01*
X60818506Y-53942504D01*
X60855223Y-53914661D01*
X60856232Y-53914263D01*
X60860376Y-53911161D01*
X60929049Y-53885546D01*
X60982237Y-53864572D01*
X60986732Y-53864032D01*
X60993717Y-53861427D01*
X61100000Y-53850000D01*
X63900000Y-53850000D01*
X64006283Y-53861427D01*
G37*
G36*
X67311418Y-55504758D02*
G01*
X67331694Y-55518306D01*
X67345242Y-55538582D01*
X67350000Y-55562500D01*
X67350000Y-55687500D01*
X67345242Y-55711418D01*
X67331694Y-55731694D01*
X67311418Y-55745242D01*
X67287500Y-55750000D01*
X66587500Y-55750000D01*
X66563582Y-55745242D01*
X66543306Y-55731694D01*
X66529758Y-55711418D01*
X66525000Y-55687500D01*
X66525000Y-55562500D01*
X66529758Y-55538582D01*
X66543306Y-55518306D01*
X66563582Y-55504758D01*
X66587500Y-55500000D01*
X67287500Y-55500000D01*
X67311418Y-55504758D01*
G37*
G36*
X70186418Y-55504758D02*
G01*
X70206694Y-55518306D01*
X70220242Y-55538582D01*
X70225000Y-55562500D01*
X70225000Y-55687500D01*
X70220242Y-55711418D01*
X70206694Y-55731694D01*
X70186418Y-55745242D01*
X70162500Y-55750000D01*
X69462500Y-55750000D01*
X69438582Y-55745242D01*
X69418306Y-55731694D01*
X69404758Y-55711418D01*
X69400000Y-55687500D01*
X69400000Y-55562500D01*
X69404758Y-55538582D01*
X69418306Y-55518306D01*
X69438582Y-55504758D01*
X69462500Y-55500000D01*
X70162500Y-55500000D01*
X70186418Y-55504758D01*
G37*
G36*
X68990000Y-55490000D02*
G01*
X67760000Y-55490000D01*
X67760000Y-54260000D01*
X68990000Y-54260000D01*
X68990000Y-55490000D01*
G37*
G36*
X67311418Y-55004758D02*
G01*
X67331694Y-55018306D01*
X67345242Y-55038582D01*
X67350000Y-55062500D01*
X67350000Y-55187500D01*
X67345242Y-55211418D01*
X67331694Y-55231694D01*
X67311418Y-55245242D01*
X67287500Y-55250000D01*
X66587500Y-55250000D01*
X66563582Y-55245242D01*
X66543306Y-55231694D01*
X66529758Y-55211418D01*
X66525000Y-55187500D01*
X66525000Y-55062500D01*
X66529758Y-55038582D01*
X66543306Y-55018306D01*
X66563582Y-55004758D01*
X66587500Y-55000000D01*
X67287500Y-55000000D01*
X67311418Y-55004758D01*
G37*
G36*
X70186418Y-55004758D02*
G01*
X70206694Y-55018306D01*
X70220242Y-55038582D01*
X70225000Y-55062500D01*
X70225000Y-55187500D01*
X70220242Y-55211418D01*
X70206694Y-55231694D01*
X70186418Y-55245242D01*
X70162500Y-55250000D01*
X69462500Y-55250000D01*
X69438582Y-55245242D01*
X69418306Y-55231694D01*
X69404758Y-55211418D01*
X69400000Y-55187500D01*
X69400000Y-55062500D01*
X69404758Y-55038582D01*
X69418306Y-55018306D01*
X69438582Y-55004758D01*
X69462500Y-55000000D01*
X70162500Y-55000000D01*
X70186418Y-55004758D01*
G37*
G36*
X67311418Y-54504758D02*
G01*
X67331694Y-54518306D01*
X67345242Y-54538582D01*
X67350000Y-54562500D01*
X67350000Y-54687500D01*
X67345242Y-54711418D01*
X67331694Y-54731694D01*
X67311418Y-54745242D01*
X67287500Y-54750000D01*
X66587500Y-54750000D01*
X66563582Y-54745242D01*
X66543306Y-54731694D01*
X66529758Y-54711418D01*
X66525000Y-54687500D01*
X66525000Y-54562500D01*
X66529758Y-54538582D01*
X66543306Y-54518306D01*
X66563582Y-54504758D01*
X66587500Y-54500000D01*
X67287500Y-54500000D01*
X67311418Y-54504758D01*
G37*
G36*
X70186418Y-54504758D02*
G01*
X70206694Y-54518306D01*
X70220242Y-54538582D01*
X70225000Y-54562500D01*
X70225000Y-54687500D01*
X70220242Y-54711418D01*
X70206694Y-54731694D01*
X70186418Y-54745242D01*
X70162500Y-54750000D01*
X69462500Y-54750000D01*
X69438582Y-54745242D01*
X69418306Y-54731694D01*
X69404758Y-54711418D01*
X69400000Y-54687500D01*
X69400000Y-54562500D01*
X69404758Y-54538582D01*
X69418306Y-54518306D01*
X69438582Y-54504758D01*
X69462500Y-54500000D01*
X70162500Y-54500000D01*
X70186418Y-54504758D01*
G37*
G36*
X82550000Y-54499999D02*
G01*
X80050000Y-54499999D01*
X80050000Y-53499999D01*
X82550000Y-53499999D01*
X82550000Y-54499999D01*
G37*
G36*
X97750000Y-54499999D02*
G01*
X95250000Y-54499999D01*
X95250000Y-53499999D01*
X97750000Y-53499999D01*
X97750000Y-54499999D01*
G37*
G36*
X46262403Y-52511418D02*
G01*
X46311066Y-52543934D01*
X46343582Y-52592597D01*
X46355000Y-52650000D01*
X46355000Y-54300000D01*
X46343582Y-54357403D01*
X46311066Y-54406066D01*
X46262403Y-54438582D01*
X46205000Y-54450000D01*
X45905000Y-54450000D01*
X45847597Y-54438582D01*
X45798934Y-54406066D01*
X45766418Y-54357403D01*
X45755000Y-54300000D01*
X45755000Y-52650000D01*
X45766418Y-52592597D01*
X45798934Y-52543934D01*
X45847597Y-52511418D01*
X45905000Y-52500000D01*
X46205000Y-52500000D01*
X46262403Y-52511418D01*
G37*
G36*
X47532403Y-52511418D02*
G01*
X47581066Y-52543934D01*
X47613582Y-52592597D01*
X47625000Y-52650000D01*
X47625000Y-54300000D01*
X47613582Y-54357403D01*
X47581066Y-54406066D01*
X47532403Y-54438582D01*
X47475000Y-54450000D01*
X47175000Y-54450000D01*
X47117597Y-54438582D01*
X47068934Y-54406066D01*
X47036418Y-54357403D01*
X47025000Y-54300000D01*
X47025000Y-52650000D01*
X47036418Y-52592597D01*
X47068934Y-52543934D01*
X47117597Y-52511418D01*
X47175000Y-52500000D01*
X47475000Y-52500000D01*
X47532403Y-52511418D01*
G37*
G36*
X48802403Y-52511418D02*
G01*
X48851066Y-52543934D01*
X48883582Y-52592597D01*
X48895000Y-52650000D01*
X48895000Y-54300000D01*
X48883582Y-54357403D01*
X48851066Y-54406066D01*
X48802403Y-54438582D01*
X48745000Y-54450000D01*
X48445000Y-54450000D01*
X48387597Y-54438582D01*
X48338934Y-54406066D01*
X48306418Y-54357403D01*
X48295000Y-54300000D01*
X48295000Y-52650000D01*
X48306418Y-52592597D01*
X48338934Y-52543934D01*
X48387597Y-52511418D01*
X48445000Y-52500000D01*
X48745000Y-52500000D01*
X48802403Y-52511418D01*
G37*
G36*
X50072403Y-52511418D02*
G01*
X50121066Y-52543934D01*
X50153582Y-52592597D01*
X50165000Y-52650000D01*
X50165000Y-54300000D01*
X50153582Y-54357403D01*
X50121066Y-54406066D01*
X50072403Y-54438582D01*
X50015000Y-54450000D01*
X49715000Y-54450000D01*
X49657597Y-54438582D01*
X49608934Y-54406066D01*
X49576418Y-54357403D01*
X49565000Y-54300000D01*
X49565000Y-52650000D01*
X49576418Y-52592597D01*
X49608934Y-52543934D01*
X49657597Y-52511418D01*
X49715000Y-52500000D01*
X50015000Y-52500000D01*
X50072403Y-52511418D01*
G37*
G36*
X51342403Y-52511418D02*
G01*
X51391066Y-52543934D01*
X51423582Y-52592597D01*
X51435000Y-52650000D01*
X51435000Y-54300000D01*
X51423582Y-54357403D01*
X51391066Y-54406066D01*
X51342403Y-54438582D01*
X51285000Y-54450000D01*
X50985000Y-54450000D01*
X50927597Y-54438582D01*
X50878934Y-54406066D01*
X50846418Y-54357403D01*
X50835000Y-54300000D01*
X50835000Y-52650000D01*
X50846418Y-52592597D01*
X50878934Y-52543934D01*
X50927597Y-52511418D01*
X50985000Y-52500000D01*
X51285000Y-52500000D01*
X51342403Y-52511418D01*
G37*
G36*
X52612403Y-52511418D02*
G01*
X52661066Y-52543934D01*
X52693582Y-52592597D01*
X52705000Y-52650000D01*
X52705000Y-54300000D01*
X52693582Y-54357403D01*
X52661066Y-54406066D01*
X52612403Y-54438582D01*
X52555000Y-54450000D01*
X52255000Y-54450000D01*
X52197597Y-54438582D01*
X52148934Y-54406066D01*
X52116418Y-54357403D01*
X52105000Y-54300000D01*
X52105000Y-52650000D01*
X52116418Y-52592597D01*
X52148934Y-52543934D01*
X52197597Y-52511418D01*
X52255000Y-52500000D01*
X52555000Y-52500000D01*
X52612403Y-52511418D01*
G37*
G36*
X53882403Y-52511418D02*
G01*
X53931066Y-52543934D01*
X53963582Y-52592597D01*
X53975000Y-52650000D01*
X53975000Y-54300000D01*
X53963582Y-54357403D01*
X53931066Y-54406066D01*
X53882403Y-54438582D01*
X53825000Y-54450000D01*
X53525000Y-54450000D01*
X53467597Y-54438582D01*
X53418934Y-54406066D01*
X53386418Y-54357403D01*
X53375000Y-54300000D01*
X53375000Y-52650000D01*
X53386418Y-52592597D01*
X53418934Y-52543934D01*
X53467597Y-52511418D01*
X53525000Y-52500000D01*
X53825000Y-52500000D01*
X53882403Y-52511418D01*
G37*
G36*
X55152403Y-52511418D02*
G01*
X55201066Y-52543934D01*
X55233582Y-52592597D01*
X55245000Y-52650000D01*
X55245000Y-54300000D01*
X55233582Y-54357403D01*
X55201066Y-54406066D01*
X55152403Y-54438582D01*
X55095000Y-54450000D01*
X54795000Y-54450000D01*
X54737597Y-54438582D01*
X54688934Y-54406066D01*
X54656418Y-54357403D01*
X54645000Y-54300000D01*
X54645000Y-52650000D01*
X54656418Y-52592597D01*
X54688934Y-52543934D01*
X54737597Y-52511418D01*
X54795000Y-52500000D01*
X55095000Y-52500000D01*
X55152403Y-52511418D01*
G37*
G36*
X74354850Y-52600964D02*
G01*
X74405040Y-52606787D01*
X74422189Y-52614359D01*
X74445671Y-52619030D01*
X74470810Y-52635827D01*
X74490696Y-52644608D01*
X74504277Y-52658189D01*
X74526777Y-52673223D01*
X74541810Y-52695722D01*
X74555391Y-52709303D01*
X74564170Y-52729186D01*
X74580970Y-52754329D01*
X74585641Y-52777812D01*
X74593212Y-52794959D01*
X74599033Y-52845139D01*
X74600000Y-52850000D01*
X74600000Y-54150000D01*
X74599032Y-54154863D01*
X74593212Y-54205040D01*
X74585641Y-54222185D01*
X74580970Y-54245671D01*
X74564169Y-54270815D01*
X74555391Y-54290696D01*
X74541812Y-54304274D01*
X74526777Y-54326777D01*
X74504274Y-54341812D01*
X74490696Y-54355391D01*
X74470815Y-54364169D01*
X74445671Y-54380970D01*
X74422185Y-54385641D01*
X74405040Y-54393212D01*
X74354861Y-54399032D01*
X74350000Y-54400000D01*
X73525000Y-54400000D01*
X73520138Y-54399032D01*
X73469959Y-54393212D01*
X73452812Y-54385641D01*
X73429329Y-54380970D01*
X73404186Y-54364170D01*
X73384303Y-54355391D01*
X73370722Y-54341810D01*
X73348223Y-54326777D01*
X73333189Y-54304277D01*
X73319608Y-54290696D01*
X73310827Y-54270810D01*
X73294030Y-54245671D01*
X73289359Y-54222189D01*
X73281787Y-54205040D01*
X73275964Y-54154849D01*
X73275000Y-54150000D01*
X73275000Y-52850000D01*
X73275964Y-52845150D01*
X73281787Y-52794959D01*
X73289359Y-52777808D01*
X73294030Y-52754329D01*
X73310826Y-52729191D01*
X73319608Y-52709303D01*
X73333191Y-52695719D01*
X73348223Y-52673223D01*
X73370719Y-52658191D01*
X73384303Y-52644608D01*
X73404191Y-52635826D01*
X73429329Y-52619030D01*
X73452808Y-52614359D01*
X73469959Y-52606787D01*
X73520151Y-52600964D01*
X73525000Y-52600000D01*
X74350000Y-52600000D01*
X74354850Y-52600964D01*
G37*
G36*
X77479850Y-52600964D02*
G01*
X77530040Y-52606787D01*
X77547189Y-52614359D01*
X77570671Y-52619030D01*
X77595810Y-52635827D01*
X77615696Y-52644608D01*
X77629277Y-52658189D01*
X77651777Y-52673223D01*
X77666810Y-52695722D01*
X77680391Y-52709303D01*
X77689170Y-52729186D01*
X77705970Y-52754329D01*
X77710641Y-52777812D01*
X77718212Y-52794959D01*
X77724033Y-52845139D01*
X77725000Y-52850000D01*
X77725000Y-54150000D01*
X77724032Y-54154863D01*
X77718212Y-54205040D01*
X77710641Y-54222185D01*
X77705970Y-54245671D01*
X77689169Y-54270815D01*
X77680391Y-54290696D01*
X77666812Y-54304274D01*
X77651777Y-54326777D01*
X77629274Y-54341812D01*
X77615696Y-54355391D01*
X77595815Y-54364169D01*
X77570671Y-54380970D01*
X77547185Y-54385641D01*
X77530040Y-54393212D01*
X77479861Y-54399032D01*
X77475000Y-54400000D01*
X76650000Y-54400000D01*
X76645138Y-54399032D01*
X76594959Y-54393212D01*
X76577812Y-54385641D01*
X76554329Y-54380970D01*
X76529186Y-54364170D01*
X76509303Y-54355391D01*
X76495722Y-54341810D01*
X76473223Y-54326777D01*
X76458189Y-54304277D01*
X76444608Y-54290696D01*
X76435827Y-54270810D01*
X76419030Y-54245671D01*
X76414359Y-54222189D01*
X76406787Y-54205040D01*
X76400964Y-54154849D01*
X76400000Y-54150000D01*
X76400000Y-52850000D01*
X76400964Y-52845150D01*
X76406787Y-52794959D01*
X76414359Y-52777808D01*
X76419030Y-52754329D01*
X76435826Y-52729191D01*
X76444608Y-52709303D01*
X76458191Y-52695719D01*
X76473223Y-52673223D01*
X76495719Y-52658191D01*
X76509303Y-52644608D01*
X76529191Y-52635826D01*
X76554329Y-52619030D01*
X76577808Y-52614359D01*
X76594959Y-52606787D01*
X76645151Y-52600964D01*
X76650000Y-52600000D01*
X77475000Y-52600000D01*
X77479850Y-52600964D01*
G37*
G36*
X67311418Y-54004758D02*
G01*
X67331694Y-54018306D01*
X67345242Y-54038582D01*
X67350000Y-54062500D01*
X67350000Y-54187500D01*
X67345242Y-54211418D01*
X67331694Y-54231694D01*
X67311418Y-54245242D01*
X67287500Y-54250000D01*
X66587500Y-54250000D01*
X66563582Y-54245242D01*
X66543306Y-54231694D01*
X66529758Y-54211418D01*
X66525000Y-54187500D01*
X66525000Y-54062500D01*
X66529758Y-54038582D01*
X66543306Y-54018306D01*
X66563582Y-54004758D01*
X66587500Y-54000000D01*
X67287500Y-54000000D01*
X67311418Y-54004758D01*
G37*
G36*
X70186418Y-54004758D02*
G01*
X70206694Y-54018306D01*
X70220242Y-54038582D01*
X70225000Y-54062500D01*
X70225000Y-54187500D01*
X70220242Y-54211418D01*
X70206694Y-54231694D01*
X70186418Y-54245242D01*
X70162500Y-54250000D01*
X69462500Y-54250000D01*
X69438582Y-54245242D01*
X69418306Y-54231694D01*
X69404758Y-54211418D01*
X69400000Y-54187500D01*
X69400000Y-54062500D01*
X69404758Y-54038582D01*
X69418306Y-54018306D01*
X69438582Y-54004758D01*
X69462500Y-54000000D01*
X70162500Y-54000000D01*
X70186418Y-54004758D01*
G37*
G36*
X67711418Y-53029758D02*
G01*
X67731694Y-53043306D01*
X67745242Y-53063582D01*
X67750000Y-53087500D01*
X67750000Y-53787500D01*
X67745242Y-53811418D01*
X67731694Y-53831694D01*
X67711418Y-53845242D01*
X67687500Y-53850000D01*
X67562500Y-53850000D01*
X67538582Y-53845242D01*
X67518306Y-53831694D01*
X67504758Y-53811418D01*
X67500000Y-53787500D01*
X67500000Y-53087500D01*
X67504758Y-53063582D01*
X67518306Y-53043306D01*
X67538582Y-53029758D01*
X67562500Y-53025000D01*
X67687500Y-53025000D01*
X67711418Y-53029758D01*
G37*
G36*
X68211418Y-53029758D02*
G01*
X68231694Y-53043306D01*
X68245242Y-53063582D01*
X68250000Y-53087500D01*
X68250000Y-53787500D01*
X68245242Y-53811418D01*
X68231694Y-53831694D01*
X68211418Y-53845242D01*
X68187500Y-53850000D01*
X68062500Y-53850000D01*
X68038582Y-53845242D01*
X68018306Y-53831694D01*
X68004758Y-53811418D01*
X68000000Y-53787500D01*
X68000000Y-53087500D01*
X68004758Y-53063582D01*
X68018306Y-53043306D01*
X68038582Y-53029758D01*
X68062500Y-53025000D01*
X68187500Y-53025000D01*
X68211418Y-53029758D01*
G37*
G36*
X68711418Y-53029758D02*
G01*
X68731694Y-53043306D01*
X68745242Y-53063582D01*
X68750000Y-53087500D01*
X68750000Y-53787500D01*
X68745242Y-53811418D01*
X68731694Y-53831694D01*
X68711418Y-53845242D01*
X68687500Y-53850000D01*
X68562500Y-53850000D01*
X68538582Y-53845242D01*
X68518306Y-53831694D01*
X68504758Y-53811418D01*
X68500000Y-53787500D01*
X68500000Y-53087500D01*
X68504758Y-53063582D01*
X68518306Y-53043306D01*
X68538582Y-53029758D01*
X68562500Y-53025000D01*
X68687500Y-53025000D01*
X68711418Y-53029758D01*
G37*
G36*
X69211418Y-53029758D02*
G01*
X69231694Y-53043306D01*
X69245242Y-53063582D01*
X69250000Y-53087500D01*
X69250000Y-53787500D01*
X69245242Y-53811418D01*
X69231694Y-53831694D01*
X69211418Y-53845242D01*
X69187500Y-53850000D01*
X69062500Y-53850000D01*
X69038582Y-53845242D01*
X69018306Y-53831694D01*
X69004758Y-53811418D01*
X69000000Y-53787500D01*
X69000000Y-53087500D01*
X69004758Y-53063582D01*
X69018306Y-53043306D01*
X69038582Y-53029758D01*
X69062500Y-53025000D01*
X69187500Y-53025000D01*
X69211418Y-53029758D01*
G37*
G36*
X72404850Y-52525964D02*
G01*
X72455040Y-52531787D01*
X72472189Y-52539359D01*
X72495671Y-52544030D01*
X72520810Y-52560827D01*
X72540696Y-52569608D01*
X72554277Y-52583189D01*
X72576777Y-52598223D01*
X72591810Y-52620722D01*
X72605391Y-52634303D01*
X72614170Y-52654186D01*
X72630970Y-52679329D01*
X72635641Y-52702812D01*
X72643212Y-52719959D01*
X72649033Y-52770139D01*
X72650000Y-52775000D01*
X72650000Y-53600000D01*
X72649032Y-53604863D01*
X72643212Y-53655040D01*
X72635641Y-53672185D01*
X72630970Y-53695671D01*
X72614169Y-53720815D01*
X72605391Y-53740696D01*
X72591812Y-53754274D01*
X72576777Y-53776777D01*
X72554274Y-53791812D01*
X72540696Y-53805391D01*
X72520815Y-53814169D01*
X72495671Y-53830970D01*
X72472185Y-53835641D01*
X72455040Y-53843212D01*
X72404861Y-53849032D01*
X72400000Y-53850000D01*
X71100000Y-53850000D01*
X71095138Y-53849032D01*
X71044959Y-53843212D01*
X71027812Y-53835641D01*
X71004329Y-53830970D01*
X70979186Y-53814170D01*
X70959303Y-53805391D01*
X70945722Y-53791810D01*
X70923223Y-53776777D01*
X70908189Y-53754277D01*
X70894608Y-53740696D01*
X70885827Y-53720810D01*
X70869030Y-53695671D01*
X70864359Y-53672189D01*
X70856787Y-53655040D01*
X70850964Y-53604849D01*
X70850000Y-53600000D01*
X70850000Y-52775000D01*
X70850964Y-52770150D01*
X70856787Y-52719959D01*
X70864359Y-52702808D01*
X70869030Y-52679329D01*
X70885826Y-52654191D01*
X70894608Y-52634303D01*
X70908191Y-52620719D01*
X70923223Y-52598223D01*
X70945719Y-52583191D01*
X70959303Y-52569608D01*
X70979191Y-52560826D01*
X71004329Y-52544030D01*
X71027808Y-52539359D01*
X71044959Y-52531787D01*
X71095151Y-52525964D01*
X71100000Y-52525000D01*
X72400000Y-52525000D01*
X72404850Y-52525964D01*
G37*
G36*
X100379850Y-52050964D02*
G01*
X100430040Y-52056787D01*
X100447189Y-52064359D01*
X100470671Y-52069030D01*
X100495810Y-52085827D01*
X100515696Y-52094608D01*
X100529277Y-52108189D01*
X100551777Y-52123223D01*
X100566810Y-52145722D01*
X100580391Y-52159303D01*
X100589170Y-52179186D01*
X100605970Y-52204329D01*
X100610641Y-52227812D01*
X100618212Y-52244959D01*
X100624033Y-52295139D01*
X100625000Y-52300000D01*
X100625000Y-53100000D01*
X100624032Y-53104863D01*
X100618212Y-53155040D01*
X100610641Y-53172185D01*
X100605970Y-53195671D01*
X100589169Y-53220815D01*
X100580391Y-53240696D01*
X100566812Y-53254274D01*
X100551777Y-53276777D01*
X100529274Y-53291812D01*
X100515696Y-53305391D01*
X100495815Y-53314169D01*
X100470671Y-53330970D01*
X100447185Y-53335641D01*
X100430040Y-53343212D01*
X100379861Y-53349032D01*
X100375000Y-53350000D01*
X99125000Y-53350000D01*
X99120138Y-53349032D01*
X99069959Y-53343212D01*
X99052812Y-53335641D01*
X99029329Y-53330970D01*
X99004186Y-53314170D01*
X98984303Y-53305391D01*
X98970722Y-53291810D01*
X98948223Y-53276777D01*
X98933189Y-53254277D01*
X98919608Y-53240696D01*
X98910827Y-53220810D01*
X98894030Y-53195671D01*
X98889359Y-53172189D01*
X98881787Y-53155040D01*
X98875964Y-53104849D01*
X98875000Y-53100000D01*
X98875000Y-52300000D01*
X98875964Y-52295150D01*
X98881787Y-52244959D01*
X98889359Y-52227808D01*
X98894030Y-52204329D01*
X98910826Y-52179191D01*
X98919608Y-52159303D01*
X98933191Y-52145719D01*
X98948223Y-52123223D01*
X98970719Y-52108191D01*
X98984303Y-52094608D01*
X99004191Y-52085826D01*
X99029329Y-52069030D01*
X99052808Y-52064359D01*
X99069959Y-52056787D01*
X99120151Y-52050964D01*
X99125000Y-52050000D01*
X100375000Y-52050000D01*
X100379850Y-52050964D01*
G37*
G36*
X105722403Y-51098918D02*
G01*
X105771066Y-51131434D01*
X105803582Y-51180097D01*
X105815000Y-51237500D01*
X105815000Y-52987500D01*
X105803582Y-53044903D01*
X105771066Y-53093566D01*
X105722403Y-53126082D01*
X105665000Y-53137500D01*
X105365000Y-53137500D01*
X105307597Y-53126082D01*
X105258934Y-53093566D01*
X105226418Y-53044903D01*
X105215000Y-52987500D01*
X105215000Y-51237500D01*
X105226418Y-51180097D01*
X105258934Y-51131434D01*
X105307597Y-51098918D01*
X105365000Y-51087500D01*
X105665000Y-51087500D01*
X105722403Y-51098918D01*
G37*
G36*
X106992403Y-51098918D02*
G01*
X107041066Y-51131434D01*
X107073582Y-51180097D01*
X107085000Y-51237500D01*
X107085000Y-52987500D01*
X107073582Y-53044903D01*
X107041066Y-53093566D01*
X106992403Y-53126082D01*
X106935000Y-53137500D01*
X106635000Y-53137500D01*
X106577597Y-53126082D01*
X106528934Y-53093566D01*
X106496418Y-53044903D01*
X106485000Y-52987500D01*
X106485000Y-51237500D01*
X106496418Y-51180097D01*
X106528934Y-51131434D01*
X106577597Y-51098918D01*
X106635000Y-51087500D01*
X106935000Y-51087500D01*
X106992403Y-51098918D01*
G37*
G36*
X108262403Y-51098918D02*
G01*
X108311066Y-51131434D01*
X108343582Y-51180097D01*
X108355000Y-51237500D01*
X108355000Y-52987500D01*
X108343582Y-53044903D01*
X108311066Y-53093566D01*
X108262403Y-53126082D01*
X108205000Y-53137500D01*
X107905000Y-53137500D01*
X107847597Y-53126082D01*
X107798934Y-53093566D01*
X107766418Y-53044903D01*
X107755000Y-52987500D01*
X107755000Y-51237500D01*
X107766418Y-51180097D01*
X107798934Y-51131434D01*
X107847597Y-51098918D01*
X107905000Y-51087500D01*
X108205000Y-51087500D01*
X108262403Y-51098918D01*
G37*
G36*
X109532403Y-51098918D02*
G01*
X109581066Y-51131434D01*
X109613582Y-51180097D01*
X109625000Y-51237500D01*
X109625000Y-52987500D01*
X109613582Y-53044903D01*
X109581066Y-53093566D01*
X109532403Y-53126082D01*
X109475000Y-53137500D01*
X109175000Y-53137500D01*
X109117597Y-53126082D01*
X109068934Y-53093566D01*
X109036418Y-53044903D01*
X109025000Y-52987500D01*
X109025000Y-51237500D01*
X109036418Y-51180097D01*
X109068934Y-51131434D01*
X109117597Y-51098918D01*
X109175000Y-51087500D01*
X109475000Y-51087500D01*
X109532403Y-51098918D01*
G37*
G36*
X110802403Y-51098918D02*
G01*
X110851066Y-51131434D01*
X110883582Y-51180097D01*
X110895000Y-51237500D01*
X110895000Y-52987500D01*
X110883582Y-53044903D01*
X110851066Y-53093566D01*
X110802403Y-53126082D01*
X110745000Y-53137500D01*
X110445000Y-53137500D01*
X110387597Y-53126082D01*
X110338934Y-53093566D01*
X110306418Y-53044903D01*
X110295000Y-52987500D01*
X110295000Y-51237500D01*
X110306418Y-51180097D01*
X110338934Y-51131434D01*
X110387597Y-51098918D01*
X110445000Y-51087500D01*
X110745000Y-51087500D01*
X110802403Y-51098918D01*
G37*
G36*
X112072403Y-51098918D02*
G01*
X112121066Y-51131434D01*
X112153582Y-51180097D01*
X112165000Y-51237500D01*
X112165000Y-52987500D01*
X112153582Y-53044903D01*
X112121066Y-53093566D01*
X112072403Y-53126082D01*
X112015000Y-53137500D01*
X111715000Y-53137500D01*
X111657597Y-53126082D01*
X111608934Y-53093566D01*
X111576418Y-53044903D01*
X111565000Y-52987500D01*
X111565000Y-51237500D01*
X111576418Y-51180097D01*
X111608934Y-51131434D01*
X111657597Y-51098918D01*
X111715000Y-51087500D01*
X112015000Y-51087500D01*
X112072403Y-51098918D01*
G37*
G36*
X113342403Y-51098918D02*
G01*
X113391066Y-51131434D01*
X113423582Y-51180097D01*
X113435000Y-51237500D01*
X113435000Y-52987500D01*
X113423582Y-53044903D01*
X113391066Y-53093566D01*
X113342403Y-53126082D01*
X113285000Y-53137500D01*
X112985000Y-53137500D01*
X112927597Y-53126082D01*
X112878934Y-53093566D01*
X112846418Y-53044903D01*
X112835000Y-52987500D01*
X112835000Y-51237500D01*
X112846418Y-51180097D01*
X112878934Y-51131434D01*
X112927597Y-51098918D01*
X112985000Y-51087500D01*
X113285000Y-51087500D01*
X113342403Y-51098918D01*
G37*
G36*
X114612403Y-51098918D02*
G01*
X114661066Y-51131434D01*
X114693582Y-51180097D01*
X114705000Y-51237500D01*
X114705000Y-52987500D01*
X114693582Y-53044903D01*
X114661066Y-53093566D01*
X114612403Y-53126082D01*
X114555000Y-53137500D01*
X114255000Y-53137500D01*
X114197597Y-53126082D01*
X114148934Y-53093566D01*
X114116418Y-53044903D01*
X114105000Y-52987500D01*
X114105000Y-51237500D01*
X114116418Y-51180097D01*
X114148934Y-51131434D01*
X114197597Y-51098918D01*
X114255000Y-51087500D01*
X114555000Y-51087500D01*
X114612403Y-51098918D01*
G37*
G36*
X115882403Y-51098918D02*
G01*
X115931066Y-51131434D01*
X115963582Y-51180097D01*
X115975000Y-51237500D01*
X115975000Y-52987500D01*
X115963582Y-53044903D01*
X115931066Y-53093566D01*
X115882403Y-53126082D01*
X115825000Y-53137500D01*
X115525000Y-53137500D01*
X115467597Y-53126082D01*
X115418934Y-53093566D01*
X115386418Y-53044903D01*
X115375000Y-52987500D01*
X115375000Y-51237500D01*
X115386418Y-51180097D01*
X115418934Y-51131434D01*
X115467597Y-51098918D01*
X115525000Y-51087500D01*
X115825000Y-51087500D01*
X115882403Y-51098918D01*
G37*
G36*
X117152403Y-51098918D02*
G01*
X117201066Y-51131434D01*
X117233582Y-51180097D01*
X117245000Y-51237500D01*
X117245000Y-52987500D01*
X117233582Y-53044903D01*
X117201066Y-53093566D01*
X117152403Y-53126082D01*
X117095000Y-53137500D01*
X116795000Y-53137500D01*
X116737597Y-53126082D01*
X116688934Y-53093566D01*
X116656418Y-53044903D01*
X116645000Y-52987500D01*
X116645000Y-51237500D01*
X116656418Y-51180097D01*
X116688934Y-51131434D01*
X116737597Y-51098918D01*
X116795000Y-51087500D01*
X117095000Y-51087500D01*
X117152403Y-51098918D01*
G37*
G36*
X118422403Y-51098918D02*
G01*
X118471066Y-51131434D01*
X118503582Y-51180097D01*
X118515000Y-51237500D01*
X118515000Y-52987500D01*
X118503582Y-53044903D01*
X118471066Y-53093566D01*
X118422403Y-53126082D01*
X118365000Y-53137500D01*
X118065000Y-53137500D01*
X118007597Y-53126082D01*
X117958934Y-53093566D01*
X117926418Y-53044903D01*
X117915000Y-52987500D01*
X117915000Y-51237500D01*
X117926418Y-51180097D01*
X117958934Y-51131434D01*
X118007597Y-51098918D01*
X118065000Y-51087500D01*
X118365000Y-51087500D01*
X118422403Y-51098918D01*
G37*
G36*
X119692403Y-51098918D02*
G01*
X119741066Y-51131434D01*
X119773582Y-51180097D01*
X119785000Y-51237500D01*
X119785000Y-52987500D01*
X119773582Y-53044903D01*
X119741066Y-53093566D01*
X119692403Y-53126082D01*
X119635000Y-53137500D01*
X119335000Y-53137500D01*
X119277597Y-53126082D01*
X119228934Y-53093566D01*
X119196418Y-53044903D01*
X119185000Y-52987500D01*
X119185000Y-51237500D01*
X119196418Y-51180097D01*
X119228934Y-51131434D01*
X119277597Y-51098918D01*
X119335000Y-51087500D01*
X119635000Y-51087500D01*
X119692403Y-51098918D01*
G37*
G36*
X62000000Y-52750000D02*
G01*
X60000000Y-52750000D01*
X60000000Y-52250000D01*
X62000000Y-52250000D01*
X62000000Y-52750000D01*
G37*
G36*
X65300000Y-52750000D02*
G01*
X63300000Y-52750000D01*
X63300000Y-52250000D01*
X65300000Y-52250000D01*
X65300000Y-52750000D01*
G37*
G36*
X82550000Y-52500000D02*
G01*
X80050000Y-52500000D01*
X80050000Y-51500000D01*
X82550000Y-51500000D01*
X82550000Y-52500000D01*
G37*
G36*
X97750000Y-52500000D02*
G01*
X95250000Y-52500000D01*
X95250000Y-51500000D01*
X97750000Y-51500000D01*
X97750000Y-52500000D01*
G37*
G36*
X150900000Y-51500000D02*
G01*
X148900000Y-51500000D01*
X148900000Y-49500000D01*
X150900000Y-49500000D01*
X150900000Y-51500000D01*
G37*
G36*
X145190285Y-49543060D02*
G01*
X145371397Y-49618079D01*
X145534393Y-49726990D01*
X145673010Y-49865607D01*
X145781921Y-50028603D01*
X145856940Y-50209715D01*
X145895185Y-50401983D01*
X145895185Y-50598017D01*
X145856940Y-50790285D01*
X145781921Y-50971397D01*
X145673010Y-51134393D01*
X145534393Y-51273010D01*
X145371397Y-51381921D01*
X145190285Y-51456940D01*
X144998017Y-51495185D01*
X144801983Y-51495185D01*
X144609715Y-51456940D01*
X144428603Y-51381921D01*
X144265607Y-51273010D01*
X144126990Y-51134393D01*
X144018079Y-50971397D01*
X143943060Y-50790285D01*
X143904815Y-50598017D01*
X143904815Y-50401983D01*
X143943060Y-50209715D01*
X144018079Y-50028603D01*
X144126990Y-49865607D01*
X144265607Y-49726990D01*
X144428603Y-49618079D01*
X144609715Y-49543060D01*
X144801983Y-49504815D01*
X144998017Y-49504815D01*
X145190285Y-49543060D01*
G37*
G36*
X147690285Y-49543060D02*
G01*
X147871397Y-49618079D01*
X148034393Y-49726990D01*
X148173010Y-49865607D01*
X148281921Y-50028603D01*
X148356940Y-50209715D01*
X148395185Y-50401983D01*
X148395185Y-50598017D01*
X148356940Y-50790285D01*
X148281921Y-50971397D01*
X148173010Y-51134393D01*
X148034393Y-51273010D01*
X147871397Y-51381921D01*
X147690285Y-51456940D01*
X147498017Y-51495185D01*
X147301983Y-51495185D01*
X147109715Y-51456940D01*
X146928603Y-51381921D01*
X146765607Y-51273010D01*
X146626990Y-51134393D01*
X146518079Y-50971397D01*
X146443060Y-50790285D01*
X146404815Y-50598017D01*
X146404815Y-50401983D01*
X146443060Y-50209715D01*
X146518079Y-50028603D01*
X146626990Y-49865607D01*
X146765607Y-49726990D01*
X146928603Y-49618079D01*
X147109715Y-49543060D01*
X147301983Y-49504815D01*
X147498017Y-49504815D01*
X147690285Y-49543060D01*
G37*
G36*
X100379850Y-50150964D02*
G01*
X100430040Y-50156787D01*
X100447189Y-50164359D01*
X100470671Y-50169030D01*
X100495810Y-50185827D01*
X100515696Y-50194608D01*
X100529277Y-50208189D01*
X100551777Y-50223223D01*
X100566810Y-50245722D01*
X100580391Y-50259303D01*
X100589170Y-50279186D01*
X100605970Y-50304329D01*
X100610641Y-50327812D01*
X100618212Y-50344959D01*
X100624033Y-50395139D01*
X100625000Y-50400000D01*
X100625000Y-51200000D01*
X100624032Y-51204863D01*
X100618212Y-51255040D01*
X100610641Y-51272185D01*
X100605970Y-51295671D01*
X100589169Y-51320815D01*
X100580391Y-51340696D01*
X100566812Y-51354274D01*
X100551777Y-51376777D01*
X100529274Y-51391812D01*
X100515696Y-51405391D01*
X100495815Y-51414169D01*
X100470671Y-51430970D01*
X100447185Y-51435641D01*
X100430040Y-51443212D01*
X100379861Y-51449032D01*
X100375000Y-51450000D01*
X99125000Y-51450000D01*
X99120138Y-51449032D01*
X99069959Y-51443212D01*
X99052812Y-51435641D01*
X99029329Y-51430970D01*
X99004186Y-51414170D01*
X98984303Y-51405391D01*
X98970722Y-51391810D01*
X98948223Y-51376777D01*
X98933189Y-51354277D01*
X98919608Y-51340696D01*
X98910827Y-51320810D01*
X98894030Y-51295671D01*
X98889359Y-51272189D01*
X98881787Y-51255040D01*
X98875964Y-51204849D01*
X98875000Y-51200000D01*
X98875000Y-50400000D01*
X98875964Y-50395150D01*
X98881787Y-50344959D01*
X98889359Y-50327808D01*
X98894030Y-50304329D01*
X98910826Y-50279191D01*
X98919608Y-50259303D01*
X98933191Y-50245719D01*
X98948223Y-50223223D01*
X98970719Y-50208191D01*
X98984303Y-50194608D01*
X99004191Y-50185826D01*
X99029329Y-50169030D01*
X99052808Y-50164359D01*
X99069959Y-50156787D01*
X99120151Y-50150964D01*
X99125000Y-50150000D01*
X100375000Y-50150000D01*
X100379850Y-50150964D01*
G37*
G36*
X82550000Y-50500000D02*
G01*
X80050000Y-50500000D01*
X80050000Y-49500000D01*
X82550000Y-49500000D01*
X82550000Y-50500000D01*
G37*
G36*
X97750000Y-50500000D02*
G01*
X95250000Y-50500000D01*
X95250000Y-49500000D01*
X97750000Y-49500000D01*
X97750000Y-50500000D01*
G37*
G36*
X57367714Y-48292295D02*
G01*
X57503548Y-48348559D01*
X57625795Y-48430242D01*
X57729758Y-48534205D01*
X57811441Y-48656452D01*
X57867705Y-48792286D01*
X57896389Y-48936487D01*
X57896389Y-49083513D01*
X57867705Y-49227714D01*
X57811441Y-49363548D01*
X57729758Y-49485795D01*
X57625795Y-49589758D01*
X57503548Y-49671441D01*
X57367714Y-49727705D01*
X57223513Y-49756389D01*
X57076487Y-49756389D01*
X56932286Y-49727705D01*
X56796452Y-49671441D01*
X56674205Y-49589758D01*
X56570242Y-49485795D01*
X56488559Y-49363548D01*
X56432295Y-49227714D01*
X56403611Y-49083513D01*
X56403611Y-48936487D01*
X56432295Y-48792286D01*
X56488559Y-48656452D01*
X56570242Y-48534205D01*
X56674205Y-48430242D01*
X56796452Y-48348559D01*
X56932286Y-48292295D01*
X57076487Y-48263611D01*
X57223513Y-48263611D01*
X57367714Y-48292295D01*
G37*
G36*
X59907714Y-48292295D02*
G01*
X60043548Y-48348559D01*
X60165795Y-48430242D01*
X60269758Y-48534205D01*
X60351441Y-48656452D01*
X60407705Y-48792286D01*
X60436389Y-48936487D01*
X60436389Y-49083513D01*
X60407705Y-49227714D01*
X60351441Y-49363548D01*
X60269758Y-49485795D01*
X60165795Y-49589758D01*
X60043548Y-49671441D01*
X59907714Y-49727705D01*
X59763513Y-49756389D01*
X59616487Y-49756389D01*
X59472286Y-49727705D01*
X59336452Y-49671441D01*
X59214205Y-49589758D01*
X59110242Y-49485795D01*
X59028559Y-49363548D01*
X58972295Y-49227714D01*
X58943611Y-49083513D01*
X58943611Y-48936487D01*
X58972295Y-48792286D01*
X59028559Y-48656452D01*
X59110242Y-48534205D01*
X59214205Y-48430242D01*
X59336452Y-48348559D01*
X59472286Y-48292295D01*
X59616487Y-48263611D01*
X59763513Y-48263611D01*
X59907714Y-48292295D01*
G37*
G36*
X62447714Y-48292295D02*
G01*
X62583548Y-48348559D01*
X62705795Y-48430242D01*
X62809758Y-48534205D01*
X62891441Y-48656452D01*
X62947705Y-48792286D01*
X62976389Y-48936487D01*
X62976389Y-49083513D01*
X62947705Y-49227714D01*
X62891441Y-49363548D01*
X62809758Y-49485795D01*
X62705795Y-49589758D01*
X62583548Y-49671441D01*
X62447714Y-49727705D01*
X62303513Y-49756389D01*
X62156487Y-49756389D01*
X62012286Y-49727705D01*
X61876452Y-49671441D01*
X61754205Y-49589758D01*
X61650242Y-49485795D01*
X61568559Y-49363548D01*
X61512295Y-49227714D01*
X61483611Y-49083513D01*
X61483611Y-48936487D01*
X61512295Y-48792286D01*
X61568559Y-48656452D01*
X61650242Y-48534205D01*
X61754205Y-48430242D01*
X61876452Y-48348559D01*
X62012286Y-48292295D01*
X62156487Y-48263611D01*
X62303513Y-48263611D01*
X62447714Y-48292295D01*
G37*
G36*
X64987714Y-48292295D02*
G01*
X65123548Y-48348559D01*
X65245795Y-48430242D01*
X65349758Y-48534205D01*
X65431441Y-48656452D01*
X65487705Y-48792286D01*
X65516389Y-48936487D01*
X65516389Y-49083513D01*
X65487705Y-49227714D01*
X65431441Y-49363548D01*
X65349758Y-49485795D01*
X65245795Y-49589758D01*
X65123548Y-49671441D01*
X64987714Y-49727705D01*
X64843513Y-49756389D01*
X64696487Y-49756389D01*
X64552286Y-49727705D01*
X64416452Y-49671441D01*
X64294205Y-49589758D01*
X64190242Y-49485795D01*
X64108559Y-49363548D01*
X64052295Y-49227714D01*
X64023611Y-49083513D01*
X64023611Y-48936487D01*
X64052295Y-48792286D01*
X64108559Y-48656452D01*
X64190242Y-48534205D01*
X64294205Y-48430242D01*
X64416452Y-48348559D01*
X64552286Y-48292295D01*
X64696487Y-48263611D01*
X64843513Y-48263611D01*
X64987714Y-48292295D01*
G37*
G36*
X67527714Y-48292295D02*
G01*
X67663548Y-48348559D01*
X67785795Y-48430242D01*
X67889758Y-48534205D01*
X67971441Y-48656452D01*
X68027705Y-48792286D01*
X68056389Y-48936487D01*
X68056389Y-49083513D01*
X68027705Y-49227714D01*
X67971441Y-49363548D01*
X67889758Y-49485795D01*
X67785795Y-49589758D01*
X67663548Y-49671441D01*
X67527714Y-49727705D01*
X67383513Y-49756389D01*
X67236487Y-49756389D01*
X67092286Y-49727705D01*
X66956452Y-49671441D01*
X66834205Y-49589758D01*
X66730242Y-49485795D01*
X66648559Y-49363548D01*
X66592295Y-49227714D01*
X66563611Y-49083513D01*
X66563611Y-48936487D01*
X66592295Y-48792286D01*
X66648559Y-48656452D01*
X66730242Y-48534205D01*
X66834205Y-48430242D01*
X66956452Y-48348559D01*
X67092286Y-48292295D01*
X67236487Y-48263611D01*
X67383513Y-48263611D01*
X67527714Y-48292295D01*
G37*
G36*
X70067714Y-48292295D02*
G01*
X70203548Y-48348559D01*
X70325795Y-48430242D01*
X70429758Y-48534205D01*
X70511441Y-48656452D01*
X70567705Y-48792286D01*
X70596389Y-48936487D01*
X70596389Y-49083513D01*
X70567705Y-49227714D01*
X70511441Y-49363548D01*
X70429758Y-49485795D01*
X70325795Y-49589758D01*
X70203548Y-49671441D01*
X70067714Y-49727705D01*
X69923513Y-49756389D01*
X69776487Y-49756389D01*
X69632286Y-49727705D01*
X69496452Y-49671441D01*
X69374205Y-49589758D01*
X69270242Y-49485795D01*
X69188559Y-49363548D01*
X69132295Y-49227714D01*
X69103611Y-49083513D01*
X69103611Y-48936487D01*
X69132295Y-48792286D01*
X69188559Y-48656452D01*
X69270242Y-48534205D01*
X69374205Y-48430242D01*
X69496452Y-48348559D01*
X69632286Y-48292295D01*
X69776487Y-48263611D01*
X69923513Y-48263611D01*
X70067714Y-48292295D01*
G37*
G36*
X108217714Y-48292295D02*
G01*
X108353548Y-48348559D01*
X108475795Y-48430242D01*
X108579758Y-48534205D01*
X108661441Y-48656452D01*
X108717705Y-48792286D01*
X108746389Y-48936487D01*
X108746389Y-49083513D01*
X108717705Y-49227714D01*
X108661441Y-49363548D01*
X108579758Y-49485795D01*
X108475795Y-49589758D01*
X108353548Y-49671441D01*
X108217714Y-49727705D01*
X108073513Y-49756389D01*
X107926487Y-49756389D01*
X107782286Y-49727705D01*
X107646452Y-49671441D01*
X107524205Y-49589758D01*
X107420242Y-49485795D01*
X107338559Y-49363548D01*
X107282295Y-49227714D01*
X107253611Y-49083513D01*
X107253611Y-48936487D01*
X107282295Y-48792286D01*
X107338559Y-48656452D01*
X107420242Y-48534205D01*
X107524205Y-48430242D01*
X107646452Y-48348559D01*
X107782286Y-48292295D01*
X107926487Y-48263611D01*
X108073513Y-48263611D01*
X108217714Y-48292295D01*
G37*
G36*
X110757714Y-48292295D02*
G01*
X110893548Y-48348559D01*
X111015795Y-48430242D01*
X111119758Y-48534205D01*
X111201441Y-48656452D01*
X111257705Y-48792286D01*
X111286389Y-48936487D01*
X111286389Y-49083513D01*
X111257705Y-49227714D01*
X111201441Y-49363548D01*
X111119758Y-49485795D01*
X111015795Y-49589758D01*
X110893548Y-49671441D01*
X110757714Y-49727705D01*
X110613513Y-49756389D01*
X110466487Y-49756389D01*
X110322286Y-49727705D01*
X110186452Y-49671441D01*
X110064205Y-49589758D01*
X109960242Y-49485795D01*
X109878559Y-49363548D01*
X109822295Y-49227714D01*
X109793611Y-49083513D01*
X109793611Y-48936487D01*
X109822295Y-48792286D01*
X109878559Y-48656452D01*
X109960242Y-48534205D01*
X110064205Y-48430242D01*
X110186452Y-48348559D01*
X110322286Y-48292295D01*
X110466487Y-48263611D01*
X110613513Y-48263611D01*
X110757714Y-48292295D01*
G37*
G36*
X113297714Y-48292295D02*
G01*
X113433548Y-48348559D01*
X113555795Y-48430242D01*
X113659758Y-48534205D01*
X113741441Y-48656452D01*
X113797705Y-48792286D01*
X113826389Y-48936487D01*
X113826389Y-49083513D01*
X113797705Y-49227714D01*
X113741441Y-49363548D01*
X113659758Y-49485795D01*
X113555795Y-49589758D01*
X113433548Y-49671441D01*
X113297714Y-49727705D01*
X113153513Y-49756389D01*
X113006487Y-49756389D01*
X112862286Y-49727705D01*
X112726452Y-49671441D01*
X112604205Y-49589758D01*
X112500242Y-49485795D01*
X112418559Y-49363548D01*
X112362295Y-49227714D01*
X112333611Y-49083513D01*
X112333611Y-48936487D01*
X112362295Y-48792286D01*
X112418559Y-48656452D01*
X112500242Y-48534205D01*
X112604205Y-48430242D01*
X112726452Y-48348559D01*
X112862286Y-48292295D01*
X113006487Y-48263611D01*
X113153513Y-48263611D01*
X113297714Y-48292295D01*
G37*
G36*
X115837714Y-48292295D02*
G01*
X115973548Y-48348559D01*
X116095795Y-48430242D01*
X116199758Y-48534205D01*
X116281441Y-48656452D01*
X116337705Y-48792286D01*
X116366389Y-48936487D01*
X116366389Y-49083513D01*
X116337705Y-49227714D01*
X116281441Y-49363548D01*
X116199758Y-49485795D01*
X116095795Y-49589758D01*
X115973548Y-49671441D01*
X115837714Y-49727705D01*
X115693513Y-49756389D01*
X115546487Y-49756389D01*
X115402286Y-49727705D01*
X115266452Y-49671441D01*
X115144205Y-49589758D01*
X115040242Y-49485795D01*
X114958559Y-49363548D01*
X114902295Y-49227714D01*
X114873611Y-49083513D01*
X114873611Y-48936487D01*
X114902295Y-48792286D01*
X114958559Y-48656452D01*
X115040242Y-48534205D01*
X115144205Y-48430242D01*
X115266452Y-48348559D01*
X115402286Y-48292295D01*
X115546487Y-48263611D01*
X115693513Y-48263611D01*
X115837714Y-48292295D01*
G37*
G36*
X118377714Y-48292295D02*
G01*
X118513548Y-48348559D01*
X118635795Y-48430242D01*
X118739758Y-48534205D01*
X118821441Y-48656452D01*
X118877705Y-48792286D01*
X118906389Y-48936487D01*
X118906389Y-49083513D01*
X118877705Y-49227714D01*
X118821441Y-49363548D01*
X118739758Y-49485795D01*
X118635795Y-49589758D01*
X118513548Y-49671441D01*
X118377714Y-49727705D01*
X118233513Y-49756389D01*
X118086487Y-49756389D01*
X117942286Y-49727705D01*
X117806452Y-49671441D01*
X117684205Y-49589758D01*
X117580242Y-49485795D01*
X117498559Y-49363548D01*
X117442295Y-49227714D01*
X117413611Y-49083513D01*
X117413611Y-48936487D01*
X117442295Y-48792286D01*
X117498559Y-48656452D01*
X117580242Y-48534205D01*
X117684205Y-48430242D01*
X117806452Y-48348559D01*
X117942286Y-48292295D01*
X118086487Y-48263611D01*
X118233513Y-48263611D01*
X118377714Y-48292295D01*
G37*
G36*
X120917714Y-48292295D02*
G01*
X121053548Y-48348559D01*
X121175795Y-48430242D01*
X121279758Y-48534205D01*
X121361441Y-48656452D01*
X121417705Y-48792286D01*
X121446389Y-48936487D01*
X121446389Y-49083513D01*
X121417705Y-49227714D01*
X121361441Y-49363548D01*
X121279758Y-49485795D01*
X121175795Y-49589758D01*
X121053548Y-49671441D01*
X120917714Y-49727705D01*
X120773513Y-49756389D01*
X120626487Y-49756389D01*
X120482286Y-49727705D01*
X120346452Y-49671441D01*
X120224205Y-49589758D01*
X120120242Y-49485795D01*
X120038559Y-49363548D01*
X119982295Y-49227714D01*
X119953611Y-49083513D01*
X119953611Y-48936487D01*
X119982295Y-48792286D01*
X120038559Y-48656452D01*
X120120242Y-48534205D01*
X120224205Y-48430242D01*
X120346452Y-48348559D01*
X120482286Y-48292295D01*
X120626487Y-48263611D01*
X120773513Y-48263611D01*
X120917714Y-48292295D01*
G37*
G36*
X46262403Y-47561418D02*
G01*
X46311066Y-47593934D01*
X46343582Y-47642597D01*
X46355000Y-47700000D01*
X46355000Y-49350000D01*
X46343582Y-49407403D01*
X46311066Y-49456066D01*
X46262403Y-49488582D01*
X46205000Y-49500000D01*
X45905000Y-49500000D01*
X45847597Y-49488582D01*
X45798934Y-49456066D01*
X45766418Y-49407403D01*
X45755000Y-49350000D01*
X45755000Y-47700000D01*
X45766418Y-47642597D01*
X45798934Y-47593934D01*
X45847597Y-47561418D01*
X45905000Y-47550000D01*
X46205000Y-47550000D01*
X46262403Y-47561418D01*
G37*
G36*
X47532403Y-47561418D02*
G01*
X47581066Y-47593934D01*
X47613582Y-47642597D01*
X47625000Y-47700000D01*
X47625000Y-49350000D01*
X47613582Y-49407403D01*
X47581066Y-49456066D01*
X47532403Y-49488582D01*
X47475000Y-49500000D01*
X47175000Y-49500000D01*
X47117597Y-49488582D01*
X47068934Y-49456066D01*
X47036418Y-49407403D01*
X47025000Y-49350000D01*
X47025000Y-47700000D01*
X47036418Y-47642597D01*
X47068934Y-47593934D01*
X47117597Y-47561418D01*
X47175000Y-47550000D01*
X47475000Y-47550000D01*
X47532403Y-47561418D01*
G37*
G36*
X48802403Y-47561418D02*
G01*
X48851066Y-47593934D01*
X48883582Y-47642597D01*
X48895000Y-47700000D01*
X48895000Y-49350000D01*
X48883582Y-49407403D01*
X48851066Y-49456066D01*
X48802403Y-49488582D01*
X48745000Y-49500000D01*
X48445000Y-49500000D01*
X48387597Y-49488582D01*
X48338934Y-49456066D01*
X48306418Y-49407403D01*
X48295000Y-49350000D01*
X48295000Y-47700000D01*
X48306418Y-47642597D01*
X48338934Y-47593934D01*
X48387597Y-47561418D01*
X48445000Y-47550000D01*
X48745000Y-47550000D01*
X48802403Y-47561418D01*
G37*
G36*
X50072403Y-47561418D02*
G01*
X50121066Y-47593934D01*
X50153582Y-47642597D01*
X50165000Y-47700000D01*
X50165000Y-49350000D01*
X50153582Y-49407403D01*
X50121066Y-49456066D01*
X50072403Y-49488582D01*
X50015000Y-49500000D01*
X49715000Y-49500000D01*
X49657597Y-49488582D01*
X49608934Y-49456066D01*
X49576418Y-49407403D01*
X49565000Y-49350000D01*
X49565000Y-47700000D01*
X49576418Y-47642597D01*
X49608934Y-47593934D01*
X49657597Y-47561418D01*
X49715000Y-47550000D01*
X50015000Y-47550000D01*
X50072403Y-47561418D01*
G37*
G36*
X51342403Y-47561418D02*
G01*
X51391066Y-47593934D01*
X51423582Y-47642597D01*
X51435000Y-47700000D01*
X51435000Y-49350000D01*
X51423582Y-49407403D01*
X51391066Y-49456066D01*
X51342403Y-49488582D01*
X51285000Y-49500000D01*
X50985000Y-49500000D01*
X50927597Y-49488582D01*
X50878934Y-49456066D01*
X50846418Y-49407403D01*
X50835000Y-49350000D01*
X50835000Y-47700000D01*
X50846418Y-47642597D01*
X50878934Y-47593934D01*
X50927597Y-47561418D01*
X50985000Y-47550000D01*
X51285000Y-47550000D01*
X51342403Y-47561418D01*
G37*
G36*
X52612403Y-47561418D02*
G01*
X52661066Y-47593934D01*
X52693582Y-47642597D01*
X52705000Y-47700000D01*
X52705000Y-49350000D01*
X52693582Y-49407403D01*
X52661066Y-49456066D01*
X52612403Y-49488582D01*
X52555000Y-49500000D01*
X52255000Y-49500000D01*
X52197597Y-49488582D01*
X52148934Y-49456066D01*
X52116418Y-49407403D01*
X52105000Y-49350000D01*
X52105000Y-47700000D01*
X52116418Y-47642597D01*
X52148934Y-47593934D01*
X52197597Y-47561418D01*
X52255000Y-47550000D01*
X52555000Y-47550000D01*
X52612403Y-47561418D01*
G37*
G36*
X53882403Y-47561418D02*
G01*
X53931066Y-47593934D01*
X53963582Y-47642597D01*
X53975000Y-47700000D01*
X53975000Y-49350000D01*
X53963582Y-49407403D01*
X53931066Y-49456066D01*
X53882403Y-49488582D01*
X53825000Y-49500000D01*
X53525000Y-49500000D01*
X53467597Y-49488582D01*
X53418934Y-49456066D01*
X53386418Y-49407403D01*
X53375000Y-49350000D01*
X53375000Y-47700000D01*
X53386418Y-47642597D01*
X53418934Y-47593934D01*
X53467597Y-47561418D01*
X53525000Y-47550000D01*
X53825000Y-47550000D01*
X53882403Y-47561418D01*
G37*
G36*
X55152403Y-47561418D02*
G01*
X55201066Y-47593934D01*
X55233582Y-47642597D01*
X55245000Y-47700000D01*
X55245000Y-49350000D01*
X55233582Y-49407403D01*
X55201066Y-49456066D01*
X55152403Y-49488582D01*
X55095000Y-49500000D01*
X54795000Y-49500000D01*
X54737597Y-49488582D01*
X54688934Y-49456066D01*
X54656418Y-49407403D01*
X54645000Y-49350000D01*
X54645000Y-47700000D01*
X54656418Y-47642597D01*
X54688934Y-47593934D01*
X54737597Y-47561418D01*
X54795000Y-47550000D01*
X55095000Y-47550000D01*
X55152403Y-47561418D01*
G37*
G36*
X82550000Y-48500000D02*
G01*
X80050000Y-48500000D01*
X80050000Y-47500000D01*
X82550000Y-47500000D01*
X82550000Y-48500000D01*
G37*
G36*
X97750000Y-48500000D02*
G01*
X95250000Y-48500000D01*
X95250000Y-47500000D01*
X97750000Y-47500000D01*
X97750000Y-48500000D01*
G37*
G36*
X100379850Y-47050964D02*
G01*
X100430040Y-47056787D01*
X100447189Y-47064359D01*
X100470671Y-47069030D01*
X100495810Y-47085827D01*
X100515696Y-47094608D01*
X100529277Y-47108189D01*
X100551777Y-47123223D01*
X100566810Y-47145722D01*
X100580391Y-47159303D01*
X100589170Y-47179186D01*
X100605970Y-47204329D01*
X100610641Y-47227812D01*
X100618212Y-47244959D01*
X100624033Y-47295139D01*
X100625000Y-47300000D01*
X100625000Y-48100000D01*
X100624032Y-48104863D01*
X100618212Y-48155040D01*
X100610641Y-48172185D01*
X100605970Y-48195671D01*
X100589169Y-48220815D01*
X100580391Y-48240696D01*
X100566812Y-48254274D01*
X100551777Y-48276777D01*
X100529274Y-48291812D01*
X100515696Y-48305391D01*
X100495815Y-48314169D01*
X100470671Y-48330970D01*
X100447185Y-48335641D01*
X100430040Y-48343212D01*
X100379861Y-48349032D01*
X100375000Y-48350000D01*
X99125000Y-48350000D01*
X99120138Y-48349032D01*
X99069959Y-48343212D01*
X99052812Y-48335641D01*
X99029329Y-48330970D01*
X99004186Y-48314170D01*
X98984303Y-48305391D01*
X98970722Y-48291810D01*
X98948223Y-48276777D01*
X98933189Y-48254277D01*
X98919608Y-48240696D01*
X98910827Y-48220810D01*
X98894030Y-48195671D01*
X98889359Y-48172189D01*
X98881787Y-48155040D01*
X98875964Y-48104849D01*
X98875000Y-48100000D01*
X98875000Y-47300000D01*
X98875964Y-47295150D01*
X98881787Y-47244959D01*
X98889359Y-47227808D01*
X98894030Y-47204329D01*
X98910826Y-47179191D01*
X98919608Y-47159303D01*
X98933191Y-47145719D01*
X98948223Y-47123223D01*
X98970719Y-47108191D01*
X98984303Y-47094608D01*
X99004191Y-47085826D01*
X99029329Y-47069030D01*
X99052808Y-47064359D01*
X99069959Y-47056787D01*
X99120151Y-47050964D01*
X99125000Y-47050000D01*
X100375000Y-47050000D01*
X100379850Y-47050964D01*
G37*
G36*
X105854850Y-45625964D02*
G01*
X105905040Y-45631787D01*
X105922189Y-45639359D01*
X105945671Y-45644030D01*
X105970810Y-45660827D01*
X105990696Y-45669608D01*
X106004277Y-45683189D01*
X106026777Y-45698223D01*
X106041810Y-45720722D01*
X106055391Y-45734303D01*
X106064170Y-45754186D01*
X106080970Y-45779329D01*
X106085641Y-45802812D01*
X106093212Y-45819959D01*
X106099033Y-45870139D01*
X106100000Y-45875000D01*
X106100000Y-47125000D01*
X106099032Y-47129863D01*
X106093212Y-47180040D01*
X106085641Y-47197185D01*
X106080970Y-47220671D01*
X106064169Y-47245815D01*
X106055391Y-47265696D01*
X106041812Y-47279274D01*
X106026777Y-47301777D01*
X106004274Y-47316812D01*
X105990696Y-47330391D01*
X105970815Y-47339169D01*
X105945671Y-47355970D01*
X105922185Y-47360641D01*
X105905040Y-47368212D01*
X105854861Y-47374032D01*
X105850000Y-47375000D01*
X105050000Y-47375000D01*
X105045138Y-47374032D01*
X104994959Y-47368212D01*
X104977812Y-47360641D01*
X104954329Y-47355970D01*
X104929186Y-47339170D01*
X104909303Y-47330391D01*
X104895722Y-47316810D01*
X104873223Y-47301777D01*
X104858189Y-47279277D01*
X104844608Y-47265696D01*
X104835827Y-47245810D01*
X104819030Y-47220671D01*
X104814359Y-47197189D01*
X104806787Y-47180040D01*
X104800964Y-47129849D01*
X104800000Y-47125000D01*
X104800000Y-45875000D01*
X104800964Y-45870150D01*
X104806787Y-45819959D01*
X104814359Y-45802808D01*
X104819030Y-45779329D01*
X104835826Y-45754191D01*
X104844608Y-45734303D01*
X104858191Y-45720719D01*
X104873223Y-45698223D01*
X104895719Y-45683191D01*
X104909303Y-45669608D01*
X104929191Y-45660826D01*
X104954329Y-45644030D01*
X104977808Y-45639359D01*
X104994959Y-45631787D01*
X105045151Y-45625964D01*
X105050000Y-45625000D01*
X105850000Y-45625000D01*
X105854850Y-45625964D01*
G37*
G36*
X108954850Y-45625964D02*
G01*
X109005040Y-45631787D01*
X109022189Y-45639359D01*
X109045671Y-45644030D01*
X109070810Y-45660827D01*
X109090696Y-45669608D01*
X109104277Y-45683189D01*
X109126777Y-45698223D01*
X109141810Y-45720722D01*
X109155391Y-45734303D01*
X109164170Y-45754186D01*
X109180970Y-45779329D01*
X109185641Y-45802812D01*
X109193212Y-45819959D01*
X109199033Y-45870139D01*
X109200000Y-45875000D01*
X109200000Y-47125000D01*
X109199032Y-47129863D01*
X109193212Y-47180040D01*
X109185641Y-47197185D01*
X109180970Y-47220671D01*
X109164169Y-47245815D01*
X109155391Y-47265696D01*
X109141812Y-47279274D01*
X109126777Y-47301777D01*
X109104274Y-47316812D01*
X109090696Y-47330391D01*
X109070815Y-47339169D01*
X109045671Y-47355970D01*
X109022185Y-47360641D01*
X109005040Y-47368212D01*
X108954861Y-47374032D01*
X108950000Y-47375000D01*
X108150000Y-47375000D01*
X108145138Y-47374032D01*
X108094959Y-47368212D01*
X108077812Y-47360641D01*
X108054329Y-47355970D01*
X108029186Y-47339170D01*
X108009303Y-47330391D01*
X107995722Y-47316810D01*
X107973223Y-47301777D01*
X107958189Y-47279277D01*
X107944608Y-47265696D01*
X107935827Y-47245810D01*
X107919030Y-47220671D01*
X107914359Y-47197189D01*
X107906787Y-47180040D01*
X107900964Y-47129849D01*
X107900000Y-47125000D01*
X107900000Y-45875000D01*
X107900964Y-45870150D01*
X107906787Y-45819959D01*
X107914359Y-45802808D01*
X107919030Y-45779329D01*
X107935826Y-45754191D01*
X107944608Y-45734303D01*
X107958191Y-45720719D01*
X107973223Y-45698223D01*
X107995719Y-45683191D01*
X108009303Y-45669608D01*
X108029191Y-45660826D01*
X108054329Y-45644030D01*
X108077808Y-45639359D01*
X108094959Y-45631787D01*
X108145151Y-45625964D01*
X108150000Y-45625000D01*
X108950000Y-45625000D01*
X108954850Y-45625964D01*
G37*
G36*
X138516422Y-44753587D02*
G01*
X138657689Y-44812101D01*
X138784827Y-44897052D01*
X138892948Y-45005173D01*
X138977899Y-45132311D01*
X139036413Y-45273578D01*
X139066244Y-45423547D01*
X139066244Y-45576453D01*
X139036413Y-45726422D01*
X138977899Y-45867689D01*
X138892948Y-45994827D01*
X138784827Y-46102948D01*
X138657689Y-46187899D01*
X138516422Y-46246413D01*
X138366453Y-46276244D01*
X138213547Y-46276244D01*
X138063578Y-46246413D01*
X137922311Y-46187899D01*
X137795173Y-46102948D01*
X137687052Y-45994827D01*
X137602101Y-45867689D01*
X137543587Y-45726422D01*
X137513756Y-45576453D01*
X137513756Y-45423547D01*
X137543587Y-45273578D01*
X137602101Y-45132311D01*
X137687052Y-45005173D01*
X137795173Y-44897052D01*
X137922311Y-44812101D01*
X138063578Y-44753587D01*
X138213547Y-44723756D01*
X138366453Y-44723756D01*
X138516422Y-44753587D01*
G37*
G36*
X40040285Y-44293060D02*
G01*
X40221397Y-44368079D01*
X40384393Y-44476990D01*
X40523010Y-44615607D01*
X40631921Y-44778603D01*
X40706940Y-44959715D01*
X40745185Y-45151983D01*
X40745185Y-45348017D01*
X40706940Y-45540285D01*
X40631921Y-45721397D01*
X40523010Y-45884393D01*
X40384393Y-46023010D01*
X40221397Y-46131921D01*
X40040285Y-46206940D01*
X39848017Y-46245185D01*
X39651983Y-46245185D01*
X39459715Y-46206940D01*
X39278603Y-46131921D01*
X39115607Y-46023010D01*
X38976990Y-45884393D01*
X38868079Y-45721397D01*
X38793060Y-45540285D01*
X38754815Y-45348017D01*
X38754815Y-45151983D01*
X38793060Y-44959715D01*
X38868079Y-44778603D01*
X38976990Y-44615607D01*
X39115607Y-44476990D01*
X39278603Y-44368079D01*
X39459715Y-44293060D01*
X39651983Y-44254815D01*
X39848017Y-44254815D01*
X40040285Y-44293060D01*
G37*
G36*
X46540285Y-44293060D02*
G01*
X46721397Y-44368079D01*
X46884393Y-44476990D01*
X47023010Y-44615607D01*
X47131921Y-44778603D01*
X47206940Y-44959715D01*
X47245185Y-45151983D01*
X47245185Y-45348017D01*
X47206940Y-45540285D01*
X47131921Y-45721397D01*
X47023010Y-45884393D01*
X46884393Y-46023010D01*
X46721397Y-46131921D01*
X46540285Y-46206940D01*
X46348017Y-46245185D01*
X46151983Y-46245185D01*
X45959715Y-46206940D01*
X45778603Y-46131921D01*
X45615607Y-46023010D01*
X45476990Y-45884393D01*
X45368079Y-45721397D01*
X45293060Y-45540285D01*
X45254815Y-45348017D01*
X45254815Y-45151983D01*
X45293060Y-44959715D01*
X45368079Y-44778603D01*
X45476990Y-44615607D01*
X45615607Y-44476990D01*
X45778603Y-44368079D01*
X45959715Y-44293060D01*
X46151983Y-44254815D01*
X46348017Y-44254815D01*
X46540285Y-44293060D01*
G37*
G36*
X49540285Y-44293060D02*
G01*
X49721397Y-44368079D01*
X49884393Y-44476990D01*
X50023010Y-44615607D01*
X50131921Y-44778603D01*
X50206940Y-44959715D01*
X50245185Y-45151983D01*
X50245185Y-45348017D01*
X50206940Y-45540285D01*
X50131921Y-45721397D01*
X50023010Y-45884393D01*
X49884393Y-46023010D01*
X49721397Y-46131921D01*
X49540285Y-46206940D01*
X49348017Y-46245185D01*
X49151983Y-46245185D01*
X48959715Y-46206940D01*
X48778603Y-46131921D01*
X48615607Y-46023010D01*
X48476990Y-45884393D01*
X48368079Y-45721397D01*
X48293060Y-45540285D01*
X48254815Y-45348017D01*
X48254815Y-45151983D01*
X48293060Y-44959715D01*
X48368079Y-44778603D01*
X48476990Y-44615607D01*
X48615607Y-44476990D01*
X48778603Y-44368079D01*
X48959715Y-44293060D01*
X49151983Y-44254815D01*
X49348017Y-44254815D01*
X49540285Y-44293060D01*
G37*
G36*
X56040285Y-44293060D02*
G01*
X56221397Y-44368079D01*
X56384393Y-44476990D01*
X56523010Y-44615607D01*
X56631921Y-44778603D01*
X56706940Y-44959715D01*
X56745185Y-45151983D01*
X56745185Y-45348017D01*
X56706940Y-45540285D01*
X56631921Y-45721397D01*
X56523010Y-45884393D01*
X56384393Y-46023010D01*
X56221397Y-46131921D01*
X56040285Y-46206940D01*
X55848017Y-46245185D01*
X55651983Y-46245185D01*
X55459715Y-46206940D01*
X55278603Y-46131921D01*
X55115607Y-46023010D01*
X54976990Y-45884393D01*
X54868079Y-45721397D01*
X54793060Y-45540285D01*
X54754815Y-45348017D01*
X54754815Y-45151983D01*
X54793060Y-44959715D01*
X54868079Y-44778603D01*
X54976990Y-44615607D01*
X55115607Y-44476990D01*
X55278603Y-44368079D01*
X55459715Y-44293060D01*
X55651983Y-44254815D01*
X55848017Y-44254815D01*
X56040285Y-44293060D01*
G37*
G36*
X59040285Y-44293060D02*
G01*
X59221397Y-44368079D01*
X59384393Y-44476990D01*
X59523010Y-44615607D01*
X59631921Y-44778603D01*
X59706940Y-44959715D01*
X59745185Y-45151983D01*
X59745185Y-45348017D01*
X59706940Y-45540285D01*
X59631921Y-45721397D01*
X59523010Y-45884393D01*
X59384393Y-46023010D01*
X59221397Y-46131921D01*
X59040285Y-46206940D01*
X58848017Y-46245185D01*
X58651983Y-46245185D01*
X58459715Y-46206940D01*
X58278603Y-46131921D01*
X58115607Y-46023010D01*
X57976990Y-45884393D01*
X57868079Y-45721397D01*
X57793060Y-45540285D01*
X57754815Y-45348017D01*
X57754815Y-45151983D01*
X57793060Y-44959715D01*
X57868079Y-44778603D01*
X57976990Y-44615607D01*
X58115607Y-44476990D01*
X58278603Y-44368079D01*
X58459715Y-44293060D01*
X58651983Y-44254815D01*
X58848017Y-44254815D01*
X59040285Y-44293060D01*
G37*
G36*
X65540285Y-44293060D02*
G01*
X65721397Y-44368079D01*
X65884393Y-44476990D01*
X66023010Y-44615607D01*
X66131921Y-44778603D01*
X66206940Y-44959715D01*
X66245185Y-45151983D01*
X66245185Y-45348017D01*
X66206940Y-45540285D01*
X66131921Y-45721397D01*
X66023010Y-45884393D01*
X65884393Y-46023010D01*
X65721397Y-46131921D01*
X65540285Y-46206940D01*
X65348017Y-46245185D01*
X65151983Y-46245185D01*
X64959715Y-46206940D01*
X64778603Y-46131921D01*
X64615607Y-46023010D01*
X64476990Y-45884393D01*
X64368079Y-45721397D01*
X64293060Y-45540285D01*
X64254815Y-45348017D01*
X64254815Y-45151983D01*
X64293060Y-44959715D01*
X64368079Y-44778603D01*
X64476990Y-44615607D01*
X64615607Y-44476990D01*
X64778603Y-44368079D01*
X64959715Y-44293060D01*
X65151983Y-44254815D01*
X65348017Y-44254815D01*
X65540285Y-44293060D01*
G37*
G36*
X112125000Y-44250000D02*
G01*
X110875000Y-44250000D01*
X110875000Y-43250000D01*
X112125000Y-43250000D01*
X112125000Y-44250000D01*
G37*
G36*
X119875000Y-44250000D02*
G01*
X118625000Y-44250000D01*
X118625000Y-43250000D01*
X119875000Y-43250000D01*
X119875000Y-44250000D01*
G37*
G36*
X135904850Y-42125964D02*
G01*
X135955040Y-42131787D01*
X135972189Y-42139359D01*
X135995671Y-42144030D01*
X136020810Y-42160827D01*
X136040696Y-42169608D01*
X136054277Y-42183189D01*
X136076777Y-42198223D01*
X136091810Y-42220722D01*
X136105391Y-42234303D01*
X136114170Y-42254186D01*
X136130970Y-42279329D01*
X136135641Y-42302812D01*
X136143212Y-42319959D01*
X136149033Y-42370139D01*
X136150000Y-42375000D01*
X136150000Y-43625000D01*
X136149032Y-43629863D01*
X136143212Y-43680040D01*
X136135641Y-43697185D01*
X136130970Y-43720671D01*
X136114169Y-43745815D01*
X136105391Y-43765696D01*
X136091812Y-43779274D01*
X136076777Y-43801777D01*
X136054274Y-43816812D01*
X136040696Y-43830391D01*
X136020815Y-43839169D01*
X135995671Y-43855970D01*
X135972185Y-43860641D01*
X135955040Y-43868212D01*
X135904861Y-43874032D01*
X135900000Y-43875000D01*
X135100000Y-43875000D01*
X135095138Y-43874032D01*
X135044959Y-43868212D01*
X135027812Y-43860641D01*
X135004329Y-43855970D01*
X134979186Y-43839170D01*
X134959303Y-43830391D01*
X134945722Y-43816810D01*
X134923223Y-43801777D01*
X134908189Y-43779277D01*
X134894608Y-43765696D01*
X134885827Y-43745810D01*
X134869030Y-43720671D01*
X134864359Y-43697189D01*
X134856787Y-43680040D01*
X134850964Y-43629849D01*
X134850000Y-43625000D01*
X134850000Y-42375000D01*
X134850964Y-42370150D01*
X134856787Y-42319959D01*
X134864359Y-42302808D01*
X134869030Y-42279329D01*
X134885826Y-42254191D01*
X134894608Y-42234303D01*
X134908191Y-42220719D01*
X134923223Y-42198223D01*
X134945719Y-42183191D01*
X134959303Y-42169608D01*
X134979191Y-42160826D01*
X135004329Y-42144030D01*
X135027808Y-42139359D01*
X135044959Y-42131787D01*
X135095151Y-42125964D01*
X135100000Y-42125000D01*
X135900000Y-42125000D01*
X135904850Y-42125964D01*
G37*
G36*
X139004850Y-42125964D02*
G01*
X139055040Y-42131787D01*
X139072189Y-42139359D01*
X139095671Y-42144030D01*
X139120810Y-42160827D01*
X139140696Y-42169608D01*
X139154277Y-42183189D01*
X139176777Y-42198223D01*
X139191810Y-42220722D01*
X139205391Y-42234303D01*
X139214170Y-42254186D01*
X139230970Y-42279329D01*
X139235641Y-42302812D01*
X139243212Y-42319959D01*
X139249033Y-42370139D01*
X139250000Y-42375000D01*
X139250000Y-43625000D01*
X139249032Y-43629863D01*
X139243212Y-43680040D01*
X139235641Y-43697185D01*
X139230970Y-43720671D01*
X139214169Y-43745815D01*
X139205391Y-43765696D01*
X139191812Y-43779274D01*
X139176777Y-43801777D01*
X139154274Y-43816812D01*
X139140696Y-43830391D01*
X139120815Y-43839169D01*
X139095671Y-43855970D01*
X139072185Y-43860641D01*
X139055040Y-43868212D01*
X139004861Y-43874032D01*
X139000000Y-43875000D01*
X138200000Y-43875000D01*
X138195138Y-43874032D01*
X138144959Y-43868212D01*
X138127812Y-43860641D01*
X138104329Y-43855970D01*
X138079186Y-43839170D01*
X138059303Y-43830391D01*
X138045722Y-43816810D01*
X138023223Y-43801777D01*
X138008189Y-43779277D01*
X137994608Y-43765696D01*
X137985827Y-43745810D01*
X137969030Y-43720671D01*
X137964359Y-43697189D01*
X137956787Y-43680040D01*
X137950964Y-43629849D01*
X137950000Y-43625000D01*
X137950000Y-42375000D01*
X137950964Y-42370150D01*
X137956787Y-42319959D01*
X137964359Y-42302808D01*
X137969030Y-42279329D01*
X137985826Y-42254191D01*
X137994608Y-42234303D01*
X138008191Y-42220719D01*
X138023223Y-42198223D01*
X138045719Y-42183191D01*
X138059303Y-42169608D01*
X138079191Y-42160826D01*
X138104329Y-42144030D01*
X138127808Y-42139359D01*
X138144959Y-42131787D01*
X138195151Y-42125964D01*
X138200000Y-42125000D01*
X139000000Y-42125000D01*
X139004850Y-42125964D01*
G37*
G36*
X133516422Y-42253587D02*
G01*
X133657689Y-42312101D01*
X133784827Y-42397052D01*
X133892948Y-42505173D01*
X133977899Y-42632311D01*
X134036413Y-42773578D01*
X134066244Y-42923547D01*
X134066244Y-43076453D01*
X134036413Y-43226422D01*
X133977899Y-43367689D01*
X133892948Y-43494827D01*
X133784827Y-43602948D01*
X133657689Y-43687899D01*
X133516422Y-43746413D01*
X133366453Y-43776244D01*
X133213547Y-43776244D01*
X133063578Y-43746413D01*
X132922311Y-43687899D01*
X132795173Y-43602948D01*
X132687052Y-43494827D01*
X132602101Y-43367689D01*
X132543587Y-43226422D01*
X132513756Y-43076453D01*
X132513756Y-42923547D01*
X132543587Y-42773578D01*
X132602101Y-42632311D01*
X132687052Y-42505173D01*
X132795173Y-42397052D01*
X132922311Y-42312101D01*
X133063578Y-42253587D01*
X133213547Y-42223756D01*
X133366453Y-42223756D01*
X133516422Y-42253587D01*
G37*
G36*
X40040285Y-39793060D02*
G01*
X40221397Y-39868079D01*
X40384393Y-39976990D01*
X40523010Y-40115607D01*
X40631921Y-40278603D01*
X40706940Y-40459715D01*
X40745185Y-40651983D01*
X40745185Y-40848017D01*
X40706940Y-41040285D01*
X40631921Y-41221397D01*
X40523010Y-41384393D01*
X40384393Y-41523010D01*
X40221397Y-41631921D01*
X40040285Y-41706940D01*
X39848017Y-41745185D01*
X39651983Y-41745185D01*
X39459715Y-41706940D01*
X39278603Y-41631921D01*
X39115607Y-41523010D01*
X38976990Y-41384393D01*
X38868079Y-41221397D01*
X38793060Y-41040285D01*
X38754815Y-40848017D01*
X38754815Y-40651983D01*
X38793060Y-40459715D01*
X38868079Y-40278603D01*
X38976990Y-40115607D01*
X39115607Y-39976990D01*
X39278603Y-39868079D01*
X39459715Y-39793060D01*
X39651983Y-39754815D01*
X39848017Y-39754815D01*
X40040285Y-39793060D01*
G37*
G36*
X46540285Y-39793060D02*
G01*
X46721397Y-39868079D01*
X46884393Y-39976990D01*
X47023010Y-40115607D01*
X47131921Y-40278603D01*
X47206940Y-40459715D01*
X47245185Y-40651983D01*
X47245185Y-40848017D01*
X47206940Y-41040285D01*
X47131921Y-41221397D01*
X47023010Y-41384393D01*
X46884393Y-41523010D01*
X46721397Y-41631921D01*
X46540285Y-41706940D01*
X46348017Y-41745185D01*
X46151983Y-41745185D01*
X45959715Y-41706940D01*
X45778603Y-41631921D01*
X45615607Y-41523010D01*
X45476990Y-41384393D01*
X45368079Y-41221397D01*
X45293060Y-41040285D01*
X45254815Y-40848017D01*
X45254815Y-40651983D01*
X45293060Y-40459715D01*
X45368079Y-40278603D01*
X45476990Y-40115607D01*
X45615607Y-39976990D01*
X45778603Y-39868079D01*
X45959715Y-39793060D01*
X46151983Y-39754815D01*
X46348017Y-39754815D01*
X46540285Y-39793060D01*
G37*
G36*
X49540285Y-39793060D02*
G01*
X49721397Y-39868079D01*
X49884393Y-39976990D01*
X50023010Y-40115607D01*
X50131921Y-40278603D01*
X50206940Y-40459715D01*
X50245185Y-40651983D01*
X50245185Y-40848017D01*
X50206940Y-41040285D01*
X50131921Y-41221397D01*
X50023010Y-41384393D01*
X49884393Y-41523010D01*
X49721397Y-41631921D01*
X49540285Y-41706940D01*
X49348017Y-41745185D01*
X49151983Y-41745185D01*
X48959715Y-41706940D01*
X48778603Y-41631921D01*
X48615607Y-41523010D01*
X48476990Y-41384393D01*
X48368079Y-41221397D01*
X48293060Y-41040285D01*
X48254815Y-40848017D01*
X48254815Y-40651983D01*
X48293060Y-40459715D01*
X48368079Y-40278603D01*
X48476990Y-40115607D01*
X48615607Y-39976990D01*
X48778603Y-39868079D01*
X48959715Y-39793060D01*
X49151983Y-39754815D01*
X49348017Y-39754815D01*
X49540285Y-39793060D01*
G37*
G36*
X56040285Y-39793060D02*
G01*
X56221397Y-39868079D01*
X56384393Y-39976990D01*
X56523010Y-40115607D01*
X56631921Y-40278603D01*
X56706940Y-40459715D01*
X56745185Y-40651983D01*
X56745185Y-40848017D01*
X56706940Y-41040285D01*
X56631921Y-41221397D01*
X56523010Y-41384393D01*
X56384393Y-41523010D01*
X56221397Y-41631921D01*
X56040285Y-41706940D01*
X55848017Y-41745185D01*
X55651983Y-41745185D01*
X55459715Y-41706940D01*
X55278603Y-41631921D01*
X55115607Y-41523010D01*
X54976990Y-41384393D01*
X54868079Y-41221397D01*
X54793060Y-41040285D01*
X54754815Y-40848017D01*
X54754815Y-40651983D01*
X54793060Y-40459715D01*
X54868079Y-40278603D01*
X54976990Y-40115607D01*
X55115607Y-39976990D01*
X55278603Y-39868079D01*
X55459715Y-39793060D01*
X55651983Y-39754815D01*
X55848017Y-39754815D01*
X56040285Y-39793060D01*
G37*
G36*
X59040285Y-39793060D02*
G01*
X59221397Y-39868079D01*
X59384393Y-39976990D01*
X59523010Y-40115607D01*
X59631921Y-40278603D01*
X59706940Y-40459715D01*
X59745185Y-40651983D01*
X59745185Y-40848017D01*
X59706940Y-41040285D01*
X59631921Y-41221397D01*
X59523010Y-41384393D01*
X59384393Y-41523010D01*
X59221397Y-41631921D01*
X59040285Y-41706940D01*
X58848017Y-41745185D01*
X58651983Y-41745185D01*
X58459715Y-41706940D01*
X58278603Y-41631921D01*
X58115607Y-41523010D01*
X57976990Y-41384393D01*
X57868079Y-41221397D01*
X57793060Y-41040285D01*
X57754815Y-40848017D01*
X57754815Y-40651983D01*
X57793060Y-40459715D01*
X57868079Y-40278603D01*
X57976990Y-40115607D01*
X58115607Y-39976990D01*
X58278603Y-39868079D01*
X58459715Y-39793060D01*
X58651983Y-39754815D01*
X58848017Y-39754815D01*
X59040285Y-39793060D01*
G37*
G36*
X65540285Y-39793060D02*
G01*
X65721397Y-39868079D01*
X65884393Y-39976990D01*
X66023010Y-40115607D01*
X66131921Y-40278603D01*
X66206940Y-40459715D01*
X66245185Y-40651983D01*
X66245185Y-40848017D01*
X66206940Y-41040285D01*
X66131921Y-41221397D01*
X66023010Y-41384393D01*
X65884393Y-41523010D01*
X65721397Y-41631921D01*
X65540285Y-41706940D01*
X65348017Y-41745185D01*
X65151983Y-41745185D01*
X64959715Y-41706940D01*
X64778603Y-41631921D01*
X64615607Y-41523010D01*
X64476990Y-41384393D01*
X64368079Y-41221397D01*
X64293060Y-41040285D01*
X64254815Y-40848017D01*
X64254815Y-40651983D01*
X64293060Y-40459715D01*
X64368079Y-40278603D01*
X64476990Y-40115607D01*
X64615607Y-39976990D01*
X64778603Y-39868079D01*
X64959715Y-39793060D01*
X65151983Y-39754815D01*
X65348017Y-39754815D01*
X65540285Y-39793060D01*
G37*
G36*
X139070000Y-41280000D02*
G01*
X137510000Y-41280000D01*
X137510000Y-39720000D01*
X139070000Y-39720000D01*
X139070000Y-41280000D01*
G37*
M02*
