G04 #@! TF.GenerationSoftware,KiCad,Pcbnew,9.0.4*
G04 #@! TF.CreationDate,2026-01-25T17:53:05-05:00*
G04 #@! TF.ProjectId,shiftclock-4.0,73686966-7463-46c6-9f63-6b2d342e302e,rev?*
G04 #@! TF.SameCoordinates,Original*
G04 #@! TF.FileFunction,Soldermask,Bot*
G04 #@! TF.FilePolarity,Negative*
%FSLAX46Y46*%
G04 Gerber Fmt 4.6, Leading zero omitted, Abs format (unit mm)*
G04 Created by KiCad (PCBNEW 9.0.4) date 2026-01-25 17:53:05*
%MOMM*%
%LPD*%
G01*
G04 APERTURE LIST*
G04 APERTURE END LIST*
G36*
X145190285Y-64043060D02*
G01*
X145371397Y-64118079D01*
X145534393Y-64226990D01*
X145673010Y-64365607D01*
X145781921Y-64528603D01*
X145856940Y-64709715D01*
X145895185Y-64901983D01*
X145895185Y-65098017D01*
X145856940Y-65290285D01*
X145781921Y-65471397D01*
X145673010Y-65634393D01*
X145534393Y-65773010D01*
X145371397Y-65881921D01*
X145190285Y-65956940D01*
X144998017Y-65995185D01*
X144801983Y-65995185D01*
X144609715Y-65956940D01*
X144428603Y-65881921D01*
X144265607Y-65773010D01*
X144126990Y-65634393D01*
X144018079Y-65471397D01*
X143943060Y-65290285D01*
X143904815Y-65098017D01*
X143904815Y-64901983D01*
X143943060Y-64709715D01*
X144018079Y-64528603D01*
X144126990Y-64365607D01*
X144265607Y-64226990D01*
X144428603Y-64118079D01*
X144609715Y-64043060D01*
X144801983Y-64004815D01*
X144998017Y-64004815D01*
X145190285Y-64043060D01*
G37*
G36*
X150190285Y-64043060D02*
G01*
X150371397Y-64118079D01*
X150534393Y-64226990D01*
X150673010Y-64365607D01*
X150781921Y-64528603D01*
X150856940Y-64709715D01*
X150895185Y-64901983D01*
X150895185Y-65098017D01*
X150856940Y-65290285D01*
X150781921Y-65471397D01*
X150673010Y-65634393D01*
X150534393Y-65773010D01*
X150371397Y-65881921D01*
X150190285Y-65956940D01*
X149998017Y-65995185D01*
X149801983Y-65995185D01*
X149609715Y-65956940D01*
X149428603Y-65881921D01*
X149265607Y-65773010D01*
X149126990Y-65634393D01*
X149018079Y-65471397D01*
X148943060Y-65290285D01*
X148904815Y-65098017D01*
X148904815Y-64901983D01*
X148943060Y-64709715D01*
X149018079Y-64528603D01*
X149126990Y-64365607D01*
X149265607Y-64226990D01*
X149428603Y-64118079D01*
X149609715Y-64043060D01*
X149801983Y-64004815D01*
X149998017Y-64004815D01*
X150190285Y-64043060D01*
G37*
G36*
X26593737Y-65053850D02*
G01*
X26707208Y-65084254D01*
X26808943Y-65142991D01*
X26892009Y-65226057D01*
X26950746Y-65327792D01*
X26981150Y-65441263D01*
X26981150Y-65558737D01*
X26950746Y-65672208D01*
X26892009Y-65773943D01*
X26808943Y-65857009D01*
X26707208Y-65915746D01*
X26593737Y-65946150D01*
X26535000Y-65950000D01*
X26533029Y-65950000D01*
X25736971Y-65950000D01*
X25735000Y-65950000D01*
X25676263Y-65946150D01*
X25562792Y-65915746D01*
X25461057Y-65857009D01*
X25377991Y-65773943D01*
X25319254Y-65672208D01*
X25288850Y-65558737D01*
X25288850Y-65441263D01*
X25319254Y-65327792D01*
X25377991Y-65226057D01*
X25461057Y-65142991D01*
X25562792Y-65084254D01*
X25676263Y-65053850D01*
X25735000Y-65050000D01*
X26535000Y-65050000D01*
X26593737Y-65053850D01*
G37*
G36*
X30913737Y-65053850D02*
G01*
X31027208Y-65084254D01*
X31128943Y-65142991D01*
X31212009Y-65226057D01*
X31270746Y-65327792D01*
X31301150Y-65441263D01*
X31301150Y-65558737D01*
X31270746Y-65672208D01*
X31212009Y-65773943D01*
X31128943Y-65857009D01*
X31027208Y-65915746D01*
X30913737Y-65946150D01*
X30855000Y-65950000D01*
X30853029Y-65950000D01*
X29756971Y-65950000D01*
X29755000Y-65950000D01*
X29696263Y-65946150D01*
X29582792Y-65915746D01*
X29481057Y-65857009D01*
X29397991Y-65773943D01*
X29339254Y-65672208D01*
X29308850Y-65558737D01*
X29308850Y-65441263D01*
X29339254Y-65327792D01*
X29397991Y-65226057D01*
X29481057Y-65142991D01*
X29582792Y-65084254D01*
X29696263Y-65053850D01*
X29755000Y-65050000D01*
X30855000Y-65050000D01*
X30913737Y-65053850D01*
G37*
G36*
X33854850Y-63625964D02*
G01*
X33905040Y-63631787D01*
X33922189Y-63639359D01*
X33945671Y-63644030D01*
X33970810Y-63660827D01*
X33990696Y-63669608D01*
X34004277Y-63683189D01*
X34026777Y-63698223D01*
X34041810Y-63720722D01*
X34055391Y-63734303D01*
X34064170Y-63754186D01*
X34080970Y-63779329D01*
X34085641Y-63802812D01*
X34093212Y-63819959D01*
X34099033Y-63870139D01*
X34100000Y-63875000D01*
X34100000Y-65125000D01*
X34099032Y-65129863D01*
X34093212Y-65180040D01*
X34085641Y-65197185D01*
X34080970Y-65220671D01*
X34064169Y-65245815D01*
X34055391Y-65265696D01*
X34041812Y-65279274D01*
X34026777Y-65301777D01*
X34004274Y-65316812D01*
X33990696Y-65330391D01*
X33970815Y-65339169D01*
X33945671Y-65355970D01*
X33922185Y-65360641D01*
X33905040Y-65368212D01*
X33854861Y-65374032D01*
X33850000Y-65375000D01*
X33050000Y-65375000D01*
X33045138Y-65374032D01*
X32994959Y-65368212D01*
X32977812Y-65360641D01*
X32954329Y-65355970D01*
X32929186Y-65339170D01*
X32909303Y-65330391D01*
X32895722Y-65316810D01*
X32873223Y-65301777D01*
X32858189Y-65279277D01*
X32844608Y-65265696D01*
X32835827Y-65245810D01*
X32819030Y-65220671D01*
X32814359Y-65197189D01*
X32806787Y-65180040D01*
X32800964Y-65129849D01*
X32800000Y-65125000D01*
X32800000Y-63875000D01*
X32800964Y-63870150D01*
X32806787Y-63819959D01*
X32814359Y-63802808D01*
X32819030Y-63779329D01*
X32835826Y-63754191D01*
X32844608Y-63734303D01*
X32858191Y-63720719D01*
X32873223Y-63698223D01*
X32895719Y-63683191D01*
X32909303Y-63669608D01*
X32929191Y-63660826D01*
X32954329Y-63644030D01*
X32977808Y-63639359D01*
X32994959Y-63631787D01*
X33045151Y-63625964D01*
X33050000Y-63625000D01*
X33850000Y-63625000D01*
X33854850Y-63625964D01*
G37*
G36*
X36954850Y-63625964D02*
G01*
X37005040Y-63631787D01*
X37022189Y-63639359D01*
X37045671Y-63644030D01*
X37070810Y-63660827D01*
X37090696Y-63669608D01*
X37104277Y-63683189D01*
X37126777Y-63698223D01*
X37141810Y-63720722D01*
X37155391Y-63734303D01*
X37164170Y-63754186D01*
X37180970Y-63779329D01*
X37185641Y-63802812D01*
X37193212Y-63819959D01*
X37199033Y-63870139D01*
X37200000Y-63875000D01*
X37200000Y-65125000D01*
X37199032Y-65129863D01*
X37193212Y-65180040D01*
X37185641Y-65197185D01*
X37180970Y-65220671D01*
X37164169Y-65245815D01*
X37155391Y-65265696D01*
X37141812Y-65279274D01*
X37126777Y-65301777D01*
X37104274Y-65316812D01*
X37090696Y-65330391D01*
X37070815Y-65339169D01*
X37045671Y-65355970D01*
X37022185Y-65360641D01*
X37005040Y-65368212D01*
X36954861Y-65374032D01*
X36950000Y-65375000D01*
X36150000Y-65375000D01*
X36145138Y-65374032D01*
X36094959Y-65368212D01*
X36077812Y-65360641D01*
X36054329Y-65355970D01*
X36029186Y-65339170D01*
X36009303Y-65330391D01*
X35995722Y-65316810D01*
X35973223Y-65301777D01*
X35958189Y-65279277D01*
X35944608Y-65265696D01*
X35935827Y-65245810D01*
X35919030Y-65220671D01*
X35914359Y-65197189D01*
X35906787Y-65180040D01*
X35900964Y-65129849D01*
X35900000Y-65125000D01*
X35900000Y-63875000D01*
X35900964Y-63870150D01*
X35906787Y-63819959D01*
X35914359Y-63802808D01*
X35919030Y-63779329D01*
X35935826Y-63754191D01*
X35944608Y-63734303D01*
X35958191Y-63720719D01*
X35973223Y-63698223D01*
X35995719Y-63683191D01*
X36009303Y-63669608D01*
X36029191Y-63660826D01*
X36054329Y-63644030D01*
X36077808Y-63639359D01*
X36094959Y-63631787D01*
X36145151Y-63625964D01*
X36150000Y-63625000D01*
X36950000Y-63625000D01*
X36954850Y-63625964D01*
G37*
G36*
X57900000Y-65000000D02*
G01*
X56400000Y-65000000D01*
X56400000Y-63500000D01*
X57900000Y-63500000D01*
X57900000Y-65000000D01*
G37*
G36*
X108750000Y-65000000D02*
G01*
X107250000Y-65000000D01*
X107250000Y-63500000D01*
X108750000Y-63500000D01*
X108750000Y-65000000D01*
G37*
G36*
X59907714Y-63532295D02*
G01*
X60043548Y-63588559D01*
X60165795Y-63670242D01*
X60269758Y-63774205D01*
X60351441Y-63896452D01*
X60407705Y-64032286D01*
X60436389Y-64176487D01*
X60436389Y-64323513D01*
X60407705Y-64467714D01*
X60351441Y-64603548D01*
X60269758Y-64725795D01*
X60165795Y-64829758D01*
X60043548Y-64911441D01*
X59907714Y-64967705D01*
X59763513Y-64996389D01*
X59616487Y-64996389D01*
X59472286Y-64967705D01*
X59336452Y-64911441D01*
X59214205Y-64829758D01*
X59110242Y-64725795D01*
X59028559Y-64603548D01*
X58972295Y-64467714D01*
X58943611Y-64323513D01*
X58943611Y-64176487D01*
X58972295Y-64032286D01*
X59028559Y-63896452D01*
X59110242Y-63774205D01*
X59214205Y-63670242D01*
X59336452Y-63588559D01*
X59472286Y-63532295D01*
X59616487Y-63503611D01*
X59763513Y-63503611D01*
X59907714Y-63532295D01*
G37*
G36*
X62447714Y-63532295D02*
G01*
X62583548Y-63588559D01*
X62705795Y-63670242D01*
X62809758Y-63774205D01*
X62891441Y-63896452D01*
X62947705Y-64032286D01*
X62976389Y-64176487D01*
X62976389Y-64323513D01*
X62947705Y-64467714D01*
X62891441Y-64603548D01*
X62809758Y-64725795D01*
X62705795Y-64829758D01*
X62583548Y-64911441D01*
X62447714Y-64967705D01*
X62303513Y-64996389D01*
X62156487Y-64996389D01*
X62012286Y-64967705D01*
X61876452Y-64911441D01*
X61754205Y-64829758D01*
X61650242Y-64725795D01*
X61568559Y-64603548D01*
X61512295Y-64467714D01*
X61483611Y-64323513D01*
X61483611Y-64176487D01*
X61512295Y-64032286D01*
X61568559Y-63896452D01*
X61650242Y-63774205D01*
X61754205Y-63670242D01*
X61876452Y-63588559D01*
X62012286Y-63532295D01*
X62156487Y-63503611D01*
X62303513Y-63503611D01*
X62447714Y-63532295D01*
G37*
G36*
X64987714Y-63532295D02*
G01*
X65123548Y-63588559D01*
X65245795Y-63670242D01*
X65349758Y-63774205D01*
X65431441Y-63896452D01*
X65487705Y-64032286D01*
X65516389Y-64176487D01*
X65516389Y-64323513D01*
X65487705Y-64467714D01*
X65431441Y-64603548D01*
X65349758Y-64725795D01*
X65245795Y-64829758D01*
X65123548Y-64911441D01*
X64987714Y-64967705D01*
X64843513Y-64996389D01*
X64696487Y-64996389D01*
X64552286Y-64967705D01*
X64416452Y-64911441D01*
X64294205Y-64829758D01*
X64190242Y-64725795D01*
X64108559Y-64603548D01*
X64052295Y-64467714D01*
X64023611Y-64323513D01*
X64023611Y-64176487D01*
X64052295Y-64032286D01*
X64108559Y-63896452D01*
X64190242Y-63774205D01*
X64294205Y-63670242D01*
X64416452Y-63588559D01*
X64552286Y-63532295D01*
X64696487Y-63503611D01*
X64843513Y-63503611D01*
X64987714Y-63532295D01*
G37*
G36*
X67527714Y-63532295D02*
G01*
X67663548Y-63588559D01*
X67785795Y-63670242D01*
X67889758Y-63774205D01*
X67971441Y-63896452D01*
X68027705Y-64032286D01*
X68056389Y-64176487D01*
X68056389Y-64323513D01*
X68027705Y-64467714D01*
X67971441Y-64603548D01*
X67889758Y-64725795D01*
X67785795Y-64829758D01*
X67663548Y-64911441D01*
X67527714Y-64967705D01*
X67383513Y-64996389D01*
X67236487Y-64996389D01*
X67092286Y-64967705D01*
X66956452Y-64911441D01*
X66834205Y-64829758D01*
X66730242Y-64725795D01*
X66648559Y-64603548D01*
X66592295Y-64467714D01*
X66563611Y-64323513D01*
X66563611Y-64176487D01*
X66592295Y-64032286D01*
X66648559Y-63896452D01*
X66730242Y-63774205D01*
X66834205Y-63670242D01*
X66956452Y-63588559D01*
X67092286Y-63532295D01*
X67236487Y-63503611D01*
X67383513Y-63503611D01*
X67527714Y-63532295D01*
G37*
G36*
X70067714Y-63532295D02*
G01*
X70203548Y-63588559D01*
X70325795Y-63670242D01*
X70429758Y-63774205D01*
X70511441Y-63896452D01*
X70567705Y-64032286D01*
X70596389Y-64176487D01*
X70596389Y-64323513D01*
X70567705Y-64467714D01*
X70511441Y-64603548D01*
X70429758Y-64725795D01*
X70325795Y-64829758D01*
X70203548Y-64911441D01*
X70067714Y-64967705D01*
X69923513Y-64996389D01*
X69776487Y-64996389D01*
X69632286Y-64967705D01*
X69496452Y-64911441D01*
X69374205Y-64829758D01*
X69270242Y-64725795D01*
X69188559Y-64603548D01*
X69132295Y-64467714D01*
X69103611Y-64323513D01*
X69103611Y-64176487D01*
X69132295Y-64032286D01*
X69188559Y-63896452D01*
X69270242Y-63774205D01*
X69374205Y-63670242D01*
X69496452Y-63588559D01*
X69632286Y-63532295D01*
X69776487Y-63503611D01*
X69923513Y-63503611D01*
X70067714Y-63532295D01*
G37*
G36*
X110757714Y-63532295D02*
G01*
X110893548Y-63588559D01*
X111015795Y-63670242D01*
X111119758Y-63774205D01*
X111201441Y-63896452D01*
X111257705Y-64032286D01*
X111286389Y-64176487D01*
X111286389Y-64323513D01*
X111257705Y-64467714D01*
X111201441Y-64603548D01*
X111119758Y-64725795D01*
X111015795Y-64829758D01*
X110893548Y-64911441D01*
X110757714Y-64967705D01*
X110613513Y-64996389D01*
X110466487Y-64996389D01*
X110322286Y-64967705D01*
X110186452Y-64911441D01*
X110064205Y-64829758D01*
X109960242Y-64725795D01*
X109878559Y-64603548D01*
X109822295Y-64467714D01*
X109793611Y-64323513D01*
X109793611Y-64176487D01*
X109822295Y-64032286D01*
X109878559Y-63896452D01*
X109960242Y-63774205D01*
X110064205Y-63670242D01*
X110186452Y-63588559D01*
X110322286Y-63532295D01*
X110466487Y-63503611D01*
X110613513Y-63503611D01*
X110757714Y-63532295D01*
G37*
G36*
X113297714Y-63532295D02*
G01*
X113433548Y-63588559D01*
X113555795Y-63670242D01*
X113659758Y-63774205D01*
X113741441Y-63896452D01*
X113797705Y-64032286D01*
X113826389Y-64176487D01*
X113826389Y-64323513D01*
X113797705Y-64467714D01*
X113741441Y-64603548D01*
X113659758Y-64725795D01*
X113555795Y-64829758D01*
X113433548Y-64911441D01*
X113297714Y-64967705D01*
X113153513Y-64996389D01*
X113006487Y-64996389D01*
X112862286Y-64967705D01*
X112726452Y-64911441D01*
X112604205Y-64829758D01*
X112500242Y-64725795D01*
X112418559Y-64603548D01*
X112362295Y-64467714D01*
X112333611Y-64323513D01*
X112333611Y-64176487D01*
X112362295Y-64032286D01*
X112418559Y-63896452D01*
X112500242Y-63774205D01*
X112604205Y-63670242D01*
X112726452Y-63588559D01*
X112862286Y-63532295D01*
X113006487Y-63503611D01*
X113153513Y-63503611D01*
X113297714Y-63532295D01*
G37*
G36*
X115837714Y-63532295D02*
G01*
X115973548Y-63588559D01*
X116095795Y-63670242D01*
X116199758Y-63774205D01*
X116281441Y-63896452D01*
X116337705Y-64032286D01*
X116366389Y-64176487D01*
X116366389Y-64323513D01*
X116337705Y-64467714D01*
X116281441Y-64603548D01*
X116199758Y-64725795D01*
X116095795Y-64829758D01*
X115973548Y-64911441D01*
X115837714Y-64967705D01*
X115693513Y-64996389D01*
X115546487Y-64996389D01*
X115402286Y-64967705D01*
X115266452Y-64911441D01*
X115144205Y-64829758D01*
X115040242Y-64725795D01*
X114958559Y-64603548D01*
X114902295Y-64467714D01*
X114873611Y-64323513D01*
X114873611Y-64176487D01*
X114902295Y-64032286D01*
X114958559Y-63896452D01*
X115040242Y-63774205D01*
X115144205Y-63670242D01*
X115266452Y-63588559D01*
X115402286Y-63532295D01*
X115546487Y-63503611D01*
X115693513Y-63503611D01*
X115837714Y-63532295D01*
G37*
G36*
X118377714Y-63532295D02*
G01*
X118513548Y-63588559D01*
X118635795Y-63670242D01*
X118739758Y-63774205D01*
X118821441Y-63896452D01*
X118877705Y-64032286D01*
X118906389Y-64176487D01*
X118906389Y-64323513D01*
X118877705Y-64467714D01*
X118821441Y-64603548D01*
X118739758Y-64725795D01*
X118635795Y-64829758D01*
X118513548Y-64911441D01*
X118377714Y-64967705D01*
X118233513Y-64996389D01*
X118086487Y-64996389D01*
X117942286Y-64967705D01*
X117806452Y-64911441D01*
X117684205Y-64829758D01*
X117580242Y-64725795D01*
X117498559Y-64603548D01*
X117442295Y-64467714D01*
X117413611Y-64323513D01*
X117413611Y-64176487D01*
X117442295Y-64032286D01*
X117498559Y-63896452D01*
X117580242Y-63774205D01*
X117684205Y-63670242D01*
X117806452Y-63588559D01*
X117942286Y-63532295D01*
X118086487Y-63503611D01*
X118233513Y-63503611D01*
X118377714Y-63532295D01*
G37*
G36*
X120917714Y-63532295D02*
G01*
X121053548Y-63588559D01*
X121175795Y-63670242D01*
X121279758Y-63774205D01*
X121361441Y-63896452D01*
X121417705Y-64032286D01*
X121446389Y-64176487D01*
X121446389Y-64323513D01*
X121417705Y-64467714D01*
X121361441Y-64603548D01*
X121279758Y-64725795D01*
X121175795Y-64829758D01*
X121053548Y-64911441D01*
X120917714Y-64967705D01*
X120773513Y-64996389D01*
X120626487Y-64996389D01*
X120482286Y-64967705D01*
X120346452Y-64911441D01*
X120224205Y-64829758D01*
X120120242Y-64725795D01*
X120038559Y-64603548D01*
X119982295Y-64467714D01*
X119953611Y-64323513D01*
X119953611Y-64176487D01*
X119982295Y-64032286D01*
X120038559Y-63896452D01*
X120120242Y-63774205D01*
X120224205Y-63670242D01*
X120346452Y-63588559D01*
X120482286Y-63532295D01*
X120626487Y-63503611D01*
X120773513Y-63503611D01*
X120917714Y-63532295D01*
G37*
G36*
X49654850Y-63400964D02*
G01*
X49705040Y-63406787D01*
X49722189Y-63414359D01*
X49745671Y-63419030D01*
X49770810Y-63435827D01*
X49790696Y-63444608D01*
X49804277Y-63458189D01*
X49826777Y-63473223D01*
X49841810Y-63495722D01*
X49855391Y-63509303D01*
X49864170Y-63529186D01*
X49880970Y-63554329D01*
X49885641Y-63577812D01*
X49893212Y-63594959D01*
X49899033Y-63645139D01*
X49900000Y-63650000D01*
X49900000Y-64475000D01*
X49899032Y-64479863D01*
X49893212Y-64530040D01*
X49885641Y-64547185D01*
X49880970Y-64570671D01*
X49864169Y-64595815D01*
X49855391Y-64615696D01*
X49841812Y-64629274D01*
X49826777Y-64651777D01*
X49804274Y-64666812D01*
X49790696Y-64680391D01*
X49770815Y-64689169D01*
X49745671Y-64705970D01*
X49722185Y-64710641D01*
X49705040Y-64718212D01*
X49654861Y-64724032D01*
X49650000Y-64725000D01*
X48350000Y-64725000D01*
X48345138Y-64724032D01*
X48294959Y-64718212D01*
X48277812Y-64710641D01*
X48254329Y-64705970D01*
X48229186Y-64689170D01*
X48209303Y-64680391D01*
X48195722Y-64666810D01*
X48173223Y-64651777D01*
X48158189Y-64629277D01*
X48144608Y-64615696D01*
X48135827Y-64595810D01*
X48119030Y-64570671D01*
X48114359Y-64547189D01*
X48106787Y-64530040D01*
X48100964Y-64479849D01*
X48100000Y-64475000D01*
X48100000Y-63650000D01*
X48100964Y-63645150D01*
X48106787Y-63594959D01*
X48114359Y-63577808D01*
X48119030Y-63554329D01*
X48135826Y-63529191D01*
X48144608Y-63509303D01*
X48158191Y-63495719D01*
X48173223Y-63473223D01*
X48195719Y-63458191D01*
X48209303Y-63444608D01*
X48229191Y-63435826D01*
X48254329Y-63419030D01*
X48277808Y-63414359D01*
X48294959Y-63406787D01*
X48345151Y-63400964D01*
X48350000Y-63400000D01*
X49650000Y-63400000D01*
X49654850Y-63400964D01*
G37*
G36*
X52154850Y-63400964D02*
G01*
X52205040Y-63406787D01*
X52222189Y-63414359D01*
X52245671Y-63419030D01*
X52270810Y-63435827D01*
X52290696Y-63444608D01*
X52304277Y-63458189D01*
X52326777Y-63473223D01*
X52341810Y-63495722D01*
X52355391Y-63509303D01*
X52364170Y-63529186D01*
X52380970Y-63554329D01*
X52385641Y-63577812D01*
X52393212Y-63594959D01*
X52399033Y-63645139D01*
X52400000Y-63650000D01*
X52400000Y-64475000D01*
X52399032Y-64479863D01*
X52393212Y-64530040D01*
X52385641Y-64547185D01*
X52380970Y-64570671D01*
X52364169Y-64595815D01*
X52355391Y-64615696D01*
X52341812Y-64629274D01*
X52326777Y-64651777D01*
X52304274Y-64666812D01*
X52290696Y-64680391D01*
X52270815Y-64689169D01*
X52245671Y-64705970D01*
X52222185Y-64710641D01*
X52205040Y-64718212D01*
X52154861Y-64724032D01*
X52150000Y-64725000D01*
X50850000Y-64725000D01*
X50845138Y-64724032D01*
X50794959Y-64718212D01*
X50777812Y-64710641D01*
X50754329Y-64705970D01*
X50729186Y-64689170D01*
X50709303Y-64680391D01*
X50695722Y-64666810D01*
X50673223Y-64651777D01*
X50658189Y-64629277D01*
X50644608Y-64615696D01*
X50635827Y-64595810D01*
X50619030Y-64570671D01*
X50614359Y-64547189D01*
X50606787Y-64530040D01*
X50600964Y-64479849D01*
X50600000Y-64475000D01*
X50600000Y-63650000D01*
X50600964Y-63645150D01*
X50606787Y-63594959D01*
X50614359Y-63577808D01*
X50619030Y-63554329D01*
X50635826Y-63529191D01*
X50644608Y-63509303D01*
X50658191Y-63495719D01*
X50673223Y-63473223D01*
X50695719Y-63458191D01*
X50709303Y-63444608D01*
X50729191Y-63435826D01*
X50754329Y-63419030D01*
X50777808Y-63414359D01*
X50794959Y-63406787D01*
X50845151Y-63400964D01*
X50850000Y-63400000D01*
X52150000Y-63400000D01*
X52154850Y-63400964D01*
G37*
G36*
X31465000Y-64680000D02*
G01*
X30305000Y-64680000D01*
X30305000Y-64080000D01*
X31465000Y-64080000D01*
X31465000Y-64680000D01*
G37*
G36*
X40480071Y-63050738D02*
G01*
X40542973Y-63056637D01*
X40558968Y-63062234D01*
X40582001Y-63065590D01*
X40615852Y-63082139D01*
X40649909Y-63094056D01*
X40668902Y-63108073D01*
X40692904Y-63119807D01*
X40715730Y-63142633D01*
X40739686Y-63160313D01*
X40757365Y-63184268D01*
X40780193Y-63207096D01*
X40791927Y-63231099D01*
X40805943Y-63250090D01*
X40817858Y-63284142D01*
X40834410Y-63317999D01*
X40837766Y-63341034D01*
X40843362Y-63357026D01*
X40849258Y-63419912D01*
X40850000Y-63425000D01*
X40850000Y-64175000D01*
X40849258Y-64180091D01*
X40843362Y-64242973D01*
X40837766Y-64258963D01*
X40834410Y-64282001D01*
X40817857Y-64315859D01*
X40805943Y-64349909D01*
X40791928Y-64368898D01*
X40780193Y-64392904D01*
X40757362Y-64415734D01*
X40739686Y-64439686D01*
X40715734Y-64457362D01*
X40692904Y-64480193D01*
X40668898Y-64491928D01*
X40649909Y-64505943D01*
X40615859Y-64517857D01*
X40582001Y-64534410D01*
X40558963Y-64537766D01*
X40542973Y-64543362D01*
X40480089Y-64549258D01*
X40475000Y-64550000D01*
X39225000Y-64550000D01*
X39219910Y-64549258D01*
X39157026Y-64543362D01*
X39141034Y-64537766D01*
X39117999Y-64534410D01*
X39084142Y-64517858D01*
X39050090Y-64505943D01*
X39031099Y-64491927D01*
X39007096Y-64480193D01*
X38984268Y-64457365D01*
X38960313Y-64439686D01*
X38942633Y-64415730D01*
X38919807Y-64392904D01*
X38908073Y-64368902D01*
X38894056Y-64349909D01*
X38882139Y-64315852D01*
X38865590Y-64282001D01*
X38862234Y-64258968D01*
X38856637Y-64242973D01*
X38850738Y-64180070D01*
X38850000Y-64175000D01*
X38850000Y-63425000D01*
X38850738Y-63419930D01*
X38856637Y-63357026D01*
X38862234Y-63341029D01*
X38865590Y-63317999D01*
X38882137Y-63284149D01*
X38894056Y-63250090D01*
X38908074Y-63231095D01*
X38919807Y-63207096D01*
X38942630Y-63184272D01*
X38960313Y-63160313D01*
X38984272Y-63142630D01*
X39007096Y-63119807D01*
X39031095Y-63108074D01*
X39050090Y-63094056D01*
X39084149Y-63082137D01*
X39117999Y-63065590D01*
X39141029Y-63062234D01*
X39157026Y-63056637D01*
X39219931Y-63050738D01*
X39225000Y-63050000D01*
X40475000Y-63050000D01*
X40480071Y-63050738D01*
G37*
G36*
X86400000Y-64400000D02*
G01*
X85400000Y-64400000D01*
X85400000Y-62600000D01*
X86400000Y-62600000D01*
X86400000Y-64400000D01*
G37*
G36*
X88400000Y-64400000D02*
G01*
X87400000Y-64400000D01*
X87400000Y-62600000D01*
X88400000Y-62600000D01*
X88400000Y-64400000D01*
G37*
G36*
X90400000Y-64400000D02*
G01*
X89400000Y-64400000D01*
X89400000Y-62600000D01*
X90400000Y-62600000D01*
X90400000Y-64400000D01*
G37*
G36*
X92400000Y-64400000D02*
G01*
X91400000Y-64400000D01*
X91400000Y-62600000D01*
X92400000Y-62600000D01*
X92400000Y-64400000D01*
G37*
G36*
X84400000Y-64399999D02*
G01*
X83400000Y-64399999D01*
X83400000Y-62599999D01*
X84400000Y-62599999D01*
X84400000Y-64399999D01*
G37*
G36*
X94400000Y-64399999D02*
G01*
X93400000Y-64399999D01*
X93400000Y-62599999D01*
X94400000Y-62599999D01*
X94400000Y-64399999D01*
G37*
G36*
X29939805Y-63792836D02*
G01*
X30007628Y-63831994D01*
X30063006Y-63887372D01*
X30102164Y-63955195D01*
X30122433Y-64030842D01*
X30122433Y-64109158D01*
X30102164Y-64184805D01*
X30063006Y-64252628D01*
X30007628Y-64308006D01*
X29939805Y-64347164D01*
X29864158Y-64367433D01*
X29785842Y-64367433D01*
X29710195Y-64347164D01*
X29642372Y-64308006D01*
X29586994Y-64252628D01*
X29547836Y-64184805D01*
X29527567Y-64109158D01*
X29527567Y-64030842D01*
X29547836Y-63955195D01*
X29586994Y-63887372D01*
X29642372Y-63831994D01*
X29710195Y-63792836D01*
X29785842Y-63772567D01*
X29864158Y-63772567D01*
X29939805Y-63792836D01*
G37*
G36*
X31465000Y-63880000D02*
G01*
X30305000Y-63880000D01*
X30305000Y-63280000D01*
X31465000Y-63280000D01*
X31465000Y-63880000D01*
G37*
G36*
X46756283Y-59611427D02*
G01*
X46763268Y-59614032D01*
X46767762Y-59614572D01*
X46820931Y-59635539D01*
X46889624Y-59661161D01*
X46893768Y-59664263D01*
X46894776Y-59664661D01*
X46931416Y-59692446D01*
X47003553Y-59746447D01*
X47057572Y-59818608D01*
X47085338Y-59855223D01*
X47085734Y-59856229D01*
X47088839Y-59860376D01*
X47114470Y-59929096D01*
X47135427Y-59982237D01*
X47135966Y-59986728D01*
X47138573Y-59993717D01*
X47150000Y-60100000D01*
X47150000Y-62900000D01*
X47138573Y-63006283D01*
X47135966Y-63013272D01*
X47135427Y-63017762D01*
X47114477Y-63070884D01*
X47088839Y-63139624D01*
X47085734Y-63143771D01*
X47085338Y-63144776D01*
X47057630Y-63181313D01*
X47003553Y-63253553D01*
X46931313Y-63307630D01*
X46894776Y-63335338D01*
X46893771Y-63335734D01*
X46889624Y-63338839D01*
X46820884Y-63364477D01*
X46767762Y-63385427D01*
X46763272Y-63385966D01*
X46756283Y-63388573D01*
X46650000Y-63400000D01*
X45650000Y-63400000D01*
X45543717Y-63388573D01*
X45536728Y-63385966D01*
X45532237Y-63385427D01*
X45479096Y-63364470D01*
X45410376Y-63338839D01*
X45406229Y-63335734D01*
X45405223Y-63335338D01*
X45368608Y-63307572D01*
X45296447Y-63253553D01*
X45242446Y-63181416D01*
X45214661Y-63144776D01*
X45214263Y-63143768D01*
X45211161Y-63139624D01*
X45185539Y-63070931D01*
X45164572Y-63017762D01*
X45164032Y-63013268D01*
X45161427Y-63006283D01*
X45150000Y-62900000D01*
X45150000Y-60100000D01*
X45161427Y-59993717D01*
X45164032Y-59986732D01*
X45164572Y-59982237D01*
X45185546Y-59929049D01*
X45211161Y-59860376D01*
X45214263Y-59856232D01*
X45214661Y-59855223D01*
X45242504Y-59818506D01*
X45296447Y-59746447D01*
X45368506Y-59692504D01*
X45405223Y-59664661D01*
X45406232Y-59664263D01*
X45410376Y-59661161D01*
X45479049Y-59635546D01*
X45532237Y-59614572D01*
X45536732Y-59614032D01*
X45543717Y-59611427D01*
X45650000Y-59600000D01*
X46650000Y-59600000D01*
X46756283Y-59611427D01*
G37*
G36*
X31465000Y-63080000D02*
G01*
X30305000Y-63080000D01*
X30305000Y-62780000D01*
X31465000Y-62780000D01*
X31465000Y-63080000D01*
G37*
G36*
X60654850Y-61400964D02*
G01*
X60705040Y-61406787D01*
X60722189Y-61414359D01*
X60745671Y-61419030D01*
X60770810Y-61435827D01*
X60790696Y-61444608D01*
X60804277Y-61458189D01*
X60826777Y-61473223D01*
X60841810Y-61495722D01*
X60855391Y-61509303D01*
X60864170Y-61529186D01*
X60880970Y-61554329D01*
X60885641Y-61577812D01*
X60893212Y-61594959D01*
X60899033Y-61645139D01*
X60900000Y-61650000D01*
X60900000Y-62475000D01*
X60899032Y-62479863D01*
X60893212Y-62530040D01*
X60885641Y-62547185D01*
X60880970Y-62570671D01*
X60864169Y-62595815D01*
X60855391Y-62615696D01*
X60841812Y-62629274D01*
X60826777Y-62651777D01*
X60804274Y-62666812D01*
X60790696Y-62680391D01*
X60770815Y-62689169D01*
X60745671Y-62705970D01*
X60722185Y-62710641D01*
X60705040Y-62718212D01*
X60654861Y-62724032D01*
X60650000Y-62725000D01*
X59350000Y-62725000D01*
X59345138Y-62724032D01*
X59294959Y-62718212D01*
X59277812Y-62710641D01*
X59254329Y-62705970D01*
X59229186Y-62689170D01*
X59209303Y-62680391D01*
X59195722Y-62666810D01*
X59173223Y-62651777D01*
X59158189Y-62629277D01*
X59144608Y-62615696D01*
X59135827Y-62595810D01*
X59119030Y-62570671D01*
X59114359Y-62547189D01*
X59106787Y-62530040D01*
X59100964Y-62479849D01*
X59100000Y-62475000D01*
X59100000Y-61650000D01*
X59100964Y-61645150D01*
X59106787Y-61594959D01*
X59114359Y-61577808D01*
X59119030Y-61554329D01*
X59135826Y-61529191D01*
X59144608Y-61509303D01*
X59158191Y-61495719D01*
X59173223Y-61473223D01*
X59195719Y-61458191D01*
X59209303Y-61444608D01*
X59229191Y-61435826D01*
X59254329Y-61419030D01*
X59277808Y-61414359D01*
X59294959Y-61406787D01*
X59345151Y-61400964D01*
X59350000Y-61400000D01*
X60650000Y-61400000D01*
X60654850Y-61400964D01*
G37*
G36*
X31465000Y-62580000D02*
G01*
X30305000Y-62580000D01*
X30305000Y-62280000D01*
X31465000Y-62280000D01*
X31465000Y-62580000D01*
G37*
G36*
X82550000Y-62500000D02*
G01*
X80050000Y-62500000D01*
X80050000Y-61500000D01*
X82550000Y-61500000D01*
X82550000Y-62500000D01*
G37*
G36*
X97750000Y-62500000D02*
G01*
X95250000Y-62500000D01*
X95250000Y-61500000D01*
X97750000Y-61500000D01*
X97750000Y-62500000D01*
G37*
G36*
X107572403Y-60408918D02*
G01*
X107621066Y-60441434D01*
X107653582Y-60490097D01*
X107665000Y-60547500D01*
X107665000Y-62297500D01*
X107653582Y-62354903D01*
X107621066Y-62403566D01*
X107572403Y-62436082D01*
X107515000Y-62447500D01*
X107215000Y-62447500D01*
X107157597Y-62436082D01*
X107108934Y-62403566D01*
X107076418Y-62354903D01*
X107065000Y-62297500D01*
X107065000Y-60547500D01*
X107076418Y-60490097D01*
X107108934Y-60441434D01*
X107157597Y-60408918D01*
X107215000Y-60397500D01*
X107515000Y-60397500D01*
X107572403Y-60408918D01*
G37*
G36*
X108842403Y-60408918D02*
G01*
X108891066Y-60441434D01*
X108923582Y-60490097D01*
X108935000Y-60547500D01*
X108935000Y-62297500D01*
X108923582Y-62354903D01*
X108891066Y-62403566D01*
X108842403Y-62436082D01*
X108785000Y-62447500D01*
X108485000Y-62447500D01*
X108427597Y-62436082D01*
X108378934Y-62403566D01*
X108346418Y-62354903D01*
X108335000Y-62297500D01*
X108335000Y-60547500D01*
X108346418Y-60490097D01*
X108378934Y-60441434D01*
X108427597Y-60408918D01*
X108485000Y-60397500D01*
X108785000Y-60397500D01*
X108842403Y-60408918D01*
G37*
G36*
X110112403Y-60408918D02*
G01*
X110161066Y-60441434D01*
X110193582Y-60490097D01*
X110205000Y-60547500D01*
X110205000Y-62297500D01*
X110193582Y-62354903D01*
X110161066Y-62403566D01*
X110112403Y-62436082D01*
X110055000Y-62447500D01*
X109755000Y-62447500D01*
X109697597Y-62436082D01*
X109648934Y-62403566D01*
X109616418Y-62354903D01*
X109605000Y-62297500D01*
X109605000Y-60547500D01*
X109616418Y-60490097D01*
X109648934Y-60441434D01*
X109697597Y-60408918D01*
X109755000Y-60397500D01*
X110055000Y-60397500D01*
X110112403Y-60408918D01*
G37*
G36*
X111382403Y-60408918D02*
G01*
X111431066Y-60441434D01*
X111463582Y-60490097D01*
X111475000Y-60547500D01*
X111475000Y-62297500D01*
X111463582Y-62354903D01*
X111431066Y-62403566D01*
X111382403Y-62436082D01*
X111325000Y-62447500D01*
X111025000Y-62447500D01*
X110967597Y-62436082D01*
X110918934Y-62403566D01*
X110886418Y-62354903D01*
X110875000Y-62297500D01*
X110875000Y-60547500D01*
X110886418Y-60490097D01*
X110918934Y-60441434D01*
X110967597Y-60408918D01*
X111025000Y-60397500D01*
X111325000Y-60397500D01*
X111382403Y-60408918D01*
G37*
G36*
X112652403Y-60408918D02*
G01*
X112701066Y-60441434D01*
X112733582Y-60490097D01*
X112745000Y-60547500D01*
X112745000Y-62297500D01*
X112733582Y-62354903D01*
X112701066Y-62403566D01*
X112652403Y-62436082D01*
X112595000Y-62447500D01*
X112295000Y-62447500D01*
X112237597Y-62436082D01*
X112188934Y-62403566D01*
X112156418Y-62354903D01*
X112145000Y-62297500D01*
X112145000Y-60547500D01*
X112156418Y-60490097D01*
X112188934Y-60441434D01*
X112237597Y-60408918D01*
X112295000Y-60397500D01*
X112595000Y-60397500D01*
X112652403Y-60408918D01*
G37*
G36*
X113922403Y-60408918D02*
G01*
X113971066Y-60441434D01*
X114003582Y-60490097D01*
X114015000Y-60547500D01*
X114015000Y-62297500D01*
X114003582Y-62354903D01*
X113971066Y-62403566D01*
X113922403Y-62436082D01*
X113865000Y-62447500D01*
X113565000Y-62447500D01*
X113507597Y-62436082D01*
X113458934Y-62403566D01*
X113426418Y-62354903D01*
X113415000Y-62297500D01*
X113415000Y-60547500D01*
X113426418Y-60490097D01*
X113458934Y-60441434D01*
X113507597Y-60408918D01*
X113565000Y-60397500D01*
X113865000Y-60397500D01*
X113922403Y-60408918D01*
G37*
G36*
X115192403Y-60408918D02*
G01*
X115241066Y-60441434D01*
X115273582Y-60490097D01*
X115285000Y-60547500D01*
X115285000Y-62297500D01*
X115273582Y-62354903D01*
X115241066Y-62403566D01*
X115192403Y-62436082D01*
X115135000Y-62447500D01*
X114835000Y-62447500D01*
X114777597Y-62436082D01*
X114728934Y-62403566D01*
X114696418Y-62354903D01*
X114685000Y-62297500D01*
X114685000Y-60547500D01*
X114696418Y-60490097D01*
X114728934Y-60441434D01*
X114777597Y-60408918D01*
X114835000Y-60397500D01*
X115135000Y-60397500D01*
X115192403Y-60408918D01*
G37*
G36*
X116462403Y-60408918D02*
G01*
X116511066Y-60441434D01*
X116543582Y-60490097D01*
X116555000Y-60547500D01*
X116555000Y-62297500D01*
X116543582Y-62354903D01*
X116511066Y-62403566D01*
X116462403Y-62436082D01*
X116405000Y-62447500D01*
X116105000Y-62447500D01*
X116047597Y-62436082D01*
X115998934Y-62403566D01*
X115966418Y-62354903D01*
X115955000Y-62297500D01*
X115955000Y-60547500D01*
X115966418Y-60490097D01*
X115998934Y-60441434D01*
X116047597Y-60408918D01*
X116105000Y-60397500D01*
X116405000Y-60397500D01*
X116462403Y-60408918D01*
G37*
G36*
X117732403Y-60408918D02*
G01*
X117781066Y-60441434D01*
X117813582Y-60490097D01*
X117825000Y-60547500D01*
X117825000Y-62297500D01*
X117813582Y-62354903D01*
X117781066Y-62403566D01*
X117732403Y-62436082D01*
X117675000Y-62447500D01*
X117375000Y-62447500D01*
X117317597Y-62436082D01*
X117268934Y-62403566D01*
X117236418Y-62354903D01*
X117225000Y-62297500D01*
X117225000Y-60547500D01*
X117236418Y-60490097D01*
X117268934Y-60441434D01*
X117317597Y-60408918D01*
X117375000Y-60397500D01*
X117675000Y-60397500D01*
X117732403Y-60408918D01*
G37*
G36*
X119002403Y-60408918D02*
G01*
X119051066Y-60441434D01*
X119083582Y-60490097D01*
X119095000Y-60547500D01*
X119095000Y-62297500D01*
X119083582Y-62354903D01*
X119051066Y-62403566D01*
X119002403Y-62436082D01*
X118945000Y-62447500D01*
X118645000Y-62447500D01*
X118587597Y-62436082D01*
X118538934Y-62403566D01*
X118506418Y-62354903D01*
X118495000Y-62297500D01*
X118495000Y-60547500D01*
X118506418Y-60490097D01*
X118538934Y-60441434D01*
X118587597Y-60408918D01*
X118645000Y-60397500D01*
X118945000Y-60397500D01*
X119002403Y-60408918D01*
G37*
G36*
X120272403Y-60408918D02*
G01*
X120321066Y-60441434D01*
X120353582Y-60490097D01*
X120365000Y-60547500D01*
X120365000Y-62297500D01*
X120353582Y-62354903D01*
X120321066Y-62403566D01*
X120272403Y-62436082D01*
X120215000Y-62447500D01*
X119915000Y-62447500D01*
X119857597Y-62436082D01*
X119808934Y-62403566D01*
X119776418Y-62354903D01*
X119765000Y-62297500D01*
X119765000Y-60547500D01*
X119776418Y-60490097D01*
X119808934Y-60441434D01*
X119857597Y-60408918D01*
X119915000Y-60397500D01*
X120215000Y-60397500D01*
X120272403Y-60408918D01*
G37*
G36*
X121542403Y-60408918D02*
G01*
X121591066Y-60441434D01*
X121623582Y-60490097D01*
X121635000Y-60547500D01*
X121635000Y-62297500D01*
X121623582Y-62354903D01*
X121591066Y-62403566D01*
X121542403Y-62436082D01*
X121485000Y-62447500D01*
X121185000Y-62447500D01*
X121127597Y-62436082D01*
X121078934Y-62403566D01*
X121046418Y-62354903D01*
X121035000Y-62297500D01*
X121035000Y-60547500D01*
X121046418Y-60490097D01*
X121078934Y-60441434D01*
X121127597Y-60408918D01*
X121185000Y-60397500D01*
X121485000Y-60397500D01*
X121542403Y-60408918D01*
G37*
G36*
X40480071Y-60750738D02*
G01*
X40542973Y-60756637D01*
X40558968Y-60762234D01*
X40582001Y-60765590D01*
X40615852Y-60782139D01*
X40649909Y-60794056D01*
X40668902Y-60808073D01*
X40692904Y-60819807D01*
X40715730Y-60842633D01*
X40739686Y-60860313D01*
X40757365Y-60884268D01*
X40780193Y-60907096D01*
X40791927Y-60931099D01*
X40805943Y-60950090D01*
X40817858Y-60984142D01*
X40834410Y-61017999D01*
X40837766Y-61041034D01*
X40843362Y-61057026D01*
X40849258Y-61119912D01*
X40850000Y-61125000D01*
X40850000Y-61875000D01*
X40849258Y-61880091D01*
X40843362Y-61942973D01*
X40837766Y-61958963D01*
X40834410Y-61982001D01*
X40817857Y-62015859D01*
X40805943Y-62049909D01*
X40791928Y-62068898D01*
X40780193Y-62092904D01*
X40757362Y-62115734D01*
X40739686Y-62139686D01*
X40715734Y-62157362D01*
X40692904Y-62180193D01*
X40668898Y-62191928D01*
X40649909Y-62205943D01*
X40615859Y-62217857D01*
X40582001Y-62234410D01*
X40558963Y-62237766D01*
X40542973Y-62243362D01*
X40480089Y-62249258D01*
X40475000Y-62250000D01*
X39225000Y-62250000D01*
X39219910Y-62249258D01*
X39157026Y-62243362D01*
X39141034Y-62237766D01*
X39117999Y-62234410D01*
X39084142Y-62217858D01*
X39050090Y-62205943D01*
X39031099Y-62191927D01*
X39007096Y-62180193D01*
X38984268Y-62157365D01*
X38960313Y-62139686D01*
X38942633Y-62115730D01*
X38919807Y-62092904D01*
X38908073Y-62068902D01*
X38894056Y-62049909D01*
X38882139Y-62015852D01*
X38865590Y-61982001D01*
X38862234Y-61958968D01*
X38856637Y-61942973D01*
X38850738Y-61880070D01*
X38850000Y-61875000D01*
X38850000Y-61125000D01*
X38850738Y-61119930D01*
X38856637Y-61057026D01*
X38862234Y-61041029D01*
X38865590Y-61017999D01*
X38882137Y-60984149D01*
X38894056Y-60950090D01*
X38908074Y-60931095D01*
X38919807Y-60907096D01*
X38942630Y-60884272D01*
X38960313Y-60860313D01*
X38984272Y-60842630D01*
X39007096Y-60819807D01*
X39031095Y-60808074D01*
X39050090Y-60794056D01*
X39084149Y-60782137D01*
X39117999Y-60765590D01*
X39141029Y-60762234D01*
X39157026Y-60756637D01*
X39219931Y-60750738D01*
X39225000Y-60750000D01*
X40475000Y-60750000D01*
X40480071Y-60750738D01*
G37*
G36*
X31465000Y-62080000D02*
G01*
X30305000Y-62080000D01*
X30305000Y-61780000D01*
X31465000Y-61780000D01*
X31465000Y-62080000D01*
G37*
G36*
X67854850Y-60100964D02*
G01*
X67905040Y-60106787D01*
X67922189Y-60114359D01*
X67945671Y-60119030D01*
X67970810Y-60135827D01*
X67990696Y-60144608D01*
X68004277Y-60158189D01*
X68026777Y-60173223D01*
X68041810Y-60195722D01*
X68055391Y-60209303D01*
X68064170Y-60229186D01*
X68080970Y-60254329D01*
X68085641Y-60277812D01*
X68093212Y-60294959D01*
X68099033Y-60345139D01*
X68100000Y-60350000D01*
X68100000Y-61650000D01*
X68099032Y-61654863D01*
X68093212Y-61705040D01*
X68085641Y-61722185D01*
X68080970Y-61745671D01*
X68064169Y-61770815D01*
X68055391Y-61790696D01*
X68041812Y-61804274D01*
X68026777Y-61826777D01*
X68004274Y-61841812D01*
X67990696Y-61855391D01*
X67970815Y-61864169D01*
X67945671Y-61880970D01*
X67922185Y-61885641D01*
X67905040Y-61893212D01*
X67854861Y-61899032D01*
X67850000Y-61900000D01*
X67025000Y-61900000D01*
X67020138Y-61899032D01*
X66969959Y-61893212D01*
X66952812Y-61885641D01*
X66929329Y-61880970D01*
X66904186Y-61864170D01*
X66884303Y-61855391D01*
X66870722Y-61841810D01*
X66848223Y-61826777D01*
X66833189Y-61804277D01*
X66819608Y-61790696D01*
X66810827Y-61770810D01*
X66794030Y-61745671D01*
X66789359Y-61722189D01*
X66781787Y-61705040D01*
X66775964Y-61654849D01*
X66775000Y-61650000D01*
X66775000Y-60350000D01*
X66775964Y-60345150D01*
X66781787Y-60294959D01*
X66789359Y-60277808D01*
X66794030Y-60254329D01*
X66810826Y-60229191D01*
X66819608Y-60209303D01*
X66833191Y-60195719D01*
X66848223Y-60173223D01*
X66870719Y-60158191D01*
X66884303Y-60144608D01*
X66904191Y-60135826D01*
X66929329Y-60119030D01*
X66952808Y-60114359D01*
X66969959Y-60106787D01*
X67020151Y-60100964D01*
X67025000Y-60100000D01*
X67850000Y-60100000D01*
X67854850Y-60100964D01*
G37*
G36*
X70979850Y-60100964D02*
G01*
X71030040Y-60106787D01*
X71047189Y-60114359D01*
X71070671Y-60119030D01*
X71095810Y-60135827D01*
X71115696Y-60144608D01*
X71129277Y-60158189D01*
X71151777Y-60173223D01*
X71166810Y-60195722D01*
X71180391Y-60209303D01*
X71189170Y-60229186D01*
X71205970Y-60254329D01*
X71210641Y-60277812D01*
X71218212Y-60294959D01*
X71224033Y-60345139D01*
X71225000Y-60350000D01*
X71225000Y-61650000D01*
X71224032Y-61654863D01*
X71218212Y-61705040D01*
X71210641Y-61722185D01*
X71205970Y-61745671D01*
X71189169Y-61770815D01*
X71180391Y-61790696D01*
X71166812Y-61804274D01*
X71151777Y-61826777D01*
X71129274Y-61841812D01*
X71115696Y-61855391D01*
X71095815Y-61864169D01*
X71070671Y-61880970D01*
X71047185Y-61885641D01*
X71030040Y-61893212D01*
X70979861Y-61899032D01*
X70975000Y-61900000D01*
X70150000Y-61900000D01*
X70145138Y-61899032D01*
X70094959Y-61893212D01*
X70077812Y-61885641D01*
X70054329Y-61880970D01*
X70029186Y-61864170D01*
X70009303Y-61855391D01*
X69995722Y-61841810D01*
X69973223Y-61826777D01*
X69958189Y-61804277D01*
X69944608Y-61790696D01*
X69935827Y-61770810D01*
X69919030Y-61745671D01*
X69914359Y-61722189D01*
X69906787Y-61705040D01*
X69900964Y-61654849D01*
X69900000Y-61650000D01*
X69900000Y-60350000D01*
X69900964Y-60345150D01*
X69906787Y-60294959D01*
X69914359Y-60277808D01*
X69919030Y-60254329D01*
X69935826Y-60229191D01*
X69944608Y-60209303D01*
X69958191Y-60195719D01*
X69973223Y-60173223D01*
X69995719Y-60158191D01*
X70009303Y-60144608D01*
X70029191Y-60135826D01*
X70054329Y-60119030D01*
X70077808Y-60114359D01*
X70094959Y-60106787D01*
X70145151Y-60100964D01*
X70150000Y-60100000D01*
X70975000Y-60100000D01*
X70979850Y-60100964D01*
G37*
G36*
X49654850Y-60275964D02*
G01*
X49705040Y-60281787D01*
X49722189Y-60289359D01*
X49745671Y-60294030D01*
X49770810Y-60310827D01*
X49790696Y-60319608D01*
X49804277Y-60333189D01*
X49826777Y-60348223D01*
X49841810Y-60370722D01*
X49855391Y-60384303D01*
X49864170Y-60404186D01*
X49880970Y-60429329D01*
X49885641Y-60452812D01*
X49893212Y-60469959D01*
X49899033Y-60520139D01*
X49900000Y-60525000D01*
X49900000Y-61350000D01*
X49899032Y-61354863D01*
X49893212Y-61405040D01*
X49885641Y-61422185D01*
X49880970Y-61445671D01*
X49864169Y-61470815D01*
X49855391Y-61490696D01*
X49841812Y-61504274D01*
X49826777Y-61526777D01*
X49804274Y-61541812D01*
X49790696Y-61555391D01*
X49770815Y-61564169D01*
X49745671Y-61580970D01*
X49722185Y-61585641D01*
X49705040Y-61593212D01*
X49654861Y-61599032D01*
X49650000Y-61600000D01*
X48350000Y-61600000D01*
X48345138Y-61599032D01*
X48294959Y-61593212D01*
X48277812Y-61585641D01*
X48254329Y-61580970D01*
X48229186Y-61564170D01*
X48209303Y-61555391D01*
X48195722Y-61541810D01*
X48173223Y-61526777D01*
X48158189Y-61504277D01*
X48144608Y-61490696D01*
X48135827Y-61470810D01*
X48119030Y-61445671D01*
X48114359Y-61422189D01*
X48106787Y-61405040D01*
X48100964Y-61354849D01*
X48100000Y-61350000D01*
X48100000Y-60525000D01*
X48100964Y-60520150D01*
X48106787Y-60469959D01*
X48114359Y-60452808D01*
X48119030Y-60429329D01*
X48135826Y-60404191D01*
X48144608Y-60384303D01*
X48158191Y-60370719D01*
X48173223Y-60348223D01*
X48195719Y-60333191D01*
X48209303Y-60319608D01*
X48229191Y-60310826D01*
X48254329Y-60294030D01*
X48277808Y-60289359D01*
X48294959Y-60281787D01*
X48345151Y-60275964D01*
X48350000Y-60275000D01*
X49650000Y-60275000D01*
X49654850Y-60275964D01*
G37*
G36*
X52154850Y-60275964D02*
G01*
X52205040Y-60281787D01*
X52222189Y-60289359D01*
X52245671Y-60294030D01*
X52270810Y-60310827D01*
X52290696Y-60319608D01*
X52304277Y-60333189D01*
X52326777Y-60348223D01*
X52341810Y-60370722D01*
X52355391Y-60384303D01*
X52364170Y-60404186D01*
X52380970Y-60429329D01*
X52385641Y-60452812D01*
X52393212Y-60469959D01*
X52399033Y-60520139D01*
X52400000Y-60525000D01*
X52400000Y-61350000D01*
X52399032Y-61354863D01*
X52393212Y-61405040D01*
X52385641Y-61422185D01*
X52380970Y-61445671D01*
X52364169Y-61470815D01*
X52355391Y-61490696D01*
X52341812Y-61504274D01*
X52326777Y-61526777D01*
X52304274Y-61541812D01*
X52290696Y-61555391D01*
X52270815Y-61564169D01*
X52245671Y-61580970D01*
X52222185Y-61585641D01*
X52205040Y-61593212D01*
X52154861Y-61599032D01*
X52150000Y-61600000D01*
X50850000Y-61600000D01*
X50845138Y-61599032D01*
X50794959Y-61593212D01*
X50777812Y-61585641D01*
X50754329Y-61580970D01*
X50729186Y-61564170D01*
X50709303Y-61555391D01*
X50695722Y-61541810D01*
X50673223Y-61526777D01*
X50658189Y-61504277D01*
X50644608Y-61490696D01*
X50635827Y-61470810D01*
X50619030Y-61445671D01*
X50614359Y-61422189D01*
X50606787Y-61405040D01*
X50600964Y-61354849D01*
X50600000Y-61350000D01*
X50600000Y-60525000D01*
X50600964Y-60520150D01*
X50606787Y-60469959D01*
X50614359Y-60452808D01*
X50619030Y-60429329D01*
X50635826Y-60404191D01*
X50644608Y-60384303D01*
X50658191Y-60370719D01*
X50673223Y-60348223D01*
X50695719Y-60333191D01*
X50709303Y-60319608D01*
X50729191Y-60310826D01*
X50754329Y-60294030D01*
X50777808Y-60289359D01*
X50794959Y-60281787D01*
X50845151Y-60275964D01*
X50850000Y-60275000D01*
X52150000Y-60275000D01*
X52154850Y-60275964D01*
G37*
G36*
X31465000Y-61580000D02*
G01*
X30305000Y-61580000D01*
X30305000Y-61280000D01*
X31465000Y-61280000D01*
X31465000Y-61580000D01*
G37*
G36*
X33854850Y-59600964D02*
G01*
X33905040Y-59606787D01*
X33922189Y-59614359D01*
X33945671Y-59619030D01*
X33970810Y-59635827D01*
X33990696Y-59644608D01*
X34004277Y-59658189D01*
X34026777Y-59673223D01*
X34041810Y-59695722D01*
X34055391Y-59709303D01*
X34064170Y-59729186D01*
X34080970Y-59754329D01*
X34085641Y-59777812D01*
X34093212Y-59794959D01*
X34099033Y-59845139D01*
X34100000Y-59850000D01*
X34100000Y-61150000D01*
X34099032Y-61154863D01*
X34093212Y-61205040D01*
X34085641Y-61222185D01*
X34080970Y-61245671D01*
X34064169Y-61270815D01*
X34055391Y-61290696D01*
X34041812Y-61304274D01*
X34026777Y-61326777D01*
X34004274Y-61341812D01*
X33990696Y-61355391D01*
X33970815Y-61364169D01*
X33945671Y-61380970D01*
X33922185Y-61385641D01*
X33905040Y-61393212D01*
X33854861Y-61399032D01*
X33850000Y-61400000D01*
X33025000Y-61400000D01*
X33020138Y-61399032D01*
X32969959Y-61393212D01*
X32952812Y-61385641D01*
X32929329Y-61380970D01*
X32904186Y-61364170D01*
X32884303Y-61355391D01*
X32870722Y-61341810D01*
X32848223Y-61326777D01*
X32833189Y-61304277D01*
X32819608Y-61290696D01*
X32810827Y-61270810D01*
X32794030Y-61245671D01*
X32789359Y-61222189D01*
X32781787Y-61205040D01*
X32775964Y-61154849D01*
X32775000Y-61150000D01*
X32775000Y-59850000D01*
X32775964Y-59845150D01*
X32781787Y-59794959D01*
X32789359Y-59777808D01*
X32794030Y-59754329D01*
X32810826Y-59729191D01*
X32819608Y-59709303D01*
X32833191Y-59695719D01*
X32848223Y-59673223D01*
X32870719Y-59658191D01*
X32884303Y-59644608D01*
X32904191Y-59635826D01*
X32929329Y-59619030D01*
X32952808Y-59614359D01*
X32969959Y-59606787D01*
X33020151Y-59600964D01*
X33025000Y-59600000D01*
X33850000Y-59600000D01*
X33854850Y-59600964D01*
G37*
G36*
X36979850Y-59600964D02*
G01*
X37030040Y-59606787D01*
X37047189Y-59614359D01*
X37070671Y-59619030D01*
X37095810Y-59635827D01*
X37115696Y-59644608D01*
X37129277Y-59658189D01*
X37151777Y-59673223D01*
X37166810Y-59695722D01*
X37180391Y-59709303D01*
X37189170Y-59729186D01*
X37205970Y-59754329D01*
X37210641Y-59777812D01*
X37218212Y-59794959D01*
X37224033Y-59845139D01*
X37225000Y-59850000D01*
X37225000Y-61150000D01*
X37224032Y-61154863D01*
X37218212Y-61205040D01*
X37210641Y-61222185D01*
X37205970Y-61245671D01*
X37189169Y-61270815D01*
X37180391Y-61290696D01*
X37166812Y-61304274D01*
X37151777Y-61326777D01*
X37129274Y-61341812D01*
X37115696Y-61355391D01*
X37095815Y-61364169D01*
X37070671Y-61380970D01*
X37047185Y-61385641D01*
X37030040Y-61393212D01*
X36979861Y-61399032D01*
X36975000Y-61400000D01*
X36150000Y-61400000D01*
X36145138Y-61399032D01*
X36094959Y-61393212D01*
X36077812Y-61385641D01*
X36054329Y-61380970D01*
X36029186Y-61364170D01*
X36009303Y-61355391D01*
X35995722Y-61341810D01*
X35973223Y-61326777D01*
X35958189Y-61304277D01*
X35944608Y-61290696D01*
X35935827Y-61270810D01*
X35919030Y-61245671D01*
X35914359Y-61222189D01*
X35906787Y-61205040D01*
X35900964Y-61154849D01*
X35900000Y-61150000D01*
X35900000Y-59850000D01*
X35900964Y-59845150D01*
X35906787Y-59794959D01*
X35914359Y-59777808D01*
X35919030Y-59754329D01*
X35935826Y-59729191D01*
X35944608Y-59709303D01*
X35958191Y-59695719D01*
X35973223Y-59673223D01*
X35995719Y-59658191D01*
X36009303Y-59644608D01*
X36029191Y-59635826D01*
X36054329Y-59619030D01*
X36077808Y-59614359D01*
X36094959Y-59606787D01*
X36145151Y-59600964D01*
X36150000Y-59600000D01*
X36975000Y-59600000D01*
X36979850Y-59600964D01*
G37*
G36*
X31465000Y-61080000D02*
G01*
X30305000Y-61080000D01*
X30305000Y-60780000D01*
X31465000Y-60780000D01*
X31465000Y-61080000D01*
G37*
G36*
X57750000Y-60650000D02*
G01*
X57250000Y-60650000D01*
X57250000Y-58650000D01*
X57750000Y-58650000D01*
X57750000Y-60650000D01*
G37*
G36*
X31465000Y-60580000D02*
G01*
X30305000Y-60580000D01*
X30305000Y-60280000D01*
X31465000Y-60280000D01*
X31465000Y-60580000D01*
G37*
G36*
X82550000Y-60500000D02*
G01*
X80050000Y-60500000D01*
X80050000Y-59500000D01*
X82550000Y-59500000D01*
X82550000Y-60500000D01*
G37*
G36*
X97750000Y-60500000D02*
G01*
X95250000Y-60500000D01*
X95250000Y-59500000D01*
X97750000Y-59500000D01*
X97750000Y-60500000D01*
G37*
G36*
X31465000Y-60080000D02*
G01*
X30305000Y-60080000D01*
X30305000Y-59780000D01*
X31465000Y-59780000D01*
X31465000Y-60080000D01*
G37*
G36*
X40480071Y-58450738D02*
G01*
X40542973Y-58456637D01*
X40558968Y-58462234D01*
X40582001Y-58465590D01*
X40615852Y-58482139D01*
X40649909Y-58494056D01*
X40668902Y-58508073D01*
X40692904Y-58519807D01*
X40715730Y-58542633D01*
X40739686Y-58560313D01*
X40757365Y-58584268D01*
X40780193Y-58607096D01*
X40791927Y-58631099D01*
X40805943Y-58650090D01*
X40817858Y-58684142D01*
X40834410Y-58717999D01*
X40837766Y-58741034D01*
X40843362Y-58757026D01*
X40849258Y-58819912D01*
X40850000Y-58825000D01*
X40850000Y-59575000D01*
X40849258Y-59580091D01*
X40843362Y-59642973D01*
X40837766Y-59658963D01*
X40834410Y-59682001D01*
X40817857Y-59715859D01*
X40805943Y-59749909D01*
X40791928Y-59768898D01*
X40780193Y-59792904D01*
X40757362Y-59815734D01*
X40739686Y-59839686D01*
X40715734Y-59857362D01*
X40692904Y-59880193D01*
X40668898Y-59891928D01*
X40649909Y-59905943D01*
X40615859Y-59917857D01*
X40582001Y-59934410D01*
X40558963Y-59937766D01*
X40542973Y-59943362D01*
X40480089Y-59949258D01*
X40475000Y-59950000D01*
X39225000Y-59950000D01*
X39219910Y-59949258D01*
X39157026Y-59943362D01*
X39141034Y-59937766D01*
X39117999Y-59934410D01*
X39084142Y-59917858D01*
X39050090Y-59905943D01*
X39031099Y-59891927D01*
X39007096Y-59880193D01*
X38984268Y-59857365D01*
X38960313Y-59839686D01*
X38942633Y-59815730D01*
X38919807Y-59792904D01*
X38908073Y-59768902D01*
X38894056Y-59749909D01*
X38882139Y-59715852D01*
X38865590Y-59682001D01*
X38862234Y-59658968D01*
X38856637Y-59642973D01*
X38850738Y-59580070D01*
X38850000Y-59575000D01*
X38850000Y-58825000D01*
X38850738Y-58819930D01*
X38856637Y-58757026D01*
X38862234Y-58741029D01*
X38865590Y-58717999D01*
X38882137Y-58684149D01*
X38894056Y-58650090D01*
X38908074Y-58631095D01*
X38919807Y-58607096D01*
X38942630Y-58584272D01*
X38960313Y-58560313D01*
X38984272Y-58542630D01*
X39007096Y-58519807D01*
X39031095Y-58508074D01*
X39050090Y-58494056D01*
X39084149Y-58482137D01*
X39117999Y-58465590D01*
X39141029Y-58462234D01*
X39157026Y-58456637D01*
X39219931Y-58450738D01*
X39225000Y-58450000D01*
X40475000Y-58450000D01*
X40480071Y-58450738D01*
G37*
G36*
X62804850Y-58125964D02*
G01*
X62855040Y-58131787D01*
X62872189Y-58139359D01*
X62895671Y-58144030D01*
X62920810Y-58160827D01*
X62940696Y-58169608D01*
X62954277Y-58183189D01*
X62976777Y-58198223D01*
X62991810Y-58220722D01*
X63005391Y-58234303D01*
X63014170Y-58254186D01*
X63030970Y-58279329D01*
X63035641Y-58302812D01*
X63043212Y-58319959D01*
X63049033Y-58370139D01*
X63050000Y-58375000D01*
X63050000Y-59625000D01*
X63049032Y-59629863D01*
X63043212Y-59680040D01*
X63035641Y-59697185D01*
X63030970Y-59720671D01*
X63014169Y-59745815D01*
X63005391Y-59765696D01*
X62991812Y-59779274D01*
X62976777Y-59801777D01*
X62954274Y-59816812D01*
X62940696Y-59830391D01*
X62920815Y-59839169D01*
X62895671Y-59855970D01*
X62872185Y-59860641D01*
X62855040Y-59868212D01*
X62804861Y-59874032D01*
X62800000Y-59875000D01*
X62000000Y-59875000D01*
X61995138Y-59874032D01*
X61944959Y-59868212D01*
X61927812Y-59860641D01*
X61904329Y-59855970D01*
X61879186Y-59839170D01*
X61859303Y-59830391D01*
X61845722Y-59816810D01*
X61823223Y-59801777D01*
X61808189Y-59779277D01*
X61794608Y-59765696D01*
X61785827Y-59745810D01*
X61769030Y-59720671D01*
X61764359Y-59697189D01*
X61756787Y-59680040D01*
X61750964Y-59629849D01*
X61750000Y-59625000D01*
X61750000Y-58375000D01*
X61750964Y-58370150D01*
X61756787Y-58319959D01*
X61764359Y-58302808D01*
X61769030Y-58279329D01*
X61785826Y-58254191D01*
X61794608Y-58234303D01*
X61808191Y-58220719D01*
X61823223Y-58198223D01*
X61845719Y-58183191D01*
X61859303Y-58169608D01*
X61879191Y-58160826D01*
X61904329Y-58144030D01*
X61927808Y-58139359D01*
X61944959Y-58131787D01*
X61995151Y-58125964D01*
X62000000Y-58125000D01*
X62800000Y-58125000D01*
X62804850Y-58125964D01*
G37*
G36*
X65904850Y-58125964D02*
G01*
X65955040Y-58131787D01*
X65972189Y-58139359D01*
X65995671Y-58144030D01*
X66020810Y-58160827D01*
X66040696Y-58169608D01*
X66054277Y-58183189D01*
X66076777Y-58198223D01*
X66091810Y-58220722D01*
X66105391Y-58234303D01*
X66114170Y-58254186D01*
X66130970Y-58279329D01*
X66135641Y-58302812D01*
X66143212Y-58319959D01*
X66149033Y-58370139D01*
X66150000Y-58375000D01*
X66150000Y-59625000D01*
X66149032Y-59629863D01*
X66143212Y-59680040D01*
X66135641Y-59697185D01*
X66130970Y-59720671D01*
X66114169Y-59745815D01*
X66105391Y-59765696D01*
X66091812Y-59779274D01*
X66076777Y-59801777D01*
X66054274Y-59816812D01*
X66040696Y-59830391D01*
X66020815Y-59839169D01*
X65995671Y-59855970D01*
X65972185Y-59860641D01*
X65955040Y-59868212D01*
X65904861Y-59874032D01*
X65900000Y-59875000D01*
X65100000Y-59875000D01*
X65095138Y-59874032D01*
X65044959Y-59868212D01*
X65027812Y-59860641D01*
X65004329Y-59855970D01*
X64979186Y-59839170D01*
X64959303Y-59830391D01*
X64945722Y-59816810D01*
X64923223Y-59801777D01*
X64908189Y-59779277D01*
X64894608Y-59765696D01*
X64885827Y-59745810D01*
X64869030Y-59720671D01*
X64864359Y-59697189D01*
X64856787Y-59680040D01*
X64850964Y-59629849D01*
X64850000Y-59625000D01*
X64850000Y-58375000D01*
X64850964Y-58370150D01*
X64856787Y-58319959D01*
X64864359Y-58302808D01*
X64869030Y-58279329D01*
X64885826Y-58254191D01*
X64894608Y-58234303D01*
X64908191Y-58220719D01*
X64923223Y-58198223D01*
X64945719Y-58183191D01*
X64959303Y-58169608D01*
X64979191Y-58160826D01*
X65004329Y-58144030D01*
X65027808Y-58139359D01*
X65044959Y-58131787D01*
X65095151Y-58125964D01*
X65100000Y-58125000D01*
X65900000Y-58125000D01*
X65904850Y-58125964D01*
G37*
G36*
X73654850Y-58400964D02*
G01*
X73705040Y-58406787D01*
X73722189Y-58414359D01*
X73745671Y-58419030D01*
X73770810Y-58435827D01*
X73790696Y-58444608D01*
X73804277Y-58458189D01*
X73826777Y-58473223D01*
X73841810Y-58495722D01*
X73855391Y-58509303D01*
X73864170Y-58529186D01*
X73880970Y-58554329D01*
X73885641Y-58577812D01*
X73893212Y-58594959D01*
X73899033Y-58645139D01*
X73900000Y-58650000D01*
X73900000Y-59475000D01*
X73899032Y-59479863D01*
X73893212Y-59530040D01*
X73885641Y-59547185D01*
X73880970Y-59570671D01*
X73864169Y-59595815D01*
X73855391Y-59615696D01*
X73841812Y-59629274D01*
X73826777Y-59651777D01*
X73804274Y-59666812D01*
X73790696Y-59680391D01*
X73770815Y-59689169D01*
X73745671Y-59705970D01*
X73722185Y-59710641D01*
X73705040Y-59718212D01*
X73654861Y-59724032D01*
X73650000Y-59725000D01*
X72350000Y-59725000D01*
X72345138Y-59724032D01*
X72294959Y-59718212D01*
X72277812Y-59710641D01*
X72254329Y-59705970D01*
X72229186Y-59689170D01*
X72209303Y-59680391D01*
X72195722Y-59666810D01*
X72173223Y-59651777D01*
X72158189Y-59629277D01*
X72144608Y-59615696D01*
X72135827Y-59595810D01*
X72119030Y-59570671D01*
X72114359Y-59547189D01*
X72106787Y-59530040D01*
X72100964Y-59479849D01*
X72100000Y-59475000D01*
X72100000Y-58650000D01*
X72100964Y-58645150D01*
X72106787Y-58594959D01*
X72114359Y-58577808D01*
X72119030Y-58554329D01*
X72135826Y-58529191D01*
X72144608Y-58509303D01*
X72158191Y-58495719D01*
X72173223Y-58473223D01*
X72195719Y-58458191D01*
X72209303Y-58444608D01*
X72229191Y-58435826D01*
X72254329Y-58419030D01*
X72277808Y-58414359D01*
X72294959Y-58406787D01*
X72345151Y-58400964D01*
X72350000Y-58400000D01*
X73650000Y-58400000D01*
X73654850Y-58400964D01*
G37*
G36*
X60654850Y-58275964D02*
G01*
X60705040Y-58281787D01*
X60722189Y-58289359D01*
X60745671Y-58294030D01*
X60770810Y-58310827D01*
X60790696Y-58319608D01*
X60804277Y-58333189D01*
X60826777Y-58348223D01*
X60841810Y-58370722D01*
X60855391Y-58384303D01*
X60864170Y-58404186D01*
X60880970Y-58429329D01*
X60885641Y-58452812D01*
X60893212Y-58469959D01*
X60899033Y-58520139D01*
X60900000Y-58525000D01*
X60900000Y-59350000D01*
X60899032Y-59354863D01*
X60893212Y-59405040D01*
X60885641Y-59422185D01*
X60880970Y-59445671D01*
X60864169Y-59470815D01*
X60855391Y-59490696D01*
X60841812Y-59504274D01*
X60826777Y-59526777D01*
X60804274Y-59541812D01*
X60790696Y-59555391D01*
X60770815Y-59564169D01*
X60745671Y-59580970D01*
X60722185Y-59585641D01*
X60705040Y-59593212D01*
X60654861Y-59599032D01*
X60650000Y-59600000D01*
X59350000Y-59600000D01*
X59345138Y-59599032D01*
X59294959Y-59593212D01*
X59277812Y-59585641D01*
X59254329Y-59580970D01*
X59229186Y-59564170D01*
X59209303Y-59555391D01*
X59195722Y-59541810D01*
X59173223Y-59526777D01*
X59158189Y-59504277D01*
X59144608Y-59490696D01*
X59135827Y-59470810D01*
X59119030Y-59445671D01*
X59114359Y-59422189D01*
X59106787Y-59405040D01*
X59100964Y-59354849D01*
X59100000Y-59350000D01*
X59100000Y-58525000D01*
X59100964Y-58520150D01*
X59106787Y-58469959D01*
X59114359Y-58452808D01*
X59119030Y-58429329D01*
X59135826Y-58404191D01*
X59144608Y-58384303D01*
X59158191Y-58370719D01*
X59173223Y-58348223D01*
X59195719Y-58333191D01*
X59209303Y-58319608D01*
X59229191Y-58310826D01*
X59254329Y-58294030D01*
X59277808Y-58289359D01*
X59294959Y-58281787D01*
X59345151Y-58275964D01*
X59350000Y-58275000D01*
X60650000Y-58275000D01*
X60654850Y-58275964D01*
G37*
G36*
X31465000Y-59580000D02*
G01*
X30305000Y-59580000D01*
X30305000Y-59280000D01*
X31465000Y-59280000D01*
X31465000Y-59580000D01*
G37*
G36*
X48917350Y-57600964D02*
G01*
X48967540Y-57606787D01*
X48984689Y-57614359D01*
X49008171Y-57619030D01*
X49033310Y-57635827D01*
X49053196Y-57644608D01*
X49066777Y-57658189D01*
X49089277Y-57673223D01*
X49104310Y-57695722D01*
X49117891Y-57709303D01*
X49126670Y-57729186D01*
X49143470Y-57754329D01*
X49148141Y-57777812D01*
X49155712Y-57794959D01*
X49161533Y-57845139D01*
X49162500Y-57850000D01*
X49162500Y-59150000D01*
X49161532Y-59154863D01*
X49155712Y-59205040D01*
X49148141Y-59222185D01*
X49143470Y-59245671D01*
X49126669Y-59270815D01*
X49117891Y-59290696D01*
X49104312Y-59304274D01*
X49089277Y-59326777D01*
X49066774Y-59341812D01*
X49053196Y-59355391D01*
X49033315Y-59364169D01*
X49008171Y-59380970D01*
X48984685Y-59385641D01*
X48967540Y-59393212D01*
X48917361Y-59399032D01*
X48912500Y-59400000D01*
X48087500Y-59400000D01*
X48082638Y-59399032D01*
X48032459Y-59393212D01*
X48015312Y-59385641D01*
X47991829Y-59380970D01*
X47966686Y-59364170D01*
X47946803Y-59355391D01*
X47933222Y-59341810D01*
X47910723Y-59326777D01*
X47895689Y-59304277D01*
X47882108Y-59290696D01*
X47873327Y-59270810D01*
X47856530Y-59245671D01*
X47851859Y-59222189D01*
X47844287Y-59205040D01*
X47838464Y-59154849D01*
X47837500Y-59150000D01*
X47837500Y-57850000D01*
X47838464Y-57845150D01*
X47844287Y-57794959D01*
X47851859Y-57777808D01*
X47856530Y-57754329D01*
X47873326Y-57729191D01*
X47882108Y-57709303D01*
X47895691Y-57695719D01*
X47910723Y-57673223D01*
X47933219Y-57658191D01*
X47946803Y-57644608D01*
X47966691Y-57635826D01*
X47991829Y-57619030D01*
X48015308Y-57614359D01*
X48032459Y-57606787D01*
X48082651Y-57600964D01*
X48087500Y-57600000D01*
X48912500Y-57600000D01*
X48917350Y-57600964D01*
G37*
G36*
X52042350Y-57600964D02*
G01*
X52092540Y-57606787D01*
X52109689Y-57614359D01*
X52133171Y-57619030D01*
X52158310Y-57635827D01*
X52178196Y-57644608D01*
X52191777Y-57658189D01*
X52214277Y-57673223D01*
X52229310Y-57695722D01*
X52242891Y-57709303D01*
X52251670Y-57729186D01*
X52268470Y-57754329D01*
X52273141Y-57777812D01*
X52280712Y-57794959D01*
X52286533Y-57845139D01*
X52287500Y-57850000D01*
X52287500Y-59150000D01*
X52286532Y-59154863D01*
X52280712Y-59205040D01*
X52273141Y-59222185D01*
X52268470Y-59245671D01*
X52251669Y-59270815D01*
X52242891Y-59290696D01*
X52229312Y-59304274D01*
X52214277Y-59326777D01*
X52191774Y-59341812D01*
X52178196Y-59355391D01*
X52158315Y-59364169D01*
X52133171Y-59380970D01*
X52109685Y-59385641D01*
X52092540Y-59393212D01*
X52042361Y-59399032D01*
X52037500Y-59400000D01*
X51212500Y-59400000D01*
X51207638Y-59399032D01*
X51157459Y-59393212D01*
X51140312Y-59385641D01*
X51116829Y-59380970D01*
X51091686Y-59364170D01*
X51071803Y-59355391D01*
X51058222Y-59341810D01*
X51035723Y-59326777D01*
X51020689Y-59304277D01*
X51007108Y-59290696D01*
X50998327Y-59270810D01*
X50981530Y-59245671D01*
X50976859Y-59222189D01*
X50969287Y-59205040D01*
X50963464Y-59154849D01*
X50962500Y-59150000D01*
X50962500Y-57850000D01*
X50963464Y-57845150D01*
X50969287Y-57794959D01*
X50976859Y-57777808D01*
X50981530Y-57754329D01*
X50998326Y-57729191D01*
X51007108Y-57709303D01*
X51020691Y-57695719D01*
X51035723Y-57673223D01*
X51058219Y-57658191D01*
X51071803Y-57644608D01*
X51091691Y-57635826D01*
X51116829Y-57619030D01*
X51140308Y-57614359D01*
X51157459Y-57606787D01*
X51207651Y-57600964D01*
X51212500Y-57600000D01*
X52037500Y-57600000D01*
X52042350Y-57600964D01*
G37*
G36*
X142126824Y-56638682D02*
G01*
X142335757Y-56706569D01*
X142531498Y-56806304D01*
X142709227Y-56935432D01*
X142864568Y-57090773D01*
X142993696Y-57268502D01*
X143093431Y-57464243D01*
X143161318Y-57673176D01*
X143195684Y-57890157D01*
X143195684Y-58109843D01*
X143161318Y-58326824D01*
X143093431Y-58535757D01*
X142993696Y-58731498D01*
X142864568Y-58909227D01*
X142709227Y-59064568D01*
X142531498Y-59193696D01*
X142335757Y-59293431D01*
X142126824Y-59361318D01*
X141909843Y-59395684D01*
X141690157Y-59395684D01*
X141473176Y-59361318D01*
X141264243Y-59293431D01*
X141068502Y-59193696D01*
X140890773Y-59064568D01*
X140735432Y-58909227D01*
X140606304Y-58731498D01*
X140506569Y-58535757D01*
X140438682Y-58326824D01*
X140404316Y-58109843D01*
X140404316Y-57890157D01*
X140438682Y-57673176D01*
X140506569Y-57464243D01*
X140606304Y-57268502D01*
X140735432Y-57090773D01*
X140890773Y-56935432D01*
X141068502Y-56806304D01*
X141264243Y-56706569D01*
X141473176Y-56638682D01*
X141690157Y-56604316D01*
X141909843Y-56604316D01*
X142126824Y-56638682D01*
G37*
G36*
X153326824Y-56638682D02*
G01*
X153535757Y-56706569D01*
X153731498Y-56806304D01*
X153909227Y-56935432D01*
X154064568Y-57090773D01*
X154193696Y-57268502D01*
X154293431Y-57464243D01*
X154361318Y-57673176D01*
X154395684Y-57890157D01*
X154395684Y-58109843D01*
X154361318Y-58326824D01*
X154293431Y-58535757D01*
X154193696Y-58731498D01*
X154064568Y-58909227D01*
X153909227Y-59064568D01*
X153731498Y-59193696D01*
X153535757Y-59293431D01*
X153326824Y-59361318D01*
X153109843Y-59395684D01*
X152890157Y-59395684D01*
X152673176Y-59361318D01*
X152464243Y-59293431D01*
X152268502Y-59193696D01*
X152090773Y-59064568D01*
X151935432Y-58909227D01*
X151806304Y-58731498D01*
X151706569Y-58535757D01*
X151638682Y-58326824D01*
X151604316Y-58109843D01*
X151604316Y-57890157D01*
X151638682Y-57673176D01*
X151706569Y-57464243D01*
X151806304Y-57268502D01*
X151935432Y-57090773D01*
X152090773Y-56935432D01*
X152268502Y-56806304D01*
X152464243Y-56706569D01*
X152673176Y-56638682D01*
X152890157Y-56604316D01*
X153109843Y-56604316D01*
X153326824Y-56638682D01*
G37*
G36*
X68398918Y-58279758D02*
G01*
X68419194Y-58293306D01*
X68432742Y-58313582D01*
X68437500Y-58337500D01*
X68437500Y-59037500D01*
X68432742Y-59061418D01*
X68419194Y-59081694D01*
X68398918Y-59095242D01*
X68375000Y-59100000D01*
X68250000Y-59100000D01*
X68226082Y-59095242D01*
X68205806Y-59081694D01*
X68192258Y-59061418D01*
X68187500Y-59037500D01*
X68187500Y-58337500D01*
X68192258Y-58313582D01*
X68205806Y-58293306D01*
X68226082Y-58279758D01*
X68250000Y-58275000D01*
X68375000Y-58275000D01*
X68398918Y-58279758D01*
G37*
G36*
X68898918Y-58279758D02*
G01*
X68919194Y-58293306D01*
X68932742Y-58313582D01*
X68937500Y-58337500D01*
X68937500Y-59037500D01*
X68932742Y-59061418D01*
X68919194Y-59081694D01*
X68898918Y-59095242D01*
X68875000Y-59100000D01*
X68750000Y-59100000D01*
X68726082Y-59095242D01*
X68705806Y-59081694D01*
X68692258Y-59061418D01*
X68687500Y-59037500D01*
X68687500Y-58337500D01*
X68692258Y-58313582D01*
X68705806Y-58293306D01*
X68726082Y-58279758D01*
X68750000Y-58275000D01*
X68875000Y-58275000D01*
X68898918Y-58279758D01*
G37*
G36*
X69398918Y-58279758D02*
G01*
X69419194Y-58293306D01*
X69432742Y-58313582D01*
X69437500Y-58337500D01*
X69437500Y-59037500D01*
X69432742Y-59061418D01*
X69419194Y-59081694D01*
X69398918Y-59095242D01*
X69375000Y-59100000D01*
X69250000Y-59100000D01*
X69226082Y-59095242D01*
X69205806Y-59081694D01*
X69192258Y-59061418D01*
X69187500Y-59037500D01*
X69187500Y-58337500D01*
X69192258Y-58313582D01*
X69205806Y-58293306D01*
X69226082Y-58279758D01*
X69250000Y-58275000D01*
X69375000Y-58275000D01*
X69398918Y-58279758D01*
G37*
G36*
X69898918Y-58279758D02*
G01*
X69919194Y-58293306D01*
X69932742Y-58313582D01*
X69937500Y-58337500D01*
X69937500Y-59037500D01*
X69932742Y-59061418D01*
X69919194Y-59081694D01*
X69898918Y-59095242D01*
X69875000Y-59100000D01*
X69750000Y-59100000D01*
X69726082Y-59095242D01*
X69705806Y-59081694D01*
X69692258Y-59061418D01*
X69687500Y-59037500D01*
X69687500Y-58337500D01*
X69692258Y-58313582D01*
X69705806Y-58293306D01*
X69726082Y-58279758D01*
X69750000Y-58275000D01*
X69875000Y-58275000D01*
X69898918Y-58279758D01*
G37*
G36*
X31465000Y-59080000D02*
G01*
X30305000Y-59080000D01*
X30305000Y-58480000D01*
X31465000Y-58480000D01*
X31465000Y-59080000D01*
G37*
G36*
X33654850Y-57150964D02*
G01*
X33705040Y-57156787D01*
X33722189Y-57164359D01*
X33745671Y-57169030D01*
X33770810Y-57185827D01*
X33790696Y-57194608D01*
X33804277Y-57208189D01*
X33826777Y-57223223D01*
X33841810Y-57245722D01*
X33855391Y-57259303D01*
X33864170Y-57279186D01*
X33880970Y-57304329D01*
X33885641Y-57327812D01*
X33893212Y-57344959D01*
X33899033Y-57395139D01*
X33900000Y-57400000D01*
X33900000Y-58600000D01*
X33899032Y-58604863D01*
X33893212Y-58655040D01*
X33885641Y-58672185D01*
X33880970Y-58695671D01*
X33864169Y-58720815D01*
X33855391Y-58740696D01*
X33841812Y-58754274D01*
X33826777Y-58776777D01*
X33804274Y-58791812D01*
X33790696Y-58805391D01*
X33770815Y-58814169D01*
X33745671Y-58830970D01*
X33722185Y-58835641D01*
X33705040Y-58843212D01*
X33654861Y-58849032D01*
X33650000Y-58850000D01*
X32850000Y-58850000D01*
X32845138Y-58849032D01*
X32794959Y-58843212D01*
X32777812Y-58835641D01*
X32754329Y-58830970D01*
X32729186Y-58814170D01*
X32709303Y-58805391D01*
X32695722Y-58791810D01*
X32673223Y-58776777D01*
X32658189Y-58754277D01*
X32644608Y-58740696D01*
X32635827Y-58720810D01*
X32619030Y-58695671D01*
X32614359Y-58672189D01*
X32606787Y-58655040D01*
X32600964Y-58604849D01*
X32600000Y-58600000D01*
X32600000Y-57400000D01*
X32600964Y-57395150D01*
X32606787Y-57344959D01*
X32614359Y-57327808D01*
X32619030Y-57304329D01*
X32635826Y-57279191D01*
X32644608Y-57259303D01*
X32658191Y-57245719D01*
X32673223Y-57223223D01*
X32695719Y-57208191D01*
X32709303Y-57194608D01*
X32729191Y-57185826D01*
X32754329Y-57169030D01*
X32777808Y-57164359D01*
X32794959Y-57156787D01*
X32845151Y-57150964D01*
X32850000Y-57150000D01*
X33650000Y-57150000D01*
X33654850Y-57150964D01*
G37*
G36*
X37154850Y-57150964D02*
G01*
X37205040Y-57156787D01*
X37222189Y-57164359D01*
X37245671Y-57169030D01*
X37270810Y-57185827D01*
X37290696Y-57194608D01*
X37304277Y-57208189D01*
X37326777Y-57223223D01*
X37341810Y-57245722D01*
X37355391Y-57259303D01*
X37364170Y-57279186D01*
X37380970Y-57304329D01*
X37385641Y-57327812D01*
X37393212Y-57344959D01*
X37399033Y-57395139D01*
X37400000Y-57400000D01*
X37400000Y-58600000D01*
X37399032Y-58604863D01*
X37393212Y-58655040D01*
X37385641Y-58672185D01*
X37380970Y-58695671D01*
X37364169Y-58720815D01*
X37355391Y-58740696D01*
X37341812Y-58754274D01*
X37326777Y-58776777D01*
X37304274Y-58791812D01*
X37290696Y-58805391D01*
X37270815Y-58814169D01*
X37245671Y-58830970D01*
X37222185Y-58835641D01*
X37205040Y-58843212D01*
X37154861Y-58849032D01*
X37150000Y-58850000D01*
X36350000Y-58850000D01*
X36345138Y-58849032D01*
X36294959Y-58843212D01*
X36277812Y-58835641D01*
X36254329Y-58830970D01*
X36229186Y-58814170D01*
X36209303Y-58805391D01*
X36195722Y-58791810D01*
X36173223Y-58776777D01*
X36158189Y-58754277D01*
X36144608Y-58740696D01*
X36135827Y-58720810D01*
X36119030Y-58695671D01*
X36114359Y-58672189D01*
X36106787Y-58655040D01*
X36100964Y-58604849D01*
X36100000Y-58600000D01*
X36100000Y-57400000D01*
X36100964Y-57395150D01*
X36106787Y-57344959D01*
X36114359Y-57327808D01*
X36119030Y-57304329D01*
X36135826Y-57279191D01*
X36144608Y-57259303D01*
X36158191Y-57245719D01*
X36173223Y-57223223D01*
X36195719Y-57208191D01*
X36209303Y-57194608D01*
X36229191Y-57185826D01*
X36254329Y-57169030D01*
X36277808Y-57164359D01*
X36294959Y-57156787D01*
X36345151Y-57150964D01*
X36350000Y-57150000D01*
X37150000Y-57150000D01*
X37154850Y-57150964D01*
G37*
G36*
X29939805Y-58012836D02*
G01*
X30007628Y-58051994D01*
X30063006Y-58107372D01*
X30102164Y-58175195D01*
X30122433Y-58250842D01*
X30122433Y-58329158D01*
X30102164Y-58404805D01*
X30063006Y-58472628D01*
X30007628Y-58528006D01*
X29939805Y-58567164D01*
X29864158Y-58587433D01*
X29785842Y-58587433D01*
X29710195Y-58567164D01*
X29642372Y-58528006D01*
X29586994Y-58472628D01*
X29547836Y-58404805D01*
X29527567Y-58329158D01*
X29527567Y-58250842D01*
X29547836Y-58175195D01*
X29586994Y-58107372D01*
X29642372Y-58051994D01*
X29710195Y-58012836D01*
X29785842Y-57992567D01*
X29864158Y-57992567D01*
X29939805Y-58012836D01*
G37*
G36*
X82550000Y-58500001D02*
G01*
X80050000Y-58500001D01*
X80050000Y-57500001D01*
X82550000Y-57500001D01*
X82550000Y-58500001D01*
G37*
G36*
X97750000Y-58500001D02*
G01*
X95250000Y-58500001D01*
X95250000Y-57500001D01*
X97750000Y-57500001D01*
X97750000Y-58500001D01*
G37*
G36*
X31465000Y-58280000D02*
G01*
X30305000Y-58280000D01*
X30305000Y-57680000D01*
X31465000Y-57680000D01*
X31465000Y-58280000D01*
G37*
G36*
X67998918Y-57879758D02*
G01*
X68019194Y-57893306D01*
X68032742Y-57913582D01*
X68037500Y-57937500D01*
X68037500Y-58062500D01*
X68032742Y-58086418D01*
X68019194Y-58106694D01*
X67998918Y-58120242D01*
X67975000Y-58125000D01*
X67275000Y-58125000D01*
X67251082Y-58120242D01*
X67230806Y-58106694D01*
X67217258Y-58086418D01*
X67212500Y-58062500D01*
X67212500Y-57937500D01*
X67217258Y-57913582D01*
X67230806Y-57893306D01*
X67251082Y-57879758D01*
X67275000Y-57875000D01*
X67975000Y-57875000D01*
X67998918Y-57879758D01*
G37*
G36*
X70873918Y-57879758D02*
G01*
X70894194Y-57893306D01*
X70907742Y-57913582D01*
X70912500Y-57937500D01*
X70912500Y-58062500D01*
X70907742Y-58086418D01*
X70894194Y-58106694D01*
X70873918Y-58120242D01*
X70850000Y-58125000D01*
X70150000Y-58125000D01*
X70126082Y-58120242D01*
X70105806Y-58106694D01*
X70092258Y-58086418D01*
X70087500Y-58062500D01*
X70087500Y-57937500D01*
X70092258Y-57913582D01*
X70105806Y-57893306D01*
X70126082Y-57879758D01*
X70150000Y-57875000D01*
X70850000Y-57875000D01*
X70873918Y-57879758D01*
G37*
G36*
X69677500Y-57865000D02*
G01*
X68447500Y-57865000D01*
X68447500Y-56635000D01*
X69677500Y-56635000D01*
X69677500Y-57865000D01*
G37*
G36*
X67998918Y-57379758D02*
G01*
X68019194Y-57393306D01*
X68032742Y-57413582D01*
X68037500Y-57437500D01*
X68037500Y-57562500D01*
X68032742Y-57586418D01*
X68019194Y-57606694D01*
X67998918Y-57620242D01*
X67975000Y-57625000D01*
X67275000Y-57625000D01*
X67251082Y-57620242D01*
X67230806Y-57606694D01*
X67217258Y-57586418D01*
X67212500Y-57562500D01*
X67212500Y-57437500D01*
X67217258Y-57413582D01*
X67230806Y-57393306D01*
X67251082Y-57379758D01*
X67275000Y-57375000D01*
X67975000Y-57375000D01*
X67998918Y-57379758D01*
G37*
G36*
X70873918Y-57379758D02*
G01*
X70894194Y-57393306D01*
X70907742Y-57413582D01*
X70912500Y-57437500D01*
X70912500Y-57562500D01*
X70907742Y-57586418D01*
X70894194Y-57606694D01*
X70873918Y-57620242D01*
X70850000Y-57625000D01*
X70150000Y-57625000D01*
X70126082Y-57620242D01*
X70105806Y-57606694D01*
X70092258Y-57586418D01*
X70087500Y-57562500D01*
X70087500Y-57437500D01*
X70092258Y-57413582D01*
X70105806Y-57393306D01*
X70126082Y-57379758D01*
X70150000Y-57375000D01*
X70850000Y-57375000D01*
X70873918Y-57379758D01*
G37*
G36*
X62804850Y-55625964D02*
G01*
X62855040Y-55631787D01*
X62872189Y-55639359D01*
X62895671Y-55644030D01*
X62920810Y-55660827D01*
X62940696Y-55669608D01*
X62954277Y-55683189D01*
X62976777Y-55698223D01*
X62991810Y-55720722D01*
X63005391Y-55734303D01*
X63014170Y-55754186D01*
X63030970Y-55779329D01*
X63035641Y-55802812D01*
X63043212Y-55819959D01*
X63049033Y-55870139D01*
X63050000Y-55875000D01*
X63050000Y-57125000D01*
X63049032Y-57129863D01*
X63043212Y-57180040D01*
X63035641Y-57197185D01*
X63030970Y-57220671D01*
X63014169Y-57245815D01*
X63005391Y-57265696D01*
X62991812Y-57279274D01*
X62976777Y-57301777D01*
X62954274Y-57316812D01*
X62940696Y-57330391D01*
X62920815Y-57339169D01*
X62895671Y-57355970D01*
X62872185Y-57360641D01*
X62855040Y-57368212D01*
X62804861Y-57374032D01*
X62800000Y-57375000D01*
X62000000Y-57375000D01*
X61995138Y-57374032D01*
X61944959Y-57368212D01*
X61927812Y-57360641D01*
X61904329Y-57355970D01*
X61879186Y-57339170D01*
X61859303Y-57330391D01*
X61845722Y-57316810D01*
X61823223Y-57301777D01*
X61808189Y-57279277D01*
X61794608Y-57265696D01*
X61785827Y-57245810D01*
X61769030Y-57220671D01*
X61764359Y-57197189D01*
X61756787Y-57180040D01*
X61750964Y-57129849D01*
X61750000Y-57125000D01*
X61750000Y-55875000D01*
X61750964Y-55870150D01*
X61756787Y-55819959D01*
X61764359Y-55802808D01*
X61769030Y-55779329D01*
X61785826Y-55754191D01*
X61794608Y-55734303D01*
X61808191Y-55720719D01*
X61823223Y-55698223D01*
X61845719Y-55683191D01*
X61859303Y-55669608D01*
X61879191Y-55660826D01*
X61904329Y-55644030D01*
X61927808Y-55639359D01*
X61944959Y-55631787D01*
X61995151Y-55625964D01*
X62000000Y-55625000D01*
X62800000Y-55625000D01*
X62804850Y-55625964D01*
G37*
G36*
X65904850Y-55625964D02*
G01*
X65955040Y-55631787D01*
X65972189Y-55639359D01*
X65995671Y-55644030D01*
X66020810Y-55660827D01*
X66040696Y-55669608D01*
X66054277Y-55683189D01*
X66076777Y-55698223D01*
X66091810Y-55720722D01*
X66105391Y-55734303D01*
X66114170Y-55754186D01*
X66130970Y-55779329D01*
X66135641Y-55802812D01*
X66143212Y-55819959D01*
X66149033Y-55870139D01*
X66150000Y-55875000D01*
X66150000Y-57125000D01*
X66149032Y-57129863D01*
X66143212Y-57180040D01*
X66135641Y-57197185D01*
X66130970Y-57220671D01*
X66114169Y-57245815D01*
X66105391Y-57265696D01*
X66091812Y-57279274D01*
X66076777Y-57301777D01*
X66054274Y-57316812D01*
X66040696Y-57330391D01*
X66020815Y-57339169D01*
X65995671Y-57355970D01*
X65972185Y-57360641D01*
X65955040Y-57368212D01*
X65904861Y-57374032D01*
X65900000Y-57375000D01*
X65100000Y-57375000D01*
X65095138Y-57374032D01*
X65044959Y-57368212D01*
X65027812Y-57360641D01*
X65004329Y-57355970D01*
X64979186Y-57339170D01*
X64959303Y-57330391D01*
X64945722Y-57316810D01*
X64923223Y-57301777D01*
X64908189Y-57279277D01*
X64894608Y-57265696D01*
X64885827Y-57245810D01*
X64869030Y-57220671D01*
X64864359Y-57197189D01*
X64856787Y-57180040D01*
X64850964Y-57129849D01*
X64850000Y-57125000D01*
X64850000Y-55875000D01*
X64850964Y-55870150D01*
X64856787Y-55819959D01*
X64864359Y-55802808D01*
X64869030Y-55779329D01*
X64885826Y-55754191D01*
X64894608Y-55734303D01*
X64908191Y-55720719D01*
X64923223Y-55698223D01*
X64945719Y-55683191D01*
X64959303Y-55669608D01*
X64979191Y-55660826D01*
X65004329Y-55644030D01*
X65027808Y-55639359D01*
X65044959Y-55631787D01*
X65095151Y-55625964D01*
X65100000Y-55625000D01*
X65900000Y-55625000D01*
X65904850Y-55625964D01*
G37*
G36*
X57750000Y-57350000D02*
G01*
X57250000Y-57350000D01*
X57250000Y-55350000D01*
X57750000Y-55350000D01*
X57750000Y-57350000D01*
G37*
G36*
X26593737Y-56413850D02*
G01*
X26707208Y-56444254D01*
X26808943Y-56502991D01*
X26892009Y-56586057D01*
X26950746Y-56687792D01*
X26981150Y-56801263D01*
X26981150Y-56918737D01*
X26950746Y-57032208D01*
X26892009Y-57133943D01*
X26808943Y-57217009D01*
X26707208Y-57275746D01*
X26593737Y-57306150D01*
X26535000Y-57310000D01*
X26533029Y-57310000D01*
X25736971Y-57310000D01*
X25735000Y-57310000D01*
X25676263Y-57306150D01*
X25562792Y-57275746D01*
X25461057Y-57217009D01*
X25377991Y-57133943D01*
X25319254Y-57032208D01*
X25288850Y-56918737D01*
X25288850Y-56801263D01*
X25319254Y-56687792D01*
X25377991Y-56586057D01*
X25461057Y-56502991D01*
X25562792Y-56444254D01*
X25676263Y-56413850D01*
X25735000Y-56410000D01*
X26535000Y-56410000D01*
X26593737Y-56413850D01*
G37*
G36*
X30913737Y-56413850D02*
G01*
X31027208Y-56444254D01*
X31128943Y-56502991D01*
X31212009Y-56586057D01*
X31270746Y-56687792D01*
X31301150Y-56801263D01*
X31301150Y-56918737D01*
X31270746Y-57032208D01*
X31212009Y-57133943D01*
X31128943Y-57217009D01*
X31027208Y-57275746D01*
X30913737Y-57306150D01*
X30855000Y-57310000D01*
X30853029Y-57310000D01*
X29756971Y-57310000D01*
X29755000Y-57310000D01*
X29696263Y-57306150D01*
X29582792Y-57275746D01*
X29481057Y-57217009D01*
X29397991Y-57133943D01*
X29339254Y-57032208D01*
X29308850Y-56918737D01*
X29308850Y-56801263D01*
X29339254Y-56687792D01*
X29397991Y-56586057D01*
X29481057Y-56502991D01*
X29582792Y-56444254D01*
X29696263Y-56413850D01*
X29755000Y-56410000D01*
X30855000Y-56410000D01*
X30913737Y-56413850D01*
G37*
G36*
X60654850Y-55900964D02*
G01*
X60705040Y-55906787D01*
X60722189Y-55914359D01*
X60745671Y-55919030D01*
X60770810Y-55935827D01*
X60790696Y-55944608D01*
X60804277Y-55958189D01*
X60826777Y-55973223D01*
X60841810Y-55995722D01*
X60855391Y-56009303D01*
X60864170Y-56029186D01*
X60880970Y-56054329D01*
X60885641Y-56077812D01*
X60893212Y-56094959D01*
X60899033Y-56145139D01*
X60900000Y-56150000D01*
X60900000Y-56975000D01*
X60899032Y-56979863D01*
X60893212Y-57030040D01*
X60885641Y-57047185D01*
X60880970Y-57070671D01*
X60864169Y-57095815D01*
X60855391Y-57115696D01*
X60841812Y-57129274D01*
X60826777Y-57151777D01*
X60804274Y-57166812D01*
X60790696Y-57180391D01*
X60770815Y-57189169D01*
X60745671Y-57205970D01*
X60722185Y-57210641D01*
X60705040Y-57218212D01*
X60654861Y-57224032D01*
X60650000Y-57225000D01*
X59350000Y-57225000D01*
X59345138Y-57224032D01*
X59294959Y-57218212D01*
X59277812Y-57210641D01*
X59254329Y-57205970D01*
X59229186Y-57189170D01*
X59209303Y-57180391D01*
X59195722Y-57166810D01*
X59173223Y-57151777D01*
X59158189Y-57129277D01*
X59144608Y-57115696D01*
X59135827Y-57095810D01*
X59119030Y-57070671D01*
X59114359Y-57047189D01*
X59106787Y-57030040D01*
X59100964Y-56979849D01*
X59100000Y-56975000D01*
X59100000Y-56150000D01*
X59100964Y-56145150D01*
X59106787Y-56094959D01*
X59114359Y-56077808D01*
X59119030Y-56054329D01*
X59135826Y-56029191D01*
X59144608Y-56009303D01*
X59158191Y-55995719D01*
X59173223Y-55973223D01*
X59195719Y-55958191D01*
X59209303Y-55944608D01*
X59229191Y-55935826D01*
X59254329Y-55919030D01*
X59277808Y-55914359D01*
X59294959Y-55906787D01*
X59345151Y-55900964D01*
X59350000Y-55900000D01*
X60650000Y-55900000D01*
X60654850Y-55900964D01*
G37*
G36*
X67998918Y-56879758D02*
G01*
X68019194Y-56893306D01*
X68032742Y-56913582D01*
X68037500Y-56937500D01*
X68037500Y-57062500D01*
X68032742Y-57086418D01*
X68019194Y-57106694D01*
X67998918Y-57120242D01*
X67975000Y-57125000D01*
X67275000Y-57125000D01*
X67251082Y-57120242D01*
X67230806Y-57106694D01*
X67217258Y-57086418D01*
X67212500Y-57062500D01*
X67212500Y-56937500D01*
X67217258Y-56913582D01*
X67230806Y-56893306D01*
X67251082Y-56879758D01*
X67275000Y-56875000D01*
X67975000Y-56875000D01*
X67998918Y-56879758D01*
G37*
G36*
X70873918Y-56879758D02*
G01*
X70894194Y-56893306D01*
X70907742Y-56913582D01*
X70912500Y-56937500D01*
X70912500Y-57062500D01*
X70907742Y-57086418D01*
X70894194Y-57106694D01*
X70873918Y-57120242D01*
X70850000Y-57125000D01*
X70150000Y-57125000D01*
X70126082Y-57120242D01*
X70105806Y-57106694D01*
X70092258Y-57086418D01*
X70087500Y-57062500D01*
X70087500Y-56937500D01*
X70092258Y-56913582D01*
X70105806Y-56893306D01*
X70126082Y-56879758D01*
X70150000Y-56875000D01*
X70850000Y-56875000D01*
X70873918Y-56879758D01*
G37*
G36*
X40762403Y-55011418D02*
G01*
X40811066Y-55043934D01*
X40843582Y-55092597D01*
X40855000Y-55150000D01*
X40855000Y-56800000D01*
X40843582Y-56857403D01*
X40811066Y-56906066D01*
X40762403Y-56938582D01*
X40705000Y-56950000D01*
X40405000Y-56950000D01*
X40347597Y-56938582D01*
X40298934Y-56906066D01*
X40266418Y-56857403D01*
X40255000Y-56800000D01*
X40255000Y-55150000D01*
X40266418Y-55092597D01*
X40298934Y-55043934D01*
X40347597Y-55011418D01*
X40405000Y-55000000D01*
X40705000Y-55000000D01*
X40762403Y-55011418D01*
G37*
G36*
X42032403Y-55011418D02*
G01*
X42081066Y-55043934D01*
X42113582Y-55092597D01*
X42125000Y-55150000D01*
X42125000Y-56800000D01*
X42113582Y-56857403D01*
X42081066Y-56906066D01*
X42032403Y-56938582D01*
X41975000Y-56950000D01*
X41675000Y-56950000D01*
X41617597Y-56938582D01*
X41568934Y-56906066D01*
X41536418Y-56857403D01*
X41525000Y-56800000D01*
X41525000Y-55150000D01*
X41536418Y-55092597D01*
X41568934Y-55043934D01*
X41617597Y-55011418D01*
X41675000Y-55000000D01*
X41975000Y-55000000D01*
X42032403Y-55011418D01*
G37*
G36*
X43302403Y-55011418D02*
G01*
X43351066Y-55043934D01*
X43383582Y-55092597D01*
X43395000Y-55150000D01*
X43395000Y-56800000D01*
X43383582Y-56857403D01*
X43351066Y-56906066D01*
X43302403Y-56938582D01*
X43245000Y-56950000D01*
X42945000Y-56950000D01*
X42887597Y-56938582D01*
X42838934Y-56906066D01*
X42806418Y-56857403D01*
X42795000Y-56800000D01*
X42795000Y-55150000D01*
X42806418Y-55092597D01*
X42838934Y-55043934D01*
X42887597Y-55011418D01*
X42945000Y-55000000D01*
X43245000Y-55000000D01*
X43302403Y-55011418D01*
G37*
G36*
X44572403Y-55011418D02*
G01*
X44621066Y-55043934D01*
X44653582Y-55092597D01*
X44665000Y-55150000D01*
X44665000Y-56800000D01*
X44653582Y-56857403D01*
X44621066Y-56906066D01*
X44572403Y-56938582D01*
X44515000Y-56950000D01*
X44215000Y-56950000D01*
X44157597Y-56938582D01*
X44108934Y-56906066D01*
X44076418Y-56857403D01*
X44065000Y-56800000D01*
X44065000Y-55150000D01*
X44076418Y-55092597D01*
X44108934Y-55043934D01*
X44157597Y-55011418D01*
X44215000Y-55000000D01*
X44515000Y-55000000D01*
X44572403Y-55011418D01*
G37*
G36*
X45842403Y-55011418D02*
G01*
X45891066Y-55043934D01*
X45923582Y-55092597D01*
X45935000Y-55150000D01*
X45935000Y-56800000D01*
X45923582Y-56857403D01*
X45891066Y-56906066D01*
X45842403Y-56938582D01*
X45785000Y-56950000D01*
X45485000Y-56950000D01*
X45427597Y-56938582D01*
X45378934Y-56906066D01*
X45346418Y-56857403D01*
X45335000Y-56800000D01*
X45335000Y-55150000D01*
X45346418Y-55092597D01*
X45378934Y-55043934D01*
X45427597Y-55011418D01*
X45485000Y-55000000D01*
X45785000Y-55000000D01*
X45842403Y-55011418D01*
G37*
G36*
X47112403Y-55011418D02*
G01*
X47161066Y-55043934D01*
X47193582Y-55092597D01*
X47205000Y-55150000D01*
X47205000Y-56800000D01*
X47193582Y-56857403D01*
X47161066Y-56906066D01*
X47112403Y-56938582D01*
X47055000Y-56950000D01*
X46755000Y-56950000D01*
X46697597Y-56938582D01*
X46648934Y-56906066D01*
X46616418Y-56857403D01*
X46605000Y-56800000D01*
X46605000Y-55150000D01*
X46616418Y-55092597D01*
X46648934Y-55043934D01*
X46697597Y-55011418D01*
X46755000Y-55000000D01*
X47055000Y-55000000D01*
X47112403Y-55011418D01*
G37*
G36*
X48382403Y-55011418D02*
G01*
X48431066Y-55043934D01*
X48463582Y-55092597D01*
X48475000Y-55150000D01*
X48475000Y-56800000D01*
X48463582Y-56857403D01*
X48431066Y-56906066D01*
X48382403Y-56938582D01*
X48325000Y-56950000D01*
X48025000Y-56950000D01*
X47967597Y-56938582D01*
X47918934Y-56906066D01*
X47886418Y-56857403D01*
X47875000Y-56800000D01*
X47875000Y-55150000D01*
X47886418Y-55092597D01*
X47918934Y-55043934D01*
X47967597Y-55011418D01*
X48025000Y-55000000D01*
X48325000Y-55000000D01*
X48382403Y-55011418D01*
G37*
G36*
X49652403Y-55011418D02*
G01*
X49701066Y-55043934D01*
X49733582Y-55092597D01*
X49745000Y-55150000D01*
X49745000Y-56800000D01*
X49733582Y-56857403D01*
X49701066Y-56906066D01*
X49652403Y-56938582D01*
X49595000Y-56950000D01*
X49295000Y-56950000D01*
X49237597Y-56938582D01*
X49188934Y-56906066D01*
X49156418Y-56857403D01*
X49145000Y-56800000D01*
X49145000Y-55150000D01*
X49156418Y-55092597D01*
X49188934Y-55043934D01*
X49237597Y-55011418D01*
X49295000Y-55000000D01*
X49595000Y-55000000D01*
X49652403Y-55011418D01*
G37*
G36*
X67998918Y-56379758D02*
G01*
X68019194Y-56393306D01*
X68032742Y-56413582D01*
X68037500Y-56437500D01*
X68037500Y-56562500D01*
X68032742Y-56586418D01*
X68019194Y-56606694D01*
X67998918Y-56620242D01*
X67975000Y-56625000D01*
X67275000Y-56625000D01*
X67251082Y-56620242D01*
X67230806Y-56606694D01*
X67217258Y-56586418D01*
X67212500Y-56562500D01*
X67212500Y-56437500D01*
X67217258Y-56413582D01*
X67230806Y-56393306D01*
X67251082Y-56379758D01*
X67275000Y-56375000D01*
X67975000Y-56375000D01*
X67998918Y-56379758D01*
G37*
G36*
X70873918Y-56379758D02*
G01*
X70894194Y-56393306D01*
X70907742Y-56413582D01*
X70912500Y-56437500D01*
X70912500Y-56562500D01*
X70907742Y-56586418D01*
X70894194Y-56606694D01*
X70873918Y-56620242D01*
X70850000Y-56625000D01*
X70150000Y-56625000D01*
X70126082Y-56620242D01*
X70105806Y-56606694D01*
X70092258Y-56586418D01*
X70087500Y-56562500D01*
X70087500Y-56437500D01*
X70092258Y-56413582D01*
X70105806Y-56393306D01*
X70126082Y-56379758D01*
X70150000Y-56375000D01*
X70850000Y-56375000D01*
X70873918Y-56379758D01*
G37*
G36*
X73654850Y-55275964D02*
G01*
X73705040Y-55281787D01*
X73722189Y-55289359D01*
X73745671Y-55294030D01*
X73770810Y-55310827D01*
X73790696Y-55319608D01*
X73804277Y-55333189D01*
X73826777Y-55348223D01*
X73841810Y-55370722D01*
X73855391Y-55384303D01*
X73864170Y-55404186D01*
X73880970Y-55429329D01*
X73885641Y-55452812D01*
X73893212Y-55469959D01*
X73899033Y-55520139D01*
X73900000Y-55525000D01*
X73900000Y-56350000D01*
X73899032Y-56354863D01*
X73893212Y-56405040D01*
X73885641Y-56422185D01*
X73880970Y-56445671D01*
X73864169Y-56470815D01*
X73855391Y-56490696D01*
X73841812Y-56504274D01*
X73826777Y-56526777D01*
X73804274Y-56541812D01*
X73790696Y-56555391D01*
X73770815Y-56564169D01*
X73745671Y-56580970D01*
X73722185Y-56585641D01*
X73705040Y-56593212D01*
X73654861Y-56599032D01*
X73650000Y-56600000D01*
X72350000Y-56600000D01*
X72345138Y-56599032D01*
X72294959Y-56593212D01*
X72277812Y-56585641D01*
X72254329Y-56580970D01*
X72229186Y-56564170D01*
X72209303Y-56555391D01*
X72195722Y-56541810D01*
X72173223Y-56526777D01*
X72158189Y-56504277D01*
X72144608Y-56490696D01*
X72135827Y-56470810D01*
X72119030Y-56445671D01*
X72114359Y-56422189D01*
X72106787Y-56405040D01*
X72100964Y-56354849D01*
X72100000Y-56350000D01*
X72100000Y-55525000D01*
X72100964Y-55520150D01*
X72106787Y-55469959D01*
X72114359Y-55452808D01*
X72119030Y-55429329D01*
X72135826Y-55404191D01*
X72144608Y-55384303D01*
X72158191Y-55370719D01*
X72173223Y-55348223D01*
X72195719Y-55333191D01*
X72209303Y-55319608D01*
X72229191Y-55310826D01*
X72254329Y-55294030D01*
X72277808Y-55289359D01*
X72294959Y-55281787D01*
X72345151Y-55275964D01*
X72350000Y-55275000D01*
X73650000Y-55275000D01*
X73654850Y-55275964D01*
G37*
G36*
X82550000Y-56500000D02*
G01*
X80050000Y-56500000D01*
X80050000Y-55500000D01*
X82550000Y-55500000D01*
X82550000Y-56500000D01*
G37*
G36*
X97750000Y-56500000D02*
G01*
X95250000Y-56500000D01*
X95250000Y-55500000D01*
X97750000Y-55500000D01*
X97750000Y-56500000D01*
G37*
G36*
X33854850Y-54600964D02*
G01*
X33905040Y-54606787D01*
X33922189Y-54614359D01*
X33945671Y-54619030D01*
X33970810Y-54635827D01*
X33990696Y-54644608D01*
X34004277Y-54658189D01*
X34026777Y-54673223D01*
X34041810Y-54695722D01*
X34055391Y-54709303D01*
X34064170Y-54729186D01*
X34080970Y-54754329D01*
X34085641Y-54777812D01*
X34093212Y-54794959D01*
X34099033Y-54845139D01*
X34100000Y-54850000D01*
X34100000Y-56150000D01*
X34099032Y-56154863D01*
X34093212Y-56205040D01*
X34085641Y-56222185D01*
X34080970Y-56245671D01*
X34064169Y-56270815D01*
X34055391Y-56290696D01*
X34041812Y-56304274D01*
X34026777Y-56326777D01*
X34004274Y-56341812D01*
X33990696Y-56355391D01*
X33970815Y-56364169D01*
X33945671Y-56380970D01*
X33922185Y-56385641D01*
X33905040Y-56393212D01*
X33854861Y-56399032D01*
X33850000Y-56400000D01*
X33025000Y-56400000D01*
X33020138Y-56399032D01*
X32969959Y-56393212D01*
X32952812Y-56385641D01*
X32929329Y-56380970D01*
X32904186Y-56364170D01*
X32884303Y-56355391D01*
X32870722Y-56341810D01*
X32848223Y-56326777D01*
X32833189Y-56304277D01*
X32819608Y-56290696D01*
X32810827Y-56270810D01*
X32794030Y-56245671D01*
X32789359Y-56222189D01*
X32781787Y-56205040D01*
X32775964Y-56154849D01*
X32775000Y-56150000D01*
X32775000Y-54850000D01*
X32775964Y-54845150D01*
X32781787Y-54794959D01*
X32789359Y-54777808D01*
X32794030Y-54754329D01*
X32810826Y-54729191D01*
X32819608Y-54709303D01*
X32833191Y-54695719D01*
X32848223Y-54673223D01*
X32870719Y-54658191D01*
X32884303Y-54644608D01*
X32904191Y-54635826D01*
X32929329Y-54619030D01*
X32952808Y-54614359D01*
X32969959Y-54606787D01*
X33020151Y-54600964D01*
X33025000Y-54600000D01*
X33850000Y-54600000D01*
X33854850Y-54600964D01*
G37*
G36*
X36979850Y-54600964D02*
G01*
X37030040Y-54606787D01*
X37047189Y-54614359D01*
X37070671Y-54619030D01*
X37095810Y-54635827D01*
X37115696Y-54644608D01*
X37129277Y-54658189D01*
X37151777Y-54673223D01*
X37166810Y-54695722D01*
X37180391Y-54709303D01*
X37189170Y-54729186D01*
X37205970Y-54754329D01*
X37210641Y-54777812D01*
X37218212Y-54794959D01*
X37224033Y-54845139D01*
X37225000Y-54850000D01*
X37225000Y-56150000D01*
X37224032Y-56154863D01*
X37218212Y-56205040D01*
X37210641Y-56222185D01*
X37205970Y-56245671D01*
X37189169Y-56270815D01*
X37180391Y-56290696D01*
X37166812Y-56304274D01*
X37151777Y-56326777D01*
X37129274Y-56341812D01*
X37115696Y-56355391D01*
X37095815Y-56364169D01*
X37070671Y-56380970D01*
X37047185Y-56385641D01*
X37030040Y-56393212D01*
X36979861Y-56399032D01*
X36975000Y-56400000D01*
X36150000Y-56400000D01*
X36145138Y-56399032D01*
X36094959Y-56393212D01*
X36077812Y-56385641D01*
X36054329Y-56380970D01*
X36029186Y-56364170D01*
X36009303Y-56355391D01*
X35995722Y-56341810D01*
X35973223Y-56326777D01*
X35958189Y-56304277D01*
X35944608Y-56290696D01*
X35935827Y-56270810D01*
X35919030Y-56245671D01*
X35914359Y-56222189D01*
X35906787Y-56205040D01*
X35900964Y-56154849D01*
X35900000Y-56150000D01*
X35900000Y-54850000D01*
X35900964Y-54845150D01*
X35906787Y-54794959D01*
X35914359Y-54777808D01*
X35919030Y-54754329D01*
X35935826Y-54729191D01*
X35944608Y-54709303D01*
X35958191Y-54695719D01*
X35973223Y-54673223D01*
X35995719Y-54658191D01*
X36009303Y-54644608D01*
X36029191Y-54635826D01*
X36054329Y-54619030D01*
X36077808Y-54614359D01*
X36094959Y-54606787D01*
X36145151Y-54600964D01*
X36150000Y-54600000D01*
X36975000Y-54600000D01*
X36979850Y-54600964D01*
G37*
G36*
X68398918Y-55404758D02*
G01*
X68419194Y-55418306D01*
X68432742Y-55438582D01*
X68437500Y-55462500D01*
X68437500Y-56162500D01*
X68432742Y-56186418D01*
X68419194Y-56206694D01*
X68398918Y-56220242D01*
X68375000Y-56225000D01*
X68250000Y-56225000D01*
X68226082Y-56220242D01*
X68205806Y-56206694D01*
X68192258Y-56186418D01*
X68187500Y-56162500D01*
X68187500Y-55462500D01*
X68192258Y-55438582D01*
X68205806Y-55418306D01*
X68226082Y-55404758D01*
X68250000Y-55400000D01*
X68375000Y-55400000D01*
X68398918Y-55404758D01*
G37*
G36*
X68898918Y-55404758D02*
G01*
X68919194Y-55418306D01*
X68932742Y-55438582D01*
X68937500Y-55462500D01*
X68937500Y-56162500D01*
X68932742Y-56186418D01*
X68919194Y-56206694D01*
X68898918Y-56220242D01*
X68875000Y-56225000D01*
X68750000Y-56225000D01*
X68726082Y-56220242D01*
X68705806Y-56206694D01*
X68692258Y-56186418D01*
X68687500Y-56162500D01*
X68687500Y-55462500D01*
X68692258Y-55438582D01*
X68705806Y-55418306D01*
X68726082Y-55404758D01*
X68750000Y-55400000D01*
X68875000Y-55400000D01*
X68898918Y-55404758D01*
G37*
G36*
X69398918Y-55404758D02*
G01*
X69419194Y-55418306D01*
X69432742Y-55438582D01*
X69437500Y-55462500D01*
X69437500Y-56162500D01*
X69432742Y-56186418D01*
X69419194Y-56206694D01*
X69398918Y-56220242D01*
X69375000Y-56225000D01*
X69250000Y-56225000D01*
X69226082Y-56220242D01*
X69205806Y-56206694D01*
X69192258Y-56186418D01*
X69187500Y-56162500D01*
X69187500Y-55462500D01*
X69192258Y-55438582D01*
X69205806Y-55418306D01*
X69226082Y-55404758D01*
X69250000Y-55400000D01*
X69375000Y-55400000D01*
X69398918Y-55404758D01*
G37*
G36*
X69898918Y-55404758D02*
G01*
X69919194Y-55418306D01*
X69932742Y-55438582D01*
X69937500Y-55462500D01*
X69937500Y-56162500D01*
X69932742Y-56186418D01*
X69919194Y-56206694D01*
X69898918Y-56220242D01*
X69875000Y-56225000D01*
X69750000Y-56225000D01*
X69726082Y-56220242D01*
X69705806Y-56206694D01*
X69692258Y-56186418D01*
X69687500Y-56162500D01*
X69687500Y-55462500D01*
X69692258Y-55438582D01*
X69705806Y-55418306D01*
X69726082Y-55404758D01*
X69750000Y-55400000D01*
X69875000Y-55400000D01*
X69898918Y-55404758D01*
G37*
G36*
X28354850Y-53625964D02*
G01*
X28405040Y-53631787D01*
X28422189Y-53639359D01*
X28445671Y-53644030D01*
X28470810Y-53660827D01*
X28490696Y-53669608D01*
X28504277Y-53683189D01*
X28526777Y-53698223D01*
X28541810Y-53720722D01*
X28555391Y-53734303D01*
X28564170Y-53754186D01*
X28580970Y-53779329D01*
X28585641Y-53802812D01*
X28593212Y-53819959D01*
X28599033Y-53870139D01*
X28600000Y-53875000D01*
X28600000Y-55125000D01*
X28599032Y-55129863D01*
X28593212Y-55180040D01*
X28585641Y-55197185D01*
X28580970Y-55220671D01*
X28564169Y-55245815D01*
X28555391Y-55265696D01*
X28541812Y-55279274D01*
X28526777Y-55301777D01*
X28504274Y-55316812D01*
X28490696Y-55330391D01*
X28470815Y-55339169D01*
X28445671Y-55355970D01*
X28422185Y-55360641D01*
X28405040Y-55368212D01*
X28354861Y-55374032D01*
X28350000Y-55375000D01*
X27550000Y-55375000D01*
X27545138Y-55374032D01*
X27494959Y-55368212D01*
X27477812Y-55360641D01*
X27454329Y-55355970D01*
X27429186Y-55339170D01*
X27409303Y-55330391D01*
X27395722Y-55316810D01*
X27373223Y-55301777D01*
X27358189Y-55279277D01*
X27344608Y-55265696D01*
X27335827Y-55245810D01*
X27319030Y-55220671D01*
X27314359Y-55197189D01*
X27306787Y-55180040D01*
X27300964Y-55129849D01*
X27300000Y-55125000D01*
X27300000Y-53875000D01*
X27300964Y-53870150D01*
X27306787Y-53819959D01*
X27314359Y-53802808D01*
X27319030Y-53779329D01*
X27335826Y-53754191D01*
X27344608Y-53734303D01*
X27358191Y-53720719D01*
X27373223Y-53698223D01*
X27395719Y-53683191D01*
X27409303Y-53669608D01*
X27429191Y-53660826D01*
X27454329Y-53644030D01*
X27477808Y-53639359D01*
X27494959Y-53631787D01*
X27545151Y-53625964D01*
X27550000Y-53625000D01*
X28350000Y-53625000D01*
X28354850Y-53625964D01*
G37*
G36*
X31454850Y-53625964D02*
G01*
X31505040Y-53631787D01*
X31522189Y-53639359D01*
X31545671Y-53644030D01*
X31570810Y-53660827D01*
X31590696Y-53669608D01*
X31604277Y-53683189D01*
X31626777Y-53698223D01*
X31641810Y-53720722D01*
X31655391Y-53734303D01*
X31664170Y-53754186D01*
X31680970Y-53779329D01*
X31685641Y-53802812D01*
X31693212Y-53819959D01*
X31699033Y-53870139D01*
X31700000Y-53875000D01*
X31700000Y-55125000D01*
X31699032Y-55129863D01*
X31693212Y-55180040D01*
X31685641Y-55197185D01*
X31680970Y-55220671D01*
X31664169Y-55245815D01*
X31655391Y-55265696D01*
X31641812Y-55279274D01*
X31626777Y-55301777D01*
X31604274Y-55316812D01*
X31590696Y-55330391D01*
X31570815Y-55339169D01*
X31545671Y-55355970D01*
X31522185Y-55360641D01*
X31505040Y-55368212D01*
X31454861Y-55374032D01*
X31450000Y-55375000D01*
X30650000Y-55375000D01*
X30645138Y-55374032D01*
X30594959Y-55368212D01*
X30577812Y-55360641D01*
X30554329Y-55355970D01*
X30529186Y-55339170D01*
X30509303Y-55330391D01*
X30495722Y-55316810D01*
X30473223Y-55301777D01*
X30458189Y-55279277D01*
X30444608Y-55265696D01*
X30435827Y-55245810D01*
X30419030Y-55220671D01*
X30414359Y-55197189D01*
X30406787Y-55180040D01*
X30400964Y-55129849D01*
X30400000Y-55125000D01*
X30400000Y-53875000D01*
X30400964Y-53870150D01*
X30406787Y-53819959D01*
X30414359Y-53802808D01*
X30419030Y-53779329D01*
X30435826Y-53754191D01*
X30444608Y-53734303D01*
X30458191Y-53720719D01*
X30473223Y-53698223D01*
X30495719Y-53683191D01*
X30509303Y-53669608D01*
X30529191Y-53660826D01*
X30554329Y-53644030D01*
X30577808Y-53639359D01*
X30594959Y-53631787D01*
X30645151Y-53625964D01*
X30650000Y-53625000D01*
X31450000Y-53625000D01*
X31454850Y-53625964D01*
G37*
G36*
X82550000Y-54499999D02*
G01*
X80050000Y-54499999D01*
X80050000Y-53499999D01*
X82550000Y-53499999D01*
X82550000Y-54499999D01*
G37*
G36*
X97750000Y-54499999D02*
G01*
X95250000Y-54499999D01*
X95250000Y-53499999D01*
X97750000Y-53499999D01*
X97750000Y-54499999D01*
G37*
G36*
X60654850Y-52775964D02*
G01*
X60705040Y-52781787D01*
X60722189Y-52789359D01*
X60745671Y-52794030D01*
X60770810Y-52810827D01*
X60790696Y-52819608D01*
X60804277Y-52833189D01*
X60826777Y-52848223D01*
X60841810Y-52870722D01*
X60855391Y-52884303D01*
X60864170Y-52904186D01*
X60880970Y-52929329D01*
X60885641Y-52952812D01*
X60893212Y-52969959D01*
X60899033Y-53020139D01*
X60900000Y-53025000D01*
X60900000Y-53850000D01*
X60899032Y-53854863D01*
X60893212Y-53905040D01*
X60885641Y-53922185D01*
X60880970Y-53945671D01*
X60864169Y-53970815D01*
X60855391Y-53990696D01*
X60841812Y-54004274D01*
X60826777Y-54026777D01*
X60804274Y-54041812D01*
X60790696Y-54055391D01*
X60770815Y-54064169D01*
X60745671Y-54080970D01*
X60722185Y-54085641D01*
X60705040Y-54093212D01*
X60654861Y-54099032D01*
X60650000Y-54100000D01*
X59350000Y-54100000D01*
X59345138Y-54099032D01*
X59294959Y-54093212D01*
X59277812Y-54085641D01*
X59254329Y-54080970D01*
X59229186Y-54064170D01*
X59209303Y-54055391D01*
X59195722Y-54041810D01*
X59173223Y-54026777D01*
X59158189Y-54004277D01*
X59144608Y-53990696D01*
X59135827Y-53970810D01*
X59119030Y-53945671D01*
X59114359Y-53922189D01*
X59106787Y-53905040D01*
X59100964Y-53854849D01*
X59100000Y-53850000D01*
X59100000Y-53025000D01*
X59100964Y-53020150D01*
X59106787Y-52969959D01*
X59114359Y-52952808D01*
X59119030Y-52929329D01*
X59135826Y-52904191D01*
X59144608Y-52884303D01*
X59158191Y-52870719D01*
X59173223Y-52848223D01*
X59195719Y-52833191D01*
X59209303Y-52819608D01*
X59229191Y-52810826D01*
X59254329Y-52794030D01*
X59277808Y-52789359D01*
X59294959Y-52781787D01*
X59345151Y-52775964D01*
X59350000Y-52775000D01*
X60650000Y-52775000D01*
X60654850Y-52775964D01*
G37*
G36*
X107572403Y-51108918D02*
G01*
X107621066Y-51141434D01*
X107653582Y-51190097D01*
X107665000Y-51247500D01*
X107665000Y-52997500D01*
X107653582Y-53054903D01*
X107621066Y-53103566D01*
X107572403Y-53136082D01*
X107515000Y-53147500D01*
X107215000Y-53147500D01*
X107157597Y-53136082D01*
X107108934Y-53103566D01*
X107076418Y-53054903D01*
X107065000Y-52997500D01*
X107065000Y-51247500D01*
X107076418Y-51190097D01*
X107108934Y-51141434D01*
X107157597Y-51108918D01*
X107215000Y-51097500D01*
X107515000Y-51097500D01*
X107572403Y-51108918D01*
G37*
G36*
X108842403Y-51108918D02*
G01*
X108891066Y-51141434D01*
X108923582Y-51190097D01*
X108935000Y-51247500D01*
X108935000Y-52997500D01*
X108923582Y-53054903D01*
X108891066Y-53103566D01*
X108842403Y-53136082D01*
X108785000Y-53147500D01*
X108485000Y-53147500D01*
X108427597Y-53136082D01*
X108378934Y-53103566D01*
X108346418Y-53054903D01*
X108335000Y-52997500D01*
X108335000Y-51247500D01*
X108346418Y-51190097D01*
X108378934Y-51141434D01*
X108427597Y-51108918D01*
X108485000Y-51097500D01*
X108785000Y-51097500D01*
X108842403Y-51108918D01*
G37*
G36*
X110112403Y-51108918D02*
G01*
X110161066Y-51141434D01*
X110193582Y-51190097D01*
X110205000Y-51247500D01*
X110205000Y-52997500D01*
X110193582Y-53054903D01*
X110161066Y-53103566D01*
X110112403Y-53136082D01*
X110055000Y-53147500D01*
X109755000Y-53147500D01*
X109697597Y-53136082D01*
X109648934Y-53103566D01*
X109616418Y-53054903D01*
X109605000Y-52997500D01*
X109605000Y-51247500D01*
X109616418Y-51190097D01*
X109648934Y-51141434D01*
X109697597Y-51108918D01*
X109755000Y-51097500D01*
X110055000Y-51097500D01*
X110112403Y-51108918D01*
G37*
G36*
X111382403Y-51108918D02*
G01*
X111431066Y-51141434D01*
X111463582Y-51190097D01*
X111475000Y-51247500D01*
X111475000Y-52997500D01*
X111463582Y-53054903D01*
X111431066Y-53103566D01*
X111382403Y-53136082D01*
X111325000Y-53147500D01*
X111025000Y-53147500D01*
X110967597Y-53136082D01*
X110918934Y-53103566D01*
X110886418Y-53054903D01*
X110875000Y-52997500D01*
X110875000Y-51247500D01*
X110886418Y-51190097D01*
X110918934Y-51141434D01*
X110967597Y-51108918D01*
X111025000Y-51097500D01*
X111325000Y-51097500D01*
X111382403Y-51108918D01*
G37*
G36*
X112652403Y-51108918D02*
G01*
X112701066Y-51141434D01*
X112733582Y-51190097D01*
X112745000Y-51247500D01*
X112745000Y-52997500D01*
X112733582Y-53054903D01*
X112701066Y-53103566D01*
X112652403Y-53136082D01*
X112595000Y-53147500D01*
X112295000Y-53147500D01*
X112237597Y-53136082D01*
X112188934Y-53103566D01*
X112156418Y-53054903D01*
X112145000Y-52997500D01*
X112145000Y-51247500D01*
X112156418Y-51190097D01*
X112188934Y-51141434D01*
X112237597Y-51108918D01*
X112295000Y-51097500D01*
X112595000Y-51097500D01*
X112652403Y-51108918D01*
G37*
G36*
X113922403Y-51108918D02*
G01*
X113971066Y-51141434D01*
X114003582Y-51190097D01*
X114015000Y-51247500D01*
X114015000Y-52997500D01*
X114003582Y-53054903D01*
X113971066Y-53103566D01*
X113922403Y-53136082D01*
X113865000Y-53147500D01*
X113565000Y-53147500D01*
X113507597Y-53136082D01*
X113458934Y-53103566D01*
X113426418Y-53054903D01*
X113415000Y-52997500D01*
X113415000Y-51247500D01*
X113426418Y-51190097D01*
X113458934Y-51141434D01*
X113507597Y-51108918D01*
X113565000Y-51097500D01*
X113865000Y-51097500D01*
X113922403Y-51108918D01*
G37*
G36*
X115192403Y-51108918D02*
G01*
X115241066Y-51141434D01*
X115273582Y-51190097D01*
X115285000Y-51247500D01*
X115285000Y-52997500D01*
X115273582Y-53054903D01*
X115241066Y-53103566D01*
X115192403Y-53136082D01*
X115135000Y-53147500D01*
X114835000Y-53147500D01*
X114777597Y-53136082D01*
X114728934Y-53103566D01*
X114696418Y-53054903D01*
X114685000Y-52997500D01*
X114685000Y-51247500D01*
X114696418Y-51190097D01*
X114728934Y-51141434D01*
X114777597Y-51108918D01*
X114835000Y-51097500D01*
X115135000Y-51097500D01*
X115192403Y-51108918D01*
G37*
G36*
X116462403Y-51108918D02*
G01*
X116511066Y-51141434D01*
X116543582Y-51190097D01*
X116555000Y-51247500D01*
X116555000Y-52997500D01*
X116543582Y-53054903D01*
X116511066Y-53103566D01*
X116462403Y-53136082D01*
X116405000Y-53147500D01*
X116105000Y-53147500D01*
X116047597Y-53136082D01*
X115998934Y-53103566D01*
X115966418Y-53054903D01*
X115955000Y-52997500D01*
X115955000Y-51247500D01*
X115966418Y-51190097D01*
X115998934Y-51141434D01*
X116047597Y-51108918D01*
X116105000Y-51097500D01*
X116405000Y-51097500D01*
X116462403Y-51108918D01*
G37*
G36*
X117732403Y-51108918D02*
G01*
X117781066Y-51141434D01*
X117813582Y-51190097D01*
X117825000Y-51247500D01*
X117825000Y-52997500D01*
X117813582Y-53054903D01*
X117781066Y-53103566D01*
X117732403Y-53136082D01*
X117675000Y-53147500D01*
X117375000Y-53147500D01*
X117317597Y-53136082D01*
X117268934Y-53103566D01*
X117236418Y-53054903D01*
X117225000Y-52997500D01*
X117225000Y-51247500D01*
X117236418Y-51190097D01*
X117268934Y-51141434D01*
X117317597Y-51108918D01*
X117375000Y-51097500D01*
X117675000Y-51097500D01*
X117732403Y-51108918D01*
G37*
G36*
X119002403Y-51108918D02*
G01*
X119051066Y-51141434D01*
X119083582Y-51190097D01*
X119095000Y-51247500D01*
X119095000Y-52997500D01*
X119083582Y-53054903D01*
X119051066Y-53103566D01*
X119002403Y-53136082D01*
X118945000Y-53147500D01*
X118645000Y-53147500D01*
X118587597Y-53136082D01*
X118538934Y-53103566D01*
X118506418Y-53054903D01*
X118495000Y-52997500D01*
X118495000Y-51247500D01*
X118506418Y-51190097D01*
X118538934Y-51141434D01*
X118587597Y-51108918D01*
X118645000Y-51097500D01*
X118945000Y-51097500D01*
X119002403Y-51108918D01*
G37*
G36*
X120272403Y-51108918D02*
G01*
X120321066Y-51141434D01*
X120353582Y-51190097D01*
X120365000Y-51247500D01*
X120365000Y-52997500D01*
X120353582Y-53054903D01*
X120321066Y-53103566D01*
X120272403Y-53136082D01*
X120215000Y-53147500D01*
X119915000Y-53147500D01*
X119857597Y-53136082D01*
X119808934Y-53103566D01*
X119776418Y-53054903D01*
X119765000Y-52997500D01*
X119765000Y-51247500D01*
X119776418Y-51190097D01*
X119808934Y-51141434D01*
X119857597Y-51108918D01*
X119915000Y-51097500D01*
X120215000Y-51097500D01*
X120272403Y-51108918D01*
G37*
G36*
X121542403Y-51108918D02*
G01*
X121591066Y-51141434D01*
X121623582Y-51190097D01*
X121635000Y-51247500D01*
X121635000Y-52997500D01*
X121623582Y-53054903D01*
X121591066Y-53103566D01*
X121542403Y-53136082D01*
X121485000Y-53147500D01*
X121185000Y-53147500D01*
X121127597Y-53136082D01*
X121078934Y-53103566D01*
X121046418Y-53054903D01*
X121035000Y-52997500D01*
X121035000Y-51247500D01*
X121046418Y-51190097D01*
X121078934Y-51141434D01*
X121127597Y-51108918D01*
X121185000Y-51097500D01*
X121485000Y-51097500D01*
X121542403Y-51108918D01*
G37*
G36*
X82550000Y-52500000D02*
G01*
X80050000Y-52500000D01*
X80050000Y-51500000D01*
X82550000Y-51500000D01*
X82550000Y-52500000D01*
G37*
G36*
X97750000Y-52500000D02*
G01*
X95250000Y-52500000D01*
X95250000Y-51500000D01*
X97750000Y-51500000D01*
X97750000Y-52500000D01*
G37*
G36*
X33854850Y-50600964D02*
G01*
X33905040Y-50606787D01*
X33922189Y-50614359D01*
X33945671Y-50619030D01*
X33970810Y-50635827D01*
X33990696Y-50644608D01*
X34004277Y-50658189D01*
X34026777Y-50673223D01*
X34041810Y-50695722D01*
X34055391Y-50709303D01*
X34064170Y-50729186D01*
X34080970Y-50754329D01*
X34085641Y-50777812D01*
X34093212Y-50794959D01*
X34099033Y-50845139D01*
X34100000Y-50850000D01*
X34100000Y-52150000D01*
X34099032Y-52154863D01*
X34093212Y-52205040D01*
X34085641Y-52222185D01*
X34080970Y-52245671D01*
X34064169Y-52270815D01*
X34055391Y-52290696D01*
X34041812Y-52304274D01*
X34026777Y-52326777D01*
X34004274Y-52341812D01*
X33990696Y-52355391D01*
X33970815Y-52364169D01*
X33945671Y-52380970D01*
X33922185Y-52385641D01*
X33905040Y-52393212D01*
X33854861Y-52399032D01*
X33850000Y-52400000D01*
X33025000Y-52400000D01*
X33020138Y-52399032D01*
X32969959Y-52393212D01*
X32952812Y-52385641D01*
X32929329Y-52380970D01*
X32904186Y-52364170D01*
X32884303Y-52355391D01*
X32870722Y-52341810D01*
X32848223Y-52326777D01*
X32833189Y-52304277D01*
X32819608Y-52290696D01*
X32810827Y-52270810D01*
X32794030Y-52245671D01*
X32789359Y-52222189D01*
X32781787Y-52205040D01*
X32775964Y-52154849D01*
X32775000Y-52150000D01*
X32775000Y-50850000D01*
X32775964Y-50845150D01*
X32781787Y-50794959D01*
X32789359Y-50777808D01*
X32794030Y-50754329D01*
X32810826Y-50729191D01*
X32819608Y-50709303D01*
X32833191Y-50695719D01*
X32848223Y-50673223D01*
X32870719Y-50658191D01*
X32884303Y-50644608D01*
X32904191Y-50635826D01*
X32929329Y-50619030D01*
X32952808Y-50614359D01*
X32969959Y-50606787D01*
X33020151Y-50600964D01*
X33025000Y-50600000D01*
X33850000Y-50600000D01*
X33854850Y-50600964D01*
G37*
G36*
X36979850Y-50600964D02*
G01*
X37030040Y-50606787D01*
X37047189Y-50614359D01*
X37070671Y-50619030D01*
X37095810Y-50635827D01*
X37115696Y-50644608D01*
X37129277Y-50658189D01*
X37151777Y-50673223D01*
X37166810Y-50695722D01*
X37180391Y-50709303D01*
X37189170Y-50729186D01*
X37205970Y-50754329D01*
X37210641Y-50777812D01*
X37218212Y-50794959D01*
X37224033Y-50845139D01*
X37225000Y-50850000D01*
X37225000Y-52150000D01*
X37224032Y-52154863D01*
X37218212Y-52205040D01*
X37210641Y-52222185D01*
X37205970Y-52245671D01*
X37189169Y-52270815D01*
X37180391Y-52290696D01*
X37166812Y-52304274D01*
X37151777Y-52326777D01*
X37129274Y-52341812D01*
X37115696Y-52355391D01*
X37095815Y-52364169D01*
X37070671Y-52380970D01*
X37047185Y-52385641D01*
X37030040Y-52393212D01*
X36979861Y-52399032D01*
X36975000Y-52400000D01*
X36150000Y-52400000D01*
X36145138Y-52399032D01*
X36094959Y-52393212D01*
X36077812Y-52385641D01*
X36054329Y-52380970D01*
X36029186Y-52364170D01*
X36009303Y-52355391D01*
X35995722Y-52341810D01*
X35973223Y-52326777D01*
X35958189Y-52304277D01*
X35944608Y-52290696D01*
X35935827Y-52270810D01*
X35919030Y-52245671D01*
X35914359Y-52222189D01*
X35906787Y-52205040D01*
X35900964Y-52154849D01*
X35900000Y-52150000D01*
X35900000Y-50850000D01*
X35900964Y-50845150D01*
X35906787Y-50794959D01*
X35914359Y-50777808D01*
X35919030Y-50754329D01*
X35935826Y-50729191D01*
X35944608Y-50709303D01*
X35958191Y-50695719D01*
X35973223Y-50673223D01*
X35995719Y-50658191D01*
X36009303Y-50644608D01*
X36029191Y-50635826D01*
X36054329Y-50619030D01*
X36077808Y-50614359D01*
X36094959Y-50606787D01*
X36145151Y-50600964D01*
X36150000Y-50600000D01*
X36975000Y-50600000D01*
X36979850Y-50600964D01*
G37*
G36*
X99854850Y-50625964D02*
G01*
X99905040Y-50631787D01*
X99922189Y-50639359D01*
X99945671Y-50644030D01*
X99970810Y-50660827D01*
X99990696Y-50669608D01*
X100004277Y-50683189D01*
X100026777Y-50698223D01*
X100041810Y-50720722D01*
X100055391Y-50734303D01*
X100064170Y-50754186D01*
X100080970Y-50779329D01*
X100085641Y-50802812D01*
X100093212Y-50819959D01*
X100099033Y-50870139D01*
X100100000Y-50875000D01*
X100100000Y-52125000D01*
X100099032Y-52129863D01*
X100093212Y-52180040D01*
X100085641Y-52197185D01*
X100080970Y-52220671D01*
X100064169Y-52245815D01*
X100055391Y-52265696D01*
X100041812Y-52279274D01*
X100026777Y-52301777D01*
X100004274Y-52316812D01*
X99990696Y-52330391D01*
X99970815Y-52339169D01*
X99945671Y-52355970D01*
X99922185Y-52360641D01*
X99905040Y-52368212D01*
X99854861Y-52374032D01*
X99850000Y-52375000D01*
X99050000Y-52375000D01*
X99045138Y-52374032D01*
X98994959Y-52368212D01*
X98977812Y-52360641D01*
X98954329Y-52355970D01*
X98929186Y-52339170D01*
X98909303Y-52330391D01*
X98895722Y-52316810D01*
X98873223Y-52301777D01*
X98858189Y-52279277D01*
X98844608Y-52265696D01*
X98835827Y-52245810D01*
X98819030Y-52220671D01*
X98814359Y-52197189D01*
X98806787Y-52180040D01*
X98800964Y-52129849D01*
X98800000Y-52125000D01*
X98800000Y-50875000D01*
X98800964Y-50870150D01*
X98806787Y-50819959D01*
X98814359Y-50802808D01*
X98819030Y-50779329D01*
X98835826Y-50754191D01*
X98844608Y-50734303D01*
X98858191Y-50720719D01*
X98873223Y-50698223D01*
X98895719Y-50683191D01*
X98909303Y-50669608D01*
X98929191Y-50660826D01*
X98954329Y-50644030D01*
X98977808Y-50639359D01*
X98994959Y-50631787D01*
X99045151Y-50625964D01*
X99050000Y-50625000D01*
X99850000Y-50625000D01*
X99854850Y-50625964D01*
G37*
G36*
X102954850Y-50625964D02*
G01*
X103005040Y-50631787D01*
X103022189Y-50639359D01*
X103045671Y-50644030D01*
X103070810Y-50660827D01*
X103090696Y-50669608D01*
X103104277Y-50683189D01*
X103126777Y-50698223D01*
X103141810Y-50720722D01*
X103155391Y-50734303D01*
X103164170Y-50754186D01*
X103180970Y-50779329D01*
X103185641Y-50802812D01*
X103193212Y-50819959D01*
X103199033Y-50870139D01*
X103200000Y-50875000D01*
X103200000Y-52125000D01*
X103199032Y-52129863D01*
X103193212Y-52180040D01*
X103185641Y-52197185D01*
X103180970Y-52220671D01*
X103164169Y-52245815D01*
X103155391Y-52265696D01*
X103141812Y-52279274D01*
X103126777Y-52301777D01*
X103104274Y-52316812D01*
X103090696Y-52330391D01*
X103070815Y-52339169D01*
X103045671Y-52355970D01*
X103022185Y-52360641D01*
X103005040Y-52368212D01*
X102954861Y-52374032D01*
X102950000Y-52375000D01*
X102150000Y-52375000D01*
X102145138Y-52374032D01*
X102094959Y-52368212D01*
X102077812Y-52360641D01*
X102054329Y-52355970D01*
X102029186Y-52339170D01*
X102009303Y-52330391D01*
X101995722Y-52316810D01*
X101973223Y-52301777D01*
X101958189Y-52279277D01*
X101944608Y-52265696D01*
X101935827Y-52245810D01*
X101919030Y-52220671D01*
X101914359Y-52197189D01*
X101906787Y-52180040D01*
X101900964Y-52129849D01*
X101900000Y-52125000D01*
X101900000Y-50875000D01*
X101900964Y-50870150D01*
X101906787Y-50819959D01*
X101914359Y-50802808D01*
X101919030Y-50779329D01*
X101935826Y-50754191D01*
X101944608Y-50734303D01*
X101958191Y-50720719D01*
X101973223Y-50698223D01*
X101995719Y-50683191D01*
X102009303Y-50669608D01*
X102029191Y-50660826D01*
X102054329Y-50644030D01*
X102077808Y-50639359D01*
X102094959Y-50631787D01*
X102145151Y-50625964D01*
X102150000Y-50625000D01*
X102950000Y-50625000D01*
X102954850Y-50625964D01*
G37*
G36*
X124629850Y-50900964D02*
G01*
X124680040Y-50906787D01*
X124697189Y-50914359D01*
X124720671Y-50919030D01*
X124745810Y-50935827D01*
X124765696Y-50944608D01*
X124779277Y-50958189D01*
X124801777Y-50973223D01*
X124816810Y-50995722D01*
X124830391Y-51009303D01*
X124839170Y-51029186D01*
X124855970Y-51054329D01*
X124860641Y-51077812D01*
X124868212Y-51094959D01*
X124874033Y-51145139D01*
X124875000Y-51150000D01*
X124875000Y-51950000D01*
X124874032Y-51954863D01*
X124868212Y-52005040D01*
X124860641Y-52022185D01*
X124855970Y-52045671D01*
X124839169Y-52070815D01*
X124830391Y-52090696D01*
X124816812Y-52104274D01*
X124801777Y-52126777D01*
X124779274Y-52141812D01*
X124765696Y-52155391D01*
X124745815Y-52164169D01*
X124720671Y-52180970D01*
X124697185Y-52185641D01*
X124680040Y-52193212D01*
X124629861Y-52199032D01*
X124625000Y-52200000D01*
X123375000Y-52200000D01*
X123370138Y-52199032D01*
X123319959Y-52193212D01*
X123302812Y-52185641D01*
X123279329Y-52180970D01*
X123254186Y-52164170D01*
X123234303Y-52155391D01*
X123220722Y-52141810D01*
X123198223Y-52126777D01*
X123183189Y-52104277D01*
X123169608Y-52090696D01*
X123160827Y-52070810D01*
X123144030Y-52045671D01*
X123139359Y-52022189D01*
X123131787Y-52005040D01*
X123125964Y-51954849D01*
X123125000Y-51950000D01*
X123125000Y-51150000D01*
X123125964Y-51145150D01*
X123131787Y-51094959D01*
X123139359Y-51077808D01*
X123144030Y-51054329D01*
X123160826Y-51029191D01*
X123169608Y-51009303D01*
X123183191Y-50995719D01*
X123198223Y-50973223D01*
X123220719Y-50958191D01*
X123234303Y-50944608D01*
X123254191Y-50935826D01*
X123279329Y-50919030D01*
X123302808Y-50914359D01*
X123319959Y-50906787D01*
X123370151Y-50900964D01*
X123375000Y-50900000D01*
X124625000Y-50900000D01*
X124629850Y-50900964D01*
G37*
G36*
X40762403Y-50061418D02*
G01*
X40811066Y-50093934D01*
X40843582Y-50142597D01*
X40855000Y-50200000D01*
X40855000Y-51850000D01*
X40843582Y-51907403D01*
X40811066Y-51956066D01*
X40762403Y-51988582D01*
X40705000Y-52000000D01*
X40405000Y-52000000D01*
X40347597Y-51988582D01*
X40298934Y-51956066D01*
X40266418Y-51907403D01*
X40255000Y-51850000D01*
X40255000Y-50200000D01*
X40266418Y-50142597D01*
X40298934Y-50093934D01*
X40347597Y-50061418D01*
X40405000Y-50050000D01*
X40705000Y-50050000D01*
X40762403Y-50061418D01*
G37*
G36*
X42032403Y-50061418D02*
G01*
X42081066Y-50093934D01*
X42113582Y-50142597D01*
X42125000Y-50200000D01*
X42125000Y-51850000D01*
X42113582Y-51907403D01*
X42081066Y-51956066D01*
X42032403Y-51988582D01*
X41975000Y-52000000D01*
X41675000Y-52000000D01*
X41617597Y-51988582D01*
X41568934Y-51956066D01*
X41536418Y-51907403D01*
X41525000Y-51850000D01*
X41525000Y-50200000D01*
X41536418Y-50142597D01*
X41568934Y-50093934D01*
X41617597Y-50061418D01*
X41675000Y-50050000D01*
X41975000Y-50050000D01*
X42032403Y-50061418D01*
G37*
G36*
X43302403Y-50061418D02*
G01*
X43351066Y-50093934D01*
X43383582Y-50142597D01*
X43395000Y-50200000D01*
X43395000Y-51850000D01*
X43383582Y-51907403D01*
X43351066Y-51956066D01*
X43302403Y-51988582D01*
X43245000Y-52000000D01*
X42945000Y-52000000D01*
X42887597Y-51988582D01*
X42838934Y-51956066D01*
X42806418Y-51907403D01*
X42795000Y-51850000D01*
X42795000Y-50200000D01*
X42806418Y-50142597D01*
X42838934Y-50093934D01*
X42887597Y-50061418D01*
X42945000Y-50050000D01*
X43245000Y-50050000D01*
X43302403Y-50061418D01*
G37*
G36*
X44572403Y-50061418D02*
G01*
X44621066Y-50093934D01*
X44653582Y-50142597D01*
X44665000Y-50200000D01*
X44665000Y-51850000D01*
X44653582Y-51907403D01*
X44621066Y-51956066D01*
X44572403Y-51988582D01*
X44515000Y-52000000D01*
X44215000Y-52000000D01*
X44157597Y-51988582D01*
X44108934Y-51956066D01*
X44076418Y-51907403D01*
X44065000Y-51850000D01*
X44065000Y-50200000D01*
X44076418Y-50142597D01*
X44108934Y-50093934D01*
X44157597Y-50061418D01*
X44215000Y-50050000D01*
X44515000Y-50050000D01*
X44572403Y-50061418D01*
G37*
G36*
X45842403Y-50061418D02*
G01*
X45891066Y-50093934D01*
X45923582Y-50142597D01*
X45935000Y-50200000D01*
X45935000Y-51850000D01*
X45923582Y-51907403D01*
X45891066Y-51956066D01*
X45842403Y-51988582D01*
X45785000Y-52000000D01*
X45485000Y-52000000D01*
X45427597Y-51988582D01*
X45378934Y-51956066D01*
X45346418Y-51907403D01*
X45335000Y-51850000D01*
X45335000Y-50200000D01*
X45346418Y-50142597D01*
X45378934Y-50093934D01*
X45427597Y-50061418D01*
X45485000Y-50050000D01*
X45785000Y-50050000D01*
X45842403Y-50061418D01*
G37*
G36*
X47112403Y-50061418D02*
G01*
X47161066Y-50093934D01*
X47193582Y-50142597D01*
X47205000Y-50200000D01*
X47205000Y-51850000D01*
X47193582Y-51907403D01*
X47161066Y-51956066D01*
X47112403Y-51988582D01*
X47055000Y-52000000D01*
X46755000Y-52000000D01*
X46697597Y-51988582D01*
X46648934Y-51956066D01*
X46616418Y-51907403D01*
X46605000Y-51850000D01*
X46605000Y-50200000D01*
X46616418Y-50142597D01*
X46648934Y-50093934D01*
X46697597Y-50061418D01*
X46755000Y-50050000D01*
X47055000Y-50050000D01*
X47112403Y-50061418D01*
G37*
G36*
X48382403Y-50061418D02*
G01*
X48431066Y-50093934D01*
X48463582Y-50142597D01*
X48475000Y-50200000D01*
X48475000Y-51850000D01*
X48463582Y-51907403D01*
X48431066Y-51956066D01*
X48382403Y-51988582D01*
X48325000Y-52000000D01*
X48025000Y-52000000D01*
X47967597Y-51988582D01*
X47918934Y-51956066D01*
X47886418Y-51907403D01*
X47875000Y-51850000D01*
X47875000Y-50200000D01*
X47886418Y-50142597D01*
X47918934Y-50093934D01*
X47967597Y-50061418D01*
X48025000Y-50050000D01*
X48325000Y-50050000D01*
X48382403Y-50061418D01*
G37*
G36*
X49652403Y-50061418D02*
G01*
X49701066Y-50093934D01*
X49733582Y-50142597D01*
X49745000Y-50200000D01*
X49745000Y-51850000D01*
X49733582Y-51907403D01*
X49701066Y-51956066D01*
X49652403Y-51988582D01*
X49595000Y-52000000D01*
X49295000Y-52000000D01*
X49237597Y-51988582D01*
X49188934Y-51956066D01*
X49156418Y-51907403D01*
X49145000Y-51850000D01*
X49145000Y-50200000D01*
X49156418Y-50142597D01*
X49188934Y-50093934D01*
X49237597Y-50061418D01*
X49295000Y-50050000D01*
X49595000Y-50050000D01*
X49652403Y-50061418D01*
G37*
G36*
X150900000Y-51500000D02*
G01*
X148900000Y-51500000D01*
X148900000Y-49500000D01*
X150900000Y-49500000D01*
X150900000Y-51500000D01*
G37*
G36*
X145190285Y-49543060D02*
G01*
X145371397Y-49618079D01*
X145534393Y-49726990D01*
X145673010Y-49865607D01*
X145781921Y-50028603D01*
X145856940Y-50209715D01*
X145895185Y-50401983D01*
X145895185Y-50598017D01*
X145856940Y-50790285D01*
X145781921Y-50971397D01*
X145673010Y-51134393D01*
X145534393Y-51273010D01*
X145371397Y-51381921D01*
X145190285Y-51456940D01*
X144998017Y-51495185D01*
X144801983Y-51495185D01*
X144609715Y-51456940D01*
X144428603Y-51381921D01*
X144265607Y-51273010D01*
X144126990Y-51134393D01*
X144018079Y-50971397D01*
X143943060Y-50790285D01*
X143904815Y-50598017D01*
X143904815Y-50401983D01*
X143943060Y-50209715D01*
X144018079Y-50028603D01*
X144126990Y-49865607D01*
X144265607Y-49726990D01*
X144428603Y-49618079D01*
X144609715Y-49543060D01*
X144801983Y-49504815D01*
X144998017Y-49504815D01*
X145190285Y-49543060D01*
G37*
G36*
X147690285Y-49543060D02*
G01*
X147871397Y-49618079D01*
X148034393Y-49726990D01*
X148173010Y-49865607D01*
X148281921Y-50028603D01*
X148356940Y-50209715D01*
X148395185Y-50401983D01*
X148395185Y-50598017D01*
X148356940Y-50790285D01*
X148281921Y-50971397D01*
X148173010Y-51134393D01*
X148034393Y-51273010D01*
X147871397Y-51381921D01*
X147690285Y-51456940D01*
X147498017Y-51495185D01*
X147301983Y-51495185D01*
X147109715Y-51456940D01*
X146928603Y-51381921D01*
X146765607Y-51273010D01*
X146626990Y-51134393D01*
X146518079Y-50971397D01*
X146443060Y-50790285D01*
X146404815Y-50598017D01*
X146404815Y-50401983D01*
X146443060Y-50209715D01*
X146518079Y-50028603D01*
X146626990Y-49865607D01*
X146765607Y-49726990D01*
X146928603Y-49618079D01*
X147109715Y-49543060D01*
X147301983Y-49504815D01*
X147498017Y-49504815D01*
X147690285Y-49543060D01*
G37*
G36*
X82550000Y-50500000D02*
G01*
X80050000Y-50500000D01*
X80050000Y-49500000D01*
X82550000Y-49500000D01*
X82550000Y-50500000D01*
G37*
G36*
X97750000Y-50500000D02*
G01*
X95250000Y-50500000D01*
X95250000Y-49500000D01*
X97750000Y-49500000D01*
X97750000Y-50500000D01*
G37*
G36*
X99854850Y-48125964D02*
G01*
X99905040Y-48131787D01*
X99922189Y-48139359D01*
X99945671Y-48144030D01*
X99970810Y-48160827D01*
X99990696Y-48169608D01*
X100004277Y-48183189D01*
X100026777Y-48198223D01*
X100041810Y-48220722D01*
X100055391Y-48234303D01*
X100064170Y-48254186D01*
X100080970Y-48279329D01*
X100085641Y-48302812D01*
X100093212Y-48319959D01*
X100099033Y-48370139D01*
X100100000Y-48375000D01*
X100100000Y-49625000D01*
X100099032Y-49629863D01*
X100093212Y-49680040D01*
X100085641Y-49697185D01*
X100080970Y-49720671D01*
X100064169Y-49745815D01*
X100055391Y-49765696D01*
X100041812Y-49779274D01*
X100026777Y-49801777D01*
X100004274Y-49816812D01*
X99990696Y-49830391D01*
X99970815Y-49839169D01*
X99945671Y-49855970D01*
X99922185Y-49860641D01*
X99905040Y-49868212D01*
X99854861Y-49874032D01*
X99850000Y-49875000D01*
X99050000Y-49875000D01*
X99045138Y-49874032D01*
X98994959Y-49868212D01*
X98977812Y-49860641D01*
X98954329Y-49855970D01*
X98929186Y-49839170D01*
X98909303Y-49830391D01*
X98895722Y-49816810D01*
X98873223Y-49801777D01*
X98858189Y-49779277D01*
X98844608Y-49765696D01*
X98835827Y-49745810D01*
X98819030Y-49720671D01*
X98814359Y-49697189D01*
X98806787Y-49680040D01*
X98800964Y-49629849D01*
X98800000Y-49625000D01*
X98800000Y-48375000D01*
X98800964Y-48370150D01*
X98806787Y-48319959D01*
X98814359Y-48302808D01*
X98819030Y-48279329D01*
X98835826Y-48254191D01*
X98844608Y-48234303D01*
X98858191Y-48220719D01*
X98873223Y-48198223D01*
X98895719Y-48183191D01*
X98909303Y-48169608D01*
X98929191Y-48160826D01*
X98954329Y-48144030D01*
X98977808Y-48139359D01*
X98994959Y-48131787D01*
X99045151Y-48125964D01*
X99050000Y-48125000D01*
X99850000Y-48125000D01*
X99854850Y-48125964D01*
G37*
G36*
X102954850Y-48125964D02*
G01*
X103005040Y-48131787D01*
X103022189Y-48139359D01*
X103045671Y-48144030D01*
X103070810Y-48160827D01*
X103090696Y-48169608D01*
X103104277Y-48183189D01*
X103126777Y-48198223D01*
X103141810Y-48220722D01*
X103155391Y-48234303D01*
X103164170Y-48254186D01*
X103180970Y-48279329D01*
X103185641Y-48302812D01*
X103193212Y-48319959D01*
X103199033Y-48370139D01*
X103200000Y-48375000D01*
X103200000Y-49625000D01*
X103199032Y-49629863D01*
X103193212Y-49680040D01*
X103185641Y-49697185D01*
X103180970Y-49720671D01*
X103164169Y-49745815D01*
X103155391Y-49765696D01*
X103141812Y-49779274D01*
X103126777Y-49801777D01*
X103104274Y-49816812D01*
X103090696Y-49830391D01*
X103070815Y-49839169D01*
X103045671Y-49855970D01*
X103022185Y-49860641D01*
X103005040Y-49868212D01*
X102954861Y-49874032D01*
X102950000Y-49875000D01*
X102150000Y-49875000D01*
X102145138Y-49874032D01*
X102094959Y-49868212D01*
X102077812Y-49860641D01*
X102054329Y-49855970D01*
X102029186Y-49839170D01*
X102009303Y-49830391D01*
X101995722Y-49816810D01*
X101973223Y-49801777D01*
X101958189Y-49779277D01*
X101944608Y-49765696D01*
X101935827Y-49745810D01*
X101919030Y-49720671D01*
X101914359Y-49697189D01*
X101906787Y-49680040D01*
X101900964Y-49629849D01*
X101900000Y-49625000D01*
X101900000Y-48375000D01*
X101900964Y-48370150D01*
X101906787Y-48319959D01*
X101914359Y-48302808D01*
X101919030Y-48279329D01*
X101935826Y-48254191D01*
X101944608Y-48234303D01*
X101958191Y-48220719D01*
X101973223Y-48198223D01*
X101995719Y-48183191D01*
X102009303Y-48169608D01*
X102029191Y-48160826D01*
X102054329Y-48144030D01*
X102077808Y-48139359D01*
X102094959Y-48131787D01*
X102145151Y-48125964D01*
X102150000Y-48125000D01*
X102950000Y-48125000D01*
X102954850Y-48125964D01*
G37*
G36*
X57367714Y-48292295D02*
G01*
X57503548Y-48348559D01*
X57625795Y-48430242D01*
X57729758Y-48534205D01*
X57811441Y-48656452D01*
X57867705Y-48792286D01*
X57896389Y-48936487D01*
X57896389Y-49083513D01*
X57867705Y-49227714D01*
X57811441Y-49363548D01*
X57729758Y-49485795D01*
X57625795Y-49589758D01*
X57503548Y-49671441D01*
X57367714Y-49727705D01*
X57223513Y-49756389D01*
X57076487Y-49756389D01*
X56932286Y-49727705D01*
X56796452Y-49671441D01*
X56674205Y-49589758D01*
X56570242Y-49485795D01*
X56488559Y-49363548D01*
X56432295Y-49227714D01*
X56403611Y-49083513D01*
X56403611Y-48936487D01*
X56432295Y-48792286D01*
X56488559Y-48656452D01*
X56570242Y-48534205D01*
X56674205Y-48430242D01*
X56796452Y-48348559D01*
X56932286Y-48292295D01*
X57076487Y-48263611D01*
X57223513Y-48263611D01*
X57367714Y-48292295D01*
G37*
G36*
X59907714Y-48292295D02*
G01*
X60043548Y-48348559D01*
X60165795Y-48430242D01*
X60269758Y-48534205D01*
X60351441Y-48656452D01*
X60407705Y-48792286D01*
X60436389Y-48936487D01*
X60436389Y-49083513D01*
X60407705Y-49227714D01*
X60351441Y-49363548D01*
X60269758Y-49485795D01*
X60165795Y-49589758D01*
X60043548Y-49671441D01*
X59907714Y-49727705D01*
X59763513Y-49756389D01*
X59616487Y-49756389D01*
X59472286Y-49727705D01*
X59336452Y-49671441D01*
X59214205Y-49589758D01*
X59110242Y-49485795D01*
X59028559Y-49363548D01*
X58972295Y-49227714D01*
X58943611Y-49083513D01*
X58943611Y-48936487D01*
X58972295Y-48792286D01*
X59028559Y-48656452D01*
X59110242Y-48534205D01*
X59214205Y-48430242D01*
X59336452Y-48348559D01*
X59472286Y-48292295D01*
X59616487Y-48263611D01*
X59763513Y-48263611D01*
X59907714Y-48292295D01*
G37*
G36*
X62447714Y-48292295D02*
G01*
X62583548Y-48348559D01*
X62705795Y-48430242D01*
X62809758Y-48534205D01*
X62891441Y-48656452D01*
X62947705Y-48792286D01*
X62976389Y-48936487D01*
X62976389Y-49083513D01*
X62947705Y-49227714D01*
X62891441Y-49363548D01*
X62809758Y-49485795D01*
X62705795Y-49589758D01*
X62583548Y-49671441D01*
X62447714Y-49727705D01*
X62303513Y-49756389D01*
X62156487Y-49756389D01*
X62012286Y-49727705D01*
X61876452Y-49671441D01*
X61754205Y-49589758D01*
X61650242Y-49485795D01*
X61568559Y-49363548D01*
X61512295Y-49227714D01*
X61483611Y-49083513D01*
X61483611Y-48936487D01*
X61512295Y-48792286D01*
X61568559Y-48656452D01*
X61650242Y-48534205D01*
X61754205Y-48430242D01*
X61876452Y-48348559D01*
X62012286Y-48292295D01*
X62156487Y-48263611D01*
X62303513Y-48263611D01*
X62447714Y-48292295D01*
G37*
G36*
X64987714Y-48292295D02*
G01*
X65123548Y-48348559D01*
X65245795Y-48430242D01*
X65349758Y-48534205D01*
X65431441Y-48656452D01*
X65487705Y-48792286D01*
X65516389Y-48936487D01*
X65516389Y-49083513D01*
X65487705Y-49227714D01*
X65431441Y-49363548D01*
X65349758Y-49485795D01*
X65245795Y-49589758D01*
X65123548Y-49671441D01*
X64987714Y-49727705D01*
X64843513Y-49756389D01*
X64696487Y-49756389D01*
X64552286Y-49727705D01*
X64416452Y-49671441D01*
X64294205Y-49589758D01*
X64190242Y-49485795D01*
X64108559Y-49363548D01*
X64052295Y-49227714D01*
X64023611Y-49083513D01*
X64023611Y-48936487D01*
X64052295Y-48792286D01*
X64108559Y-48656452D01*
X64190242Y-48534205D01*
X64294205Y-48430242D01*
X64416452Y-48348559D01*
X64552286Y-48292295D01*
X64696487Y-48263611D01*
X64843513Y-48263611D01*
X64987714Y-48292295D01*
G37*
G36*
X67527714Y-48292295D02*
G01*
X67663548Y-48348559D01*
X67785795Y-48430242D01*
X67889758Y-48534205D01*
X67971441Y-48656452D01*
X68027705Y-48792286D01*
X68056389Y-48936487D01*
X68056389Y-49083513D01*
X68027705Y-49227714D01*
X67971441Y-49363548D01*
X67889758Y-49485795D01*
X67785795Y-49589758D01*
X67663548Y-49671441D01*
X67527714Y-49727705D01*
X67383513Y-49756389D01*
X67236487Y-49756389D01*
X67092286Y-49727705D01*
X66956452Y-49671441D01*
X66834205Y-49589758D01*
X66730242Y-49485795D01*
X66648559Y-49363548D01*
X66592295Y-49227714D01*
X66563611Y-49083513D01*
X66563611Y-48936487D01*
X66592295Y-48792286D01*
X66648559Y-48656452D01*
X66730242Y-48534205D01*
X66834205Y-48430242D01*
X66956452Y-48348559D01*
X67092286Y-48292295D01*
X67236487Y-48263611D01*
X67383513Y-48263611D01*
X67527714Y-48292295D01*
G37*
G36*
X70067714Y-48292295D02*
G01*
X70203548Y-48348559D01*
X70325795Y-48430242D01*
X70429758Y-48534205D01*
X70511441Y-48656452D01*
X70567705Y-48792286D01*
X70596389Y-48936487D01*
X70596389Y-49083513D01*
X70567705Y-49227714D01*
X70511441Y-49363548D01*
X70429758Y-49485795D01*
X70325795Y-49589758D01*
X70203548Y-49671441D01*
X70067714Y-49727705D01*
X69923513Y-49756389D01*
X69776487Y-49756389D01*
X69632286Y-49727705D01*
X69496452Y-49671441D01*
X69374205Y-49589758D01*
X69270242Y-49485795D01*
X69188559Y-49363548D01*
X69132295Y-49227714D01*
X69103611Y-49083513D01*
X69103611Y-48936487D01*
X69132295Y-48792286D01*
X69188559Y-48656452D01*
X69270242Y-48534205D01*
X69374205Y-48430242D01*
X69496452Y-48348559D01*
X69632286Y-48292295D01*
X69776487Y-48263611D01*
X69923513Y-48263611D01*
X70067714Y-48292295D01*
G37*
G36*
X108217714Y-48292295D02*
G01*
X108353548Y-48348559D01*
X108475795Y-48430242D01*
X108579758Y-48534205D01*
X108661441Y-48656452D01*
X108717705Y-48792286D01*
X108746389Y-48936487D01*
X108746389Y-49083513D01*
X108717705Y-49227714D01*
X108661441Y-49363548D01*
X108579758Y-49485795D01*
X108475795Y-49589758D01*
X108353548Y-49671441D01*
X108217714Y-49727705D01*
X108073513Y-49756389D01*
X107926487Y-49756389D01*
X107782286Y-49727705D01*
X107646452Y-49671441D01*
X107524205Y-49589758D01*
X107420242Y-49485795D01*
X107338559Y-49363548D01*
X107282295Y-49227714D01*
X107253611Y-49083513D01*
X107253611Y-48936487D01*
X107282295Y-48792286D01*
X107338559Y-48656452D01*
X107420242Y-48534205D01*
X107524205Y-48430242D01*
X107646452Y-48348559D01*
X107782286Y-48292295D01*
X107926487Y-48263611D01*
X108073513Y-48263611D01*
X108217714Y-48292295D01*
G37*
G36*
X110757714Y-48292295D02*
G01*
X110893548Y-48348559D01*
X111015795Y-48430242D01*
X111119758Y-48534205D01*
X111201441Y-48656452D01*
X111257705Y-48792286D01*
X111286389Y-48936487D01*
X111286389Y-49083513D01*
X111257705Y-49227714D01*
X111201441Y-49363548D01*
X111119758Y-49485795D01*
X111015795Y-49589758D01*
X110893548Y-49671441D01*
X110757714Y-49727705D01*
X110613513Y-49756389D01*
X110466487Y-49756389D01*
X110322286Y-49727705D01*
X110186452Y-49671441D01*
X110064205Y-49589758D01*
X109960242Y-49485795D01*
X109878559Y-49363548D01*
X109822295Y-49227714D01*
X109793611Y-49083513D01*
X109793611Y-48936487D01*
X109822295Y-48792286D01*
X109878559Y-48656452D01*
X109960242Y-48534205D01*
X110064205Y-48430242D01*
X110186452Y-48348559D01*
X110322286Y-48292295D01*
X110466487Y-48263611D01*
X110613513Y-48263611D01*
X110757714Y-48292295D01*
G37*
G36*
X113297714Y-48292295D02*
G01*
X113433548Y-48348559D01*
X113555795Y-48430242D01*
X113659758Y-48534205D01*
X113741441Y-48656452D01*
X113797705Y-48792286D01*
X113826389Y-48936487D01*
X113826389Y-49083513D01*
X113797705Y-49227714D01*
X113741441Y-49363548D01*
X113659758Y-49485795D01*
X113555795Y-49589758D01*
X113433548Y-49671441D01*
X113297714Y-49727705D01*
X113153513Y-49756389D01*
X113006487Y-49756389D01*
X112862286Y-49727705D01*
X112726452Y-49671441D01*
X112604205Y-49589758D01*
X112500242Y-49485795D01*
X112418559Y-49363548D01*
X112362295Y-49227714D01*
X112333611Y-49083513D01*
X112333611Y-48936487D01*
X112362295Y-48792286D01*
X112418559Y-48656452D01*
X112500242Y-48534205D01*
X112604205Y-48430242D01*
X112726452Y-48348559D01*
X112862286Y-48292295D01*
X113006487Y-48263611D01*
X113153513Y-48263611D01*
X113297714Y-48292295D01*
G37*
G36*
X115837714Y-48292295D02*
G01*
X115973548Y-48348559D01*
X116095795Y-48430242D01*
X116199758Y-48534205D01*
X116281441Y-48656452D01*
X116337705Y-48792286D01*
X116366389Y-48936487D01*
X116366389Y-49083513D01*
X116337705Y-49227714D01*
X116281441Y-49363548D01*
X116199758Y-49485795D01*
X116095795Y-49589758D01*
X115973548Y-49671441D01*
X115837714Y-49727705D01*
X115693513Y-49756389D01*
X115546487Y-49756389D01*
X115402286Y-49727705D01*
X115266452Y-49671441D01*
X115144205Y-49589758D01*
X115040242Y-49485795D01*
X114958559Y-49363548D01*
X114902295Y-49227714D01*
X114873611Y-49083513D01*
X114873611Y-48936487D01*
X114902295Y-48792286D01*
X114958559Y-48656452D01*
X115040242Y-48534205D01*
X115144205Y-48430242D01*
X115266452Y-48348559D01*
X115402286Y-48292295D01*
X115546487Y-48263611D01*
X115693513Y-48263611D01*
X115837714Y-48292295D01*
G37*
G36*
X118377714Y-48292295D02*
G01*
X118513548Y-48348559D01*
X118635795Y-48430242D01*
X118739758Y-48534205D01*
X118821441Y-48656452D01*
X118877705Y-48792286D01*
X118906389Y-48936487D01*
X118906389Y-49083513D01*
X118877705Y-49227714D01*
X118821441Y-49363548D01*
X118739758Y-49485795D01*
X118635795Y-49589758D01*
X118513548Y-49671441D01*
X118377714Y-49727705D01*
X118233513Y-49756389D01*
X118086487Y-49756389D01*
X117942286Y-49727705D01*
X117806452Y-49671441D01*
X117684205Y-49589758D01*
X117580242Y-49485795D01*
X117498559Y-49363548D01*
X117442295Y-49227714D01*
X117413611Y-49083513D01*
X117413611Y-48936487D01*
X117442295Y-48792286D01*
X117498559Y-48656452D01*
X117580242Y-48534205D01*
X117684205Y-48430242D01*
X117806452Y-48348559D01*
X117942286Y-48292295D01*
X118086487Y-48263611D01*
X118233513Y-48263611D01*
X118377714Y-48292295D01*
G37*
G36*
X120917714Y-48292295D02*
G01*
X121053548Y-48348559D01*
X121175795Y-48430242D01*
X121279758Y-48534205D01*
X121361441Y-48656452D01*
X121417705Y-48792286D01*
X121446389Y-48936487D01*
X121446389Y-49083513D01*
X121417705Y-49227714D01*
X121361441Y-49363548D01*
X121279758Y-49485795D01*
X121175795Y-49589758D01*
X121053548Y-49671441D01*
X120917714Y-49727705D01*
X120773513Y-49756389D01*
X120626487Y-49756389D01*
X120482286Y-49727705D01*
X120346452Y-49671441D01*
X120224205Y-49589758D01*
X120120242Y-49485795D01*
X120038559Y-49363548D01*
X119982295Y-49227714D01*
X119953611Y-49083513D01*
X119953611Y-48936487D01*
X119982295Y-48792286D01*
X120038559Y-48656452D01*
X120120242Y-48534205D01*
X120224205Y-48430242D01*
X120346452Y-48348559D01*
X120482286Y-48292295D01*
X120626487Y-48263611D01*
X120773513Y-48263611D01*
X120917714Y-48292295D01*
G37*
G36*
X124629850Y-47800964D02*
G01*
X124680040Y-47806787D01*
X124697189Y-47814359D01*
X124720671Y-47819030D01*
X124745810Y-47835827D01*
X124765696Y-47844608D01*
X124779277Y-47858189D01*
X124801777Y-47873223D01*
X124816810Y-47895722D01*
X124830391Y-47909303D01*
X124839170Y-47929186D01*
X124855970Y-47954329D01*
X124860641Y-47977812D01*
X124868212Y-47994959D01*
X124874033Y-48045139D01*
X124875000Y-48050000D01*
X124875000Y-48850000D01*
X124874032Y-48854863D01*
X124868212Y-48905040D01*
X124860641Y-48922185D01*
X124855970Y-48945671D01*
X124839169Y-48970815D01*
X124830391Y-48990696D01*
X124816812Y-49004274D01*
X124801777Y-49026777D01*
X124779274Y-49041812D01*
X124765696Y-49055391D01*
X124745815Y-49064169D01*
X124720671Y-49080970D01*
X124697185Y-49085641D01*
X124680040Y-49093212D01*
X124629861Y-49099032D01*
X124625000Y-49100000D01*
X123375000Y-49100000D01*
X123370138Y-49099032D01*
X123319959Y-49093212D01*
X123302812Y-49085641D01*
X123279329Y-49080970D01*
X123254186Y-49064170D01*
X123234303Y-49055391D01*
X123220722Y-49041810D01*
X123198223Y-49026777D01*
X123183189Y-49004277D01*
X123169608Y-48990696D01*
X123160827Y-48970810D01*
X123144030Y-48945671D01*
X123139359Y-48922189D01*
X123131787Y-48905040D01*
X123125964Y-48854849D01*
X123125000Y-48850000D01*
X123125000Y-48050000D01*
X123125964Y-48045150D01*
X123131787Y-47994959D01*
X123139359Y-47977808D01*
X123144030Y-47954329D01*
X123160826Y-47929191D01*
X123169608Y-47909303D01*
X123183191Y-47895719D01*
X123198223Y-47873223D01*
X123220719Y-47858191D01*
X123234303Y-47844608D01*
X123254191Y-47835826D01*
X123279329Y-47819030D01*
X123302808Y-47814359D01*
X123319959Y-47806787D01*
X123370151Y-47800964D01*
X123375000Y-47800000D01*
X124625000Y-47800000D01*
X124629850Y-47800964D01*
G37*
G36*
X82550000Y-48500000D02*
G01*
X80050000Y-48500000D01*
X80050000Y-47500000D01*
X82550000Y-47500000D01*
X82550000Y-48500000D01*
G37*
G36*
X97750000Y-48500000D02*
G01*
X95250000Y-48500000D01*
X95250000Y-47500000D01*
X97750000Y-47500000D01*
X97750000Y-48500000D01*
G37*
G36*
X134040000Y-46280000D02*
G01*
X132480000Y-46280000D01*
X132480000Y-44720000D01*
X134040000Y-44720000D01*
X134040000Y-46280000D01*
G37*
G36*
X25040285Y-44293060D02*
G01*
X25221397Y-44368079D01*
X25384393Y-44476990D01*
X25523010Y-44615607D01*
X25631921Y-44778603D01*
X25706940Y-44959715D01*
X25745185Y-45151983D01*
X25745185Y-45348017D01*
X25706940Y-45540285D01*
X25631921Y-45721397D01*
X25523010Y-45884393D01*
X25384393Y-46023010D01*
X25221397Y-46131921D01*
X25040285Y-46206940D01*
X24848017Y-46245185D01*
X24651983Y-46245185D01*
X24459715Y-46206940D01*
X24278603Y-46131921D01*
X24115607Y-46023010D01*
X23976990Y-45884393D01*
X23868079Y-45721397D01*
X23793060Y-45540285D01*
X23754815Y-45348017D01*
X23754815Y-45151983D01*
X23793060Y-44959715D01*
X23868079Y-44778603D01*
X23976990Y-44615607D01*
X24115607Y-44476990D01*
X24278603Y-44368079D01*
X24459715Y-44293060D01*
X24651983Y-44254815D01*
X24848017Y-44254815D01*
X25040285Y-44293060D01*
G37*
G36*
X31540285Y-44293060D02*
G01*
X31721397Y-44368079D01*
X31884393Y-44476990D01*
X32023010Y-44615607D01*
X32131921Y-44778603D01*
X32206940Y-44959715D01*
X32245185Y-45151983D01*
X32245185Y-45348017D01*
X32206940Y-45540285D01*
X32131921Y-45721397D01*
X32023010Y-45884393D01*
X31884393Y-46023010D01*
X31721397Y-46131921D01*
X31540285Y-46206940D01*
X31348017Y-46245185D01*
X31151983Y-46245185D01*
X30959715Y-46206940D01*
X30778603Y-46131921D01*
X30615607Y-46023010D01*
X30476990Y-45884393D01*
X30368079Y-45721397D01*
X30293060Y-45540285D01*
X30254815Y-45348017D01*
X30254815Y-45151983D01*
X30293060Y-44959715D01*
X30368079Y-44778603D01*
X30476990Y-44615607D01*
X30615607Y-44476990D01*
X30778603Y-44368079D01*
X30959715Y-44293060D01*
X31151983Y-44254815D01*
X31348017Y-44254815D01*
X31540285Y-44293060D01*
G37*
G36*
X34540285Y-44293060D02*
G01*
X34721397Y-44368079D01*
X34884393Y-44476990D01*
X35023010Y-44615607D01*
X35131921Y-44778603D01*
X35206940Y-44959715D01*
X35245185Y-45151983D01*
X35245185Y-45348017D01*
X35206940Y-45540285D01*
X35131921Y-45721397D01*
X35023010Y-45884393D01*
X34884393Y-46023010D01*
X34721397Y-46131921D01*
X34540285Y-46206940D01*
X34348017Y-46245185D01*
X34151983Y-46245185D01*
X33959715Y-46206940D01*
X33778603Y-46131921D01*
X33615607Y-46023010D01*
X33476990Y-45884393D01*
X33368079Y-45721397D01*
X33293060Y-45540285D01*
X33254815Y-45348017D01*
X33254815Y-45151983D01*
X33293060Y-44959715D01*
X33368079Y-44778603D01*
X33476990Y-44615607D01*
X33615607Y-44476990D01*
X33778603Y-44368079D01*
X33959715Y-44293060D01*
X34151983Y-44254815D01*
X34348017Y-44254815D01*
X34540285Y-44293060D01*
G37*
G36*
X41040285Y-44293060D02*
G01*
X41221397Y-44368079D01*
X41384393Y-44476990D01*
X41523010Y-44615607D01*
X41631921Y-44778603D01*
X41706940Y-44959715D01*
X41745185Y-45151983D01*
X41745185Y-45348017D01*
X41706940Y-45540285D01*
X41631921Y-45721397D01*
X41523010Y-45884393D01*
X41384393Y-46023010D01*
X41221397Y-46131921D01*
X41040285Y-46206940D01*
X40848017Y-46245185D01*
X40651983Y-46245185D01*
X40459715Y-46206940D01*
X40278603Y-46131921D01*
X40115607Y-46023010D01*
X39976990Y-45884393D01*
X39868079Y-45721397D01*
X39793060Y-45540285D01*
X39754815Y-45348017D01*
X39754815Y-45151983D01*
X39793060Y-44959715D01*
X39868079Y-44778603D01*
X39976990Y-44615607D01*
X40115607Y-44476990D01*
X40278603Y-44368079D01*
X40459715Y-44293060D01*
X40651983Y-44254815D01*
X40848017Y-44254815D01*
X41040285Y-44293060D01*
G37*
G36*
X44040285Y-44293060D02*
G01*
X44221397Y-44368079D01*
X44384393Y-44476990D01*
X44523010Y-44615607D01*
X44631921Y-44778603D01*
X44706940Y-44959715D01*
X44745185Y-45151983D01*
X44745185Y-45348017D01*
X44706940Y-45540285D01*
X44631921Y-45721397D01*
X44523010Y-45884393D01*
X44384393Y-46023010D01*
X44221397Y-46131921D01*
X44040285Y-46206940D01*
X43848017Y-46245185D01*
X43651983Y-46245185D01*
X43459715Y-46206940D01*
X43278603Y-46131921D01*
X43115607Y-46023010D01*
X42976990Y-45884393D01*
X42868079Y-45721397D01*
X42793060Y-45540285D01*
X42754815Y-45348017D01*
X42754815Y-45151983D01*
X42793060Y-44959715D01*
X42868079Y-44778603D01*
X42976990Y-44615607D01*
X43115607Y-44476990D01*
X43278603Y-44368079D01*
X43459715Y-44293060D01*
X43651983Y-44254815D01*
X43848017Y-44254815D01*
X44040285Y-44293060D01*
G37*
G36*
X50540285Y-44293060D02*
G01*
X50721397Y-44368079D01*
X50884393Y-44476990D01*
X51023010Y-44615607D01*
X51131921Y-44778603D01*
X51206940Y-44959715D01*
X51245185Y-45151983D01*
X51245185Y-45348017D01*
X51206940Y-45540285D01*
X51131921Y-45721397D01*
X51023010Y-45884393D01*
X50884393Y-46023010D01*
X50721397Y-46131921D01*
X50540285Y-46206940D01*
X50348017Y-46245185D01*
X50151983Y-46245185D01*
X49959715Y-46206940D01*
X49778603Y-46131921D01*
X49615607Y-46023010D01*
X49476990Y-45884393D01*
X49368079Y-45721397D01*
X49293060Y-45540285D01*
X49254815Y-45348017D01*
X49254815Y-45151983D01*
X49293060Y-44959715D01*
X49368079Y-44778603D01*
X49476990Y-44615607D01*
X49615607Y-44476990D01*
X49778603Y-44368079D01*
X49959715Y-44293060D01*
X50151983Y-44254815D01*
X50348017Y-44254815D01*
X50540285Y-44293060D01*
G37*
G36*
X28629850Y-43900964D02*
G01*
X28680040Y-43906787D01*
X28697189Y-43914359D01*
X28720671Y-43919030D01*
X28745810Y-43935827D01*
X28765696Y-43944608D01*
X28779277Y-43958189D01*
X28801777Y-43973223D01*
X28816810Y-43995722D01*
X28830391Y-44009303D01*
X28839170Y-44029186D01*
X28855970Y-44054329D01*
X28860641Y-44077812D01*
X28868212Y-44094959D01*
X28874033Y-44145139D01*
X28875000Y-44150000D01*
X28875000Y-44950000D01*
X28874032Y-44954863D01*
X28868212Y-45005040D01*
X28860641Y-45022185D01*
X28855970Y-45045671D01*
X28839169Y-45070815D01*
X28830391Y-45090696D01*
X28816812Y-45104274D01*
X28801777Y-45126777D01*
X28779274Y-45141812D01*
X28765696Y-45155391D01*
X28745815Y-45164169D01*
X28720671Y-45180970D01*
X28697185Y-45185641D01*
X28680040Y-45193212D01*
X28629861Y-45199032D01*
X28625000Y-45200000D01*
X27375000Y-45200000D01*
X27370138Y-45199032D01*
X27319959Y-45193212D01*
X27302812Y-45185641D01*
X27279329Y-45180970D01*
X27254186Y-45164170D01*
X27234303Y-45155391D01*
X27220722Y-45141810D01*
X27198223Y-45126777D01*
X27183189Y-45104277D01*
X27169608Y-45090696D01*
X27160827Y-45070810D01*
X27144030Y-45045671D01*
X27139359Y-45022189D01*
X27131787Y-45005040D01*
X27125964Y-44954849D01*
X27125000Y-44950000D01*
X27125000Y-44150000D01*
X27125964Y-44145150D01*
X27131787Y-44094959D01*
X27139359Y-44077808D01*
X27144030Y-44054329D01*
X27160826Y-44029191D01*
X27169608Y-44009303D01*
X27183191Y-43995719D01*
X27198223Y-43973223D01*
X27220719Y-43958191D01*
X27234303Y-43944608D01*
X27254191Y-43935826D01*
X27279329Y-43919030D01*
X27302808Y-43914359D01*
X27319959Y-43906787D01*
X27370151Y-43900964D01*
X27375000Y-43900000D01*
X28625000Y-43900000D01*
X28629850Y-43900964D01*
G37*
G36*
X38129850Y-43900964D02*
G01*
X38180040Y-43906787D01*
X38197189Y-43914359D01*
X38220671Y-43919030D01*
X38245810Y-43935827D01*
X38265696Y-43944608D01*
X38279277Y-43958189D01*
X38301777Y-43973223D01*
X38316810Y-43995722D01*
X38330391Y-44009303D01*
X38339170Y-44029186D01*
X38355970Y-44054329D01*
X38360641Y-44077812D01*
X38368212Y-44094959D01*
X38374033Y-44145139D01*
X38375000Y-44150000D01*
X38375000Y-44950000D01*
X38374032Y-44954863D01*
X38368212Y-45005040D01*
X38360641Y-45022185D01*
X38355970Y-45045671D01*
X38339169Y-45070815D01*
X38330391Y-45090696D01*
X38316812Y-45104274D01*
X38301777Y-45126777D01*
X38279274Y-45141812D01*
X38265696Y-45155391D01*
X38245815Y-45164169D01*
X38220671Y-45180970D01*
X38197185Y-45185641D01*
X38180040Y-45193212D01*
X38129861Y-45199032D01*
X38125000Y-45200000D01*
X36875000Y-45200000D01*
X36870138Y-45199032D01*
X36819959Y-45193212D01*
X36802812Y-45185641D01*
X36779329Y-45180970D01*
X36754186Y-45164170D01*
X36734303Y-45155391D01*
X36720722Y-45141810D01*
X36698223Y-45126777D01*
X36683189Y-45104277D01*
X36669608Y-45090696D01*
X36660827Y-45070810D01*
X36644030Y-45045671D01*
X36639359Y-45022189D01*
X36631787Y-45005040D01*
X36625964Y-44954849D01*
X36625000Y-44950000D01*
X36625000Y-44150000D01*
X36625964Y-44145150D01*
X36631787Y-44094959D01*
X36639359Y-44077808D01*
X36644030Y-44054329D01*
X36660826Y-44029191D01*
X36669608Y-44009303D01*
X36683191Y-43995719D01*
X36698223Y-43973223D01*
X36720719Y-43958191D01*
X36734303Y-43944608D01*
X36754191Y-43935826D01*
X36779329Y-43919030D01*
X36802808Y-43914359D01*
X36819959Y-43906787D01*
X36870151Y-43900964D01*
X36875000Y-43900000D01*
X38125000Y-43900000D01*
X38129850Y-43900964D01*
G37*
G36*
X47629850Y-43900964D02*
G01*
X47680040Y-43906787D01*
X47697189Y-43914359D01*
X47720671Y-43919030D01*
X47745810Y-43935827D01*
X47765696Y-43944608D01*
X47779277Y-43958189D01*
X47801777Y-43973223D01*
X47816810Y-43995722D01*
X47830391Y-44009303D01*
X47839170Y-44029186D01*
X47855970Y-44054329D01*
X47860641Y-44077812D01*
X47868212Y-44094959D01*
X47874033Y-44145139D01*
X47875000Y-44150000D01*
X47875000Y-44950000D01*
X47874032Y-44954863D01*
X47868212Y-45005040D01*
X47860641Y-45022185D01*
X47855970Y-45045671D01*
X47839169Y-45070815D01*
X47830391Y-45090696D01*
X47816812Y-45104274D01*
X47801777Y-45126777D01*
X47779274Y-45141812D01*
X47765696Y-45155391D01*
X47745815Y-45164169D01*
X47720671Y-45180970D01*
X47697185Y-45185641D01*
X47680040Y-45193212D01*
X47629861Y-45199032D01*
X47625000Y-45200000D01*
X46375000Y-45200000D01*
X46370138Y-45199032D01*
X46319959Y-45193212D01*
X46302812Y-45185641D01*
X46279329Y-45180970D01*
X46254186Y-45164170D01*
X46234303Y-45155391D01*
X46220722Y-45141810D01*
X46198223Y-45126777D01*
X46183189Y-45104277D01*
X46169608Y-45090696D01*
X46160827Y-45070810D01*
X46144030Y-45045671D01*
X46139359Y-45022189D01*
X46131787Y-45005040D01*
X46125964Y-44954849D01*
X46125000Y-44950000D01*
X46125000Y-44150000D01*
X46125964Y-44145150D01*
X46131787Y-44094959D01*
X46139359Y-44077808D01*
X46144030Y-44054329D01*
X46160826Y-44029191D01*
X46169608Y-44009303D01*
X46183191Y-43995719D01*
X46198223Y-43973223D01*
X46220719Y-43958191D01*
X46234303Y-43944608D01*
X46254191Y-43935826D01*
X46279329Y-43919030D01*
X46302808Y-43914359D01*
X46319959Y-43906787D01*
X46370151Y-43900964D01*
X46375000Y-43900000D01*
X47625000Y-43900000D01*
X47629850Y-43900964D01*
G37*
G36*
X116750000Y-45000000D02*
G01*
X115500000Y-45000000D01*
X115500000Y-44000000D01*
X116750000Y-44000000D01*
X116750000Y-45000000D01*
G37*
G36*
X124500000Y-45000000D02*
G01*
X123250000Y-45000000D01*
X123250000Y-44000000D01*
X124500000Y-44000000D01*
X124500000Y-45000000D01*
G37*
G36*
X133404850Y-42125964D02*
G01*
X133455040Y-42131787D01*
X133472189Y-42139359D01*
X133495671Y-42144030D01*
X133520810Y-42160827D01*
X133540696Y-42169608D01*
X133554277Y-42183189D01*
X133576777Y-42198223D01*
X133591810Y-42220722D01*
X133605391Y-42234303D01*
X133614170Y-42254186D01*
X133630970Y-42279329D01*
X133635641Y-42302812D01*
X133643212Y-42319959D01*
X133649033Y-42370139D01*
X133650000Y-42375000D01*
X133650000Y-43625000D01*
X133649032Y-43629863D01*
X133643212Y-43680040D01*
X133635641Y-43697185D01*
X133630970Y-43720671D01*
X133614169Y-43745815D01*
X133605391Y-43765696D01*
X133591812Y-43779274D01*
X133576777Y-43801777D01*
X133554274Y-43816812D01*
X133540696Y-43830391D01*
X133520815Y-43839169D01*
X133495671Y-43855970D01*
X133472185Y-43860641D01*
X133455040Y-43868212D01*
X133404861Y-43874032D01*
X133400000Y-43875000D01*
X132600000Y-43875000D01*
X132595138Y-43874032D01*
X132544959Y-43868212D01*
X132527812Y-43860641D01*
X132504329Y-43855970D01*
X132479186Y-43839170D01*
X132459303Y-43830391D01*
X132445722Y-43816810D01*
X132423223Y-43801777D01*
X132408189Y-43779277D01*
X132394608Y-43765696D01*
X132385827Y-43745810D01*
X132369030Y-43720671D01*
X132364359Y-43697189D01*
X132356787Y-43680040D01*
X132350964Y-43629849D01*
X132350000Y-43625000D01*
X132350000Y-42375000D01*
X132350964Y-42370150D01*
X132356787Y-42319959D01*
X132364359Y-42302808D01*
X132369030Y-42279329D01*
X132385826Y-42254191D01*
X132394608Y-42234303D01*
X132408191Y-42220719D01*
X132423223Y-42198223D01*
X132445719Y-42183191D01*
X132459303Y-42169608D01*
X132479191Y-42160826D01*
X132504329Y-42144030D01*
X132527808Y-42139359D01*
X132544959Y-42131787D01*
X132595151Y-42125964D01*
X132600000Y-42125000D01*
X133400000Y-42125000D01*
X133404850Y-42125964D01*
G37*
G36*
X136504850Y-42125964D02*
G01*
X136555040Y-42131787D01*
X136572189Y-42139359D01*
X136595671Y-42144030D01*
X136620810Y-42160827D01*
X136640696Y-42169608D01*
X136654277Y-42183189D01*
X136676777Y-42198223D01*
X136691810Y-42220722D01*
X136705391Y-42234303D01*
X136714170Y-42254186D01*
X136730970Y-42279329D01*
X136735641Y-42302812D01*
X136743212Y-42319959D01*
X136749033Y-42370139D01*
X136750000Y-42375000D01*
X136750000Y-43625000D01*
X136749032Y-43629863D01*
X136743212Y-43680040D01*
X136735641Y-43697185D01*
X136730970Y-43720671D01*
X136714169Y-43745815D01*
X136705391Y-43765696D01*
X136691812Y-43779274D01*
X136676777Y-43801777D01*
X136654274Y-43816812D01*
X136640696Y-43830391D01*
X136620815Y-43839169D01*
X136595671Y-43855970D01*
X136572185Y-43860641D01*
X136555040Y-43868212D01*
X136504861Y-43874032D01*
X136500000Y-43875000D01*
X135700000Y-43875000D01*
X135695138Y-43874032D01*
X135644959Y-43868212D01*
X135627812Y-43860641D01*
X135604329Y-43855970D01*
X135579186Y-43839170D01*
X135559303Y-43830391D01*
X135545722Y-43816810D01*
X135523223Y-43801777D01*
X135508189Y-43779277D01*
X135494608Y-43765696D01*
X135485827Y-43745810D01*
X135469030Y-43720671D01*
X135464359Y-43697189D01*
X135456787Y-43680040D01*
X135450964Y-43629849D01*
X135450000Y-43625000D01*
X135450000Y-42375000D01*
X135450964Y-42370150D01*
X135456787Y-42319959D01*
X135464359Y-42302808D01*
X135469030Y-42279329D01*
X135485826Y-42254191D01*
X135494608Y-42234303D01*
X135508191Y-42220719D01*
X135523223Y-42198223D01*
X135545719Y-42183191D01*
X135559303Y-42169608D01*
X135579191Y-42160826D01*
X135604329Y-42144030D01*
X135627808Y-42139359D01*
X135644959Y-42131787D01*
X135695151Y-42125964D01*
X135700000Y-42125000D01*
X136500000Y-42125000D01*
X136504850Y-42125964D01*
G37*
G36*
X138486422Y-42253587D02*
G01*
X138627689Y-42312101D01*
X138754827Y-42397052D01*
X138862948Y-42505173D01*
X138947899Y-42632311D01*
X139006413Y-42773578D01*
X139036244Y-42923547D01*
X139036244Y-43076453D01*
X139006413Y-43226422D01*
X138947899Y-43367689D01*
X138862948Y-43494827D01*
X138754827Y-43602948D01*
X138627689Y-43687899D01*
X138486422Y-43746413D01*
X138336453Y-43776244D01*
X138183547Y-43776244D01*
X138033578Y-43746413D01*
X137892311Y-43687899D01*
X137765173Y-43602948D01*
X137657052Y-43494827D01*
X137572101Y-43367689D01*
X137513587Y-43226422D01*
X137483756Y-43076453D01*
X137483756Y-42923547D01*
X137513587Y-42773578D01*
X137572101Y-42632311D01*
X137657052Y-42505173D01*
X137765173Y-42397052D01*
X137892311Y-42312101D01*
X138033578Y-42253587D01*
X138183547Y-42223756D01*
X138336453Y-42223756D01*
X138486422Y-42253587D01*
G37*
G36*
X28629850Y-40800964D02*
G01*
X28680040Y-40806787D01*
X28697189Y-40814359D01*
X28720671Y-40819030D01*
X28745810Y-40835827D01*
X28765696Y-40844608D01*
X28779277Y-40858189D01*
X28801777Y-40873223D01*
X28816810Y-40895722D01*
X28830391Y-40909303D01*
X28839170Y-40929186D01*
X28855970Y-40954329D01*
X28860641Y-40977812D01*
X28868212Y-40994959D01*
X28874033Y-41045139D01*
X28875000Y-41050000D01*
X28875000Y-41850000D01*
X28874032Y-41854863D01*
X28868212Y-41905040D01*
X28860641Y-41922185D01*
X28855970Y-41945671D01*
X28839169Y-41970815D01*
X28830391Y-41990696D01*
X28816812Y-42004274D01*
X28801777Y-42026777D01*
X28779274Y-42041812D01*
X28765696Y-42055391D01*
X28745815Y-42064169D01*
X28720671Y-42080970D01*
X28697185Y-42085641D01*
X28680040Y-42093212D01*
X28629861Y-42099032D01*
X28625000Y-42100000D01*
X27375000Y-42100000D01*
X27370138Y-42099032D01*
X27319959Y-42093212D01*
X27302812Y-42085641D01*
X27279329Y-42080970D01*
X27254186Y-42064170D01*
X27234303Y-42055391D01*
X27220722Y-42041810D01*
X27198223Y-42026777D01*
X27183189Y-42004277D01*
X27169608Y-41990696D01*
X27160827Y-41970810D01*
X27144030Y-41945671D01*
X27139359Y-41922189D01*
X27131787Y-41905040D01*
X27125964Y-41854849D01*
X27125000Y-41850000D01*
X27125000Y-41050000D01*
X27125964Y-41045150D01*
X27131787Y-40994959D01*
X27139359Y-40977808D01*
X27144030Y-40954329D01*
X27160826Y-40929191D01*
X27169608Y-40909303D01*
X27183191Y-40895719D01*
X27198223Y-40873223D01*
X27220719Y-40858191D01*
X27234303Y-40844608D01*
X27254191Y-40835826D01*
X27279329Y-40819030D01*
X27302808Y-40814359D01*
X27319959Y-40806787D01*
X27370151Y-40800964D01*
X27375000Y-40800000D01*
X28625000Y-40800000D01*
X28629850Y-40800964D01*
G37*
G36*
X38129850Y-40800964D02*
G01*
X38180040Y-40806787D01*
X38197189Y-40814359D01*
X38220671Y-40819030D01*
X38245810Y-40835827D01*
X38265696Y-40844608D01*
X38279277Y-40858189D01*
X38301777Y-40873223D01*
X38316810Y-40895722D01*
X38330391Y-40909303D01*
X38339170Y-40929186D01*
X38355970Y-40954329D01*
X38360641Y-40977812D01*
X38368212Y-40994959D01*
X38374033Y-41045139D01*
X38375000Y-41050000D01*
X38375000Y-41850000D01*
X38374032Y-41854863D01*
X38368212Y-41905040D01*
X38360641Y-41922185D01*
X38355970Y-41945671D01*
X38339169Y-41970815D01*
X38330391Y-41990696D01*
X38316812Y-42004274D01*
X38301777Y-42026777D01*
X38279274Y-42041812D01*
X38265696Y-42055391D01*
X38245815Y-42064169D01*
X38220671Y-42080970D01*
X38197185Y-42085641D01*
X38180040Y-42093212D01*
X38129861Y-42099032D01*
X38125000Y-42100000D01*
X36875000Y-42100000D01*
X36870138Y-42099032D01*
X36819959Y-42093212D01*
X36802812Y-42085641D01*
X36779329Y-42080970D01*
X36754186Y-42064170D01*
X36734303Y-42055391D01*
X36720722Y-42041810D01*
X36698223Y-42026777D01*
X36683189Y-42004277D01*
X36669608Y-41990696D01*
X36660827Y-41970810D01*
X36644030Y-41945671D01*
X36639359Y-41922189D01*
X36631787Y-41905040D01*
X36625964Y-41854849D01*
X36625000Y-41850000D01*
X36625000Y-41050000D01*
X36625964Y-41045150D01*
X36631787Y-40994959D01*
X36639359Y-40977808D01*
X36644030Y-40954329D01*
X36660826Y-40929191D01*
X36669608Y-40909303D01*
X36683191Y-40895719D01*
X36698223Y-40873223D01*
X36720719Y-40858191D01*
X36734303Y-40844608D01*
X36754191Y-40835826D01*
X36779329Y-40819030D01*
X36802808Y-40814359D01*
X36819959Y-40806787D01*
X36870151Y-40800964D01*
X36875000Y-40800000D01*
X38125000Y-40800000D01*
X38129850Y-40800964D01*
G37*
G36*
X47629850Y-40800964D02*
G01*
X47680040Y-40806787D01*
X47697189Y-40814359D01*
X47720671Y-40819030D01*
X47745810Y-40835827D01*
X47765696Y-40844608D01*
X47779277Y-40858189D01*
X47801777Y-40873223D01*
X47816810Y-40895722D01*
X47830391Y-40909303D01*
X47839170Y-40929186D01*
X47855970Y-40954329D01*
X47860641Y-40977812D01*
X47868212Y-40994959D01*
X47874033Y-41045139D01*
X47875000Y-41050000D01*
X47875000Y-41850000D01*
X47874032Y-41854863D01*
X47868212Y-41905040D01*
X47860641Y-41922185D01*
X47855970Y-41945671D01*
X47839169Y-41970815D01*
X47830391Y-41990696D01*
X47816812Y-42004274D01*
X47801777Y-42026777D01*
X47779274Y-42041812D01*
X47765696Y-42055391D01*
X47745815Y-42064169D01*
X47720671Y-42080970D01*
X47697185Y-42085641D01*
X47680040Y-42093212D01*
X47629861Y-42099032D01*
X47625000Y-42100000D01*
X46375000Y-42100000D01*
X46370138Y-42099032D01*
X46319959Y-42093212D01*
X46302812Y-42085641D01*
X46279329Y-42080970D01*
X46254186Y-42064170D01*
X46234303Y-42055391D01*
X46220722Y-42041810D01*
X46198223Y-42026777D01*
X46183189Y-42004277D01*
X46169608Y-41990696D01*
X46160827Y-41970810D01*
X46144030Y-41945671D01*
X46139359Y-41922189D01*
X46131787Y-41905040D01*
X46125964Y-41854849D01*
X46125000Y-41850000D01*
X46125000Y-41050000D01*
X46125964Y-41045150D01*
X46131787Y-40994959D01*
X46139359Y-40977808D01*
X46144030Y-40954329D01*
X46160826Y-40929191D01*
X46169608Y-40909303D01*
X46183191Y-40895719D01*
X46198223Y-40873223D01*
X46220719Y-40858191D01*
X46234303Y-40844608D01*
X46254191Y-40835826D01*
X46279329Y-40819030D01*
X46302808Y-40814359D01*
X46319959Y-40806787D01*
X46370151Y-40800964D01*
X46375000Y-40800000D01*
X47625000Y-40800000D01*
X47629850Y-40800964D01*
G37*
G36*
X25040285Y-39793060D02*
G01*
X25221397Y-39868079D01*
X25384393Y-39976990D01*
X25523010Y-40115607D01*
X25631921Y-40278603D01*
X25706940Y-40459715D01*
X25745185Y-40651983D01*
X25745185Y-40848017D01*
X25706940Y-41040285D01*
X25631921Y-41221397D01*
X25523010Y-41384393D01*
X25384393Y-41523010D01*
X25221397Y-41631921D01*
X25040285Y-41706940D01*
X24848017Y-41745185D01*
X24651983Y-41745185D01*
X24459715Y-41706940D01*
X24278603Y-41631921D01*
X24115607Y-41523010D01*
X23976990Y-41384393D01*
X23868079Y-41221397D01*
X23793060Y-41040285D01*
X23754815Y-40848017D01*
X23754815Y-40651983D01*
X23793060Y-40459715D01*
X23868079Y-40278603D01*
X23976990Y-40115607D01*
X24115607Y-39976990D01*
X24278603Y-39868079D01*
X24459715Y-39793060D01*
X24651983Y-39754815D01*
X24848017Y-39754815D01*
X25040285Y-39793060D01*
G37*
G36*
X31540285Y-39793060D02*
G01*
X31721397Y-39868079D01*
X31884393Y-39976990D01*
X32023010Y-40115607D01*
X32131921Y-40278603D01*
X32206940Y-40459715D01*
X32245185Y-40651983D01*
X32245185Y-40848017D01*
X32206940Y-41040285D01*
X32131921Y-41221397D01*
X32023010Y-41384393D01*
X31884393Y-41523010D01*
X31721397Y-41631921D01*
X31540285Y-41706940D01*
X31348017Y-41745185D01*
X31151983Y-41745185D01*
X30959715Y-41706940D01*
X30778603Y-41631921D01*
X30615607Y-41523010D01*
X30476990Y-41384393D01*
X30368079Y-41221397D01*
X30293060Y-41040285D01*
X30254815Y-40848017D01*
X30254815Y-40651983D01*
X30293060Y-40459715D01*
X30368079Y-40278603D01*
X30476990Y-40115607D01*
X30615607Y-39976990D01*
X30778603Y-39868079D01*
X30959715Y-39793060D01*
X31151983Y-39754815D01*
X31348017Y-39754815D01*
X31540285Y-39793060D01*
G37*
G36*
X34540285Y-39793060D02*
G01*
X34721397Y-39868079D01*
X34884393Y-39976990D01*
X35023010Y-40115607D01*
X35131921Y-40278603D01*
X35206940Y-40459715D01*
X35245185Y-40651983D01*
X35245185Y-40848017D01*
X35206940Y-41040285D01*
X35131921Y-41221397D01*
X35023010Y-41384393D01*
X34884393Y-41523010D01*
X34721397Y-41631921D01*
X34540285Y-41706940D01*
X34348017Y-41745185D01*
X34151983Y-41745185D01*
X33959715Y-41706940D01*
X33778603Y-41631921D01*
X33615607Y-41523010D01*
X33476990Y-41384393D01*
X33368079Y-41221397D01*
X33293060Y-41040285D01*
X33254815Y-40848017D01*
X33254815Y-40651983D01*
X33293060Y-40459715D01*
X33368079Y-40278603D01*
X33476990Y-40115607D01*
X33615607Y-39976990D01*
X33778603Y-39868079D01*
X33959715Y-39793060D01*
X34151983Y-39754815D01*
X34348017Y-39754815D01*
X34540285Y-39793060D01*
G37*
G36*
X41040285Y-39793060D02*
G01*
X41221397Y-39868079D01*
X41384393Y-39976990D01*
X41523010Y-40115607D01*
X41631921Y-40278603D01*
X41706940Y-40459715D01*
X41745185Y-40651983D01*
X41745185Y-40848017D01*
X41706940Y-41040285D01*
X41631921Y-41221397D01*
X41523010Y-41384393D01*
X41384393Y-41523010D01*
X41221397Y-41631921D01*
X41040285Y-41706940D01*
X40848017Y-41745185D01*
X40651983Y-41745185D01*
X40459715Y-41706940D01*
X40278603Y-41631921D01*
X40115607Y-41523010D01*
X39976990Y-41384393D01*
X39868079Y-41221397D01*
X39793060Y-41040285D01*
X39754815Y-40848017D01*
X39754815Y-40651983D01*
X39793060Y-40459715D01*
X39868079Y-40278603D01*
X39976990Y-40115607D01*
X40115607Y-39976990D01*
X40278603Y-39868079D01*
X40459715Y-39793060D01*
X40651983Y-39754815D01*
X40848017Y-39754815D01*
X41040285Y-39793060D01*
G37*
G36*
X44040285Y-39793060D02*
G01*
X44221397Y-39868079D01*
X44384393Y-39976990D01*
X44523010Y-40115607D01*
X44631921Y-40278603D01*
X44706940Y-40459715D01*
X44745185Y-40651983D01*
X44745185Y-40848017D01*
X44706940Y-41040285D01*
X44631921Y-41221397D01*
X44523010Y-41384393D01*
X44384393Y-41523010D01*
X44221397Y-41631921D01*
X44040285Y-41706940D01*
X43848017Y-41745185D01*
X43651983Y-41745185D01*
X43459715Y-41706940D01*
X43278603Y-41631921D01*
X43115607Y-41523010D01*
X42976990Y-41384393D01*
X42868079Y-41221397D01*
X42793060Y-41040285D01*
X42754815Y-40848017D01*
X42754815Y-40651983D01*
X42793060Y-40459715D01*
X42868079Y-40278603D01*
X42976990Y-40115607D01*
X43115607Y-39976990D01*
X43278603Y-39868079D01*
X43459715Y-39793060D01*
X43651983Y-39754815D01*
X43848017Y-39754815D01*
X44040285Y-39793060D01*
G37*
G36*
X50540285Y-39793060D02*
G01*
X50721397Y-39868079D01*
X50884393Y-39976990D01*
X51023010Y-40115607D01*
X51131921Y-40278603D01*
X51206940Y-40459715D01*
X51245185Y-40651983D01*
X51245185Y-40848017D01*
X51206940Y-41040285D01*
X51131921Y-41221397D01*
X51023010Y-41384393D01*
X50884393Y-41523010D01*
X50721397Y-41631921D01*
X50540285Y-41706940D01*
X50348017Y-41745185D01*
X50151983Y-41745185D01*
X49959715Y-41706940D01*
X49778603Y-41631921D01*
X49615607Y-41523010D01*
X49476990Y-41384393D01*
X49368079Y-41221397D01*
X49293060Y-41040285D01*
X49254815Y-40848017D01*
X49254815Y-40651983D01*
X49293060Y-40459715D01*
X49368079Y-40278603D01*
X49476990Y-40115607D01*
X49615607Y-39976990D01*
X49778603Y-39868079D01*
X49959715Y-39793060D01*
X50151983Y-39754815D01*
X50348017Y-39754815D01*
X50540285Y-39793060D01*
G37*
G36*
X133486422Y-39753587D02*
G01*
X133627689Y-39812101D01*
X133754827Y-39897052D01*
X133862948Y-40005173D01*
X133947899Y-40132311D01*
X134006413Y-40273578D01*
X134036244Y-40423547D01*
X134036244Y-40576453D01*
X134006413Y-40726422D01*
X133947899Y-40867689D01*
X133862948Y-40994827D01*
X133754827Y-41102948D01*
X133627689Y-41187899D01*
X133486422Y-41246413D01*
X133336453Y-41276244D01*
X133183547Y-41276244D01*
X133033578Y-41246413D01*
X132892311Y-41187899D01*
X132765173Y-41102948D01*
X132657052Y-40994827D01*
X132572101Y-40867689D01*
X132513587Y-40726422D01*
X132483756Y-40576453D01*
X132483756Y-40423547D01*
X132513587Y-40273578D01*
X132572101Y-40132311D01*
X132657052Y-40005173D01*
X132765173Y-39897052D01*
X132892311Y-39812101D01*
X133033578Y-39753587D01*
X133183547Y-39723756D01*
X133336453Y-39723756D01*
X133486422Y-39753587D01*
G37*
M02*
