G04 #@! TF.GenerationSoftware,KiCad,Pcbnew,9.0.7*
G04 #@! TF.CreationDate,2026-03-11T11:46:52-04:00*
G04 #@! TF.ProjectId,shiftclock-5.0,73686966-7463-46c6-9f63-6b2d352e302e,rev?*
G04 #@! TF.SameCoordinates,Original*
G04 #@! TF.FileFunction,Copper,L1,Top*
G04 #@! TF.FilePolarity,Positive*
%FSLAX46Y46*%
G04 Gerber Fmt 4.6, Leading zero omitted, Abs format (unit mm)*
G04 Created by KiCad (PCBNEW 9.0.7) date 2026-03-11 11:46:52*
%MOMM*%
%LPD*%
G01*
G04 APERTURE LIST*
G04 #@! TA.AperFunction,ComponentPad*
%ADD10R,1.500000X1.500000*%
G04 #@! TD*
G04 #@! TA.AperFunction,ComponentPad*
%ADD11C,1.500000*%
G04 #@! TD*
G04 #@! TA.AperFunction,ComponentPad*
%ADD12R,1.560000X1.560000*%
G04 #@! TD*
G04 #@! TA.AperFunction,ComponentPad*
%ADD13C,1.560000*%
G04 #@! TD*
G04 #@! TA.AperFunction,HeatsinkPad*
%ADD14O,2.000000X0.900000*%
G04 #@! TD*
G04 #@! TA.AperFunction,HeatsinkPad*
%ADD15O,1.700000X0.900000*%
G04 #@! TD*
G04 #@! TA.AperFunction,HeatsinkPad*
%ADD16C,0.600000*%
G04 #@! TD*
G04 #@! TA.AperFunction,ViaPad*
%ADD17C,0.600000*%
G04 #@! TD*
G04 #@! TA.AperFunction,Conductor*
%ADD18C,0.127000*%
G04 #@! TD*
G04 #@! TA.AperFunction,Conductor*
%ADD19C,0.250000*%
G04 #@! TD*
G04 APERTURE END LIST*
D10*
X108000000Y-64250000D03*
D11*
X110540000Y-64250000D03*
X113080000Y-64250000D03*
X115620000Y-64250000D03*
X118160000Y-64250000D03*
X120700000Y-64250000D03*
X120700000Y-49010000D03*
X118160000Y-49010000D03*
X115620000Y-49010000D03*
X113080000Y-49010000D03*
X110540000Y-49010000D03*
X108000000Y-49010000D03*
D10*
X57150000Y-64250000D03*
D11*
X59690000Y-64250000D03*
X62230000Y-64250000D03*
X64770000Y-64250000D03*
X67310000Y-64250000D03*
X69850000Y-64250000D03*
X69850000Y-49010000D03*
X67310000Y-49010000D03*
X64770000Y-49010000D03*
X62230000Y-49010000D03*
X59690000Y-49010000D03*
X57150000Y-49010000D03*
D12*
X141500000Y-59000000D03*
D13*
X146500000Y-56500000D03*
X141500000Y-54000000D03*
D14*
X30305000Y-65500000D03*
D15*
X26135000Y-65500000D03*
D14*
X30305000Y-56860000D03*
D15*
X26135000Y-56860000D03*
D16*
X88500000Y-58450000D03*
X88500000Y-59550000D03*
X87950000Y-57900000D03*
X87950000Y-59000000D03*
X87950000Y-60100000D03*
X87400000Y-58450000D03*
X87400000Y-59550000D03*
X86850000Y-57900000D03*
X86850000Y-59000000D03*
X86850000Y-60100000D03*
X86300000Y-58450000D03*
X86300000Y-59550000D03*
D17*
X134000000Y-63500000D03*
X134000000Y-62500000D03*
X107750000Y-58250000D03*
X134000000Y-55500000D03*
X134000000Y-54500000D03*
X134000000Y-53500000D03*
X117000000Y-59504569D03*
X69500000Y-63000000D03*
X105500000Y-54500000D03*
X109000000Y-60000000D03*
X111500000Y-59500000D03*
X114500000Y-58500000D03*
X81500000Y-57500000D03*
X83000000Y-53500000D03*
X106500000Y-61000000D03*
X82500000Y-58014069D03*
X106500000Y-50000000D03*
X84000000Y-53000000D03*
X113500000Y-59000000D03*
X115981407Y-54509500D03*
X113000000Y-54000000D03*
X116500000Y-54000000D03*
X121500000Y-59000000D03*
X63812500Y-57000000D03*
X63317524Y-57494976D03*
X100000000Y-56000000D03*
X76000000Y-57000000D03*
X68000000Y-60500000D03*
X83500000Y-61000000D03*
X31930000Y-59430000D03*
X31930000Y-55500000D03*
X123500000Y-60500000D03*
X39000000Y-65000000D03*
X116000000Y-59504569D03*
X38000000Y-62000000D03*
X37000000Y-62000000D03*
X38500000Y-65500000D03*
X107000000Y-54500000D03*
X104500000Y-55500000D03*
X98700000Y-58800000D03*
X85000000Y-58508500D03*
X65000000Y-53500000D03*
X65000000Y-54500000D03*
X84000000Y-59000000D03*
X81000000Y-59500000D03*
X66000000Y-56500000D03*
D18*
X100000000Y-56000000D02*
X99500000Y-56500000D01*
X76500000Y-56500000D02*
X76000000Y-57000000D01*
X99500000Y-56500000D02*
X76500000Y-56500000D01*
X62230000Y-49010000D02*
X64740000Y-46500000D01*
X64740000Y-46500000D02*
X70000000Y-46500000D01*
X70000000Y-46500000D02*
X72000000Y-48500000D01*
X72000000Y-48500000D02*
X72000000Y-53000000D01*
X108590000Y-53500000D02*
X113080000Y-49010000D01*
X72000000Y-53000000D02*
X73000000Y-54000000D01*
X105000000Y-53500000D02*
X108590000Y-53500000D01*
X73000000Y-54000000D02*
X104500000Y-54000000D01*
X104500000Y-54000000D02*
X105000000Y-53500000D01*
X105500000Y-54500000D02*
X73000000Y-54500000D01*
X73000000Y-54500000D02*
X71500000Y-53000000D01*
X71500000Y-53000000D02*
X71500000Y-48500000D01*
X71500000Y-48500000D02*
X70000000Y-47000000D01*
X70000000Y-47000000D02*
X66780000Y-47000000D01*
X66780000Y-47000000D02*
X64770000Y-49010000D01*
X113000000Y-54000000D02*
X113000000Y-55000000D01*
X113000000Y-55000000D02*
X111500000Y-56500000D01*
X111500000Y-56500000D02*
X104500000Y-56500000D01*
X104500000Y-56500000D02*
X103000000Y-55000000D01*
X73000000Y-55000000D02*
X71000000Y-53000000D01*
X103000000Y-55000000D02*
X73000000Y-55000000D01*
X71000000Y-53000000D02*
X71000000Y-48500000D01*
X71000000Y-48500000D02*
X70000000Y-47500000D01*
X70000000Y-47500000D02*
X68500000Y-47500000D01*
X67310000Y-48690000D02*
X67310000Y-49010000D01*
X68500000Y-47500000D02*
X67310000Y-48690000D01*
X115500000Y-59000000D02*
X115000001Y-59500000D01*
X104500000Y-57000000D02*
X103000000Y-55500000D01*
X115000001Y-59500000D02*
X112500000Y-59500000D01*
X69850000Y-52350000D02*
X69850000Y-49010000D01*
X112500000Y-59500000D02*
X110000000Y-57000000D01*
X110000000Y-57000000D02*
X104500000Y-57000000D01*
X103000000Y-55500000D02*
X73000000Y-55500000D01*
X73000000Y-55500000D02*
X69850000Y-52350000D01*
X107750000Y-58250000D02*
X99250000Y-58250000D01*
X99250000Y-58250000D02*
X98700000Y-58800000D01*
X31930000Y-55500000D02*
X31930000Y-59430000D01*
X121500000Y-59000000D02*
X116500000Y-54000000D01*
X115981407Y-54509500D02*
X120971907Y-59500000D01*
X120971907Y-59500000D02*
X123500000Y-59500000D01*
X123500000Y-59500000D02*
X124500000Y-60500000D01*
X124500000Y-60500000D02*
X124500000Y-63000000D01*
X124500000Y-63000000D02*
X122000000Y-65500000D01*
X122000000Y-65500000D02*
X71100000Y-65500000D01*
X71100000Y-65500000D02*
X69850000Y-64250000D01*
X119990000Y-49010000D02*
X115000000Y-54000000D01*
X115000000Y-54000000D02*
X115000000Y-58500000D01*
X117000000Y-59504569D02*
X116495431Y-59000000D01*
X120700000Y-49010000D02*
X119990000Y-49010000D01*
X115000000Y-58500000D02*
X115500000Y-59000000D01*
X116495431Y-59000000D02*
X115500000Y-59000000D01*
X70500000Y-63000000D02*
X69500000Y-63000000D01*
X105000000Y-65000000D02*
X72500000Y-65000000D01*
X107000000Y-63000000D02*
X105000000Y-65000000D01*
X109290000Y-63000000D02*
X107000000Y-63000000D01*
X110540000Y-64250000D02*
X109290000Y-63000000D01*
X72500000Y-65000000D02*
X70500000Y-63000000D01*
X71000000Y-62500000D02*
X69060000Y-62500000D01*
X116410000Y-62500000D02*
X106500000Y-62500000D01*
X118160000Y-64250000D02*
X116410000Y-62500000D01*
X73000000Y-64500000D02*
X71000000Y-62500000D01*
X104500000Y-64500000D02*
X73000000Y-64500000D01*
X69060000Y-62500000D02*
X67310000Y-64250000D01*
X106500000Y-62500000D02*
X104500000Y-64500000D01*
X105500000Y-61500000D02*
X103500000Y-63500000D01*
X103500000Y-63500000D02*
X74000000Y-63500000D01*
X74000000Y-63500000D02*
X72000000Y-61500000D01*
X109000000Y-60000000D02*
X107500000Y-61500000D01*
X72000000Y-61500000D02*
X64980000Y-61500000D01*
X64980000Y-61500000D02*
X62230000Y-64250000D01*
X107500000Y-61500000D02*
X105500000Y-61500000D01*
X104000000Y-64000000D02*
X73500000Y-64000000D01*
X109000000Y-62000000D02*
X106000000Y-62000000D01*
X73500000Y-64000000D02*
X71500000Y-62000000D01*
X106000000Y-62000000D02*
X104000000Y-64000000D01*
X67020000Y-62000000D02*
X64770000Y-64250000D01*
X111500000Y-59500000D02*
X109000000Y-62000000D01*
X71500000Y-62000000D02*
X67020000Y-62000000D01*
X114500000Y-50000000D02*
X114500000Y-58500000D01*
X113500000Y-47500000D02*
X114000000Y-48000000D01*
X114000000Y-48000000D02*
X114500000Y-48500000D01*
X110540000Y-49010000D02*
X112050000Y-47500000D01*
X72500000Y-57500000D02*
X81500000Y-57500000D01*
X106550000Y-53000000D02*
X110540000Y-49010000D01*
X61180000Y-50500000D02*
X65500000Y-50500000D01*
X104500000Y-53000000D02*
X106550000Y-53000000D01*
X65500000Y-50500000D02*
X72500000Y-57500000D01*
X83000000Y-53500000D02*
X104000000Y-53500000D01*
X104000000Y-53500000D02*
X104500000Y-53000000D01*
X114500000Y-48500000D02*
X114500000Y-50000000D01*
X59690000Y-49010000D02*
X61180000Y-50500000D01*
X112050000Y-47500000D02*
X113500000Y-47500000D01*
X74500000Y-63000000D02*
X72500000Y-61000000D01*
X105000000Y-61000000D02*
X103000000Y-63000000D01*
X106500000Y-61000000D02*
X105000000Y-61000000D01*
X103000000Y-63000000D02*
X74500000Y-63000000D01*
X60400000Y-61000000D02*
X57150000Y-64250000D01*
X72500000Y-61000000D02*
X60400000Y-61000000D01*
X59140000Y-51000000D02*
X57150000Y-49010000D01*
X84000000Y-53000000D02*
X103500000Y-53000000D01*
X82500000Y-58014069D02*
X72514069Y-58014069D01*
X72514069Y-58014069D02*
X65500000Y-51000000D01*
X65500000Y-51000000D02*
X59140000Y-51000000D01*
X103500000Y-53000000D02*
X106500000Y-50000000D01*
X113500000Y-59000000D02*
X113500000Y-50000000D01*
X113500000Y-50000000D02*
X113080000Y-49580000D01*
X113080000Y-49580000D02*
X113080000Y-49010000D01*
X86300000Y-59550000D02*
X85850000Y-60000000D01*
X85850000Y-60000000D02*
X66812500Y-60000000D01*
X66812500Y-60000000D02*
X63812500Y-57000000D01*
X83500000Y-61000000D02*
X83000000Y-60500000D01*
X83000000Y-60500000D02*
X68000000Y-60500000D01*
D19*
X38000000Y-62000000D02*
X38000000Y-64000000D01*
X38000000Y-65000000D02*
X38500000Y-65500000D01*
X116995431Y-60500000D02*
X116000000Y-59504569D01*
X39000000Y-65000000D02*
X38000000Y-64000000D01*
X123500000Y-60500000D02*
X116995431Y-60500000D01*
X38000000Y-62000000D02*
X37000000Y-62000000D01*
X38000000Y-64000000D02*
X38000000Y-65000000D01*
D18*
X106000000Y-55500000D02*
X107000000Y-54500000D01*
X104500000Y-55500000D02*
X106000000Y-55500000D01*
X85000000Y-58508500D02*
X71008500Y-58508500D01*
X71008500Y-58508500D02*
X66000000Y-53500000D01*
X66000000Y-53500000D02*
X65000000Y-53500000D01*
X66000000Y-54500000D02*
X65000000Y-54500000D01*
X70500000Y-59000000D02*
X66000000Y-54500000D01*
X84000000Y-59000000D02*
X70500000Y-59000000D01*
X81000000Y-59500000D02*
X70000000Y-59500000D01*
X70000000Y-59500000D02*
X67000000Y-56500000D01*
X67000000Y-56500000D02*
X66000000Y-56500000D01*
G04 #@! TA.AperFunction,Conductor*
G36*
X64209560Y-46020185D02*
G01*
X64255315Y-46072989D01*
X64265259Y-46142147D01*
X64236234Y-46205703D01*
X64230202Y-46212181D01*
X62674122Y-47768260D01*
X62612799Y-47801745D01*
X62548122Y-47798510D01*
X62522826Y-47790290D01*
X62328422Y-47759500D01*
X62328417Y-47759500D01*
X62131583Y-47759500D01*
X62131578Y-47759500D01*
X61937173Y-47790290D01*
X61749970Y-47851117D01*
X61574594Y-47940476D01*
X61510764Y-47986852D01*
X61415354Y-48056172D01*
X61415352Y-48056174D01*
X61415351Y-48056174D01*
X61276174Y-48195351D01*
X61276174Y-48195352D01*
X61276172Y-48195354D01*
X61226485Y-48263741D01*
X61160476Y-48354594D01*
X61070485Y-48531213D01*
X61022511Y-48582009D01*
X60954690Y-48598804D01*
X60888555Y-48576267D01*
X60849515Y-48531213D01*
X60795778Y-48425748D01*
X60759524Y-48354595D01*
X60643828Y-48195354D01*
X60504646Y-48056172D01*
X60345405Y-47940476D01*
X60170029Y-47851117D01*
X59982826Y-47790290D01*
X59788422Y-47759500D01*
X59788417Y-47759500D01*
X59591583Y-47759500D01*
X59591578Y-47759500D01*
X59397173Y-47790290D01*
X59209970Y-47851117D01*
X59034594Y-47940476D01*
X58970764Y-47986852D01*
X58875354Y-48056172D01*
X58875352Y-48056174D01*
X58875351Y-48056174D01*
X58736174Y-48195351D01*
X58736174Y-48195352D01*
X58736172Y-48195354D01*
X58686485Y-48263741D01*
X58620476Y-48354594D01*
X58530485Y-48531213D01*
X58482511Y-48582009D01*
X58414690Y-48598804D01*
X58348555Y-48576267D01*
X58309515Y-48531213D01*
X58255778Y-48425748D01*
X58219524Y-48354595D01*
X58103828Y-48195354D01*
X57964646Y-48056172D01*
X57805405Y-47940476D01*
X57630029Y-47851117D01*
X57442826Y-47790290D01*
X57248422Y-47759500D01*
X57248417Y-47759500D01*
X57051583Y-47759500D01*
X57051578Y-47759500D01*
X56857173Y-47790290D01*
X56669970Y-47851117D01*
X56494594Y-47940476D01*
X56430764Y-47986852D01*
X56335354Y-48056172D01*
X56335352Y-48056174D01*
X56335351Y-48056174D01*
X56196174Y-48195351D01*
X56196174Y-48195352D01*
X56196172Y-48195354D01*
X56146485Y-48263741D01*
X56080476Y-48354594D01*
X55991117Y-48529970D01*
X55930290Y-48717173D01*
X55899500Y-48911577D01*
X55899500Y-49108422D01*
X55930290Y-49302826D01*
X55991117Y-49490029D01*
X56057759Y-49620821D01*
X56080476Y-49665405D01*
X56196172Y-49824646D01*
X56335354Y-49963828D01*
X56494595Y-50079524D01*
X56518288Y-50091596D01*
X56669970Y-50168882D01*
X56669972Y-50168882D01*
X56669975Y-50168884D01*
X56744353Y-50193051D01*
X56857173Y-50229709D01*
X57051578Y-50260500D01*
X57051583Y-50260500D01*
X57248422Y-50260500D01*
X57338995Y-50246154D01*
X57442826Y-50229709D01*
X57468120Y-50221489D01*
X57537959Y-50219491D01*
X57594122Y-50251738D01*
X58684346Y-51341962D01*
X58684356Y-51341973D01*
X58688686Y-51346303D01*
X58688687Y-51346304D01*
X58793696Y-51451313D01*
X58922304Y-51525565D01*
X59065747Y-51564000D01*
X59065748Y-51564000D01*
X65215022Y-51564000D01*
X65282061Y-51583685D01*
X65302703Y-51600319D01*
X71435202Y-57732819D01*
X71445814Y-57752255D01*
X71460315Y-57768989D01*
X71462231Y-57782320D01*
X71468687Y-57794142D01*
X71467107Y-57816228D01*
X71470259Y-57838147D01*
X71464663Y-57850398D01*
X71463703Y-57863834D01*
X71450432Y-57881560D01*
X71441234Y-57901703D01*
X71429902Y-57908985D01*
X71421831Y-57919767D01*
X71401085Y-57927504D01*
X71382456Y-57939477D01*
X71360537Y-57942628D01*
X71356367Y-57944184D01*
X71347521Y-57944500D01*
X71293479Y-57944500D01*
X71226440Y-57924815D01*
X71205798Y-57908181D01*
X66458383Y-53160767D01*
X66458381Y-53160764D01*
X66346306Y-53048689D01*
X66346304Y-53048687D01*
X66217696Y-52974435D01*
X66074253Y-52936000D01*
X66074252Y-52936000D01*
X65619441Y-52936000D01*
X65552402Y-52916315D01*
X65531760Y-52899681D01*
X65510292Y-52878213D01*
X65510288Y-52878210D01*
X65379185Y-52790609D01*
X65379172Y-52790602D01*
X65233501Y-52730264D01*
X65233489Y-52730261D01*
X65078845Y-52699500D01*
X65078842Y-52699500D01*
X64921158Y-52699500D01*
X64921155Y-52699500D01*
X64766510Y-52730261D01*
X64766498Y-52730264D01*
X64620827Y-52790602D01*
X64620814Y-52790609D01*
X64489711Y-52878210D01*
X64489707Y-52878213D01*
X64378213Y-52989707D01*
X64378210Y-52989711D01*
X64290609Y-53120814D01*
X64290602Y-53120827D01*
X64230264Y-53266498D01*
X64230261Y-53266510D01*
X64199500Y-53421153D01*
X64199500Y-53578846D01*
X64230261Y-53733489D01*
X64230264Y-53733501D01*
X64290602Y-53879172D01*
X64290609Y-53879185D01*
X64325304Y-53931109D01*
X64346182Y-53997786D01*
X64327698Y-54065167D01*
X64325304Y-54068891D01*
X64290609Y-54120814D01*
X64290602Y-54120827D01*
X64230264Y-54266498D01*
X64230261Y-54266510D01*
X64199500Y-54421153D01*
X64199500Y-54578846D01*
X64230261Y-54733489D01*
X64230264Y-54733501D01*
X64290602Y-54879172D01*
X64290609Y-54879185D01*
X64378210Y-55010288D01*
X64378213Y-55010292D01*
X64489707Y-55121786D01*
X64489711Y-55121789D01*
X64620814Y-55209390D01*
X64620827Y-55209397D01*
X64758683Y-55266498D01*
X64766503Y-55269737D01*
X64919273Y-55300125D01*
X64921153Y-55300499D01*
X64921156Y-55300500D01*
X64921158Y-55300500D01*
X65078844Y-55300500D01*
X65078845Y-55300499D01*
X65233497Y-55269737D01*
X65379179Y-55209394D01*
X65510289Y-55121789D01*
X65511264Y-55120814D01*
X65531760Y-55100319D01*
X65558687Y-55085615D01*
X65584506Y-55069023D01*
X65590706Y-55068131D01*
X65593083Y-55066834D01*
X65619441Y-55064000D01*
X65715022Y-55064000D01*
X65782061Y-55083685D01*
X65802703Y-55100319D01*
X66193049Y-55490665D01*
X66226534Y-55551988D01*
X66221550Y-55621680D01*
X66179678Y-55677613D01*
X66114214Y-55702030D01*
X66081188Y-55699966D01*
X66078844Y-55699500D01*
X66078842Y-55699500D01*
X65921158Y-55699500D01*
X65921155Y-55699500D01*
X65766510Y-55730261D01*
X65766498Y-55730264D01*
X65620827Y-55790602D01*
X65620814Y-55790609D01*
X65489711Y-55878210D01*
X65489707Y-55878213D01*
X65378213Y-55989707D01*
X65378210Y-55989711D01*
X65290609Y-56120814D01*
X65290602Y-56120827D01*
X65230264Y-56266498D01*
X65230261Y-56266510D01*
X65199500Y-56421153D01*
X65199500Y-56578846D01*
X65230261Y-56733489D01*
X65230264Y-56733501D01*
X65290602Y-56879172D01*
X65290609Y-56879185D01*
X65378210Y-57010288D01*
X65378213Y-57010292D01*
X65489707Y-57121786D01*
X65489711Y-57121789D01*
X65620814Y-57209390D01*
X65620827Y-57209397D01*
X65739903Y-57258719D01*
X65766503Y-57269737D01*
X65921153Y-57300499D01*
X65921156Y-57300500D01*
X65921158Y-57300500D01*
X66078844Y-57300500D01*
X66078845Y-57300499D01*
X66233497Y-57269737D01*
X66379179Y-57209394D01*
X66510289Y-57121789D01*
X66511257Y-57120821D01*
X66531760Y-57100319D01*
X66558687Y-57085615D01*
X66584506Y-57069023D01*
X66590706Y-57068131D01*
X66593083Y-57066834D01*
X66619441Y-57064000D01*
X66715022Y-57064000D01*
X66782061Y-57083685D01*
X66802703Y-57100319D01*
X69426702Y-59724319D01*
X69460187Y-59785642D01*
X69455203Y-59855334D01*
X69413331Y-59911267D01*
X69347867Y-59935684D01*
X69339021Y-59936000D01*
X68619441Y-59936000D01*
X68552402Y-59916315D01*
X68531760Y-59899681D01*
X68510292Y-59878213D01*
X68510288Y-59878210D01*
X68379185Y-59790609D01*
X68379172Y-59790602D01*
X68233501Y-59730264D01*
X68233489Y-59730261D01*
X68078845Y-59699500D01*
X68078842Y-59699500D01*
X67921158Y-59699500D01*
X67921155Y-59699500D01*
X67766510Y-59730261D01*
X67766498Y-59730264D01*
X67620827Y-59790602D01*
X67620814Y-59790609D01*
X67489711Y-59878210D01*
X67489707Y-59878213D01*
X67378213Y-59989707D01*
X67378210Y-59989711D01*
X67290609Y-60120814D01*
X67290602Y-60120827D01*
X67230264Y-60266498D01*
X67230261Y-60266510D01*
X67216401Y-60336191D01*
X67184017Y-60398102D01*
X67123301Y-60432676D01*
X67094784Y-60436000D01*
X60325747Y-60436000D01*
X60182304Y-60474435D01*
X60182301Y-60474436D01*
X60053699Y-60548685D01*
X60053693Y-60548689D01*
X59948685Y-60653698D01*
X57639201Y-62963181D01*
X57577878Y-62996666D01*
X57551520Y-62999500D01*
X56352129Y-62999500D01*
X56352123Y-62999501D01*
X56292516Y-63005908D01*
X56157671Y-63056202D01*
X56157664Y-63056206D01*
X56042455Y-63142452D01*
X56042452Y-63142455D01*
X55956206Y-63257664D01*
X55956202Y-63257671D01*
X55905908Y-63392517D01*
X55899501Y-63452116D01*
X55899500Y-63452135D01*
X55899500Y-65047870D01*
X55899501Y-65047876D01*
X55905908Y-65107483D01*
X55956202Y-65242328D01*
X55956206Y-65242335D01*
X56042452Y-65357544D01*
X56042455Y-65357547D01*
X56157664Y-65443793D01*
X56157671Y-65443797D01*
X56292517Y-65494091D01*
X56292516Y-65494091D01*
X56299444Y-65494835D01*
X56352127Y-65500500D01*
X57947872Y-65500499D01*
X58007483Y-65494091D01*
X58142331Y-65443796D01*
X58257546Y-65357546D01*
X58343796Y-65242331D01*
X58394091Y-65107483D01*
X58400500Y-65047873D01*
X58400499Y-64984265D01*
X58420183Y-64917229D01*
X58472986Y-64871473D01*
X58542144Y-64861529D01*
X58605700Y-64890553D01*
X58624816Y-64911381D01*
X58723980Y-65047865D01*
X58736172Y-65064646D01*
X58875354Y-65203828D01*
X59034595Y-65319524D01*
X59109214Y-65357544D01*
X59209970Y-65408882D01*
X59209972Y-65408882D01*
X59209975Y-65408884D01*
X59299606Y-65438007D01*
X59397173Y-65469709D01*
X59591578Y-65500500D01*
X59591583Y-65500500D01*
X59788422Y-65500500D01*
X59982826Y-65469709D01*
X60011156Y-65460504D01*
X60170025Y-65408884D01*
X60345405Y-65319524D01*
X60504646Y-65203828D01*
X60643828Y-65064646D01*
X60759524Y-64905405D01*
X60807116Y-64812000D01*
X60849515Y-64728787D01*
X60897489Y-64677990D01*
X60965310Y-64661195D01*
X61031445Y-64683732D01*
X61070485Y-64728787D01*
X61160474Y-64905403D01*
X61184443Y-64938393D01*
X61276172Y-65064646D01*
X61415354Y-65203828D01*
X61574595Y-65319524D01*
X61649214Y-65357544D01*
X61749970Y-65408882D01*
X61749972Y-65408882D01*
X61749975Y-65408884D01*
X61839606Y-65438007D01*
X61937173Y-65469709D01*
X62131578Y-65500500D01*
X62131583Y-65500500D01*
X62328422Y-65500500D01*
X62522826Y-65469709D01*
X62551156Y-65460504D01*
X62710025Y-65408884D01*
X62885405Y-65319524D01*
X63044646Y-65203828D01*
X63183828Y-65064646D01*
X63299524Y-64905405D01*
X63347116Y-64812000D01*
X63389515Y-64728787D01*
X63437489Y-64677990D01*
X63505310Y-64661195D01*
X63571445Y-64683732D01*
X63610485Y-64728787D01*
X63700474Y-64905403D01*
X63724443Y-64938393D01*
X63816172Y-65064646D01*
X63955354Y-65203828D01*
X64114595Y-65319524D01*
X64189214Y-65357544D01*
X64289970Y-65408882D01*
X64289972Y-65408882D01*
X64289975Y-65408884D01*
X64379606Y-65438007D01*
X64477173Y-65469709D01*
X64671578Y-65500500D01*
X64671583Y-65500500D01*
X64868422Y-65500500D01*
X65062826Y-65469709D01*
X65091156Y-65460504D01*
X65250025Y-65408884D01*
X65425405Y-65319524D01*
X65584646Y-65203828D01*
X65723828Y-65064646D01*
X65839524Y-64905405D01*
X65887116Y-64812000D01*
X65929515Y-64728787D01*
X65977489Y-64677990D01*
X66045310Y-64661195D01*
X66111445Y-64683732D01*
X66150485Y-64728787D01*
X66240474Y-64905403D01*
X66264443Y-64938393D01*
X66356172Y-65064646D01*
X66495354Y-65203828D01*
X66654595Y-65319524D01*
X66729214Y-65357544D01*
X66829970Y-65408882D01*
X66829972Y-65408882D01*
X66829975Y-65408884D01*
X66919606Y-65438007D01*
X67017173Y-65469709D01*
X67211578Y-65500500D01*
X67211583Y-65500500D01*
X67408422Y-65500500D01*
X67602826Y-65469709D01*
X67631156Y-65460504D01*
X67790025Y-65408884D01*
X67965405Y-65319524D01*
X68124646Y-65203828D01*
X68263828Y-65064646D01*
X68379524Y-64905405D01*
X68427116Y-64812000D01*
X68469515Y-64728787D01*
X68517489Y-64677990D01*
X68585310Y-64661195D01*
X68651445Y-64683732D01*
X68690485Y-64728787D01*
X68780474Y-64905403D01*
X68804443Y-64938393D01*
X68896172Y-65064646D01*
X69035354Y-65203828D01*
X69194595Y-65319524D01*
X69269214Y-65357544D01*
X69369970Y-65408882D01*
X69369972Y-65408882D01*
X69369975Y-65408884D01*
X69459606Y-65438007D01*
X69557173Y-65469709D01*
X69751578Y-65500500D01*
X69751583Y-65500500D01*
X69948422Y-65500500D01*
X70040864Y-65485858D01*
X70142826Y-65469709D01*
X70168120Y-65461489D01*
X70237959Y-65459491D01*
X70294122Y-65491738D01*
X70590203Y-65787819D01*
X70623688Y-65849142D01*
X70618704Y-65918834D01*
X70576832Y-65974767D01*
X70511368Y-65999184D01*
X70502522Y-65999500D01*
X39345134Y-65999500D01*
X39313662Y-65990258D01*
X39281866Y-65982145D01*
X39280299Y-65980462D01*
X39278095Y-65979815D01*
X39256625Y-65955038D01*
X39234253Y-65931011D01*
X39233844Y-65928747D01*
X39232340Y-65927011D01*
X39227671Y-65894541D01*
X39221844Y-65862252D01*
X39222601Y-65859282D01*
X39222396Y-65857853D01*
X39230570Y-65828054D01*
X39230573Y-65828047D01*
X39239465Y-65806577D01*
X39283301Y-65752175D01*
X39306565Y-65739470D01*
X39379179Y-65709394D01*
X39510289Y-65621789D01*
X39621789Y-65510289D01*
X39709394Y-65379179D01*
X39769737Y-65233497D01*
X39794803Y-65107482D01*
X39800500Y-65078845D01*
X39800500Y-64921155D01*
X39800499Y-64921153D01*
X39798555Y-64911381D01*
X39769737Y-64766503D01*
X39767909Y-64762089D01*
X39709397Y-64620827D01*
X39709390Y-64620814D01*
X39621789Y-64489711D01*
X39621786Y-64489707D01*
X39510292Y-64378213D01*
X39510288Y-64378210D01*
X39379185Y-64290609D01*
X39379172Y-64290602D01*
X39233501Y-64230264D01*
X39233489Y-64230261D01*
X39122285Y-64208141D01*
X39060374Y-64175756D01*
X39058795Y-64174205D01*
X38661819Y-63777228D01*
X38628334Y-63715905D01*
X38625500Y-63689547D01*
X38625500Y-62542350D01*
X38645185Y-62475311D01*
X38646398Y-62473459D01*
X38684580Y-62416315D01*
X38709394Y-62379179D01*
X38769737Y-62233497D01*
X38800500Y-62078842D01*
X38800500Y-61921158D01*
X38800500Y-61921155D01*
X38800499Y-61921153D01*
X38776499Y-61800499D01*
X38769737Y-61766503D01*
X38709794Y-61621786D01*
X38709397Y-61620827D01*
X38709390Y-61620814D01*
X38621789Y-61489711D01*
X38621786Y-61489707D01*
X38510292Y-61378213D01*
X38510288Y-61378210D01*
X38379185Y-61290609D01*
X38379172Y-61290602D01*
X38233501Y-61230264D01*
X38233489Y-61230261D01*
X38078845Y-61199500D01*
X38078842Y-61199500D01*
X37921158Y-61199500D01*
X37921155Y-61199500D01*
X37766510Y-61230261D01*
X37766498Y-61230264D01*
X37620827Y-61290602D01*
X37620814Y-61290609D01*
X37568891Y-61325304D01*
X37502214Y-61346182D01*
X37434833Y-61327698D01*
X37431109Y-61325304D01*
X37379185Y-61290609D01*
X37379172Y-61290602D01*
X37233501Y-61230264D01*
X37233489Y-61230261D01*
X37078845Y-61199500D01*
X37078842Y-61199500D01*
X36921158Y-61199500D01*
X36921155Y-61199500D01*
X36766510Y-61230261D01*
X36766498Y-61230264D01*
X36620827Y-61290602D01*
X36620814Y-61290609D01*
X36489711Y-61378210D01*
X36489707Y-61378213D01*
X36378213Y-61489707D01*
X36378210Y-61489711D01*
X36290609Y-61620814D01*
X36290602Y-61620827D01*
X36230264Y-61766498D01*
X36230261Y-61766510D01*
X36199500Y-61921153D01*
X36199500Y-62078846D01*
X36230261Y-62233489D01*
X36230264Y-62233501D01*
X36290602Y-62379172D01*
X36290609Y-62379185D01*
X36378210Y-62510288D01*
X36378213Y-62510292D01*
X36489707Y-62621786D01*
X36489711Y-62621789D01*
X36620814Y-62709390D01*
X36620827Y-62709397D01*
X36758408Y-62766384D01*
X36766503Y-62769737D01*
X36921153Y-62800499D01*
X36921156Y-62800500D01*
X36921158Y-62800500D01*
X37078844Y-62800500D01*
X37226308Y-62771167D01*
X37295900Y-62777394D01*
X37351077Y-62820257D01*
X37374322Y-62886146D01*
X37374500Y-62892784D01*
X37374500Y-65061609D01*
X37377927Y-65078841D01*
X37398535Y-65182445D01*
X37398539Y-65182460D01*
X37406114Y-65200746D01*
X37406122Y-65200764D01*
X37407345Y-65203715D01*
X37445688Y-65296286D01*
X37461216Y-65319524D01*
X37466212Y-65327001D01*
X37466214Y-65327005D01*
X37514141Y-65398733D01*
X37605586Y-65490178D01*
X37605608Y-65490198D01*
X37674205Y-65558795D01*
X37707690Y-65620118D01*
X37708141Y-65622285D01*
X37725468Y-65709394D01*
X37730263Y-65733497D01*
X37757809Y-65800000D01*
X37769427Y-65828047D01*
X37776896Y-65897517D01*
X37745621Y-65959996D01*
X37685532Y-65995648D01*
X37654866Y-65999500D01*
X31861952Y-65999500D01*
X31794913Y-65979815D01*
X31749158Y-65927011D01*
X31739214Y-65857853D01*
X31747391Y-65828047D01*
X31768492Y-65777103D01*
X31768493Y-65777100D01*
X31773884Y-65750000D01*
X31021988Y-65750000D01*
X31039205Y-65740060D01*
X31095060Y-65684205D01*
X31134556Y-65615796D01*
X31155000Y-65539496D01*
X31155000Y-65460504D01*
X31134556Y-65384204D01*
X31095060Y-65315795D01*
X31039205Y-65259940D01*
X31021988Y-65250000D01*
X31773884Y-65250000D01*
X31773884Y-65249999D01*
X31768493Y-65222899D01*
X31768492Y-65222896D01*
X31696880Y-65050008D01*
X31696875Y-65049999D01*
X31592913Y-64894410D01*
X31592910Y-64894406D01*
X31460593Y-64762089D01*
X31460589Y-64762086D01*
X31305000Y-64658124D01*
X31304991Y-64658119D01*
X31132105Y-64586508D01*
X31132097Y-64586506D01*
X30948570Y-64550000D01*
X30555000Y-64550000D01*
X30555000Y-65200000D01*
X30055000Y-65200000D01*
X30055000Y-64644462D01*
X30074685Y-64577423D01*
X30098607Y-64550053D01*
X30107206Y-64542730D01*
X30163015Y-64510509D01*
X30265509Y-64408015D01*
X30337984Y-64282485D01*
X30375500Y-64142475D01*
X30375500Y-63997525D01*
X30337984Y-63857515D01*
X30314169Y-63816267D01*
X30265511Y-63731988D01*
X30265506Y-63731982D01*
X30163017Y-63629493D01*
X30163011Y-63629488D01*
X30037488Y-63557017D01*
X30037489Y-63557017D01*
X30026006Y-63553940D01*
X29897475Y-63519500D01*
X29752525Y-63519500D01*
X29623993Y-63553940D01*
X29612511Y-63557017D01*
X29486988Y-63629488D01*
X29486982Y-63629493D01*
X29384493Y-63731982D01*
X29384488Y-63731988D01*
X29312017Y-63857511D01*
X29312016Y-63857515D01*
X29274500Y-63997525D01*
X29274500Y-64142475D01*
X29305936Y-64259795D01*
X29312017Y-64282488D01*
X29384488Y-64408011D01*
X29384493Y-64408017D01*
X29406837Y-64430361D01*
X29440322Y-64491684D01*
X29435338Y-64561376D01*
X29393466Y-64617309D01*
X29366610Y-64632602D01*
X29305014Y-64658116D01*
X29304999Y-64658124D01*
X29149410Y-64762086D01*
X29149406Y-64762089D01*
X29017089Y-64894406D01*
X29017086Y-64894410D01*
X28913124Y-65049999D01*
X28913119Y-65050008D01*
X28841507Y-65222896D01*
X28841506Y-65222899D01*
X28836115Y-65249999D01*
X28836116Y-65250000D01*
X29588012Y-65250000D01*
X29570795Y-65259940D01*
X29514940Y-65315795D01*
X29475444Y-65384204D01*
X29455000Y-65460504D01*
X29455000Y-65539496D01*
X29475444Y-65615796D01*
X29514940Y-65684205D01*
X29570795Y-65740060D01*
X29588012Y-65750000D01*
X28836116Y-65750000D01*
X28841506Y-65777100D01*
X28841507Y-65777103D01*
X28862609Y-65828047D01*
X28870078Y-65897517D01*
X28838803Y-65959996D01*
X28778714Y-65995648D01*
X28748048Y-65999500D01*
X27541952Y-65999500D01*
X27474913Y-65979815D01*
X27429158Y-65927011D01*
X27419214Y-65857853D01*
X27427391Y-65828047D01*
X27448492Y-65777103D01*
X27448493Y-65777100D01*
X27453884Y-65750000D01*
X26701988Y-65750000D01*
X26719205Y-65740060D01*
X26775060Y-65684205D01*
X26814556Y-65615796D01*
X26835000Y-65539496D01*
X26835000Y-65460504D01*
X26814556Y-65384204D01*
X26775060Y-65315795D01*
X26719205Y-65259940D01*
X26701988Y-65250000D01*
X27453884Y-65250000D01*
X27453884Y-65249999D01*
X27448493Y-65222899D01*
X27448492Y-65222896D01*
X27376880Y-65050008D01*
X27376875Y-65049999D01*
X27272913Y-64894410D01*
X27272910Y-64894406D01*
X27140593Y-64762089D01*
X27140589Y-64762086D01*
X26985000Y-64658124D01*
X26984991Y-64658119D01*
X26812105Y-64586508D01*
X26812097Y-64586506D01*
X26628570Y-64550000D01*
X26385000Y-64550000D01*
X26385000Y-65200000D01*
X25885000Y-65200000D01*
X25885000Y-64550000D01*
X25641430Y-64550000D01*
X25457902Y-64586506D01*
X25457894Y-64586508D01*
X25285008Y-64658119D01*
X25284999Y-64658124D01*
X25129410Y-64762086D01*
X25129406Y-64762089D01*
X24997089Y-64894406D01*
X24997086Y-64894410D01*
X24893124Y-65049999D01*
X24893119Y-65050008D01*
X24821507Y-65222896D01*
X24821506Y-65222899D01*
X24816115Y-65249999D01*
X24816116Y-65250000D01*
X25568012Y-65250000D01*
X25550795Y-65259940D01*
X25494940Y-65315795D01*
X25455444Y-65384204D01*
X25435000Y-65460504D01*
X25435000Y-65539496D01*
X25455444Y-65615796D01*
X25494940Y-65684205D01*
X25550795Y-65740060D01*
X25568012Y-65750000D01*
X24816116Y-65750000D01*
X24821506Y-65777100D01*
X24821507Y-65777103D01*
X24842609Y-65828047D01*
X24850078Y-65897517D01*
X24818803Y-65959996D01*
X24758714Y-65995648D01*
X24728048Y-65999500D01*
X23624500Y-65999500D01*
X23557461Y-65979815D01*
X23511706Y-65927011D01*
X23500500Y-65875500D01*
X23500500Y-56609999D01*
X24816115Y-56609999D01*
X24816116Y-56610000D01*
X25568012Y-56610000D01*
X25550795Y-56619940D01*
X25494940Y-56675795D01*
X25455444Y-56744204D01*
X25435000Y-56820504D01*
X25435000Y-56899496D01*
X25455444Y-56975796D01*
X25494940Y-57044205D01*
X25550795Y-57100060D01*
X25568012Y-57110000D01*
X24816116Y-57110000D01*
X24821506Y-57137100D01*
X24821507Y-57137103D01*
X24893119Y-57309991D01*
X24893124Y-57310000D01*
X24997086Y-57465589D01*
X24997089Y-57465593D01*
X25129406Y-57597910D01*
X25129410Y-57597913D01*
X25284999Y-57701875D01*
X25285008Y-57701880D01*
X25457894Y-57773491D01*
X25457902Y-57773493D01*
X25641428Y-57809999D01*
X25641431Y-57810000D01*
X25885000Y-57810000D01*
X25885000Y-57160000D01*
X26385000Y-57160000D01*
X26385000Y-57810000D01*
X26628569Y-57810000D01*
X26628571Y-57809999D01*
X26812097Y-57773493D01*
X26812105Y-57773491D01*
X26984991Y-57701880D01*
X26985000Y-57701875D01*
X27140589Y-57597913D01*
X27140593Y-57597910D01*
X27272910Y-57465593D01*
X27272913Y-57465589D01*
X27376875Y-57310000D01*
X27376880Y-57309991D01*
X27448492Y-57137103D01*
X27448493Y-57137100D01*
X27453884Y-57110000D01*
X26701988Y-57110000D01*
X26719205Y-57100060D01*
X26775060Y-57044205D01*
X26814556Y-56975796D01*
X26835000Y-56899496D01*
X26835000Y-56820504D01*
X26814556Y-56744204D01*
X26775060Y-56675795D01*
X26719205Y-56619940D01*
X26701988Y-56610000D01*
X27453884Y-56610000D01*
X27453884Y-56609999D01*
X28836115Y-56609999D01*
X28836116Y-56610000D01*
X29588012Y-56610000D01*
X29570795Y-56619940D01*
X29514940Y-56675795D01*
X29475444Y-56744204D01*
X29455000Y-56820504D01*
X29455000Y-56899496D01*
X29475444Y-56975796D01*
X29514940Y-57044205D01*
X29570795Y-57100060D01*
X29588012Y-57110000D01*
X28836116Y-57110000D01*
X28841506Y-57137100D01*
X28841507Y-57137103D01*
X28913119Y-57309991D01*
X28913124Y-57310000D01*
X29017086Y-57465589D01*
X29017089Y-57465593D01*
X29149406Y-57597910D01*
X29149410Y-57597913D01*
X29304999Y-57701875D01*
X29305008Y-57701880D01*
X29366609Y-57727396D01*
X29421012Y-57771237D01*
X29443077Y-57837531D01*
X29425798Y-57905230D01*
X29406839Y-57929637D01*
X29384488Y-57951988D01*
X29312017Y-58077511D01*
X29312016Y-58077515D01*
X29274500Y-58217525D01*
X29274500Y-58362475D01*
X29306926Y-58483489D01*
X29312017Y-58502488D01*
X29384488Y-58628011D01*
X29384490Y-58628013D01*
X29384491Y-58628015D01*
X29486985Y-58730509D01*
X29486986Y-58730510D01*
X29486988Y-58730511D01*
X29612511Y-58802982D01*
X29612512Y-58802982D01*
X29612515Y-58802984D01*
X29752525Y-58840500D01*
X29752528Y-58840500D01*
X29897472Y-58840500D01*
X29897475Y-58840500D01*
X30037485Y-58802984D01*
X30163015Y-58730509D01*
X30265509Y-58628015D01*
X30337984Y-58502485D01*
X30375500Y-58362475D01*
X30375500Y-58217525D01*
X30337984Y-58077515D01*
X30292195Y-57998207D01*
X30265511Y-57951988D01*
X30265506Y-57951982D01*
X30163017Y-57849493D01*
X30163015Y-57849491D01*
X30117000Y-57822924D01*
X30068784Y-57772357D01*
X30055000Y-57715537D01*
X30055000Y-57160000D01*
X30555000Y-57160000D01*
X30555000Y-57810000D01*
X30948569Y-57810000D01*
X30948571Y-57809999D01*
X31132097Y-57773493D01*
X31132105Y-57773491D01*
X31194547Y-57747627D01*
X31264016Y-57740158D01*
X31326495Y-57771433D01*
X31362148Y-57831521D01*
X31366000Y-57862188D01*
X31366000Y-58810559D01*
X31346315Y-58877598D01*
X31329681Y-58898240D01*
X31308213Y-58919707D01*
X31308210Y-58919711D01*
X31220609Y-59050814D01*
X31220602Y-59050827D01*
X31160264Y-59196498D01*
X31160261Y-59196510D01*
X31129500Y-59351153D01*
X31129500Y-59508846D01*
X31160261Y-59663489D01*
X31160264Y-59663501D01*
X31220602Y-59809172D01*
X31220609Y-59809185D01*
X31308210Y-59940288D01*
X31308213Y-59940292D01*
X31419707Y-60051786D01*
X31419711Y-60051789D01*
X31550814Y-60139390D01*
X31550827Y-60139397D01*
X31695931Y-60199500D01*
X31696503Y-60199737D01*
X31849967Y-60230263D01*
X31851153Y-60230499D01*
X31851156Y-60230500D01*
X31851158Y-60230500D01*
X32008844Y-60230500D01*
X32008845Y-60230499D01*
X32163497Y-60199737D01*
X32309179Y-60139394D01*
X32440289Y-60051789D01*
X32551789Y-59940289D01*
X32639394Y-59809179D01*
X32642357Y-59802027D01*
X32680726Y-59709394D01*
X32699737Y-59663497D01*
X32730500Y-59508842D01*
X32730500Y-59351158D01*
X32730500Y-59351155D01*
X32730499Y-59351153D01*
X32722371Y-59310292D01*
X32699737Y-59196503D01*
X32682006Y-59153696D01*
X32639397Y-59050827D01*
X32639390Y-59050814D01*
X32551789Y-58919711D01*
X32551786Y-58919707D01*
X32530319Y-58898240D01*
X32496834Y-58836917D01*
X32494000Y-58810559D01*
X32494000Y-56119440D01*
X32513685Y-56052401D01*
X32530315Y-56031762D01*
X32551789Y-56010289D01*
X32639394Y-55879179D01*
X32699737Y-55733497D01*
X32730500Y-55578842D01*
X32730500Y-55421158D01*
X32730500Y-55421155D01*
X32730499Y-55421153D01*
X32702270Y-55279237D01*
X32699737Y-55266503D01*
X32676080Y-55209390D01*
X32639397Y-55120827D01*
X32639390Y-55120814D01*
X32551789Y-54989711D01*
X32551786Y-54989707D01*
X32440292Y-54878213D01*
X32440288Y-54878210D01*
X32309185Y-54790609D01*
X32309172Y-54790602D01*
X32163501Y-54730264D01*
X32163489Y-54730261D01*
X32008845Y-54699500D01*
X32008842Y-54699500D01*
X31851158Y-54699500D01*
X31851155Y-54699500D01*
X31696510Y-54730261D01*
X31696498Y-54730264D01*
X31550827Y-54790602D01*
X31550814Y-54790609D01*
X31419711Y-54878210D01*
X31419707Y-54878213D01*
X31308213Y-54989707D01*
X31308210Y-54989711D01*
X31220609Y-55120814D01*
X31220602Y-55120827D01*
X31160264Y-55266498D01*
X31160261Y-55266510D01*
X31129500Y-55421153D01*
X31129500Y-55578846D01*
X31160261Y-55733489D01*
X31160264Y-55733501D01*
X31170168Y-55757412D01*
X31177635Y-55826882D01*
X31146359Y-55889360D01*
X31086269Y-55925011D01*
X31031415Y-55926479D01*
X30948570Y-55910000D01*
X30555000Y-55910000D01*
X30555000Y-56560000D01*
X30055000Y-56560000D01*
X30055000Y-55910000D01*
X29661430Y-55910000D01*
X29477902Y-55946506D01*
X29477894Y-55946508D01*
X29305008Y-56018119D01*
X29304999Y-56018124D01*
X29149410Y-56122086D01*
X29149406Y-56122089D01*
X29017089Y-56254406D01*
X29017086Y-56254410D01*
X28913124Y-56409999D01*
X28913119Y-56410008D01*
X28841507Y-56582896D01*
X28841506Y-56582899D01*
X28836115Y-56609999D01*
X27453884Y-56609999D01*
X27448493Y-56582899D01*
X27448492Y-56582896D01*
X27376880Y-56410008D01*
X27376875Y-56409999D01*
X27272913Y-56254410D01*
X27272910Y-56254406D01*
X27140593Y-56122089D01*
X27140589Y-56122086D01*
X26985000Y-56018124D01*
X26984991Y-56018119D01*
X26812105Y-55946508D01*
X26812097Y-55946506D01*
X26628570Y-55910000D01*
X26385000Y-55910000D01*
X26385000Y-56560000D01*
X25885000Y-56560000D01*
X25885000Y-55910000D01*
X25641430Y-55910000D01*
X25457902Y-55946506D01*
X25457894Y-55946508D01*
X25285008Y-56018119D01*
X25284999Y-56018124D01*
X25129410Y-56122086D01*
X25129406Y-56122089D01*
X24997089Y-56254406D01*
X24997086Y-56254410D01*
X24893124Y-56409999D01*
X24893119Y-56410008D01*
X24821507Y-56582896D01*
X24821506Y-56582899D01*
X24816115Y-56609999D01*
X23500500Y-56609999D01*
X23500500Y-46124500D01*
X23520185Y-46057461D01*
X23572989Y-46011706D01*
X23624500Y-46000500D01*
X64142521Y-46000500D01*
X64209560Y-46020185D01*
G37*
G04 #@! TD.AperFunction*
G04 #@! TA.AperFunction,Conductor*
G36*
X147392539Y-46020185D02*
G01*
X147438294Y-46072989D01*
X147449500Y-46124500D01*
X147449500Y-55363702D01*
X147429815Y-55430741D01*
X147377011Y-55476496D01*
X147307853Y-55486440D01*
X147252615Y-55464020D01*
X147171132Y-55404820D01*
X147171131Y-55404819D01*
X147171129Y-55404818D01*
X147056318Y-55346319D01*
X146991539Y-55313312D01*
X146799852Y-55251030D01*
X146600783Y-55219500D01*
X146600778Y-55219500D01*
X146399222Y-55219500D01*
X146399217Y-55219500D01*
X146200147Y-55251030D01*
X146008460Y-55313312D01*
X145828870Y-55404818D01*
X145735838Y-55472410D01*
X145665810Y-55523289D01*
X145665808Y-55523291D01*
X145665807Y-55523291D01*
X145523291Y-55665807D01*
X145523291Y-55665808D01*
X145523289Y-55665810D01*
X145514714Y-55677613D01*
X145404818Y-55828870D01*
X145313312Y-56008460D01*
X145251030Y-56200147D01*
X145219500Y-56399216D01*
X145219500Y-56600783D01*
X145251030Y-56799852D01*
X145313312Y-56991539D01*
X145404818Y-57171129D01*
X145523289Y-57334190D01*
X145665810Y-57476711D01*
X145828871Y-57595182D01*
X145969677Y-57666926D01*
X146008460Y-57686687D01*
X146104303Y-57717828D01*
X146200149Y-57748970D01*
X146292348Y-57763572D01*
X146399217Y-57780500D01*
X146399222Y-57780500D01*
X146600783Y-57780500D01*
X146697289Y-57765214D01*
X146799851Y-57748970D01*
X146991542Y-57686686D01*
X147171129Y-57595182D01*
X147252615Y-57535978D01*
X147318420Y-57512499D01*
X147386474Y-57528324D01*
X147435169Y-57578430D01*
X147449500Y-57636297D01*
X147449500Y-65875500D01*
X147429815Y-65942539D01*
X147377011Y-65988294D01*
X147325500Y-65999500D01*
X122597477Y-65999500D01*
X122530438Y-65979815D01*
X122484683Y-65927011D01*
X122474739Y-65857853D01*
X122503764Y-65794297D01*
X122509796Y-65787819D01*
X123665013Y-64632602D01*
X124836094Y-63461521D01*
X124836099Y-63461517D01*
X124846302Y-63451313D01*
X124846304Y-63451313D01*
X124951313Y-63346304D01*
X125025565Y-63217696D01*
X125035538Y-63180476D01*
X125064000Y-63074253D01*
X125064000Y-62925747D01*
X125064000Y-60584255D01*
X125064001Y-60584242D01*
X125064001Y-60425750D01*
X125064001Y-60425748D01*
X125025565Y-60282304D01*
X125024523Y-60280500D01*
X124951315Y-60153699D01*
X124951310Y-60153693D01*
X124460436Y-59662819D01*
X123958382Y-59160766D01*
X123958381Y-59160764D01*
X123846306Y-59048689D01*
X123846304Y-59048687D01*
X123760565Y-58999185D01*
X123717698Y-58974436D01*
X123717697Y-58974435D01*
X123690410Y-58967124D01*
X123663125Y-58959813D01*
X123663124Y-58959812D01*
X123598065Y-58942380D01*
X123574253Y-58936000D01*
X123574252Y-58936000D01*
X122405216Y-58936000D01*
X122338177Y-58916315D01*
X122292422Y-58863511D01*
X122283599Y-58836191D01*
X122277675Y-58806410D01*
X122269737Y-58766503D01*
X122259588Y-58742001D01*
X122209397Y-58620827D01*
X122209390Y-58620814D01*
X122121789Y-58489711D01*
X122121786Y-58489707D01*
X122010292Y-58378213D01*
X122010288Y-58378210D01*
X121879185Y-58290609D01*
X121879176Y-58290604D01*
X121861703Y-58283367D01*
X121861701Y-58283366D01*
X121733501Y-58230264D01*
X121733489Y-58230261D01*
X121578845Y-58199500D01*
X121578842Y-58199500D01*
X121548478Y-58199500D01*
X121481439Y-58179815D01*
X121471908Y-58172135D01*
X140219500Y-58172135D01*
X140219500Y-59827870D01*
X140219501Y-59827876D01*
X140225908Y-59887483D01*
X140276202Y-60022328D01*
X140276206Y-60022335D01*
X140362452Y-60137544D01*
X140362455Y-60137547D01*
X140477664Y-60223793D01*
X140477671Y-60223797D01*
X140612517Y-60274091D01*
X140612516Y-60274091D01*
X140619444Y-60274835D01*
X140672127Y-60280500D01*
X142327872Y-60280499D01*
X142387483Y-60274091D01*
X142522331Y-60223796D01*
X142637546Y-60137546D01*
X142723796Y-60022331D01*
X142774091Y-59887483D01*
X142780500Y-59827873D01*
X142780499Y-58172128D01*
X142774091Y-58112517D01*
X142765917Y-58090602D01*
X142723797Y-57977671D01*
X142723793Y-57977664D01*
X142637547Y-57862455D01*
X142637544Y-57862452D01*
X142522335Y-57776206D01*
X142522328Y-57776202D01*
X142387482Y-57725908D01*
X142387483Y-57725908D01*
X142327883Y-57719501D01*
X142327881Y-57719500D01*
X142327873Y-57719500D01*
X142327864Y-57719500D01*
X140672129Y-57719500D01*
X140672123Y-57719501D01*
X140612516Y-57725908D01*
X140477671Y-57776202D01*
X140477664Y-57776206D01*
X140362455Y-57862452D01*
X140362452Y-57862455D01*
X140276206Y-57977664D01*
X140276202Y-57977671D01*
X140225908Y-58112517D01*
X140219604Y-58171158D01*
X140219501Y-58172123D01*
X140219500Y-58172135D01*
X121471908Y-58172135D01*
X121460797Y-58163181D01*
X117336819Y-54039203D01*
X117323562Y-54014925D01*
X117307448Y-53992445D01*
X117305715Y-53982241D01*
X117303334Y-53977880D01*
X117300660Y-53957810D01*
X117300500Y-53954659D01*
X117300500Y-53921158D01*
X117296135Y-53899216D01*
X140219500Y-53899216D01*
X140219500Y-54100783D01*
X140251030Y-54299852D01*
X140313312Y-54491539D01*
X140360681Y-54584505D01*
X140404818Y-54671129D01*
X140523289Y-54834190D01*
X140665810Y-54976711D01*
X140828871Y-55095182D01*
X141008458Y-55186686D01*
X141008460Y-55186687D01*
X141078334Y-55209390D01*
X141200149Y-55248970D01*
X141292348Y-55263572D01*
X141399217Y-55280500D01*
X141399222Y-55280500D01*
X141600783Y-55280500D01*
X141697289Y-55265214D01*
X141799851Y-55248970D01*
X141991542Y-55186686D01*
X142171129Y-55095182D01*
X142334190Y-54976711D01*
X142476711Y-54834190D01*
X142595182Y-54671129D01*
X142686686Y-54491542D01*
X142748970Y-54299851D01*
X142777327Y-54120814D01*
X142780500Y-54100783D01*
X142780500Y-53899216D01*
X142762156Y-53783408D01*
X142748970Y-53700149D01*
X142686686Y-53508458D01*
X142595182Y-53328871D01*
X142476711Y-53165810D01*
X142334190Y-53023289D01*
X142171129Y-52904818D01*
X142118908Y-52878210D01*
X141991539Y-52813312D01*
X141799852Y-52751030D01*
X141600783Y-52719500D01*
X141600778Y-52719500D01*
X141399222Y-52719500D01*
X141399217Y-52719500D01*
X141200147Y-52751030D01*
X141008460Y-52813312D01*
X140828870Y-52904818D01*
X140735838Y-52972410D01*
X140665810Y-53023289D01*
X140665808Y-53023291D01*
X140665807Y-53023291D01*
X140523291Y-53165807D01*
X140523291Y-53165808D01*
X140523289Y-53165810D01*
X140486533Y-53216400D01*
X140404818Y-53328870D01*
X140313312Y-53508460D01*
X140251030Y-53700147D01*
X140219500Y-53899216D01*
X117296135Y-53899216D01*
X117269737Y-53766503D01*
X117256062Y-53733489D01*
X117209397Y-53620827D01*
X117209390Y-53620814D01*
X117121789Y-53489711D01*
X117121786Y-53489707D01*
X117010292Y-53378213D01*
X117010288Y-53378210D01*
X116879185Y-53290609D01*
X116879175Y-53290604D01*
X116787467Y-53252617D01*
X116733064Y-53208776D01*
X116710999Y-53142481D01*
X116728278Y-53074782D01*
X116747235Y-53050379D01*
X119780602Y-50017013D01*
X119841923Y-49983530D01*
X119911615Y-49988514D01*
X119941163Y-50004375D01*
X120044595Y-50079524D01*
X120068288Y-50091596D01*
X120219970Y-50168882D01*
X120219972Y-50168882D01*
X120219975Y-50168884D01*
X120294353Y-50193051D01*
X120407173Y-50229709D01*
X120601578Y-50260500D01*
X120601583Y-50260500D01*
X120798422Y-50260500D01*
X120992826Y-50229709D01*
X121023553Y-50219725D01*
X121180025Y-50168884D01*
X121355405Y-50079524D01*
X121514646Y-49963828D01*
X121653828Y-49824646D01*
X121769524Y-49665405D01*
X121858884Y-49490025D01*
X121919709Y-49302826D01*
X121921644Y-49290606D01*
X121950500Y-49108422D01*
X121950500Y-48911577D01*
X121919709Y-48717173D01*
X121858882Y-48529970D01*
X121805778Y-48425748D01*
X121769524Y-48354595D01*
X121653828Y-48195354D01*
X121514646Y-48056172D01*
X121355405Y-47940476D01*
X121180029Y-47851117D01*
X120992826Y-47790290D01*
X120798422Y-47759500D01*
X120798417Y-47759500D01*
X120601583Y-47759500D01*
X120601578Y-47759500D01*
X120407173Y-47790290D01*
X120219970Y-47851117D01*
X120044594Y-47940476D01*
X119980764Y-47986852D01*
X119885354Y-48056172D01*
X119885352Y-48056174D01*
X119885351Y-48056174D01*
X119746174Y-48195351D01*
X119746174Y-48195352D01*
X119746172Y-48195354D01*
X119696485Y-48263741D01*
X119630476Y-48354594D01*
X119540485Y-48531213D01*
X119492511Y-48582009D01*
X119424690Y-48598804D01*
X119358555Y-48576267D01*
X119319515Y-48531213D01*
X119265778Y-48425748D01*
X119229524Y-48354595D01*
X119113828Y-48195354D01*
X118974646Y-48056172D01*
X118815405Y-47940476D01*
X118640029Y-47851117D01*
X118452826Y-47790290D01*
X118258422Y-47759500D01*
X118258417Y-47759500D01*
X118061583Y-47759500D01*
X118061578Y-47759500D01*
X117867173Y-47790290D01*
X117679970Y-47851117D01*
X117504594Y-47940476D01*
X117440764Y-47986852D01*
X117345354Y-48056172D01*
X117345352Y-48056174D01*
X117345351Y-48056174D01*
X117206174Y-48195351D01*
X117206174Y-48195352D01*
X117206172Y-48195354D01*
X117156485Y-48263741D01*
X117090476Y-48354594D01*
X117000485Y-48531213D01*
X116952511Y-48582009D01*
X116884690Y-48598804D01*
X116818555Y-48576267D01*
X116779515Y-48531213D01*
X116725778Y-48425748D01*
X116689524Y-48354595D01*
X116573828Y-48195354D01*
X116434646Y-48056172D01*
X116275405Y-47940476D01*
X116100029Y-47851117D01*
X115912826Y-47790290D01*
X115718422Y-47759500D01*
X115718417Y-47759500D01*
X115521583Y-47759500D01*
X115521578Y-47759500D01*
X115327173Y-47790290D01*
X115139970Y-47851117D01*
X114964590Y-47940478D01*
X114919085Y-47973540D01*
X114853279Y-47997020D01*
X114785225Y-47981194D01*
X114758519Y-47960903D01*
X113958383Y-47160767D01*
X113958381Y-47160764D01*
X113846306Y-47048689D01*
X113846304Y-47048687D01*
X113717696Y-46974435D01*
X113574253Y-46936000D01*
X113574252Y-46936000D01*
X112124252Y-46936000D01*
X111975747Y-46936000D01*
X111832303Y-46974435D01*
X111832300Y-46974436D01*
X111785229Y-47001612D01*
X111785229Y-47001613D01*
X111703699Y-47048685D01*
X111703696Y-47048687D01*
X111703693Y-47048689D01*
X111598685Y-47153698D01*
X110984122Y-47768260D01*
X110922799Y-47801745D01*
X110858122Y-47798510D01*
X110832826Y-47790290D01*
X110638422Y-47759500D01*
X110638417Y-47759500D01*
X110441583Y-47759500D01*
X110441578Y-47759500D01*
X110247173Y-47790290D01*
X110059970Y-47851117D01*
X109884594Y-47940476D01*
X109820764Y-47986852D01*
X109725354Y-48056172D01*
X109725352Y-48056174D01*
X109725351Y-48056174D01*
X109586174Y-48195351D01*
X109586174Y-48195352D01*
X109586172Y-48195354D01*
X109536485Y-48263741D01*
X109470476Y-48354594D01*
X109380485Y-48531213D01*
X109332511Y-48582009D01*
X109264690Y-48598804D01*
X109198555Y-48576267D01*
X109159515Y-48531213D01*
X109105778Y-48425748D01*
X109069524Y-48354595D01*
X108953828Y-48195354D01*
X108814646Y-48056172D01*
X108655405Y-47940476D01*
X108480025Y-47851116D01*
X108422534Y-47832436D01*
X108364860Y-47793000D01*
X108337662Y-47728641D01*
X108349577Y-47659795D01*
X108373167Y-47626832D01*
X109963181Y-46036819D01*
X110024504Y-46003334D01*
X110050862Y-46000500D01*
X147325500Y-46000500D01*
X147392539Y-46020185D01*
G37*
G04 #@! TD.AperFunction*
G04 #@! TA.AperFunction,Conductor*
G36*
X102782061Y-56083685D02*
G01*
X102802703Y-56100319D01*
X104048685Y-57346301D01*
X104048687Y-57346304D01*
X104153696Y-57451313D01*
X104171874Y-57461808D01*
X104182359Y-57471668D01*
X104193048Y-57489890D01*
X104207627Y-57505180D01*
X104210371Y-57519422D01*
X104217711Y-57531934D01*
X104216851Y-57553043D01*
X104220849Y-57573787D01*
X104215458Y-57587252D01*
X104214868Y-57601746D01*
X104202732Y-57619039D01*
X104194881Y-57638652D01*
X104183066Y-57647065D01*
X104174734Y-57658939D01*
X104155175Y-57666926D01*
X104137967Y-57679180D01*
X104116208Y-57682838D01*
X104110050Y-57685354D01*
X104105867Y-57684577D01*
X104097411Y-57686000D01*
X99175747Y-57686000D01*
X99032303Y-57724435D01*
X99005845Y-57739711D01*
X98903699Y-57798685D01*
X98903693Y-57798689D01*
X98739202Y-57963181D01*
X98677879Y-57996666D01*
X98651521Y-57999500D01*
X98621155Y-57999500D01*
X98466510Y-58030261D01*
X98466498Y-58030264D01*
X98320827Y-58090602D01*
X98320814Y-58090609D01*
X98189711Y-58178210D01*
X98189707Y-58178213D01*
X98078213Y-58289707D01*
X98078210Y-58289711D01*
X97990609Y-58420814D01*
X97990602Y-58420827D01*
X97930264Y-58566498D01*
X97930261Y-58566510D01*
X97899500Y-58721153D01*
X97899500Y-58878846D01*
X97930261Y-59033489D01*
X97930264Y-59033501D01*
X97990602Y-59179172D01*
X97990609Y-59179185D01*
X98078210Y-59310288D01*
X98078213Y-59310292D01*
X98189707Y-59421786D01*
X98189711Y-59421789D01*
X98320814Y-59509390D01*
X98320827Y-59509397D01*
X98457469Y-59565995D01*
X98466503Y-59569737D01*
X98617101Y-59599693D01*
X98621153Y-59600499D01*
X98621156Y-59600500D01*
X98621158Y-59600500D01*
X98778844Y-59600500D01*
X98778845Y-59600499D01*
X98933497Y-59569737D01*
X99079179Y-59509394D01*
X99210289Y-59421789D01*
X99321789Y-59310289D01*
X99409394Y-59179179D01*
X99419949Y-59153698D01*
X99433569Y-59120814D01*
X99469737Y-59033497D01*
X99484478Y-58959390D01*
X99493545Y-58913809D01*
X99525930Y-58851898D01*
X99586645Y-58817324D01*
X99615162Y-58814000D01*
X107130559Y-58814000D01*
X107197598Y-58833685D01*
X107218240Y-58850319D01*
X107239707Y-58871786D01*
X107239711Y-58871789D01*
X107370814Y-58959390D01*
X107370827Y-58959397D01*
X107516498Y-59019735D01*
X107516503Y-59019737D01*
X107662054Y-59048689D01*
X107671153Y-59050499D01*
X107671156Y-59050500D01*
X107671158Y-59050500D01*
X107828844Y-59050500D01*
X107828845Y-59050499D01*
X107983497Y-59019737D01*
X108096166Y-58973067D01*
X108129172Y-58959397D01*
X108129172Y-58959396D01*
X108129179Y-58959394D01*
X108260289Y-58871789D01*
X108371789Y-58760289D01*
X108459394Y-58629179D01*
X108462854Y-58620827D01*
X108492734Y-58548689D01*
X108519737Y-58483497D01*
X108550500Y-58328842D01*
X108550500Y-58171158D01*
X108550500Y-58171155D01*
X108550499Y-58171153D01*
X108542177Y-58129314D01*
X108519737Y-58016503D01*
X108511520Y-57996666D01*
X108459397Y-57870827D01*
X108459390Y-57870814D01*
X108383269Y-57756891D01*
X108362391Y-57690213D01*
X108380876Y-57622833D01*
X108432854Y-57576143D01*
X108486371Y-57564000D01*
X109715022Y-57564000D01*
X109782061Y-57583685D01*
X109802703Y-57600319D01*
X110947471Y-58745087D01*
X110980956Y-58806410D01*
X110975972Y-58876102D01*
X110947472Y-58920449D01*
X110878210Y-58989711D01*
X110790609Y-59120814D01*
X110790602Y-59120827D01*
X110730264Y-59266498D01*
X110730261Y-59266510D01*
X110699500Y-59421153D01*
X110699500Y-59451522D01*
X110679815Y-59518561D01*
X110663181Y-59539203D01*
X110009334Y-60193049D01*
X109948011Y-60226534D01*
X109878319Y-60221550D01*
X109822386Y-60179678D01*
X109797969Y-60114214D01*
X109800036Y-60081173D01*
X109800500Y-60078840D01*
X109800500Y-59921155D01*
X109800499Y-59921153D01*
X109795741Y-59897234D01*
X109769737Y-59766503D01*
X109755799Y-59732853D01*
X109709397Y-59620827D01*
X109709390Y-59620814D01*
X109621789Y-59489711D01*
X109621786Y-59489707D01*
X109510292Y-59378213D01*
X109510288Y-59378210D01*
X109379185Y-59290609D01*
X109379172Y-59290602D01*
X109233501Y-59230264D01*
X109233489Y-59230261D01*
X109078845Y-59199500D01*
X109078842Y-59199500D01*
X108921158Y-59199500D01*
X108921155Y-59199500D01*
X108766510Y-59230261D01*
X108766498Y-59230264D01*
X108620827Y-59290602D01*
X108620814Y-59290609D01*
X108489711Y-59378210D01*
X108489707Y-59378213D01*
X108378213Y-59489707D01*
X108378210Y-59489711D01*
X108290609Y-59620814D01*
X108290602Y-59620827D01*
X108230264Y-59766498D01*
X108230261Y-59766510D01*
X108199500Y-59921153D01*
X108199500Y-59951521D01*
X108179815Y-60018560D01*
X108163181Y-60039202D01*
X107449623Y-60752759D01*
X107388300Y-60786244D01*
X107318608Y-60781260D01*
X107262675Y-60739388D01*
X107247381Y-60712530D01*
X107209397Y-60620827D01*
X107209390Y-60620814D01*
X107121789Y-60489711D01*
X107121786Y-60489707D01*
X107010292Y-60378213D01*
X107010288Y-60378210D01*
X106879185Y-60290609D01*
X106879172Y-60290602D01*
X106733501Y-60230264D01*
X106733489Y-60230261D01*
X106578845Y-60199500D01*
X106578842Y-60199500D01*
X106421158Y-60199500D01*
X106421155Y-60199500D01*
X106266510Y-60230261D01*
X106266498Y-60230264D01*
X106120827Y-60290602D01*
X106120814Y-60290609D01*
X105989711Y-60378210D01*
X105989707Y-60378213D01*
X105968240Y-60399681D01*
X105906917Y-60433166D01*
X105880559Y-60436000D01*
X104925747Y-60436000D01*
X104782304Y-60474435D01*
X104782301Y-60474436D01*
X104653699Y-60548685D01*
X104653693Y-60548689D01*
X104548685Y-60653698D01*
X102802703Y-62399681D01*
X102741380Y-62433166D01*
X102715022Y-62436000D01*
X74784978Y-62436000D01*
X74717939Y-62416315D01*
X74697297Y-62399681D01*
X73573297Y-61275681D01*
X73539812Y-61214358D01*
X73544796Y-61144666D01*
X73586668Y-61088733D01*
X73652132Y-61064316D01*
X73660978Y-61064000D01*
X82594784Y-61064000D01*
X82661823Y-61083685D01*
X82707578Y-61136489D01*
X82716401Y-61163809D01*
X82730261Y-61233489D01*
X82730264Y-61233501D01*
X82790602Y-61379172D01*
X82790609Y-61379185D01*
X82878210Y-61510288D01*
X82878213Y-61510292D01*
X82989707Y-61621786D01*
X82989711Y-61621789D01*
X83120814Y-61709390D01*
X83120827Y-61709397D01*
X83258683Y-61766498D01*
X83266503Y-61769737D01*
X83421153Y-61800499D01*
X83421156Y-61800500D01*
X83421158Y-61800500D01*
X83578844Y-61800500D01*
X83578845Y-61800499D01*
X83733497Y-61769737D01*
X83879179Y-61709394D01*
X84010289Y-61621789D01*
X84121789Y-61510289D01*
X84209394Y-61379179D01*
X84269737Y-61233497D01*
X84300500Y-61078842D01*
X84300500Y-60921158D01*
X84300500Y-60921155D01*
X84300499Y-60921153D01*
X84283724Y-60836819D01*
X84269737Y-60766503D01*
X84223012Y-60653698D01*
X84209397Y-60620827D01*
X84209390Y-60620814D01*
X84121789Y-60489711D01*
X84121786Y-60489707D01*
X84010292Y-60378213D01*
X84010288Y-60378210D01*
X83879185Y-60290609D01*
X83879172Y-60290602D01*
X83733501Y-60230264D01*
X83733489Y-60230261D01*
X83578845Y-60199500D01*
X83578842Y-60199500D01*
X83548478Y-60199500D01*
X83519037Y-60190855D01*
X83489051Y-60184332D01*
X83484035Y-60180577D01*
X83481439Y-60179815D01*
X83460797Y-60163181D01*
X83458383Y-60160767D01*
X83458381Y-60160764D01*
X83346306Y-60048689D01*
X83346304Y-60048687D01*
X83217696Y-59974435D01*
X83074253Y-59936000D01*
X83074252Y-59936000D01*
X81871437Y-59936000D01*
X81847210Y-59928886D01*
X81822151Y-59925784D01*
X81814255Y-59919209D01*
X81804398Y-59916315D01*
X81787864Y-59897234D01*
X81768458Y-59881075D01*
X81765370Y-59871274D01*
X81758643Y-59863511D01*
X81755049Y-59838519D01*
X81747461Y-59814435D01*
X81749802Y-59802027D01*
X81748699Y-59794353D01*
X81751797Y-59779409D01*
X81753866Y-59771812D01*
X81769737Y-59733497D01*
X81784441Y-59659575D01*
X81785576Y-59655409D01*
X81801709Y-59629185D01*
X81815983Y-59601898D01*
X81819853Y-59599693D01*
X81822188Y-59595900D01*
X81849944Y-59582559D01*
X81876699Y-59567324D01*
X81883224Y-59566563D01*
X81885162Y-59565632D01*
X81888097Y-59565995D01*
X81905216Y-59564000D01*
X83380559Y-59564000D01*
X83447598Y-59583685D01*
X83468240Y-59600319D01*
X83489707Y-59621786D01*
X83489711Y-59621789D01*
X83620814Y-59709390D01*
X83620827Y-59709397D01*
X83758683Y-59766498D01*
X83766503Y-59769737D01*
X83921153Y-59800499D01*
X83921156Y-59800500D01*
X83921158Y-59800500D01*
X84078844Y-59800500D01*
X84078845Y-59800499D01*
X84233497Y-59769737D01*
X84379179Y-59709394D01*
X84510289Y-59621789D01*
X84621789Y-59510289D01*
X84709394Y-59379179D01*
X84713426Y-59369444D01*
X84757264Y-59315042D01*
X84823557Y-59292975D01*
X84852177Y-59295278D01*
X84869277Y-59298680D01*
X84921156Y-59309000D01*
X84921158Y-59309000D01*
X85078844Y-59309000D01*
X85078845Y-59308999D01*
X85233497Y-59278237D01*
X85379179Y-59217894D01*
X85510289Y-59130289D01*
X85621789Y-59018789D01*
X85709394Y-58887679D01*
X85769737Y-58741997D01*
X85800500Y-58587342D01*
X85800500Y-58429658D01*
X85800500Y-58429655D01*
X85800499Y-58429653D01*
X85794537Y-58399681D01*
X85769737Y-58275003D01*
X85751205Y-58230263D01*
X85709397Y-58129327D01*
X85709390Y-58129314D01*
X85621789Y-57998211D01*
X85621786Y-57998207D01*
X85510292Y-57886713D01*
X85510288Y-57886710D01*
X85379185Y-57799109D01*
X85379172Y-57799102D01*
X85233501Y-57738764D01*
X85233489Y-57738761D01*
X85078845Y-57708000D01*
X85078842Y-57708000D01*
X84921158Y-57708000D01*
X84921155Y-57708000D01*
X84766510Y-57738761D01*
X84766498Y-57738764D01*
X84620827Y-57799102D01*
X84620814Y-57799109D01*
X84489711Y-57886710D01*
X84489707Y-57886713D01*
X84468240Y-57908181D01*
X84406917Y-57941666D01*
X84380559Y-57944500D01*
X83404109Y-57944500D01*
X83337070Y-57924815D01*
X83291315Y-57872011D01*
X83282492Y-57844692D01*
X83269738Y-57780577D01*
X83269737Y-57780576D01*
X83269737Y-57780572D01*
X83252419Y-57738763D01*
X83209397Y-57634896D01*
X83209390Y-57634883D01*
X83121789Y-57503780D01*
X83121786Y-57503776D01*
X83010292Y-57392282D01*
X83010288Y-57392279D01*
X82879185Y-57304678D01*
X82879175Y-57304673D01*
X82874076Y-57302561D01*
X82819672Y-57258719D01*
X82797608Y-57192425D01*
X82814888Y-57124726D01*
X82866025Y-57077116D01*
X82921529Y-57064000D01*
X99574251Y-57064000D01*
X99574253Y-57064000D01*
X99717696Y-57025565D01*
X99846304Y-56951313D01*
X99951313Y-56846304D01*
X99951313Y-56846303D01*
X99960798Y-56836819D01*
X100022121Y-56803334D01*
X100048479Y-56800500D01*
X100078844Y-56800500D01*
X100078845Y-56800499D01*
X100233497Y-56769737D01*
X100379179Y-56709394D01*
X100510289Y-56621789D01*
X100621789Y-56510289D01*
X100709394Y-56379179D01*
X100769737Y-56233497D01*
X100783599Y-56163809D01*
X100815983Y-56101898D01*
X100876699Y-56067324D01*
X100905216Y-56064000D01*
X102715022Y-56064000D01*
X102782061Y-56083685D01*
G37*
G04 #@! TD.AperFunction*
M02*
