G04 #@! TF.GenerationSoftware,KiCad,Pcbnew,9.0.3*
G04 #@! TF.CreationDate,2025-08-28T22:32:17-04:00*
G04 #@! TF.ProjectId,shiftclock,73686966-7463-46c6-9f63-6b2e6b696361,rev?*
G04 #@! TF.SameCoordinates,Original*
G04 #@! TF.FileFunction,Soldermask,Top*
G04 #@! TF.FilePolarity,Negative*
%FSLAX46Y46*%
G04 Gerber Fmt 4.6, Leading zero omitted, Abs format (unit mm)*
G04 Created by KiCad (PCBNEW 9.0.3) date 2025-08-28 22:32:17*
%MOMM*%
%LPD*%
G01*
G04 APERTURE LIST*
G04 APERTURE END LIST*
G36*
X120762000Y-53309500D02*
G01*
X119238000Y-53309500D01*
X119238000Y-50785500D01*
X120762000Y-50785500D01*
X120762000Y-53309500D01*
G37*
G36*
X122761197Y-50818311D02*
G01*
X122899204Y-50875476D01*
X123023408Y-50958466D01*
X123129034Y-51064092D01*
X123212024Y-51188296D01*
X123269189Y-51326303D01*
X123298331Y-51472811D01*
X123302000Y-51547500D01*
X123302000Y-52547500D01*
X123298331Y-52622189D01*
X123269189Y-52768697D01*
X123212024Y-52906704D01*
X123129034Y-53030908D01*
X123023408Y-53136534D01*
X122899204Y-53219524D01*
X122761197Y-53276689D01*
X122614689Y-53305831D01*
X122465311Y-53305831D01*
X122318803Y-53276689D01*
X122180796Y-53219524D01*
X122056592Y-53136534D01*
X121950966Y-53030908D01*
X121867976Y-52906704D01*
X121810811Y-52768697D01*
X121781669Y-52622189D01*
X121778000Y-52547500D01*
X121778000Y-51547500D01*
X121781669Y-51472811D01*
X121810811Y-51326303D01*
X121867976Y-51188296D01*
X121950966Y-51064092D01*
X122056592Y-50958466D01*
X122180796Y-50875476D01*
X122318803Y-50818311D01*
X122465311Y-50789169D01*
X122614689Y-50789169D01*
X122761197Y-50818311D01*
G37*
G36*
X125301197Y-50818311D02*
G01*
X125439204Y-50875476D01*
X125563408Y-50958466D01*
X125669034Y-51064092D01*
X125752024Y-51188296D01*
X125809189Y-51326303D01*
X125838331Y-51472811D01*
X125842000Y-51547500D01*
X125842000Y-52547500D01*
X125838331Y-52622189D01*
X125809189Y-52768697D01*
X125752024Y-52906704D01*
X125669034Y-53030908D01*
X125563408Y-53136534D01*
X125439204Y-53219524D01*
X125301197Y-53276689D01*
X125154689Y-53305831D01*
X125005311Y-53305831D01*
X124858803Y-53276689D01*
X124720796Y-53219524D01*
X124596592Y-53136534D01*
X124490966Y-53030908D01*
X124407976Y-52906704D01*
X124350811Y-52768697D01*
X124321669Y-52622189D01*
X124318000Y-52547500D01*
X124318000Y-51547500D01*
X124321669Y-51472811D01*
X124350811Y-51326303D01*
X124407976Y-51188296D01*
X124490966Y-51064092D01*
X124596592Y-50958466D01*
X124720796Y-50875476D01*
X124858803Y-50818311D01*
X125005311Y-50789169D01*
X125154689Y-50789169D01*
X125301197Y-50818311D01*
G37*
G36*
X127841197Y-50818311D02*
G01*
X127979204Y-50875476D01*
X128103408Y-50958466D01*
X128209034Y-51064092D01*
X128292024Y-51188296D01*
X128349189Y-51326303D01*
X128378331Y-51472811D01*
X128382000Y-51547500D01*
X128382000Y-52547500D01*
X128378331Y-52622189D01*
X128349189Y-52768697D01*
X128292024Y-52906704D01*
X128209034Y-53030908D01*
X128103408Y-53136534D01*
X127979204Y-53219524D01*
X127841197Y-53276689D01*
X127694689Y-53305831D01*
X127545311Y-53305831D01*
X127398803Y-53276689D01*
X127260796Y-53219524D01*
X127136592Y-53136534D01*
X127030966Y-53030908D01*
X126947976Y-52906704D01*
X126890811Y-52768697D01*
X126861669Y-52622189D01*
X126858000Y-52547500D01*
X126858000Y-51547500D01*
X126861669Y-51472811D01*
X126890811Y-51326303D01*
X126947976Y-51188296D01*
X127030966Y-51064092D01*
X127136592Y-50958466D01*
X127260796Y-50875476D01*
X127398803Y-50818311D01*
X127545311Y-50789169D01*
X127694689Y-50789169D01*
X127841197Y-50818311D01*
G37*
G36*
X130381197Y-50818311D02*
G01*
X130519204Y-50875476D01*
X130643408Y-50958466D01*
X130749034Y-51064092D01*
X130832024Y-51188296D01*
X130889189Y-51326303D01*
X130918331Y-51472811D01*
X130922000Y-51547500D01*
X130922000Y-52547500D01*
X130918331Y-52622189D01*
X130889189Y-52768697D01*
X130832024Y-52906704D01*
X130749034Y-53030908D01*
X130643408Y-53136534D01*
X130519204Y-53219524D01*
X130381197Y-53276689D01*
X130234689Y-53305831D01*
X130085311Y-53305831D01*
X129938803Y-53276689D01*
X129800796Y-53219524D01*
X129676592Y-53136534D01*
X129570966Y-53030908D01*
X129487976Y-52906704D01*
X129430811Y-52768697D01*
X129401669Y-52622189D01*
X129398000Y-52547500D01*
X129398000Y-51547500D01*
X129401669Y-51472811D01*
X129430811Y-51326303D01*
X129487976Y-51188296D01*
X129570966Y-51064092D01*
X129676592Y-50958466D01*
X129800796Y-50875476D01*
X129938803Y-50818311D01*
X130085311Y-50789169D01*
X130234689Y-50789169D01*
X130381197Y-50818311D01*
G37*
G36*
X42602000Y-53294500D02*
G01*
X41078000Y-53294500D01*
X41078000Y-50770500D01*
X42602000Y-50770500D01*
X42602000Y-53294500D01*
G37*
G36*
X68762000Y-53294500D02*
G01*
X67238000Y-53294500D01*
X67238000Y-50770500D01*
X68762000Y-50770500D01*
X68762000Y-53294500D01*
G37*
G36*
X94762000Y-53294500D02*
G01*
X93238000Y-53294500D01*
X93238000Y-50770500D01*
X94762000Y-50770500D01*
X94762000Y-53294500D01*
G37*
G36*
X44601197Y-50803311D02*
G01*
X44739204Y-50860476D01*
X44863408Y-50943466D01*
X44969034Y-51049092D01*
X45052024Y-51173296D01*
X45109189Y-51311303D01*
X45138331Y-51457811D01*
X45142000Y-51532500D01*
X45142000Y-52532500D01*
X45138331Y-52607189D01*
X45109189Y-52753697D01*
X45052024Y-52891704D01*
X44969034Y-53015908D01*
X44863408Y-53121534D01*
X44739204Y-53204524D01*
X44601197Y-53261689D01*
X44454689Y-53290831D01*
X44305311Y-53290831D01*
X44158803Y-53261689D01*
X44020796Y-53204524D01*
X43896592Y-53121534D01*
X43790966Y-53015908D01*
X43707976Y-52891704D01*
X43650811Y-52753697D01*
X43621669Y-52607189D01*
X43618000Y-52532500D01*
X43618000Y-51532500D01*
X43621669Y-51457811D01*
X43650811Y-51311303D01*
X43707976Y-51173296D01*
X43790966Y-51049092D01*
X43896592Y-50943466D01*
X44020796Y-50860476D01*
X44158803Y-50803311D01*
X44305311Y-50774169D01*
X44454689Y-50774169D01*
X44601197Y-50803311D01*
G37*
G36*
X47141197Y-50803311D02*
G01*
X47279204Y-50860476D01*
X47403408Y-50943466D01*
X47509034Y-51049092D01*
X47592024Y-51173296D01*
X47649189Y-51311303D01*
X47678331Y-51457811D01*
X47682000Y-51532500D01*
X47682000Y-52532500D01*
X47678331Y-52607189D01*
X47649189Y-52753697D01*
X47592024Y-52891704D01*
X47509034Y-53015908D01*
X47403408Y-53121534D01*
X47279204Y-53204524D01*
X47141197Y-53261689D01*
X46994689Y-53290831D01*
X46845311Y-53290831D01*
X46698803Y-53261689D01*
X46560796Y-53204524D01*
X46436592Y-53121534D01*
X46330966Y-53015908D01*
X46247976Y-52891704D01*
X46190811Y-52753697D01*
X46161669Y-52607189D01*
X46158000Y-52532500D01*
X46158000Y-51532500D01*
X46161669Y-51457811D01*
X46190811Y-51311303D01*
X46247976Y-51173296D01*
X46330966Y-51049092D01*
X46436592Y-50943466D01*
X46560796Y-50860476D01*
X46698803Y-50803311D01*
X46845311Y-50774169D01*
X46994689Y-50774169D01*
X47141197Y-50803311D01*
G37*
G36*
X49681197Y-50803311D02*
G01*
X49819204Y-50860476D01*
X49943408Y-50943466D01*
X50049034Y-51049092D01*
X50132024Y-51173296D01*
X50189189Y-51311303D01*
X50218331Y-51457811D01*
X50222000Y-51532500D01*
X50222000Y-52532500D01*
X50218331Y-52607189D01*
X50189189Y-52753697D01*
X50132024Y-52891704D01*
X50049034Y-53015908D01*
X49943408Y-53121534D01*
X49819204Y-53204524D01*
X49681197Y-53261689D01*
X49534689Y-53290831D01*
X49385311Y-53290831D01*
X49238803Y-53261689D01*
X49100796Y-53204524D01*
X48976592Y-53121534D01*
X48870966Y-53015908D01*
X48787976Y-52891704D01*
X48730811Y-52753697D01*
X48701669Y-52607189D01*
X48698000Y-52532500D01*
X48698000Y-51532500D01*
X48701669Y-51457811D01*
X48730811Y-51311303D01*
X48787976Y-51173296D01*
X48870966Y-51049092D01*
X48976592Y-50943466D01*
X49100796Y-50860476D01*
X49238803Y-50803311D01*
X49385311Y-50774169D01*
X49534689Y-50774169D01*
X49681197Y-50803311D01*
G37*
G36*
X52221197Y-50803311D02*
G01*
X52359204Y-50860476D01*
X52483408Y-50943466D01*
X52589034Y-51049092D01*
X52672024Y-51173296D01*
X52729189Y-51311303D01*
X52758331Y-51457811D01*
X52762000Y-51532500D01*
X52762000Y-52532500D01*
X52758331Y-52607189D01*
X52729189Y-52753697D01*
X52672024Y-52891704D01*
X52589034Y-53015908D01*
X52483408Y-53121534D01*
X52359204Y-53204524D01*
X52221197Y-53261689D01*
X52074689Y-53290831D01*
X51925311Y-53290831D01*
X51778803Y-53261689D01*
X51640796Y-53204524D01*
X51516592Y-53121534D01*
X51410966Y-53015908D01*
X51327976Y-52891704D01*
X51270811Y-52753697D01*
X51241669Y-52607189D01*
X51238000Y-52532500D01*
X51238000Y-51532500D01*
X51241669Y-51457811D01*
X51270811Y-51311303D01*
X51327976Y-51173296D01*
X51410966Y-51049092D01*
X51516592Y-50943466D01*
X51640796Y-50860476D01*
X51778803Y-50803311D01*
X51925311Y-50774169D01*
X52074689Y-50774169D01*
X52221197Y-50803311D01*
G37*
G36*
X70761197Y-50803311D02*
G01*
X70899204Y-50860476D01*
X71023408Y-50943466D01*
X71129034Y-51049092D01*
X71212024Y-51173296D01*
X71269189Y-51311303D01*
X71298331Y-51457811D01*
X71302000Y-51532500D01*
X71302000Y-52532500D01*
X71298331Y-52607189D01*
X71269189Y-52753697D01*
X71212024Y-52891704D01*
X71129034Y-53015908D01*
X71023408Y-53121534D01*
X70899204Y-53204524D01*
X70761197Y-53261689D01*
X70614689Y-53290831D01*
X70465311Y-53290831D01*
X70318803Y-53261689D01*
X70180796Y-53204524D01*
X70056592Y-53121534D01*
X69950966Y-53015908D01*
X69867976Y-52891704D01*
X69810811Y-52753697D01*
X69781669Y-52607189D01*
X69778000Y-52532500D01*
X69778000Y-51532500D01*
X69781669Y-51457811D01*
X69810811Y-51311303D01*
X69867976Y-51173296D01*
X69950966Y-51049092D01*
X70056592Y-50943466D01*
X70180796Y-50860476D01*
X70318803Y-50803311D01*
X70465311Y-50774169D01*
X70614689Y-50774169D01*
X70761197Y-50803311D01*
G37*
G36*
X73301197Y-50803311D02*
G01*
X73439204Y-50860476D01*
X73563408Y-50943466D01*
X73669034Y-51049092D01*
X73752024Y-51173296D01*
X73809189Y-51311303D01*
X73838331Y-51457811D01*
X73842000Y-51532500D01*
X73842000Y-52532500D01*
X73838331Y-52607189D01*
X73809189Y-52753697D01*
X73752024Y-52891704D01*
X73669034Y-53015908D01*
X73563408Y-53121534D01*
X73439204Y-53204524D01*
X73301197Y-53261689D01*
X73154689Y-53290831D01*
X73005311Y-53290831D01*
X72858803Y-53261689D01*
X72720796Y-53204524D01*
X72596592Y-53121534D01*
X72490966Y-53015908D01*
X72407976Y-52891704D01*
X72350811Y-52753697D01*
X72321669Y-52607189D01*
X72318000Y-52532500D01*
X72318000Y-51532500D01*
X72321669Y-51457811D01*
X72350811Y-51311303D01*
X72407976Y-51173296D01*
X72490966Y-51049092D01*
X72596592Y-50943466D01*
X72720796Y-50860476D01*
X72858803Y-50803311D01*
X73005311Y-50774169D01*
X73154689Y-50774169D01*
X73301197Y-50803311D01*
G37*
G36*
X75841197Y-50803311D02*
G01*
X75979204Y-50860476D01*
X76103408Y-50943466D01*
X76209034Y-51049092D01*
X76292024Y-51173296D01*
X76349189Y-51311303D01*
X76378331Y-51457811D01*
X76382000Y-51532500D01*
X76382000Y-52532500D01*
X76378331Y-52607189D01*
X76349189Y-52753697D01*
X76292024Y-52891704D01*
X76209034Y-53015908D01*
X76103408Y-53121534D01*
X75979204Y-53204524D01*
X75841197Y-53261689D01*
X75694689Y-53290831D01*
X75545311Y-53290831D01*
X75398803Y-53261689D01*
X75260796Y-53204524D01*
X75136592Y-53121534D01*
X75030966Y-53015908D01*
X74947976Y-52891704D01*
X74890811Y-52753697D01*
X74861669Y-52607189D01*
X74858000Y-52532500D01*
X74858000Y-51532500D01*
X74861669Y-51457811D01*
X74890811Y-51311303D01*
X74947976Y-51173296D01*
X75030966Y-51049092D01*
X75136592Y-50943466D01*
X75260796Y-50860476D01*
X75398803Y-50803311D01*
X75545311Y-50774169D01*
X75694689Y-50774169D01*
X75841197Y-50803311D01*
G37*
G36*
X78381197Y-50803311D02*
G01*
X78519204Y-50860476D01*
X78643408Y-50943466D01*
X78749034Y-51049092D01*
X78832024Y-51173296D01*
X78889189Y-51311303D01*
X78918331Y-51457811D01*
X78922000Y-51532500D01*
X78922000Y-52532500D01*
X78918331Y-52607189D01*
X78889189Y-52753697D01*
X78832024Y-52891704D01*
X78749034Y-53015908D01*
X78643408Y-53121534D01*
X78519204Y-53204524D01*
X78381197Y-53261689D01*
X78234689Y-53290831D01*
X78085311Y-53290831D01*
X77938803Y-53261689D01*
X77800796Y-53204524D01*
X77676592Y-53121534D01*
X77570966Y-53015908D01*
X77487976Y-52891704D01*
X77430811Y-52753697D01*
X77401669Y-52607189D01*
X77398000Y-52532500D01*
X77398000Y-51532500D01*
X77401669Y-51457811D01*
X77430811Y-51311303D01*
X77487976Y-51173296D01*
X77570966Y-51049092D01*
X77676592Y-50943466D01*
X77800796Y-50860476D01*
X77938803Y-50803311D01*
X78085311Y-50774169D01*
X78234689Y-50774169D01*
X78381197Y-50803311D01*
G37*
G36*
X96761197Y-50803311D02*
G01*
X96899204Y-50860476D01*
X97023408Y-50943466D01*
X97129034Y-51049092D01*
X97212024Y-51173296D01*
X97269189Y-51311303D01*
X97298331Y-51457811D01*
X97302000Y-51532500D01*
X97302000Y-52532500D01*
X97298331Y-52607189D01*
X97269189Y-52753697D01*
X97212024Y-52891704D01*
X97129034Y-53015908D01*
X97023408Y-53121534D01*
X96899204Y-53204524D01*
X96761197Y-53261689D01*
X96614689Y-53290831D01*
X96465311Y-53290831D01*
X96318803Y-53261689D01*
X96180796Y-53204524D01*
X96056592Y-53121534D01*
X95950966Y-53015908D01*
X95867976Y-52891704D01*
X95810811Y-52753697D01*
X95781669Y-52607189D01*
X95778000Y-52532500D01*
X95778000Y-51532500D01*
X95781669Y-51457811D01*
X95810811Y-51311303D01*
X95867976Y-51173296D01*
X95950966Y-51049092D01*
X96056592Y-50943466D01*
X96180796Y-50860476D01*
X96318803Y-50803311D01*
X96465311Y-50774169D01*
X96614689Y-50774169D01*
X96761197Y-50803311D01*
G37*
G36*
X99301197Y-50803311D02*
G01*
X99439204Y-50860476D01*
X99563408Y-50943466D01*
X99669034Y-51049092D01*
X99752024Y-51173296D01*
X99809189Y-51311303D01*
X99838331Y-51457811D01*
X99842000Y-51532500D01*
X99842000Y-52532500D01*
X99838331Y-52607189D01*
X99809189Y-52753697D01*
X99752024Y-52891704D01*
X99669034Y-53015908D01*
X99563408Y-53121534D01*
X99439204Y-53204524D01*
X99301197Y-53261689D01*
X99154689Y-53290831D01*
X99005311Y-53290831D01*
X98858803Y-53261689D01*
X98720796Y-53204524D01*
X98596592Y-53121534D01*
X98490966Y-53015908D01*
X98407976Y-52891704D01*
X98350811Y-52753697D01*
X98321669Y-52607189D01*
X98318000Y-52532500D01*
X98318000Y-51532500D01*
X98321669Y-51457811D01*
X98350811Y-51311303D01*
X98407976Y-51173296D01*
X98490966Y-51049092D01*
X98596592Y-50943466D01*
X98720796Y-50860476D01*
X98858803Y-50803311D01*
X99005311Y-50774169D01*
X99154689Y-50774169D01*
X99301197Y-50803311D01*
G37*
G36*
X101841197Y-50803311D02*
G01*
X101979204Y-50860476D01*
X102103408Y-50943466D01*
X102209034Y-51049092D01*
X102292024Y-51173296D01*
X102349189Y-51311303D01*
X102378331Y-51457811D01*
X102382000Y-51532500D01*
X102382000Y-52532500D01*
X102378331Y-52607189D01*
X102349189Y-52753697D01*
X102292024Y-52891704D01*
X102209034Y-53015908D01*
X102103408Y-53121534D01*
X101979204Y-53204524D01*
X101841197Y-53261689D01*
X101694689Y-53290831D01*
X101545311Y-53290831D01*
X101398803Y-53261689D01*
X101260796Y-53204524D01*
X101136592Y-53121534D01*
X101030966Y-53015908D01*
X100947976Y-52891704D01*
X100890811Y-52753697D01*
X100861669Y-52607189D01*
X100858000Y-52532500D01*
X100858000Y-51532500D01*
X100861669Y-51457811D01*
X100890811Y-51311303D01*
X100947976Y-51173296D01*
X101030966Y-51049092D01*
X101136592Y-50943466D01*
X101260796Y-50860476D01*
X101398803Y-50803311D01*
X101545311Y-50774169D01*
X101694689Y-50774169D01*
X101841197Y-50803311D01*
G37*
G36*
X104381197Y-50803311D02*
G01*
X104519204Y-50860476D01*
X104643408Y-50943466D01*
X104749034Y-51049092D01*
X104832024Y-51173296D01*
X104889189Y-51311303D01*
X104918331Y-51457811D01*
X104922000Y-51532500D01*
X104922000Y-52532500D01*
X104918331Y-52607189D01*
X104889189Y-52753697D01*
X104832024Y-52891704D01*
X104749034Y-53015908D01*
X104643408Y-53121534D01*
X104519204Y-53204524D01*
X104381197Y-53261689D01*
X104234689Y-53290831D01*
X104085311Y-53290831D01*
X103938803Y-53261689D01*
X103800796Y-53204524D01*
X103676592Y-53121534D01*
X103570966Y-53015908D01*
X103487976Y-52891704D01*
X103430811Y-52753697D01*
X103401669Y-52607189D01*
X103398000Y-52532500D01*
X103398000Y-51532500D01*
X103401669Y-51457811D01*
X103430811Y-51311303D01*
X103487976Y-51173296D01*
X103570966Y-51049092D01*
X103676592Y-50943466D01*
X103800796Y-50860476D01*
X103938803Y-50803311D01*
X104085311Y-50774169D01*
X104234689Y-50774169D01*
X104381197Y-50803311D01*
G37*
G36*
X17246742Y-50759101D02*
G01*
X17400687Y-50822867D01*
X17539234Y-50915441D01*
X17657059Y-51033266D01*
X17749633Y-51171813D01*
X17813399Y-51325758D01*
X17845907Y-51489185D01*
X17845907Y-51655815D01*
X17813399Y-51819242D01*
X17749633Y-51973187D01*
X17657059Y-52111734D01*
X17539234Y-52229559D01*
X17400687Y-52322133D01*
X17246742Y-52385899D01*
X17083315Y-52418407D01*
X16916685Y-52418407D01*
X16753258Y-52385899D01*
X16599313Y-52322133D01*
X16460766Y-52229559D01*
X16342941Y-52111734D01*
X16250367Y-51973187D01*
X16186601Y-51819242D01*
X16154093Y-51655815D01*
X16154093Y-51489185D01*
X16186601Y-51325758D01*
X16250367Y-51171813D01*
X16342941Y-51033266D01*
X16460766Y-50915441D01*
X16599313Y-50822867D01*
X16753258Y-50759101D01*
X16916685Y-50726593D01*
X17083315Y-50726593D01*
X17246742Y-50759101D01*
G37*
G36*
X17246742Y-48219101D02*
G01*
X17400687Y-48282867D01*
X17539234Y-48375441D01*
X17657059Y-48493266D01*
X17749633Y-48631813D01*
X17813399Y-48785758D01*
X17845907Y-48949185D01*
X17845907Y-49115815D01*
X17813399Y-49279242D01*
X17749633Y-49433187D01*
X17657059Y-49571734D01*
X17539234Y-49689559D01*
X17400687Y-49782133D01*
X17246742Y-49845899D01*
X17083315Y-49878407D01*
X16916685Y-49878407D01*
X16753258Y-49845899D01*
X16599313Y-49782133D01*
X16460766Y-49689559D01*
X16342941Y-49571734D01*
X16250367Y-49433187D01*
X16186601Y-49279242D01*
X16154093Y-49115815D01*
X16154093Y-48949185D01*
X16186601Y-48785758D01*
X16250367Y-48631813D01*
X16342941Y-48493266D01*
X16460766Y-48375441D01*
X16599313Y-48282867D01*
X16753258Y-48219101D01*
X16916685Y-48186593D01*
X17083315Y-48186593D01*
X17246742Y-48219101D01*
G37*
G36*
X17246742Y-45679101D02*
G01*
X17400687Y-45742867D01*
X17539234Y-45835441D01*
X17657059Y-45953266D01*
X17749633Y-46091813D01*
X17813399Y-46245758D01*
X17845907Y-46409185D01*
X17845907Y-46575815D01*
X17813399Y-46739242D01*
X17749633Y-46893187D01*
X17657059Y-47031734D01*
X17539234Y-47149559D01*
X17400687Y-47242133D01*
X17246742Y-47305899D01*
X17083315Y-47338407D01*
X16916685Y-47338407D01*
X16753258Y-47305899D01*
X16599313Y-47242133D01*
X16460766Y-47149559D01*
X16342941Y-47031734D01*
X16250367Y-46893187D01*
X16186601Y-46739242D01*
X16154093Y-46575815D01*
X16154093Y-46409185D01*
X16186601Y-46245758D01*
X16250367Y-46091813D01*
X16342941Y-45953266D01*
X16460766Y-45835441D01*
X16599313Y-45742867D01*
X16753258Y-45679101D01*
X16916685Y-45646593D01*
X17083315Y-45646593D01*
X17246742Y-45679101D01*
G37*
G36*
X17246742Y-43139101D02*
G01*
X17400687Y-43202867D01*
X17539234Y-43295441D01*
X17657059Y-43413266D01*
X17749633Y-43551813D01*
X17813399Y-43705758D01*
X17845907Y-43869185D01*
X17845907Y-44035815D01*
X17813399Y-44199242D01*
X17749633Y-44353187D01*
X17657059Y-44491734D01*
X17539234Y-44609559D01*
X17400687Y-44702133D01*
X17246742Y-44765899D01*
X17083315Y-44798407D01*
X16916685Y-44798407D01*
X16753258Y-44765899D01*
X16599313Y-44702133D01*
X16460766Y-44609559D01*
X16342941Y-44491734D01*
X16250367Y-44353187D01*
X16186601Y-44199242D01*
X16154093Y-44035815D01*
X16154093Y-43869185D01*
X16186601Y-43705758D01*
X16250367Y-43551813D01*
X16342941Y-43413266D01*
X16460766Y-43295441D01*
X16599313Y-43202867D01*
X16753258Y-43139101D01*
X16916685Y-43106593D01*
X17083315Y-43106593D01*
X17246742Y-43139101D01*
G37*
G36*
X17246742Y-40599101D02*
G01*
X17400687Y-40662867D01*
X17539234Y-40755441D01*
X17657059Y-40873266D01*
X17749633Y-41011813D01*
X17813399Y-41165758D01*
X17845907Y-41329185D01*
X17845907Y-41495815D01*
X17813399Y-41659242D01*
X17749633Y-41813187D01*
X17657059Y-41951734D01*
X17539234Y-42069559D01*
X17400687Y-42162133D01*
X17246742Y-42225899D01*
X17083315Y-42258407D01*
X16916685Y-42258407D01*
X16753258Y-42225899D01*
X16599313Y-42162133D01*
X16460766Y-42069559D01*
X16342941Y-41951734D01*
X16250367Y-41813187D01*
X16186601Y-41659242D01*
X16154093Y-41495815D01*
X16154093Y-41329185D01*
X16186601Y-41165758D01*
X16250367Y-41011813D01*
X16342941Y-40873266D01*
X16460766Y-40755441D01*
X16599313Y-40662867D01*
X16753258Y-40599101D01*
X16916685Y-40566593D01*
X17083315Y-40566593D01*
X17246742Y-40599101D01*
G37*
G36*
X17246742Y-38059101D02*
G01*
X17400687Y-38122867D01*
X17539234Y-38215441D01*
X17657059Y-38333266D01*
X17749633Y-38471813D01*
X17813399Y-38625758D01*
X17845907Y-38789185D01*
X17845907Y-38955815D01*
X17813399Y-39119242D01*
X17749633Y-39273187D01*
X17657059Y-39411734D01*
X17539234Y-39529559D01*
X17400687Y-39622133D01*
X17246742Y-39685899D01*
X17083315Y-39718407D01*
X16916685Y-39718407D01*
X16753258Y-39685899D01*
X16599313Y-39622133D01*
X16460766Y-39529559D01*
X16342941Y-39411734D01*
X16250367Y-39273187D01*
X16186601Y-39119242D01*
X16154093Y-38955815D01*
X16154093Y-38789185D01*
X16186601Y-38625758D01*
X16250367Y-38471813D01*
X16342941Y-38333266D01*
X16460766Y-38215441D01*
X16599313Y-38122867D01*
X16753258Y-38059101D01*
X16916685Y-38026593D01*
X17083315Y-38026593D01*
X17246742Y-38059101D01*
G37*
G36*
X120221197Y-35578311D02*
G01*
X120359204Y-35635476D01*
X120483408Y-35718466D01*
X120589034Y-35824092D01*
X120672024Y-35948296D01*
X120729189Y-36086303D01*
X120758331Y-36232811D01*
X120762000Y-36307500D01*
X120762000Y-37307500D01*
X120758331Y-37382189D01*
X120729189Y-37528697D01*
X120672024Y-37666704D01*
X120589034Y-37790908D01*
X120483408Y-37896534D01*
X120359204Y-37979524D01*
X120221197Y-38036689D01*
X120074689Y-38065831D01*
X119925311Y-38065831D01*
X119778803Y-38036689D01*
X119640796Y-37979524D01*
X119516592Y-37896534D01*
X119410966Y-37790908D01*
X119327976Y-37666704D01*
X119270811Y-37528697D01*
X119241669Y-37382189D01*
X119238000Y-37307500D01*
X119238000Y-36307500D01*
X119241669Y-36232811D01*
X119270811Y-36086303D01*
X119327976Y-35948296D01*
X119410966Y-35824092D01*
X119516592Y-35718466D01*
X119640796Y-35635476D01*
X119778803Y-35578311D01*
X119925311Y-35549169D01*
X120074689Y-35549169D01*
X120221197Y-35578311D01*
G37*
G36*
X122761197Y-35578311D02*
G01*
X122899204Y-35635476D01*
X123023408Y-35718466D01*
X123129034Y-35824092D01*
X123212024Y-35948296D01*
X123269189Y-36086303D01*
X123298331Y-36232811D01*
X123302000Y-36307500D01*
X123302000Y-37307500D01*
X123298331Y-37382189D01*
X123269189Y-37528697D01*
X123212024Y-37666704D01*
X123129034Y-37790908D01*
X123023408Y-37896534D01*
X122899204Y-37979524D01*
X122761197Y-38036689D01*
X122614689Y-38065831D01*
X122465311Y-38065831D01*
X122318803Y-38036689D01*
X122180796Y-37979524D01*
X122056592Y-37896534D01*
X121950966Y-37790908D01*
X121867976Y-37666704D01*
X121810811Y-37528697D01*
X121781669Y-37382189D01*
X121778000Y-37307500D01*
X121778000Y-36307500D01*
X121781669Y-36232811D01*
X121810811Y-36086303D01*
X121867976Y-35948296D01*
X121950966Y-35824092D01*
X122056592Y-35718466D01*
X122180796Y-35635476D01*
X122318803Y-35578311D01*
X122465311Y-35549169D01*
X122614689Y-35549169D01*
X122761197Y-35578311D01*
G37*
G36*
X125301197Y-35578311D02*
G01*
X125439204Y-35635476D01*
X125563408Y-35718466D01*
X125669034Y-35824092D01*
X125752024Y-35948296D01*
X125809189Y-36086303D01*
X125838331Y-36232811D01*
X125842000Y-36307500D01*
X125842000Y-37307500D01*
X125838331Y-37382189D01*
X125809189Y-37528697D01*
X125752024Y-37666704D01*
X125669034Y-37790908D01*
X125563408Y-37896534D01*
X125439204Y-37979524D01*
X125301197Y-38036689D01*
X125154689Y-38065831D01*
X125005311Y-38065831D01*
X124858803Y-38036689D01*
X124720796Y-37979524D01*
X124596592Y-37896534D01*
X124490966Y-37790908D01*
X124407976Y-37666704D01*
X124350811Y-37528697D01*
X124321669Y-37382189D01*
X124318000Y-37307500D01*
X124318000Y-36307500D01*
X124321669Y-36232811D01*
X124350811Y-36086303D01*
X124407976Y-35948296D01*
X124490966Y-35824092D01*
X124596592Y-35718466D01*
X124720796Y-35635476D01*
X124858803Y-35578311D01*
X125005311Y-35549169D01*
X125154689Y-35549169D01*
X125301197Y-35578311D01*
G37*
G36*
X127841197Y-35578311D02*
G01*
X127979204Y-35635476D01*
X128103408Y-35718466D01*
X128209034Y-35824092D01*
X128292024Y-35948296D01*
X128349189Y-36086303D01*
X128378331Y-36232811D01*
X128382000Y-36307500D01*
X128382000Y-37307500D01*
X128378331Y-37382189D01*
X128349189Y-37528697D01*
X128292024Y-37666704D01*
X128209034Y-37790908D01*
X128103408Y-37896534D01*
X127979204Y-37979524D01*
X127841197Y-38036689D01*
X127694689Y-38065831D01*
X127545311Y-38065831D01*
X127398803Y-38036689D01*
X127260796Y-37979524D01*
X127136592Y-37896534D01*
X127030966Y-37790908D01*
X126947976Y-37666704D01*
X126890811Y-37528697D01*
X126861669Y-37382189D01*
X126858000Y-37307500D01*
X126858000Y-36307500D01*
X126861669Y-36232811D01*
X126890811Y-36086303D01*
X126947976Y-35948296D01*
X127030966Y-35824092D01*
X127136592Y-35718466D01*
X127260796Y-35635476D01*
X127398803Y-35578311D01*
X127545311Y-35549169D01*
X127694689Y-35549169D01*
X127841197Y-35578311D01*
G37*
G36*
X130381197Y-35578311D02*
G01*
X130519204Y-35635476D01*
X130643408Y-35718466D01*
X130749034Y-35824092D01*
X130832024Y-35948296D01*
X130889189Y-36086303D01*
X130918331Y-36232811D01*
X130922000Y-36307500D01*
X130922000Y-37307500D01*
X130918331Y-37382189D01*
X130889189Y-37528697D01*
X130832024Y-37666704D01*
X130749034Y-37790908D01*
X130643408Y-37896534D01*
X130519204Y-37979524D01*
X130381197Y-38036689D01*
X130234689Y-38065831D01*
X130085311Y-38065831D01*
X129938803Y-38036689D01*
X129800796Y-37979524D01*
X129676592Y-37896534D01*
X129570966Y-37790908D01*
X129487976Y-37666704D01*
X129430811Y-37528697D01*
X129401669Y-37382189D01*
X129398000Y-37307500D01*
X129398000Y-36307500D01*
X129401669Y-36232811D01*
X129430811Y-36086303D01*
X129487976Y-35948296D01*
X129570966Y-35824092D01*
X129676592Y-35718466D01*
X129800796Y-35635476D01*
X129938803Y-35578311D01*
X130085311Y-35549169D01*
X130234689Y-35549169D01*
X130381197Y-35578311D01*
G37*
G36*
X42061197Y-35563311D02*
G01*
X42199204Y-35620476D01*
X42323408Y-35703466D01*
X42429034Y-35809092D01*
X42512024Y-35933296D01*
X42569189Y-36071303D01*
X42598331Y-36217811D01*
X42602000Y-36292500D01*
X42602000Y-37292500D01*
X42598331Y-37367189D01*
X42569189Y-37513697D01*
X42512024Y-37651704D01*
X42429034Y-37775908D01*
X42323408Y-37881534D01*
X42199204Y-37964524D01*
X42061197Y-38021689D01*
X41914689Y-38050831D01*
X41765311Y-38050831D01*
X41618803Y-38021689D01*
X41480796Y-37964524D01*
X41356592Y-37881534D01*
X41250966Y-37775908D01*
X41167976Y-37651704D01*
X41110811Y-37513697D01*
X41081669Y-37367189D01*
X41078000Y-37292500D01*
X41078000Y-36292500D01*
X41081669Y-36217811D01*
X41110811Y-36071303D01*
X41167976Y-35933296D01*
X41250966Y-35809092D01*
X41356592Y-35703466D01*
X41480796Y-35620476D01*
X41618803Y-35563311D01*
X41765311Y-35534169D01*
X41914689Y-35534169D01*
X42061197Y-35563311D01*
G37*
G36*
X44601197Y-35563311D02*
G01*
X44739204Y-35620476D01*
X44863408Y-35703466D01*
X44969034Y-35809092D01*
X45052024Y-35933296D01*
X45109189Y-36071303D01*
X45138331Y-36217811D01*
X45142000Y-36292500D01*
X45142000Y-37292500D01*
X45138331Y-37367189D01*
X45109189Y-37513697D01*
X45052024Y-37651704D01*
X44969034Y-37775908D01*
X44863408Y-37881534D01*
X44739204Y-37964524D01*
X44601197Y-38021689D01*
X44454689Y-38050831D01*
X44305311Y-38050831D01*
X44158803Y-38021689D01*
X44020796Y-37964524D01*
X43896592Y-37881534D01*
X43790966Y-37775908D01*
X43707976Y-37651704D01*
X43650811Y-37513697D01*
X43621669Y-37367189D01*
X43618000Y-37292500D01*
X43618000Y-36292500D01*
X43621669Y-36217811D01*
X43650811Y-36071303D01*
X43707976Y-35933296D01*
X43790966Y-35809092D01*
X43896592Y-35703466D01*
X44020796Y-35620476D01*
X44158803Y-35563311D01*
X44305311Y-35534169D01*
X44454689Y-35534169D01*
X44601197Y-35563311D01*
G37*
G36*
X47141197Y-35563311D02*
G01*
X47279204Y-35620476D01*
X47403408Y-35703466D01*
X47509034Y-35809092D01*
X47592024Y-35933296D01*
X47649189Y-36071303D01*
X47678331Y-36217811D01*
X47682000Y-36292500D01*
X47682000Y-37292500D01*
X47678331Y-37367189D01*
X47649189Y-37513697D01*
X47592024Y-37651704D01*
X47509034Y-37775908D01*
X47403408Y-37881534D01*
X47279204Y-37964524D01*
X47141197Y-38021689D01*
X46994689Y-38050831D01*
X46845311Y-38050831D01*
X46698803Y-38021689D01*
X46560796Y-37964524D01*
X46436592Y-37881534D01*
X46330966Y-37775908D01*
X46247976Y-37651704D01*
X46190811Y-37513697D01*
X46161669Y-37367189D01*
X46158000Y-37292500D01*
X46158000Y-36292500D01*
X46161669Y-36217811D01*
X46190811Y-36071303D01*
X46247976Y-35933296D01*
X46330966Y-35809092D01*
X46436592Y-35703466D01*
X46560796Y-35620476D01*
X46698803Y-35563311D01*
X46845311Y-35534169D01*
X46994689Y-35534169D01*
X47141197Y-35563311D01*
G37*
G36*
X49681197Y-35563311D02*
G01*
X49819204Y-35620476D01*
X49943408Y-35703466D01*
X50049034Y-35809092D01*
X50132024Y-35933296D01*
X50189189Y-36071303D01*
X50218331Y-36217811D01*
X50222000Y-36292500D01*
X50222000Y-37292500D01*
X50218331Y-37367189D01*
X50189189Y-37513697D01*
X50132024Y-37651704D01*
X50049034Y-37775908D01*
X49943408Y-37881534D01*
X49819204Y-37964524D01*
X49681197Y-38021689D01*
X49534689Y-38050831D01*
X49385311Y-38050831D01*
X49238803Y-38021689D01*
X49100796Y-37964524D01*
X48976592Y-37881534D01*
X48870966Y-37775908D01*
X48787976Y-37651704D01*
X48730811Y-37513697D01*
X48701669Y-37367189D01*
X48698000Y-37292500D01*
X48698000Y-36292500D01*
X48701669Y-36217811D01*
X48730811Y-36071303D01*
X48787976Y-35933296D01*
X48870966Y-35809092D01*
X48976592Y-35703466D01*
X49100796Y-35620476D01*
X49238803Y-35563311D01*
X49385311Y-35534169D01*
X49534689Y-35534169D01*
X49681197Y-35563311D01*
G37*
G36*
X52221197Y-35563311D02*
G01*
X52359204Y-35620476D01*
X52483408Y-35703466D01*
X52589034Y-35809092D01*
X52672024Y-35933296D01*
X52729189Y-36071303D01*
X52758331Y-36217811D01*
X52762000Y-36292500D01*
X52762000Y-37292500D01*
X52758331Y-37367189D01*
X52729189Y-37513697D01*
X52672024Y-37651704D01*
X52589034Y-37775908D01*
X52483408Y-37881534D01*
X52359204Y-37964524D01*
X52221197Y-38021689D01*
X52074689Y-38050831D01*
X51925311Y-38050831D01*
X51778803Y-38021689D01*
X51640796Y-37964524D01*
X51516592Y-37881534D01*
X51410966Y-37775908D01*
X51327976Y-37651704D01*
X51270811Y-37513697D01*
X51241669Y-37367189D01*
X51238000Y-37292500D01*
X51238000Y-36292500D01*
X51241669Y-36217811D01*
X51270811Y-36071303D01*
X51327976Y-35933296D01*
X51410966Y-35809092D01*
X51516592Y-35703466D01*
X51640796Y-35620476D01*
X51778803Y-35563311D01*
X51925311Y-35534169D01*
X52074689Y-35534169D01*
X52221197Y-35563311D01*
G37*
G36*
X68221197Y-35563311D02*
G01*
X68359204Y-35620476D01*
X68483408Y-35703466D01*
X68589034Y-35809092D01*
X68672024Y-35933296D01*
X68729189Y-36071303D01*
X68758331Y-36217811D01*
X68762000Y-36292500D01*
X68762000Y-37292500D01*
X68758331Y-37367189D01*
X68729189Y-37513697D01*
X68672024Y-37651704D01*
X68589034Y-37775908D01*
X68483408Y-37881534D01*
X68359204Y-37964524D01*
X68221197Y-38021689D01*
X68074689Y-38050831D01*
X67925311Y-38050831D01*
X67778803Y-38021689D01*
X67640796Y-37964524D01*
X67516592Y-37881534D01*
X67410966Y-37775908D01*
X67327976Y-37651704D01*
X67270811Y-37513697D01*
X67241669Y-37367189D01*
X67238000Y-37292500D01*
X67238000Y-36292500D01*
X67241669Y-36217811D01*
X67270811Y-36071303D01*
X67327976Y-35933296D01*
X67410966Y-35809092D01*
X67516592Y-35703466D01*
X67640796Y-35620476D01*
X67778803Y-35563311D01*
X67925311Y-35534169D01*
X68074689Y-35534169D01*
X68221197Y-35563311D01*
G37*
G36*
X70761197Y-35563311D02*
G01*
X70899204Y-35620476D01*
X71023408Y-35703466D01*
X71129034Y-35809092D01*
X71212024Y-35933296D01*
X71269189Y-36071303D01*
X71298331Y-36217811D01*
X71302000Y-36292500D01*
X71302000Y-37292500D01*
X71298331Y-37367189D01*
X71269189Y-37513697D01*
X71212024Y-37651704D01*
X71129034Y-37775908D01*
X71023408Y-37881534D01*
X70899204Y-37964524D01*
X70761197Y-38021689D01*
X70614689Y-38050831D01*
X70465311Y-38050831D01*
X70318803Y-38021689D01*
X70180796Y-37964524D01*
X70056592Y-37881534D01*
X69950966Y-37775908D01*
X69867976Y-37651704D01*
X69810811Y-37513697D01*
X69781669Y-37367189D01*
X69778000Y-37292500D01*
X69778000Y-36292500D01*
X69781669Y-36217811D01*
X69810811Y-36071303D01*
X69867976Y-35933296D01*
X69950966Y-35809092D01*
X70056592Y-35703466D01*
X70180796Y-35620476D01*
X70318803Y-35563311D01*
X70465311Y-35534169D01*
X70614689Y-35534169D01*
X70761197Y-35563311D01*
G37*
G36*
X73301197Y-35563311D02*
G01*
X73439204Y-35620476D01*
X73563408Y-35703466D01*
X73669034Y-35809092D01*
X73752024Y-35933296D01*
X73809189Y-36071303D01*
X73838331Y-36217811D01*
X73842000Y-36292500D01*
X73842000Y-37292500D01*
X73838331Y-37367189D01*
X73809189Y-37513697D01*
X73752024Y-37651704D01*
X73669034Y-37775908D01*
X73563408Y-37881534D01*
X73439204Y-37964524D01*
X73301197Y-38021689D01*
X73154689Y-38050831D01*
X73005311Y-38050831D01*
X72858803Y-38021689D01*
X72720796Y-37964524D01*
X72596592Y-37881534D01*
X72490966Y-37775908D01*
X72407976Y-37651704D01*
X72350811Y-37513697D01*
X72321669Y-37367189D01*
X72318000Y-37292500D01*
X72318000Y-36292500D01*
X72321669Y-36217811D01*
X72350811Y-36071303D01*
X72407976Y-35933296D01*
X72490966Y-35809092D01*
X72596592Y-35703466D01*
X72720796Y-35620476D01*
X72858803Y-35563311D01*
X73005311Y-35534169D01*
X73154689Y-35534169D01*
X73301197Y-35563311D01*
G37*
G36*
X75841197Y-35563311D02*
G01*
X75979204Y-35620476D01*
X76103408Y-35703466D01*
X76209034Y-35809092D01*
X76292024Y-35933296D01*
X76349189Y-36071303D01*
X76378331Y-36217811D01*
X76382000Y-36292500D01*
X76382000Y-37292500D01*
X76378331Y-37367189D01*
X76349189Y-37513697D01*
X76292024Y-37651704D01*
X76209034Y-37775908D01*
X76103408Y-37881534D01*
X75979204Y-37964524D01*
X75841197Y-38021689D01*
X75694689Y-38050831D01*
X75545311Y-38050831D01*
X75398803Y-38021689D01*
X75260796Y-37964524D01*
X75136592Y-37881534D01*
X75030966Y-37775908D01*
X74947976Y-37651704D01*
X74890811Y-37513697D01*
X74861669Y-37367189D01*
X74858000Y-37292500D01*
X74858000Y-36292500D01*
X74861669Y-36217811D01*
X74890811Y-36071303D01*
X74947976Y-35933296D01*
X75030966Y-35809092D01*
X75136592Y-35703466D01*
X75260796Y-35620476D01*
X75398803Y-35563311D01*
X75545311Y-35534169D01*
X75694689Y-35534169D01*
X75841197Y-35563311D01*
G37*
G36*
X78381197Y-35563311D02*
G01*
X78519204Y-35620476D01*
X78643408Y-35703466D01*
X78749034Y-35809092D01*
X78832024Y-35933296D01*
X78889189Y-36071303D01*
X78918331Y-36217811D01*
X78922000Y-36292500D01*
X78922000Y-37292500D01*
X78918331Y-37367189D01*
X78889189Y-37513697D01*
X78832024Y-37651704D01*
X78749034Y-37775908D01*
X78643408Y-37881534D01*
X78519204Y-37964524D01*
X78381197Y-38021689D01*
X78234689Y-38050831D01*
X78085311Y-38050831D01*
X77938803Y-38021689D01*
X77800796Y-37964524D01*
X77676592Y-37881534D01*
X77570966Y-37775908D01*
X77487976Y-37651704D01*
X77430811Y-37513697D01*
X77401669Y-37367189D01*
X77398000Y-37292500D01*
X77398000Y-36292500D01*
X77401669Y-36217811D01*
X77430811Y-36071303D01*
X77487976Y-35933296D01*
X77570966Y-35809092D01*
X77676592Y-35703466D01*
X77800796Y-35620476D01*
X77938803Y-35563311D01*
X78085311Y-35534169D01*
X78234689Y-35534169D01*
X78381197Y-35563311D01*
G37*
G36*
X94221197Y-35563311D02*
G01*
X94359204Y-35620476D01*
X94483408Y-35703466D01*
X94589034Y-35809092D01*
X94672024Y-35933296D01*
X94729189Y-36071303D01*
X94758331Y-36217811D01*
X94762000Y-36292500D01*
X94762000Y-37292500D01*
X94758331Y-37367189D01*
X94729189Y-37513697D01*
X94672024Y-37651704D01*
X94589034Y-37775908D01*
X94483408Y-37881534D01*
X94359204Y-37964524D01*
X94221197Y-38021689D01*
X94074689Y-38050831D01*
X93925311Y-38050831D01*
X93778803Y-38021689D01*
X93640796Y-37964524D01*
X93516592Y-37881534D01*
X93410966Y-37775908D01*
X93327976Y-37651704D01*
X93270811Y-37513697D01*
X93241669Y-37367189D01*
X93238000Y-37292500D01*
X93238000Y-36292500D01*
X93241669Y-36217811D01*
X93270811Y-36071303D01*
X93327976Y-35933296D01*
X93410966Y-35809092D01*
X93516592Y-35703466D01*
X93640796Y-35620476D01*
X93778803Y-35563311D01*
X93925311Y-35534169D01*
X94074689Y-35534169D01*
X94221197Y-35563311D01*
G37*
G36*
X96761197Y-35563311D02*
G01*
X96899204Y-35620476D01*
X97023408Y-35703466D01*
X97129034Y-35809092D01*
X97212024Y-35933296D01*
X97269189Y-36071303D01*
X97298331Y-36217811D01*
X97302000Y-36292500D01*
X97302000Y-37292500D01*
X97298331Y-37367189D01*
X97269189Y-37513697D01*
X97212024Y-37651704D01*
X97129034Y-37775908D01*
X97023408Y-37881534D01*
X96899204Y-37964524D01*
X96761197Y-38021689D01*
X96614689Y-38050831D01*
X96465311Y-38050831D01*
X96318803Y-38021689D01*
X96180796Y-37964524D01*
X96056592Y-37881534D01*
X95950966Y-37775908D01*
X95867976Y-37651704D01*
X95810811Y-37513697D01*
X95781669Y-37367189D01*
X95778000Y-37292500D01*
X95778000Y-36292500D01*
X95781669Y-36217811D01*
X95810811Y-36071303D01*
X95867976Y-35933296D01*
X95950966Y-35809092D01*
X96056592Y-35703466D01*
X96180796Y-35620476D01*
X96318803Y-35563311D01*
X96465311Y-35534169D01*
X96614689Y-35534169D01*
X96761197Y-35563311D01*
G37*
G36*
X99301197Y-35563311D02*
G01*
X99439204Y-35620476D01*
X99563408Y-35703466D01*
X99669034Y-35809092D01*
X99752024Y-35933296D01*
X99809189Y-36071303D01*
X99838331Y-36217811D01*
X99842000Y-36292500D01*
X99842000Y-37292500D01*
X99838331Y-37367189D01*
X99809189Y-37513697D01*
X99752024Y-37651704D01*
X99669034Y-37775908D01*
X99563408Y-37881534D01*
X99439204Y-37964524D01*
X99301197Y-38021689D01*
X99154689Y-38050831D01*
X99005311Y-38050831D01*
X98858803Y-38021689D01*
X98720796Y-37964524D01*
X98596592Y-37881534D01*
X98490966Y-37775908D01*
X98407976Y-37651704D01*
X98350811Y-37513697D01*
X98321669Y-37367189D01*
X98318000Y-37292500D01*
X98318000Y-36292500D01*
X98321669Y-36217811D01*
X98350811Y-36071303D01*
X98407976Y-35933296D01*
X98490966Y-35809092D01*
X98596592Y-35703466D01*
X98720796Y-35620476D01*
X98858803Y-35563311D01*
X99005311Y-35534169D01*
X99154689Y-35534169D01*
X99301197Y-35563311D01*
G37*
G36*
X101841197Y-35563311D02*
G01*
X101979204Y-35620476D01*
X102103408Y-35703466D01*
X102209034Y-35809092D01*
X102292024Y-35933296D01*
X102349189Y-36071303D01*
X102378331Y-36217811D01*
X102382000Y-36292500D01*
X102382000Y-37292500D01*
X102378331Y-37367189D01*
X102349189Y-37513697D01*
X102292024Y-37651704D01*
X102209034Y-37775908D01*
X102103408Y-37881534D01*
X101979204Y-37964524D01*
X101841197Y-38021689D01*
X101694689Y-38050831D01*
X101545311Y-38050831D01*
X101398803Y-38021689D01*
X101260796Y-37964524D01*
X101136592Y-37881534D01*
X101030966Y-37775908D01*
X100947976Y-37651704D01*
X100890811Y-37513697D01*
X100861669Y-37367189D01*
X100858000Y-37292500D01*
X100858000Y-36292500D01*
X100861669Y-36217811D01*
X100890811Y-36071303D01*
X100947976Y-35933296D01*
X101030966Y-35809092D01*
X101136592Y-35703466D01*
X101260796Y-35620476D01*
X101398803Y-35563311D01*
X101545311Y-35534169D01*
X101694689Y-35534169D01*
X101841197Y-35563311D01*
G37*
G36*
X104381197Y-35563311D02*
G01*
X104519204Y-35620476D01*
X104643408Y-35703466D01*
X104749034Y-35809092D01*
X104832024Y-35933296D01*
X104889189Y-36071303D01*
X104918331Y-36217811D01*
X104922000Y-36292500D01*
X104922000Y-37292500D01*
X104918331Y-37367189D01*
X104889189Y-37513697D01*
X104832024Y-37651704D01*
X104749034Y-37775908D01*
X104643408Y-37881534D01*
X104519204Y-37964524D01*
X104381197Y-38021689D01*
X104234689Y-38050831D01*
X104085311Y-38050831D01*
X103938803Y-38021689D01*
X103800796Y-37964524D01*
X103676592Y-37881534D01*
X103570966Y-37775908D01*
X103487976Y-37651704D01*
X103430811Y-37513697D01*
X103401669Y-37367189D01*
X103398000Y-37292500D01*
X103398000Y-36292500D01*
X103401669Y-36217811D01*
X103430811Y-36071303D01*
X103487976Y-35933296D01*
X103570966Y-35809092D01*
X103676592Y-35703466D01*
X103800796Y-35620476D01*
X103938803Y-35563311D01*
X104085311Y-35534169D01*
X104234689Y-35534169D01*
X104381197Y-35563311D01*
G37*
G36*
X17246742Y-35519101D02*
G01*
X17400687Y-35582867D01*
X17539234Y-35675441D01*
X17657059Y-35793266D01*
X17749633Y-35931813D01*
X17813399Y-36085758D01*
X17845907Y-36249185D01*
X17845907Y-36415815D01*
X17813399Y-36579242D01*
X17749633Y-36733187D01*
X17657059Y-36871734D01*
X17539234Y-36989559D01*
X17400687Y-37082133D01*
X17246742Y-37145899D01*
X17083315Y-37178407D01*
X16916685Y-37178407D01*
X16753258Y-37145899D01*
X16599313Y-37082133D01*
X16460766Y-36989559D01*
X16342941Y-36871734D01*
X16250367Y-36733187D01*
X16186601Y-36579242D01*
X16154093Y-36415815D01*
X16154093Y-36249185D01*
X16186601Y-36085758D01*
X16250367Y-35931813D01*
X16342941Y-35793266D01*
X16460766Y-35675441D01*
X16599313Y-35582867D01*
X16753258Y-35519101D01*
X16916685Y-35486593D01*
X17083315Y-35486593D01*
X17246742Y-35519101D01*
G37*
G36*
X17850000Y-34642500D02*
G01*
X16150000Y-34642500D01*
X16150000Y-32942500D01*
X17850000Y-32942500D01*
X17850000Y-34642500D01*
G37*
G36*
X24612228Y-32026948D02*
G01*
X24757117Y-32086963D01*
X24887515Y-32174092D01*
X24998408Y-32284985D01*
X25085537Y-32415383D01*
X25145552Y-32560272D01*
X25176148Y-32714086D01*
X25176148Y-32870914D01*
X25145552Y-33024728D01*
X25085537Y-33169617D01*
X24998408Y-33300015D01*
X24887515Y-33410908D01*
X24757117Y-33498037D01*
X24612228Y-33558052D01*
X24458414Y-33588648D01*
X24301586Y-33588648D01*
X24147772Y-33558052D01*
X24002883Y-33498037D01*
X23872485Y-33410908D01*
X23761592Y-33300015D01*
X23674463Y-33169617D01*
X23614448Y-33024728D01*
X23583852Y-32870914D01*
X23583852Y-32714086D01*
X23614448Y-32560272D01*
X23674463Y-32415383D01*
X23761592Y-32284985D01*
X23872485Y-32174092D01*
X24002883Y-32086963D01*
X24147772Y-32026948D01*
X24301586Y-31996352D01*
X24458414Y-31996352D01*
X24612228Y-32026948D01*
G37*
G36*
X32232228Y-32026948D02*
G01*
X32377117Y-32086963D01*
X32507515Y-32174092D01*
X32618408Y-32284985D01*
X32705537Y-32415383D01*
X32765552Y-32560272D01*
X32796148Y-32714086D01*
X32796148Y-32870914D01*
X32765552Y-33024728D01*
X32705537Y-33169617D01*
X32618408Y-33300015D01*
X32507515Y-33410908D01*
X32377117Y-33498037D01*
X32232228Y-33558052D01*
X32078414Y-33588648D01*
X31921586Y-33588648D01*
X31767772Y-33558052D01*
X31622883Y-33498037D01*
X31492485Y-33410908D01*
X31381592Y-33300015D01*
X31294463Y-33169617D01*
X31234448Y-33024728D01*
X31203852Y-32870914D01*
X31203852Y-32714086D01*
X31234448Y-32560272D01*
X31294463Y-32415383D01*
X31381592Y-32284985D01*
X31492485Y-32174092D01*
X31622883Y-32086963D01*
X31767772Y-32026948D01*
X31921586Y-31996352D01*
X32078414Y-31996352D01*
X32232228Y-32026948D01*
G37*
G36*
X35584850Y-29798464D02*
G01*
X35635040Y-29804287D01*
X35652189Y-29811859D01*
X35675671Y-29816530D01*
X35700810Y-29833327D01*
X35720696Y-29842108D01*
X35734277Y-29855689D01*
X35756777Y-29870723D01*
X35771810Y-29893222D01*
X35785391Y-29906803D01*
X35794170Y-29926686D01*
X35810970Y-29951829D01*
X35815641Y-29975312D01*
X35823212Y-29992459D01*
X35829033Y-30042639D01*
X35830000Y-30047500D01*
X35830000Y-31147500D01*
X35829032Y-31152363D01*
X35823212Y-31202540D01*
X35815641Y-31219685D01*
X35810970Y-31243171D01*
X35794169Y-31268315D01*
X35785391Y-31288196D01*
X35771812Y-31301774D01*
X35756777Y-31324277D01*
X35734274Y-31339312D01*
X35720696Y-31352891D01*
X35700815Y-31361669D01*
X35675671Y-31378470D01*
X35652185Y-31383141D01*
X35635040Y-31390712D01*
X35584861Y-31396532D01*
X35580000Y-31397500D01*
X34480000Y-31397500D01*
X34475138Y-31396532D01*
X34424959Y-31390712D01*
X34407812Y-31383141D01*
X34384329Y-31378470D01*
X34359186Y-31361670D01*
X34339303Y-31352891D01*
X34325722Y-31339310D01*
X34303223Y-31324277D01*
X34288189Y-31301777D01*
X34274608Y-31288196D01*
X34265827Y-31268310D01*
X34249030Y-31243171D01*
X34244359Y-31219689D01*
X34236787Y-31202540D01*
X34230964Y-31152349D01*
X34230000Y-31147500D01*
X34230000Y-30047500D01*
X34230964Y-30042650D01*
X34236787Y-29992459D01*
X34244359Y-29975308D01*
X34249030Y-29951829D01*
X34265826Y-29926691D01*
X34274608Y-29906803D01*
X34288191Y-29893219D01*
X34303223Y-29870723D01*
X34325719Y-29855691D01*
X34339303Y-29842108D01*
X34359191Y-29833326D01*
X34384329Y-29816530D01*
X34407808Y-29811859D01*
X34424959Y-29804287D01*
X34475151Y-29798464D01*
X34480000Y-29797500D01*
X35580000Y-29797500D01*
X35584850Y-29798464D01*
G37*
G36*
X37802228Y-29831948D02*
G01*
X37947117Y-29891963D01*
X38077515Y-29979092D01*
X38188408Y-30089985D01*
X38275537Y-30220383D01*
X38335552Y-30365272D01*
X38366148Y-30519086D01*
X38366148Y-30675914D01*
X38335552Y-30829728D01*
X38275537Y-30974617D01*
X38188408Y-31105015D01*
X38077515Y-31215908D01*
X37947117Y-31303037D01*
X37802228Y-31363052D01*
X37648414Y-31393648D01*
X37491586Y-31393648D01*
X37337772Y-31363052D01*
X37192883Y-31303037D01*
X37062485Y-31215908D01*
X36951592Y-31105015D01*
X36864463Y-30974617D01*
X36804448Y-30829728D01*
X36773852Y-30675914D01*
X36773852Y-30519086D01*
X36804448Y-30365272D01*
X36864463Y-30220383D01*
X36951592Y-30089985D01*
X37062485Y-29979092D01*
X37192883Y-29891963D01*
X37337772Y-29831948D01*
X37491586Y-29801352D01*
X37648414Y-29801352D01*
X37802228Y-29831948D01*
G37*
G36*
X40342228Y-29831948D02*
G01*
X40487117Y-29891963D01*
X40617515Y-29979092D01*
X40728408Y-30089985D01*
X40815537Y-30220383D01*
X40875552Y-30365272D01*
X40906148Y-30519086D01*
X40906148Y-30675914D01*
X40875552Y-30829728D01*
X40815537Y-30974617D01*
X40728408Y-31105015D01*
X40617515Y-31215908D01*
X40487117Y-31303037D01*
X40342228Y-31363052D01*
X40188414Y-31393648D01*
X40031586Y-31393648D01*
X39877772Y-31363052D01*
X39732883Y-31303037D01*
X39602485Y-31215908D01*
X39491592Y-31105015D01*
X39404463Y-30974617D01*
X39344448Y-30829728D01*
X39313852Y-30675914D01*
X39313852Y-30519086D01*
X39344448Y-30365272D01*
X39404463Y-30220383D01*
X39491592Y-30089985D01*
X39602485Y-29979092D01*
X39732883Y-29891963D01*
X39877772Y-29831948D01*
X40031586Y-29801352D01*
X40188414Y-29801352D01*
X40342228Y-29831948D01*
G37*
G36*
X42882228Y-29831948D02*
G01*
X43027117Y-29891963D01*
X43157515Y-29979092D01*
X43268408Y-30089985D01*
X43355537Y-30220383D01*
X43415552Y-30365272D01*
X43446148Y-30519086D01*
X43446148Y-30675914D01*
X43415552Y-30829728D01*
X43355537Y-30974617D01*
X43268408Y-31105015D01*
X43157515Y-31215908D01*
X43027117Y-31303037D01*
X42882228Y-31363052D01*
X42728414Y-31393648D01*
X42571586Y-31393648D01*
X42417772Y-31363052D01*
X42272883Y-31303037D01*
X42142485Y-31215908D01*
X42031592Y-31105015D01*
X41944463Y-30974617D01*
X41884448Y-30829728D01*
X41853852Y-30675914D01*
X41853852Y-30519086D01*
X41884448Y-30365272D01*
X41944463Y-30220383D01*
X42031592Y-30089985D01*
X42142485Y-29979092D01*
X42272883Y-29891963D01*
X42417772Y-29831948D01*
X42571586Y-29801352D01*
X42728414Y-29801352D01*
X42882228Y-29831948D01*
G37*
G36*
X45422228Y-29831948D02*
G01*
X45567117Y-29891963D01*
X45697515Y-29979092D01*
X45808408Y-30089985D01*
X45895537Y-30220383D01*
X45955552Y-30365272D01*
X45986148Y-30519086D01*
X45986148Y-30675914D01*
X45955552Y-30829728D01*
X45895537Y-30974617D01*
X45808408Y-31105015D01*
X45697515Y-31215908D01*
X45567117Y-31303037D01*
X45422228Y-31363052D01*
X45268414Y-31393648D01*
X45111586Y-31393648D01*
X44957772Y-31363052D01*
X44812883Y-31303037D01*
X44682485Y-31215908D01*
X44571592Y-31105015D01*
X44484463Y-30974617D01*
X44424448Y-30829728D01*
X44393852Y-30675914D01*
X44393852Y-30519086D01*
X44424448Y-30365272D01*
X44484463Y-30220383D01*
X44571592Y-30089985D01*
X44682485Y-29979092D01*
X44812883Y-29891963D01*
X44957772Y-29831948D01*
X45111586Y-29801352D01*
X45268414Y-29801352D01*
X45422228Y-29831948D01*
G37*
G36*
X47962228Y-29831948D02*
G01*
X48107117Y-29891963D01*
X48237515Y-29979092D01*
X48348408Y-30089985D01*
X48435537Y-30220383D01*
X48495552Y-30365272D01*
X48526148Y-30519086D01*
X48526148Y-30675914D01*
X48495552Y-30829728D01*
X48435537Y-30974617D01*
X48348408Y-31105015D01*
X48237515Y-31215908D01*
X48107117Y-31303037D01*
X47962228Y-31363052D01*
X47808414Y-31393648D01*
X47651586Y-31393648D01*
X47497772Y-31363052D01*
X47352883Y-31303037D01*
X47222485Y-31215908D01*
X47111592Y-31105015D01*
X47024463Y-30974617D01*
X46964448Y-30829728D01*
X46933852Y-30675914D01*
X46933852Y-30519086D01*
X46964448Y-30365272D01*
X47024463Y-30220383D01*
X47111592Y-30089985D01*
X47222485Y-29979092D01*
X47352883Y-29891963D01*
X47497772Y-29831948D01*
X47651586Y-29801352D01*
X47808414Y-29801352D01*
X47962228Y-29831948D01*
G37*
G36*
X50502228Y-29831948D02*
G01*
X50647117Y-29891963D01*
X50777515Y-29979092D01*
X50888408Y-30089985D01*
X50975537Y-30220383D01*
X51035552Y-30365272D01*
X51066148Y-30519086D01*
X51066148Y-30675914D01*
X51035552Y-30829728D01*
X50975537Y-30974617D01*
X50888408Y-31105015D01*
X50777515Y-31215908D01*
X50647117Y-31303037D01*
X50502228Y-31363052D01*
X50348414Y-31393648D01*
X50191586Y-31393648D01*
X50037772Y-31363052D01*
X49892883Y-31303037D01*
X49762485Y-31215908D01*
X49651592Y-31105015D01*
X49564463Y-30974617D01*
X49504448Y-30829728D01*
X49473852Y-30675914D01*
X49473852Y-30519086D01*
X49504448Y-30365272D01*
X49564463Y-30220383D01*
X49651592Y-30089985D01*
X49762485Y-29979092D01*
X49892883Y-29891963D01*
X50037772Y-29831948D01*
X50191586Y-29801352D01*
X50348414Y-29801352D01*
X50502228Y-29831948D01*
G37*
G36*
X53042228Y-29831948D02*
G01*
X53187117Y-29891963D01*
X53317515Y-29979092D01*
X53428408Y-30089985D01*
X53515537Y-30220383D01*
X53575552Y-30365272D01*
X53606148Y-30519086D01*
X53606148Y-30675914D01*
X53575552Y-30829728D01*
X53515537Y-30974617D01*
X53428408Y-31105015D01*
X53317515Y-31215908D01*
X53187117Y-31303037D01*
X53042228Y-31363052D01*
X52888414Y-31393648D01*
X52731586Y-31393648D01*
X52577772Y-31363052D01*
X52432883Y-31303037D01*
X52302485Y-31215908D01*
X52191592Y-31105015D01*
X52104463Y-30974617D01*
X52044448Y-30829728D01*
X52013852Y-30675914D01*
X52013852Y-30519086D01*
X52044448Y-30365272D01*
X52104463Y-30220383D01*
X52191592Y-30089985D01*
X52302485Y-29979092D01*
X52432883Y-29891963D01*
X52577772Y-29831948D01*
X52731586Y-29801352D01*
X52888414Y-29801352D01*
X53042228Y-29831948D01*
G37*
G36*
X55582228Y-29831948D02*
G01*
X55727117Y-29891963D01*
X55857515Y-29979092D01*
X55968408Y-30089985D01*
X56055537Y-30220383D01*
X56115552Y-30365272D01*
X56146148Y-30519086D01*
X56146148Y-30675914D01*
X56115552Y-30829728D01*
X56055537Y-30974617D01*
X55968408Y-31105015D01*
X55857515Y-31215908D01*
X55727117Y-31303037D01*
X55582228Y-31363052D01*
X55428414Y-31393648D01*
X55271586Y-31393648D01*
X55117772Y-31363052D01*
X54972883Y-31303037D01*
X54842485Y-31215908D01*
X54731592Y-31105015D01*
X54644463Y-30974617D01*
X54584448Y-30829728D01*
X54553852Y-30675914D01*
X54553852Y-30519086D01*
X54584448Y-30365272D01*
X54644463Y-30220383D01*
X54731592Y-30089985D01*
X54842485Y-29979092D01*
X54972883Y-29891963D01*
X55117772Y-29831948D01*
X55271586Y-29801352D01*
X55428414Y-29801352D01*
X55582228Y-29831948D01*
G37*
G36*
X58122228Y-29831948D02*
G01*
X58267117Y-29891963D01*
X58397515Y-29979092D01*
X58508408Y-30089985D01*
X58595537Y-30220383D01*
X58655552Y-30365272D01*
X58686148Y-30519086D01*
X58686148Y-30675914D01*
X58655552Y-30829728D01*
X58595537Y-30974617D01*
X58508408Y-31105015D01*
X58397515Y-31215908D01*
X58267117Y-31303037D01*
X58122228Y-31363052D01*
X57968414Y-31393648D01*
X57811586Y-31393648D01*
X57657772Y-31363052D01*
X57512883Y-31303037D01*
X57382485Y-31215908D01*
X57271592Y-31105015D01*
X57184463Y-30974617D01*
X57124448Y-30829728D01*
X57093852Y-30675914D01*
X57093852Y-30519086D01*
X57124448Y-30365272D01*
X57184463Y-30220383D01*
X57271592Y-30089985D01*
X57382485Y-29979092D01*
X57512883Y-29891963D01*
X57657772Y-29831948D01*
X57811586Y-29801352D01*
X57968414Y-29801352D01*
X58122228Y-29831948D01*
G37*
G36*
X60662228Y-29831948D02*
G01*
X60807117Y-29891963D01*
X60937515Y-29979092D01*
X61048408Y-30089985D01*
X61135537Y-30220383D01*
X61195552Y-30365272D01*
X61226148Y-30519086D01*
X61226148Y-30675914D01*
X61195552Y-30829728D01*
X61135537Y-30974617D01*
X61048408Y-31105015D01*
X60937515Y-31215908D01*
X60807117Y-31303037D01*
X60662228Y-31363052D01*
X60508414Y-31393648D01*
X60351586Y-31393648D01*
X60197772Y-31363052D01*
X60052883Y-31303037D01*
X59922485Y-31215908D01*
X59811592Y-31105015D01*
X59724463Y-30974617D01*
X59664448Y-30829728D01*
X59633852Y-30675914D01*
X59633852Y-30519086D01*
X59664448Y-30365272D01*
X59724463Y-30220383D01*
X59811592Y-30089985D01*
X59922485Y-29979092D01*
X60052883Y-29891963D01*
X60197772Y-29831948D01*
X60351586Y-29801352D01*
X60508414Y-29801352D01*
X60662228Y-29831948D01*
G37*
G36*
X63202228Y-29831948D02*
G01*
X63347117Y-29891963D01*
X63477515Y-29979092D01*
X63588408Y-30089985D01*
X63675537Y-30220383D01*
X63735552Y-30365272D01*
X63766148Y-30519086D01*
X63766148Y-30675914D01*
X63735552Y-30829728D01*
X63675537Y-30974617D01*
X63588408Y-31105015D01*
X63477515Y-31215908D01*
X63347117Y-31303037D01*
X63202228Y-31363052D01*
X63048414Y-31393648D01*
X62891586Y-31393648D01*
X62737772Y-31363052D01*
X62592883Y-31303037D01*
X62462485Y-31215908D01*
X62351592Y-31105015D01*
X62264463Y-30974617D01*
X62204448Y-30829728D01*
X62173852Y-30675914D01*
X62173852Y-30519086D01*
X62204448Y-30365272D01*
X62264463Y-30220383D01*
X62351592Y-30089985D01*
X62462485Y-29979092D01*
X62592883Y-29891963D01*
X62737772Y-29831948D01*
X62891586Y-29801352D01*
X63048414Y-29801352D01*
X63202228Y-29831948D01*
G37*
G36*
X17232228Y-28026948D02*
G01*
X17377117Y-28086963D01*
X17507515Y-28174092D01*
X17618408Y-28284985D01*
X17705537Y-28415383D01*
X17765552Y-28560272D01*
X17796148Y-28714086D01*
X17796148Y-28870914D01*
X17765552Y-29024728D01*
X17705537Y-29169617D01*
X17618408Y-29300015D01*
X17507515Y-29410908D01*
X17377117Y-29498037D01*
X17232228Y-29558052D01*
X17078414Y-29588648D01*
X16921586Y-29588648D01*
X16767772Y-29558052D01*
X16622883Y-29498037D01*
X16492485Y-29410908D01*
X16381592Y-29300015D01*
X16294463Y-29169617D01*
X16234448Y-29024728D01*
X16203852Y-28870914D01*
X16203852Y-28714086D01*
X16234448Y-28560272D01*
X16294463Y-28415383D01*
X16381592Y-28284985D01*
X16492485Y-28174092D01*
X16622883Y-28086963D01*
X16767772Y-28026948D01*
X16921586Y-27996352D01*
X17078414Y-27996352D01*
X17232228Y-28026948D01*
G37*
G36*
X19732228Y-28026948D02*
G01*
X19877117Y-28086963D01*
X20007515Y-28174092D01*
X20118408Y-28284985D01*
X20205537Y-28415383D01*
X20265552Y-28560272D01*
X20296148Y-28714086D01*
X20296148Y-28870914D01*
X20265552Y-29024728D01*
X20205537Y-29169617D01*
X20118408Y-29300015D01*
X20007515Y-29410908D01*
X19877117Y-29498037D01*
X19732228Y-29558052D01*
X19578414Y-29588648D01*
X19421586Y-29588648D01*
X19267772Y-29558052D01*
X19122883Y-29498037D01*
X18992485Y-29410908D01*
X18881592Y-29300015D01*
X18794463Y-29169617D01*
X18734448Y-29024728D01*
X18703852Y-28870914D01*
X18703852Y-28714086D01*
X18734448Y-28560272D01*
X18794463Y-28415383D01*
X18881592Y-28284985D01*
X18992485Y-28174092D01*
X19122883Y-28086963D01*
X19267772Y-28026948D01*
X19421586Y-27996352D01*
X19578414Y-27996352D01*
X19732228Y-28026948D01*
G37*
G36*
X82232228Y-25026948D02*
G01*
X82377117Y-25086963D01*
X82507515Y-25174092D01*
X82618408Y-25284985D01*
X82705537Y-25415383D01*
X82765552Y-25560272D01*
X82796148Y-25714086D01*
X82796148Y-25870914D01*
X82765552Y-26024728D01*
X82705537Y-26169617D01*
X82618408Y-26300015D01*
X82507515Y-26410908D01*
X82377117Y-26498037D01*
X82232228Y-26558052D01*
X82078414Y-26588648D01*
X81921586Y-26588648D01*
X81767772Y-26558052D01*
X81622883Y-26498037D01*
X81492485Y-26410908D01*
X81381592Y-26300015D01*
X81294463Y-26169617D01*
X81234448Y-26024728D01*
X81203852Y-25870914D01*
X81203852Y-25714086D01*
X81234448Y-25560272D01*
X81294463Y-25415383D01*
X81381592Y-25284985D01*
X81492485Y-25174092D01*
X81622883Y-25086963D01*
X81767772Y-25026948D01*
X81921586Y-24996352D01*
X82078414Y-24996352D01*
X82232228Y-25026948D01*
G37*
G36*
X89852228Y-25026948D02*
G01*
X89997117Y-25086963D01*
X90127515Y-25174092D01*
X90238408Y-25284985D01*
X90325537Y-25415383D01*
X90385552Y-25560272D01*
X90416148Y-25714086D01*
X90416148Y-25870914D01*
X90385552Y-26024728D01*
X90325537Y-26169617D01*
X90238408Y-26300015D01*
X90127515Y-26410908D01*
X89997117Y-26498037D01*
X89852228Y-26558052D01*
X89698414Y-26588648D01*
X89541586Y-26588648D01*
X89387772Y-26558052D01*
X89242883Y-26498037D01*
X89112485Y-26410908D01*
X89001592Y-26300015D01*
X88914463Y-26169617D01*
X88854448Y-26024728D01*
X88823852Y-25870914D01*
X88823852Y-25714086D01*
X88854448Y-25560272D01*
X88914463Y-25415383D01*
X89001592Y-25284985D01*
X89112485Y-25174092D01*
X89242883Y-25086963D01*
X89387772Y-25026948D01*
X89541586Y-24996352D01*
X89698414Y-24996352D01*
X89852228Y-25026948D01*
G37*
G36*
X24612228Y-24026948D02*
G01*
X24757117Y-24086963D01*
X24887515Y-24174092D01*
X24998408Y-24284985D01*
X25085537Y-24415383D01*
X25145552Y-24560272D01*
X25176148Y-24714086D01*
X25176148Y-24870914D01*
X25145552Y-25024728D01*
X25085537Y-25169617D01*
X24998408Y-25300015D01*
X24887515Y-25410908D01*
X24757117Y-25498037D01*
X24612228Y-25558052D01*
X24458414Y-25588648D01*
X24301586Y-25588648D01*
X24147772Y-25558052D01*
X24002883Y-25498037D01*
X23872485Y-25410908D01*
X23761592Y-25300015D01*
X23674463Y-25169617D01*
X23614448Y-25024728D01*
X23583852Y-24870914D01*
X23583852Y-24714086D01*
X23614448Y-24560272D01*
X23674463Y-24415383D01*
X23761592Y-24284985D01*
X23872485Y-24174092D01*
X24002883Y-24086963D01*
X24147772Y-24026948D01*
X24301586Y-23996352D01*
X24458414Y-23996352D01*
X24612228Y-24026948D01*
G37*
G36*
X32232228Y-24026948D02*
G01*
X32377117Y-24086963D01*
X32507515Y-24174092D01*
X32618408Y-24284985D01*
X32705537Y-24415383D01*
X32765552Y-24560272D01*
X32796148Y-24714086D01*
X32796148Y-24870914D01*
X32765552Y-25024728D01*
X32705537Y-25169617D01*
X32618408Y-25300015D01*
X32507515Y-25410908D01*
X32377117Y-25498037D01*
X32232228Y-25558052D01*
X32078414Y-25588648D01*
X31921586Y-25588648D01*
X31767772Y-25558052D01*
X31622883Y-25498037D01*
X31492485Y-25410908D01*
X31381592Y-25300015D01*
X31294463Y-25169617D01*
X31234448Y-25024728D01*
X31203852Y-24870914D01*
X31203852Y-24714086D01*
X31234448Y-24560272D01*
X31294463Y-24415383D01*
X31381592Y-24284985D01*
X31492485Y-24174092D01*
X31622883Y-24086963D01*
X31767772Y-24026948D01*
X31921586Y-23996352D01*
X32078414Y-23996352D01*
X32232228Y-24026948D01*
G37*
G36*
X17554850Y-23200964D02*
G01*
X17605040Y-23206787D01*
X17622189Y-23214359D01*
X17645671Y-23219030D01*
X17670810Y-23235827D01*
X17690696Y-23244608D01*
X17704277Y-23258189D01*
X17726777Y-23273223D01*
X17741810Y-23295722D01*
X17755391Y-23309303D01*
X17764170Y-23329186D01*
X17780970Y-23354329D01*
X17785641Y-23377812D01*
X17793212Y-23394959D01*
X17799033Y-23445139D01*
X17800000Y-23450000D01*
X17800000Y-24550000D01*
X17799032Y-24554863D01*
X17793212Y-24605040D01*
X17785641Y-24622185D01*
X17780970Y-24645671D01*
X17764169Y-24670815D01*
X17755391Y-24690696D01*
X17741812Y-24704274D01*
X17726777Y-24726777D01*
X17704274Y-24741812D01*
X17690696Y-24755391D01*
X17670815Y-24764169D01*
X17645671Y-24780970D01*
X17622185Y-24785641D01*
X17605040Y-24793212D01*
X17554861Y-24799032D01*
X17550000Y-24800000D01*
X16450000Y-24800000D01*
X16445138Y-24799032D01*
X16394959Y-24793212D01*
X16377812Y-24785641D01*
X16354329Y-24780970D01*
X16329186Y-24764170D01*
X16309303Y-24755391D01*
X16295722Y-24741810D01*
X16273223Y-24726777D01*
X16258189Y-24704277D01*
X16244608Y-24690696D01*
X16235827Y-24670810D01*
X16219030Y-24645671D01*
X16214359Y-24622189D01*
X16206787Y-24605040D01*
X16200964Y-24554849D01*
X16200000Y-24550000D01*
X16200000Y-23450000D01*
X16200964Y-23445150D01*
X16206787Y-23394959D01*
X16214359Y-23377808D01*
X16219030Y-23354329D01*
X16235826Y-23329191D01*
X16244608Y-23309303D01*
X16258191Y-23295719D01*
X16273223Y-23273223D01*
X16295719Y-23258191D01*
X16309303Y-23244608D01*
X16329191Y-23235826D01*
X16354329Y-23219030D01*
X16377808Y-23214359D01*
X16394959Y-23206787D01*
X16445151Y-23200964D01*
X16450000Y-23200000D01*
X17550000Y-23200000D01*
X17554850Y-23200964D01*
G37*
G36*
X19732228Y-23234448D02*
G01*
X19877117Y-23294463D01*
X20007515Y-23381592D01*
X20118408Y-23492485D01*
X20205537Y-23622883D01*
X20265552Y-23767772D01*
X20296148Y-23921586D01*
X20296148Y-24078414D01*
X20265552Y-24232228D01*
X20205537Y-24377117D01*
X20118408Y-24507515D01*
X20007515Y-24618408D01*
X19877117Y-24705537D01*
X19732228Y-24765552D01*
X19578414Y-24796148D01*
X19421586Y-24796148D01*
X19267772Y-24765552D01*
X19122883Y-24705537D01*
X18992485Y-24618408D01*
X18881592Y-24507515D01*
X18794463Y-24377117D01*
X18734448Y-24232228D01*
X18703852Y-24078414D01*
X18703852Y-23921586D01*
X18734448Y-23767772D01*
X18794463Y-23622883D01*
X18881592Y-23492485D01*
X18992485Y-23381592D01*
X19122883Y-23294463D01*
X19267772Y-23234448D01*
X19421586Y-23203852D01*
X19578414Y-23203852D01*
X19732228Y-23234448D01*
G37*
G36*
X35262228Y-22211948D02*
G01*
X35407117Y-22271963D01*
X35537515Y-22359092D01*
X35648408Y-22469985D01*
X35735537Y-22600383D01*
X35795552Y-22745272D01*
X35826148Y-22899086D01*
X35826148Y-23055914D01*
X35795552Y-23209728D01*
X35735537Y-23354617D01*
X35648408Y-23485015D01*
X35537515Y-23595908D01*
X35407117Y-23683037D01*
X35262228Y-23743052D01*
X35108414Y-23773648D01*
X34951586Y-23773648D01*
X34797772Y-23743052D01*
X34652883Y-23683037D01*
X34522485Y-23595908D01*
X34411592Y-23485015D01*
X34324463Y-23354617D01*
X34264448Y-23209728D01*
X34233852Y-23055914D01*
X34233852Y-22899086D01*
X34264448Y-22745272D01*
X34324463Y-22600383D01*
X34411592Y-22469985D01*
X34522485Y-22359092D01*
X34652883Y-22271963D01*
X34797772Y-22211948D01*
X34951586Y-22181352D01*
X35108414Y-22181352D01*
X35262228Y-22211948D01*
G37*
G36*
X37802228Y-22211948D02*
G01*
X37947117Y-22271963D01*
X38077515Y-22359092D01*
X38188408Y-22469985D01*
X38275537Y-22600383D01*
X38335552Y-22745272D01*
X38366148Y-22899086D01*
X38366148Y-23055914D01*
X38335552Y-23209728D01*
X38275537Y-23354617D01*
X38188408Y-23485015D01*
X38077515Y-23595908D01*
X37947117Y-23683037D01*
X37802228Y-23743052D01*
X37648414Y-23773648D01*
X37491586Y-23773648D01*
X37337772Y-23743052D01*
X37192883Y-23683037D01*
X37062485Y-23595908D01*
X36951592Y-23485015D01*
X36864463Y-23354617D01*
X36804448Y-23209728D01*
X36773852Y-23055914D01*
X36773852Y-22899086D01*
X36804448Y-22745272D01*
X36864463Y-22600383D01*
X36951592Y-22469985D01*
X37062485Y-22359092D01*
X37192883Y-22271963D01*
X37337772Y-22211948D01*
X37491586Y-22181352D01*
X37648414Y-22181352D01*
X37802228Y-22211948D01*
G37*
G36*
X40342228Y-22211948D02*
G01*
X40487117Y-22271963D01*
X40617515Y-22359092D01*
X40728408Y-22469985D01*
X40815537Y-22600383D01*
X40875552Y-22745272D01*
X40906148Y-22899086D01*
X40906148Y-23055914D01*
X40875552Y-23209728D01*
X40815537Y-23354617D01*
X40728408Y-23485015D01*
X40617515Y-23595908D01*
X40487117Y-23683037D01*
X40342228Y-23743052D01*
X40188414Y-23773648D01*
X40031586Y-23773648D01*
X39877772Y-23743052D01*
X39732883Y-23683037D01*
X39602485Y-23595908D01*
X39491592Y-23485015D01*
X39404463Y-23354617D01*
X39344448Y-23209728D01*
X39313852Y-23055914D01*
X39313852Y-22899086D01*
X39344448Y-22745272D01*
X39404463Y-22600383D01*
X39491592Y-22469985D01*
X39602485Y-22359092D01*
X39732883Y-22271963D01*
X39877772Y-22211948D01*
X40031586Y-22181352D01*
X40188414Y-22181352D01*
X40342228Y-22211948D01*
G37*
G36*
X42882228Y-22211948D02*
G01*
X43027117Y-22271963D01*
X43157515Y-22359092D01*
X43268408Y-22469985D01*
X43355537Y-22600383D01*
X43415552Y-22745272D01*
X43446148Y-22899086D01*
X43446148Y-23055914D01*
X43415552Y-23209728D01*
X43355537Y-23354617D01*
X43268408Y-23485015D01*
X43157515Y-23595908D01*
X43027117Y-23683037D01*
X42882228Y-23743052D01*
X42728414Y-23773648D01*
X42571586Y-23773648D01*
X42417772Y-23743052D01*
X42272883Y-23683037D01*
X42142485Y-23595908D01*
X42031592Y-23485015D01*
X41944463Y-23354617D01*
X41884448Y-23209728D01*
X41853852Y-23055914D01*
X41853852Y-22899086D01*
X41884448Y-22745272D01*
X41944463Y-22600383D01*
X42031592Y-22469985D01*
X42142485Y-22359092D01*
X42272883Y-22271963D01*
X42417772Y-22211948D01*
X42571586Y-22181352D01*
X42728414Y-22181352D01*
X42882228Y-22211948D01*
G37*
G36*
X45422228Y-22211948D02*
G01*
X45567117Y-22271963D01*
X45697515Y-22359092D01*
X45808408Y-22469985D01*
X45895537Y-22600383D01*
X45955552Y-22745272D01*
X45986148Y-22899086D01*
X45986148Y-23055914D01*
X45955552Y-23209728D01*
X45895537Y-23354617D01*
X45808408Y-23485015D01*
X45697515Y-23595908D01*
X45567117Y-23683037D01*
X45422228Y-23743052D01*
X45268414Y-23773648D01*
X45111586Y-23773648D01*
X44957772Y-23743052D01*
X44812883Y-23683037D01*
X44682485Y-23595908D01*
X44571592Y-23485015D01*
X44484463Y-23354617D01*
X44424448Y-23209728D01*
X44393852Y-23055914D01*
X44393852Y-22899086D01*
X44424448Y-22745272D01*
X44484463Y-22600383D01*
X44571592Y-22469985D01*
X44682485Y-22359092D01*
X44812883Y-22271963D01*
X44957772Y-22211948D01*
X45111586Y-22181352D01*
X45268414Y-22181352D01*
X45422228Y-22211948D01*
G37*
G36*
X47962228Y-22211948D02*
G01*
X48107117Y-22271963D01*
X48237515Y-22359092D01*
X48348408Y-22469985D01*
X48435537Y-22600383D01*
X48495552Y-22745272D01*
X48526148Y-22899086D01*
X48526148Y-23055914D01*
X48495552Y-23209728D01*
X48435537Y-23354617D01*
X48348408Y-23485015D01*
X48237515Y-23595908D01*
X48107117Y-23683037D01*
X47962228Y-23743052D01*
X47808414Y-23773648D01*
X47651586Y-23773648D01*
X47497772Y-23743052D01*
X47352883Y-23683037D01*
X47222485Y-23595908D01*
X47111592Y-23485015D01*
X47024463Y-23354617D01*
X46964448Y-23209728D01*
X46933852Y-23055914D01*
X46933852Y-22899086D01*
X46964448Y-22745272D01*
X47024463Y-22600383D01*
X47111592Y-22469985D01*
X47222485Y-22359092D01*
X47352883Y-22271963D01*
X47497772Y-22211948D01*
X47651586Y-22181352D01*
X47808414Y-22181352D01*
X47962228Y-22211948D01*
G37*
G36*
X50502228Y-22211948D02*
G01*
X50647117Y-22271963D01*
X50777515Y-22359092D01*
X50888408Y-22469985D01*
X50975537Y-22600383D01*
X51035552Y-22745272D01*
X51066148Y-22899086D01*
X51066148Y-23055914D01*
X51035552Y-23209728D01*
X50975537Y-23354617D01*
X50888408Y-23485015D01*
X50777515Y-23595908D01*
X50647117Y-23683037D01*
X50502228Y-23743052D01*
X50348414Y-23773648D01*
X50191586Y-23773648D01*
X50037772Y-23743052D01*
X49892883Y-23683037D01*
X49762485Y-23595908D01*
X49651592Y-23485015D01*
X49564463Y-23354617D01*
X49504448Y-23209728D01*
X49473852Y-23055914D01*
X49473852Y-22899086D01*
X49504448Y-22745272D01*
X49564463Y-22600383D01*
X49651592Y-22469985D01*
X49762485Y-22359092D01*
X49892883Y-22271963D01*
X50037772Y-22211948D01*
X50191586Y-22181352D01*
X50348414Y-22181352D01*
X50502228Y-22211948D01*
G37*
G36*
X53042228Y-22211948D02*
G01*
X53187117Y-22271963D01*
X53317515Y-22359092D01*
X53428408Y-22469985D01*
X53515537Y-22600383D01*
X53575552Y-22745272D01*
X53606148Y-22899086D01*
X53606148Y-23055914D01*
X53575552Y-23209728D01*
X53515537Y-23354617D01*
X53428408Y-23485015D01*
X53317515Y-23595908D01*
X53187117Y-23683037D01*
X53042228Y-23743052D01*
X52888414Y-23773648D01*
X52731586Y-23773648D01*
X52577772Y-23743052D01*
X52432883Y-23683037D01*
X52302485Y-23595908D01*
X52191592Y-23485015D01*
X52104463Y-23354617D01*
X52044448Y-23209728D01*
X52013852Y-23055914D01*
X52013852Y-22899086D01*
X52044448Y-22745272D01*
X52104463Y-22600383D01*
X52191592Y-22469985D01*
X52302485Y-22359092D01*
X52432883Y-22271963D01*
X52577772Y-22211948D01*
X52731586Y-22181352D01*
X52888414Y-22181352D01*
X53042228Y-22211948D01*
G37*
G36*
X55582228Y-22211948D02*
G01*
X55727117Y-22271963D01*
X55857515Y-22359092D01*
X55968408Y-22469985D01*
X56055537Y-22600383D01*
X56115552Y-22745272D01*
X56146148Y-22899086D01*
X56146148Y-23055914D01*
X56115552Y-23209728D01*
X56055537Y-23354617D01*
X55968408Y-23485015D01*
X55857515Y-23595908D01*
X55727117Y-23683037D01*
X55582228Y-23743052D01*
X55428414Y-23773648D01*
X55271586Y-23773648D01*
X55117772Y-23743052D01*
X54972883Y-23683037D01*
X54842485Y-23595908D01*
X54731592Y-23485015D01*
X54644463Y-23354617D01*
X54584448Y-23209728D01*
X54553852Y-23055914D01*
X54553852Y-22899086D01*
X54584448Y-22745272D01*
X54644463Y-22600383D01*
X54731592Y-22469985D01*
X54842485Y-22359092D01*
X54972883Y-22271963D01*
X55117772Y-22211948D01*
X55271586Y-22181352D01*
X55428414Y-22181352D01*
X55582228Y-22211948D01*
G37*
G36*
X58122228Y-22211948D02*
G01*
X58267117Y-22271963D01*
X58397515Y-22359092D01*
X58508408Y-22469985D01*
X58595537Y-22600383D01*
X58655552Y-22745272D01*
X58686148Y-22899086D01*
X58686148Y-23055914D01*
X58655552Y-23209728D01*
X58595537Y-23354617D01*
X58508408Y-23485015D01*
X58397515Y-23595908D01*
X58267117Y-23683037D01*
X58122228Y-23743052D01*
X57968414Y-23773648D01*
X57811586Y-23773648D01*
X57657772Y-23743052D01*
X57512883Y-23683037D01*
X57382485Y-23595908D01*
X57271592Y-23485015D01*
X57184463Y-23354617D01*
X57124448Y-23209728D01*
X57093852Y-23055914D01*
X57093852Y-22899086D01*
X57124448Y-22745272D01*
X57184463Y-22600383D01*
X57271592Y-22469985D01*
X57382485Y-22359092D01*
X57512883Y-22271963D01*
X57657772Y-22211948D01*
X57811586Y-22181352D01*
X57968414Y-22181352D01*
X58122228Y-22211948D01*
G37*
G36*
X60662228Y-22211948D02*
G01*
X60807117Y-22271963D01*
X60937515Y-22359092D01*
X61048408Y-22469985D01*
X61135537Y-22600383D01*
X61195552Y-22745272D01*
X61226148Y-22899086D01*
X61226148Y-23055914D01*
X61195552Y-23209728D01*
X61135537Y-23354617D01*
X61048408Y-23485015D01*
X60937515Y-23595908D01*
X60807117Y-23683037D01*
X60662228Y-23743052D01*
X60508414Y-23773648D01*
X60351586Y-23773648D01*
X60197772Y-23743052D01*
X60052883Y-23683037D01*
X59922485Y-23595908D01*
X59811592Y-23485015D01*
X59724463Y-23354617D01*
X59664448Y-23209728D01*
X59633852Y-23055914D01*
X59633852Y-22899086D01*
X59664448Y-22745272D01*
X59724463Y-22600383D01*
X59811592Y-22469985D01*
X59922485Y-22359092D01*
X60052883Y-22271963D01*
X60197772Y-22211948D01*
X60351586Y-22181352D01*
X60508414Y-22181352D01*
X60662228Y-22211948D01*
G37*
G36*
X63202228Y-22211948D02*
G01*
X63347117Y-22271963D01*
X63477515Y-22359092D01*
X63588408Y-22469985D01*
X63675537Y-22600383D01*
X63735552Y-22745272D01*
X63766148Y-22899086D01*
X63766148Y-23055914D01*
X63735552Y-23209728D01*
X63675537Y-23354617D01*
X63588408Y-23485015D01*
X63477515Y-23595908D01*
X63347117Y-23683037D01*
X63202228Y-23743052D01*
X63048414Y-23773648D01*
X62891586Y-23773648D01*
X62737772Y-23743052D01*
X62592883Y-23683037D01*
X62462485Y-23595908D01*
X62351592Y-23485015D01*
X62264463Y-23354617D01*
X62204448Y-23209728D01*
X62173852Y-23055914D01*
X62173852Y-22899086D01*
X62204448Y-22745272D01*
X62264463Y-22600383D01*
X62351592Y-22469985D01*
X62462485Y-22359092D01*
X62592883Y-22271963D01*
X62737772Y-22211948D01*
X62891586Y-22181352D01*
X63048414Y-22181352D01*
X63202228Y-22211948D01*
G37*
G36*
X103290285Y-21293060D02*
G01*
X103471397Y-21368079D01*
X103634393Y-21476990D01*
X103773010Y-21615607D01*
X103881921Y-21778603D01*
X103956940Y-21959715D01*
X103995185Y-22151983D01*
X103995185Y-22348017D01*
X103956940Y-22540285D01*
X103881921Y-22721397D01*
X103773010Y-22884393D01*
X103634393Y-23023010D01*
X103471397Y-23131921D01*
X103290285Y-23206940D01*
X103098017Y-23245185D01*
X102901983Y-23245185D01*
X102709715Y-23206940D01*
X102528603Y-23131921D01*
X102365607Y-23023010D01*
X102226990Y-22884393D01*
X102118079Y-22721397D01*
X102043060Y-22540285D01*
X102004815Y-22348017D01*
X102004815Y-22151983D01*
X102043060Y-21959715D01*
X102118079Y-21778603D01*
X102226990Y-21615607D01*
X102365607Y-21476990D01*
X102528603Y-21368079D01*
X102709715Y-21293060D01*
X102901983Y-21254815D01*
X103098017Y-21254815D01*
X103290285Y-21293060D01*
G37*
G36*
X109790285Y-21293060D02*
G01*
X109971397Y-21368079D01*
X110134393Y-21476990D01*
X110273010Y-21615607D01*
X110381921Y-21778603D01*
X110456940Y-21959715D01*
X110495185Y-22151983D01*
X110495185Y-22348017D01*
X110456940Y-22540285D01*
X110381921Y-22721397D01*
X110273010Y-22884393D01*
X110134393Y-23023010D01*
X109971397Y-23131921D01*
X109790285Y-23206940D01*
X109598017Y-23245185D01*
X109401983Y-23245185D01*
X109209715Y-23206940D01*
X109028603Y-23131921D01*
X108865607Y-23023010D01*
X108726990Y-22884393D01*
X108618079Y-22721397D01*
X108543060Y-22540285D01*
X108504815Y-22348017D01*
X108504815Y-22151983D01*
X108543060Y-21959715D01*
X108618079Y-21778603D01*
X108726990Y-21615607D01*
X108865607Y-21476990D01*
X109028603Y-21368079D01*
X109209715Y-21293060D01*
X109401983Y-21254815D01*
X109598017Y-21254815D01*
X109790285Y-21293060D01*
G37*
G36*
X114040285Y-21293060D02*
G01*
X114221397Y-21368079D01*
X114384393Y-21476990D01*
X114523010Y-21615607D01*
X114631921Y-21778603D01*
X114706940Y-21959715D01*
X114745185Y-22151983D01*
X114745185Y-22348017D01*
X114706940Y-22540285D01*
X114631921Y-22721397D01*
X114523010Y-22884393D01*
X114384393Y-23023010D01*
X114221397Y-23131921D01*
X114040285Y-23206940D01*
X113848017Y-23245185D01*
X113651983Y-23245185D01*
X113459715Y-23206940D01*
X113278603Y-23131921D01*
X113115607Y-23023010D01*
X112976990Y-22884393D01*
X112868079Y-22721397D01*
X112793060Y-22540285D01*
X112754815Y-22348017D01*
X112754815Y-22151983D01*
X112793060Y-21959715D01*
X112868079Y-21778603D01*
X112976990Y-21615607D01*
X113115607Y-21476990D01*
X113278603Y-21368079D01*
X113459715Y-21293060D01*
X113651983Y-21254815D01*
X113848017Y-21254815D01*
X114040285Y-21293060D01*
G37*
G36*
X120540285Y-21293060D02*
G01*
X120721397Y-21368079D01*
X120884393Y-21476990D01*
X121023010Y-21615607D01*
X121131921Y-21778603D01*
X121206940Y-21959715D01*
X121245185Y-22151983D01*
X121245185Y-22348017D01*
X121206940Y-22540285D01*
X121131921Y-22721397D01*
X121023010Y-22884393D01*
X120884393Y-23023010D01*
X120721397Y-23131921D01*
X120540285Y-23206940D01*
X120348017Y-23245185D01*
X120151983Y-23245185D01*
X119959715Y-23206940D01*
X119778603Y-23131921D01*
X119615607Y-23023010D01*
X119476990Y-22884393D01*
X119368079Y-22721397D01*
X119293060Y-22540285D01*
X119254815Y-22348017D01*
X119254815Y-22151983D01*
X119293060Y-21959715D01*
X119368079Y-21778603D01*
X119476990Y-21615607D01*
X119615607Y-21476990D01*
X119778603Y-21368079D01*
X119959715Y-21293060D01*
X120151983Y-21254815D01*
X120348017Y-21254815D01*
X120540285Y-21293060D01*
G37*
G36*
X125040285Y-21293060D02*
G01*
X125221397Y-21368079D01*
X125384393Y-21476990D01*
X125523010Y-21615607D01*
X125631921Y-21778603D01*
X125706940Y-21959715D01*
X125745185Y-22151983D01*
X125745185Y-22348017D01*
X125706940Y-22540285D01*
X125631921Y-22721397D01*
X125523010Y-22884393D01*
X125384393Y-23023010D01*
X125221397Y-23131921D01*
X125040285Y-23206940D01*
X124848017Y-23245185D01*
X124651983Y-23245185D01*
X124459715Y-23206940D01*
X124278603Y-23131921D01*
X124115607Y-23023010D01*
X123976990Y-22884393D01*
X123868079Y-22721397D01*
X123793060Y-22540285D01*
X123754815Y-22348017D01*
X123754815Y-22151983D01*
X123793060Y-21959715D01*
X123868079Y-21778603D01*
X123976990Y-21615607D01*
X124115607Y-21476990D01*
X124278603Y-21368079D01*
X124459715Y-21293060D01*
X124651983Y-21254815D01*
X124848017Y-21254815D01*
X125040285Y-21293060D01*
G37*
G36*
X131540285Y-21293060D02*
G01*
X131721397Y-21368079D01*
X131884393Y-21476990D01*
X132023010Y-21615607D01*
X132131921Y-21778603D01*
X132206940Y-21959715D01*
X132245185Y-22151983D01*
X132245185Y-22348017D01*
X132206940Y-22540285D01*
X132131921Y-22721397D01*
X132023010Y-22884393D01*
X131884393Y-23023010D01*
X131721397Y-23131921D01*
X131540285Y-23206940D01*
X131348017Y-23245185D01*
X131151983Y-23245185D01*
X130959715Y-23206940D01*
X130778603Y-23131921D01*
X130615607Y-23023010D01*
X130476990Y-22884393D01*
X130368079Y-22721397D01*
X130293060Y-22540285D01*
X130254815Y-22348017D01*
X130254815Y-22151983D01*
X130293060Y-21959715D01*
X130368079Y-21778603D01*
X130476990Y-21615607D01*
X130615607Y-21476990D01*
X130778603Y-21368079D01*
X130959715Y-21293060D01*
X131151983Y-21254815D01*
X131348017Y-21254815D01*
X131540285Y-21293060D01*
G37*
G36*
X82232228Y-21026948D02*
G01*
X82377117Y-21086963D01*
X82507515Y-21174092D01*
X82618408Y-21284985D01*
X82705537Y-21415383D01*
X82765552Y-21560272D01*
X82796148Y-21714086D01*
X82796148Y-21870914D01*
X82765552Y-22024728D01*
X82705537Y-22169617D01*
X82618408Y-22300015D01*
X82507515Y-22410908D01*
X82377117Y-22498037D01*
X82232228Y-22558052D01*
X82078414Y-22588648D01*
X81921586Y-22588648D01*
X81767772Y-22558052D01*
X81622883Y-22498037D01*
X81492485Y-22410908D01*
X81381592Y-22300015D01*
X81294463Y-22169617D01*
X81234448Y-22024728D01*
X81203852Y-21870914D01*
X81203852Y-21714086D01*
X81234448Y-21560272D01*
X81294463Y-21415383D01*
X81381592Y-21284985D01*
X81492485Y-21174092D01*
X81622883Y-21086963D01*
X81767772Y-21026948D01*
X81921586Y-20996352D01*
X82078414Y-20996352D01*
X82232228Y-21026948D01*
G37*
G36*
X89852228Y-21026948D02*
G01*
X89997117Y-21086963D01*
X90127515Y-21174092D01*
X90238408Y-21284985D01*
X90325537Y-21415383D01*
X90385552Y-21560272D01*
X90416148Y-21714086D01*
X90416148Y-21870914D01*
X90385552Y-22024728D01*
X90325537Y-22169617D01*
X90238408Y-22300015D01*
X90127515Y-22410908D01*
X89997117Y-22498037D01*
X89852228Y-22558052D01*
X89698414Y-22588648D01*
X89541586Y-22588648D01*
X89387772Y-22558052D01*
X89242883Y-22498037D01*
X89112485Y-22410908D01*
X89001592Y-22300015D01*
X88914463Y-22169617D01*
X88854448Y-22024728D01*
X88823852Y-21870914D01*
X88823852Y-21714086D01*
X88854448Y-21560272D01*
X88914463Y-21415383D01*
X89001592Y-21284985D01*
X89112485Y-21174092D01*
X89242883Y-21086963D01*
X89387772Y-21026948D01*
X89541586Y-20996352D01*
X89698414Y-20996352D01*
X89852228Y-21026948D01*
G37*
G36*
X82232228Y-17234448D02*
G01*
X82377117Y-17294463D01*
X82507515Y-17381592D01*
X82618408Y-17492485D01*
X82705537Y-17622883D01*
X82765552Y-17767772D01*
X82796148Y-17921586D01*
X82796148Y-18078414D01*
X82765552Y-18232228D01*
X82705537Y-18377117D01*
X82618408Y-18507515D01*
X82507515Y-18618408D01*
X82377117Y-18705537D01*
X82232228Y-18765552D01*
X82078414Y-18796148D01*
X81921586Y-18796148D01*
X81767772Y-18765552D01*
X81622883Y-18705537D01*
X81492485Y-18618408D01*
X81381592Y-18507515D01*
X81294463Y-18377117D01*
X81234448Y-18232228D01*
X81203852Y-18078414D01*
X81203852Y-17921586D01*
X81234448Y-17767772D01*
X81294463Y-17622883D01*
X81381592Y-17492485D01*
X81492485Y-17381592D01*
X81622883Y-17294463D01*
X81767772Y-17234448D01*
X81921586Y-17203852D01*
X82078414Y-17203852D01*
X82232228Y-17234448D01*
G37*
G36*
X89852228Y-17234448D02*
G01*
X89997117Y-17294463D01*
X90127515Y-17381592D01*
X90238408Y-17492485D01*
X90325537Y-17622883D01*
X90385552Y-17767772D01*
X90416148Y-17921586D01*
X90416148Y-18078414D01*
X90385552Y-18232228D01*
X90325537Y-18377117D01*
X90238408Y-18507515D01*
X90127515Y-18618408D01*
X89997117Y-18705537D01*
X89852228Y-18765552D01*
X89698414Y-18796148D01*
X89541586Y-18796148D01*
X89387772Y-18765552D01*
X89242883Y-18705537D01*
X89112485Y-18618408D01*
X89001592Y-18507515D01*
X88914463Y-18377117D01*
X88854448Y-18232228D01*
X88823852Y-18078414D01*
X88823852Y-17921586D01*
X88854448Y-17767772D01*
X88914463Y-17622883D01*
X89001592Y-17492485D01*
X89112485Y-17381592D01*
X89242883Y-17294463D01*
X89387772Y-17234448D01*
X89541586Y-17203852D01*
X89698414Y-17203852D01*
X89852228Y-17234448D01*
G37*
G36*
X103290285Y-16793060D02*
G01*
X103471397Y-16868079D01*
X103634393Y-16976990D01*
X103773010Y-17115607D01*
X103881921Y-17278603D01*
X103956940Y-17459715D01*
X103995185Y-17651983D01*
X103995185Y-17848017D01*
X103956940Y-18040285D01*
X103881921Y-18221397D01*
X103773010Y-18384393D01*
X103634393Y-18523010D01*
X103471397Y-18631921D01*
X103290285Y-18706940D01*
X103098017Y-18745185D01*
X102901983Y-18745185D01*
X102709715Y-18706940D01*
X102528603Y-18631921D01*
X102365607Y-18523010D01*
X102226990Y-18384393D01*
X102118079Y-18221397D01*
X102043060Y-18040285D01*
X102004815Y-17848017D01*
X102004815Y-17651983D01*
X102043060Y-17459715D01*
X102118079Y-17278603D01*
X102226990Y-17115607D01*
X102365607Y-16976990D01*
X102528603Y-16868079D01*
X102709715Y-16793060D01*
X102901983Y-16754815D01*
X103098017Y-16754815D01*
X103290285Y-16793060D01*
G37*
G36*
X109790285Y-16793060D02*
G01*
X109971397Y-16868079D01*
X110134393Y-16976990D01*
X110273010Y-17115607D01*
X110381921Y-17278603D01*
X110456940Y-17459715D01*
X110495185Y-17651983D01*
X110495185Y-17848017D01*
X110456940Y-18040285D01*
X110381921Y-18221397D01*
X110273010Y-18384393D01*
X110134393Y-18523010D01*
X109971397Y-18631921D01*
X109790285Y-18706940D01*
X109598017Y-18745185D01*
X109401983Y-18745185D01*
X109209715Y-18706940D01*
X109028603Y-18631921D01*
X108865607Y-18523010D01*
X108726990Y-18384393D01*
X108618079Y-18221397D01*
X108543060Y-18040285D01*
X108504815Y-17848017D01*
X108504815Y-17651983D01*
X108543060Y-17459715D01*
X108618079Y-17278603D01*
X108726990Y-17115607D01*
X108865607Y-16976990D01*
X109028603Y-16868079D01*
X109209715Y-16793060D01*
X109401983Y-16754815D01*
X109598017Y-16754815D01*
X109790285Y-16793060D01*
G37*
G36*
X114040285Y-16793060D02*
G01*
X114221397Y-16868079D01*
X114384393Y-16976990D01*
X114523010Y-17115607D01*
X114631921Y-17278603D01*
X114706940Y-17459715D01*
X114745185Y-17651983D01*
X114745185Y-17848017D01*
X114706940Y-18040285D01*
X114631921Y-18221397D01*
X114523010Y-18384393D01*
X114384393Y-18523010D01*
X114221397Y-18631921D01*
X114040285Y-18706940D01*
X113848017Y-18745185D01*
X113651983Y-18745185D01*
X113459715Y-18706940D01*
X113278603Y-18631921D01*
X113115607Y-18523010D01*
X112976990Y-18384393D01*
X112868079Y-18221397D01*
X112793060Y-18040285D01*
X112754815Y-17848017D01*
X112754815Y-17651983D01*
X112793060Y-17459715D01*
X112868079Y-17278603D01*
X112976990Y-17115607D01*
X113115607Y-16976990D01*
X113278603Y-16868079D01*
X113459715Y-16793060D01*
X113651983Y-16754815D01*
X113848017Y-16754815D01*
X114040285Y-16793060D01*
G37*
G36*
X120540285Y-16793060D02*
G01*
X120721397Y-16868079D01*
X120884393Y-16976990D01*
X121023010Y-17115607D01*
X121131921Y-17278603D01*
X121206940Y-17459715D01*
X121245185Y-17651983D01*
X121245185Y-17848017D01*
X121206940Y-18040285D01*
X121131921Y-18221397D01*
X121023010Y-18384393D01*
X120884393Y-18523010D01*
X120721397Y-18631921D01*
X120540285Y-18706940D01*
X120348017Y-18745185D01*
X120151983Y-18745185D01*
X119959715Y-18706940D01*
X119778603Y-18631921D01*
X119615607Y-18523010D01*
X119476990Y-18384393D01*
X119368079Y-18221397D01*
X119293060Y-18040285D01*
X119254815Y-17848017D01*
X119254815Y-17651983D01*
X119293060Y-17459715D01*
X119368079Y-17278603D01*
X119476990Y-17115607D01*
X119615607Y-16976990D01*
X119778603Y-16868079D01*
X119959715Y-16793060D01*
X120151983Y-16754815D01*
X120348017Y-16754815D01*
X120540285Y-16793060D01*
G37*
G36*
X125040285Y-16793060D02*
G01*
X125221397Y-16868079D01*
X125384393Y-16976990D01*
X125523010Y-17115607D01*
X125631921Y-17278603D01*
X125706940Y-17459715D01*
X125745185Y-17651983D01*
X125745185Y-17848017D01*
X125706940Y-18040285D01*
X125631921Y-18221397D01*
X125523010Y-18384393D01*
X125384393Y-18523010D01*
X125221397Y-18631921D01*
X125040285Y-18706940D01*
X124848017Y-18745185D01*
X124651983Y-18745185D01*
X124459715Y-18706940D01*
X124278603Y-18631921D01*
X124115607Y-18523010D01*
X123976990Y-18384393D01*
X123868079Y-18221397D01*
X123793060Y-18040285D01*
X123754815Y-17848017D01*
X123754815Y-17651983D01*
X123793060Y-17459715D01*
X123868079Y-17278603D01*
X123976990Y-17115607D01*
X124115607Y-16976990D01*
X124278603Y-16868079D01*
X124459715Y-16793060D01*
X124651983Y-16754815D01*
X124848017Y-16754815D01*
X125040285Y-16793060D01*
G37*
G36*
X131540285Y-16793060D02*
G01*
X131721397Y-16868079D01*
X131884393Y-16976990D01*
X132023010Y-17115607D01*
X132131921Y-17278603D01*
X132206940Y-17459715D01*
X132245185Y-17651983D01*
X132245185Y-17848017D01*
X132206940Y-18040285D01*
X132131921Y-18221397D01*
X132023010Y-18384393D01*
X131884393Y-18523010D01*
X131721397Y-18631921D01*
X131540285Y-18706940D01*
X131348017Y-18745185D01*
X131151983Y-18745185D01*
X130959715Y-18706940D01*
X130778603Y-18631921D01*
X130615607Y-18523010D01*
X130476990Y-18384393D01*
X130368079Y-18221397D01*
X130293060Y-18040285D01*
X130254815Y-17848017D01*
X130254815Y-17651983D01*
X130293060Y-17459715D01*
X130368079Y-17278603D01*
X130476990Y-17115607D01*
X130615607Y-16976990D01*
X130778603Y-16868079D01*
X130959715Y-16793060D01*
X131151983Y-16754815D01*
X131348017Y-16754815D01*
X131540285Y-16793060D01*
G37*
M02*
