G04 #@! TF.GenerationSoftware,KiCad,Pcbnew,9.0.3*
G04 #@! TF.CreationDate,2025-08-28T22:32:17-04:00*
G04 #@! TF.ProjectId,shiftclock,73686966-7463-46c6-9f63-6b2e6b696361,rev?*
G04 #@! TF.SameCoordinates,Original*
G04 #@! TF.FileFunction,Legend,Top*
G04 #@! TF.FilePolarity,Positive*
%FSLAX46Y46*%
G04 Gerber Fmt 4.6, Leading zero omitted, Abs format (unit mm)*
G04 Created by KiCad (PCBNEW 9.0.3) date 2025-08-28 22:32:17*
%MOMM*%
%LPD*%
G01*
G04 APERTURE LIST*
%ADD10C,0.300000*%
%ADD11C,0.152400*%
%ADD12C,0.450000*%
%ADD13C,0.150000*%
%ADD14C,0.120000*%
G04 APERTURE END LIST*
D10*
X101149748Y-31406304D02*
X101149748Y-28549161D01*
X105149749Y-30739638D02*
X104006892Y-30739638D01*
X104578320Y-30739638D02*
X104578320Y-28739638D01*
X104578320Y-28739638D02*
X104387844Y-29025352D01*
X104387844Y-29025352D02*
X104197368Y-29215828D01*
X104197368Y-29215828D02*
X104006892Y-29311066D01*
X107530702Y-29977733D02*
X109054512Y-29977733D01*
X110006892Y-29977733D02*
X111530702Y-29977733D01*
X112483082Y-29977733D02*
X114006892Y-29977733D01*
X116387844Y-28930114D02*
X116483082Y-28834876D01*
X116483082Y-28834876D02*
X116673558Y-28739638D01*
X116673558Y-28739638D02*
X117149749Y-28739638D01*
X117149749Y-28739638D02*
X117340225Y-28834876D01*
X117340225Y-28834876D02*
X117435463Y-28930114D01*
X117435463Y-28930114D02*
X117530701Y-29120590D01*
X117530701Y-29120590D02*
X117530701Y-29311066D01*
X117530701Y-29311066D02*
X117435463Y-29596780D01*
X117435463Y-29596780D02*
X116292606Y-30739638D01*
X116292606Y-30739638D02*
X117530701Y-30739638D01*
X119911654Y-29977733D02*
X121435464Y-29977733D01*
X122387844Y-29977733D02*
X123911654Y-29977733D01*
X124864034Y-29977733D02*
X126387844Y-29977733D01*
X128673558Y-28739638D02*
X129911653Y-28739638D01*
X129911653Y-28739638D02*
X129244986Y-29501542D01*
X129244986Y-29501542D02*
X129530701Y-29501542D01*
X129530701Y-29501542D02*
X129721177Y-29596780D01*
X129721177Y-29596780D02*
X129816415Y-29692019D01*
X129816415Y-29692019D02*
X129911653Y-29882495D01*
X129911653Y-29882495D02*
X129911653Y-30358685D01*
X129911653Y-30358685D02*
X129816415Y-30549161D01*
X129816415Y-30549161D02*
X129721177Y-30644400D01*
X129721177Y-30644400D02*
X129530701Y-30739638D01*
X129530701Y-30739638D02*
X128959272Y-30739638D01*
X128959272Y-30739638D02*
X128768796Y-30644400D01*
X128768796Y-30644400D02*
X128673558Y-30549161D01*
X132768796Y-31406304D02*
X132768796Y-28549161D01*
D11*
X21255082Y-53853899D02*
X21371196Y-53892603D01*
X21371196Y-53892603D02*
X21564720Y-53892603D01*
X21564720Y-53892603D02*
X21642129Y-53853899D01*
X21642129Y-53853899D02*
X21680834Y-53815194D01*
X21680834Y-53815194D02*
X21719539Y-53737784D01*
X21719539Y-53737784D02*
X21719539Y-53660375D01*
X21719539Y-53660375D02*
X21680834Y-53582965D01*
X21680834Y-53582965D02*
X21642129Y-53544260D01*
X21642129Y-53544260D02*
X21564720Y-53505556D01*
X21564720Y-53505556D02*
X21409901Y-53466851D01*
X21409901Y-53466851D02*
X21332491Y-53428146D01*
X21332491Y-53428146D02*
X21293786Y-53389441D01*
X21293786Y-53389441D02*
X21255082Y-53312032D01*
X21255082Y-53312032D02*
X21255082Y-53234622D01*
X21255082Y-53234622D02*
X21293786Y-53157213D01*
X21293786Y-53157213D02*
X21332491Y-53118508D01*
X21332491Y-53118508D02*
X21409901Y-53079803D01*
X21409901Y-53079803D02*
X21603424Y-53079803D01*
X21603424Y-53079803D02*
X21719539Y-53118508D01*
X22067881Y-53892603D02*
X22067881Y-53079803D01*
X22067881Y-53466851D02*
X22532338Y-53466851D01*
X22532338Y-53892603D02*
X22532338Y-53079803D01*
X22919386Y-53892603D02*
X22919386Y-53079803D01*
X23577368Y-53466851D02*
X23306434Y-53466851D01*
X23306434Y-53892603D02*
X23306434Y-53079803D01*
X23306434Y-53079803D02*
X23693482Y-53079803D01*
X23887006Y-53079803D02*
X24351463Y-53079803D01*
X24119235Y-53892603D02*
X24119235Y-53079803D01*
X25086853Y-53815194D02*
X25048149Y-53853899D01*
X25048149Y-53853899D02*
X24932034Y-53892603D01*
X24932034Y-53892603D02*
X24854625Y-53892603D01*
X24854625Y-53892603D02*
X24738511Y-53853899D01*
X24738511Y-53853899D02*
X24661101Y-53776489D01*
X24661101Y-53776489D02*
X24622396Y-53699079D01*
X24622396Y-53699079D02*
X24583692Y-53544260D01*
X24583692Y-53544260D02*
X24583692Y-53428146D01*
X24583692Y-53428146D02*
X24622396Y-53273327D01*
X24622396Y-53273327D02*
X24661101Y-53195918D01*
X24661101Y-53195918D02*
X24738511Y-53118508D01*
X24738511Y-53118508D02*
X24854625Y-53079803D01*
X24854625Y-53079803D02*
X24932034Y-53079803D01*
X24932034Y-53079803D02*
X25048149Y-53118508D01*
X25048149Y-53118508D02*
X25086853Y-53157213D01*
X25822244Y-53892603D02*
X25435196Y-53892603D01*
X25435196Y-53892603D02*
X25435196Y-53079803D01*
X26247996Y-53079803D02*
X26402815Y-53079803D01*
X26402815Y-53079803D02*
X26480225Y-53118508D01*
X26480225Y-53118508D02*
X26557634Y-53195918D01*
X26557634Y-53195918D02*
X26596339Y-53350737D01*
X26596339Y-53350737D02*
X26596339Y-53621670D01*
X26596339Y-53621670D02*
X26557634Y-53776489D01*
X26557634Y-53776489D02*
X26480225Y-53853899D01*
X26480225Y-53853899D02*
X26402815Y-53892603D01*
X26402815Y-53892603D02*
X26247996Y-53892603D01*
X26247996Y-53892603D02*
X26170587Y-53853899D01*
X26170587Y-53853899D02*
X26093177Y-53776489D01*
X26093177Y-53776489D02*
X26054473Y-53621670D01*
X26054473Y-53621670D02*
X26054473Y-53350737D01*
X26054473Y-53350737D02*
X26093177Y-53195918D01*
X26093177Y-53195918D02*
X26170587Y-53118508D01*
X26170587Y-53118508D02*
X26247996Y-53079803D01*
X27409139Y-53815194D02*
X27370435Y-53853899D01*
X27370435Y-53853899D02*
X27254320Y-53892603D01*
X27254320Y-53892603D02*
X27176911Y-53892603D01*
X27176911Y-53892603D02*
X27060797Y-53853899D01*
X27060797Y-53853899D02*
X26983387Y-53776489D01*
X26983387Y-53776489D02*
X26944682Y-53699079D01*
X26944682Y-53699079D02*
X26905978Y-53544260D01*
X26905978Y-53544260D02*
X26905978Y-53428146D01*
X26905978Y-53428146D02*
X26944682Y-53273327D01*
X26944682Y-53273327D02*
X26983387Y-53195918D01*
X26983387Y-53195918D02*
X27060797Y-53118508D01*
X27060797Y-53118508D02*
X27176911Y-53079803D01*
X27176911Y-53079803D02*
X27254320Y-53079803D01*
X27254320Y-53079803D02*
X27370435Y-53118508D01*
X27370435Y-53118508D02*
X27409139Y-53157213D01*
X27757482Y-53892603D02*
X27757482Y-53079803D01*
X28221939Y-53892603D02*
X27873597Y-53428146D01*
X28221939Y-53079803D02*
X27757482Y-53544260D01*
X29073444Y-53079803D02*
X29344377Y-53892603D01*
X29344377Y-53892603D02*
X29615311Y-53079803D01*
X30311997Y-53892603D02*
X29847540Y-53892603D01*
X30079768Y-53892603D02*
X30079768Y-53079803D01*
X30079768Y-53079803D02*
X30002359Y-53195918D01*
X30002359Y-53195918D02*
X29924949Y-53273327D01*
X29924949Y-53273327D02*
X29847540Y-53312032D01*
X30660339Y-53815194D02*
X30699044Y-53853899D01*
X30699044Y-53853899D02*
X30660339Y-53892603D01*
X30660339Y-53892603D02*
X30621635Y-53853899D01*
X30621635Y-53853899D02*
X30660339Y-53815194D01*
X30660339Y-53815194D02*
X30660339Y-53892603D01*
X31202206Y-53079803D02*
X31279616Y-53079803D01*
X31279616Y-53079803D02*
X31357025Y-53118508D01*
X31357025Y-53118508D02*
X31395730Y-53157213D01*
X31395730Y-53157213D02*
X31434435Y-53234622D01*
X31434435Y-53234622D02*
X31473140Y-53389441D01*
X31473140Y-53389441D02*
X31473140Y-53582965D01*
X31473140Y-53582965D02*
X31434435Y-53737784D01*
X31434435Y-53737784D02*
X31395730Y-53815194D01*
X31395730Y-53815194D02*
X31357025Y-53853899D01*
X31357025Y-53853899D02*
X31279616Y-53892603D01*
X31279616Y-53892603D02*
X31202206Y-53892603D01*
X31202206Y-53892603D02*
X31124797Y-53853899D01*
X31124797Y-53853899D02*
X31086092Y-53815194D01*
X31086092Y-53815194D02*
X31047387Y-53737784D01*
X31047387Y-53737784D02*
X31008683Y-53582965D01*
X31008683Y-53582965D02*
X31008683Y-53389441D01*
X31008683Y-53389441D02*
X31047387Y-53234622D01*
X31047387Y-53234622D02*
X31086092Y-53157213D01*
X31086092Y-53157213D02*
X31124797Y-53118508D01*
X31124797Y-53118508D02*
X31202206Y-53079803D01*
D10*
X16673558Y-15739638D02*
X16673558Y-17358685D01*
X16673558Y-17358685D02*
X16768796Y-17549161D01*
X16768796Y-17549161D02*
X16864034Y-17644400D01*
X16864034Y-17644400D02*
X17054510Y-17739638D01*
X17054510Y-17739638D02*
X17435463Y-17739638D01*
X17435463Y-17739638D02*
X17625939Y-17644400D01*
X17625939Y-17644400D02*
X17721177Y-17549161D01*
X17721177Y-17549161D02*
X17816415Y-17358685D01*
X17816415Y-17358685D02*
X17816415Y-15739638D01*
X18768796Y-17739638D02*
X18768796Y-15739638D01*
X18768796Y-15739638D02*
X19530701Y-15739638D01*
X19530701Y-15739638D02*
X19721177Y-15834876D01*
X19721177Y-15834876D02*
X19816415Y-15930114D01*
X19816415Y-15930114D02*
X19911653Y-16120590D01*
X19911653Y-16120590D02*
X19911653Y-16406304D01*
X19911653Y-16406304D02*
X19816415Y-16596780D01*
X19816415Y-16596780D02*
X19721177Y-16692019D01*
X19721177Y-16692019D02*
X19530701Y-16787257D01*
X19530701Y-16787257D02*
X18768796Y-16787257D01*
X21911653Y-17549161D02*
X21816415Y-17644400D01*
X21816415Y-17644400D02*
X21530701Y-17739638D01*
X21530701Y-17739638D02*
X21340225Y-17739638D01*
X21340225Y-17739638D02*
X21054510Y-17644400D01*
X21054510Y-17644400D02*
X20864034Y-17453923D01*
X20864034Y-17453923D02*
X20768796Y-17263447D01*
X20768796Y-17263447D02*
X20673558Y-16882495D01*
X20673558Y-16882495D02*
X20673558Y-16596780D01*
X20673558Y-16596780D02*
X20768796Y-16215828D01*
X20768796Y-16215828D02*
X20864034Y-16025352D01*
X20864034Y-16025352D02*
X21054510Y-15834876D01*
X21054510Y-15834876D02*
X21340225Y-15739638D01*
X21340225Y-15739638D02*
X21530701Y-15739638D01*
X21530701Y-15739638D02*
X21816415Y-15834876D01*
X21816415Y-15834876D02*
X21911653Y-15930114D01*
D11*
X113293786Y-36892603D02*
X113293786Y-36079803D01*
X113293786Y-36079803D02*
X113487310Y-36079803D01*
X113487310Y-36079803D02*
X113603424Y-36118508D01*
X113603424Y-36118508D02*
X113680834Y-36195918D01*
X113680834Y-36195918D02*
X113719539Y-36273327D01*
X113719539Y-36273327D02*
X113758243Y-36428146D01*
X113758243Y-36428146D02*
X113758243Y-36544260D01*
X113758243Y-36544260D02*
X113719539Y-36699079D01*
X113719539Y-36699079D02*
X113680834Y-36776489D01*
X113680834Y-36776489D02*
X113603424Y-36853899D01*
X113603424Y-36853899D02*
X113487310Y-36892603D01*
X113487310Y-36892603D02*
X113293786Y-36892603D01*
X114106586Y-36892603D02*
X114106586Y-36079803D01*
X114454930Y-36853899D02*
X114571044Y-36892603D01*
X114571044Y-36892603D02*
X114764568Y-36892603D01*
X114764568Y-36892603D02*
X114841977Y-36853899D01*
X114841977Y-36853899D02*
X114880682Y-36815194D01*
X114880682Y-36815194D02*
X114919387Y-36737784D01*
X114919387Y-36737784D02*
X114919387Y-36660375D01*
X114919387Y-36660375D02*
X114880682Y-36582965D01*
X114880682Y-36582965D02*
X114841977Y-36544260D01*
X114841977Y-36544260D02*
X114764568Y-36505556D01*
X114764568Y-36505556D02*
X114609749Y-36466851D01*
X114609749Y-36466851D02*
X114532339Y-36428146D01*
X114532339Y-36428146D02*
X114493634Y-36389441D01*
X114493634Y-36389441D02*
X114454930Y-36312032D01*
X114454930Y-36312032D02*
X114454930Y-36234622D01*
X114454930Y-36234622D02*
X114493634Y-36157213D01*
X114493634Y-36157213D02*
X114532339Y-36118508D01*
X114532339Y-36118508D02*
X114609749Y-36079803D01*
X114609749Y-36079803D02*
X114803272Y-36079803D01*
X114803272Y-36079803D02*
X114919387Y-36118508D01*
X115267729Y-36892603D02*
X115267729Y-36079803D01*
X115267729Y-36079803D02*
X115577367Y-36079803D01*
X115577367Y-36079803D02*
X115654777Y-36118508D01*
X115654777Y-36118508D02*
X115693482Y-36157213D01*
X115693482Y-36157213D02*
X115732186Y-36234622D01*
X115732186Y-36234622D02*
X115732186Y-36350737D01*
X115732186Y-36350737D02*
X115693482Y-36428146D01*
X115693482Y-36428146D02*
X115654777Y-36466851D01*
X115654777Y-36466851D02*
X115577367Y-36505556D01*
X115577367Y-36505556D02*
X115267729Y-36505556D01*
X116428872Y-36350737D02*
X116428872Y-36892603D01*
X116235348Y-36041099D02*
X116041825Y-36621670D01*
X116041825Y-36621670D02*
X116544986Y-36621670D01*
X87293786Y-36892603D02*
X87293786Y-36079803D01*
X87293786Y-36079803D02*
X87487310Y-36079803D01*
X87487310Y-36079803D02*
X87603424Y-36118508D01*
X87603424Y-36118508D02*
X87680834Y-36195918D01*
X87680834Y-36195918D02*
X87719539Y-36273327D01*
X87719539Y-36273327D02*
X87758243Y-36428146D01*
X87758243Y-36428146D02*
X87758243Y-36544260D01*
X87758243Y-36544260D02*
X87719539Y-36699079D01*
X87719539Y-36699079D02*
X87680834Y-36776489D01*
X87680834Y-36776489D02*
X87603424Y-36853899D01*
X87603424Y-36853899D02*
X87487310Y-36892603D01*
X87487310Y-36892603D02*
X87293786Y-36892603D01*
X88106586Y-36892603D02*
X88106586Y-36079803D01*
X88454930Y-36853899D02*
X88571044Y-36892603D01*
X88571044Y-36892603D02*
X88764568Y-36892603D01*
X88764568Y-36892603D02*
X88841977Y-36853899D01*
X88841977Y-36853899D02*
X88880682Y-36815194D01*
X88880682Y-36815194D02*
X88919387Y-36737784D01*
X88919387Y-36737784D02*
X88919387Y-36660375D01*
X88919387Y-36660375D02*
X88880682Y-36582965D01*
X88880682Y-36582965D02*
X88841977Y-36544260D01*
X88841977Y-36544260D02*
X88764568Y-36505556D01*
X88764568Y-36505556D02*
X88609749Y-36466851D01*
X88609749Y-36466851D02*
X88532339Y-36428146D01*
X88532339Y-36428146D02*
X88493634Y-36389441D01*
X88493634Y-36389441D02*
X88454930Y-36312032D01*
X88454930Y-36312032D02*
X88454930Y-36234622D01*
X88454930Y-36234622D02*
X88493634Y-36157213D01*
X88493634Y-36157213D02*
X88532339Y-36118508D01*
X88532339Y-36118508D02*
X88609749Y-36079803D01*
X88609749Y-36079803D02*
X88803272Y-36079803D01*
X88803272Y-36079803D02*
X88919387Y-36118508D01*
X89267729Y-36892603D02*
X89267729Y-36079803D01*
X89267729Y-36079803D02*
X89577367Y-36079803D01*
X89577367Y-36079803D02*
X89654777Y-36118508D01*
X89654777Y-36118508D02*
X89693482Y-36157213D01*
X89693482Y-36157213D02*
X89732186Y-36234622D01*
X89732186Y-36234622D02*
X89732186Y-36350737D01*
X89732186Y-36350737D02*
X89693482Y-36428146D01*
X89693482Y-36428146D02*
X89654777Y-36466851D01*
X89654777Y-36466851D02*
X89577367Y-36505556D01*
X89577367Y-36505556D02*
X89267729Y-36505556D01*
X90003120Y-36079803D02*
X90506282Y-36079803D01*
X90506282Y-36079803D02*
X90235348Y-36389441D01*
X90235348Y-36389441D02*
X90351463Y-36389441D01*
X90351463Y-36389441D02*
X90428872Y-36428146D01*
X90428872Y-36428146D02*
X90467577Y-36466851D01*
X90467577Y-36466851D02*
X90506282Y-36544260D01*
X90506282Y-36544260D02*
X90506282Y-36737784D01*
X90506282Y-36737784D02*
X90467577Y-36815194D01*
X90467577Y-36815194D02*
X90428872Y-36853899D01*
X90428872Y-36853899D02*
X90351463Y-36892603D01*
X90351463Y-36892603D02*
X90119234Y-36892603D01*
X90119234Y-36892603D02*
X90041825Y-36853899D01*
X90041825Y-36853899D02*
X90003120Y-36815194D01*
X61293786Y-36892603D02*
X61293786Y-36079803D01*
X61293786Y-36079803D02*
X61487310Y-36079803D01*
X61487310Y-36079803D02*
X61603424Y-36118508D01*
X61603424Y-36118508D02*
X61680834Y-36195918D01*
X61680834Y-36195918D02*
X61719539Y-36273327D01*
X61719539Y-36273327D02*
X61758243Y-36428146D01*
X61758243Y-36428146D02*
X61758243Y-36544260D01*
X61758243Y-36544260D02*
X61719539Y-36699079D01*
X61719539Y-36699079D02*
X61680834Y-36776489D01*
X61680834Y-36776489D02*
X61603424Y-36853899D01*
X61603424Y-36853899D02*
X61487310Y-36892603D01*
X61487310Y-36892603D02*
X61293786Y-36892603D01*
X62106586Y-36892603D02*
X62106586Y-36079803D01*
X62454930Y-36853899D02*
X62571044Y-36892603D01*
X62571044Y-36892603D02*
X62764568Y-36892603D01*
X62764568Y-36892603D02*
X62841977Y-36853899D01*
X62841977Y-36853899D02*
X62880682Y-36815194D01*
X62880682Y-36815194D02*
X62919387Y-36737784D01*
X62919387Y-36737784D02*
X62919387Y-36660375D01*
X62919387Y-36660375D02*
X62880682Y-36582965D01*
X62880682Y-36582965D02*
X62841977Y-36544260D01*
X62841977Y-36544260D02*
X62764568Y-36505556D01*
X62764568Y-36505556D02*
X62609749Y-36466851D01*
X62609749Y-36466851D02*
X62532339Y-36428146D01*
X62532339Y-36428146D02*
X62493634Y-36389441D01*
X62493634Y-36389441D02*
X62454930Y-36312032D01*
X62454930Y-36312032D02*
X62454930Y-36234622D01*
X62454930Y-36234622D02*
X62493634Y-36157213D01*
X62493634Y-36157213D02*
X62532339Y-36118508D01*
X62532339Y-36118508D02*
X62609749Y-36079803D01*
X62609749Y-36079803D02*
X62803272Y-36079803D01*
X62803272Y-36079803D02*
X62919387Y-36118508D01*
X63267729Y-36892603D02*
X63267729Y-36079803D01*
X63267729Y-36079803D02*
X63577367Y-36079803D01*
X63577367Y-36079803D02*
X63654777Y-36118508D01*
X63654777Y-36118508D02*
X63693482Y-36157213D01*
X63693482Y-36157213D02*
X63732186Y-36234622D01*
X63732186Y-36234622D02*
X63732186Y-36350737D01*
X63732186Y-36350737D02*
X63693482Y-36428146D01*
X63693482Y-36428146D02*
X63654777Y-36466851D01*
X63654777Y-36466851D02*
X63577367Y-36505556D01*
X63577367Y-36505556D02*
X63267729Y-36505556D01*
X64041825Y-36157213D02*
X64080529Y-36118508D01*
X64080529Y-36118508D02*
X64157939Y-36079803D01*
X64157939Y-36079803D02*
X64351463Y-36079803D01*
X64351463Y-36079803D02*
X64428872Y-36118508D01*
X64428872Y-36118508D02*
X64467577Y-36157213D01*
X64467577Y-36157213D02*
X64506282Y-36234622D01*
X64506282Y-36234622D02*
X64506282Y-36312032D01*
X64506282Y-36312032D02*
X64467577Y-36428146D01*
X64467577Y-36428146D02*
X64003120Y-36892603D01*
X64003120Y-36892603D02*
X64506282Y-36892603D01*
X35293786Y-36892603D02*
X35293786Y-36079803D01*
X35293786Y-36079803D02*
X35487310Y-36079803D01*
X35487310Y-36079803D02*
X35603424Y-36118508D01*
X35603424Y-36118508D02*
X35680834Y-36195918D01*
X35680834Y-36195918D02*
X35719539Y-36273327D01*
X35719539Y-36273327D02*
X35758243Y-36428146D01*
X35758243Y-36428146D02*
X35758243Y-36544260D01*
X35758243Y-36544260D02*
X35719539Y-36699079D01*
X35719539Y-36699079D02*
X35680834Y-36776489D01*
X35680834Y-36776489D02*
X35603424Y-36853899D01*
X35603424Y-36853899D02*
X35487310Y-36892603D01*
X35487310Y-36892603D02*
X35293786Y-36892603D01*
X36106586Y-36892603D02*
X36106586Y-36079803D01*
X36454930Y-36853899D02*
X36571044Y-36892603D01*
X36571044Y-36892603D02*
X36764568Y-36892603D01*
X36764568Y-36892603D02*
X36841977Y-36853899D01*
X36841977Y-36853899D02*
X36880682Y-36815194D01*
X36880682Y-36815194D02*
X36919387Y-36737784D01*
X36919387Y-36737784D02*
X36919387Y-36660375D01*
X36919387Y-36660375D02*
X36880682Y-36582965D01*
X36880682Y-36582965D02*
X36841977Y-36544260D01*
X36841977Y-36544260D02*
X36764568Y-36505556D01*
X36764568Y-36505556D02*
X36609749Y-36466851D01*
X36609749Y-36466851D02*
X36532339Y-36428146D01*
X36532339Y-36428146D02*
X36493634Y-36389441D01*
X36493634Y-36389441D02*
X36454930Y-36312032D01*
X36454930Y-36312032D02*
X36454930Y-36234622D01*
X36454930Y-36234622D02*
X36493634Y-36157213D01*
X36493634Y-36157213D02*
X36532339Y-36118508D01*
X36532339Y-36118508D02*
X36609749Y-36079803D01*
X36609749Y-36079803D02*
X36803272Y-36079803D01*
X36803272Y-36079803D02*
X36919387Y-36118508D01*
X37267729Y-36892603D02*
X37267729Y-36079803D01*
X37267729Y-36079803D02*
X37577367Y-36079803D01*
X37577367Y-36079803D02*
X37654777Y-36118508D01*
X37654777Y-36118508D02*
X37693482Y-36157213D01*
X37693482Y-36157213D02*
X37732186Y-36234622D01*
X37732186Y-36234622D02*
X37732186Y-36350737D01*
X37732186Y-36350737D02*
X37693482Y-36428146D01*
X37693482Y-36428146D02*
X37654777Y-36466851D01*
X37654777Y-36466851D02*
X37577367Y-36505556D01*
X37577367Y-36505556D02*
X37267729Y-36505556D01*
X38506282Y-36892603D02*
X38041825Y-36892603D01*
X38274053Y-36892603D02*
X38274053Y-36079803D01*
X38274053Y-36079803D02*
X38196644Y-36195918D01*
X38196644Y-36195918D02*
X38119234Y-36273327D01*
X38119234Y-36273327D02*
X38041825Y-36312032D01*
D12*
X126010337Y-24609457D02*
X126010337Y-27038028D01*
X126010337Y-27038028D02*
X126153194Y-27323742D01*
X126153194Y-27323742D02*
X126296052Y-27466600D01*
X126296052Y-27466600D02*
X126581766Y-27609457D01*
X126581766Y-27609457D02*
X127153194Y-27609457D01*
X127153194Y-27609457D02*
X127438909Y-27466600D01*
X127438909Y-27466600D02*
X127581766Y-27323742D01*
X127581766Y-27323742D02*
X127724623Y-27038028D01*
X127724623Y-27038028D02*
X127724623Y-24609457D01*
X129153194Y-27609457D02*
X129153194Y-24609457D01*
X129153194Y-24609457D02*
X130296051Y-24609457D01*
X130296051Y-24609457D02*
X130581766Y-24752314D01*
X130581766Y-24752314D02*
X130724623Y-24895171D01*
X130724623Y-24895171D02*
X130867480Y-25180885D01*
X130867480Y-25180885D02*
X130867480Y-25609457D01*
X130867480Y-25609457D02*
X130724623Y-25895171D01*
X130724623Y-25895171D02*
X130581766Y-26038028D01*
X130581766Y-26038028D02*
X130296051Y-26180885D01*
X130296051Y-26180885D02*
X129153194Y-26180885D01*
X104010337Y-27609457D02*
X104010337Y-24609457D01*
X104010337Y-24609457D02*
X105010337Y-26752314D01*
X105010337Y-26752314D02*
X106010337Y-24609457D01*
X106010337Y-24609457D02*
X106010337Y-27609457D01*
X107010337Y-24609457D02*
X108010337Y-27609457D01*
X108010337Y-27609457D02*
X109010337Y-24609457D01*
X115010337Y-27609457D02*
X115010337Y-24609457D01*
X115010337Y-24609457D02*
X115724623Y-24609457D01*
X115724623Y-24609457D02*
X116153194Y-24752314D01*
X116153194Y-24752314D02*
X116438909Y-25038028D01*
X116438909Y-25038028D02*
X116581766Y-25323742D01*
X116581766Y-25323742D02*
X116724623Y-25895171D01*
X116724623Y-25895171D02*
X116724623Y-26323742D01*
X116724623Y-26323742D02*
X116581766Y-26895171D01*
X116581766Y-26895171D02*
X116438909Y-27180885D01*
X116438909Y-27180885D02*
X116153194Y-27466600D01*
X116153194Y-27466600D02*
X115724623Y-27609457D01*
X115724623Y-27609457D02*
X115010337Y-27609457D01*
X118010337Y-27609457D02*
X118010337Y-24609457D01*
X118010337Y-24609457D02*
X119724623Y-27609457D01*
X119724623Y-27609457D02*
X119724623Y-24609457D01*
D13*
X126666667Y-20407200D02*
X126809524Y-20454819D01*
X126809524Y-20454819D02*
X127047619Y-20454819D01*
X127047619Y-20454819D02*
X127142857Y-20407200D01*
X127142857Y-20407200D02*
X127190476Y-20359580D01*
X127190476Y-20359580D02*
X127238095Y-20264342D01*
X127238095Y-20264342D02*
X127238095Y-20169104D01*
X127238095Y-20169104D02*
X127190476Y-20073866D01*
X127190476Y-20073866D02*
X127142857Y-20026247D01*
X127142857Y-20026247D02*
X127047619Y-19978628D01*
X127047619Y-19978628D02*
X126857143Y-19931009D01*
X126857143Y-19931009D02*
X126761905Y-19883390D01*
X126761905Y-19883390D02*
X126714286Y-19835771D01*
X126714286Y-19835771D02*
X126666667Y-19740533D01*
X126666667Y-19740533D02*
X126666667Y-19645295D01*
X126666667Y-19645295D02*
X126714286Y-19550057D01*
X126714286Y-19550057D02*
X126761905Y-19502438D01*
X126761905Y-19502438D02*
X126857143Y-19454819D01*
X126857143Y-19454819D02*
X127095238Y-19454819D01*
X127095238Y-19454819D02*
X127238095Y-19502438D01*
X127571429Y-19454819D02*
X127809524Y-20454819D01*
X127809524Y-20454819D02*
X128000000Y-19740533D01*
X128000000Y-19740533D02*
X128190476Y-20454819D01*
X128190476Y-20454819D02*
X128428572Y-19454819D01*
X128714286Y-19454819D02*
X129333333Y-19454819D01*
X129333333Y-19454819D02*
X129000000Y-19835771D01*
X129000000Y-19835771D02*
X129142857Y-19835771D01*
X129142857Y-19835771D02*
X129238095Y-19883390D01*
X129238095Y-19883390D02*
X129285714Y-19931009D01*
X129285714Y-19931009D02*
X129333333Y-20026247D01*
X129333333Y-20026247D02*
X129333333Y-20264342D01*
X129333333Y-20264342D02*
X129285714Y-20359580D01*
X129285714Y-20359580D02*
X129238095Y-20407200D01*
X129238095Y-20407200D02*
X129142857Y-20454819D01*
X129142857Y-20454819D02*
X128857143Y-20454819D01*
X128857143Y-20454819D02*
X128761905Y-20407200D01*
X128761905Y-20407200D02*
X128714286Y-20359580D01*
X16619047Y-20359580D02*
X16571428Y-20407200D01*
X16571428Y-20407200D02*
X16428571Y-20454819D01*
X16428571Y-20454819D02*
X16333333Y-20454819D01*
X16333333Y-20454819D02*
X16190476Y-20407200D01*
X16190476Y-20407200D02*
X16095238Y-20311961D01*
X16095238Y-20311961D02*
X16047619Y-20216723D01*
X16047619Y-20216723D02*
X16000000Y-20026247D01*
X16000000Y-20026247D02*
X16000000Y-19883390D01*
X16000000Y-19883390D02*
X16047619Y-19692914D01*
X16047619Y-19692914D02*
X16095238Y-19597676D01*
X16095238Y-19597676D02*
X16190476Y-19502438D01*
X16190476Y-19502438D02*
X16333333Y-19454819D01*
X16333333Y-19454819D02*
X16428571Y-19454819D01*
X16428571Y-19454819D02*
X16571428Y-19502438D01*
X16571428Y-19502438D02*
X16619047Y-19550057D01*
X17000000Y-19550057D02*
X17047619Y-19502438D01*
X17047619Y-19502438D02*
X17142857Y-19454819D01*
X17142857Y-19454819D02*
X17380952Y-19454819D01*
X17380952Y-19454819D02*
X17476190Y-19502438D01*
X17476190Y-19502438D02*
X17523809Y-19550057D01*
X17523809Y-19550057D02*
X17571428Y-19645295D01*
X17571428Y-19645295D02*
X17571428Y-19740533D01*
X17571428Y-19740533D02*
X17523809Y-19883390D01*
X17523809Y-19883390D02*
X16952381Y-20454819D01*
X16952381Y-20454819D02*
X17571428Y-20454819D01*
X19285714Y-20454819D02*
X18714286Y-20454819D01*
X19000000Y-20454819D02*
X19000000Y-19454819D01*
X19000000Y-19454819D02*
X18904762Y-19597676D01*
X18904762Y-19597676D02*
X18809524Y-19692914D01*
X18809524Y-19692914D02*
X18714286Y-19740533D01*
X19904762Y-19454819D02*
X20000000Y-19454819D01*
X20000000Y-19454819D02*
X20095238Y-19502438D01*
X20095238Y-19502438D02*
X20142857Y-19550057D01*
X20142857Y-19550057D02*
X20190476Y-19645295D01*
X20190476Y-19645295D02*
X20238095Y-19835771D01*
X20238095Y-19835771D02*
X20238095Y-20073866D01*
X20238095Y-20073866D02*
X20190476Y-20264342D01*
X20190476Y-20264342D02*
X20142857Y-20359580D01*
X20142857Y-20359580D02*
X20095238Y-20407200D01*
X20095238Y-20407200D02*
X20000000Y-20454819D01*
X20000000Y-20454819D02*
X19904762Y-20454819D01*
X19904762Y-20454819D02*
X19809524Y-20407200D01*
X19809524Y-20407200D02*
X19761905Y-20359580D01*
X19761905Y-20359580D02*
X19714286Y-20264342D01*
X19714286Y-20264342D02*
X19666667Y-20073866D01*
X19666667Y-20073866D02*
X19666667Y-19835771D01*
X19666667Y-19835771D02*
X19714286Y-19645295D01*
X19714286Y-19645295D02*
X19761905Y-19550057D01*
X19761905Y-19550057D02*
X19809524Y-19502438D01*
X19809524Y-19502438D02*
X19904762Y-19454819D01*
X21095238Y-19788152D02*
X21095238Y-20454819D01*
X20666667Y-19788152D02*
X20666667Y-20311961D01*
X20666667Y-20311961D02*
X20714286Y-20407200D01*
X20714286Y-20407200D02*
X20809524Y-20454819D01*
X20809524Y-20454819D02*
X20952381Y-20454819D01*
X20952381Y-20454819D02*
X21047619Y-20407200D01*
X21047619Y-20407200D02*
X21095238Y-20359580D01*
X21904762Y-19931009D02*
X21571429Y-19931009D01*
X21571429Y-20454819D02*
X21571429Y-19454819D01*
X21571429Y-19454819D02*
X22047619Y-19454819D01*
X35476190Y-26454819D02*
X35476190Y-27264342D01*
X35476190Y-27264342D02*
X35523809Y-27359580D01*
X35523809Y-27359580D02*
X35571428Y-27407200D01*
X35571428Y-27407200D02*
X35666666Y-27454819D01*
X35666666Y-27454819D02*
X35857142Y-27454819D01*
X35857142Y-27454819D02*
X35952380Y-27407200D01*
X35952380Y-27407200D02*
X35999999Y-27359580D01*
X35999999Y-27359580D02*
X36047618Y-27264342D01*
X36047618Y-27264342D02*
X36047618Y-26454819D01*
X36476190Y-26550057D02*
X36523809Y-26502438D01*
X36523809Y-26502438D02*
X36619047Y-26454819D01*
X36619047Y-26454819D02*
X36857142Y-26454819D01*
X36857142Y-26454819D02*
X36952380Y-26502438D01*
X36952380Y-26502438D02*
X36999999Y-26550057D01*
X36999999Y-26550057D02*
X37047618Y-26645295D01*
X37047618Y-26645295D02*
X37047618Y-26740533D01*
X37047618Y-26740533D02*
X36999999Y-26883390D01*
X36999999Y-26883390D02*
X36428571Y-27454819D01*
X36428571Y-27454819D02*
X37047618Y-27454819D01*
X38238095Y-27454819D02*
X38238095Y-26454819D01*
X38238095Y-26454819D02*
X38571428Y-27169104D01*
X38571428Y-27169104D02*
X38904761Y-26454819D01*
X38904761Y-26454819D02*
X38904761Y-27454819D01*
X39333333Y-27169104D02*
X39809523Y-27169104D01*
X39238095Y-27454819D02*
X39571428Y-26454819D01*
X39571428Y-26454819D02*
X39904761Y-27454819D01*
X40142857Y-26454819D02*
X40809523Y-27454819D01*
X40809523Y-26454819D02*
X40142857Y-27454819D01*
X41095238Y-26454819D02*
X41761904Y-26454819D01*
X41761904Y-26454819D02*
X41333333Y-27454819D01*
X42095238Y-26550057D02*
X42142857Y-26502438D01*
X42142857Y-26502438D02*
X42238095Y-26454819D01*
X42238095Y-26454819D02*
X42476190Y-26454819D01*
X42476190Y-26454819D02*
X42571428Y-26502438D01*
X42571428Y-26502438D02*
X42619047Y-26550057D01*
X42619047Y-26550057D02*
X42666666Y-26645295D01*
X42666666Y-26645295D02*
X42666666Y-26740533D01*
X42666666Y-26740533D02*
X42619047Y-26883390D01*
X42619047Y-26883390D02*
X42047619Y-27454819D01*
X42047619Y-27454819D02*
X42666666Y-27454819D01*
X43619047Y-27454819D02*
X43047619Y-27454819D01*
X43333333Y-27454819D02*
X43333333Y-26454819D01*
X43333333Y-26454819D02*
X43238095Y-26597676D01*
X43238095Y-26597676D02*
X43142857Y-26692914D01*
X43142857Y-26692914D02*
X43047619Y-26740533D01*
X44095238Y-27454819D02*
X44285714Y-27454819D01*
X44285714Y-27454819D02*
X44380952Y-27407200D01*
X44380952Y-27407200D02*
X44428571Y-27359580D01*
X44428571Y-27359580D02*
X44523809Y-27216723D01*
X44523809Y-27216723D02*
X44571428Y-27026247D01*
X44571428Y-27026247D02*
X44571428Y-26645295D01*
X44571428Y-26645295D02*
X44523809Y-26550057D01*
X44523809Y-26550057D02*
X44476190Y-26502438D01*
X44476190Y-26502438D02*
X44380952Y-26454819D01*
X44380952Y-26454819D02*
X44190476Y-26454819D01*
X44190476Y-26454819D02*
X44095238Y-26502438D01*
X44095238Y-26502438D02*
X44047619Y-26550057D01*
X44047619Y-26550057D02*
X44000000Y-26645295D01*
X44000000Y-26645295D02*
X44000000Y-26883390D01*
X44000000Y-26883390D02*
X44047619Y-26978628D01*
X44047619Y-26978628D02*
X44095238Y-27026247D01*
X44095238Y-27026247D02*
X44190476Y-27073866D01*
X44190476Y-27073866D02*
X44380952Y-27073866D01*
X44380952Y-27073866D02*
X44476190Y-27026247D01*
X44476190Y-27026247D02*
X44523809Y-26978628D01*
X44523809Y-26978628D02*
X44571428Y-26883390D01*
X16142856Y-31359580D02*
X16095237Y-31407200D01*
X16095237Y-31407200D02*
X15952380Y-31454819D01*
X15952380Y-31454819D02*
X15857142Y-31454819D01*
X15857142Y-31454819D02*
X15714285Y-31407200D01*
X15714285Y-31407200D02*
X15619047Y-31311961D01*
X15619047Y-31311961D02*
X15571428Y-31216723D01*
X15571428Y-31216723D02*
X15523809Y-31026247D01*
X15523809Y-31026247D02*
X15523809Y-30883390D01*
X15523809Y-30883390D02*
X15571428Y-30692914D01*
X15571428Y-30692914D02*
X15619047Y-30597676D01*
X15619047Y-30597676D02*
X15714285Y-30502438D01*
X15714285Y-30502438D02*
X15857142Y-30454819D01*
X15857142Y-30454819D02*
X15952380Y-30454819D01*
X15952380Y-30454819D02*
X16095237Y-30502438D01*
X16095237Y-30502438D02*
X16142856Y-30550057D01*
X17095237Y-31454819D02*
X16523809Y-31454819D01*
X16809523Y-31454819D02*
X16809523Y-30454819D01*
X16809523Y-30454819D02*
X16714285Y-30597676D01*
X16714285Y-30597676D02*
X16619047Y-30692914D01*
X16619047Y-30692914D02*
X16523809Y-30740533D01*
X18809523Y-31454819D02*
X18238095Y-31454819D01*
X18523809Y-31454819D02*
X18523809Y-30454819D01*
X18523809Y-30454819D02*
X18428571Y-30597676D01*
X18428571Y-30597676D02*
X18333333Y-30692914D01*
X18333333Y-30692914D02*
X18238095Y-30740533D01*
X19428571Y-30454819D02*
X19523809Y-30454819D01*
X19523809Y-30454819D02*
X19619047Y-30502438D01*
X19619047Y-30502438D02*
X19666666Y-30550057D01*
X19666666Y-30550057D02*
X19714285Y-30645295D01*
X19714285Y-30645295D02*
X19761904Y-30835771D01*
X19761904Y-30835771D02*
X19761904Y-31073866D01*
X19761904Y-31073866D02*
X19714285Y-31264342D01*
X19714285Y-31264342D02*
X19666666Y-31359580D01*
X19666666Y-31359580D02*
X19619047Y-31407200D01*
X19619047Y-31407200D02*
X19523809Y-31454819D01*
X19523809Y-31454819D02*
X19428571Y-31454819D01*
X19428571Y-31454819D02*
X19333333Y-31407200D01*
X19333333Y-31407200D02*
X19285714Y-31359580D01*
X19285714Y-31359580D02*
X19238095Y-31264342D01*
X19238095Y-31264342D02*
X19190476Y-31073866D01*
X19190476Y-31073866D02*
X19190476Y-30835771D01*
X19190476Y-30835771D02*
X19238095Y-30645295D01*
X19238095Y-30645295D02*
X19285714Y-30550057D01*
X19285714Y-30550057D02*
X19333333Y-30502438D01*
X19333333Y-30502438D02*
X19428571Y-30454819D01*
X20380952Y-30454819D02*
X20476190Y-30454819D01*
X20476190Y-30454819D02*
X20571428Y-30502438D01*
X20571428Y-30502438D02*
X20619047Y-30550057D01*
X20619047Y-30550057D02*
X20666666Y-30645295D01*
X20666666Y-30645295D02*
X20714285Y-30835771D01*
X20714285Y-30835771D02*
X20714285Y-31073866D01*
X20714285Y-31073866D02*
X20666666Y-31264342D01*
X20666666Y-31264342D02*
X20619047Y-31359580D01*
X20619047Y-31359580D02*
X20571428Y-31407200D01*
X20571428Y-31407200D02*
X20476190Y-31454819D01*
X20476190Y-31454819D02*
X20380952Y-31454819D01*
X20380952Y-31454819D02*
X20285714Y-31407200D01*
X20285714Y-31407200D02*
X20238095Y-31359580D01*
X20238095Y-31359580D02*
X20190476Y-31264342D01*
X20190476Y-31264342D02*
X20142857Y-31073866D01*
X20142857Y-31073866D02*
X20142857Y-30835771D01*
X20142857Y-30835771D02*
X20190476Y-30645295D01*
X20190476Y-30645295D02*
X20238095Y-30550057D01*
X20238095Y-30550057D02*
X20285714Y-30502438D01*
X20285714Y-30502438D02*
X20380952Y-30454819D01*
X21142857Y-30788152D02*
X21142857Y-31454819D01*
X21142857Y-30883390D02*
X21190476Y-30835771D01*
X21190476Y-30835771D02*
X21285714Y-30788152D01*
X21285714Y-30788152D02*
X21428571Y-30788152D01*
X21428571Y-30788152D02*
X21523809Y-30835771D01*
X21523809Y-30835771D02*
X21571428Y-30931009D01*
X21571428Y-30931009D02*
X21571428Y-31454819D01*
X22380952Y-30931009D02*
X22047619Y-30931009D01*
X22047619Y-31454819D02*
X22047619Y-30454819D01*
X22047619Y-30454819D02*
X22523809Y-30454819D01*
X26285237Y-25247319D02*
X25951904Y-24771128D01*
X25713809Y-25247319D02*
X25713809Y-24247319D01*
X25713809Y-24247319D02*
X26094761Y-24247319D01*
X26094761Y-24247319D02*
X26189999Y-24294938D01*
X26189999Y-24294938D02*
X26237618Y-24342557D01*
X26237618Y-24342557D02*
X26285237Y-24437795D01*
X26285237Y-24437795D02*
X26285237Y-24580652D01*
X26285237Y-24580652D02*
X26237618Y-24675890D01*
X26237618Y-24675890D02*
X26189999Y-24723509D01*
X26189999Y-24723509D02*
X26094761Y-24771128D01*
X26094761Y-24771128D02*
X25713809Y-24771128D01*
X27237618Y-25247319D02*
X26666190Y-25247319D01*
X26951904Y-25247319D02*
X26951904Y-24247319D01*
X26951904Y-24247319D02*
X26856666Y-24390176D01*
X26856666Y-24390176D02*
X26761428Y-24485414D01*
X26761428Y-24485414D02*
X26666190Y-24533033D01*
X28951904Y-25247319D02*
X28380476Y-25247319D01*
X28666190Y-25247319D02*
X28666190Y-24247319D01*
X28666190Y-24247319D02*
X28570952Y-24390176D01*
X28570952Y-24390176D02*
X28475714Y-24485414D01*
X28475714Y-24485414D02*
X28380476Y-24533033D01*
X29570952Y-24247319D02*
X29666190Y-24247319D01*
X29666190Y-24247319D02*
X29761428Y-24294938D01*
X29761428Y-24294938D02*
X29809047Y-24342557D01*
X29809047Y-24342557D02*
X29856666Y-24437795D01*
X29856666Y-24437795D02*
X29904285Y-24628271D01*
X29904285Y-24628271D02*
X29904285Y-24866366D01*
X29904285Y-24866366D02*
X29856666Y-25056842D01*
X29856666Y-25056842D02*
X29809047Y-25152080D01*
X29809047Y-25152080D02*
X29761428Y-25199700D01*
X29761428Y-25199700D02*
X29666190Y-25247319D01*
X29666190Y-25247319D02*
X29570952Y-25247319D01*
X29570952Y-25247319D02*
X29475714Y-25199700D01*
X29475714Y-25199700D02*
X29428095Y-25152080D01*
X29428095Y-25152080D02*
X29380476Y-25056842D01*
X29380476Y-25056842D02*
X29332857Y-24866366D01*
X29332857Y-24866366D02*
X29332857Y-24628271D01*
X29332857Y-24628271D02*
X29380476Y-24437795D01*
X29380476Y-24437795D02*
X29428095Y-24342557D01*
X29428095Y-24342557D02*
X29475714Y-24294938D01*
X29475714Y-24294938D02*
X29570952Y-24247319D01*
X30332857Y-25247319D02*
X30332857Y-24247319D01*
X30428095Y-24866366D02*
X30713809Y-25247319D01*
X30713809Y-24580652D02*
X30332857Y-24961604D01*
X84095237Y-22247319D02*
X83761904Y-21771128D01*
X83523809Y-22247319D02*
X83523809Y-21247319D01*
X83523809Y-21247319D02*
X83904761Y-21247319D01*
X83904761Y-21247319D02*
X83999999Y-21294938D01*
X83999999Y-21294938D02*
X84047618Y-21342557D01*
X84047618Y-21342557D02*
X84095237Y-21437795D01*
X84095237Y-21437795D02*
X84095237Y-21580652D01*
X84095237Y-21580652D02*
X84047618Y-21675890D01*
X84047618Y-21675890D02*
X83999999Y-21723509D01*
X83999999Y-21723509D02*
X83904761Y-21771128D01*
X83904761Y-21771128D02*
X83523809Y-21771128D01*
X84952380Y-21580652D02*
X84952380Y-22247319D01*
X84714285Y-21199700D02*
X84476190Y-21913985D01*
X84476190Y-21913985D02*
X85095237Y-21913985D01*
X86761904Y-22247319D02*
X86190476Y-22247319D01*
X86476190Y-22247319D02*
X86476190Y-21247319D01*
X86476190Y-21247319D02*
X86380952Y-21390176D01*
X86380952Y-21390176D02*
X86285714Y-21485414D01*
X86285714Y-21485414D02*
X86190476Y-21533033D01*
X87380952Y-21247319D02*
X87476190Y-21247319D01*
X87476190Y-21247319D02*
X87571428Y-21294938D01*
X87571428Y-21294938D02*
X87619047Y-21342557D01*
X87619047Y-21342557D02*
X87666666Y-21437795D01*
X87666666Y-21437795D02*
X87714285Y-21628271D01*
X87714285Y-21628271D02*
X87714285Y-21866366D01*
X87714285Y-21866366D02*
X87666666Y-22056842D01*
X87666666Y-22056842D02*
X87619047Y-22152080D01*
X87619047Y-22152080D02*
X87571428Y-22199700D01*
X87571428Y-22199700D02*
X87476190Y-22247319D01*
X87476190Y-22247319D02*
X87380952Y-22247319D01*
X87380952Y-22247319D02*
X87285714Y-22199700D01*
X87285714Y-22199700D02*
X87238095Y-22152080D01*
X87238095Y-22152080D02*
X87190476Y-22056842D01*
X87190476Y-22056842D02*
X87142857Y-21866366D01*
X87142857Y-21866366D02*
X87142857Y-21628271D01*
X87142857Y-21628271D02*
X87190476Y-21437795D01*
X87190476Y-21437795D02*
X87238095Y-21342557D01*
X87238095Y-21342557D02*
X87285714Y-21294938D01*
X87285714Y-21294938D02*
X87380952Y-21247319D01*
X88142857Y-22247319D02*
X88142857Y-21247319D01*
X88238095Y-21866366D02*
X88523809Y-22247319D01*
X88523809Y-21580652D02*
X88142857Y-21961604D01*
X19666666Y-47454819D02*
X19666666Y-48169104D01*
X19666666Y-48169104D02*
X19619047Y-48311961D01*
X19619047Y-48311961D02*
X19523809Y-48407200D01*
X19523809Y-48407200D02*
X19380952Y-48454819D01*
X19380952Y-48454819D02*
X19285714Y-48454819D01*
X20666666Y-48454819D02*
X20095238Y-48454819D01*
X20380952Y-48454819D02*
X20380952Y-47454819D01*
X20380952Y-47454819D02*
X20285714Y-47597676D01*
X20285714Y-47597676D02*
X20190476Y-47692914D01*
X20190476Y-47692914D02*
X20095238Y-47740533D01*
X104916667Y-20407200D02*
X105059524Y-20454819D01*
X105059524Y-20454819D02*
X105297619Y-20454819D01*
X105297619Y-20454819D02*
X105392857Y-20407200D01*
X105392857Y-20407200D02*
X105440476Y-20359580D01*
X105440476Y-20359580D02*
X105488095Y-20264342D01*
X105488095Y-20264342D02*
X105488095Y-20169104D01*
X105488095Y-20169104D02*
X105440476Y-20073866D01*
X105440476Y-20073866D02*
X105392857Y-20026247D01*
X105392857Y-20026247D02*
X105297619Y-19978628D01*
X105297619Y-19978628D02*
X105107143Y-19931009D01*
X105107143Y-19931009D02*
X105011905Y-19883390D01*
X105011905Y-19883390D02*
X104964286Y-19835771D01*
X104964286Y-19835771D02*
X104916667Y-19740533D01*
X104916667Y-19740533D02*
X104916667Y-19645295D01*
X104916667Y-19645295D02*
X104964286Y-19550057D01*
X104964286Y-19550057D02*
X105011905Y-19502438D01*
X105011905Y-19502438D02*
X105107143Y-19454819D01*
X105107143Y-19454819D02*
X105345238Y-19454819D01*
X105345238Y-19454819D02*
X105488095Y-19502438D01*
X105821429Y-19454819D02*
X106059524Y-20454819D01*
X106059524Y-20454819D02*
X106250000Y-19740533D01*
X106250000Y-19740533D02*
X106440476Y-20454819D01*
X106440476Y-20454819D02*
X106678572Y-19454819D01*
X107583333Y-20454819D02*
X107011905Y-20454819D01*
X107297619Y-20454819D02*
X107297619Y-19454819D01*
X107297619Y-19454819D02*
X107202381Y-19597676D01*
X107202381Y-19597676D02*
X107107143Y-19692914D01*
X107107143Y-19692914D02*
X107011905Y-19740533D01*
X84095237Y-26247319D02*
X83761904Y-25771128D01*
X83523809Y-26247319D02*
X83523809Y-25247319D01*
X83523809Y-25247319D02*
X83904761Y-25247319D01*
X83904761Y-25247319D02*
X83999999Y-25294938D01*
X83999999Y-25294938D02*
X84047618Y-25342557D01*
X84047618Y-25342557D02*
X84095237Y-25437795D01*
X84095237Y-25437795D02*
X84095237Y-25580652D01*
X84095237Y-25580652D02*
X84047618Y-25675890D01*
X84047618Y-25675890D02*
X83999999Y-25723509D01*
X83999999Y-25723509D02*
X83904761Y-25771128D01*
X83904761Y-25771128D02*
X83523809Y-25771128D01*
X84999999Y-25247319D02*
X84523809Y-25247319D01*
X84523809Y-25247319D02*
X84476190Y-25723509D01*
X84476190Y-25723509D02*
X84523809Y-25675890D01*
X84523809Y-25675890D02*
X84619047Y-25628271D01*
X84619047Y-25628271D02*
X84857142Y-25628271D01*
X84857142Y-25628271D02*
X84952380Y-25675890D01*
X84952380Y-25675890D02*
X84999999Y-25723509D01*
X84999999Y-25723509D02*
X85047618Y-25818747D01*
X85047618Y-25818747D02*
X85047618Y-26056842D01*
X85047618Y-26056842D02*
X84999999Y-26152080D01*
X84999999Y-26152080D02*
X84952380Y-26199700D01*
X84952380Y-26199700D02*
X84857142Y-26247319D01*
X84857142Y-26247319D02*
X84619047Y-26247319D01*
X84619047Y-26247319D02*
X84523809Y-26199700D01*
X84523809Y-26199700D02*
X84476190Y-26152080D01*
X86761904Y-26247319D02*
X86190476Y-26247319D01*
X86476190Y-26247319D02*
X86476190Y-25247319D01*
X86476190Y-25247319D02*
X86380952Y-25390176D01*
X86380952Y-25390176D02*
X86285714Y-25485414D01*
X86285714Y-25485414D02*
X86190476Y-25533033D01*
X87380952Y-25247319D02*
X87476190Y-25247319D01*
X87476190Y-25247319D02*
X87571428Y-25294938D01*
X87571428Y-25294938D02*
X87619047Y-25342557D01*
X87619047Y-25342557D02*
X87666666Y-25437795D01*
X87666666Y-25437795D02*
X87714285Y-25628271D01*
X87714285Y-25628271D02*
X87714285Y-25866366D01*
X87714285Y-25866366D02*
X87666666Y-26056842D01*
X87666666Y-26056842D02*
X87619047Y-26152080D01*
X87619047Y-26152080D02*
X87571428Y-26199700D01*
X87571428Y-26199700D02*
X87476190Y-26247319D01*
X87476190Y-26247319D02*
X87380952Y-26247319D01*
X87380952Y-26247319D02*
X87285714Y-26199700D01*
X87285714Y-26199700D02*
X87238095Y-26152080D01*
X87238095Y-26152080D02*
X87190476Y-26056842D01*
X87190476Y-26056842D02*
X87142857Y-25866366D01*
X87142857Y-25866366D02*
X87142857Y-25628271D01*
X87142857Y-25628271D02*
X87190476Y-25437795D01*
X87190476Y-25437795D02*
X87238095Y-25342557D01*
X87238095Y-25342557D02*
X87285714Y-25294938D01*
X87285714Y-25294938D02*
X87380952Y-25247319D01*
X88142857Y-26247319D02*
X88142857Y-25247319D01*
X88238095Y-25866366D02*
X88523809Y-26247319D01*
X88523809Y-25580652D02*
X88142857Y-25961604D01*
X83905237Y-18454819D02*
X83571904Y-17978628D01*
X83333809Y-18454819D02*
X83333809Y-17454819D01*
X83333809Y-17454819D02*
X83714761Y-17454819D01*
X83714761Y-17454819D02*
X83809999Y-17502438D01*
X83809999Y-17502438D02*
X83857618Y-17550057D01*
X83857618Y-17550057D02*
X83905237Y-17645295D01*
X83905237Y-17645295D02*
X83905237Y-17788152D01*
X83905237Y-17788152D02*
X83857618Y-17883390D01*
X83857618Y-17883390D02*
X83809999Y-17931009D01*
X83809999Y-17931009D02*
X83714761Y-17978628D01*
X83714761Y-17978628D02*
X83333809Y-17978628D01*
X84238571Y-17454819D02*
X84857618Y-17454819D01*
X84857618Y-17454819D02*
X84524285Y-17835771D01*
X84524285Y-17835771D02*
X84667142Y-17835771D01*
X84667142Y-17835771D02*
X84762380Y-17883390D01*
X84762380Y-17883390D02*
X84809999Y-17931009D01*
X84809999Y-17931009D02*
X84857618Y-18026247D01*
X84857618Y-18026247D02*
X84857618Y-18264342D01*
X84857618Y-18264342D02*
X84809999Y-18359580D01*
X84809999Y-18359580D02*
X84762380Y-18407200D01*
X84762380Y-18407200D02*
X84667142Y-18454819D01*
X84667142Y-18454819D02*
X84381428Y-18454819D01*
X84381428Y-18454819D02*
X84286190Y-18407200D01*
X84286190Y-18407200D02*
X84238571Y-18359580D01*
X86571904Y-18454819D02*
X86000476Y-18454819D01*
X86286190Y-18454819D02*
X86286190Y-17454819D01*
X86286190Y-17454819D02*
X86190952Y-17597676D01*
X86190952Y-17597676D02*
X86095714Y-17692914D01*
X86095714Y-17692914D02*
X86000476Y-17740533D01*
X87190952Y-17454819D02*
X87286190Y-17454819D01*
X87286190Y-17454819D02*
X87381428Y-17502438D01*
X87381428Y-17502438D02*
X87429047Y-17550057D01*
X87429047Y-17550057D02*
X87476666Y-17645295D01*
X87476666Y-17645295D02*
X87524285Y-17835771D01*
X87524285Y-17835771D02*
X87524285Y-18073866D01*
X87524285Y-18073866D02*
X87476666Y-18264342D01*
X87476666Y-18264342D02*
X87429047Y-18359580D01*
X87429047Y-18359580D02*
X87381428Y-18407200D01*
X87381428Y-18407200D02*
X87286190Y-18454819D01*
X87286190Y-18454819D02*
X87190952Y-18454819D01*
X87190952Y-18454819D02*
X87095714Y-18407200D01*
X87095714Y-18407200D02*
X87048095Y-18359580D01*
X87048095Y-18359580D02*
X87000476Y-18264342D01*
X87000476Y-18264342D02*
X86952857Y-18073866D01*
X86952857Y-18073866D02*
X86952857Y-17835771D01*
X86952857Y-17835771D02*
X87000476Y-17645295D01*
X87000476Y-17645295D02*
X87048095Y-17550057D01*
X87048095Y-17550057D02*
X87095714Y-17502438D01*
X87095714Y-17502438D02*
X87190952Y-17454819D01*
X87952857Y-18454819D02*
X87952857Y-17454819D01*
X88048095Y-18073866D02*
X88333809Y-18454819D01*
X88333809Y-17788152D02*
X87952857Y-18169104D01*
X115666667Y-20407200D02*
X115809524Y-20454819D01*
X115809524Y-20454819D02*
X116047619Y-20454819D01*
X116047619Y-20454819D02*
X116142857Y-20407200D01*
X116142857Y-20407200D02*
X116190476Y-20359580D01*
X116190476Y-20359580D02*
X116238095Y-20264342D01*
X116238095Y-20264342D02*
X116238095Y-20169104D01*
X116238095Y-20169104D02*
X116190476Y-20073866D01*
X116190476Y-20073866D02*
X116142857Y-20026247D01*
X116142857Y-20026247D02*
X116047619Y-19978628D01*
X116047619Y-19978628D02*
X115857143Y-19931009D01*
X115857143Y-19931009D02*
X115761905Y-19883390D01*
X115761905Y-19883390D02*
X115714286Y-19835771D01*
X115714286Y-19835771D02*
X115666667Y-19740533D01*
X115666667Y-19740533D02*
X115666667Y-19645295D01*
X115666667Y-19645295D02*
X115714286Y-19550057D01*
X115714286Y-19550057D02*
X115761905Y-19502438D01*
X115761905Y-19502438D02*
X115857143Y-19454819D01*
X115857143Y-19454819D02*
X116095238Y-19454819D01*
X116095238Y-19454819D02*
X116238095Y-19502438D01*
X116571429Y-19454819D02*
X116809524Y-20454819D01*
X116809524Y-20454819D02*
X117000000Y-19740533D01*
X117000000Y-19740533D02*
X117190476Y-20454819D01*
X117190476Y-20454819D02*
X117428572Y-19454819D01*
X117761905Y-19550057D02*
X117809524Y-19502438D01*
X117809524Y-19502438D02*
X117904762Y-19454819D01*
X117904762Y-19454819D02*
X118142857Y-19454819D01*
X118142857Y-19454819D02*
X118238095Y-19502438D01*
X118238095Y-19502438D02*
X118285714Y-19550057D01*
X118285714Y-19550057D02*
X118333333Y-19645295D01*
X118333333Y-19645295D02*
X118333333Y-19740533D01*
X118333333Y-19740533D02*
X118285714Y-19883390D01*
X118285714Y-19883390D02*
X117714286Y-20454819D01*
X117714286Y-20454819D02*
X118333333Y-20454819D01*
X26213809Y-33247319D02*
X25880476Y-32771128D01*
X25642381Y-33247319D02*
X25642381Y-32247319D01*
X25642381Y-32247319D02*
X26023333Y-32247319D01*
X26023333Y-32247319D02*
X26118571Y-32294938D01*
X26118571Y-32294938D02*
X26166190Y-32342557D01*
X26166190Y-32342557D02*
X26213809Y-32437795D01*
X26213809Y-32437795D02*
X26213809Y-32580652D01*
X26213809Y-32580652D02*
X26166190Y-32675890D01*
X26166190Y-32675890D02*
X26118571Y-32723509D01*
X26118571Y-32723509D02*
X26023333Y-32771128D01*
X26023333Y-32771128D02*
X25642381Y-32771128D01*
X26594762Y-32342557D02*
X26642381Y-32294938D01*
X26642381Y-32294938D02*
X26737619Y-32247319D01*
X26737619Y-32247319D02*
X26975714Y-32247319D01*
X26975714Y-32247319D02*
X27070952Y-32294938D01*
X27070952Y-32294938D02*
X27118571Y-32342557D01*
X27118571Y-32342557D02*
X27166190Y-32437795D01*
X27166190Y-32437795D02*
X27166190Y-32533033D01*
X27166190Y-32533033D02*
X27118571Y-32675890D01*
X27118571Y-32675890D02*
X26547143Y-33247319D01*
X26547143Y-33247319D02*
X27166190Y-33247319D01*
X28880476Y-33247319D02*
X28309048Y-33247319D01*
X28594762Y-33247319D02*
X28594762Y-32247319D01*
X28594762Y-32247319D02*
X28499524Y-32390176D01*
X28499524Y-32390176D02*
X28404286Y-32485414D01*
X28404286Y-32485414D02*
X28309048Y-32533033D01*
X29785238Y-32247319D02*
X29309048Y-32247319D01*
X29309048Y-32247319D02*
X29261429Y-32723509D01*
X29261429Y-32723509D02*
X29309048Y-32675890D01*
X29309048Y-32675890D02*
X29404286Y-32628271D01*
X29404286Y-32628271D02*
X29642381Y-32628271D01*
X29642381Y-32628271D02*
X29737619Y-32675890D01*
X29737619Y-32675890D02*
X29785238Y-32723509D01*
X29785238Y-32723509D02*
X29832857Y-32818747D01*
X29832857Y-32818747D02*
X29832857Y-33056842D01*
X29832857Y-33056842D02*
X29785238Y-33152080D01*
X29785238Y-33152080D02*
X29737619Y-33199700D01*
X29737619Y-33199700D02*
X29642381Y-33247319D01*
X29642381Y-33247319D02*
X29404286Y-33247319D01*
X29404286Y-33247319D02*
X29309048Y-33199700D01*
X29309048Y-33199700D02*
X29261429Y-33152080D01*
X30451905Y-32247319D02*
X30547143Y-32247319D01*
X30547143Y-32247319D02*
X30642381Y-32294938D01*
X30642381Y-32294938D02*
X30690000Y-32342557D01*
X30690000Y-32342557D02*
X30737619Y-32437795D01*
X30737619Y-32437795D02*
X30785238Y-32628271D01*
X30785238Y-32628271D02*
X30785238Y-32866366D01*
X30785238Y-32866366D02*
X30737619Y-33056842D01*
X30737619Y-33056842D02*
X30690000Y-33152080D01*
X30690000Y-33152080D02*
X30642381Y-33199700D01*
X30642381Y-33199700D02*
X30547143Y-33247319D01*
X30547143Y-33247319D02*
X30451905Y-33247319D01*
X30451905Y-33247319D02*
X30356667Y-33199700D01*
X30356667Y-33199700D02*
X30309048Y-33152080D01*
X30309048Y-33152080D02*
X30261429Y-33056842D01*
X30261429Y-33056842D02*
X30213810Y-32866366D01*
X30213810Y-32866366D02*
X30213810Y-32628271D01*
X30213810Y-32628271D02*
X30261429Y-32437795D01*
X30261429Y-32437795D02*
X30309048Y-32342557D01*
X30309048Y-32342557D02*
X30356667Y-32294938D01*
X30356667Y-32294938D02*
X30451905Y-32247319D01*
D14*
X124500000Y-19250000D02*
X124500000Y-20750000D01*
X125750000Y-23250000D02*
X130250000Y-23250000D01*
X130250000Y-16750000D02*
X125750000Y-16750000D01*
X131500000Y-20750000D02*
X131500000Y-19250000D01*
X15445225Y-22525000D02*
X15945225Y-22525000D01*
X15695225Y-22275000D02*
X15695225Y-22775000D01*
X18250000Y-21420000D02*
X18250000Y-26580000D01*
X18290000Y-21420000D02*
X18290000Y-26580000D01*
X18330000Y-21421000D02*
X18330000Y-26579000D01*
X18370000Y-21423000D02*
X18370000Y-26577000D01*
X18410000Y-21425000D02*
X18410000Y-26575000D01*
X18450000Y-21428000D02*
X18450000Y-26572000D01*
X18490000Y-21431000D02*
X18490000Y-22960000D01*
X18490000Y-25040000D02*
X18490000Y-26569000D01*
X18530000Y-21435000D02*
X18530000Y-22960000D01*
X18530000Y-25040000D02*
X18530000Y-26565000D01*
X18570000Y-21440000D02*
X18570000Y-22960000D01*
X18570000Y-25040000D02*
X18570000Y-26560000D01*
X18610000Y-21445000D02*
X18610000Y-22960000D01*
X18610000Y-25040000D02*
X18610000Y-26555000D01*
X18650000Y-21451000D02*
X18650000Y-22960000D01*
X18650000Y-25040000D02*
X18650000Y-26549000D01*
X18690000Y-21457000D02*
X18690000Y-22960000D01*
X18690000Y-25040000D02*
X18690000Y-26543000D01*
X18730000Y-21464000D02*
X18730000Y-22960000D01*
X18730000Y-25040000D02*
X18730000Y-26536000D01*
X18770000Y-21472000D02*
X18770000Y-22960000D01*
X18770000Y-25040000D02*
X18770000Y-26528000D01*
X18810000Y-21481000D02*
X18810000Y-22960000D01*
X18810000Y-25040000D02*
X18810000Y-26519000D01*
X18850000Y-21490000D02*
X18850000Y-22960000D01*
X18850000Y-25040000D02*
X18850000Y-26510000D01*
X18890000Y-21499000D02*
X18890000Y-22960000D01*
X18890000Y-25040000D02*
X18890000Y-26501000D01*
X18930000Y-21510000D02*
X18930000Y-22960000D01*
X18930000Y-25040000D02*
X18930000Y-26490000D01*
X18970000Y-21521000D02*
X18970000Y-22960000D01*
X18970000Y-25040000D02*
X18970000Y-26479000D01*
X19010000Y-21533000D02*
X19010000Y-22960000D01*
X19010000Y-25040000D02*
X19010000Y-26467000D01*
X19050000Y-21545000D02*
X19050000Y-22960000D01*
X19050000Y-25040000D02*
X19050000Y-26455000D01*
X19090000Y-21558000D02*
X19090000Y-22960000D01*
X19090000Y-25040000D02*
X19090000Y-26442000D01*
X19130000Y-21572000D02*
X19130000Y-22960000D01*
X19130000Y-25040000D02*
X19130000Y-26428000D01*
X19170000Y-21587000D02*
X19170000Y-22960000D01*
X19170000Y-25040000D02*
X19170000Y-26413000D01*
X19210000Y-21602000D02*
X19210000Y-22960000D01*
X19210000Y-25040000D02*
X19210000Y-26398000D01*
X19250000Y-21618000D02*
X19250000Y-22960000D01*
X19250000Y-25040000D02*
X19250000Y-26382000D01*
X19290000Y-21635000D02*
X19290000Y-22960000D01*
X19290000Y-25040000D02*
X19290000Y-26365000D01*
X19330000Y-21653000D02*
X19330000Y-22960000D01*
X19330000Y-25040000D02*
X19330000Y-26347000D01*
X19370000Y-21671000D02*
X19370000Y-22960000D01*
X19370000Y-25040000D02*
X19370000Y-26329000D01*
X19410000Y-21691000D02*
X19410000Y-22960000D01*
X19410000Y-25040000D02*
X19410000Y-26309000D01*
X19450000Y-21711000D02*
X19450000Y-22960000D01*
X19450000Y-25040000D02*
X19450000Y-26289000D01*
X19490000Y-21732000D02*
X19490000Y-22960000D01*
X19490000Y-25040000D02*
X19490000Y-26268000D01*
X19530000Y-21754000D02*
X19530000Y-22960000D01*
X19530000Y-25040000D02*
X19530000Y-26246000D01*
X19570000Y-21777000D02*
X19570000Y-22960000D01*
X19570000Y-25040000D02*
X19570000Y-26223000D01*
X19610000Y-21801000D02*
X19610000Y-22960000D01*
X19610000Y-25040000D02*
X19610000Y-26199000D01*
X19650000Y-21825000D02*
X19650000Y-22960000D01*
X19650000Y-25040000D02*
X19650000Y-26175000D01*
X19690000Y-21851000D02*
X19690000Y-22960000D01*
X19690000Y-25040000D02*
X19690000Y-26149000D01*
X19730000Y-21878000D02*
X19730000Y-22960000D01*
X19730000Y-25040000D02*
X19730000Y-26122000D01*
X19770000Y-21906000D02*
X19770000Y-22960000D01*
X19770000Y-25040000D02*
X19770000Y-26094000D01*
X19810000Y-21935000D02*
X19810000Y-22960000D01*
X19810000Y-25040000D02*
X19810000Y-26065000D01*
X19850000Y-21965000D02*
X19850000Y-22960000D01*
X19850000Y-25040000D02*
X19850000Y-26035000D01*
X19890000Y-21997000D02*
X19890000Y-22960000D01*
X19890000Y-25040000D02*
X19890000Y-26003000D01*
X19930000Y-22030000D02*
X19930000Y-22960000D01*
X19930000Y-25040000D02*
X19930000Y-25970000D01*
X19970000Y-22064000D02*
X19970000Y-22960000D01*
X19970000Y-25040000D02*
X19970000Y-25936000D01*
X20010000Y-22099000D02*
X20010000Y-22960000D01*
X20010000Y-25040000D02*
X20010000Y-25901000D01*
X20050000Y-22136000D02*
X20050000Y-22960000D01*
X20050000Y-25040000D02*
X20050000Y-25864000D01*
X20090000Y-22175000D02*
X20090000Y-22960000D01*
X20090000Y-25040000D02*
X20090000Y-25825000D01*
X20130000Y-22215000D02*
X20130000Y-22960000D01*
X20130000Y-25040000D02*
X20130000Y-25785000D01*
X20170000Y-22257000D02*
X20170000Y-22960000D01*
X20170000Y-25040000D02*
X20170000Y-25743000D01*
X20210000Y-22301000D02*
X20210000Y-22960000D01*
X20210000Y-25040000D02*
X20210000Y-25699000D01*
X20250000Y-22348000D02*
X20250000Y-22960000D01*
X20250000Y-25040000D02*
X20250000Y-25652000D01*
X20290000Y-22396000D02*
X20290000Y-22960000D01*
X20290000Y-25040000D02*
X20290000Y-25604000D01*
X20330000Y-22447000D02*
X20330000Y-22960000D01*
X20330000Y-25040000D02*
X20330000Y-25553000D01*
X20370000Y-22501000D02*
X20370000Y-22960000D01*
X20370000Y-25040000D02*
X20370000Y-25499000D01*
X20410000Y-22557000D02*
X20410000Y-22960000D01*
X20410000Y-25040000D02*
X20410000Y-25443000D01*
X20450000Y-22617000D02*
X20450000Y-22960000D01*
X20450000Y-25040000D02*
X20450000Y-25383000D01*
X20490000Y-22681000D02*
X20490000Y-22960000D01*
X20490000Y-25040000D02*
X20490000Y-25319000D01*
X20530000Y-22749000D02*
X20530000Y-22960000D01*
X20530000Y-25040000D02*
X20530000Y-25251000D01*
X20570000Y-22823000D02*
X20570000Y-25177000D01*
X20610000Y-22902000D02*
X20610000Y-25098000D01*
X20650000Y-22989000D02*
X20650000Y-25011000D01*
X20690000Y-23086000D02*
X20690000Y-24914000D01*
X20730000Y-23195000D02*
X20730000Y-24805000D01*
X20770000Y-23323000D02*
X20770000Y-24677000D01*
X20810000Y-23483000D02*
X20810000Y-24517000D01*
X20850000Y-23717000D02*
X20850000Y-24283000D01*
X20870000Y-24000000D02*
G75*
G02*
X15630000Y-24000000I-2620000J0D01*
G01*
X15630000Y-24000000D02*
G75*
G02*
X20870000Y-24000000I2620000J0D01*
G01*
X33700000Y-24137500D02*
X33700000Y-25787500D01*
X33700000Y-27787500D02*
X33700000Y-29437500D01*
X33700000Y-29437500D02*
X64300000Y-29437500D01*
X64300000Y-24137500D02*
X33700000Y-24137500D01*
X64300000Y-29437500D02*
X64300000Y-24137500D01*
X33700000Y-25787500D02*
G75*
G02*
X33700000Y-27787500I0J-1000000D01*
G01*
X17485000Y-27872500D02*
X19015000Y-27872500D01*
X19015000Y-29712500D02*
X17485000Y-29712500D01*
X24920000Y-23422500D02*
X31460000Y-23422500D01*
X24920000Y-23752500D02*
X24920000Y-23422500D01*
X24920000Y-25832500D02*
X24920000Y-26162500D01*
X24920000Y-26162500D02*
X31460000Y-26162500D01*
X31460000Y-23422500D02*
X31460000Y-23752500D01*
X31460000Y-26162500D02*
X31460000Y-25832500D01*
X82540000Y-20422500D02*
X89080000Y-20422500D01*
X82540000Y-20752500D02*
X82540000Y-20422500D01*
X82540000Y-22832500D02*
X82540000Y-23162500D01*
X82540000Y-23162500D02*
X89080000Y-23162500D01*
X89080000Y-20422500D02*
X89080000Y-20752500D01*
X89080000Y-23162500D02*
X89080000Y-22832500D01*
X112370000Y-50142500D02*
X112370000Y-38712500D01*
X113480000Y-54062500D02*
X137780000Y-54062500D01*
X137780000Y-34792500D02*
X112480000Y-34792500D01*
X137780000Y-50142500D02*
X137780000Y-38712500D01*
X15620000Y-32412500D02*
X17000000Y-32412500D01*
X15620000Y-33792500D02*
X15620000Y-32412500D01*
X15620000Y-35062500D02*
X15620000Y-52952500D01*
X15620000Y-35062500D02*
X18380000Y-35062500D01*
X15620000Y-52952500D02*
X18380000Y-52952500D01*
X18380000Y-35062500D02*
X18380000Y-52952500D01*
X102750000Y-19250000D02*
X102750000Y-20750000D01*
X104000000Y-23250000D02*
X108500000Y-23250000D01*
X108500000Y-16750000D02*
X104000000Y-16750000D01*
X109750000Y-20750000D02*
X109750000Y-19250000D01*
X34210000Y-50127500D02*
X34210000Y-38697500D01*
X35320000Y-54047500D02*
X59620000Y-54047500D01*
X59620000Y-34777500D02*
X34320000Y-34777500D01*
X59620000Y-50127500D02*
X59620000Y-38697500D01*
X60370000Y-50127500D02*
X60370000Y-38697500D01*
X61480000Y-54047500D02*
X85780000Y-54047500D01*
X85780000Y-34777500D02*
X60480000Y-34777500D01*
X85780000Y-50127500D02*
X85780000Y-38697500D01*
X82540000Y-24422500D02*
X89080000Y-24422500D01*
X82540000Y-24752500D02*
X82540000Y-24422500D01*
X82540000Y-26832500D02*
X82540000Y-27162500D01*
X82540000Y-27162500D02*
X89080000Y-27162500D01*
X89080000Y-24422500D02*
X89080000Y-24752500D01*
X89080000Y-27162500D02*
X89080000Y-26832500D01*
X82540000Y-16630000D02*
X89080000Y-16630000D01*
X82540000Y-16960000D02*
X82540000Y-16630000D01*
X82540000Y-19040000D02*
X82540000Y-19370000D01*
X82540000Y-19370000D02*
X89080000Y-19370000D01*
X89080000Y-16630000D02*
X89080000Y-16960000D01*
X89080000Y-19370000D02*
X89080000Y-19040000D01*
X113500000Y-19250000D02*
X113500000Y-20750000D01*
X114750000Y-23250000D02*
X119250000Y-23250000D01*
X119250000Y-16750000D02*
X114750000Y-16750000D01*
X120500000Y-20750000D02*
X120500000Y-19250000D01*
X24920000Y-31422500D02*
X24920000Y-31752500D01*
X24920000Y-34162500D02*
X24920000Y-33832500D01*
X31460000Y-31422500D02*
X24920000Y-31422500D01*
X31460000Y-31752500D02*
X31460000Y-31422500D01*
X31460000Y-33832500D02*
X31460000Y-34162500D01*
X31460000Y-34162500D02*
X24920000Y-34162500D01*
X86370000Y-50127500D02*
X86370000Y-38697500D01*
X87480000Y-54047500D02*
X111780000Y-54047500D01*
X111780000Y-34777500D02*
X86480000Y-34777500D01*
X111780000Y-50127500D02*
X111780000Y-38697500D01*
%LPC*%
G36*
X120762000Y-53309500D02*
G01*
X119238000Y-53309500D01*
X119238000Y-50785500D01*
X120762000Y-50785500D01*
X120762000Y-53309500D01*
G37*
G36*
X122761197Y-50818311D02*
G01*
X122899204Y-50875476D01*
X123023408Y-50958466D01*
X123129034Y-51064092D01*
X123212024Y-51188296D01*
X123269189Y-51326303D01*
X123298331Y-51472811D01*
X123302000Y-51547500D01*
X123302000Y-52547500D01*
X123298331Y-52622189D01*
X123269189Y-52768697D01*
X123212024Y-52906704D01*
X123129034Y-53030908D01*
X123023408Y-53136534D01*
X122899204Y-53219524D01*
X122761197Y-53276689D01*
X122614689Y-53305831D01*
X122465311Y-53305831D01*
X122318803Y-53276689D01*
X122180796Y-53219524D01*
X122056592Y-53136534D01*
X121950966Y-53030908D01*
X121867976Y-52906704D01*
X121810811Y-52768697D01*
X121781669Y-52622189D01*
X121778000Y-52547500D01*
X121778000Y-51547500D01*
X121781669Y-51472811D01*
X121810811Y-51326303D01*
X121867976Y-51188296D01*
X121950966Y-51064092D01*
X122056592Y-50958466D01*
X122180796Y-50875476D01*
X122318803Y-50818311D01*
X122465311Y-50789169D01*
X122614689Y-50789169D01*
X122761197Y-50818311D01*
G37*
G36*
X125301197Y-50818311D02*
G01*
X125439204Y-50875476D01*
X125563408Y-50958466D01*
X125669034Y-51064092D01*
X125752024Y-51188296D01*
X125809189Y-51326303D01*
X125838331Y-51472811D01*
X125842000Y-51547500D01*
X125842000Y-52547500D01*
X125838331Y-52622189D01*
X125809189Y-52768697D01*
X125752024Y-52906704D01*
X125669034Y-53030908D01*
X125563408Y-53136534D01*
X125439204Y-53219524D01*
X125301197Y-53276689D01*
X125154689Y-53305831D01*
X125005311Y-53305831D01*
X124858803Y-53276689D01*
X124720796Y-53219524D01*
X124596592Y-53136534D01*
X124490966Y-53030908D01*
X124407976Y-52906704D01*
X124350811Y-52768697D01*
X124321669Y-52622189D01*
X124318000Y-52547500D01*
X124318000Y-51547500D01*
X124321669Y-51472811D01*
X124350811Y-51326303D01*
X124407976Y-51188296D01*
X124490966Y-51064092D01*
X124596592Y-50958466D01*
X124720796Y-50875476D01*
X124858803Y-50818311D01*
X125005311Y-50789169D01*
X125154689Y-50789169D01*
X125301197Y-50818311D01*
G37*
G36*
X127841197Y-50818311D02*
G01*
X127979204Y-50875476D01*
X128103408Y-50958466D01*
X128209034Y-51064092D01*
X128292024Y-51188296D01*
X128349189Y-51326303D01*
X128378331Y-51472811D01*
X128382000Y-51547500D01*
X128382000Y-52547500D01*
X128378331Y-52622189D01*
X128349189Y-52768697D01*
X128292024Y-52906704D01*
X128209034Y-53030908D01*
X128103408Y-53136534D01*
X127979204Y-53219524D01*
X127841197Y-53276689D01*
X127694689Y-53305831D01*
X127545311Y-53305831D01*
X127398803Y-53276689D01*
X127260796Y-53219524D01*
X127136592Y-53136534D01*
X127030966Y-53030908D01*
X126947976Y-52906704D01*
X126890811Y-52768697D01*
X126861669Y-52622189D01*
X126858000Y-52547500D01*
X126858000Y-51547500D01*
X126861669Y-51472811D01*
X126890811Y-51326303D01*
X126947976Y-51188296D01*
X127030966Y-51064092D01*
X127136592Y-50958466D01*
X127260796Y-50875476D01*
X127398803Y-50818311D01*
X127545311Y-50789169D01*
X127694689Y-50789169D01*
X127841197Y-50818311D01*
G37*
G36*
X130381197Y-50818311D02*
G01*
X130519204Y-50875476D01*
X130643408Y-50958466D01*
X130749034Y-51064092D01*
X130832024Y-51188296D01*
X130889189Y-51326303D01*
X130918331Y-51472811D01*
X130922000Y-51547500D01*
X130922000Y-52547500D01*
X130918331Y-52622189D01*
X130889189Y-52768697D01*
X130832024Y-52906704D01*
X130749034Y-53030908D01*
X130643408Y-53136534D01*
X130519204Y-53219524D01*
X130381197Y-53276689D01*
X130234689Y-53305831D01*
X130085311Y-53305831D01*
X129938803Y-53276689D01*
X129800796Y-53219524D01*
X129676592Y-53136534D01*
X129570966Y-53030908D01*
X129487976Y-52906704D01*
X129430811Y-52768697D01*
X129401669Y-52622189D01*
X129398000Y-52547500D01*
X129398000Y-51547500D01*
X129401669Y-51472811D01*
X129430811Y-51326303D01*
X129487976Y-51188296D01*
X129570966Y-51064092D01*
X129676592Y-50958466D01*
X129800796Y-50875476D01*
X129938803Y-50818311D01*
X130085311Y-50789169D01*
X130234689Y-50789169D01*
X130381197Y-50818311D01*
G37*
G36*
X42602000Y-53294500D02*
G01*
X41078000Y-53294500D01*
X41078000Y-50770500D01*
X42602000Y-50770500D01*
X42602000Y-53294500D01*
G37*
G36*
X68762000Y-53294500D02*
G01*
X67238000Y-53294500D01*
X67238000Y-50770500D01*
X68762000Y-50770500D01*
X68762000Y-53294500D01*
G37*
G36*
X94762000Y-53294500D02*
G01*
X93238000Y-53294500D01*
X93238000Y-50770500D01*
X94762000Y-50770500D01*
X94762000Y-53294500D01*
G37*
G36*
X44601197Y-50803311D02*
G01*
X44739204Y-50860476D01*
X44863408Y-50943466D01*
X44969034Y-51049092D01*
X45052024Y-51173296D01*
X45109189Y-51311303D01*
X45138331Y-51457811D01*
X45142000Y-51532500D01*
X45142000Y-52532500D01*
X45138331Y-52607189D01*
X45109189Y-52753697D01*
X45052024Y-52891704D01*
X44969034Y-53015908D01*
X44863408Y-53121534D01*
X44739204Y-53204524D01*
X44601197Y-53261689D01*
X44454689Y-53290831D01*
X44305311Y-53290831D01*
X44158803Y-53261689D01*
X44020796Y-53204524D01*
X43896592Y-53121534D01*
X43790966Y-53015908D01*
X43707976Y-52891704D01*
X43650811Y-52753697D01*
X43621669Y-52607189D01*
X43618000Y-52532500D01*
X43618000Y-51532500D01*
X43621669Y-51457811D01*
X43650811Y-51311303D01*
X43707976Y-51173296D01*
X43790966Y-51049092D01*
X43896592Y-50943466D01*
X44020796Y-50860476D01*
X44158803Y-50803311D01*
X44305311Y-50774169D01*
X44454689Y-50774169D01*
X44601197Y-50803311D01*
G37*
G36*
X47141197Y-50803311D02*
G01*
X47279204Y-50860476D01*
X47403408Y-50943466D01*
X47509034Y-51049092D01*
X47592024Y-51173296D01*
X47649189Y-51311303D01*
X47678331Y-51457811D01*
X47682000Y-51532500D01*
X47682000Y-52532500D01*
X47678331Y-52607189D01*
X47649189Y-52753697D01*
X47592024Y-52891704D01*
X47509034Y-53015908D01*
X47403408Y-53121534D01*
X47279204Y-53204524D01*
X47141197Y-53261689D01*
X46994689Y-53290831D01*
X46845311Y-53290831D01*
X46698803Y-53261689D01*
X46560796Y-53204524D01*
X46436592Y-53121534D01*
X46330966Y-53015908D01*
X46247976Y-52891704D01*
X46190811Y-52753697D01*
X46161669Y-52607189D01*
X46158000Y-52532500D01*
X46158000Y-51532500D01*
X46161669Y-51457811D01*
X46190811Y-51311303D01*
X46247976Y-51173296D01*
X46330966Y-51049092D01*
X46436592Y-50943466D01*
X46560796Y-50860476D01*
X46698803Y-50803311D01*
X46845311Y-50774169D01*
X46994689Y-50774169D01*
X47141197Y-50803311D01*
G37*
G36*
X49681197Y-50803311D02*
G01*
X49819204Y-50860476D01*
X49943408Y-50943466D01*
X50049034Y-51049092D01*
X50132024Y-51173296D01*
X50189189Y-51311303D01*
X50218331Y-51457811D01*
X50222000Y-51532500D01*
X50222000Y-52532500D01*
X50218331Y-52607189D01*
X50189189Y-52753697D01*
X50132024Y-52891704D01*
X50049034Y-53015908D01*
X49943408Y-53121534D01*
X49819204Y-53204524D01*
X49681197Y-53261689D01*
X49534689Y-53290831D01*
X49385311Y-53290831D01*
X49238803Y-53261689D01*
X49100796Y-53204524D01*
X48976592Y-53121534D01*
X48870966Y-53015908D01*
X48787976Y-52891704D01*
X48730811Y-52753697D01*
X48701669Y-52607189D01*
X48698000Y-52532500D01*
X48698000Y-51532500D01*
X48701669Y-51457811D01*
X48730811Y-51311303D01*
X48787976Y-51173296D01*
X48870966Y-51049092D01*
X48976592Y-50943466D01*
X49100796Y-50860476D01*
X49238803Y-50803311D01*
X49385311Y-50774169D01*
X49534689Y-50774169D01*
X49681197Y-50803311D01*
G37*
G36*
X52221197Y-50803311D02*
G01*
X52359204Y-50860476D01*
X52483408Y-50943466D01*
X52589034Y-51049092D01*
X52672024Y-51173296D01*
X52729189Y-51311303D01*
X52758331Y-51457811D01*
X52762000Y-51532500D01*
X52762000Y-52532500D01*
X52758331Y-52607189D01*
X52729189Y-52753697D01*
X52672024Y-52891704D01*
X52589034Y-53015908D01*
X52483408Y-53121534D01*
X52359204Y-53204524D01*
X52221197Y-53261689D01*
X52074689Y-53290831D01*
X51925311Y-53290831D01*
X51778803Y-53261689D01*
X51640796Y-53204524D01*
X51516592Y-53121534D01*
X51410966Y-53015908D01*
X51327976Y-52891704D01*
X51270811Y-52753697D01*
X51241669Y-52607189D01*
X51238000Y-52532500D01*
X51238000Y-51532500D01*
X51241669Y-51457811D01*
X51270811Y-51311303D01*
X51327976Y-51173296D01*
X51410966Y-51049092D01*
X51516592Y-50943466D01*
X51640796Y-50860476D01*
X51778803Y-50803311D01*
X51925311Y-50774169D01*
X52074689Y-50774169D01*
X52221197Y-50803311D01*
G37*
G36*
X70761197Y-50803311D02*
G01*
X70899204Y-50860476D01*
X71023408Y-50943466D01*
X71129034Y-51049092D01*
X71212024Y-51173296D01*
X71269189Y-51311303D01*
X71298331Y-51457811D01*
X71302000Y-51532500D01*
X71302000Y-52532500D01*
X71298331Y-52607189D01*
X71269189Y-52753697D01*
X71212024Y-52891704D01*
X71129034Y-53015908D01*
X71023408Y-53121534D01*
X70899204Y-53204524D01*
X70761197Y-53261689D01*
X70614689Y-53290831D01*
X70465311Y-53290831D01*
X70318803Y-53261689D01*
X70180796Y-53204524D01*
X70056592Y-53121534D01*
X69950966Y-53015908D01*
X69867976Y-52891704D01*
X69810811Y-52753697D01*
X69781669Y-52607189D01*
X69778000Y-52532500D01*
X69778000Y-51532500D01*
X69781669Y-51457811D01*
X69810811Y-51311303D01*
X69867976Y-51173296D01*
X69950966Y-51049092D01*
X70056592Y-50943466D01*
X70180796Y-50860476D01*
X70318803Y-50803311D01*
X70465311Y-50774169D01*
X70614689Y-50774169D01*
X70761197Y-50803311D01*
G37*
G36*
X73301197Y-50803311D02*
G01*
X73439204Y-50860476D01*
X73563408Y-50943466D01*
X73669034Y-51049092D01*
X73752024Y-51173296D01*
X73809189Y-51311303D01*
X73838331Y-51457811D01*
X73842000Y-51532500D01*
X73842000Y-52532500D01*
X73838331Y-52607189D01*
X73809189Y-52753697D01*
X73752024Y-52891704D01*
X73669034Y-53015908D01*
X73563408Y-53121534D01*
X73439204Y-53204524D01*
X73301197Y-53261689D01*
X73154689Y-53290831D01*
X73005311Y-53290831D01*
X72858803Y-53261689D01*
X72720796Y-53204524D01*
X72596592Y-53121534D01*
X72490966Y-53015908D01*
X72407976Y-52891704D01*
X72350811Y-52753697D01*
X72321669Y-52607189D01*
X72318000Y-52532500D01*
X72318000Y-51532500D01*
X72321669Y-51457811D01*
X72350811Y-51311303D01*
X72407976Y-51173296D01*
X72490966Y-51049092D01*
X72596592Y-50943466D01*
X72720796Y-50860476D01*
X72858803Y-50803311D01*
X73005311Y-50774169D01*
X73154689Y-50774169D01*
X73301197Y-50803311D01*
G37*
G36*
X75841197Y-50803311D02*
G01*
X75979204Y-50860476D01*
X76103408Y-50943466D01*
X76209034Y-51049092D01*
X76292024Y-51173296D01*
X76349189Y-51311303D01*
X76378331Y-51457811D01*
X76382000Y-51532500D01*
X76382000Y-52532500D01*
X76378331Y-52607189D01*
X76349189Y-52753697D01*
X76292024Y-52891704D01*
X76209034Y-53015908D01*
X76103408Y-53121534D01*
X75979204Y-53204524D01*
X75841197Y-53261689D01*
X75694689Y-53290831D01*
X75545311Y-53290831D01*
X75398803Y-53261689D01*
X75260796Y-53204524D01*
X75136592Y-53121534D01*
X75030966Y-53015908D01*
X74947976Y-52891704D01*
X74890811Y-52753697D01*
X74861669Y-52607189D01*
X74858000Y-52532500D01*
X74858000Y-51532500D01*
X74861669Y-51457811D01*
X74890811Y-51311303D01*
X74947976Y-51173296D01*
X75030966Y-51049092D01*
X75136592Y-50943466D01*
X75260796Y-50860476D01*
X75398803Y-50803311D01*
X75545311Y-50774169D01*
X75694689Y-50774169D01*
X75841197Y-50803311D01*
G37*
G36*
X78381197Y-50803311D02*
G01*
X78519204Y-50860476D01*
X78643408Y-50943466D01*
X78749034Y-51049092D01*
X78832024Y-51173296D01*
X78889189Y-51311303D01*
X78918331Y-51457811D01*
X78922000Y-51532500D01*
X78922000Y-52532500D01*
X78918331Y-52607189D01*
X78889189Y-52753697D01*
X78832024Y-52891704D01*
X78749034Y-53015908D01*
X78643408Y-53121534D01*
X78519204Y-53204524D01*
X78381197Y-53261689D01*
X78234689Y-53290831D01*
X78085311Y-53290831D01*
X77938803Y-53261689D01*
X77800796Y-53204524D01*
X77676592Y-53121534D01*
X77570966Y-53015908D01*
X77487976Y-52891704D01*
X77430811Y-52753697D01*
X77401669Y-52607189D01*
X77398000Y-52532500D01*
X77398000Y-51532500D01*
X77401669Y-51457811D01*
X77430811Y-51311303D01*
X77487976Y-51173296D01*
X77570966Y-51049092D01*
X77676592Y-50943466D01*
X77800796Y-50860476D01*
X77938803Y-50803311D01*
X78085311Y-50774169D01*
X78234689Y-50774169D01*
X78381197Y-50803311D01*
G37*
G36*
X96761197Y-50803311D02*
G01*
X96899204Y-50860476D01*
X97023408Y-50943466D01*
X97129034Y-51049092D01*
X97212024Y-51173296D01*
X97269189Y-51311303D01*
X97298331Y-51457811D01*
X97302000Y-51532500D01*
X97302000Y-52532500D01*
X97298331Y-52607189D01*
X97269189Y-52753697D01*
X97212024Y-52891704D01*
X97129034Y-53015908D01*
X97023408Y-53121534D01*
X96899204Y-53204524D01*
X96761197Y-53261689D01*
X96614689Y-53290831D01*
X96465311Y-53290831D01*
X96318803Y-53261689D01*
X96180796Y-53204524D01*
X96056592Y-53121534D01*
X95950966Y-53015908D01*
X95867976Y-52891704D01*
X95810811Y-52753697D01*
X95781669Y-52607189D01*
X95778000Y-52532500D01*
X95778000Y-51532500D01*
X95781669Y-51457811D01*
X95810811Y-51311303D01*
X95867976Y-51173296D01*
X95950966Y-51049092D01*
X96056592Y-50943466D01*
X96180796Y-50860476D01*
X96318803Y-50803311D01*
X96465311Y-50774169D01*
X96614689Y-50774169D01*
X96761197Y-50803311D01*
G37*
G36*
X99301197Y-50803311D02*
G01*
X99439204Y-50860476D01*
X99563408Y-50943466D01*
X99669034Y-51049092D01*
X99752024Y-51173296D01*
X99809189Y-51311303D01*
X99838331Y-51457811D01*
X99842000Y-51532500D01*
X99842000Y-52532500D01*
X99838331Y-52607189D01*
X99809189Y-52753697D01*
X99752024Y-52891704D01*
X99669034Y-53015908D01*
X99563408Y-53121534D01*
X99439204Y-53204524D01*
X99301197Y-53261689D01*
X99154689Y-53290831D01*
X99005311Y-53290831D01*
X98858803Y-53261689D01*
X98720796Y-53204524D01*
X98596592Y-53121534D01*
X98490966Y-53015908D01*
X98407976Y-52891704D01*
X98350811Y-52753697D01*
X98321669Y-52607189D01*
X98318000Y-52532500D01*
X98318000Y-51532500D01*
X98321669Y-51457811D01*
X98350811Y-51311303D01*
X98407976Y-51173296D01*
X98490966Y-51049092D01*
X98596592Y-50943466D01*
X98720796Y-50860476D01*
X98858803Y-50803311D01*
X99005311Y-50774169D01*
X99154689Y-50774169D01*
X99301197Y-50803311D01*
G37*
G36*
X101841197Y-50803311D02*
G01*
X101979204Y-50860476D01*
X102103408Y-50943466D01*
X102209034Y-51049092D01*
X102292024Y-51173296D01*
X102349189Y-51311303D01*
X102378331Y-51457811D01*
X102382000Y-51532500D01*
X102382000Y-52532500D01*
X102378331Y-52607189D01*
X102349189Y-52753697D01*
X102292024Y-52891704D01*
X102209034Y-53015908D01*
X102103408Y-53121534D01*
X101979204Y-53204524D01*
X101841197Y-53261689D01*
X101694689Y-53290831D01*
X101545311Y-53290831D01*
X101398803Y-53261689D01*
X101260796Y-53204524D01*
X101136592Y-53121534D01*
X101030966Y-53015908D01*
X100947976Y-52891704D01*
X100890811Y-52753697D01*
X100861669Y-52607189D01*
X100858000Y-52532500D01*
X100858000Y-51532500D01*
X100861669Y-51457811D01*
X100890811Y-51311303D01*
X100947976Y-51173296D01*
X101030966Y-51049092D01*
X101136592Y-50943466D01*
X101260796Y-50860476D01*
X101398803Y-50803311D01*
X101545311Y-50774169D01*
X101694689Y-50774169D01*
X101841197Y-50803311D01*
G37*
G36*
X104381197Y-50803311D02*
G01*
X104519204Y-50860476D01*
X104643408Y-50943466D01*
X104749034Y-51049092D01*
X104832024Y-51173296D01*
X104889189Y-51311303D01*
X104918331Y-51457811D01*
X104922000Y-51532500D01*
X104922000Y-52532500D01*
X104918331Y-52607189D01*
X104889189Y-52753697D01*
X104832024Y-52891704D01*
X104749034Y-53015908D01*
X104643408Y-53121534D01*
X104519204Y-53204524D01*
X104381197Y-53261689D01*
X104234689Y-53290831D01*
X104085311Y-53290831D01*
X103938803Y-53261689D01*
X103800796Y-53204524D01*
X103676592Y-53121534D01*
X103570966Y-53015908D01*
X103487976Y-52891704D01*
X103430811Y-52753697D01*
X103401669Y-52607189D01*
X103398000Y-52532500D01*
X103398000Y-51532500D01*
X103401669Y-51457811D01*
X103430811Y-51311303D01*
X103487976Y-51173296D01*
X103570966Y-51049092D01*
X103676592Y-50943466D01*
X103800796Y-50860476D01*
X103938803Y-50803311D01*
X104085311Y-50774169D01*
X104234689Y-50774169D01*
X104381197Y-50803311D01*
G37*
G36*
X17246742Y-50759101D02*
G01*
X17400687Y-50822867D01*
X17539234Y-50915441D01*
X17657059Y-51033266D01*
X17749633Y-51171813D01*
X17813399Y-51325758D01*
X17845907Y-51489185D01*
X17845907Y-51655815D01*
X17813399Y-51819242D01*
X17749633Y-51973187D01*
X17657059Y-52111734D01*
X17539234Y-52229559D01*
X17400687Y-52322133D01*
X17246742Y-52385899D01*
X17083315Y-52418407D01*
X16916685Y-52418407D01*
X16753258Y-52385899D01*
X16599313Y-52322133D01*
X16460766Y-52229559D01*
X16342941Y-52111734D01*
X16250367Y-51973187D01*
X16186601Y-51819242D01*
X16154093Y-51655815D01*
X16154093Y-51489185D01*
X16186601Y-51325758D01*
X16250367Y-51171813D01*
X16342941Y-51033266D01*
X16460766Y-50915441D01*
X16599313Y-50822867D01*
X16753258Y-50759101D01*
X16916685Y-50726593D01*
X17083315Y-50726593D01*
X17246742Y-50759101D01*
G37*
G36*
X17246742Y-48219101D02*
G01*
X17400687Y-48282867D01*
X17539234Y-48375441D01*
X17657059Y-48493266D01*
X17749633Y-48631813D01*
X17813399Y-48785758D01*
X17845907Y-48949185D01*
X17845907Y-49115815D01*
X17813399Y-49279242D01*
X17749633Y-49433187D01*
X17657059Y-49571734D01*
X17539234Y-49689559D01*
X17400687Y-49782133D01*
X17246742Y-49845899D01*
X17083315Y-49878407D01*
X16916685Y-49878407D01*
X16753258Y-49845899D01*
X16599313Y-49782133D01*
X16460766Y-49689559D01*
X16342941Y-49571734D01*
X16250367Y-49433187D01*
X16186601Y-49279242D01*
X16154093Y-49115815D01*
X16154093Y-48949185D01*
X16186601Y-48785758D01*
X16250367Y-48631813D01*
X16342941Y-48493266D01*
X16460766Y-48375441D01*
X16599313Y-48282867D01*
X16753258Y-48219101D01*
X16916685Y-48186593D01*
X17083315Y-48186593D01*
X17246742Y-48219101D01*
G37*
G36*
X17246742Y-45679101D02*
G01*
X17400687Y-45742867D01*
X17539234Y-45835441D01*
X17657059Y-45953266D01*
X17749633Y-46091813D01*
X17813399Y-46245758D01*
X17845907Y-46409185D01*
X17845907Y-46575815D01*
X17813399Y-46739242D01*
X17749633Y-46893187D01*
X17657059Y-47031734D01*
X17539234Y-47149559D01*
X17400687Y-47242133D01*
X17246742Y-47305899D01*
X17083315Y-47338407D01*
X16916685Y-47338407D01*
X16753258Y-47305899D01*
X16599313Y-47242133D01*
X16460766Y-47149559D01*
X16342941Y-47031734D01*
X16250367Y-46893187D01*
X16186601Y-46739242D01*
X16154093Y-46575815D01*
X16154093Y-46409185D01*
X16186601Y-46245758D01*
X16250367Y-46091813D01*
X16342941Y-45953266D01*
X16460766Y-45835441D01*
X16599313Y-45742867D01*
X16753258Y-45679101D01*
X16916685Y-45646593D01*
X17083315Y-45646593D01*
X17246742Y-45679101D01*
G37*
G36*
X17246742Y-43139101D02*
G01*
X17400687Y-43202867D01*
X17539234Y-43295441D01*
X17657059Y-43413266D01*
X17749633Y-43551813D01*
X17813399Y-43705758D01*
X17845907Y-43869185D01*
X17845907Y-44035815D01*
X17813399Y-44199242D01*
X17749633Y-44353187D01*
X17657059Y-44491734D01*
X17539234Y-44609559D01*
X17400687Y-44702133D01*
X17246742Y-44765899D01*
X17083315Y-44798407D01*
X16916685Y-44798407D01*
X16753258Y-44765899D01*
X16599313Y-44702133D01*
X16460766Y-44609559D01*
X16342941Y-44491734D01*
X16250367Y-44353187D01*
X16186601Y-44199242D01*
X16154093Y-44035815D01*
X16154093Y-43869185D01*
X16186601Y-43705758D01*
X16250367Y-43551813D01*
X16342941Y-43413266D01*
X16460766Y-43295441D01*
X16599313Y-43202867D01*
X16753258Y-43139101D01*
X16916685Y-43106593D01*
X17083315Y-43106593D01*
X17246742Y-43139101D01*
G37*
G36*
X17246742Y-40599101D02*
G01*
X17400687Y-40662867D01*
X17539234Y-40755441D01*
X17657059Y-40873266D01*
X17749633Y-41011813D01*
X17813399Y-41165758D01*
X17845907Y-41329185D01*
X17845907Y-41495815D01*
X17813399Y-41659242D01*
X17749633Y-41813187D01*
X17657059Y-41951734D01*
X17539234Y-42069559D01*
X17400687Y-42162133D01*
X17246742Y-42225899D01*
X17083315Y-42258407D01*
X16916685Y-42258407D01*
X16753258Y-42225899D01*
X16599313Y-42162133D01*
X16460766Y-42069559D01*
X16342941Y-41951734D01*
X16250367Y-41813187D01*
X16186601Y-41659242D01*
X16154093Y-41495815D01*
X16154093Y-41329185D01*
X16186601Y-41165758D01*
X16250367Y-41011813D01*
X16342941Y-40873266D01*
X16460766Y-40755441D01*
X16599313Y-40662867D01*
X16753258Y-40599101D01*
X16916685Y-40566593D01*
X17083315Y-40566593D01*
X17246742Y-40599101D01*
G37*
G36*
X17246742Y-38059101D02*
G01*
X17400687Y-38122867D01*
X17539234Y-38215441D01*
X17657059Y-38333266D01*
X17749633Y-38471813D01*
X17813399Y-38625758D01*
X17845907Y-38789185D01*
X17845907Y-38955815D01*
X17813399Y-39119242D01*
X17749633Y-39273187D01*
X17657059Y-39411734D01*
X17539234Y-39529559D01*
X17400687Y-39622133D01*
X17246742Y-39685899D01*
X17083315Y-39718407D01*
X16916685Y-39718407D01*
X16753258Y-39685899D01*
X16599313Y-39622133D01*
X16460766Y-39529559D01*
X16342941Y-39411734D01*
X16250367Y-39273187D01*
X16186601Y-39119242D01*
X16154093Y-38955815D01*
X16154093Y-38789185D01*
X16186601Y-38625758D01*
X16250367Y-38471813D01*
X16342941Y-38333266D01*
X16460766Y-38215441D01*
X16599313Y-38122867D01*
X16753258Y-38059101D01*
X16916685Y-38026593D01*
X17083315Y-38026593D01*
X17246742Y-38059101D01*
G37*
G36*
X120221197Y-35578311D02*
G01*
X120359204Y-35635476D01*
X120483408Y-35718466D01*
X120589034Y-35824092D01*
X120672024Y-35948296D01*
X120729189Y-36086303D01*
X120758331Y-36232811D01*
X120762000Y-36307500D01*
X120762000Y-37307500D01*
X120758331Y-37382189D01*
X120729189Y-37528697D01*
X120672024Y-37666704D01*
X120589034Y-37790908D01*
X120483408Y-37896534D01*
X120359204Y-37979524D01*
X120221197Y-38036689D01*
X120074689Y-38065831D01*
X119925311Y-38065831D01*
X119778803Y-38036689D01*
X119640796Y-37979524D01*
X119516592Y-37896534D01*
X119410966Y-37790908D01*
X119327976Y-37666704D01*
X119270811Y-37528697D01*
X119241669Y-37382189D01*
X119238000Y-37307500D01*
X119238000Y-36307500D01*
X119241669Y-36232811D01*
X119270811Y-36086303D01*
X119327976Y-35948296D01*
X119410966Y-35824092D01*
X119516592Y-35718466D01*
X119640796Y-35635476D01*
X119778803Y-35578311D01*
X119925311Y-35549169D01*
X120074689Y-35549169D01*
X120221197Y-35578311D01*
G37*
G36*
X122761197Y-35578311D02*
G01*
X122899204Y-35635476D01*
X123023408Y-35718466D01*
X123129034Y-35824092D01*
X123212024Y-35948296D01*
X123269189Y-36086303D01*
X123298331Y-36232811D01*
X123302000Y-36307500D01*
X123302000Y-37307500D01*
X123298331Y-37382189D01*
X123269189Y-37528697D01*
X123212024Y-37666704D01*
X123129034Y-37790908D01*
X123023408Y-37896534D01*
X122899204Y-37979524D01*
X122761197Y-38036689D01*
X122614689Y-38065831D01*
X122465311Y-38065831D01*
X122318803Y-38036689D01*
X122180796Y-37979524D01*
X122056592Y-37896534D01*
X121950966Y-37790908D01*
X121867976Y-37666704D01*
X121810811Y-37528697D01*
X121781669Y-37382189D01*
X121778000Y-37307500D01*
X121778000Y-36307500D01*
X121781669Y-36232811D01*
X121810811Y-36086303D01*
X121867976Y-35948296D01*
X121950966Y-35824092D01*
X122056592Y-35718466D01*
X122180796Y-35635476D01*
X122318803Y-35578311D01*
X122465311Y-35549169D01*
X122614689Y-35549169D01*
X122761197Y-35578311D01*
G37*
G36*
X125301197Y-35578311D02*
G01*
X125439204Y-35635476D01*
X125563408Y-35718466D01*
X125669034Y-35824092D01*
X125752024Y-35948296D01*
X125809189Y-36086303D01*
X125838331Y-36232811D01*
X125842000Y-36307500D01*
X125842000Y-37307500D01*
X125838331Y-37382189D01*
X125809189Y-37528697D01*
X125752024Y-37666704D01*
X125669034Y-37790908D01*
X125563408Y-37896534D01*
X125439204Y-37979524D01*
X125301197Y-38036689D01*
X125154689Y-38065831D01*
X125005311Y-38065831D01*
X124858803Y-38036689D01*
X124720796Y-37979524D01*
X124596592Y-37896534D01*
X124490966Y-37790908D01*
X124407976Y-37666704D01*
X124350811Y-37528697D01*
X124321669Y-37382189D01*
X124318000Y-37307500D01*
X124318000Y-36307500D01*
X124321669Y-36232811D01*
X124350811Y-36086303D01*
X124407976Y-35948296D01*
X124490966Y-35824092D01*
X124596592Y-35718466D01*
X124720796Y-35635476D01*
X124858803Y-35578311D01*
X125005311Y-35549169D01*
X125154689Y-35549169D01*
X125301197Y-35578311D01*
G37*
G36*
X127841197Y-35578311D02*
G01*
X127979204Y-35635476D01*
X128103408Y-35718466D01*
X128209034Y-35824092D01*
X128292024Y-35948296D01*
X128349189Y-36086303D01*
X128378331Y-36232811D01*
X128382000Y-36307500D01*
X128382000Y-37307500D01*
X128378331Y-37382189D01*
X128349189Y-37528697D01*
X128292024Y-37666704D01*
X128209034Y-37790908D01*
X128103408Y-37896534D01*
X127979204Y-37979524D01*
X127841197Y-38036689D01*
X127694689Y-38065831D01*
X127545311Y-38065831D01*
X127398803Y-38036689D01*
X127260796Y-37979524D01*
X127136592Y-37896534D01*
X127030966Y-37790908D01*
X126947976Y-37666704D01*
X126890811Y-37528697D01*
X126861669Y-37382189D01*
X126858000Y-37307500D01*
X126858000Y-36307500D01*
X126861669Y-36232811D01*
X126890811Y-36086303D01*
X126947976Y-35948296D01*
X127030966Y-35824092D01*
X127136592Y-35718466D01*
X127260796Y-35635476D01*
X127398803Y-35578311D01*
X127545311Y-35549169D01*
X127694689Y-35549169D01*
X127841197Y-35578311D01*
G37*
G36*
X130381197Y-35578311D02*
G01*
X130519204Y-35635476D01*
X130643408Y-35718466D01*
X130749034Y-35824092D01*
X130832024Y-35948296D01*
X130889189Y-36086303D01*
X130918331Y-36232811D01*
X130922000Y-36307500D01*
X130922000Y-37307500D01*
X130918331Y-37382189D01*
X130889189Y-37528697D01*
X130832024Y-37666704D01*
X130749034Y-37790908D01*
X130643408Y-37896534D01*
X130519204Y-37979524D01*
X130381197Y-38036689D01*
X130234689Y-38065831D01*
X130085311Y-38065831D01*
X129938803Y-38036689D01*
X129800796Y-37979524D01*
X129676592Y-37896534D01*
X129570966Y-37790908D01*
X129487976Y-37666704D01*
X129430811Y-37528697D01*
X129401669Y-37382189D01*
X129398000Y-37307500D01*
X129398000Y-36307500D01*
X129401669Y-36232811D01*
X129430811Y-36086303D01*
X129487976Y-35948296D01*
X129570966Y-35824092D01*
X129676592Y-35718466D01*
X129800796Y-35635476D01*
X129938803Y-35578311D01*
X130085311Y-35549169D01*
X130234689Y-35549169D01*
X130381197Y-35578311D01*
G37*
G36*
X42061197Y-35563311D02*
G01*
X42199204Y-35620476D01*
X42323408Y-35703466D01*
X42429034Y-35809092D01*
X42512024Y-35933296D01*
X42569189Y-36071303D01*
X42598331Y-36217811D01*
X42602000Y-36292500D01*
X42602000Y-37292500D01*
X42598331Y-37367189D01*
X42569189Y-37513697D01*
X42512024Y-37651704D01*
X42429034Y-37775908D01*
X42323408Y-37881534D01*
X42199204Y-37964524D01*
X42061197Y-38021689D01*
X41914689Y-38050831D01*
X41765311Y-38050831D01*
X41618803Y-38021689D01*
X41480796Y-37964524D01*
X41356592Y-37881534D01*
X41250966Y-37775908D01*
X41167976Y-37651704D01*
X41110811Y-37513697D01*
X41081669Y-37367189D01*
X41078000Y-37292500D01*
X41078000Y-36292500D01*
X41081669Y-36217811D01*
X41110811Y-36071303D01*
X41167976Y-35933296D01*
X41250966Y-35809092D01*
X41356592Y-35703466D01*
X41480796Y-35620476D01*
X41618803Y-35563311D01*
X41765311Y-35534169D01*
X41914689Y-35534169D01*
X42061197Y-35563311D01*
G37*
G36*
X44601197Y-35563311D02*
G01*
X44739204Y-35620476D01*
X44863408Y-35703466D01*
X44969034Y-35809092D01*
X45052024Y-35933296D01*
X45109189Y-36071303D01*
X45138331Y-36217811D01*
X45142000Y-36292500D01*
X45142000Y-37292500D01*
X45138331Y-37367189D01*
X45109189Y-37513697D01*
X45052024Y-37651704D01*
X44969034Y-37775908D01*
X44863408Y-37881534D01*
X44739204Y-37964524D01*
X44601197Y-38021689D01*
X44454689Y-38050831D01*
X44305311Y-38050831D01*
X44158803Y-38021689D01*
X44020796Y-37964524D01*
X43896592Y-37881534D01*
X43790966Y-37775908D01*
X43707976Y-37651704D01*
X43650811Y-37513697D01*
X43621669Y-37367189D01*
X43618000Y-37292500D01*
X43618000Y-36292500D01*
X43621669Y-36217811D01*
X43650811Y-36071303D01*
X43707976Y-35933296D01*
X43790966Y-35809092D01*
X43896592Y-35703466D01*
X44020796Y-35620476D01*
X44158803Y-35563311D01*
X44305311Y-35534169D01*
X44454689Y-35534169D01*
X44601197Y-35563311D01*
G37*
G36*
X47141197Y-35563311D02*
G01*
X47279204Y-35620476D01*
X47403408Y-35703466D01*
X47509034Y-35809092D01*
X47592024Y-35933296D01*
X47649189Y-36071303D01*
X47678331Y-36217811D01*
X47682000Y-36292500D01*
X47682000Y-37292500D01*
X47678331Y-37367189D01*
X47649189Y-37513697D01*
X47592024Y-37651704D01*
X47509034Y-37775908D01*
X47403408Y-37881534D01*
X47279204Y-37964524D01*
X47141197Y-38021689D01*
X46994689Y-38050831D01*
X46845311Y-38050831D01*
X46698803Y-38021689D01*
X46560796Y-37964524D01*
X46436592Y-37881534D01*
X46330966Y-37775908D01*
X46247976Y-37651704D01*
X46190811Y-37513697D01*
X46161669Y-37367189D01*
X46158000Y-37292500D01*
X46158000Y-36292500D01*
X46161669Y-36217811D01*
X46190811Y-36071303D01*
X46247976Y-35933296D01*
X46330966Y-35809092D01*
X46436592Y-35703466D01*
X46560796Y-35620476D01*
X46698803Y-35563311D01*
X46845311Y-35534169D01*
X46994689Y-35534169D01*
X47141197Y-35563311D01*
G37*
G36*
X49681197Y-35563311D02*
G01*
X49819204Y-35620476D01*
X49943408Y-35703466D01*
X50049034Y-35809092D01*
X50132024Y-35933296D01*
X50189189Y-36071303D01*
X50218331Y-36217811D01*
X50222000Y-36292500D01*
X50222000Y-37292500D01*
X50218331Y-37367189D01*
X50189189Y-37513697D01*
X50132024Y-37651704D01*
X50049034Y-37775908D01*
X49943408Y-37881534D01*
X49819204Y-37964524D01*
X49681197Y-38021689D01*
X49534689Y-38050831D01*
X49385311Y-38050831D01*
X49238803Y-38021689D01*
X49100796Y-37964524D01*
X48976592Y-37881534D01*
X48870966Y-37775908D01*
X48787976Y-37651704D01*
X48730811Y-37513697D01*
X48701669Y-37367189D01*
X48698000Y-37292500D01*
X48698000Y-36292500D01*
X48701669Y-36217811D01*
X48730811Y-36071303D01*
X48787976Y-35933296D01*
X48870966Y-35809092D01*
X48976592Y-35703466D01*
X49100796Y-35620476D01*
X49238803Y-35563311D01*
X49385311Y-35534169D01*
X49534689Y-35534169D01*
X49681197Y-35563311D01*
G37*
G36*
X52221197Y-35563311D02*
G01*
X52359204Y-35620476D01*
X52483408Y-35703466D01*
X52589034Y-35809092D01*
X52672024Y-35933296D01*
X52729189Y-36071303D01*
X52758331Y-36217811D01*
X52762000Y-36292500D01*
X52762000Y-37292500D01*
X52758331Y-37367189D01*
X52729189Y-37513697D01*
X52672024Y-37651704D01*
X52589034Y-37775908D01*
X52483408Y-37881534D01*
X52359204Y-37964524D01*
X52221197Y-38021689D01*
X52074689Y-38050831D01*
X51925311Y-38050831D01*
X51778803Y-38021689D01*
X51640796Y-37964524D01*
X51516592Y-37881534D01*
X51410966Y-37775908D01*
X51327976Y-37651704D01*
X51270811Y-37513697D01*
X51241669Y-37367189D01*
X51238000Y-37292500D01*
X51238000Y-36292500D01*
X51241669Y-36217811D01*
X51270811Y-36071303D01*
X51327976Y-35933296D01*
X51410966Y-35809092D01*
X51516592Y-35703466D01*
X51640796Y-35620476D01*
X51778803Y-35563311D01*
X51925311Y-35534169D01*
X52074689Y-35534169D01*
X52221197Y-35563311D01*
G37*
G36*
X68221197Y-35563311D02*
G01*
X68359204Y-35620476D01*
X68483408Y-35703466D01*
X68589034Y-35809092D01*
X68672024Y-35933296D01*
X68729189Y-36071303D01*
X68758331Y-36217811D01*
X68762000Y-36292500D01*
X68762000Y-37292500D01*
X68758331Y-37367189D01*
X68729189Y-37513697D01*
X68672024Y-37651704D01*
X68589034Y-37775908D01*
X68483408Y-37881534D01*
X68359204Y-37964524D01*
X68221197Y-38021689D01*
X68074689Y-38050831D01*
X67925311Y-38050831D01*
X67778803Y-38021689D01*
X67640796Y-37964524D01*
X67516592Y-37881534D01*
X67410966Y-37775908D01*
X67327976Y-37651704D01*
X67270811Y-37513697D01*
X67241669Y-37367189D01*
X67238000Y-37292500D01*
X67238000Y-36292500D01*
X67241669Y-36217811D01*
X67270811Y-36071303D01*
X67327976Y-35933296D01*
X67410966Y-35809092D01*
X67516592Y-35703466D01*
X67640796Y-35620476D01*
X67778803Y-35563311D01*
X67925311Y-35534169D01*
X68074689Y-35534169D01*
X68221197Y-35563311D01*
G37*
G36*
X70761197Y-35563311D02*
G01*
X70899204Y-35620476D01*
X71023408Y-35703466D01*
X71129034Y-35809092D01*
X71212024Y-35933296D01*
X71269189Y-36071303D01*
X71298331Y-36217811D01*
X71302000Y-36292500D01*
X71302000Y-37292500D01*
X71298331Y-37367189D01*
X71269189Y-37513697D01*
X71212024Y-37651704D01*
X71129034Y-37775908D01*
X71023408Y-37881534D01*
X70899204Y-37964524D01*
X70761197Y-38021689D01*
X70614689Y-38050831D01*
X70465311Y-38050831D01*
X70318803Y-38021689D01*
X70180796Y-37964524D01*
X70056592Y-37881534D01*
X69950966Y-37775908D01*
X69867976Y-37651704D01*
X69810811Y-37513697D01*
X69781669Y-37367189D01*
X69778000Y-37292500D01*
X69778000Y-36292500D01*
X69781669Y-36217811D01*
X69810811Y-36071303D01*
X69867976Y-35933296D01*
X69950966Y-35809092D01*
X70056592Y-35703466D01*
X70180796Y-35620476D01*
X70318803Y-35563311D01*
X70465311Y-35534169D01*
X70614689Y-35534169D01*
X70761197Y-35563311D01*
G37*
G36*
X73301197Y-35563311D02*
G01*
X73439204Y-35620476D01*
X73563408Y-35703466D01*
X73669034Y-35809092D01*
X73752024Y-35933296D01*
X73809189Y-36071303D01*
X73838331Y-36217811D01*
X73842000Y-36292500D01*
X73842000Y-37292500D01*
X73838331Y-37367189D01*
X73809189Y-37513697D01*
X73752024Y-37651704D01*
X73669034Y-37775908D01*
X73563408Y-37881534D01*
X73439204Y-37964524D01*
X73301197Y-38021689D01*
X73154689Y-38050831D01*
X73005311Y-38050831D01*
X72858803Y-38021689D01*
X72720796Y-37964524D01*
X72596592Y-37881534D01*
X72490966Y-37775908D01*
X72407976Y-37651704D01*
X72350811Y-37513697D01*
X72321669Y-37367189D01*
X72318000Y-37292500D01*
X72318000Y-36292500D01*
X72321669Y-36217811D01*
X72350811Y-36071303D01*
X72407976Y-35933296D01*
X72490966Y-35809092D01*
X72596592Y-35703466D01*
X72720796Y-35620476D01*
X72858803Y-35563311D01*
X73005311Y-35534169D01*
X73154689Y-35534169D01*
X73301197Y-35563311D01*
G37*
G36*
X75841197Y-35563311D02*
G01*
X75979204Y-35620476D01*
X76103408Y-35703466D01*
X76209034Y-35809092D01*
X76292024Y-35933296D01*
X76349189Y-36071303D01*
X76378331Y-36217811D01*
X76382000Y-36292500D01*
X76382000Y-37292500D01*
X76378331Y-37367189D01*
X76349189Y-37513697D01*
X76292024Y-37651704D01*
X76209034Y-37775908D01*
X76103408Y-37881534D01*
X75979204Y-37964524D01*
X75841197Y-38021689D01*
X75694689Y-38050831D01*
X75545311Y-38050831D01*
X75398803Y-38021689D01*
X75260796Y-37964524D01*
X75136592Y-37881534D01*
X75030966Y-37775908D01*
X74947976Y-37651704D01*
X74890811Y-37513697D01*
X74861669Y-37367189D01*
X74858000Y-37292500D01*
X74858000Y-36292500D01*
X74861669Y-36217811D01*
X74890811Y-36071303D01*
X74947976Y-35933296D01*
X75030966Y-35809092D01*
X75136592Y-35703466D01*
X75260796Y-35620476D01*
X75398803Y-35563311D01*
X75545311Y-35534169D01*
X75694689Y-35534169D01*
X75841197Y-35563311D01*
G37*
G36*
X78381197Y-35563311D02*
G01*
X78519204Y-35620476D01*
X78643408Y-35703466D01*
X78749034Y-35809092D01*
X78832024Y-35933296D01*
X78889189Y-36071303D01*
X78918331Y-36217811D01*
X78922000Y-36292500D01*
X78922000Y-37292500D01*
X78918331Y-37367189D01*
X78889189Y-37513697D01*
X78832024Y-37651704D01*
X78749034Y-37775908D01*
X78643408Y-37881534D01*
X78519204Y-37964524D01*
X78381197Y-38021689D01*
X78234689Y-38050831D01*
X78085311Y-38050831D01*
X77938803Y-38021689D01*
X77800796Y-37964524D01*
X77676592Y-37881534D01*
X77570966Y-37775908D01*
X77487976Y-37651704D01*
X77430811Y-37513697D01*
X77401669Y-37367189D01*
X77398000Y-37292500D01*
X77398000Y-36292500D01*
X77401669Y-36217811D01*
X77430811Y-36071303D01*
X77487976Y-35933296D01*
X77570966Y-35809092D01*
X77676592Y-35703466D01*
X77800796Y-35620476D01*
X77938803Y-35563311D01*
X78085311Y-35534169D01*
X78234689Y-35534169D01*
X78381197Y-35563311D01*
G37*
G36*
X94221197Y-35563311D02*
G01*
X94359204Y-35620476D01*
X94483408Y-35703466D01*
X94589034Y-35809092D01*
X94672024Y-35933296D01*
X94729189Y-36071303D01*
X94758331Y-36217811D01*
X94762000Y-36292500D01*
X94762000Y-37292500D01*
X94758331Y-37367189D01*
X94729189Y-37513697D01*
X94672024Y-37651704D01*
X94589034Y-37775908D01*
X94483408Y-37881534D01*
X94359204Y-37964524D01*
X94221197Y-38021689D01*
X94074689Y-38050831D01*
X93925311Y-38050831D01*
X93778803Y-38021689D01*
X93640796Y-37964524D01*
X93516592Y-37881534D01*
X93410966Y-37775908D01*
X93327976Y-37651704D01*
X93270811Y-37513697D01*
X93241669Y-37367189D01*
X93238000Y-37292500D01*
X93238000Y-36292500D01*
X93241669Y-36217811D01*
X93270811Y-36071303D01*
X93327976Y-35933296D01*
X93410966Y-35809092D01*
X93516592Y-35703466D01*
X93640796Y-35620476D01*
X93778803Y-35563311D01*
X93925311Y-35534169D01*
X94074689Y-35534169D01*
X94221197Y-35563311D01*
G37*
G36*
X96761197Y-35563311D02*
G01*
X96899204Y-35620476D01*
X97023408Y-35703466D01*
X97129034Y-35809092D01*
X97212024Y-35933296D01*
X97269189Y-36071303D01*
X97298331Y-36217811D01*
X97302000Y-36292500D01*
X97302000Y-37292500D01*
X97298331Y-37367189D01*
X97269189Y-37513697D01*
X97212024Y-37651704D01*
X97129034Y-37775908D01*
X97023408Y-37881534D01*
X96899204Y-37964524D01*
X96761197Y-38021689D01*
X96614689Y-38050831D01*
X96465311Y-38050831D01*
X96318803Y-38021689D01*
X96180796Y-37964524D01*
X96056592Y-37881534D01*
X95950966Y-37775908D01*
X95867976Y-37651704D01*
X95810811Y-37513697D01*
X95781669Y-37367189D01*
X95778000Y-37292500D01*
X95778000Y-36292500D01*
X95781669Y-36217811D01*
X95810811Y-36071303D01*
X95867976Y-35933296D01*
X95950966Y-35809092D01*
X96056592Y-35703466D01*
X96180796Y-35620476D01*
X96318803Y-35563311D01*
X96465311Y-35534169D01*
X96614689Y-35534169D01*
X96761197Y-35563311D01*
G37*
G36*
X99301197Y-35563311D02*
G01*
X99439204Y-35620476D01*
X99563408Y-35703466D01*
X99669034Y-35809092D01*
X99752024Y-35933296D01*
X99809189Y-36071303D01*
X99838331Y-36217811D01*
X99842000Y-36292500D01*
X99842000Y-37292500D01*
X99838331Y-37367189D01*
X99809189Y-37513697D01*
X99752024Y-37651704D01*
X99669034Y-37775908D01*
X99563408Y-37881534D01*
X99439204Y-37964524D01*
X99301197Y-38021689D01*
X99154689Y-38050831D01*
X99005311Y-38050831D01*
X98858803Y-38021689D01*
X98720796Y-37964524D01*
X98596592Y-37881534D01*
X98490966Y-37775908D01*
X98407976Y-37651704D01*
X98350811Y-37513697D01*
X98321669Y-37367189D01*
X98318000Y-37292500D01*
X98318000Y-36292500D01*
X98321669Y-36217811D01*
X98350811Y-36071303D01*
X98407976Y-35933296D01*
X98490966Y-35809092D01*
X98596592Y-35703466D01*
X98720796Y-35620476D01*
X98858803Y-35563311D01*
X99005311Y-35534169D01*
X99154689Y-35534169D01*
X99301197Y-35563311D01*
G37*
G36*
X101841197Y-35563311D02*
G01*
X101979204Y-35620476D01*
X102103408Y-35703466D01*
X102209034Y-35809092D01*
X102292024Y-35933296D01*
X102349189Y-36071303D01*
X102378331Y-36217811D01*
X102382000Y-36292500D01*
X102382000Y-37292500D01*
X102378331Y-37367189D01*
X102349189Y-37513697D01*
X102292024Y-37651704D01*
X102209034Y-37775908D01*
X102103408Y-37881534D01*
X101979204Y-37964524D01*
X101841197Y-38021689D01*
X101694689Y-38050831D01*
X101545311Y-38050831D01*
X101398803Y-38021689D01*
X101260796Y-37964524D01*
X101136592Y-37881534D01*
X101030966Y-37775908D01*
X100947976Y-37651704D01*
X100890811Y-37513697D01*
X100861669Y-37367189D01*
X100858000Y-37292500D01*
X100858000Y-36292500D01*
X100861669Y-36217811D01*
X100890811Y-36071303D01*
X100947976Y-35933296D01*
X101030966Y-35809092D01*
X101136592Y-35703466D01*
X101260796Y-35620476D01*
X101398803Y-35563311D01*
X101545311Y-35534169D01*
X101694689Y-35534169D01*
X101841197Y-35563311D01*
G37*
G36*
X104381197Y-35563311D02*
G01*
X104519204Y-35620476D01*
X104643408Y-35703466D01*
X104749034Y-35809092D01*
X104832024Y-35933296D01*
X104889189Y-36071303D01*
X104918331Y-36217811D01*
X104922000Y-36292500D01*
X104922000Y-37292500D01*
X104918331Y-37367189D01*
X104889189Y-37513697D01*
X104832024Y-37651704D01*
X104749034Y-37775908D01*
X104643408Y-37881534D01*
X104519204Y-37964524D01*
X104381197Y-38021689D01*
X104234689Y-38050831D01*
X104085311Y-38050831D01*
X103938803Y-38021689D01*
X103800796Y-37964524D01*
X103676592Y-37881534D01*
X103570966Y-37775908D01*
X103487976Y-37651704D01*
X103430811Y-37513697D01*
X103401669Y-37367189D01*
X103398000Y-37292500D01*
X103398000Y-36292500D01*
X103401669Y-36217811D01*
X103430811Y-36071303D01*
X103487976Y-35933296D01*
X103570966Y-35809092D01*
X103676592Y-35703466D01*
X103800796Y-35620476D01*
X103938803Y-35563311D01*
X104085311Y-35534169D01*
X104234689Y-35534169D01*
X104381197Y-35563311D01*
G37*
G36*
X17246742Y-35519101D02*
G01*
X17400687Y-35582867D01*
X17539234Y-35675441D01*
X17657059Y-35793266D01*
X17749633Y-35931813D01*
X17813399Y-36085758D01*
X17845907Y-36249185D01*
X17845907Y-36415815D01*
X17813399Y-36579242D01*
X17749633Y-36733187D01*
X17657059Y-36871734D01*
X17539234Y-36989559D01*
X17400687Y-37082133D01*
X17246742Y-37145899D01*
X17083315Y-37178407D01*
X16916685Y-37178407D01*
X16753258Y-37145899D01*
X16599313Y-37082133D01*
X16460766Y-36989559D01*
X16342941Y-36871734D01*
X16250367Y-36733187D01*
X16186601Y-36579242D01*
X16154093Y-36415815D01*
X16154093Y-36249185D01*
X16186601Y-36085758D01*
X16250367Y-35931813D01*
X16342941Y-35793266D01*
X16460766Y-35675441D01*
X16599313Y-35582867D01*
X16753258Y-35519101D01*
X16916685Y-35486593D01*
X17083315Y-35486593D01*
X17246742Y-35519101D01*
G37*
G36*
X17850000Y-34642500D02*
G01*
X16150000Y-34642500D01*
X16150000Y-32942500D01*
X17850000Y-32942500D01*
X17850000Y-34642500D01*
G37*
G36*
X24612228Y-32026948D02*
G01*
X24757117Y-32086963D01*
X24887515Y-32174092D01*
X24998408Y-32284985D01*
X25085537Y-32415383D01*
X25145552Y-32560272D01*
X25176148Y-32714086D01*
X25176148Y-32870914D01*
X25145552Y-33024728D01*
X25085537Y-33169617D01*
X24998408Y-33300015D01*
X24887515Y-33410908D01*
X24757117Y-33498037D01*
X24612228Y-33558052D01*
X24458414Y-33588648D01*
X24301586Y-33588648D01*
X24147772Y-33558052D01*
X24002883Y-33498037D01*
X23872485Y-33410908D01*
X23761592Y-33300015D01*
X23674463Y-33169617D01*
X23614448Y-33024728D01*
X23583852Y-32870914D01*
X23583852Y-32714086D01*
X23614448Y-32560272D01*
X23674463Y-32415383D01*
X23761592Y-32284985D01*
X23872485Y-32174092D01*
X24002883Y-32086963D01*
X24147772Y-32026948D01*
X24301586Y-31996352D01*
X24458414Y-31996352D01*
X24612228Y-32026948D01*
G37*
G36*
X32232228Y-32026948D02*
G01*
X32377117Y-32086963D01*
X32507515Y-32174092D01*
X32618408Y-32284985D01*
X32705537Y-32415383D01*
X32765552Y-32560272D01*
X32796148Y-32714086D01*
X32796148Y-32870914D01*
X32765552Y-33024728D01*
X32705537Y-33169617D01*
X32618408Y-33300015D01*
X32507515Y-33410908D01*
X32377117Y-33498037D01*
X32232228Y-33558052D01*
X32078414Y-33588648D01*
X31921586Y-33588648D01*
X31767772Y-33558052D01*
X31622883Y-33498037D01*
X31492485Y-33410908D01*
X31381592Y-33300015D01*
X31294463Y-33169617D01*
X31234448Y-33024728D01*
X31203852Y-32870914D01*
X31203852Y-32714086D01*
X31234448Y-32560272D01*
X31294463Y-32415383D01*
X31381592Y-32284985D01*
X31492485Y-32174092D01*
X31622883Y-32086963D01*
X31767772Y-32026948D01*
X31921586Y-31996352D01*
X32078414Y-31996352D01*
X32232228Y-32026948D01*
G37*
G36*
X35584850Y-29798464D02*
G01*
X35635040Y-29804287D01*
X35652189Y-29811859D01*
X35675671Y-29816530D01*
X35700810Y-29833327D01*
X35720696Y-29842108D01*
X35734277Y-29855689D01*
X35756777Y-29870723D01*
X35771810Y-29893222D01*
X35785391Y-29906803D01*
X35794170Y-29926686D01*
X35810970Y-29951829D01*
X35815641Y-29975312D01*
X35823212Y-29992459D01*
X35829033Y-30042639D01*
X35830000Y-30047500D01*
X35830000Y-31147500D01*
X35829032Y-31152363D01*
X35823212Y-31202540D01*
X35815641Y-31219685D01*
X35810970Y-31243171D01*
X35794169Y-31268315D01*
X35785391Y-31288196D01*
X35771812Y-31301774D01*
X35756777Y-31324277D01*
X35734274Y-31339312D01*
X35720696Y-31352891D01*
X35700815Y-31361669D01*
X35675671Y-31378470D01*
X35652185Y-31383141D01*
X35635040Y-31390712D01*
X35584861Y-31396532D01*
X35580000Y-31397500D01*
X34480000Y-31397500D01*
X34475138Y-31396532D01*
X34424959Y-31390712D01*
X34407812Y-31383141D01*
X34384329Y-31378470D01*
X34359186Y-31361670D01*
X34339303Y-31352891D01*
X34325722Y-31339310D01*
X34303223Y-31324277D01*
X34288189Y-31301777D01*
X34274608Y-31288196D01*
X34265827Y-31268310D01*
X34249030Y-31243171D01*
X34244359Y-31219689D01*
X34236787Y-31202540D01*
X34230964Y-31152349D01*
X34230000Y-31147500D01*
X34230000Y-30047500D01*
X34230964Y-30042650D01*
X34236787Y-29992459D01*
X34244359Y-29975308D01*
X34249030Y-29951829D01*
X34265826Y-29926691D01*
X34274608Y-29906803D01*
X34288191Y-29893219D01*
X34303223Y-29870723D01*
X34325719Y-29855691D01*
X34339303Y-29842108D01*
X34359191Y-29833326D01*
X34384329Y-29816530D01*
X34407808Y-29811859D01*
X34424959Y-29804287D01*
X34475151Y-29798464D01*
X34480000Y-29797500D01*
X35580000Y-29797500D01*
X35584850Y-29798464D01*
G37*
G36*
X37802228Y-29831948D02*
G01*
X37947117Y-29891963D01*
X38077515Y-29979092D01*
X38188408Y-30089985D01*
X38275537Y-30220383D01*
X38335552Y-30365272D01*
X38366148Y-30519086D01*
X38366148Y-30675914D01*
X38335552Y-30829728D01*
X38275537Y-30974617D01*
X38188408Y-31105015D01*
X38077515Y-31215908D01*
X37947117Y-31303037D01*
X37802228Y-31363052D01*
X37648414Y-31393648D01*
X37491586Y-31393648D01*
X37337772Y-31363052D01*
X37192883Y-31303037D01*
X37062485Y-31215908D01*
X36951592Y-31105015D01*
X36864463Y-30974617D01*
X36804448Y-30829728D01*
X36773852Y-30675914D01*
X36773852Y-30519086D01*
X36804448Y-30365272D01*
X36864463Y-30220383D01*
X36951592Y-30089985D01*
X37062485Y-29979092D01*
X37192883Y-29891963D01*
X37337772Y-29831948D01*
X37491586Y-29801352D01*
X37648414Y-29801352D01*
X37802228Y-29831948D01*
G37*
G36*
X40342228Y-29831948D02*
G01*
X40487117Y-29891963D01*
X40617515Y-29979092D01*
X40728408Y-30089985D01*
X40815537Y-30220383D01*
X40875552Y-30365272D01*
X40906148Y-30519086D01*
X40906148Y-30675914D01*
X40875552Y-30829728D01*
X40815537Y-30974617D01*
X40728408Y-31105015D01*
X40617515Y-31215908D01*
X40487117Y-31303037D01*
X40342228Y-31363052D01*
X40188414Y-31393648D01*
X40031586Y-31393648D01*
X39877772Y-31363052D01*
X39732883Y-31303037D01*
X39602485Y-31215908D01*
X39491592Y-31105015D01*
X39404463Y-30974617D01*
X39344448Y-30829728D01*
X39313852Y-30675914D01*
X39313852Y-30519086D01*
X39344448Y-30365272D01*
X39404463Y-30220383D01*
X39491592Y-30089985D01*
X39602485Y-29979092D01*
X39732883Y-29891963D01*
X39877772Y-29831948D01*
X40031586Y-29801352D01*
X40188414Y-29801352D01*
X40342228Y-29831948D01*
G37*
G36*
X42882228Y-29831948D02*
G01*
X43027117Y-29891963D01*
X43157515Y-29979092D01*
X43268408Y-30089985D01*
X43355537Y-30220383D01*
X43415552Y-30365272D01*
X43446148Y-30519086D01*
X43446148Y-30675914D01*
X43415552Y-30829728D01*
X43355537Y-30974617D01*
X43268408Y-31105015D01*
X43157515Y-31215908D01*
X43027117Y-31303037D01*
X42882228Y-31363052D01*
X42728414Y-31393648D01*
X42571586Y-31393648D01*
X42417772Y-31363052D01*
X42272883Y-31303037D01*
X42142485Y-31215908D01*
X42031592Y-31105015D01*
X41944463Y-30974617D01*
X41884448Y-30829728D01*
X41853852Y-30675914D01*
X41853852Y-30519086D01*
X41884448Y-30365272D01*
X41944463Y-30220383D01*
X42031592Y-30089985D01*
X42142485Y-29979092D01*
X42272883Y-29891963D01*
X42417772Y-29831948D01*
X42571586Y-29801352D01*
X42728414Y-29801352D01*
X42882228Y-29831948D01*
G37*
G36*
X45422228Y-29831948D02*
G01*
X45567117Y-29891963D01*
X45697515Y-29979092D01*
X45808408Y-30089985D01*
X45895537Y-30220383D01*
X45955552Y-30365272D01*
X45986148Y-30519086D01*
X45986148Y-30675914D01*
X45955552Y-30829728D01*
X45895537Y-30974617D01*
X45808408Y-31105015D01*
X45697515Y-31215908D01*
X45567117Y-31303037D01*
X45422228Y-31363052D01*
X45268414Y-31393648D01*
X45111586Y-31393648D01*
X44957772Y-31363052D01*
X44812883Y-31303037D01*
X44682485Y-31215908D01*
X44571592Y-31105015D01*
X44484463Y-30974617D01*
X44424448Y-30829728D01*
X44393852Y-30675914D01*
X44393852Y-30519086D01*
X44424448Y-30365272D01*
X44484463Y-30220383D01*
X44571592Y-30089985D01*
X44682485Y-29979092D01*
X44812883Y-29891963D01*
X44957772Y-29831948D01*
X45111586Y-29801352D01*
X45268414Y-29801352D01*
X45422228Y-29831948D01*
G37*
G36*
X47962228Y-29831948D02*
G01*
X48107117Y-29891963D01*
X48237515Y-29979092D01*
X48348408Y-30089985D01*
X48435537Y-30220383D01*
X48495552Y-30365272D01*
X48526148Y-30519086D01*
X48526148Y-30675914D01*
X48495552Y-30829728D01*
X48435537Y-30974617D01*
X48348408Y-31105015D01*
X48237515Y-31215908D01*
X48107117Y-31303037D01*
X47962228Y-31363052D01*
X47808414Y-31393648D01*
X47651586Y-31393648D01*
X47497772Y-31363052D01*
X47352883Y-31303037D01*
X47222485Y-31215908D01*
X47111592Y-31105015D01*
X47024463Y-30974617D01*
X46964448Y-30829728D01*
X46933852Y-30675914D01*
X46933852Y-30519086D01*
X46964448Y-30365272D01*
X47024463Y-30220383D01*
X47111592Y-30089985D01*
X47222485Y-29979092D01*
X47352883Y-29891963D01*
X47497772Y-29831948D01*
X47651586Y-29801352D01*
X47808414Y-29801352D01*
X47962228Y-29831948D01*
G37*
G36*
X50502228Y-29831948D02*
G01*
X50647117Y-29891963D01*
X50777515Y-29979092D01*
X50888408Y-30089985D01*
X50975537Y-30220383D01*
X51035552Y-30365272D01*
X51066148Y-30519086D01*
X51066148Y-30675914D01*
X51035552Y-30829728D01*
X50975537Y-30974617D01*
X50888408Y-31105015D01*
X50777515Y-31215908D01*
X50647117Y-31303037D01*
X50502228Y-31363052D01*
X50348414Y-31393648D01*
X50191586Y-31393648D01*
X50037772Y-31363052D01*
X49892883Y-31303037D01*
X49762485Y-31215908D01*
X49651592Y-31105015D01*
X49564463Y-30974617D01*
X49504448Y-30829728D01*
X49473852Y-30675914D01*
X49473852Y-30519086D01*
X49504448Y-30365272D01*
X49564463Y-30220383D01*
X49651592Y-30089985D01*
X49762485Y-29979092D01*
X49892883Y-29891963D01*
X50037772Y-29831948D01*
X50191586Y-29801352D01*
X50348414Y-29801352D01*
X50502228Y-29831948D01*
G37*
G36*
X53042228Y-29831948D02*
G01*
X53187117Y-29891963D01*
X53317515Y-29979092D01*
X53428408Y-30089985D01*
X53515537Y-30220383D01*
X53575552Y-30365272D01*
X53606148Y-30519086D01*
X53606148Y-30675914D01*
X53575552Y-30829728D01*
X53515537Y-30974617D01*
X53428408Y-31105015D01*
X53317515Y-31215908D01*
X53187117Y-31303037D01*
X53042228Y-31363052D01*
X52888414Y-31393648D01*
X52731586Y-31393648D01*
X52577772Y-31363052D01*
X52432883Y-31303037D01*
X52302485Y-31215908D01*
X52191592Y-31105015D01*
X52104463Y-30974617D01*
X52044448Y-30829728D01*
X52013852Y-30675914D01*
X52013852Y-30519086D01*
X52044448Y-30365272D01*
X52104463Y-30220383D01*
X52191592Y-30089985D01*
X52302485Y-29979092D01*
X52432883Y-29891963D01*
X52577772Y-29831948D01*
X52731586Y-29801352D01*
X52888414Y-29801352D01*
X53042228Y-29831948D01*
G37*
G36*
X55582228Y-29831948D02*
G01*
X55727117Y-29891963D01*
X55857515Y-29979092D01*
X55968408Y-30089985D01*
X56055537Y-30220383D01*
X56115552Y-30365272D01*
X56146148Y-30519086D01*
X56146148Y-30675914D01*
X56115552Y-30829728D01*
X56055537Y-30974617D01*
X55968408Y-31105015D01*
X55857515Y-31215908D01*
X55727117Y-31303037D01*
X55582228Y-31363052D01*
X55428414Y-31393648D01*
X55271586Y-31393648D01*
X55117772Y-31363052D01*
X54972883Y-31303037D01*
X54842485Y-31215908D01*
X54731592Y-31105015D01*
X54644463Y-30974617D01*
X54584448Y-30829728D01*
X54553852Y-30675914D01*
X54553852Y-30519086D01*
X54584448Y-30365272D01*
X54644463Y-30220383D01*
X54731592Y-30089985D01*
X54842485Y-29979092D01*
X54972883Y-29891963D01*
X55117772Y-29831948D01*
X55271586Y-29801352D01*
X55428414Y-29801352D01*
X55582228Y-29831948D01*
G37*
G36*
X58122228Y-29831948D02*
G01*
X58267117Y-29891963D01*
X58397515Y-29979092D01*
X58508408Y-30089985D01*
X58595537Y-30220383D01*
X58655552Y-30365272D01*
X58686148Y-30519086D01*
X58686148Y-30675914D01*
X58655552Y-30829728D01*
X58595537Y-30974617D01*
X58508408Y-31105015D01*
X58397515Y-31215908D01*
X58267117Y-31303037D01*
X58122228Y-31363052D01*
X57968414Y-31393648D01*
X57811586Y-31393648D01*
X57657772Y-31363052D01*
X57512883Y-31303037D01*
X57382485Y-31215908D01*
X57271592Y-31105015D01*
X57184463Y-30974617D01*
X57124448Y-30829728D01*
X57093852Y-30675914D01*
X57093852Y-30519086D01*
X57124448Y-30365272D01*
X57184463Y-30220383D01*
X57271592Y-30089985D01*
X57382485Y-29979092D01*
X57512883Y-29891963D01*
X57657772Y-29831948D01*
X57811586Y-29801352D01*
X57968414Y-29801352D01*
X58122228Y-29831948D01*
G37*
G36*
X60662228Y-29831948D02*
G01*
X60807117Y-29891963D01*
X60937515Y-29979092D01*
X61048408Y-30089985D01*
X61135537Y-30220383D01*
X61195552Y-30365272D01*
X61226148Y-30519086D01*
X61226148Y-30675914D01*
X61195552Y-30829728D01*
X61135537Y-30974617D01*
X61048408Y-31105015D01*
X60937515Y-31215908D01*
X60807117Y-31303037D01*
X60662228Y-31363052D01*
X60508414Y-31393648D01*
X60351586Y-31393648D01*
X60197772Y-31363052D01*
X60052883Y-31303037D01*
X59922485Y-31215908D01*
X59811592Y-31105015D01*
X59724463Y-30974617D01*
X59664448Y-30829728D01*
X59633852Y-30675914D01*
X59633852Y-30519086D01*
X59664448Y-30365272D01*
X59724463Y-30220383D01*
X59811592Y-30089985D01*
X59922485Y-29979092D01*
X60052883Y-29891963D01*
X60197772Y-29831948D01*
X60351586Y-29801352D01*
X60508414Y-29801352D01*
X60662228Y-29831948D01*
G37*
G36*
X63202228Y-29831948D02*
G01*
X63347117Y-29891963D01*
X63477515Y-29979092D01*
X63588408Y-30089985D01*
X63675537Y-30220383D01*
X63735552Y-30365272D01*
X63766148Y-30519086D01*
X63766148Y-30675914D01*
X63735552Y-30829728D01*
X63675537Y-30974617D01*
X63588408Y-31105015D01*
X63477515Y-31215908D01*
X63347117Y-31303037D01*
X63202228Y-31363052D01*
X63048414Y-31393648D01*
X62891586Y-31393648D01*
X62737772Y-31363052D01*
X62592883Y-31303037D01*
X62462485Y-31215908D01*
X62351592Y-31105015D01*
X62264463Y-30974617D01*
X62204448Y-30829728D01*
X62173852Y-30675914D01*
X62173852Y-30519086D01*
X62204448Y-30365272D01*
X62264463Y-30220383D01*
X62351592Y-30089985D01*
X62462485Y-29979092D01*
X62592883Y-29891963D01*
X62737772Y-29831948D01*
X62891586Y-29801352D01*
X63048414Y-29801352D01*
X63202228Y-29831948D01*
G37*
G36*
X17232228Y-28026948D02*
G01*
X17377117Y-28086963D01*
X17507515Y-28174092D01*
X17618408Y-28284985D01*
X17705537Y-28415383D01*
X17765552Y-28560272D01*
X17796148Y-28714086D01*
X17796148Y-28870914D01*
X17765552Y-29024728D01*
X17705537Y-29169617D01*
X17618408Y-29300015D01*
X17507515Y-29410908D01*
X17377117Y-29498037D01*
X17232228Y-29558052D01*
X17078414Y-29588648D01*
X16921586Y-29588648D01*
X16767772Y-29558052D01*
X16622883Y-29498037D01*
X16492485Y-29410908D01*
X16381592Y-29300015D01*
X16294463Y-29169617D01*
X16234448Y-29024728D01*
X16203852Y-28870914D01*
X16203852Y-28714086D01*
X16234448Y-28560272D01*
X16294463Y-28415383D01*
X16381592Y-28284985D01*
X16492485Y-28174092D01*
X16622883Y-28086963D01*
X16767772Y-28026948D01*
X16921586Y-27996352D01*
X17078414Y-27996352D01*
X17232228Y-28026948D01*
G37*
G36*
X19732228Y-28026948D02*
G01*
X19877117Y-28086963D01*
X20007515Y-28174092D01*
X20118408Y-28284985D01*
X20205537Y-28415383D01*
X20265552Y-28560272D01*
X20296148Y-28714086D01*
X20296148Y-28870914D01*
X20265552Y-29024728D01*
X20205537Y-29169617D01*
X20118408Y-29300015D01*
X20007515Y-29410908D01*
X19877117Y-29498037D01*
X19732228Y-29558052D01*
X19578414Y-29588648D01*
X19421586Y-29588648D01*
X19267772Y-29558052D01*
X19122883Y-29498037D01*
X18992485Y-29410908D01*
X18881592Y-29300015D01*
X18794463Y-29169617D01*
X18734448Y-29024728D01*
X18703852Y-28870914D01*
X18703852Y-28714086D01*
X18734448Y-28560272D01*
X18794463Y-28415383D01*
X18881592Y-28284985D01*
X18992485Y-28174092D01*
X19122883Y-28086963D01*
X19267772Y-28026948D01*
X19421586Y-27996352D01*
X19578414Y-27996352D01*
X19732228Y-28026948D01*
G37*
G36*
X82232228Y-25026948D02*
G01*
X82377117Y-25086963D01*
X82507515Y-25174092D01*
X82618408Y-25284985D01*
X82705537Y-25415383D01*
X82765552Y-25560272D01*
X82796148Y-25714086D01*
X82796148Y-25870914D01*
X82765552Y-26024728D01*
X82705537Y-26169617D01*
X82618408Y-26300015D01*
X82507515Y-26410908D01*
X82377117Y-26498037D01*
X82232228Y-26558052D01*
X82078414Y-26588648D01*
X81921586Y-26588648D01*
X81767772Y-26558052D01*
X81622883Y-26498037D01*
X81492485Y-26410908D01*
X81381592Y-26300015D01*
X81294463Y-26169617D01*
X81234448Y-26024728D01*
X81203852Y-25870914D01*
X81203852Y-25714086D01*
X81234448Y-25560272D01*
X81294463Y-25415383D01*
X81381592Y-25284985D01*
X81492485Y-25174092D01*
X81622883Y-25086963D01*
X81767772Y-25026948D01*
X81921586Y-24996352D01*
X82078414Y-24996352D01*
X82232228Y-25026948D01*
G37*
G36*
X89852228Y-25026948D02*
G01*
X89997117Y-25086963D01*
X90127515Y-25174092D01*
X90238408Y-25284985D01*
X90325537Y-25415383D01*
X90385552Y-25560272D01*
X90416148Y-25714086D01*
X90416148Y-25870914D01*
X90385552Y-26024728D01*
X90325537Y-26169617D01*
X90238408Y-26300015D01*
X90127515Y-26410908D01*
X89997117Y-26498037D01*
X89852228Y-26558052D01*
X89698414Y-26588648D01*
X89541586Y-26588648D01*
X89387772Y-26558052D01*
X89242883Y-26498037D01*
X89112485Y-26410908D01*
X89001592Y-26300015D01*
X88914463Y-26169617D01*
X88854448Y-26024728D01*
X88823852Y-25870914D01*
X88823852Y-25714086D01*
X88854448Y-25560272D01*
X88914463Y-25415383D01*
X89001592Y-25284985D01*
X89112485Y-25174092D01*
X89242883Y-25086963D01*
X89387772Y-25026948D01*
X89541586Y-24996352D01*
X89698414Y-24996352D01*
X89852228Y-25026948D01*
G37*
G36*
X24612228Y-24026948D02*
G01*
X24757117Y-24086963D01*
X24887515Y-24174092D01*
X24998408Y-24284985D01*
X25085537Y-24415383D01*
X25145552Y-24560272D01*
X25176148Y-24714086D01*
X25176148Y-24870914D01*
X25145552Y-25024728D01*
X25085537Y-25169617D01*
X24998408Y-25300015D01*
X24887515Y-25410908D01*
X24757117Y-25498037D01*
X24612228Y-25558052D01*
X24458414Y-25588648D01*
X24301586Y-25588648D01*
X24147772Y-25558052D01*
X24002883Y-25498037D01*
X23872485Y-25410908D01*
X23761592Y-25300015D01*
X23674463Y-25169617D01*
X23614448Y-25024728D01*
X23583852Y-24870914D01*
X23583852Y-24714086D01*
X23614448Y-24560272D01*
X23674463Y-24415383D01*
X23761592Y-24284985D01*
X23872485Y-24174092D01*
X24002883Y-24086963D01*
X24147772Y-24026948D01*
X24301586Y-23996352D01*
X24458414Y-23996352D01*
X24612228Y-24026948D01*
G37*
G36*
X32232228Y-24026948D02*
G01*
X32377117Y-24086963D01*
X32507515Y-24174092D01*
X32618408Y-24284985D01*
X32705537Y-24415383D01*
X32765552Y-24560272D01*
X32796148Y-24714086D01*
X32796148Y-24870914D01*
X32765552Y-25024728D01*
X32705537Y-25169617D01*
X32618408Y-25300015D01*
X32507515Y-25410908D01*
X32377117Y-25498037D01*
X32232228Y-25558052D01*
X32078414Y-25588648D01*
X31921586Y-25588648D01*
X31767772Y-25558052D01*
X31622883Y-25498037D01*
X31492485Y-25410908D01*
X31381592Y-25300015D01*
X31294463Y-25169617D01*
X31234448Y-25024728D01*
X31203852Y-24870914D01*
X31203852Y-24714086D01*
X31234448Y-24560272D01*
X31294463Y-24415383D01*
X31381592Y-24284985D01*
X31492485Y-24174092D01*
X31622883Y-24086963D01*
X31767772Y-24026948D01*
X31921586Y-23996352D01*
X32078414Y-23996352D01*
X32232228Y-24026948D01*
G37*
G36*
X17554850Y-23200964D02*
G01*
X17605040Y-23206787D01*
X17622189Y-23214359D01*
X17645671Y-23219030D01*
X17670810Y-23235827D01*
X17690696Y-23244608D01*
X17704277Y-23258189D01*
X17726777Y-23273223D01*
X17741810Y-23295722D01*
X17755391Y-23309303D01*
X17764170Y-23329186D01*
X17780970Y-23354329D01*
X17785641Y-23377812D01*
X17793212Y-23394959D01*
X17799033Y-23445139D01*
X17800000Y-23450000D01*
X17800000Y-24550000D01*
X17799032Y-24554863D01*
X17793212Y-24605040D01*
X17785641Y-24622185D01*
X17780970Y-24645671D01*
X17764169Y-24670815D01*
X17755391Y-24690696D01*
X17741812Y-24704274D01*
X17726777Y-24726777D01*
X17704274Y-24741812D01*
X17690696Y-24755391D01*
X17670815Y-24764169D01*
X17645671Y-24780970D01*
X17622185Y-24785641D01*
X17605040Y-24793212D01*
X17554861Y-24799032D01*
X17550000Y-24800000D01*
X16450000Y-24800000D01*
X16445138Y-24799032D01*
X16394959Y-24793212D01*
X16377812Y-24785641D01*
X16354329Y-24780970D01*
X16329186Y-24764170D01*
X16309303Y-24755391D01*
X16295722Y-24741810D01*
X16273223Y-24726777D01*
X16258189Y-24704277D01*
X16244608Y-24690696D01*
X16235827Y-24670810D01*
X16219030Y-24645671D01*
X16214359Y-24622189D01*
X16206787Y-24605040D01*
X16200964Y-24554849D01*
X16200000Y-24550000D01*
X16200000Y-23450000D01*
X16200964Y-23445150D01*
X16206787Y-23394959D01*
X16214359Y-23377808D01*
X16219030Y-23354329D01*
X16235826Y-23329191D01*
X16244608Y-23309303D01*
X16258191Y-23295719D01*
X16273223Y-23273223D01*
X16295719Y-23258191D01*
X16309303Y-23244608D01*
X16329191Y-23235826D01*
X16354329Y-23219030D01*
X16377808Y-23214359D01*
X16394959Y-23206787D01*
X16445151Y-23200964D01*
X16450000Y-23200000D01*
X17550000Y-23200000D01*
X17554850Y-23200964D01*
G37*
G36*
X19732228Y-23234448D02*
G01*
X19877117Y-23294463D01*
X20007515Y-23381592D01*
X20118408Y-23492485D01*
X20205537Y-23622883D01*
X20265552Y-23767772D01*
X20296148Y-23921586D01*
X20296148Y-24078414D01*
X20265552Y-24232228D01*
X20205537Y-24377117D01*
X20118408Y-24507515D01*
X20007515Y-24618408D01*
X19877117Y-24705537D01*
X19732228Y-24765552D01*
X19578414Y-24796148D01*
X19421586Y-24796148D01*
X19267772Y-24765552D01*
X19122883Y-24705537D01*
X18992485Y-24618408D01*
X18881592Y-24507515D01*
X18794463Y-24377117D01*
X18734448Y-24232228D01*
X18703852Y-24078414D01*
X18703852Y-23921586D01*
X18734448Y-23767772D01*
X18794463Y-23622883D01*
X18881592Y-23492485D01*
X18992485Y-23381592D01*
X19122883Y-23294463D01*
X19267772Y-23234448D01*
X19421586Y-23203852D01*
X19578414Y-23203852D01*
X19732228Y-23234448D01*
G37*
G36*
X35262228Y-22211948D02*
G01*
X35407117Y-22271963D01*
X35537515Y-22359092D01*
X35648408Y-22469985D01*
X35735537Y-22600383D01*
X35795552Y-22745272D01*
X35826148Y-22899086D01*
X35826148Y-23055914D01*
X35795552Y-23209728D01*
X35735537Y-23354617D01*
X35648408Y-23485015D01*
X35537515Y-23595908D01*
X35407117Y-23683037D01*
X35262228Y-23743052D01*
X35108414Y-23773648D01*
X34951586Y-23773648D01*
X34797772Y-23743052D01*
X34652883Y-23683037D01*
X34522485Y-23595908D01*
X34411592Y-23485015D01*
X34324463Y-23354617D01*
X34264448Y-23209728D01*
X34233852Y-23055914D01*
X34233852Y-22899086D01*
X34264448Y-22745272D01*
X34324463Y-22600383D01*
X34411592Y-22469985D01*
X34522485Y-22359092D01*
X34652883Y-22271963D01*
X34797772Y-22211948D01*
X34951586Y-22181352D01*
X35108414Y-22181352D01*
X35262228Y-22211948D01*
G37*
G36*
X37802228Y-22211948D02*
G01*
X37947117Y-22271963D01*
X38077515Y-22359092D01*
X38188408Y-22469985D01*
X38275537Y-22600383D01*
X38335552Y-22745272D01*
X38366148Y-22899086D01*
X38366148Y-23055914D01*
X38335552Y-23209728D01*
X38275537Y-23354617D01*
X38188408Y-23485015D01*
X38077515Y-23595908D01*
X37947117Y-23683037D01*
X37802228Y-23743052D01*
X37648414Y-23773648D01*
X37491586Y-23773648D01*
X37337772Y-23743052D01*
X37192883Y-23683037D01*
X37062485Y-23595908D01*
X36951592Y-23485015D01*
X36864463Y-23354617D01*
X36804448Y-23209728D01*
X36773852Y-23055914D01*
X36773852Y-22899086D01*
X36804448Y-22745272D01*
X36864463Y-22600383D01*
X36951592Y-22469985D01*
X37062485Y-22359092D01*
X37192883Y-22271963D01*
X37337772Y-22211948D01*
X37491586Y-22181352D01*
X37648414Y-22181352D01*
X37802228Y-22211948D01*
G37*
G36*
X40342228Y-22211948D02*
G01*
X40487117Y-22271963D01*
X40617515Y-22359092D01*
X40728408Y-22469985D01*
X40815537Y-22600383D01*
X40875552Y-22745272D01*
X40906148Y-22899086D01*
X40906148Y-23055914D01*
X40875552Y-23209728D01*
X40815537Y-23354617D01*
X40728408Y-23485015D01*
X40617515Y-23595908D01*
X40487117Y-23683037D01*
X40342228Y-23743052D01*
X40188414Y-23773648D01*
X40031586Y-23773648D01*
X39877772Y-23743052D01*
X39732883Y-23683037D01*
X39602485Y-23595908D01*
X39491592Y-23485015D01*
X39404463Y-23354617D01*
X39344448Y-23209728D01*
X39313852Y-23055914D01*
X39313852Y-22899086D01*
X39344448Y-22745272D01*
X39404463Y-22600383D01*
X39491592Y-22469985D01*
X39602485Y-22359092D01*
X39732883Y-22271963D01*
X39877772Y-22211948D01*
X40031586Y-22181352D01*
X40188414Y-22181352D01*
X40342228Y-22211948D01*
G37*
G36*
X42882228Y-22211948D02*
G01*
X43027117Y-22271963D01*
X43157515Y-22359092D01*
X43268408Y-22469985D01*
X43355537Y-22600383D01*
X43415552Y-22745272D01*
X43446148Y-22899086D01*
X43446148Y-23055914D01*
X43415552Y-23209728D01*
X43355537Y-23354617D01*
X43268408Y-23485015D01*
X43157515Y-23595908D01*
X43027117Y-23683037D01*
X42882228Y-23743052D01*
X42728414Y-23773648D01*
X42571586Y-23773648D01*
X42417772Y-23743052D01*
X42272883Y-23683037D01*
X42142485Y-23595908D01*
X42031592Y-23485015D01*
X41944463Y-23354617D01*
X41884448Y-23209728D01*
X41853852Y-23055914D01*
X41853852Y-22899086D01*
X41884448Y-22745272D01*
X41944463Y-22600383D01*
X42031592Y-22469985D01*
X42142485Y-22359092D01*
X42272883Y-22271963D01*
X42417772Y-22211948D01*
X42571586Y-22181352D01*
X42728414Y-22181352D01*
X42882228Y-22211948D01*
G37*
G36*
X45422228Y-22211948D02*
G01*
X45567117Y-22271963D01*
X45697515Y-22359092D01*
X45808408Y-22469985D01*
X45895537Y-22600383D01*
X45955552Y-22745272D01*
X45986148Y-22899086D01*
X45986148Y-23055914D01*
X45955552Y-23209728D01*
X45895537Y-23354617D01*
X45808408Y-23485015D01*
X45697515Y-23595908D01*
X45567117Y-23683037D01*
X45422228Y-23743052D01*
X45268414Y-23773648D01*
X45111586Y-23773648D01*
X44957772Y-23743052D01*
X44812883Y-23683037D01*
X44682485Y-23595908D01*
X44571592Y-23485015D01*
X44484463Y-23354617D01*
X44424448Y-23209728D01*
X44393852Y-23055914D01*
X44393852Y-22899086D01*
X44424448Y-22745272D01*
X44484463Y-22600383D01*
X44571592Y-22469985D01*
X44682485Y-22359092D01*
X44812883Y-22271963D01*
X44957772Y-22211948D01*
X45111586Y-22181352D01*
X45268414Y-22181352D01*
X45422228Y-22211948D01*
G37*
G36*
X47962228Y-22211948D02*
G01*
X48107117Y-22271963D01*
X48237515Y-22359092D01*
X48348408Y-22469985D01*
X48435537Y-22600383D01*
X48495552Y-22745272D01*
X48526148Y-22899086D01*
X48526148Y-23055914D01*
X48495552Y-23209728D01*
X48435537Y-23354617D01*
X48348408Y-23485015D01*
X48237515Y-23595908D01*
X48107117Y-23683037D01*
X47962228Y-23743052D01*
X47808414Y-23773648D01*
X47651586Y-23773648D01*
X47497772Y-23743052D01*
X47352883Y-23683037D01*
X47222485Y-23595908D01*
X47111592Y-23485015D01*
X47024463Y-23354617D01*
X46964448Y-23209728D01*
X46933852Y-23055914D01*
X46933852Y-22899086D01*
X46964448Y-22745272D01*
X47024463Y-22600383D01*
X47111592Y-22469985D01*
X47222485Y-22359092D01*
X47352883Y-22271963D01*
X47497772Y-22211948D01*
X47651586Y-22181352D01*
X47808414Y-22181352D01*
X47962228Y-22211948D01*
G37*
G36*
X50502228Y-22211948D02*
G01*
X50647117Y-22271963D01*
X50777515Y-22359092D01*
X50888408Y-22469985D01*
X50975537Y-22600383D01*
X51035552Y-22745272D01*
X51066148Y-22899086D01*
X51066148Y-23055914D01*
X51035552Y-23209728D01*
X50975537Y-23354617D01*
X50888408Y-23485015D01*
X50777515Y-23595908D01*
X50647117Y-23683037D01*
X50502228Y-23743052D01*
X50348414Y-23773648D01*
X50191586Y-23773648D01*
X50037772Y-23743052D01*
X49892883Y-23683037D01*
X49762485Y-23595908D01*
X49651592Y-23485015D01*
X49564463Y-23354617D01*
X49504448Y-23209728D01*
X49473852Y-23055914D01*
X49473852Y-22899086D01*
X49504448Y-22745272D01*
X49564463Y-22600383D01*
X49651592Y-22469985D01*
X49762485Y-22359092D01*
X49892883Y-22271963D01*
X50037772Y-22211948D01*
X50191586Y-22181352D01*
X50348414Y-22181352D01*
X50502228Y-22211948D01*
G37*
G36*
X53042228Y-22211948D02*
G01*
X53187117Y-22271963D01*
X53317515Y-22359092D01*
X53428408Y-22469985D01*
X53515537Y-22600383D01*
X53575552Y-22745272D01*
X53606148Y-22899086D01*
X53606148Y-23055914D01*
X53575552Y-23209728D01*
X53515537Y-23354617D01*
X53428408Y-23485015D01*
X53317515Y-23595908D01*
X53187117Y-23683037D01*
X53042228Y-23743052D01*
X52888414Y-23773648D01*
X52731586Y-23773648D01*
X52577772Y-23743052D01*
X52432883Y-23683037D01*
X52302485Y-23595908D01*
X52191592Y-23485015D01*
X52104463Y-23354617D01*
X52044448Y-23209728D01*
X52013852Y-23055914D01*
X52013852Y-22899086D01*
X52044448Y-22745272D01*
X52104463Y-22600383D01*
X52191592Y-22469985D01*
X52302485Y-22359092D01*
X52432883Y-22271963D01*
X52577772Y-22211948D01*
X52731586Y-22181352D01*
X52888414Y-22181352D01*
X53042228Y-22211948D01*
G37*
G36*
X55582228Y-22211948D02*
G01*
X55727117Y-22271963D01*
X55857515Y-22359092D01*
X55968408Y-22469985D01*
X56055537Y-22600383D01*
X56115552Y-22745272D01*
X56146148Y-22899086D01*
X56146148Y-23055914D01*
X56115552Y-23209728D01*
X56055537Y-23354617D01*
X55968408Y-23485015D01*
X55857515Y-23595908D01*
X55727117Y-23683037D01*
X55582228Y-23743052D01*
X55428414Y-23773648D01*
X55271586Y-23773648D01*
X55117772Y-23743052D01*
X54972883Y-23683037D01*
X54842485Y-23595908D01*
X54731592Y-23485015D01*
X54644463Y-23354617D01*
X54584448Y-23209728D01*
X54553852Y-23055914D01*
X54553852Y-22899086D01*
X54584448Y-22745272D01*
X54644463Y-22600383D01*
X54731592Y-22469985D01*
X54842485Y-22359092D01*
X54972883Y-22271963D01*
X55117772Y-22211948D01*
X55271586Y-22181352D01*
X55428414Y-22181352D01*
X55582228Y-22211948D01*
G37*
G36*
X58122228Y-22211948D02*
G01*
X58267117Y-22271963D01*
X58397515Y-22359092D01*
X58508408Y-22469985D01*
X58595537Y-22600383D01*
X58655552Y-22745272D01*
X58686148Y-22899086D01*
X58686148Y-23055914D01*
X58655552Y-23209728D01*
X58595537Y-23354617D01*
X58508408Y-23485015D01*
X58397515Y-23595908D01*
X58267117Y-23683037D01*
X58122228Y-23743052D01*
X57968414Y-23773648D01*
X57811586Y-23773648D01*
X57657772Y-23743052D01*
X57512883Y-23683037D01*
X57382485Y-23595908D01*
X57271592Y-23485015D01*
X57184463Y-23354617D01*
X57124448Y-23209728D01*
X57093852Y-23055914D01*
X57093852Y-22899086D01*
X57124448Y-22745272D01*
X57184463Y-22600383D01*
X57271592Y-22469985D01*
X57382485Y-22359092D01*
X57512883Y-22271963D01*
X57657772Y-22211948D01*
X57811586Y-22181352D01*
X57968414Y-22181352D01*
X58122228Y-22211948D01*
G37*
G36*
X60662228Y-22211948D02*
G01*
X60807117Y-22271963D01*
X60937515Y-22359092D01*
X61048408Y-22469985D01*
X61135537Y-22600383D01*
X61195552Y-22745272D01*
X61226148Y-22899086D01*
X61226148Y-23055914D01*
X61195552Y-23209728D01*
X61135537Y-23354617D01*
X61048408Y-23485015D01*
X60937515Y-23595908D01*
X60807117Y-23683037D01*
X60662228Y-23743052D01*
X60508414Y-23773648D01*
X60351586Y-23773648D01*
X60197772Y-23743052D01*
X60052883Y-23683037D01*
X59922485Y-23595908D01*
X59811592Y-23485015D01*
X59724463Y-23354617D01*
X59664448Y-23209728D01*
X59633852Y-23055914D01*
X59633852Y-22899086D01*
X59664448Y-22745272D01*
X59724463Y-22600383D01*
X59811592Y-22469985D01*
X59922485Y-22359092D01*
X60052883Y-22271963D01*
X60197772Y-22211948D01*
X60351586Y-22181352D01*
X60508414Y-22181352D01*
X60662228Y-22211948D01*
G37*
G36*
X63202228Y-22211948D02*
G01*
X63347117Y-22271963D01*
X63477515Y-22359092D01*
X63588408Y-22469985D01*
X63675537Y-22600383D01*
X63735552Y-22745272D01*
X63766148Y-22899086D01*
X63766148Y-23055914D01*
X63735552Y-23209728D01*
X63675537Y-23354617D01*
X63588408Y-23485015D01*
X63477515Y-23595908D01*
X63347117Y-23683037D01*
X63202228Y-23743052D01*
X63048414Y-23773648D01*
X62891586Y-23773648D01*
X62737772Y-23743052D01*
X62592883Y-23683037D01*
X62462485Y-23595908D01*
X62351592Y-23485015D01*
X62264463Y-23354617D01*
X62204448Y-23209728D01*
X62173852Y-23055914D01*
X62173852Y-22899086D01*
X62204448Y-22745272D01*
X62264463Y-22600383D01*
X62351592Y-22469985D01*
X62462485Y-22359092D01*
X62592883Y-22271963D01*
X62737772Y-22211948D01*
X62891586Y-22181352D01*
X63048414Y-22181352D01*
X63202228Y-22211948D01*
G37*
G36*
X103290285Y-21293060D02*
G01*
X103471397Y-21368079D01*
X103634393Y-21476990D01*
X103773010Y-21615607D01*
X103881921Y-21778603D01*
X103956940Y-21959715D01*
X103995185Y-22151983D01*
X103995185Y-22348017D01*
X103956940Y-22540285D01*
X103881921Y-22721397D01*
X103773010Y-22884393D01*
X103634393Y-23023010D01*
X103471397Y-23131921D01*
X103290285Y-23206940D01*
X103098017Y-23245185D01*
X102901983Y-23245185D01*
X102709715Y-23206940D01*
X102528603Y-23131921D01*
X102365607Y-23023010D01*
X102226990Y-22884393D01*
X102118079Y-22721397D01*
X102043060Y-22540285D01*
X102004815Y-22348017D01*
X102004815Y-22151983D01*
X102043060Y-21959715D01*
X102118079Y-21778603D01*
X102226990Y-21615607D01*
X102365607Y-21476990D01*
X102528603Y-21368079D01*
X102709715Y-21293060D01*
X102901983Y-21254815D01*
X103098017Y-21254815D01*
X103290285Y-21293060D01*
G37*
G36*
X109790285Y-21293060D02*
G01*
X109971397Y-21368079D01*
X110134393Y-21476990D01*
X110273010Y-21615607D01*
X110381921Y-21778603D01*
X110456940Y-21959715D01*
X110495185Y-22151983D01*
X110495185Y-22348017D01*
X110456940Y-22540285D01*
X110381921Y-22721397D01*
X110273010Y-22884393D01*
X110134393Y-23023010D01*
X109971397Y-23131921D01*
X109790285Y-23206940D01*
X109598017Y-23245185D01*
X109401983Y-23245185D01*
X109209715Y-23206940D01*
X109028603Y-23131921D01*
X108865607Y-23023010D01*
X108726990Y-22884393D01*
X108618079Y-22721397D01*
X108543060Y-22540285D01*
X108504815Y-22348017D01*
X108504815Y-22151983D01*
X108543060Y-21959715D01*
X108618079Y-21778603D01*
X108726990Y-21615607D01*
X108865607Y-21476990D01*
X109028603Y-21368079D01*
X109209715Y-21293060D01*
X109401983Y-21254815D01*
X109598017Y-21254815D01*
X109790285Y-21293060D01*
G37*
G36*
X114040285Y-21293060D02*
G01*
X114221397Y-21368079D01*
X114384393Y-21476990D01*
X114523010Y-21615607D01*
X114631921Y-21778603D01*
X114706940Y-21959715D01*
X114745185Y-22151983D01*
X114745185Y-22348017D01*
X114706940Y-22540285D01*
X114631921Y-22721397D01*
X114523010Y-22884393D01*
X114384393Y-23023010D01*
X114221397Y-23131921D01*
X114040285Y-23206940D01*
X113848017Y-23245185D01*
X113651983Y-23245185D01*
X113459715Y-23206940D01*
X113278603Y-23131921D01*
X113115607Y-23023010D01*
X112976990Y-22884393D01*
X112868079Y-22721397D01*
X112793060Y-22540285D01*
X112754815Y-22348017D01*
X112754815Y-22151983D01*
X112793060Y-21959715D01*
X112868079Y-21778603D01*
X112976990Y-21615607D01*
X113115607Y-21476990D01*
X113278603Y-21368079D01*
X113459715Y-21293060D01*
X113651983Y-21254815D01*
X113848017Y-21254815D01*
X114040285Y-21293060D01*
G37*
G36*
X120540285Y-21293060D02*
G01*
X120721397Y-21368079D01*
X120884393Y-21476990D01*
X121023010Y-21615607D01*
X121131921Y-21778603D01*
X121206940Y-21959715D01*
X121245185Y-22151983D01*
X121245185Y-22348017D01*
X121206940Y-22540285D01*
X121131921Y-22721397D01*
X121023010Y-22884393D01*
X120884393Y-23023010D01*
X120721397Y-23131921D01*
X120540285Y-23206940D01*
X120348017Y-23245185D01*
X120151983Y-23245185D01*
X119959715Y-23206940D01*
X119778603Y-23131921D01*
X119615607Y-23023010D01*
X119476990Y-22884393D01*
X119368079Y-22721397D01*
X119293060Y-22540285D01*
X119254815Y-22348017D01*
X119254815Y-22151983D01*
X119293060Y-21959715D01*
X119368079Y-21778603D01*
X119476990Y-21615607D01*
X119615607Y-21476990D01*
X119778603Y-21368079D01*
X119959715Y-21293060D01*
X120151983Y-21254815D01*
X120348017Y-21254815D01*
X120540285Y-21293060D01*
G37*
G36*
X125040285Y-21293060D02*
G01*
X125221397Y-21368079D01*
X125384393Y-21476990D01*
X125523010Y-21615607D01*
X125631921Y-21778603D01*
X125706940Y-21959715D01*
X125745185Y-22151983D01*
X125745185Y-22348017D01*
X125706940Y-22540285D01*
X125631921Y-22721397D01*
X125523010Y-22884393D01*
X125384393Y-23023010D01*
X125221397Y-23131921D01*
X125040285Y-23206940D01*
X124848017Y-23245185D01*
X124651983Y-23245185D01*
X124459715Y-23206940D01*
X124278603Y-23131921D01*
X124115607Y-23023010D01*
X123976990Y-22884393D01*
X123868079Y-22721397D01*
X123793060Y-22540285D01*
X123754815Y-22348017D01*
X123754815Y-22151983D01*
X123793060Y-21959715D01*
X123868079Y-21778603D01*
X123976990Y-21615607D01*
X124115607Y-21476990D01*
X124278603Y-21368079D01*
X124459715Y-21293060D01*
X124651983Y-21254815D01*
X124848017Y-21254815D01*
X125040285Y-21293060D01*
G37*
G36*
X131540285Y-21293060D02*
G01*
X131721397Y-21368079D01*
X131884393Y-21476990D01*
X132023010Y-21615607D01*
X132131921Y-21778603D01*
X132206940Y-21959715D01*
X132245185Y-22151983D01*
X132245185Y-22348017D01*
X132206940Y-22540285D01*
X132131921Y-22721397D01*
X132023010Y-22884393D01*
X131884393Y-23023010D01*
X131721397Y-23131921D01*
X131540285Y-23206940D01*
X131348017Y-23245185D01*
X131151983Y-23245185D01*
X130959715Y-23206940D01*
X130778603Y-23131921D01*
X130615607Y-23023010D01*
X130476990Y-22884393D01*
X130368079Y-22721397D01*
X130293060Y-22540285D01*
X130254815Y-22348017D01*
X130254815Y-22151983D01*
X130293060Y-21959715D01*
X130368079Y-21778603D01*
X130476990Y-21615607D01*
X130615607Y-21476990D01*
X130778603Y-21368079D01*
X130959715Y-21293060D01*
X131151983Y-21254815D01*
X131348017Y-21254815D01*
X131540285Y-21293060D01*
G37*
G36*
X82232228Y-21026948D02*
G01*
X82377117Y-21086963D01*
X82507515Y-21174092D01*
X82618408Y-21284985D01*
X82705537Y-21415383D01*
X82765552Y-21560272D01*
X82796148Y-21714086D01*
X82796148Y-21870914D01*
X82765552Y-22024728D01*
X82705537Y-22169617D01*
X82618408Y-22300015D01*
X82507515Y-22410908D01*
X82377117Y-22498037D01*
X82232228Y-22558052D01*
X82078414Y-22588648D01*
X81921586Y-22588648D01*
X81767772Y-22558052D01*
X81622883Y-22498037D01*
X81492485Y-22410908D01*
X81381592Y-22300015D01*
X81294463Y-22169617D01*
X81234448Y-22024728D01*
X81203852Y-21870914D01*
X81203852Y-21714086D01*
X81234448Y-21560272D01*
X81294463Y-21415383D01*
X81381592Y-21284985D01*
X81492485Y-21174092D01*
X81622883Y-21086963D01*
X81767772Y-21026948D01*
X81921586Y-20996352D01*
X82078414Y-20996352D01*
X82232228Y-21026948D01*
G37*
G36*
X89852228Y-21026948D02*
G01*
X89997117Y-21086963D01*
X90127515Y-21174092D01*
X90238408Y-21284985D01*
X90325537Y-21415383D01*
X90385552Y-21560272D01*
X90416148Y-21714086D01*
X90416148Y-21870914D01*
X90385552Y-22024728D01*
X90325537Y-22169617D01*
X90238408Y-22300015D01*
X90127515Y-22410908D01*
X89997117Y-22498037D01*
X89852228Y-22558052D01*
X89698414Y-22588648D01*
X89541586Y-22588648D01*
X89387772Y-22558052D01*
X89242883Y-22498037D01*
X89112485Y-22410908D01*
X89001592Y-22300015D01*
X88914463Y-22169617D01*
X88854448Y-22024728D01*
X88823852Y-21870914D01*
X88823852Y-21714086D01*
X88854448Y-21560272D01*
X88914463Y-21415383D01*
X89001592Y-21284985D01*
X89112485Y-21174092D01*
X89242883Y-21086963D01*
X89387772Y-21026948D01*
X89541586Y-20996352D01*
X89698414Y-20996352D01*
X89852228Y-21026948D01*
G37*
G36*
X82232228Y-17234448D02*
G01*
X82377117Y-17294463D01*
X82507515Y-17381592D01*
X82618408Y-17492485D01*
X82705537Y-17622883D01*
X82765552Y-17767772D01*
X82796148Y-17921586D01*
X82796148Y-18078414D01*
X82765552Y-18232228D01*
X82705537Y-18377117D01*
X82618408Y-18507515D01*
X82507515Y-18618408D01*
X82377117Y-18705537D01*
X82232228Y-18765552D01*
X82078414Y-18796148D01*
X81921586Y-18796148D01*
X81767772Y-18765552D01*
X81622883Y-18705537D01*
X81492485Y-18618408D01*
X81381592Y-18507515D01*
X81294463Y-18377117D01*
X81234448Y-18232228D01*
X81203852Y-18078414D01*
X81203852Y-17921586D01*
X81234448Y-17767772D01*
X81294463Y-17622883D01*
X81381592Y-17492485D01*
X81492485Y-17381592D01*
X81622883Y-17294463D01*
X81767772Y-17234448D01*
X81921586Y-17203852D01*
X82078414Y-17203852D01*
X82232228Y-17234448D01*
G37*
G36*
X89852228Y-17234448D02*
G01*
X89997117Y-17294463D01*
X90127515Y-17381592D01*
X90238408Y-17492485D01*
X90325537Y-17622883D01*
X90385552Y-17767772D01*
X90416148Y-17921586D01*
X90416148Y-18078414D01*
X90385552Y-18232228D01*
X90325537Y-18377117D01*
X90238408Y-18507515D01*
X90127515Y-18618408D01*
X89997117Y-18705537D01*
X89852228Y-18765552D01*
X89698414Y-18796148D01*
X89541586Y-18796148D01*
X89387772Y-18765552D01*
X89242883Y-18705537D01*
X89112485Y-18618408D01*
X89001592Y-18507515D01*
X88914463Y-18377117D01*
X88854448Y-18232228D01*
X88823852Y-18078414D01*
X88823852Y-17921586D01*
X88854448Y-17767772D01*
X88914463Y-17622883D01*
X89001592Y-17492485D01*
X89112485Y-17381592D01*
X89242883Y-17294463D01*
X89387772Y-17234448D01*
X89541586Y-17203852D01*
X89698414Y-17203852D01*
X89852228Y-17234448D01*
G37*
G36*
X103290285Y-16793060D02*
G01*
X103471397Y-16868079D01*
X103634393Y-16976990D01*
X103773010Y-17115607D01*
X103881921Y-17278603D01*
X103956940Y-17459715D01*
X103995185Y-17651983D01*
X103995185Y-17848017D01*
X103956940Y-18040285D01*
X103881921Y-18221397D01*
X103773010Y-18384393D01*
X103634393Y-18523010D01*
X103471397Y-18631921D01*
X103290285Y-18706940D01*
X103098017Y-18745185D01*
X102901983Y-18745185D01*
X102709715Y-18706940D01*
X102528603Y-18631921D01*
X102365607Y-18523010D01*
X102226990Y-18384393D01*
X102118079Y-18221397D01*
X102043060Y-18040285D01*
X102004815Y-17848017D01*
X102004815Y-17651983D01*
X102043060Y-17459715D01*
X102118079Y-17278603D01*
X102226990Y-17115607D01*
X102365607Y-16976990D01*
X102528603Y-16868079D01*
X102709715Y-16793060D01*
X102901983Y-16754815D01*
X103098017Y-16754815D01*
X103290285Y-16793060D01*
G37*
G36*
X109790285Y-16793060D02*
G01*
X109971397Y-16868079D01*
X110134393Y-16976990D01*
X110273010Y-17115607D01*
X110381921Y-17278603D01*
X110456940Y-17459715D01*
X110495185Y-17651983D01*
X110495185Y-17848017D01*
X110456940Y-18040285D01*
X110381921Y-18221397D01*
X110273010Y-18384393D01*
X110134393Y-18523010D01*
X109971397Y-18631921D01*
X109790285Y-18706940D01*
X109598017Y-18745185D01*
X109401983Y-18745185D01*
X109209715Y-18706940D01*
X109028603Y-18631921D01*
X108865607Y-18523010D01*
X108726990Y-18384393D01*
X108618079Y-18221397D01*
X108543060Y-18040285D01*
X108504815Y-17848017D01*
X108504815Y-17651983D01*
X108543060Y-17459715D01*
X108618079Y-17278603D01*
X108726990Y-17115607D01*
X108865607Y-16976990D01*
X109028603Y-16868079D01*
X109209715Y-16793060D01*
X109401983Y-16754815D01*
X109598017Y-16754815D01*
X109790285Y-16793060D01*
G37*
G36*
X114040285Y-16793060D02*
G01*
X114221397Y-16868079D01*
X114384393Y-16976990D01*
X114523010Y-17115607D01*
X114631921Y-17278603D01*
X114706940Y-17459715D01*
X114745185Y-17651983D01*
X114745185Y-17848017D01*
X114706940Y-18040285D01*
X114631921Y-18221397D01*
X114523010Y-18384393D01*
X114384393Y-18523010D01*
X114221397Y-18631921D01*
X114040285Y-18706940D01*
X113848017Y-18745185D01*
X113651983Y-18745185D01*
X113459715Y-18706940D01*
X113278603Y-18631921D01*
X113115607Y-18523010D01*
X112976990Y-18384393D01*
X112868079Y-18221397D01*
X112793060Y-18040285D01*
X112754815Y-17848017D01*
X112754815Y-17651983D01*
X112793060Y-17459715D01*
X112868079Y-17278603D01*
X112976990Y-17115607D01*
X113115607Y-16976990D01*
X113278603Y-16868079D01*
X113459715Y-16793060D01*
X113651983Y-16754815D01*
X113848017Y-16754815D01*
X114040285Y-16793060D01*
G37*
G36*
X120540285Y-16793060D02*
G01*
X120721397Y-16868079D01*
X120884393Y-16976990D01*
X121023010Y-17115607D01*
X121131921Y-17278603D01*
X121206940Y-17459715D01*
X121245185Y-17651983D01*
X121245185Y-17848017D01*
X121206940Y-18040285D01*
X121131921Y-18221397D01*
X121023010Y-18384393D01*
X120884393Y-18523010D01*
X120721397Y-18631921D01*
X120540285Y-18706940D01*
X120348017Y-18745185D01*
X120151983Y-18745185D01*
X119959715Y-18706940D01*
X119778603Y-18631921D01*
X119615607Y-18523010D01*
X119476990Y-18384393D01*
X119368079Y-18221397D01*
X119293060Y-18040285D01*
X119254815Y-17848017D01*
X119254815Y-17651983D01*
X119293060Y-17459715D01*
X119368079Y-17278603D01*
X119476990Y-17115607D01*
X119615607Y-16976990D01*
X119778603Y-16868079D01*
X119959715Y-16793060D01*
X120151983Y-16754815D01*
X120348017Y-16754815D01*
X120540285Y-16793060D01*
G37*
G36*
X125040285Y-16793060D02*
G01*
X125221397Y-16868079D01*
X125384393Y-16976990D01*
X125523010Y-17115607D01*
X125631921Y-17278603D01*
X125706940Y-17459715D01*
X125745185Y-17651983D01*
X125745185Y-17848017D01*
X125706940Y-18040285D01*
X125631921Y-18221397D01*
X125523010Y-18384393D01*
X125384393Y-18523010D01*
X125221397Y-18631921D01*
X125040285Y-18706940D01*
X124848017Y-18745185D01*
X124651983Y-18745185D01*
X124459715Y-18706940D01*
X124278603Y-18631921D01*
X124115607Y-18523010D01*
X123976990Y-18384393D01*
X123868079Y-18221397D01*
X123793060Y-18040285D01*
X123754815Y-17848017D01*
X123754815Y-17651983D01*
X123793060Y-17459715D01*
X123868079Y-17278603D01*
X123976990Y-17115607D01*
X124115607Y-16976990D01*
X124278603Y-16868079D01*
X124459715Y-16793060D01*
X124651983Y-16754815D01*
X124848017Y-16754815D01*
X125040285Y-16793060D01*
G37*
G36*
X131540285Y-16793060D02*
G01*
X131721397Y-16868079D01*
X131884393Y-16976990D01*
X132023010Y-17115607D01*
X132131921Y-17278603D01*
X132206940Y-17459715D01*
X132245185Y-17651983D01*
X132245185Y-17848017D01*
X132206940Y-18040285D01*
X132131921Y-18221397D01*
X132023010Y-18384393D01*
X131884393Y-18523010D01*
X131721397Y-18631921D01*
X131540285Y-18706940D01*
X131348017Y-18745185D01*
X131151983Y-18745185D01*
X130959715Y-18706940D01*
X130778603Y-18631921D01*
X130615607Y-18523010D01*
X130476990Y-18384393D01*
X130368079Y-18221397D01*
X130293060Y-18040285D01*
X130254815Y-17848017D01*
X130254815Y-17651983D01*
X130293060Y-17459715D01*
X130368079Y-17278603D01*
X130476990Y-17115607D01*
X130615607Y-16976990D01*
X130778603Y-16868079D01*
X130959715Y-16793060D01*
X131151983Y-16754815D01*
X131348017Y-16754815D01*
X131540285Y-16793060D01*
G37*
%LPD*%
M02*
