M48
; DRILL file {KiCad 9.0.3} date 2025-09-30T21:03:42-0400
; FORMAT={-:-/ absolute / metric / decimal}
; #@! TF.CreationDate,2025-09-30T21:03:42-04:00
; #@! TF.GenerationSoftware,Kicad,Pcbnew,9.0.3
; #@! TF.FileFunction,Plated,1,4,PTH
FMAT,2
METRIC
; #@! TA.AperFunction,Plated,PTH,ViaDrill
T1C0.300
; #@! TA.AperFunction,Plated,PTH,ComponentDrill
T2C0.500
; #@! TA.AperFunction,Plated,PTH,ComponentDrill
T3C0.600
; #@! TA.AperFunction,Plated,PTH,ComponentDrill
T4C1.000
; #@! TA.AperFunction,Plated,PTH,ComponentDrill
T5C1.100
; #@! TA.AperFunction,Plated,PTH,ComponentDrill
T6C2.200
%
G90
G05
T1
X49.0Y-69.0
X49.0Y-70.5
X59.403Y-60.903
X64.0Y-67.0
X64.0Y-67.905
X68.5Y-63.5
X70.0Y-63.5
X81.0Y-60.5
X82.0Y-60.5
X82.5Y-69.0
X86.5Y-69.0
X87.378Y-73.072
X87.5Y-66.5
X90.493Y-61.993
X91.007Y-62.507
X95.0Y-63.0
X95.5Y-67.0
X97.5Y-63.5
X106.0Y-71.0
X110.0Y-65.0
X110.0Y-67.0
X110.0Y-69.0
X118.5Y-66.0
X118.734Y-71.01
X119.5Y-65.5
X119.5Y-71.5
X121.403Y-62.597
X122.5Y-62.5
X127.0Y-62.5
X133.0Y-63.0
X134.0Y-63.5
X135.0Y-68.0
T2
X152.5Y-57.0
X152.5Y-58.0
T4
X67.8Y-58.0
X67.8Y-73.24
X70.34Y-58.0
X70.34Y-73.24
X72.88Y-58.0
X72.88Y-73.24
X75.42Y-58.0
X75.42Y-73.24
X77.96Y-58.0
X77.96Y-73.24
X80.5Y-58.0
X80.5Y-73.24
X119.0Y-58.0
X119.0Y-73.24
X121.54Y-58.0
X121.54Y-73.24
X124.08Y-58.0
X124.08Y-73.24
X126.62Y-58.0
X126.62Y-73.24
X129.16Y-58.0
X129.16Y-73.24
X131.7Y-58.0
X131.7Y-73.24
X152.5Y-65.0
X152.5Y-67.5
X152.5Y-70.0
X167.0Y-65.0
X167.0Y-70.0
T5
X50.5Y-49.75
X50.5Y-54.25
X57.0Y-49.75
X57.0Y-54.25
X60.0Y-49.75
X60.0Y-54.25
X66.5Y-49.75
X66.5Y-54.25
X69.5Y-49.75
X69.5Y-54.25
X76.0Y-49.75
X76.0Y-54.25
T6
X160.0Y-61.9
X160.0Y-73.1
T3
X42.235Y-65.68G85X43.035Y-65.68
G05
X42.235Y-74.32G85X43.035Y-74.32
G05
X46.255Y-65.68G85X47.355Y-65.68
G05
X46.255Y-74.32G85X47.355Y-74.32
G05
M30
