G04 #@! TF.GenerationSoftware,KiCad,Pcbnew,9.0.3*
G04 #@! TF.CreationDate,2025-09-30T21:03:45-04:00*
G04 #@! TF.ProjectId,shiftclock-2.0,73686966-7463-46c6-9f63-6b2d322e302e,rev?*
G04 #@! TF.SameCoordinates,Original*
G04 #@! TF.FileFunction,Copper,L4,Bot*
G04 #@! TF.FilePolarity,Positive*
%FSLAX46Y46*%
G04 Gerber Fmt 4.6, Leading zero omitted, Abs format (unit mm)*
G04 Created by KiCad (PCBNEW 9.0.3) date 2025-09-30 21:03:45*
%MOMM*%
%LPD*%
G01*
G04 APERTURE LIST*
G04 Aperture macros list*
%AMRoundRect*
0 Rectangle with rounded corners*
0 $1 Rounding radius*
0 $2 $3 $4 $5 $6 $7 $8 $9 X,Y pos of 4 corners*
0 Add a 4 corners polygon primitive as box body*
4,1,4,$2,$3,$4,$5,$6,$7,$8,$9,$2,$3,0*
0 Add four circle primitives for the rounded corners*
1,1,$1+$1,$2,$3*
1,1,$1+$1,$4,$5*
1,1,$1+$1,$6,$7*
1,1,$1+$1,$8,$9*
0 Add four rect primitives between the rounded corners*
20,1,$1+$1,$2,$3,$4,$5,0*
20,1,$1+$1,$4,$5,$6,$7,0*
20,1,$1+$1,$6,$7,$8,$9,0*
20,1,$1+$1,$8,$9,$2,$3,0*%
G04 Aperture macros list end*
G04 #@! TA.AperFunction,ComponentPad*
%ADD10R,1.500000X1.500000*%
G04 #@! TD*
G04 #@! TA.AperFunction,ComponentPad*
%ADD11C,1.500000*%
G04 #@! TD*
G04 #@! TA.AperFunction,ComponentPad*
%ADD12C,2.000000*%
G04 #@! TD*
G04 #@! TA.AperFunction,ComponentPad*
%ADD13R,2.000000X2.000000*%
G04 #@! TD*
G04 #@! TA.AperFunction,ComponentPad*
%ADD14C,2.800000*%
G04 #@! TD*
G04 #@! TA.AperFunction,ComponentPad*
%ADD15R,0.850000X0.850000*%
G04 #@! TD*
G04 #@! TA.AperFunction,ComponentPad*
%ADD16C,0.850000*%
G04 #@! TD*
G04 #@! TA.AperFunction,SMDPad,CuDef*
%ADD17RoundRect,0.250000X-0.625000X0.400000X-0.625000X-0.400000X0.625000X-0.400000X0.625000X0.400000X0*%
G04 #@! TD*
G04 #@! TA.AperFunction,SMDPad,CuDef*
%ADD18R,2.500000X1.000000*%
G04 #@! TD*
G04 #@! TA.AperFunction,SMDPad,CuDef*
%ADD19R,1.000000X1.800000*%
G04 #@! TD*
G04 #@! TA.AperFunction,SMDPad,CuDef*
%ADD20RoundRect,0.250000X-0.650000X0.412500X-0.650000X-0.412500X0.650000X-0.412500X0.650000X0.412500X0*%
G04 #@! TD*
G04 #@! TA.AperFunction,SMDPad,CuDef*
%ADD21RoundRect,0.250000X-1.500000X-0.550000X1.500000X-0.550000X1.500000X0.550000X-1.500000X0.550000X0*%
G04 #@! TD*
G04 #@! TA.AperFunction,SMDPad,CuDef*
%ADD22R,1.160000X0.600000*%
G04 #@! TD*
G04 #@! TA.AperFunction,SMDPad,CuDef*
%ADD23R,1.160000X0.300000*%
G04 #@! TD*
G04 #@! TA.AperFunction,HeatsinkPad*
%ADD24O,1.700000X0.900000*%
G04 #@! TD*
G04 #@! TA.AperFunction,HeatsinkPad*
%ADD25O,2.000000X0.900000*%
G04 #@! TD*
G04 #@! TA.AperFunction,SMDPad,CuDef*
%ADD26RoundRect,0.150000X0.825000X0.150000X-0.825000X0.150000X-0.825000X-0.150000X0.825000X-0.150000X0*%
G04 #@! TD*
G04 #@! TA.AperFunction,SMDPad,CuDef*
%ADD27RoundRect,0.250000X-0.400000X-0.625000X0.400000X-0.625000X0.400000X0.625000X-0.400000X0.625000X0*%
G04 #@! TD*
G04 #@! TA.AperFunction,SMDPad,CuDef*
%ADD28RoundRect,0.250000X0.650000X-0.412500X0.650000X0.412500X-0.650000X0.412500X-0.650000X-0.412500X0*%
G04 #@! TD*
G04 #@! TA.AperFunction,SMDPad,CuDef*
%ADD29RoundRect,0.250000X0.625000X-0.400000X0.625000X0.400000X-0.625000X0.400000X-0.625000X-0.400000X0*%
G04 #@! TD*
G04 #@! TA.AperFunction,SMDPad,CuDef*
%ADD30R,1.250000X1.000000*%
G04 #@! TD*
G04 #@! TA.AperFunction,SMDPad,CuDef*
%ADD31RoundRect,0.150000X-0.587500X-0.150000X0.587500X-0.150000X0.587500X0.150000X-0.587500X0.150000X0*%
G04 #@! TD*
G04 #@! TA.AperFunction,SMDPad,CuDef*
%ADD32RoundRect,0.250000X-0.412500X-0.650000X0.412500X-0.650000X0.412500X0.650000X-0.412500X0.650000X0*%
G04 #@! TD*
G04 #@! TA.AperFunction,SMDPad,CuDef*
%ADD33RoundRect,0.250000X0.400000X0.625000X-0.400000X0.625000X-0.400000X-0.625000X0.400000X-0.625000X0*%
G04 #@! TD*
G04 #@! TA.AperFunction,SMDPad,CuDef*
%ADD34RoundRect,0.150000X-0.150000X0.875000X-0.150000X-0.875000X0.150000X-0.875000X0.150000X0.875000X0*%
G04 #@! TD*
G04 #@! TA.AperFunction,SMDPad,CuDef*
%ADD35RoundRect,0.375000X0.625000X0.375000X-0.625000X0.375000X-0.625000X-0.375000X0.625000X-0.375000X0*%
G04 #@! TD*
G04 #@! TA.AperFunction,SMDPad,CuDef*
%ADD36RoundRect,0.500000X0.500000X1.400000X-0.500000X1.400000X-0.500000X-1.400000X0.500000X-1.400000X0*%
G04 #@! TD*
G04 #@! TA.AperFunction,SMDPad,CuDef*
%ADD37RoundRect,0.250000X0.412500X0.650000X-0.412500X0.650000X-0.412500X-0.650000X0.412500X-0.650000X0*%
G04 #@! TD*
G04 #@! TA.AperFunction,SMDPad,CuDef*
%ADD38RoundRect,0.250000X0.400000X0.600000X-0.400000X0.600000X-0.400000X-0.600000X0.400000X-0.600000X0*%
G04 #@! TD*
G04 #@! TA.AperFunction,ViaPad*
%ADD39C,0.600000*%
G04 #@! TD*
G04 #@! TA.AperFunction,Conductor*
%ADD40C,0.127000*%
G04 #@! TD*
G04 #@! TA.AperFunction,Conductor*
%ADD41C,0.152400*%
G04 #@! TD*
G04 APERTURE END LIST*
D10*
X119000000Y-73240000D03*
D11*
X121540000Y-73240000D03*
X124080000Y-73240000D03*
X126620000Y-73240000D03*
X129160000Y-73240000D03*
X131700000Y-73240000D03*
X131700000Y-58000000D03*
X129160000Y-58000000D03*
X126620000Y-58000000D03*
X124080000Y-58000000D03*
X121540000Y-58000000D03*
X119000000Y-58000000D03*
D10*
X67800000Y-73240000D03*
D11*
X70340000Y-73240000D03*
X72880000Y-73240000D03*
X75420000Y-73240000D03*
X77960000Y-73240000D03*
X80500000Y-73240000D03*
X80500000Y-58000000D03*
X77960000Y-58000000D03*
X75420000Y-58000000D03*
X72880000Y-58000000D03*
X70340000Y-58000000D03*
X67800000Y-58000000D03*
D12*
X60000000Y-49750000D03*
X66500000Y-49750000D03*
X60000000Y-54250000D03*
X66500000Y-54250000D03*
X50500000Y-49750000D03*
X57000000Y-49750000D03*
X50500000Y-54250000D03*
X57000000Y-54250000D03*
D13*
X152500000Y-65000000D03*
D12*
X152500000Y-70000000D03*
X152500000Y-67500000D03*
D14*
X160000000Y-61900000D03*
X160000000Y-73100000D03*
D12*
X167000000Y-65000000D03*
X167000000Y-70000000D03*
D15*
X152500000Y-57000000D03*
D16*
X152500000Y-58000000D03*
D12*
X69500000Y-49750000D03*
X76000000Y-49750000D03*
X69500000Y-54250000D03*
X76000000Y-54250000D03*
D17*
X113000000Y-66950000D03*
X113000000Y-70050000D03*
D18*
X108100000Y-57000000D03*
X108100000Y-59000000D03*
X108100000Y-61000000D03*
X108100000Y-63000000D03*
X108100000Y-65000000D03*
X108100000Y-67000000D03*
X108100000Y-69000000D03*
X108100000Y-71000000D03*
D19*
X105500000Y-72500000D03*
X103500000Y-72500000D03*
X101500000Y-72500000D03*
X99500000Y-72500000D03*
X97500000Y-72500000D03*
X95500000Y-72500000D03*
D18*
X92900000Y-71000000D03*
X92900000Y-69000000D03*
X92900000Y-67000000D03*
X92900000Y-65000000D03*
X92900000Y-63000000D03*
X92900000Y-61000000D03*
X92900000Y-59000000D03*
X92900000Y-57000000D03*
D20*
X86000000Y-70437500D03*
X86000000Y-73562500D03*
D21*
X141800000Y-62000000D03*
X147200000Y-62000000D03*
D22*
X47385000Y-73200000D03*
X47385000Y-72400000D03*
D23*
X47385000Y-71250000D03*
X47385000Y-70250000D03*
X47385000Y-69750000D03*
X47385000Y-68750000D03*
D22*
X47385000Y-67600000D03*
X47385000Y-66800000D03*
X47385000Y-66800000D03*
X47385000Y-67600000D03*
D23*
X47385000Y-68250000D03*
X47385000Y-69250000D03*
X47385000Y-70750000D03*
X47385000Y-71750000D03*
D22*
X47385000Y-72400000D03*
X47385000Y-73200000D03*
D24*
X42635000Y-74320000D03*
D25*
X46805000Y-74320000D03*
D24*
X42635000Y-65680000D03*
D25*
X46805000Y-65680000D03*
D26*
X144975000Y-69595000D03*
X144975000Y-70865000D03*
X144975000Y-72135000D03*
X144975000Y-73405000D03*
X140025000Y-73405000D03*
X140025000Y-72135000D03*
X140025000Y-70865000D03*
X140025000Y-69595000D03*
D27*
X112450000Y-58000000D03*
X115550000Y-58000000D03*
D20*
X83500000Y-70437500D03*
X83500000Y-73562500D03*
D28*
X116000000Y-63562500D03*
X116000000Y-60437500D03*
D29*
X89000000Y-68050000D03*
X89000000Y-64950000D03*
D30*
X124375000Y-53000000D03*
X116625000Y-53000000D03*
D17*
X89000000Y-70950000D03*
X89000000Y-74050000D03*
D31*
X83500000Y-67950000D03*
X83500000Y-66050000D03*
X85375000Y-67000000D03*
D17*
X58000000Y-60450000D03*
X58000000Y-63550000D03*
X89000000Y-58950000D03*
X89000000Y-62050000D03*
D32*
X77937500Y-71000000D03*
X81062500Y-71000000D03*
D17*
X119000000Y-60450000D03*
X119000000Y-63550000D03*
D33*
X54550000Y-71000000D03*
X51450000Y-71000000D03*
D34*
X121515000Y-60850000D03*
X122785000Y-60850000D03*
X124055000Y-60850000D03*
X125325000Y-60850000D03*
X126595000Y-60850000D03*
X127865000Y-60850000D03*
X129135000Y-60850000D03*
X130405000Y-60850000D03*
X131675000Y-60850000D03*
X132945000Y-60850000D03*
X134215000Y-60850000D03*
X135485000Y-60850000D03*
X135485000Y-70150000D03*
X134215000Y-70150000D03*
X132945000Y-70150000D03*
X131675000Y-70150000D03*
X130405000Y-70150000D03*
X129135000Y-70150000D03*
X127865000Y-70150000D03*
X126595000Y-70150000D03*
X125325000Y-70150000D03*
X124055000Y-70150000D03*
X122785000Y-70150000D03*
X121515000Y-70150000D03*
D35*
X79150000Y-61200000D03*
X79150000Y-63500000D03*
D36*
X72850000Y-63500000D03*
D35*
X79150000Y-65800000D03*
D27*
X112450000Y-73500000D03*
X115550000Y-73500000D03*
D28*
X70000000Y-65062500D03*
X70000000Y-61937500D03*
D27*
X51450000Y-68500000D03*
X54550000Y-68500000D03*
D37*
X60562500Y-73000000D03*
X57437500Y-73000000D03*
D29*
X115500000Y-70050000D03*
X115500000Y-66950000D03*
D33*
X81050000Y-68500000D03*
X77950000Y-68500000D03*
D38*
X54750000Y-73500000D03*
X51250000Y-73500000D03*
D31*
X83437500Y-63000000D03*
X83437500Y-61100000D03*
X85312500Y-62050000D03*
D26*
X65975000Y-61555000D03*
X65975000Y-62825000D03*
X65975000Y-64095000D03*
X65975000Y-65365000D03*
X65975000Y-66635000D03*
X65975000Y-67905000D03*
X65975000Y-69175000D03*
X65975000Y-70445000D03*
X61025000Y-70445000D03*
X61025000Y-69175000D03*
X61025000Y-67905000D03*
X61025000Y-66635000D03*
X61025000Y-65365000D03*
X61025000Y-64095000D03*
X61025000Y-62825000D03*
X61025000Y-61555000D03*
D20*
X148500000Y-68437500D03*
X148500000Y-71562500D03*
D39*
X119500000Y-71500000D03*
X133000000Y-63000000D03*
X81000000Y-60500000D03*
X118734171Y-71009500D03*
X122500000Y-62500000D03*
X87378329Y-73072000D03*
X118500000Y-66000000D03*
X119500000Y-65500000D03*
X127000000Y-62500000D03*
X82000000Y-60500000D03*
X95000000Y-63000000D03*
X121403164Y-62596836D03*
X110000000Y-65000000D03*
X134000000Y-63500000D03*
X97500000Y-63500000D03*
X135000000Y-68000000D03*
X110000000Y-67000000D03*
X110000000Y-69000000D03*
X59403164Y-60903164D03*
X82500000Y-69000000D03*
X106000000Y-71000000D03*
X95500000Y-67000000D03*
X68500000Y-63500000D03*
X90492919Y-61993113D03*
X91007086Y-62507083D03*
X70000000Y-63500000D03*
X64000000Y-67000000D03*
X49000000Y-69000000D03*
X49000000Y-70500000D03*
X64000000Y-67905000D03*
X87500000Y-66500000D03*
X86500000Y-69000000D03*
D40*
X131675000Y-60850000D02*
X131675000Y-60175000D01*
X127500000Y-63000000D02*
X126500000Y-63000000D01*
X131675000Y-60175000D02*
X131000000Y-59500000D01*
X131000000Y-59500000D02*
X128972890Y-59500000D01*
X128972890Y-59500000D02*
X128500000Y-59972890D01*
X128500000Y-59972890D02*
X128500000Y-62000000D01*
X128500000Y-62000000D02*
X127500000Y-63000000D01*
X126500000Y-63000000D02*
X125325000Y-61825000D01*
X125325000Y-61825000D02*
X125325000Y-60850000D01*
X134215000Y-62285000D02*
X133500000Y-63000000D01*
X133500000Y-63000000D02*
X133000000Y-63000000D01*
X134215000Y-62285000D02*
X134215000Y-60850000D01*
X110000000Y-69000000D02*
X108100000Y-69000000D01*
X77950000Y-68500000D02*
X70500000Y-68500000D01*
X70500000Y-68500000D02*
X68000000Y-66000000D01*
X68000000Y-66000000D02*
X63500000Y-66000000D01*
X63500000Y-66000000D02*
X62865000Y-65365000D01*
X62865000Y-65365000D02*
X61025000Y-65365000D01*
X61025000Y-64095000D02*
X59595000Y-64095000D01*
X59595000Y-64095000D02*
X59050000Y-63550000D01*
X59050000Y-63550000D02*
X58000000Y-63550000D01*
X69500000Y-63500000D02*
X68825000Y-62825000D01*
X68825000Y-62825000D02*
X65975000Y-62825000D01*
X70000000Y-63500000D02*
X69500000Y-63500000D01*
X131675000Y-69325000D02*
X131675000Y-70150000D01*
X137000000Y-60500000D02*
X137000000Y-64000000D01*
X131700000Y-58000000D02*
X134500000Y-58000000D01*
X134500000Y-58000000D02*
X137000000Y-60500000D01*
X137000000Y-64000000D02*
X131675000Y-69325000D01*
X119500000Y-71500000D02*
X119800000Y-71500000D01*
X119800000Y-71500000D02*
X121540000Y-73240000D01*
X122785000Y-70150000D02*
X122785000Y-71995000D01*
X122785000Y-71995000D02*
X121540000Y-73240000D01*
X130405000Y-71995000D02*
X130405000Y-70150000D01*
X129160000Y-73240000D02*
X130405000Y-71995000D01*
X75420000Y-58000000D02*
X77420000Y-60000000D01*
X77420000Y-60000000D02*
X80500000Y-60000000D01*
X80500000Y-60000000D02*
X81000000Y-60500000D01*
X124055000Y-73215000D02*
X124080000Y-73240000D01*
X124055000Y-70150000D02*
X124055000Y-73215000D01*
X126620000Y-70175000D02*
X126595000Y-70150000D01*
X126620000Y-73240000D02*
X126620000Y-70175000D01*
X133000000Y-55500000D02*
X138000000Y-60500000D01*
X138000000Y-60500000D02*
X138000000Y-64000000D01*
X121540000Y-58000000D02*
X124040000Y-55500000D01*
X138000000Y-64000000D02*
X134215000Y-67785000D01*
X124040000Y-55500000D02*
X133000000Y-55500000D01*
X134215000Y-67785000D02*
X134215000Y-70150000D01*
X118734171Y-71009500D02*
X118734171Y-71734171D01*
X125325000Y-73610500D02*
X124500000Y-74435500D01*
X125325000Y-70150000D02*
X125325000Y-73610500D01*
X119000000Y-72000000D02*
X119000000Y-73240000D01*
X118734171Y-71734171D02*
X119000000Y-72000000D01*
X124500000Y-74435500D02*
X120195500Y-74435500D01*
X120195500Y-74435500D02*
X119000000Y-73240000D01*
X122785000Y-60850000D02*
X122785000Y-62215000D01*
X122785000Y-62215000D02*
X122500000Y-62500000D01*
X137500000Y-64000000D02*
X132945000Y-68555000D01*
X132945000Y-68555000D02*
X132945000Y-70150000D01*
X126080000Y-56000000D02*
X133000000Y-56000000D01*
X137500000Y-60500000D02*
X137500000Y-64000000D01*
X133000000Y-56000000D02*
X137500000Y-60500000D01*
X124080000Y-58000000D02*
X126080000Y-56000000D01*
X98000000Y-68000000D02*
X96000000Y-70000000D01*
X88695000Y-73072000D02*
X87378329Y-73072000D01*
X118500000Y-66500000D02*
X116500000Y-68500000D01*
X119500000Y-65500000D02*
X125509999Y-65500000D01*
X125509999Y-65500000D02*
X129135000Y-61874999D01*
X111500000Y-68500000D02*
X111000000Y-68000000D01*
X129135000Y-61874999D02*
X129135000Y-60850000D01*
X91767000Y-70000000D02*
X88695000Y-73072000D01*
X111000000Y-68000000D02*
X98000000Y-68000000D01*
X118500000Y-66000000D02*
X118500000Y-66500000D01*
X96000000Y-70000000D02*
X91767000Y-70000000D01*
X116500000Y-68500000D02*
X111500000Y-68500000D01*
X127865000Y-61635000D02*
X127865000Y-60850000D01*
X80500000Y-59500000D02*
X81000000Y-59500000D01*
X77960000Y-58000000D02*
X79460000Y-59500000D01*
X127000000Y-62500000D02*
X127865000Y-61635000D01*
X81000000Y-59500000D02*
X82000000Y-60500000D01*
X79460000Y-59500000D02*
X80500000Y-59500000D01*
X130500000Y-58500000D02*
X130500000Y-57500000D01*
X130500000Y-57500000D02*
X129500000Y-56500000D01*
X132945000Y-60850000D02*
X132945000Y-59825001D01*
X128120000Y-56500000D02*
X126620000Y-58000000D01*
X129500000Y-56500000D02*
X128120000Y-56500000D01*
X131445000Y-59445000D02*
X130500000Y-58500000D01*
X132564999Y-59445000D02*
X131445000Y-59445000D01*
X132945000Y-59825001D02*
X132564999Y-59445000D01*
X124055000Y-60850000D02*
X124055000Y-60055000D01*
X123500000Y-59500000D02*
X120500000Y-59500000D01*
X120500000Y-59500000D02*
X119000000Y-58000000D01*
X124055000Y-60055000D02*
X123500000Y-59500000D01*
X130405000Y-62905000D02*
X130405000Y-60850000D01*
X131000000Y-72540000D02*
X131000000Y-63500000D01*
X131700000Y-73240000D02*
X131000000Y-72540000D01*
X131000000Y-63500000D02*
X130405000Y-62905000D01*
X128160000Y-59000000D02*
X127500000Y-59000000D01*
X127500000Y-59000000D02*
X126595000Y-59905000D01*
X126595000Y-59905000D02*
X126595000Y-60850000D01*
X129160000Y-58000000D02*
X128160000Y-59000000D01*
X119000000Y-66500000D02*
X119000000Y-63550000D01*
X75500000Y-66000000D02*
X76750000Y-64750000D01*
X65975000Y-61555000D02*
X68000000Y-61555000D01*
X76000000Y-54250000D02*
X60000000Y-54250000D01*
X56550000Y-73000000D02*
X54550000Y-71000000D01*
X80000000Y-67000000D02*
X80500000Y-66500000D01*
X59500000Y-61500000D02*
X57000000Y-61500000D01*
X143000000Y-72500000D02*
X143905000Y-73405000D01*
X79150000Y-61200000D02*
X70737500Y-61200000D01*
X136500000Y-53000000D02*
X124375000Y-53000000D01*
X81062500Y-71000000D02*
X80000000Y-69937500D01*
X117500000Y-62062500D02*
X116000000Y-63562500D01*
X146635000Y-70865000D02*
X147500000Y-70000000D01*
X47080500Y-66495500D02*
X47385000Y-66800000D01*
X68000000Y-61555000D02*
X68382500Y-61937500D01*
X71500000Y-63437500D02*
X71500000Y-65500000D01*
X82000000Y-70062500D02*
X81062500Y-71000000D01*
X86000000Y-73562500D02*
X83500000Y-73562500D01*
X57000000Y-61500000D02*
X54550000Y-63950000D01*
X124375000Y-53000000D02*
X121000000Y-53000000D01*
X144975000Y-70865000D02*
X146635000Y-70865000D01*
X111500000Y-69000000D02*
X116500000Y-69000000D01*
X47385000Y-66800000D02*
X52850000Y-66800000D01*
X63000000Y-60500000D02*
X60500000Y-60500000D01*
X144000000Y-64500000D02*
X144000000Y-60500000D01*
X92900000Y-71000000D02*
X98000000Y-71000000D01*
X144000000Y-60500000D02*
X136500000Y-53000000D01*
X57437500Y-73000000D02*
X56550000Y-73000000D01*
X79250000Y-61100000D02*
X79150000Y-61200000D01*
X46004500Y-66495500D02*
X47080500Y-66495500D01*
X70737500Y-61200000D02*
X70000000Y-61937500D01*
X83500000Y-66050000D02*
X82000000Y-67550000D01*
X121000000Y-53000000D02*
X117500000Y-56500000D01*
X116000000Y-63562500D02*
X116500000Y-63562500D01*
X80500000Y-66500000D02*
X80500000Y-65000000D01*
X143000000Y-71500000D02*
X143000000Y-72500000D01*
X44500000Y-71934034D02*
X44500000Y-68000000D01*
X82000000Y-67550000D02*
X82000000Y-70062500D01*
X44500000Y-68000000D02*
X46004500Y-66495500D01*
X47385000Y-73200000D02*
X47080500Y-73504500D01*
X88550000Y-74050000D02*
X88062500Y-73562500D01*
X119000000Y-63550000D02*
X116512500Y-63550000D01*
X57937500Y-73500000D02*
X58000000Y-73562500D01*
X65975000Y-57525000D02*
X65975000Y-61555000D01*
X47080500Y-73504500D02*
X46070466Y-73504500D01*
X155000000Y-70000000D02*
X152500000Y-67500000D01*
X80250000Y-64750000D02*
X76750000Y-64750000D01*
X143000000Y-65500000D02*
X144000000Y-64500000D01*
X52850000Y-66800000D02*
X54550000Y-68500000D01*
X110500000Y-70000000D02*
X111500000Y-69000000D01*
X80000000Y-69937500D02*
X80000000Y-67000000D01*
X116500000Y-69000000D02*
X119000000Y-66500000D01*
X152500000Y-58000000D02*
X152500000Y-62000000D01*
X116512500Y-63550000D02*
X116500000Y-63562500D01*
X143635000Y-70865000D02*
X143000000Y-71500000D01*
X167000000Y-70000000D02*
X155000000Y-70000000D01*
X143000000Y-70230000D02*
X143000000Y-65500000D01*
X54550000Y-71000000D02*
X54550000Y-68500000D01*
X99000000Y-70000000D02*
X110500000Y-70000000D01*
X154500000Y-66500000D02*
X153500000Y-67500000D01*
X143905000Y-73405000D02*
X144975000Y-73405000D01*
X46070466Y-73504500D02*
X44500000Y-71934034D01*
X150000000Y-70000000D02*
X152500000Y-67500000D01*
X89000000Y-74050000D02*
X88550000Y-74050000D01*
X153500000Y-67500000D02*
X152500000Y-67500000D01*
X154500000Y-64000000D02*
X154500000Y-66500000D01*
X80500000Y-65000000D02*
X80250000Y-64750000D01*
X88062500Y-73562500D02*
X86000000Y-73562500D01*
X81062500Y-71000000D02*
X83500000Y-73437500D01*
X72000000Y-66000000D02*
X75500000Y-66000000D01*
X144975000Y-70865000D02*
X143635000Y-70865000D01*
X83437500Y-61100000D02*
X79250000Y-61100000D01*
X66500000Y-54250000D02*
X66500000Y-57000000D01*
X68382500Y-61937500D02*
X70000000Y-61937500D01*
X65975000Y-61555000D02*
X64055000Y-61555000D01*
X70000000Y-61937500D02*
X71500000Y-63437500D01*
X117500000Y-56500000D02*
X117500000Y-62062500D01*
X83500000Y-73437500D02*
X83500000Y-73562500D01*
X60500000Y-60500000D02*
X59500000Y-61500000D01*
X66500000Y-57000000D02*
X65975000Y-57525000D01*
X147500000Y-70000000D02*
X150000000Y-70000000D01*
X143635000Y-70865000D02*
X143000000Y-70230000D01*
X64055000Y-61555000D02*
X63000000Y-60500000D01*
X92900000Y-71000000D02*
X92050000Y-71000000D01*
X152500000Y-62000000D02*
X154500000Y-64000000D01*
X54550000Y-63950000D02*
X54550000Y-68500000D01*
X98000000Y-71000000D02*
X99000000Y-70000000D01*
X71500000Y-65500000D02*
X72000000Y-66000000D01*
X92050000Y-71000000D02*
X89000000Y-74050000D01*
X121515000Y-62485000D02*
X121403164Y-62596836D01*
X92900000Y-63000000D02*
X95000000Y-63000000D01*
X121515000Y-60850000D02*
X121515000Y-62485000D01*
X110000000Y-65000000D02*
X108100000Y-65000000D01*
X95000000Y-61000000D02*
X92900000Y-61000000D01*
X97500000Y-63500000D02*
X95000000Y-61000000D01*
X135485000Y-60850000D02*
X135485000Y-62015000D01*
X135485000Y-62015000D02*
X134000000Y-63500000D01*
X110000000Y-67000000D02*
X108100000Y-67000000D01*
X135485000Y-68485000D02*
X135000000Y-68000000D01*
X135485000Y-70150000D02*
X135485000Y-68485000D01*
X128509999Y-68500000D02*
X129135000Y-69125001D01*
X129135000Y-69125001D02*
X129135000Y-70150000D01*
X120550000Y-68500000D02*
X128509999Y-68500000D01*
X115550000Y-73500000D02*
X120550000Y-68500000D01*
X129135000Y-71174999D02*
X129135000Y-70150000D01*
X125325000Y-60850000D02*
X125325000Y-61675000D01*
X131675000Y-61825000D02*
X131675000Y-60850000D01*
X119000000Y-61225000D02*
X119000000Y-60450000D01*
X121275000Y-63500000D02*
X119000000Y-61225000D01*
X125325000Y-61675000D02*
X123500000Y-63500000D01*
X123500000Y-63500000D02*
X121275000Y-63500000D01*
X81050000Y-65387500D02*
X81050000Y-68500000D01*
X83437500Y-63000000D02*
X81050000Y-65387500D01*
X68667500Y-65062500D02*
X70000000Y-65062500D01*
X68365000Y-65365000D02*
X68667500Y-65062500D01*
X65975000Y-65365000D02*
X68365000Y-65365000D01*
X85375000Y-67000000D02*
X87875000Y-69500000D01*
X115000000Y-56500000D02*
X116625000Y-54875000D01*
X87875000Y-69500000D02*
X90000000Y-69500000D01*
X91500000Y-68000000D02*
X96500000Y-68000000D01*
X96500000Y-68000000D02*
X97000000Y-67500000D01*
X111000000Y-57000000D02*
X111500000Y-56500000D01*
X116625000Y-54875000D02*
X116625000Y-53000000D01*
X108100000Y-57000000D02*
X111000000Y-57000000D01*
X107500000Y-57000000D02*
X108100000Y-57000000D01*
X114000000Y-56500000D02*
X115000000Y-56500000D01*
X111500000Y-56500000D02*
X114000000Y-56500000D01*
X90000000Y-69500000D02*
X91500000Y-68000000D01*
X97000000Y-67500000D02*
X107500000Y-57000000D01*
X114000000Y-65450000D02*
X114000000Y-56500000D01*
X115500000Y-66950000D02*
X114000000Y-65450000D01*
X82250000Y-56000000D02*
X76000000Y-49750000D01*
X90000000Y-57500000D02*
X86500000Y-57500000D01*
X89000000Y-62050000D02*
X91950000Y-65000000D01*
X85000000Y-56000000D02*
X82250000Y-56000000D01*
X76000000Y-49750000D02*
X69500000Y-49750000D01*
X89000000Y-62050000D02*
X89000000Y-61000000D01*
X89000000Y-61000000D02*
X90500000Y-59500000D01*
X86500000Y-57500000D02*
X85000000Y-56000000D01*
X90500000Y-58000000D02*
X90000000Y-57500000D01*
X90500000Y-59500000D02*
X90500000Y-58000000D01*
X89000000Y-62050000D02*
X85312500Y-62050000D01*
X91950000Y-65000000D02*
X92900000Y-65000000D01*
X58000000Y-60450000D02*
X58950000Y-60450000D01*
X58950000Y-60450000D02*
X59403164Y-60903164D01*
X82500000Y-68950000D02*
X83500000Y-67950000D01*
X82500000Y-69000000D02*
X82500000Y-68950000D01*
X112050000Y-71000000D02*
X113000000Y-70050000D01*
X57000000Y-54250000D02*
X50500000Y-54250000D01*
X90050000Y-66000000D02*
X89000000Y-64950000D01*
X87000000Y-59000000D02*
X87050000Y-58950000D01*
X79500000Y-63500000D02*
X81000000Y-62000000D01*
X80500000Y-56500000D02*
X76500000Y-52500000D01*
X58750000Y-52500000D02*
X57000000Y-54250000D01*
X84000000Y-62000000D02*
X87000000Y-59000000D01*
X79150000Y-63500000D02*
X79500000Y-63500000D01*
X108100000Y-71000000D02*
X112050000Y-71000000D01*
X87000000Y-59000000D02*
X84500000Y-56500000D01*
X95500000Y-67000000D02*
X94500000Y-66000000D01*
X86000000Y-69000000D02*
X84446000Y-67446000D01*
X87050000Y-58950000D02*
X89000000Y-58950000D01*
X84446000Y-67446000D02*
X84446000Y-62446000D01*
X76500000Y-52500000D02*
X58750000Y-52500000D01*
X83500000Y-70437500D02*
X86000000Y-70437500D01*
X84500000Y-56500000D02*
X80500000Y-56500000D01*
X94500000Y-66000000D02*
X90050000Y-66000000D01*
X86950000Y-64950000D02*
X84000000Y-62000000D01*
X89000000Y-64950000D02*
X86950000Y-64950000D01*
X106000000Y-71000000D02*
X108100000Y-71000000D01*
X86000000Y-70437500D02*
X86000000Y-69000000D01*
X115500000Y-70050000D02*
X113000000Y-70050000D01*
X72850000Y-63500000D02*
X79150000Y-63500000D01*
X81000000Y-62000000D02*
X84000000Y-62000000D01*
X51200000Y-68250000D02*
X47385000Y-68250000D01*
X51450000Y-68500000D02*
X51200000Y-68250000D01*
X51450000Y-71000000D02*
X51200000Y-71250000D01*
X51200000Y-71250000D02*
X47385000Y-71250000D01*
X113000000Y-64000000D02*
X110000000Y-61000000D01*
X110000000Y-61000000D02*
X108100000Y-61000000D01*
X113000000Y-66950000D02*
X113000000Y-64000000D01*
X67905000Y-64095000D02*
X68500000Y-63500000D01*
X65975000Y-64095000D02*
X67905000Y-64095000D01*
X92900000Y-57000000D02*
X91500000Y-57000000D01*
X90500000Y-61986032D02*
X90492919Y-61993113D01*
X91000000Y-60000000D02*
X90500000Y-60500000D01*
X91000000Y-57500000D02*
X91000000Y-60000000D01*
X91500000Y-57000000D02*
X91000000Y-57500000D01*
X90500000Y-60500000D02*
X90500000Y-61986032D01*
X56500000Y-68937500D02*
X56500000Y-63000000D01*
X59500000Y-62000000D02*
X59945000Y-61555000D01*
X79150000Y-65800000D02*
X79150000Y-69787500D01*
X127865000Y-73635000D02*
X127865000Y-70150000D01*
X59945000Y-61555000D02*
X61025000Y-61555000D01*
X68000000Y-71000000D02*
X77937500Y-71000000D01*
X55750000Y-74500000D02*
X59062500Y-74500000D01*
X54750000Y-73500000D02*
X55750000Y-74500000D01*
X135283659Y-74935500D02*
X129165500Y-74935500D01*
X127865000Y-70150000D02*
X127865000Y-71174999D01*
X79000000Y-72062500D02*
X77937500Y-71000000D01*
X129165500Y-74935500D02*
X127865000Y-73635000D01*
X112450000Y-73500000D02*
X113885500Y-74935500D01*
X112450000Y-73500000D02*
X111014500Y-74935500D01*
X79000000Y-74000000D02*
X79000000Y-72062500D01*
X113885500Y-74935500D02*
X126564500Y-74935500D01*
X140025000Y-72135000D02*
X138084159Y-72135000D01*
X111014500Y-74935500D02*
X79935500Y-74935500D01*
X56500000Y-63000000D02*
X57500000Y-62000000D01*
X138084159Y-72135000D02*
X135283659Y-74935500D01*
X66000000Y-73000000D02*
X60562500Y-73000000D01*
X59062500Y-74500000D02*
X60562500Y-73000000D01*
X57500000Y-62000000D02*
X59500000Y-62000000D01*
X68000000Y-71000000D02*
X66000000Y-73000000D01*
X79150000Y-69787500D02*
X77937500Y-71000000D01*
X60562500Y-73000000D02*
X56500000Y-68937500D01*
X79935500Y-74935500D02*
X79000000Y-74000000D01*
X126564500Y-74935500D02*
X127865000Y-73635000D01*
X91000000Y-60500000D02*
X92500000Y-59000000D01*
X92500000Y-59000000D02*
X92900000Y-59000000D01*
X91007086Y-62507083D02*
X91000000Y-62499997D01*
X91000000Y-62499997D02*
X91000000Y-60500000D01*
D41*
X49000000Y-69000000D02*
X48750000Y-69250000D01*
X48750000Y-69250000D02*
X47385000Y-69250000D01*
X64865000Y-66635000D02*
X65975000Y-66635000D01*
X46500000Y-70003400D02*
X46746600Y-70250000D01*
X46746600Y-70250000D02*
X47385000Y-70250000D01*
X46500000Y-69500000D02*
X46500000Y-70003400D01*
X64000000Y-67000000D02*
X64500000Y-67000000D01*
X46750000Y-69250000D02*
X46500000Y-69500000D01*
X47385000Y-69250000D02*
X46750000Y-69250000D01*
X64500000Y-67000000D02*
X64865000Y-66635000D01*
X48250000Y-69750000D02*
X49000000Y-70500000D01*
X47385000Y-69750000D02*
X48250000Y-69750000D01*
X49000000Y-70500000D02*
X48750000Y-70750000D01*
X48750000Y-70750000D02*
X47385000Y-70750000D01*
X64000000Y-67905000D02*
X65975000Y-67905000D01*
D40*
X90500000Y-68050000D02*
X91550000Y-67000000D01*
X89000000Y-68050000D02*
X90500000Y-68050000D01*
X91550000Y-67000000D02*
X92900000Y-67000000D01*
X60000000Y-49750000D02*
X66500000Y-49750000D01*
X87500000Y-66550000D02*
X89000000Y-68050000D01*
X87500000Y-66500000D02*
X87500000Y-66550000D01*
X90050000Y-70950000D02*
X89000000Y-70950000D01*
X86500000Y-69000000D02*
X88450000Y-70950000D01*
X50500000Y-49750000D02*
X57000000Y-49750000D01*
X88450000Y-70950000D02*
X89000000Y-70950000D01*
X92900000Y-69000000D02*
X92000000Y-69000000D01*
X92000000Y-69000000D02*
X90050000Y-70950000D01*
X146937500Y-71562500D02*
X146365000Y-72135000D01*
X148500000Y-71562500D02*
X146937500Y-71562500D01*
X146365000Y-72135000D02*
X144975000Y-72135000D01*
X144500000Y-64437500D02*
X144500000Y-60000000D01*
X115550000Y-59987500D02*
X116000000Y-60437500D01*
X115550000Y-58000000D02*
X115550000Y-59987500D01*
X136500000Y-52000000D02*
X121000000Y-52000000D01*
X148500000Y-68437500D02*
X144500000Y-64437500D01*
X121000000Y-52000000D02*
X115550000Y-57450000D01*
X144500000Y-60000000D02*
X136500000Y-52000000D01*
X115550000Y-57450000D02*
X115550000Y-58000000D01*
X140999999Y-73405000D02*
X141800000Y-72604999D01*
X140025000Y-73405000D02*
X140999999Y-73405000D01*
X141800000Y-72604999D02*
X141800000Y-62000000D01*
X147200000Y-62000000D02*
X152200000Y-57000000D01*
X152200000Y-57000000D02*
X152500000Y-57000000D01*
X46000000Y-71500000D02*
X46900000Y-72400000D01*
X46900000Y-72400000D02*
X47385000Y-72400000D01*
X46900000Y-67600000D02*
X46000000Y-68500000D01*
X50000000Y-73500000D02*
X48900000Y-72400000D01*
X46000000Y-68500000D02*
X46000000Y-71500000D01*
X47385000Y-67600000D02*
X46900000Y-67600000D01*
X51250000Y-73500000D02*
X50000000Y-73500000D01*
X48900000Y-72400000D02*
X47385000Y-72400000D01*
X106500000Y-60000000D02*
X110450000Y-60000000D01*
X106500000Y-63000000D02*
X106000000Y-62500000D01*
X106000000Y-60500000D02*
X106500000Y-60000000D01*
X108100000Y-63000000D02*
X106500000Y-63000000D01*
X106000000Y-62500000D02*
X106000000Y-60500000D01*
X110450000Y-60000000D02*
X112450000Y-58000000D01*
M02*
