G04 #@! TF.GenerationSoftware,KiCad,Pcbnew,9.0.7*
G04 #@! TF.CreationDate,2026-03-11T11:46:53-04:00*
G04 #@! TF.ProjectId,shiftclock-5.0,73686966-7463-46c6-9f63-6b2d352e302e,rev?*
G04 #@! TF.SameCoordinates,Original*
G04 #@! TF.FileFunction,Soldermask,Top*
G04 #@! TF.FilePolarity,Negative*
%FSLAX46Y46*%
G04 Gerber Fmt 4.6, Leading zero omitted, Abs format (unit mm)*
G04 Created by KiCad (PCBNEW 9.0.7) date 2026-03-11 11:46:53*
%MOMM*%
%LPD*%
G01*
G04 APERTURE LIST*
G04 APERTURE END LIST*
G36*
X26593737Y-65053850D02*
G01*
X26707208Y-65084254D01*
X26808943Y-65142991D01*
X26892009Y-65226057D01*
X26950746Y-65327792D01*
X26981150Y-65441263D01*
X26981150Y-65558737D01*
X26950746Y-65672208D01*
X26892009Y-65773943D01*
X26808943Y-65857009D01*
X26707208Y-65915746D01*
X26593737Y-65946150D01*
X26535000Y-65950000D01*
X26533029Y-65950000D01*
X25736971Y-65950000D01*
X25735000Y-65950000D01*
X25676263Y-65946150D01*
X25562792Y-65915746D01*
X25461057Y-65857009D01*
X25377991Y-65773943D01*
X25319254Y-65672208D01*
X25288850Y-65558737D01*
X25288850Y-65441263D01*
X25319254Y-65327792D01*
X25377991Y-65226057D01*
X25461057Y-65142991D01*
X25562792Y-65084254D01*
X25676263Y-65053850D01*
X25735000Y-65050000D01*
X26535000Y-65050000D01*
X26593737Y-65053850D01*
G37*
G36*
X30913737Y-65053850D02*
G01*
X31027208Y-65084254D01*
X31128943Y-65142991D01*
X31212009Y-65226057D01*
X31270746Y-65327792D01*
X31301150Y-65441263D01*
X31301150Y-65558737D01*
X31270746Y-65672208D01*
X31212009Y-65773943D01*
X31128943Y-65857009D01*
X31027208Y-65915746D01*
X30913737Y-65946150D01*
X30855000Y-65950000D01*
X30853029Y-65950000D01*
X29756971Y-65950000D01*
X29755000Y-65950000D01*
X29696263Y-65946150D01*
X29582792Y-65915746D01*
X29481057Y-65857009D01*
X29397991Y-65773943D01*
X29339254Y-65672208D01*
X29308850Y-65558737D01*
X29308850Y-65441263D01*
X29339254Y-65327792D01*
X29397991Y-65226057D01*
X29481057Y-65142991D01*
X29582792Y-65084254D01*
X29696263Y-65053850D01*
X29755000Y-65050000D01*
X30855000Y-65050000D01*
X30913737Y-65053850D01*
G37*
G36*
X57900000Y-65000000D02*
G01*
X56400000Y-65000000D01*
X56400000Y-63500000D01*
X57900000Y-63500000D01*
X57900000Y-65000000D01*
G37*
G36*
X108750000Y-65000000D02*
G01*
X107250000Y-65000000D01*
X107250000Y-63500000D01*
X108750000Y-63500000D01*
X108750000Y-65000000D01*
G37*
G36*
X59907714Y-63532295D02*
G01*
X60043548Y-63588559D01*
X60165795Y-63670242D01*
X60269758Y-63774205D01*
X60351441Y-63896452D01*
X60407705Y-64032286D01*
X60436389Y-64176487D01*
X60436389Y-64323513D01*
X60407705Y-64467714D01*
X60351441Y-64603548D01*
X60269758Y-64725795D01*
X60165795Y-64829758D01*
X60043548Y-64911441D01*
X59907714Y-64967705D01*
X59763513Y-64996389D01*
X59616487Y-64996389D01*
X59472286Y-64967705D01*
X59336452Y-64911441D01*
X59214205Y-64829758D01*
X59110242Y-64725795D01*
X59028559Y-64603548D01*
X58972295Y-64467714D01*
X58943611Y-64323513D01*
X58943611Y-64176487D01*
X58972295Y-64032286D01*
X59028559Y-63896452D01*
X59110242Y-63774205D01*
X59214205Y-63670242D01*
X59336452Y-63588559D01*
X59472286Y-63532295D01*
X59616487Y-63503611D01*
X59763513Y-63503611D01*
X59907714Y-63532295D01*
G37*
G36*
X62447714Y-63532295D02*
G01*
X62583548Y-63588559D01*
X62705795Y-63670242D01*
X62809758Y-63774205D01*
X62891441Y-63896452D01*
X62947705Y-64032286D01*
X62976389Y-64176487D01*
X62976389Y-64323513D01*
X62947705Y-64467714D01*
X62891441Y-64603548D01*
X62809758Y-64725795D01*
X62705795Y-64829758D01*
X62583548Y-64911441D01*
X62447714Y-64967705D01*
X62303513Y-64996389D01*
X62156487Y-64996389D01*
X62012286Y-64967705D01*
X61876452Y-64911441D01*
X61754205Y-64829758D01*
X61650242Y-64725795D01*
X61568559Y-64603548D01*
X61512295Y-64467714D01*
X61483611Y-64323513D01*
X61483611Y-64176487D01*
X61512295Y-64032286D01*
X61568559Y-63896452D01*
X61650242Y-63774205D01*
X61754205Y-63670242D01*
X61876452Y-63588559D01*
X62012286Y-63532295D01*
X62156487Y-63503611D01*
X62303513Y-63503611D01*
X62447714Y-63532295D01*
G37*
G36*
X64987714Y-63532295D02*
G01*
X65123548Y-63588559D01*
X65245795Y-63670242D01*
X65349758Y-63774205D01*
X65431441Y-63896452D01*
X65487705Y-64032286D01*
X65516389Y-64176487D01*
X65516389Y-64323513D01*
X65487705Y-64467714D01*
X65431441Y-64603548D01*
X65349758Y-64725795D01*
X65245795Y-64829758D01*
X65123548Y-64911441D01*
X64987714Y-64967705D01*
X64843513Y-64996389D01*
X64696487Y-64996389D01*
X64552286Y-64967705D01*
X64416452Y-64911441D01*
X64294205Y-64829758D01*
X64190242Y-64725795D01*
X64108559Y-64603548D01*
X64052295Y-64467714D01*
X64023611Y-64323513D01*
X64023611Y-64176487D01*
X64052295Y-64032286D01*
X64108559Y-63896452D01*
X64190242Y-63774205D01*
X64294205Y-63670242D01*
X64416452Y-63588559D01*
X64552286Y-63532295D01*
X64696487Y-63503611D01*
X64843513Y-63503611D01*
X64987714Y-63532295D01*
G37*
G36*
X67527714Y-63532295D02*
G01*
X67663548Y-63588559D01*
X67785795Y-63670242D01*
X67889758Y-63774205D01*
X67971441Y-63896452D01*
X68027705Y-64032286D01*
X68056389Y-64176487D01*
X68056389Y-64323513D01*
X68027705Y-64467714D01*
X67971441Y-64603548D01*
X67889758Y-64725795D01*
X67785795Y-64829758D01*
X67663548Y-64911441D01*
X67527714Y-64967705D01*
X67383513Y-64996389D01*
X67236487Y-64996389D01*
X67092286Y-64967705D01*
X66956452Y-64911441D01*
X66834205Y-64829758D01*
X66730242Y-64725795D01*
X66648559Y-64603548D01*
X66592295Y-64467714D01*
X66563611Y-64323513D01*
X66563611Y-64176487D01*
X66592295Y-64032286D01*
X66648559Y-63896452D01*
X66730242Y-63774205D01*
X66834205Y-63670242D01*
X66956452Y-63588559D01*
X67092286Y-63532295D01*
X67236487Y-63503611D01*
X67383513Y-63503611D01*
X67527714Y-63532295D01*
G37*
G36*
X70067714Y-63532295D02*
G01*
X70203548Y-63588559D01*
X70325795Y-63670242D01*
X70429758Y-63774205D01*
X70511441Y-63896452D01*
X70567705Y-64032286D01*
X70596389Y-64176487D01*
X70596389Y-64323513D01*
X70567705Y-64467714D01*
X70511441Y-64603548D01*
X70429758Y-64725795D01*
X70325795Y-64829758D01*
X70203548Y-64911441D01*
X70067714Y-64967705D01*
X69923513Y-64996389D01*
X69776487Y-64996389D01*
X69632286Y-64967705D01*
X69496452Y-64911441D01*
X69374205Y-64829758D01*
X69270242Y-64725795D01*
X69188559Y-64603548D01*
X69132295Y-64467714D01*
X69103611Y-64323513D01*
X69103611Y-64176487D01*
X69132295Y-64032286D01*
X69188559Y-63896452D01*
X69270242Y-63774205D01*
X69374205Y-63670242D01*
X69496452Y-63588559D01*
X69632286Y-63532295D01*
X69776487Y-63503611D01*
X69923513Y-63503611D01*
X70067714Y-63532295D01*
G37*
G36*
X110757714Y-63532295D02*
G01*
X110893548Y-63588559D01*
X111015795Y-63670242D01*
X111119758Y-63774205D01*
X111201441Y-63896452D01*
X111257705Y-64032286D01*
X111286389Y-64176487D01*
X111286389Y-64323513D01*
X111257705Y-64467714D01*
X111201441Y-64603548D01*
X111119758Y-64725795D01*
X111015795Y-64829758D01*
X110893548Y-64911441D01*
X110757714Y-64967705D01*
X110613513Y-64996389D01*
X110466487Y-64996389D01*
X110322286Y-64967705D01*
X110186452Y-64911441D01*
X110064205Y-64829758D01*
X109960242Y-64725795D01*
X109878559Y-64603548D01*
X109822295Y-64467714D01*
X109793611Y-64323513D01*
X109793611Y-64176487D01*
X109822295Y-64032286D01*
X109878559Y-63896452D01*
X109960242Y-63774205D01*
X110064205Y-63670242D01*
X110186452Y-63588559D01*
X110322286Y-63532295D01*
X110466487Y-63503611D01*
X110613513Y-63503611D01*
X110757714Y-63532295D01*
G37*
G36*
X113297714Y-63532295D02*
G01*
X113433548Y-63588559D01*
X113555795Y-63670242D01*
X113659758Y-63774205D01*
X113741441Y-63896452D01*
X113797705Y-64032286D01*
X113826389Y-64176487D01*
X113826389Y-64323513D01*
X113797705Y-64467714D01*
X113741441Y-64603548D01*
X113659758Y-64725795D01*
X113555795Y-64829758D01*
X113433548Y-64911441D01*
X113297714Y-64967705D01*
X113153513Y-64996389D01*
X113006487Y-64996389D01*
X112862286Y-64967705D01*
X112726452Y-64911441D01*
X112604205Y-64829758D01*
X112500242Y-64725795D01*
X112418559Y-64603548D01*
X112362295Y-64467714D01*
X112333611Y-64323513D01*
X112333611Y-64176487D01*
X112362295Y-64032286D01*
X112418559Y-63896452D01*
X112500242Y-63774205D01*
X112604205Y-63670242D01*
X112726452Y-63588559D01*
X112862286Y-63532295D01*
X113006487Y-63503611D01*
X113153513Y-63503611D01*
X113297714Y-63532295D01*
G37*
G36*
X115837714Y-63532295D02*
G01*
X115973548Y-63588559D01*
X116095795Y-63670242D01*
X116199758Y-63774205D01*
X116281441Y-63896452D01*
X116337705Y-64032286D01*
X116366389Y-64176487D01*
X116366389Y-64323513D01*
X116337705Y-64467714D01*
X116281441Y-64603548D01*
X116199758Y-64725795D01*
X116095795Y-64829758D01*
X115973548Y-64911441D01*
X115837714Y-64967705D01*
X115693513Y-64996389D01*
X115546487Y-64996389D01*
X115402286Y-64967705D01*
X115266452Y-64911441D01*
X115144205Y-64829758D01*
X115040242Y-64725795D01*
X114958559Y-64603548D01*
X114902295Y-64467714D01*
X114873611Y-64323513D01*
X114873611Y-64176487D01*
X114902295Y-64032286D01*
X114958559Y-63896452D01*
X115040242Y-63774205D01*
X115144205Y-63670242D01*
X115266452Y-63588559D01*
X115402286Y-63532295D01*
X115546487Y-63503611D01*
X115693513Y-63503611D01*
X115837714Y-63532295D01*
G37*
G36*
X118377714Y-63532295D02*
G01*
X118513548Y-63588559D01*
X118635795Y-63670242D01*
X118739758Y-63774205D01*
X118821441Y-63896452D01*
X118877705Y-64032286D01*
X118906389Y-64176487D01*
X118906389Y-64323513D01*
X118877705Y-64467714D01*
X118821441Y-64603548D01*
X118739758Y-64725795D01*
X118635795Y-64829758D01*
X118513548Y-64911441D01*
X118377714Y-64967705D01*
X118233513Y-64996389D01*
X118086487Y-64996389D01*
X117942286Y-64967705D01*
X117806452Y-64911441D01*
X117684205Y-64829758D01*
X117580242Y-64725795D01*
X117498559Y-64603548D01*
X117442295Y-64467714D01*
X117413611Y-64323513D01*
X117413611Y-64176487D01*
X117442295Y-64032286D01*
X117498559Y-63896452D01*
X117580242Y-63774205D01*
X117684205Y-63670242D01*
X117806452Y-63588559D01*
X117942286Y-63532295D01*
X118086487Y-63503611D01*
X118233513Y-63503611D01*
X118377714Y-63532295D01*
G37*
G36*
X120917714Y-63532295D02*
G01*
X121053548Y-63588559D01*
X121175795Y-63670242D01*
X121279758Y-63774205D01*
X121361441Y-63896452D01*
X121417705Y-64032286D01*
X121446389Y-64176487D01*
X121446389Y-64323513D01*
X121417705Y-64467714D01*
X121361441Y-64603548D01*
X121279758Y-64725795D01*
X121175795Y-64829758D01*
X121053548Y-64911441D01*
X120917714Y-64967705D01*
X120773513Y-64996389D01*
X120626487Y-64996389D01*
X120482286Y-64967705D01*
X120346452Y-64911441D01*
X120224205Y-64829758D01*
X120120242Y-64725795D01*
X120038559Y-64603548D01*
X119982295Y-64467714D01*
X119953611Y-64323513D01*
X119953611Y-64176487D01*
X119982295Y-64032286D01*
X120038559Y-63896452D01*
X120120242Y-63774205D01*
X120224205Y-63670242D01*
X120346452Y-63588559D01*
X120482286Y-63532295D01*
X120626487Y-63503611D01*
X120773513Y-63503611D01*
X120917714Y-63532295D01*
G37*
G36*
X29939805Y-63792836D02*
G01*
X30007628Y-63831994D01*
X30063006Y-63887372D01*
X30102164Y-63955195D01*
X30122433Y-64030842D01*
X30122433Y-64109158D01*
X30102164Y-64184805D01*
X30063006Y-64252628D01*
X30007628Y-64308006D01*
X29939805Y-64347164D01*
X29864158Y-64367433D01*
X29785842Y-64367433D01*
X29710195Y-64347164D01*
X29642372Y-64308006D01*
X29586994Y-64252628D01*
X29547836Y-64184805D01*
X29527567Y-64109158D01*
X29527567Y-64030842D01*
X29547836Y-63955195D01*
X29586994Y-63887372D01*
X29642372Y-63831994D01*
X29710195Y-63792836D01*
X29785842Y-63772567D01*
X29864158Y-63772567D01*
X29939805Y-63792836D01*
G37*
G36*
X142280000Y-59780000D02*
G01*
X140720000Y-59780000D01*
X140720000Y-58220000D01*
X142280000Y-58220000D01*
X142280000Y-59780000D01*
G37*
G36*
X29939805Y-58012836D02*
G01*
X30007628Y-58051994D01*
X30063006Y-58107372D01*
X30102164Y-58175195D01*
X30122433Y-58250842D01*
X30122433Y-58329158D01*
X30102164Y-58404805D01*
X30063006Y-58472628D01*
X30007628Y-58528006D01*
X29939805Y-58567164D01*
X29864158Y-58587433D01*
X29785842Y-58587433D01*
X29710195Y-58567164D01*
X29642372Y-58528006D01*
X29586994Y-58472628D01*
X29547836Y-58404805D01*
X29527567Y-58329158D01*
X29527567Y-58250842D01*
X29547836Y-58175195D01*
X29586994Y-58107372D01*
X29642372Y-58051994D01*
X29710195Y-58012836D01*
X29785842Y-57992567D01*
X29864158Y-57992567D01*
X29939805Y-58012836D01*
G37*
G36*
X26593737Y-56413850D02*
G01*
X26707208Y-56444254D01*
X26808943Y-56502991D01*
X26892009Y-56586057D01*
X26950746Y-56687792D01*
X26981150Y-56801263D01*
X26981150Y-56918737D01*
X26950746Y-57032208D01*
X26892009Y-57133943D01*
X26808943Y-57217009D01*
X26707208Y-57275746D01*
X26593737Y-57306150D01*
X26535000Y-57310000D01*
X26533029Y-57310000D01*
X25736971Y-57310000D01*
X25735000Y-57310000D01*
X25676263Y-57306150D01*
X25562792Y-57275746D01*
X25461057Y-57217009D01*
X25377991Y-57133943D01*
X25319254Y-57032208D01*
X25288850Y-56918737D01*
X25288850Y-56801263D01*
X25319254Y-56687792D01*
X25377991Y-56586057D01*
X25461057Y-56502991D01*
X25562792Y-56444254D01*
X25676263Y-56413850D01*
X25735000Y-56410000D01*
X26535000Y-56410000D01*
X26593737Y-56413850D01*
G37*
G36*
X30913737Y-56413850D02*
G01*
X31027208Y-56444254D01*
X31128943Y-56502991D01*
X31212009Y-56586057D01*
X31270746Y-56687792D01*
X31301150Y-56801263D01*
X31301150Y-56918737D01*
X31270746Y-57032208D01*
X31212009Y-57133943D01*
X31128943Y-57217009D01*
X31027208Y-57275746D01*
X30913737Y-57306150D01*
X30855000Y-57310000D01*
X30853029Y-57310000D01*
X29756971Y-57310000D01*
X29755000Y-57310000D01*
X29696263Y-57306150D01*
X29582792Y-57275746D01*
X29481057Y-57217009D01*
X29397991Y-57133943D01*
X29339254Y-57032208D01*
X29308850Y-56918737D01*
X29308850Y-56801263D01*
X29339254Y-56687792D01*
X29397991Y-56586057D01*
X29481057Y-56502991D01*
X29582792Y-56444254D01*
X29696263Y-56413850D01*
X29755000Y-56410000D01*
X30855000Y-56410000D01*
X30913737Y-56413850D01*
G37*
G36*
X146726422Y-55753587D02*
G01*
X146867689Y-55812101D01*
X146994827Y-55897052D01*
X147102948Y-56005173D01*
X147187899Y-56132311D01*
X147246413Y-56273578D01*
X147276244Y-56423547D01*
X147276244Y-56576453D01*
X147246413Y-56726422D01*
X147187899Y-56867689D01*
X147102948Y-56994827D01*
X146994827Y-57102948D01*
X146867689Y-57187899D01*
X146726422Y-57246413D01*
X146576453Y-57276244D01*
X146423547Y-57276244D01*
X146273578Y-57246413D01*
X146132311Y-57187899D01*
X146005173Y-57102948D01*
X145897052Y-56994827D01*
X145812101Y-56867689D01*
X145753587Y-56726422D01*
X145723756Y-56576453D01*
X145723756Y-56423547D01*
X145753587Y-56273578D01*
X145812101Y-56132311D01*
X145897052Y-56005173D01*
X146005173Y-55897052D01*
X146132311Y-55812101D01*
X146273578Y-55753587D01*
X146423547Y-55723756D01*
X146576453Y-55723756D01*
X146726422Y-55753587D01*
G37*
G36*
X141726422Y-53253587D02*
G01*
X141867689Y-53312101D01*
X141994827Y-53397052D01*
X142102948Y-53505173D01*
X142187899Y-53632311D01*
X142246413Y-53773578D01*
X142276244Y-53923547D01*
X142276244Y-54076453D01*
X142246413Y-54226422D01*
X142187899Y-54367689D01*
X142102948Y-54494827D01*
X141994827Y-54602948D01*
X141867689Y-54687899D01*
X141726422Y-54746413D01*
X141576453Y-54776244D01*
X141423547Y-54776244D01*
X141273578Y-54746413D01*
X141132311Y-54687899D01*
X141005173Y-54602948D01*
X140897052Y-54494827D01*
X140812101Y-54367689D01*
X140753587Y-54226422D01*
X140723756Y-54076453D01*
X140723756Y-53923547D01*
X140753587Y-53773578D01*
X140812101Y-53632311D01*
X140897052Y-53505173D01*
X141005173Y-53397052D01*
X141132311Y-53312101D01*
X141273578Y-53253587D01*
X141423547Y-53223756D01*
X141576453Y-53223756D01*
X141726422Y-53253587D01*
G37*
G36*
X57367714Y-48292295D02*
G01*
X57503548Y-48348559D01*
X57625795Y-48430242D01*
X57729758Y-48534205D01*
X57811441Y-48656452D01*
X57867705Y-48792286D01*
X57896389Y-48936487D01*
X57896389Y-49083513D01*
X57867705Y-49227714D01*
X57811441Y-49363548D01*
X57729758Y-49485795D01*
X57625795Y-49589758D01*
X57503548Y-49671441D01*
X57367714Y-49727705D01*
X57223513Y-49756389D01*
X57076487Y-49756389D01*
X56932286Y-49727705D01*
X56796452Y-49671441D01*
X56674205Y-49589758D01*
X56570242Y-49485795D01*
X56488559Y-49363548D01*
X56432295Y-49227714D01*
X56403611Y-49083513D01*
X56403611Y-48936487D01*
X56432295Y-48792286D01*
X56488559Y-48656452D01*
X56570242Y-48534205D01*
X56674205Y-48430242D01*
X56796452Y-48348559D01*
X56932286Y-48292295D01*
X57076487Y-48263611D01*
X57223513Y-48263611D01*
X57367714Y-48292295D01*
G37*
G36*
X59907714Y-48292295D02*
G01*
X60043548Y-48348559D01*
X60165795Y-48430242D01*
X60269758Y-48534205D01*
X60351441Y-48656452D01*
X60407705Y-48792286D01*
X60436389Y-48936487D01*
X60436389Y-49083513D01*
X60407705Y-49227714D01*
X60351441Y-49363548D01*
X60269758Y-49485795D01*
X60165795Y-49589758D01*
X60043548Y-49671441D01*
X59907714Y-49727705D01*
X59763513Y-49756389D01*
X59616487Y-49756389D01*
X59472286Y-49727705D01*
X59336452Y-49671441D01*
X59214205Y-49589758D01*
X59110242Y-49485795D01*
X59028559Y-49363548D01*
X58972295Y-49227714D01*
X58943611Y-49083513D01*
X58943611Y-48936487D01*
X58972295Y-48792286D01*
X59028559Y-48656452D01*
X59110242Y-48534205D01*
X59214205Y-48430242D01*
X59336452Y-48348559D01*
X59472286Y-48292295D01*
X59616487Y-48263611D01*
X59763513Y-48263611D01*
X59907714Y-48292295D01*
G37*
G36*
X62447714Y-48292295D02*
G01*
X62583548Y-48348559D01*
X62705795Y-48430242D01*
X62809758Y-48534205D01*
X62891441Y-48656452D01*
X62947705Y-48792286D01*
X62976389Y-48936487D01*
X62976389Y-49083513D01*
X62947705Y-49227714D01*
X62891441Y-49363548D01*
X62809758Y-49485795D01*
X62705795Y-49589758D01*
X62583548Y-49671441D01*
X62447714Y-49727705D01*
X62303513Y-49756389D01*
X62156487Y-49756389D01*
X62012286Y-49727705D01*
X61876452Y-49671441D01*
X61754205Y-49589758D01*
X61650242Y-49485795D01*
X61568559Y-49363548D01*
X61512295Y-49227714D01*
X61483611Y-49083513D01*
X61483611Y-48936487D01*
X61512295Y-48792286D01*
X61568559Y-48656452D01*
X61650242Y-48534205D01*
X61754205Y-48430242D01*
X61876452Y-48348559D01*
X62012286Y-48292295D01*
X62156487Y-48263611D01*
X62303513Y-48263611D01*
X62447714Y-48292295D01*
G37*
G36*
X64987714Y-48292295D02*
G01*
X65123548Y-48348559D01*
X65245795Y-48430242D01*
X65349758Y-48534205D01*
X65431441Y-48656452D01*
X65487705Y-48792286D01*
X65516389Y-48936487D01*
X65516389Y-49083513D01*
X65487705Y-49227714D01*
X65431441Y-49363548D01*
X65349758Y-49485795D01*
X65245795Y-49589758D01*
X65123548Y-49671441D01*
X64987714Y-49727705D01*
X64843513Y-49756389D01*
X64696487Y-49756389D01*
X64552286Y-49727705D01*
X64416452Y-49671441D01*
X64294205Y-49589758D01*
X64190242Y-49485795D01*
X64108559Y-49363548D01*
X64052295Y-49227714D01*
X64023611Y-49083513D01*
X64023611Y-48936487D01*
X64052295Y-48792286D01*
X64108559Y-48656452D01*
X64190242Y-48534205D01*
X64294205Y-48430242D01*
X64416452Y-48348559D01*
X64552286Y-48292295D01*
X64696487Y-48263611D01*
X64843513Y-48263611D01*
X64987714Y-48292295D01*
G37*
G36*
X67527714Y-48292295D02*
G01*
X67663548Y-48348559D01*
X67785795Y-48430242D01*
X67889758Y-48534205D01*
X67971441Y-48656452D01*
X68027705Y-48792286D01*
X68056389Y-48936487D01*
X68056389Y-49083513D01*
X68027705Y-49227714D01*
X67971441Y-49363548D01*
X67889758Y-49485795D01*
X67785795Y-49589758D01*
X67663548Y-49671441D01*
X67527714Y-49727705D01*
X67383513Y-49756389D01*
X67236487Y-49756389D01*
X67092286Y-49727705D01*
X66956452Y-49671441D01*
X66834205Y-49589758D01*
X66730242Y-49485795D01*
X66648559Y-49363548D01*
X66592295Y-49227714D01*
X66563611Y-49083513D01*
X66563611Y-48936487D01*
X66592295Y-48792286D01*
X66648559Y-48656452D01*
X66730242Y-48534205D01*
X66834205Y-48430242D01*
X66956452Y-48348559D01*
X67092286Y-48292295D01*
X67236487Y-48263611D01*
X67383513Y-48263611D01*
X67527714Y-48292295D01*
G37*
G36*
X70067714Y-48292295D02*
G01*
X70203548Y-48348559D01*
X70325795Y-48430242D01*
X70429758Y-48534205D01*
X70511441Y-48656452D01*
X70567705Y-48792286D01*
X70596389Y-48936487D01*
X70596389Y-49083513D01*
X70567705Y-49227714D01*
X70511441Y-49363548D01*
X70429758Y-49485795D01*
X70325795Y-49589758D01*
X70203548Y-49671441D01*
X70067714Y-49727705D01*
X69923513Y-49756389D01*
X69776487Y-49756389D01*
X69632286Y-49727705D01*
X69496452Y-49671441D01*
X69374205Y-49589758D01*
X69270242Y-49485795D01*
X69188559Y-49363548D01*
X69132295Y-49227714D01*
X69103611Y-49083513D01*
X69103611Y-48936487D01*
X69132295Y-48792286D01*
X69188559Y-48656452D01*
X69270242Y-48534205D01*
X69374205Y-48430242D01*
X69496452Y-48348559D01*
X69632286Y-48292295D01*
X69776487Y-48263611D01*
X69923513Y-48263611D01*
X70067714Y-48292295D01*
G37*
G36*
X108217714Y-48292295D02*
G01*
X108353548Y-48348559D01*
X108475795Y-48430242D01*
X108579758Y-48534205D01*
X108661441Y-48656452D01*
X108717705Y-48792286D01*
X108746389Y-48936487D01*
X108746389Y-49083513D01*
X108717705Y-49227714D01*
X108661441Y-49363548D01*
X108579758Y-49485795D01*
X108475795Y-49589758D01*
X108353548Y-49671441D01*
X108217714Y-49727705D01*
X108073513Y-49756389D01*
X107926487Y-49756389D01*
X107782286Y-49727705D01*
X107646452Y-49671441D01*
X107524205Y-49589758D01*
X107420242Y-49485795D01*
X107338559Y-49363548D01*
X107282295Y-49227714D01*
X107253611Y-49083513D01*
X107253611Y-48936487D01*
X107282295Y-48792286D01*
X107338559Y-48656452D01*
X107420242Y-48534205D01*
X107524205Y-48430242D01*
X107646452Y-48348559D01*
X107782286Y-48292295D01*
X107926487Y-48263611D01*
X108073513Y-48263611D01*
X108217714Y-48292295D01*
G37*
G36*
X110757714Y-48292295D02*
G01*
X110893548Y-48348559D01*
X111015795Y-48430242D01*
X111119758Y-48534205D01*
X111201441Y-48656452D01*
X111257705Y-48792286D01*
X111286389Y-48936487D01*
X111286389Y-49083513D01*
X111257705Y-49227714D01*
X111201441Y-49363548D01*
X111119758Y-49485795D01*
X111015795Y-49589758D01*
X110893548Y-49671441D01*
X110757714Y-49727705D01*
X110613513Y-49756389D01*
X110466487Y-49756389D01*
X110322286Y-49727705D01*
X110186452Y-49671441D01*
X110064205Y-49589758D01*
X109960242Y-49485795D01*
X109878559Y-49363548D01*
X109822295Y-49227714D01*
X109793611Y-49083513D01*
X109793611Y-48936487D01*
X109822295Y-48792286D01*
X109878559Y-48656452D01*
X109960242Y-48534205D01*
X110064205Y-48430242D01*
X110186452Y-48348559D01*
X110322286Y-48292295D01*
X110466487Y-48263611D01*
X110613513Y-48263611D01*
X110757714Y-48292295D01*
G37*
G36*
X113297714Y-48292295D02*
G01*
X113433548Y-48348559D01*
X113555795Y-48430242D01*
X113659758Y-48534205D01*
X113741441Y-48656452D01*
X113797705Y-48792286D01*
X113826389Y-48936487D01*
X113826389Y-49083513D01*
X113797705Y-49227714D01*
X113741441Y-49363548D01*
X113659758Y-49485795D01*
X113555795Y-49589758D01*
X113433548Y-49671441D01*
X113297714Y-49727705D01*
X113153513Y-49756389D01*
X113006487Y-49756389D01*
X112862286Y-49727705D01*
X112726452Y-49671441D01*
X112604205Y-49589758D01*
X112500242Y-49485795D01*
X112418559Y-49363548D01*
X112362295Y-49227714D01*
X112333611Y-49083513D01*
X112333611Y-48936487D01*
X112362295Y-48792286D01*
X112418559Y-48656452D01*
X112500242Y-48534205D01*
X112604205Y-48430242D01*
X112726452Y-48348559D01*
X112862286Y-48292295D01*
X113006487Y-48263611D01*
X113153513Y-48263611D01*
X113297714Y-48292295D01*
G37*
G36*
X115837714Y-48292295D02*
G01*
X115973548Y-48348559D01*
X116095795Y-48430242D01*
X116199758Y-48534205D01*
X116281441Y-48656452D01*
X116337705Y-48792286D01*
X116366389Y-48936487D01*
X116366389Y-49083513D01*
X116337705Y-49227714D01*
X116281441Y-49363548D01*
X116199758Y-49485795D01*
X116095795Y-49589758D01*
X115973548Y-49671441D01*
X115837714Y-49727705D01*
X115693513Y-49756389D01*
X115546487Y-49756389D01*
X115402286Y-49727705D01*
X115266452Y-49671441D01*
X115144205Y-49589758D01*
X115040242Y-49485795D01*
X114958559Y-49363548D01*
X114902295Y-49227714D01*
X114873611Y-49083513D01*
X114873611Y-48936487D01*
X114902295Y-48792286D01*
X114958559Y-48656452D01*
X115040242Y-48534205D01*
X115144205Y-48430242D01*
X115266452Y-48348559D01*
X115402286Y-48292295D01*
X115546487Y-48263611D01*
X115693513Y-48263611D01*
X115837714Y-48292295D01*
G37*
G36*
X118377714Y-48292295D02*
G01*
X118513548Y-48348559D01*
X118635795Y-48430242D01*
X118739758Y-48534205D01*
X118821441Y-48656452D01*
X118877705Y-48792286D01*
X118906389Y-48936487D01*
X118906389Y-49083513D01*
X118877705Y-49227714D01*
X118821441Y-49363548D01*
X118739758Y-49485795D01*
X118635795Y-49589758D01*
X118513548Y-49671441D01*
X118377714Y-49727705D01*
X118233513Y-49756389D01*
X118086487Y-49756389D01*
X117942286Y-49727705D01*
X117806452Y-49671441D01*
X117684205Y-49589758D01*
X117580242Y-49485795D01*
X117498559Y-49363548D01*
X117442295Y-49227714D01*
X117413611Y-49083513D01*
X117413611Y-48936487D01*
X117442295Y-48792286D01*
X117498559Y-48656452D01*
X117580242Y-48534205D01*
X117684205Y-48430242D01*
X117806452Y-48348559D01*
X117942286Y-48292295D01*
X118086487Y-48263611D01*
X118233513Y-48263611D01*
X118377714Y-48292295D01*
G37*
G36*
X120917714Y-48292295D02*
G01*
X121053548Y-48348559D01*
X121175795Y-48430242D01*
X121279758Y-48534205D01*
X121361441Y-48656452D01*
X121417705Y-48792286D01*
X121446389Y-48936487D01*
X121446389Y-49083513D01*
X121417705Y-49227714D01*
X121361441Y-49363548D01*
X121279758Y-49485795D01*
X121175795Y-49589758D01*
X121053548Y-49671441D01*
X120917714Y-49727705D01*
X120773513Y-49756389D01*
X120626487Y-49756389D01*
X120482286Y-49727705D01*
X120346452Y-49671441D01*
X120224205Y-49589758D01*
X120120242Y-49485795D01*
X120038559Y-49363548D01*
X119982295Y-49227714D01*
X119953611Y-49083513D01*
X119953611Y-48936487D01*
X119982295Y-48792286D01*
X120038559Y-48656452D01*
X120120242Y-48534205D01*
X120224205Y-48430242D01*
X120346452Y-48348559D01*
X120482286Y-48292295D01*
X120626487Y-48263611D01*
X120773513Y-48263611D01*
X120917714Y-48292295D01*
G37*
M02*
