G04 #@! TF.GenerationSoftware,KiCad,Pcbnew,9.0.3*
G04 #@! TF.CreationDate,2025-09-30T21:03:45-04:00*
G04 #@! TF.ProjectId,shiftclock-2.0,73686966-7463-46c6-9f63-6b2d322e302e,rev?*
G04 #@! TF.SameCoordinates,Original*
G04 #@! TF.FileFunction,Copper,L1,Top*
G04 #@! TF.FilePolarity,Positive*
%FSLAX46Y46*%
G04 Gerber Fmt 4.6, Leading zero omitted, Abs format (unit mm)*
G04 Created by KiCad (PCBNEW 9.0.3) date 2025-09-30 21:03:45*
%MOMM*%
%LPD*%
G01*
G04 APERTURE LIST*
G04 #@! TA.AperFunction,ComponentPad*
%ADD10R,1.500000X1.500000*%
G04 #@! TD*
G04 #@! TA.AperFunction,ComponentPad*
%ADD11C,1.500000*%
G04 #@! TD*
G04 #@! TA.AperFunction,ComponentPad*
%ADD12C,2.000000*%
G04 #@! TD*
G04 #@! TA.AperFunction,ComponentPad*
%ADD13R,2.000000X2.000000*%
G04 #@! TD*
G04 #@! TA.AperFunction,ComponentPad*
%ADD14C,2.800000*%
G04 #@! TD*
G04 #@! TA.AperFunction,ComponentPad*
%ADD15R,0.850000X0.850000*%
G04 #@! TD*
G04 #@! TA.AperFunction,ComponentPad*
%ADD16C,0.850000*%
G04 #@! TD*
G04 #@! TA.AperFunction,HeatsinkPad*
%ADD17O,1.700000X0.900000*%
G04 #@! TD*
G04 #@! TA.AperFunction,HeatsinkPad*
%ADD18O,2.000000X0.900000*%
G04 #@! TD*
G04 #@! TA.AperFunction,ViaPad*
%ADD19C,0.600000*%
G04 #@! TD*
G04 #@! TA.AperFunction,Conductor*
%ADD20C,0.127000*%
G04 #@! TD*
G04 #@! TA.AperFunction,Conductor*
%ADD21C,0.152400*%
G04 #@! TD*
G04 APERTURE END LIST*
D10*
X119000000Y-73240000D03*
D11*
X121540000Y-73240000D03*
X124080000Y-73240000D03*
X126620000Y-73240000D03*
X129160000Y-73240000D03*
X131700000Y-73240000D03*
X131700000Y-58000000D03*
X129160000Y-58000000D03*
X126620000Y-58000000D03*
X124080000Y-58000000D03*
X121540000Y-58000000D03*
X119000000Y-58000000D03*
D10*
X67800000Y-73240000D03*
D11*
X70340000Y-73240000D03*
X72880000Y-73240000D03*
X75420000Y-73240000D03*
X77960000Y-73240000D03*
X80500000Y-73240000D03*
X80500000Y-58000000D03*
X77960000Y-58000000D03*
X75420000Y-58000000D03*
X72880000Y-58000000D03*
X70340000Y-58000000D03*
X67800000Y-58000000D03*
D12*
X60000000Y-49750000D03*
X66500000Y-49750000D03*
X60000000Y-54250000D03*
X66500000Y-54250000D03*
X50500000Y-49750000D03*
X57000000Y-49750000D03*
X50500000Y-54250000D03*
X57000000Y-54250000D03*
D13*
X152500000Y-65000000D03*
D12*
X152500000Y-70000000D03*
X152500000Y-67500000D03*
D14*
X160000000Y-61900000D03*
X160000000Y-73100000D03*
D12*
X167000000Y-65000000D03*
X167000000Y-70000000D03*
D15*
X152500000Y-57000000D03*
D16*
X152500000Y-58000000D03*
D12*
X69500000Y-49750000D03*
X76000000Y-49750000D03*
X69500000Y-54250000D03*
X76000000Y-54250000D03*
D17*
X42635000Y-74320000D03*
D18*
X46805000Y-74320000D03*
D17*
X42635000Y-65680000D03*
D18*
X46805000Y-65680000D03*
D19*
X119500000Y-71500000D03*
X133000000Y-63000000D03*
X81000000Y-60500000D03*
X118734171Y-71009500D03*
X122500000Y-62500000D03*
X87378329Y-73072000D03*
X118500000Y-66000000D03*
X119500000Y-65500000D03*
X127000000Y-62500000D03*
X82000000Y-60500000D03*
X95000000Y-63000000D03*
X121403164Y-62596836D03*
X110000000Y-65000000D03*
X134000000Y-63500000D03*
X97500000Y-63500000D03*
X135000000Y-68000000D03*
X110000000Y-67000000D03*
X110000000Y-69000000D03*
X59403164Y-60903164D03*
X82500000Y-69000000D03*
X106000000Y-71000000D03*
X95500000Y-67000000D03*
X68500000Y-63500000D03*
X90492919Y-61993113D03*
X91007086Y-62507083D03*
X70000000Y-63500000D03*
X64000000Y-67000000D03*
X49000000Y-69000000D03*
X49000000Y-70500000D03*
X64000000Y-67905000D03*
X87500000Y-66500000D03*
X86500000Y-69000000D03*
D20*
X133000000Y-63000000D02*
X124000000Y-63000000D01*
X124000000Y-63000000D02*
X122000000Y-61000000D01*
X122000000Y-61000000D02*
X81500000Y-61000000D01*
X81500000Y-61000000D02*
X81000000Y-60500000D01*
X110000000Y-69000000D02*
X111500000Y-70500000D01*
X111500000Y-70500000D02*
X129000000Y-70500000D01*
X129000000Y-70500000D02*
X130500000Y-72000000D01*
X130500000Y-72000000D02*
X153000000Y-72000000D01*
X153000000Y-72000000D02*
X154000000Y-71000000D01*
X154000000Y-71000000D02*
X154000000Y-66500000D01*
X154000000Y-66500000D02*
X152500000Y-65000000D01*
X70000000Y-63500000D02*
X90014069Y-63500000D01*
X90014069Y-63500000D02*
X91006986Y-62507083D01*
X91006986Y-62507083D02*
X91007086Y-62507083D01*
X118000000Y-55500000D02*
X114500000Y-59000000D01*
X81500000Y-59000000D02*
X80500000Y-58000000D01*
X129200000Y-55500000D02*
X118000000Y-55500000D01*
X114500000Y-59000000D02*
X81500000Y-59000000D01*
X131700000Y-58000000D02*
X129200000Y-55500000D01*
X116000000Y-73500000D02*
X89750000Y-73500000D01*
X89750000Y-73500000D02*
X87250000Y-71000000D01*
X72580000Y-71000000D02*
X70340000Y-73240000D01*
X118000000Y-71500000D02*
X116000000Y-73500000D01*
X87250000Y-71000000D02*
X72580000Y-71000000D01*
X119500000Y-71500000D02*
X118000000Y-71500000D01*
X127464500Y-74935500D02*
X129160000Y-73240000D01*
X79655500Y-74935500D02*
X127464500Y-74935500D01*
X77960000Y-73240000D02*
X79655500Y-74935500D01*
X118357000Y-72000000D02*
X122840000Y-72000000D01*
X89500000Y-74000000D02*
X116357000Y-74000000D01*
X87000000Y-71500000D02*
X89500000Y-74000000D01*
X74620000Y-71500000D02*
X87000000Y-71500000D01*
X122840000Y-72000000D02*
X124080000Y-73240000D01*
X116357000Y-74000000D02*
X118357000Y-72000000D01*
X72880000Y-73240000D02*
X74620000Y-71500000D01*
X125360000Y-74500000D02*
X126620000Y-73240000D01*
X76660000Y-72000000D02*
X87000000Y-72000000D01*
X89500000Y-74500000D02*
X125360000Y-74500000D01*
X75420000Y-73240000D02*
X76660000Y-72000000D01*
X87000000Y-72000000D02*
X89500000Y-74500000D01*
X119540000Y-60000000D02*
X72340000Y-60000000D01*
X121540000Y-58000000D02*
X119540000Y-60000000D01*
X72340000Y-60000000D02*
X70340000Y-58000000D01*
X117490500Y-71009500D02*
X118734171Y-71009500D01*
X87500000Y-70500000D02*
X90000000Y-73000000D01*
X70540000Y-70500000D02*
X87500000Y-70500000D01*
X115500000Y-73000000D02*
X117490500Y-71009500D01*
X90000000Y-73000000D02*
X115500000Y-73000000D01*
X67800000Y-73240000D02*
X70540000Y-70500000D01*
X121000000Y-61500000D02*
X122000000Y-62500000D01*
X122000000Y-62500000D02*
X122500000Y-62500000D01*
X71300000Y-61500000D02*
X121000000Y-61500000D01*
X67800000Y-58000000D02*
X71300000Y-61500000D01*
X74380000Y-59500000D02*
X72880000Y-58000000D01*
X122080000Y-56000000D02*
X119000000Y-56000000D01*
X124080000Y-58000000D02*
X122080000Y-56000000D01*
X119000000Y-56000000D02*
X115500000Y-59500000D01*
X115500000Y-59500000D02*
X74380000Y-59500000D01*
X80500000Y-73240000D02*
X87210329Y-73240000D01*
X118500000Y-66000000D02*
X119000000Y-66000000D01*
X119000000Y-66000000D02*
X119500000Y-65500000D01*
X87210329Y-73240000D02*
X87378329Y-73072000D01*
X125000000Y-60500000D02*
X127000000Y-62500000D01*
X82000000Y-60500000D02*
X125000000Y-60500000D01*
X121000000Y-63000000D02*
X95000000Y-63000000D01*
X121403164Y-62596836D02*
X121000000Y-63000000D01*
X110000000Y-65000000D02*
X112500000Y-67500000D01*
X112500000Y-67500000D02*
X150000000Y-67500000D01*
X150000000Y-67500000D02*
X152500000Y-70000000D01*
X134000000Y-63500000D02*
X97500000Y-63500000D01*
X110000000Y-67000000D02*
X111000000Y-68000000D01*
X111000000Y-68000000D02*
X135000000Y-68000000D01*
X67500000Y-69000000D02*
X82500000Y-69000000D01*
X59403164Y-60903164D02*
X67500000Y-69000000D01*
X99500000Y-71000000D02*
X95500000Y-67000000D01*
X106000000Y-71000000D02*
X99500000Y-71000000D01*
X89486032Y-63000000D02*
X69000000Y-63000000D01*
X90492919Y-61993113D02*
X89486032Y-63000000D01*
X69000000Y-63000000D02*
X68500000Y-63500000D01*
D21*
X51000000Y-67000000D02*
X49000000Y-69000000D01*
X64000000Y-67000000D02*
X51000000Y-67000000D01*
X64000000Y-67905000D02*
X51595000Y-67905000D01*
X51595000Y-67905000D02*
X49000000Y-70500000D01*
D20*
X66000000Y-57500000D02*
X66000000Y-63500000D01*
X69000000Y-66500000D02*
X87500000Y-66500000D01*
X66000000Y-63500000D02*
X69000000Y-66500000D01*
X66500000Y-49750000D02*
X64500000Y-51750000D01*
X64500000Y-56000000D02*
X66000000Y-57500000D01*
X64500000Y-51750000D02*
X64500000Y-56000000D01*
X63500000Y-62000000D02*
X63500000Y-55500000D01*
X86500000Y-69000000D02*
X86008500Y-68508500D01*
X86008500Y-68508500D02*
X70008500Y-68508500D01*
X60000000Y-52000000D02*
X59250000Y-52000000D01*
X63500000Y-55500000D02*
X60000000Y-52000000D01*
X59250000Y-52000000D02*
X57000000Y-49750000D01*
X70008500Y-68508500D02*
X63500000Y-62000000D01*
M02*
