%TF.GenerationSoftware,KiCad,Pcbnew,9.0.4*%
%TF.CreationDate,2026-01-25T17:53:03-05:00*%
%TF.ProjectId,shiftclock-4.0,73686966-7463-46c6-9f63-6b2d342e302e,rev?*%
%TF.SameCoordinates,Original*%
%TF.FileFunction,Drillmap*%
%TF.FilePolarity,Positive*%
%FSLAX45Y45*%
G04 Gerber Fmt 4.5, Leading zero omitted, Abs format (unit mm)*
G04 Created by KiCad (PCBNEW 9.0.4) date 2026-01-25 17:53:03*
%MOMM*%
%LPD*%
G01*
G04 APERTURE LIST*
%ADD10C,0.038100*%
%ADD11C,0.200000*%
%ADD12C,0.100000*%
%ADD13C,0.110000*%
%ADD14C,0.220000*%
G04 APERTURE END LIST*
D10*
X2300000Y-3900000D02*
X15495000Y-3900000D01*
X15495000Y-6650000D01*
X2300000Y-6650000D01*
X2300000Y-3900000D01*
D11*
D12*
X3178000Y-5592000D02*
X3208000Y-5622000D01*
X3208000Y-5592000D02*
X3178000Y-5622000D01*
X3178000Y-5928000D02*
X3208000Y-5958000D01*
X3208000Y-5928000D02*
X3178000Y-5958000D01*
X3735000Y-6235000D02*
X3765000Y-6265000D01*
X3765000Y-6235000D02*
X3735000Y-6265000D01*
X3785000Y-6285000D02*
X3815000Y-6315000D01*
X3815000Y-6285000D02*
X3785000Y-6315000D01*
X3785000Y-6414050D02*
X3815000Y-6444050D01*
X3815000Y-6414050D02*
X3785000Y-6444050D01*
X3785000Y-6485000D02*
X3815000Y-6515000D01*
X3815000Y-6485000D02*
X3785000Y-6515000D01*
X4285000Y-5435000D02*
X4315000Y-5465000D01*
X4315000Y-5435000D02*
X4285000Y-5465000D01*
X5478750Y-5928750D02*
X5508750Y-5958750D01*
X5508750Y-5928750D02*
X5478750Y-5958750D01*
X6610000Y-5260000D02*
X6640000Y-5290000D01*
X6640000Y-5260000D02*
X6610000Y-5290000D01*
X6866752Y-5734498D02*
X6896752Y-5764498D01*
X6896752Y-5734498D02*
X6866752Y-5764498D01*
X6916250Y-5685000D02*
X6946250Y-5715000D01*
X6946250Y-5685000D02*
X6916250Y-5715000D01*
X7035000Y-5335000D02*
X7065000Y-5365000D01*
X7065000Y-5335000D02*
X7035000Y-5365000D01*
X7085000Y-6285000D02*
X7115000Y-6315000D01*
X7115000Y-6285000D02*
X7085000Y-6315000D01*
X7135000Y-5035000D02*
X7165000Y-5065000D01*
X7165000Y-5035000D02*
X7135000Y-5065000D01*
X7135000Y-5385000D02*
X7165000Y-5415000D01*
X7165000Y-5385000D02*
X7135000Y-5415000D01*
X7535000Y-5985000D02*
X7565000Y-6015000D01*
X7565000Y-5985000D02*
X7535000Y-6015000D01*
X7635000Y-5985000D02*
X7665000Y-6015000D01*
X7665000Y-5985000D02*
X7635000Y-6015000D01*
X7735000Y-5985000D02*
X7765000Y-6015000D01*
X7765000Y-5985000D02*
X7735000Y-6015000D01*
X8735000Y-5385000D02*
X8765000Y-5415000D01*
X8765000Y-5385000D02*
X8735000Y-5415000D01*
X8885000Y-5635000D02*
X8915000Y-5665000D01*
X8915000Y-5635000D02*
X8885000Y-5665000D01*
X8985000Y-5135000D02*
X9015000Y-5165000D01*
X9015000Y-5135000D02*
X8985000Y-5165000D01*
X10036407Y-5436407D02*
X10066407Y-5466407D01*
X10066407Y-5436407D02*
X10036407Y-5466407D01*
X10085000Y-5185000D02*
X10115000Y-5215000D01*
X10115000Y-5185000D02*
X10085000Y-5215000D01*
X10235000Y-4585000D02*
X10265000Y-4615000D01*
X10265000Y-4585000D02*
X10235000Y-4615000D01*
X10335000Y-4585000D02*
X10365000Y-4615000D01*
X10365000Y-4585000D02*
X10335000Y-4615000D01*
X10435000Y-4585000D02*
X10465000Y-4615000D01*
X10465000Y-4585000D02*
X10435000Y-4615000D01*
X10485000Y-5235000D02*
X10515000Y-5265000D01*
X10515000Y-5235000D02*
X10485000Y-5265000D01*
X10635000Y-4985000D02*
X10665000Y-5015000D01*
X10665000Y-4985000D02*
X10635000Y-5015000D01*
X10635000Y-6035000D02*
X10665000Y-6065000D01*
X10665000Y-6035000D02*
X10635000Y-6065000D01*
X10885000Y-5985000D02*
X10915000Y-6015000D01*
X10915000Y-5985000D02*
X10885000Y-6015000D01*
X11135000Y-5935000D02*
X11165000Y-5965000D01*
X11165000Y-5935000D02*
X11135000Y-5965000D01*
X11185000Y-5385000D02*
X11215000Y-5415000D01*
X11215000Y-5385000D02*
X11185000Y-5415000D01*
X11285000Y-5385000D02*
X11315000Y-5415000D01*
X11315000Y-5385000D02*
X11285000Y-5415000D01*
X11335000Y-5885000D02*
X11365000Y-5915000D01*
X11365000Y-5885000D02*
X11335000Y-5915000D01*
X11435000Y-5835000D02*
X11465000Y-5865000D01*
X11465000Y-5835000D02*
X11435000Y-5865000D01*
X11585000Y-5935457D02*
X11615000Y-5965457D01*
X11615000Y-5935457D02*
X11585000Y-5965457D01*
X11635000Y-5385000D02*
X11665000Y-5415000D01*
X11665000Y-5385000D02*
X11635000Y-5415000D01*
X11685000Y-5935457D02*
X11715000Y-5965457D01*
X11715000Y-5935457D02*
X11685000Y-5965457D01*
X11685000Y-6485000D02*
X11715000Y-6515000D01*
X11715000Y-6485000D02*
X11685000Y-6515000D01*
X11735000Y-5535000D02*
X11765000Y-5565000D01*
X11765000Y-5535000D02*
X11735000Y-5565000D01*
X11935000Y-5735000D02*
X11965000Y-5765000D01*
X11965000Y-5735000D02*
X11935000Y-5765000D01*
X12135000Y-5785000D02*
X12165000Y-5815000D01*
X12165000Y-5785000D02*
X12135000Y-5815000D01*
X12235000Y-5785000D02*
X12265000Y-5815000D01*
X12265000Y-5785000D02*
X12235000Y-5815000D01*
X12235000Y-6135000D02*
X12265000Y-6165000D01*
X12265000Y-6135000D02*
X12235000Y-6165000D01*
X12335000Y-5785000D02*
X12365000Y-5815000D01*
X12365000Y-5785000D02*
X12335000Y-5815000D01*
X13595000Y-4485000D02*
X13625000Y-4515000D01*
X13625000Y-4485000D02*
X13595000Y-4515000D01*
X2643500Y-5686000D02*
G75*
G02*
X2583500Y-5686000I-30000J0D01*
G01*
X2583500Y-5686000D02*
G75*
G02*
X2643500Y-5686000I30000J0D01*
G01*
X2573500Y-5716000D02*
X2653500Y-5716000D01*
X2653500Y-5656000D02*
G75*
G02*
X2653500Y-5716000I0J-30000D01*
G01*
X2653500Y-5656000D02*
X2573500Y-5656000D01*
X2573500Y-5656000D02*
G75*
G03*
X2573500Y-5716000I0J-30000D01*
G01*
X2643500Y-6550000D02*
G75*
G02*
X2583500Y-6550000I-30000J0D01*
G01*
X2583500Y-6550000D02*
G75*
G02*
X2643500Y-6550000I30000J0D01*
G01*
X2573500Y-6580000D02*
X2653500Y-6580000D01*
X2653500Y-6520000D02*
G75*
G02*
X2653500Y-6580000I0J-30000D01*
G01*
X2653500Y-6520000D02*
X2573500Y-6520000D01*
X2573500Y-6520000D02*
G75*
G03*
X2573500Y-6580000I0J-30000D01*
G01*
X3060500Y-5686000D02*
G75*
G02*
X3000500Y-5686000I-30000J0D01*
G01*
X3000500Y-5686000D02*
G75*
G02*
X3060500Y-5686000I30000J0D01*
G01*
X2975500Y-5716000D02*
X3085500Y-5716000D01*
X3085500Y-5656000D02*
G75*
G02*
X3085500Y-5716000I0J-30000D01*
G01*
X3085500Y-5656000D02*
X2975500Y-5656000D01*
X2975500Y-5656000D02*
G75*
G03*
X2975500Y-5716000I0J-30000D01*
G01*
X3060500Y-6550000D02*
G75*
G02*
X3000500Y-6550000I-30000J0D01*
G01*
X3000500Y-6550000D02*
G75*
G02*
X3060500Y-6550000I30000J0D01*
G01*
X2975500Y-6580000D02*
X3085500Y-6580000D01*
X3085500Y-6520000D02*
G75*
G02*
X3085500Y-6580000I0J-30000D01*
G01*
X3085500Y-6520000D02*
X2975500Y-6520000D01*
X2975500Y-6520000D02*
G75*
G03*
X2975500Y-6580000I0J-30000D01*
G01*
X5715000Y-4851000D02*
X5715000Y-4951000D01*
X5665000Y-4901000D02*
X5765000Y-4901000D01*
X5715000Y-6375000D02*
X5715000Y-6475000D01*
X5665000Y-6425000D02*
X5765000Y-6425000D01*
X5969000Y-4851000D02*
X5969000Y-4951000D01*
X5919000Y-4901000D02*
X6019000Y-4901000D01*
X5969000Y-6375000D02*
X5969000Y-6475000D01*
X5919000Y-6425000D02*
X6019000Y-6425000D01*
X6223000Y-4851000D02*
X6223000Y-4951000D01*
X6173000Y-4901000D02*
X6273000Y-4901000D01*
X6223000Y-6375000D02*
X6223000Y-6475000D01*
X6173000Y-6425000D02*
X6273000Y-6425000D01*
X6477000Y-4851000D02*
X6477000Y-4951000D01*
X6427000Y-4901000D02*
X6527000Y-4901000D01*
X6477000Y-6375000D02*
X6477000Y-6475000D01*
X6427000Y-6425000D02*
X6527000Y-6425000D01*
X6731000Y-4851000D02*
X6731000Y-4951000D01*
X6681000Y-4901000D02*
X6781000Y-4901000D01*
X6731000Y-6375000D02*
X6731000Y-6475000D01*
X6681000Y-6425000D02*
X6781000Y-6425000D01*
X6985000Y-4851000D02*
X6985000Y-4951000D01*
X6935000Y-4901000D02*
X7035000Y-4901000D01*
X6985000Y-6375000D02*
X6985000Y-6475000D01*
X6935000Y-6425000D02*
X7035000Y-6425000D01*
X10800000Y-4851000D02*
X10800000Y-4951000D01*
X10750000Y-4901000D02*
X10850000Y-4901000D01*
X10800000Y-6375000D02*
X10800000Y-6475000D01*
X10750000Y-6425000D02*
X10850000Y-6425000D01*
X11054000Y-4851000D02*
X11054000Y-4951000D01*
X11004000Y-4901000D02*
X11104000Y-4901000D01*
X11054000Y-6375000D02*
X11054000Y-6475000D01*
X11004000Y-6425000D02*
X11104000Y-6425000D01*
X11308000Y-4851000D02*
X11308000Y-4951000D01*
X11258000Y-4901000D02*
X11358000Y-4901000D01*
X11308000Y-6375000D02*
X11308000Y-6475000D01*
X11258000Y-6425000D02*
X11358000Y-6425000D01*
X11562000Y-4851000D02*
X11562000Y-4951000D01*
X11512000Y-4901000D02*
X11612000Y-4901000D01*
X11562000Y-6375000D02*
X11562000Y-6475000D01*
X11512000Y-6425000D02*
X11612000Y-6425000D01*
X11816000Y-4851000D02*
X11816000Y-4951000D01*
X11766000Y-4901000D02*
X11866000Y-4901000D01*
X11816000Y-6375000D02*
X11816000Y-6475000D01*
X11766000Y-6425000D02*
X11866000Y-6425000D01*
X12070000Y-4851000D02*
X12070000Y-4951000D01*
X12020000Y-4901000D02*
X12120000Y-4901000D01*
X12070000Y-6375000D02*
X12070000Y-6475000D01*
X12020000Y-6425000D02*
X12120000Y-6425000D01*
X13326000Y-4000000D02*
X13326000Y-4100000D01*
X13276000Y-4050000D02*
X13376000Y-4050000D01*
X13326000Y-4500000D02*
X13326000Y-4600000D01*
X13276000Y-4550000D02*
X13376000Y-4550000D01*
X13826000Y-4250000D02*
X13826000Y-4350000D01*
X13776000Y-4300000D02*
X13876000Y-4300000D01*
X14490000Y-5000000D02*
X14490000Y-5100000D01*
X14440000Y-5050000D02*
X14540000Y-5050000D01*
X14490000Y-6450000D02*
X14490000Y-6550000D01*
X14440000Y-6500000D02*
X14540000Y-6500000D01*
X14740000Y-5000000D02*
X14740000Y-5100000D01*
X14690000Y-5050000D02*
X14790000Y-5050000D01*
X14990000Y-5000000D02*
X14990000Y-5100000D01*
X14940000Y-5050000D02*
X15040000Y-5050000D01*
X14990000Y-6450000D02*
X14990000Y-6550000D01*
X14940000Y-6500000D02*
X15040000Y-6500000D01*
D13*
X2513891Y-4113891D02*
X2513891Y-4036109D01*
X2436109Y-4036109D01*
X2436109Y-4113891D01*
X2513891Y-4113891D01*
X2513891Y-4563891D02*
X2513891Y-4486109D01*
X2436109Y-4486109D01*
X2436109Y-4563891D01*
X2513891Y-4563891D01*
X3163891Y-4113891D02*
X3163891Y-4036109D01*
X3086109Y-4036109D01*
X3086109Y-4113891D01*
X3163891Y-4113891D01*
X3163891Y-4563891D02*
X3163891Y-4486109D01*
X3086109Y-4486109D01*
X3086109Y-4563891D01*
X3163891Y-4563891D01*
X3463891Y-4113891D02*
X3463891Y-4036109D01*
X3386109Y-4036109D01*
X3386109Y-4113891D01*
X3463891Y-4113891D01*
X3463891Y-4563891D02*
X3463891Y-4486109D01*
X3386109Y-4486109D01*
X3386109Y-4563891D01*
X3463891Y-4563891D01*
X4113891Y-4113891D02*
X4113891Y-4036109D01*
X4036109Y-4036109D01*
X4036109Y-4113891D01*
X4113891Y-4113891D01*
X4113891Y-4563891D02*
X4113891Y-4486109D01*
X4036109Y-4486109D01*
X4036109Y-4563891D01*
X4113891Y-4563891D01*
X4413891Y-4113891D02*
X4413891Y-4036109D01*
X4336109Y-4036109D01*
X4336109Y-4113891D01*
X4413891Y-4113891D01*
X4413891Y-4563891D02*
X4413891Y-4486109D01*
X4336109Y-4486109D01*
X4336109Y-4563891D01*
X4413891Y-4563891D01*
X5063891Y-4113891D02*
X5063891Y-4036109D01*
X4986109Y-4036109D01*
X4986109Y-4113891D01*
X5063891Y-4113891D01*
X5063891Y-4563891D02*
X5063891Y-4486109D01*
X4986109Y-4486109D01*
X4986109Y-4563891D01*
X5063891Y-4563891D01*
D14*
X14180000Y-5910000D02*
X14290000Y-5800000D01*
X14180000Y-5690000D01*
X14070000Y-5800000D01*
X14180000Y-5910000D01*
X15300000Y-5910000D02*
X15410000Y-5800000D01*
X15300000Y-5690000D01*
X15190000Y-5800000D01*
X15300000Y-5910000D01*
D11*
X2558872Y-6963389D02*
X2558872Y-6763389D01*
X2558872Y-6763389D02*
X2606491Y-6763389D01*
X2606491Y-6763389D02*
X2635062Y-6772913D01*
X2635062Y-6772913D02*
X2654110Y-6791960D01*
X2654110Y-6791960D02*
X2663634Y-6811008D01*
X2663634Y-6811008D02*
X2673158Y-6849103D01*
X2673158Y-6849103D02*
X2673158Y-6877674D01*
X2673158Y-6877674D02*
X2663634Y-6915770D01*
X2663634Y-6915770D02*
X2654110Y-6934817D01*
X2654110Y-6934817D02*
X2635062Y-6953865D01*
X2635062Y-6953865D02*
X2606491Y-6963389D01*
X2606491Y-6963389D02*
X2558872Y-6963389D01*
X2758872Y-6963389D02*
X2758872Y-6830055D01*
X2758872Y-6868151D02*
X2768396Y-6849103D01*
X2768396Y-6849103D02*
X2777919Y-6839579D01*
X2777919Y-6839579D02*
X2796967Y-6830055D01*
X2796967Y-6830055D02*
X2816015Y-6830055D01*
X2882681Y-6963389D02*
X2882681Y-6830055D01*
X2882681Y-6763389D02*
X2873157Y-6772913D01*
X2873157Y-6772913D02*
X2882681Y-6782436D01*
X2882681Y-6782436D02*
X2892205Y-6772913D01*
X2892205Y-6772913D02*
X2882681Y-6763389D01*
X2882681Y-6763389D02*
X2882681Y-6782436D01*
X3006491Y-6963389D02*
X2987443Y-6953865D01*
X2987443Y-6953865D02*
X2977919Y-6934817D01*
X2977919Y-6934817D02*
X2977919Y-6763389D01*
X3111253Y-6963389D02*
X3092205Y-6953865D01*
X3092205Y-6953865D02*
X3082681Y-6934817D01*
X3082681Y-6934817D02*
X3082681Y-6763389D01*
X3339824Y-6963389D02*
X3339824Y-6763389D01*
X3339824Y-6763389D02*
X3406491Y-6906246D01*
X3406491Y-6906246D02*
X3473157Y-6763389D01*
X3473157Y-6763389D02*
X3473157Y-6963389D01*
X3654110Y-6963389D02*
X3654110Y-6858627D01*
X3654110Y-6858627D02*
X3644586Y-6839579D01*
X3644586Y-6839579D02*
X3625538Y-6830055D01*
X3625538Y-6830055D02*
X3587443Y-6830055D01*
X3587443Y-6830055D02*
X3568396Y-6839579D01*
X3654110Y-6953865D02*
X3635062Y-6963389D01*
X3635062Y-6963389D02*
X3587443Y-6963389D01*
X3587443Y-6963389D02*
X3568396Y-6953865D01*
X3568396Y-6953865D02*
X3558872Y-6934817D01*
X3558872Y-6934817D02*
X3558872Y-6915770D01*
X3558872Y-6915770D02*
X3568396Y-6896722D01*
X3568396Y-6896722D02*
X3587443Y-6887198D01*
X3587443Y-6887198D02*
X3635062Y-6887198D01*
X3635062Y-6887198D02*
X3654110Y-6877674D01*
X3749348Y-6830055D02*
X3749348Y-7030055D01*
X3749348Y-6839579D02*
X3768396Y-6830055D01*
X3768396Y-6830055D02*
X3806491Y-6830055D01*
X3806491Y-6830055D02*
X3825538Y-6839579D01*
X3825538Y-6839579D02*
X3835062Y-6849103D01*
X3835062Y-6849103D02*
X3844586Y-6868151D01*
X3844586Y-6868151D02*
X3844586Y-6925293D01*
X3844586Y-6925293D02*
X3835062Y-6944341D01*
X3835062Y-6944341D02*
X3825538Y-6953865D01*
X3825538Y-6953865D02*
X3806491Y-6963389D01*
X3806491Y-6963389D02*
X3768396Y-6963389D01*
X3768396Y-6963389D02*
X3749348Y-6953865D01*
X3930300Y-6944341D02*
X3939824Y-6953865D01*
X3939824Y-6953865D02*
X3930300Y-6963389D01*
X3930300Y-6963389D02*
X3920777Y-6953865D01*
X3920777Y-6953865D02*
X3930300Y-6944341D01*
X3930300Y-6944341D02*
X3930300Y-6963389D01*
X3930300Y-6839579D02*
X3939824Y-6849103D01*
X3939824Y-6849103D02*
X3930300Y-6858627D01*
X3930300Y-6858627D02*
X3920777Y-6849103D01*
X3920777Y-6849103D02*
X3930300Y-6839579D01*
X3930300Y-6839579D02*
X3930300Y-6858627D01*
D12*
X2268095Y-7276905D02*
X2298095Y-7306905D01*
X2298095Y-7276905D02*
X2268095Y-7306905D01*
D11*
X2596967Y-7183389D02*
X2616015Y-7183389D01*
X2616015Y-7183389D02*
X2635062Y-7192913D01*
X2635062Y-7192913D02*
X2644586Y-7202436D01*
X2644586Y-7202436D02*
X2654110Y-7221484D01*
X2654110Y-7221484D02*
X2663634Y-7259579D01*
X2663634Y-7259579D02*
X2663634Y-7307198D01*
X2663634Y-7307198D02*
X2654110Y-7345293D01*
X2654110Y-7345293D02*
X2644586Y-7364341D01*
X2644586Y-7364341D02*
X2635062Y-7373865D01*
X2635062Y-7373865D02*
X2616015Y-7383389D01*
X2616015Y-7383389D02*
X2596967Y-7383389D01*
X2596967Y-7383389D02*
X2577919Y-7373865D01*
X2577919Y-7373865D02*
X2568396Y-7364341D01*
X2568396Y-7364341D02*
X2558872Y-7345293D01*
X2558872Y-7345293D02*
X2549348Y-7307198D01*
X2549348Y-7307198D02*
X2549348Y-7259579D01*
X2549348Y-7259579D02*
X2558872Y-7221484D01*
X2558872Y-7221484D02*
X2568396Y-7202436D01*
X2568396Y-7202436D02*
X2577919Y-7192913D01*
X2577919Y-7192913D02*
X2596967Y-7183389D01*
X2749348Y-7364341D02*
X2758872Y-7373865D01*
X2758872Y-7373865D02*
X2749348Y-7383389D01*
X2749348Y-7383389D02*
X2739824Y-7373865D01*
X2739824Y-7373865D02*
X2749348Y-7364341D01*
X2749348Y-7364341D02*
X2749348Y-7383389D01*
X2825538Y-7183389D02*
X2949348Y-7183389D01*
X2949348Y-7183389D02*
X2882681Y-7259579D01*
X2882681Y-7259579D02*
X2911253Y-7259579D01*
X2911253Y-7259579D02*
X2930300Y-7269103D01*
X2930300Y-7269103D02*
X2939824Y-7278627D01*
X2939824Y-7278627D02*
X2949348Y-7297674D01*
X2949348Y-7297674D02*
X2949348Y-7345293D01*
X2949348Y-7345293D02*
X2939824Y-7364341D01*
X2939824Y-7364341D02*
X2930300Y-7373865D01*
X2930300Y-7373865D02*
X2911253Y-7383389D01*
X2911253Y-7383389D02*
X2854110Y-7383389D01*
X2854110Y-7383389D02*
X2835062Y-7373865D01*
X2835062Y-7373865D02*
X2825538Y-7364341D01*
X3073157Y-7183389D02*
X3092205Y-7183389D01*
X3092205Y-7183389D02*
X3111253Y-7192913D01*
X3111253Y-7192913D02*
X3120777Y-7202436D01*
X3120777Y-7202436D02*
X3130300Y-7221484D01*
X3130300Y-7221484D02*
X3139824Y-7259579D01*
X3139824Y-7259579D02*
X3139824Y-7307198D01*
X3139824Y-7307198D02*
X3130300Y-7345293D01*
X3130300Y-7345293D02*
X3120777Y-7364341D01*
X3120777Y-7364341D02*
X3111253Y-7373865D01*
X3111253Y-7373865D02*
X3092205Y-7383389D01*
X3092205Y-7383389D02*
X3073157Y-7383389D01*
X3073157Y-7383389D02*
X3054110Y-7373865D01*
X3054110Y-7373865D02*
X3044586Y-7364341D01*
X3044586Y-7364341D02*
X3035062Y-7345293D01*
X3035062Y-7345293D02*
X3025538Y-7307198D01*
X3025538Y-7307198D02*
X3025538Y-7259579D01*
X3025538Y-7259579D02*
X3035062Y-7221484D01*
X3035062Y-7221484D02*
X3044586Y-7202436D01*
X3044586Y-7202436D02*
X3054110Y-7192913D01*
X3054110Y-7192913D02*
X3073157Y-7183389D01*
X3263634Y-7183389D02*
X3282681Y-7183389D01*
X3282681Y-7183389D02*
X3301729Y-7192913D01*
X3301729Y-7192913D02*
X3311253Y-7202436D01*
X3311253Y-7202436D02*
X3320777Y-7221484D01*
X3320777Y-7221484D02*
X3330300Y-7259579D01*
X3330300Y-7259579D02*
X3330300Y-7307198D01*
X3330300Y-7307198D02*
X3320777Y-7345293D01*
X3320777Y-7345293D02*
X3311253Y-7364341D01*
X3311253Y-7364341D02*
X3301729Y-7373865D01*
X3301729Y-7373865D02*
X3282681Y-7383389D01*
X3282681Y-7383389D02*
X3263634Y-7383389D01*
X3263634Y-7383389D02*
X3244586Y-7373865D01*
X3244586Y-7373865D02*
X3235062Y-7364341D01*
X3235062Y-7364341D02*
X3225538Y-7345293D01*
X3225538Y-7345293D02*
X3216015Y-7307198D01*
X3216015Y-7307198D02*
X3216015Y-7259579D01*
X3216015Y-7259579D02*
X3225538Y-7221484D01*
X3225538Y-7221484D02*
X3235062Y-7202436D01*
X3235062Y-7202436D02*
X3244586Y-7192913D01*
X3244586Y-7192913D02*
X3263634Y-7183389D01*
X3416015Y-7383389D02*
X3416015Y-7250055D01*
X3416015Y-7269103D02*
X3425538Y-7259579D01*
X3425538Y-7259579D02*
X3444586Y-7250055D01*
X3444586Y-7250055D02*
X3473158Y-7250055D01*
X3473158Y-7250055D02*
X3492205Y-7259579D01*
X3492205Y-7259579D02*
X3501729Y-7278627D01*
X3501729Y-7278627D02*
X3501729Y-7383389D01*
X3501729Y-7278627D02*
X3511253Y-7259579D01*
X3511253Y-7259579D02*
X3530300Y-7250055D01*
X3530300Y-7250055D02*
X3558872Y-7250055D01*
X3558872Y-7250055D02*
X3577919Y-7259579D01*
X3577919Y-7259579D02*
X3587443Y-7278627D01*
X3587443Y-7278627D02*
X3587443Y-7383389D01*
X3682681Y-7383389D02*
X3682681Y-7250055D01*
X3682681Y-7269103D02*
X3692205Y-7259579D01*
X3692205Y-7259579D02*
X3711253Y-7250055D01*
X3711253Y-7250055D02*
X3739824Y-7250055D01*
X3739824Y-7250055D02*
X3758872Y-7259579D01*
X3758872Y-7259579D02*
X3768396Y-7278627D01*
X3768396Y-7278627D02*
X3768396Y-7383389D01*
X3768396Y-7278627D02*
X3777919Y-7259579D01*
X3777919Y-7259579D02*
X3796967Y-7250055D01*
X3796967Y-7250055D02*
X3825538Y-7250055D01*
X3825538Y-7250055D02*
X3844586Y-7259579D01*
X3844586Y-7259579D02*
X3854110Y-7278627D01*
X3854110Y-7278627D02*
X3854110Y-7383389D01*
X4244586Y-7173865D02*
X4073158Y-7431008D01*
X4501729Y-7183389D02*
X4520777Y-7183389D01*
X4520777Y-7183389D02*
X4539824Y-7192913D01*
X4539824Y-7192913D02*
X4549348Y-7202436D01*
X4549348Y-7202436D02*
X4558872Y-7221484D01*
X4558872Y-7221484D02*
X4568396Y-7259579D01*
X4568396Y-7259579D02*
X4568396Y-7307198D01*
X4568396Y-7307198D02*
X4558872Y-7345293D01*
X4558872Y-7345293D02*
X4549348Y-7364341D01*
X4549348Y-7364341D02*
X4539824Y-7373865D01*
X4539824Y-7373865D02*
X4520777Y-7383389D01*
X4520777Y-7383389D02*
X4501729Y-7383389D01*
X4501729Y-7383389D02*
X4482682Y-7373865D01*
X4482682Y-7373865D02*
X4473158Y-7364341D01*
X4473158Y-7364341D02*
X4463634Y-7345293D01*
X4463634Y-7345293D02*
X4454110Y-7307198D01*
X4454110Y-7307198D02*
X4454110Y-7259579D01*
X4454110Y-7259579D02*
X4463634Y-7221484D01*
X4463634Y-7221484D02*
X4473158Y-7202436D01*
X4473158Y-7202436D02*
X4482682Y-7192913D01*
X4482682Y-7192913D02*
X4501729Y-7183389D01*
X4654110Y-7364341D02*
X4663634Y-7373865D01*
X4663634Y-7373865D02*
X4654110Y-7383389D01*
X4654110Y-7383389D02*
X4644586Y-7373865D01*
X4644586Y-7373865D02*
X4654110Y-7364341D01*
X4654110Y-7364341D02*
X4654110Y-7383389D01*
X4787443Y-7183389D02*
X4806491Y-7183389D01*
X4806491Y-7183389D02*
X4825539Y-7192913D01*
X4825539Y-7192913D02*
X4835063Y-7202436D01*
X4835063Y-7202436D02*
X4844586Y-7221484D01*
X4844586Y-7221484D02*
X4854110Y-7259579D01*
X4854110Y-7259579D02*
X4854110Y-7307198D01*
X4854110Y-7307198D02*
X4844586Y-7345293D01*
X4844586Y-7345293D02*
X4835063Y-7364341D01*
X4835063Y-7364341D02*
X4825539Y-7373865D01*
X4825539Y-7373865D02*
X4806491Y-7383389D01*
X4806491Y-7383389D02*
X4787443Y-7383389D01*
X4787443Y-7383389D02*
X4768396Y-7373865D01*
X4768396Y-7373865D02*
X4758872Y-7364341D01*
X4758872Y-7364341D02*
X4749348Y-7345293D01*
X4749348Y-7345293D02*
X4739824Y-7307198D01*
X4739824Y-7307198D02*
X4739824Y-7259579D01*
X4739824Y-7259579D02*
X4749348Y-7221484D01*
X4749348Y-7221484D02*
X4758872Y-7202436D01*
X4758872Y-7202436D02*
X4768396Y-7192913D01*
X4768396Y-7192913D02*
X4787443Y-7183389D01*
X5044586Y-7383389D02*
X4930301Y-7383389D01*
X4987443Y-7383389D02*
X4987443Y-7183389D01*
X4987443Y-7183389D02*
X4968396Y-7211960D01*
X4968396Y-7211960D02*
X4949348Y-7231008D01*
X4949348Y-7231008D02*
X4930301Y-7240532D01*
X5235063Y-7383389D02*
X5120777Y-7383389D01*
X5177920Y-7383389D02*
X5177920Y-7183389D01*
X5177920Y-7183389D02*
X5158872Y-7211960D01*
X5158872Y-7211960D02*
X5139824Y-7231008D01*
X5139824Y-7231008D02*
X5120777Y-7240532D01*
X5349348Y-7269103D02*
X5330301Y-7259579D01*
X5330301Y-7259579D02*
X5320777Y-7250055D01*
X5320777Y-7250055D02*
X5311253Y-7231008D01*
X5311253Y-7231008D02*
X5311253Y-7221484D01*
X5311253Y-7221484D02*
X5320777Y-7202436D01*
X5320777Y-7202436D02*
X5330301Y-7192913D01*
X5330301Y-7192913D02*
X5349348Y-7183389D01*
X5349348Y-7183389D02*
X5387444Y-7183389D01*
X5387444Y-7183389D02*
X5406491Y-7192913D01*
X5406491Y-7192913D02*
X5416015Y-7202436D01*
X5416015Y-7202436D02*
X5425539Y-7221484D01*
X5425539Y-7221484D02*
X5425539Y-7231008D01*
X5425539Y-7231008D02*
X5416015Y-7250055D01*
X5416015Y-7250055D02*
X5406491Y-7259579D01*
X5406491Y-7259579D02*
X5387444Y-7269103D01*
X5387444Y-7269103D02*
X5349348Y-7269103D01*
X5349348Y-7269103D02*
X5330301Y-7278627D01*
X5330301Y-7278627D02*
X5320777Y-7288151D01*
X5320777Y-7288151D02*
X5311253Y-7307198D01*
X5311253Y-7307198D02*
X5311253Y-7345293D01*
X5311253Y-7345293D02*
X5320777Y-7364341D01*
X5320777Y-7364341D02*
X5330301Y-7373865D01*
X5330301Y-7373865D02*
X5349348Y-7383389D01*
X5349348Y-7383389D02*
X5387444Y-7383389D01*
X5387444Y-7383389D02*
X5406491Y-7373865D01*
X5406491Y-7373865D02*
X5416015Y-7364341D01*
X5416015Y-7364341D02*
X5425539Y-7345293D01*
X5425539Y-7345293D02*
X5425539Y-7307198D01*
X5425539Y-7307198D02*
X5416015Y-7288151D01*
X5416015Y-7288151D02*
X5406491Y-7278627D01*
X5406491Y-7278627D02*
X5387444Y-7269103D01*
X5501729Y-7183389D02*
X5501729Y-7221484D01*
X5577920Y-7183389D02*
X5577920Y-7221484D01*
X5873158Y-7459579D02*
X5863634Y-7450055D01*
X5863634Y-7450055D02*
X5844586Y-7421484D01*
X5844586Y-7421484D02*
X5835063Y-7402436D01*
X5835063Y-7402436D02*
X5825539Y-7373865D01*
X5825539Y-7373865D02*
X5816015Y-7326246D01*
X5816015Y-7326246D02*
X5816015Y-7288151D01*
X5816015Y-7288151D02*
X5825539Y-7240532D01*
X5825539Y-7240532D02*
X5835063Y-7211960D01*
X5835063Y-7211960D02*
X5844586Y-7192913D01*
X5844586Y-7192913D02*
X5863634Y-7164341D01*
X5863634Y-7164341D02*
X5873158Y-7154817D01*
X6035063Y-7250055D02*
X6035063Y-7383389D01*
X5987443Y-7173865D02*
X5939824Y-7316722D01*
X5939824Y-7316722D02*
X6063634Y-7316722D01*
X6225539Y-7183389D02*
X6187443Y-7183389D01*
X6187443Y-7183389D02*
X6168396Y-7192913D01*
X6168396Y-7192913D02*
X6158872Y-7202436D01*
X6158872Y-7202436D02*
X6139824Y-7231008D01*
X6139824Y-7231008D02*
X6130301Y-7269103D01*
X6130301Y-7269103D02*
X6130301Y-7345293D01*
X6130301Y-7345293D02*
X6139824Y-7364341D01*
X6139824Y-7364341D02*
X6149348Y-7373865D01*
X6149348Y-7373865D02*
X6168396Y-7383389D01*
X6168396Y-7383389D02*
X6206491Y-7383389D01*
X6206491Y-7383389D02*
X6225539Y-7373865D01*
X6225539Y-7373865D02*
X6235063Y-7364341D01*
X6235063Y-7364341D02*
X6244586Y-7345293D01*
X6244586Y-7345293D02*
X6244586Y-7297674D01*
X6244586Y-7297674D02*
X6235063Y-7278627D01*
X6235063Y-7278627D02*
X6225539Y-7269103D01*
X6225539Y-7269103D02*
X6206491Y-7259579D01*
X6206491Y-7259579D02*
X6168396Y-7259579D01*
X6168396Y-7259579D02*
X6149348Y-7269103D01*
X6149348Y-7269103D02*
X6139824Y-7278627D01*
X6139824Y-7278627D02*
X6130301Y-7297674D01*
X6482682Y-7383389D02*
X6482682Y-7183389D01*
X6568396Y-7383389D02*
X6568396Y-7278627D01*
X6568396Y-7278627D02*
X6558872Y-7259579D01*
X6558872Y-7259579D02*
X6539825Y-7250055D01*
X6539825Y-7250055D02*
X6511253Y-7250055D01*
X6511253Y-7250055D02*
X6492205Y-7259579D01*
X6492205Y-7259579D02*
X6482682Y-7269103D01*
X6692205Y-7383389D02*
X6673158Y-7373865D01*
X6673158Y-7373865D02*
X6663634Y-7364341D01*
X6663634Y-7364341D02*
X6654110Y-7345293D01*
X6654110Y-7345293D02*
X6654110Y-7288151D01*
X6654110Y-7288151D02*
X6663634Y-7269103D01*
X6663634Y-7269103D02*
X6673158Y-7259579D01*
X6673158Y-7259579D02*
X6692205Y-7250055D01*
X6692205Y-7250055D02*
X6720777Y-7250055D01*
X6720777Y-7250055D02*
X6739825Y-7259579D01*
X6739825Y-7259579D02*
X6749348Y-7269103D01*
X6749348Y-7269103D02*
X6758872Y-7288151D01*
X6758872Y-7288151D02*
X6758872Y-7345293D01*
X6758872Y-7345293D02*
X6749348Y-7364341D01*
X6749348Y-7364341D02*
X6739825Y-7373865D01*
X6739825Y-7373865D02*
X6720777Y-7383389D01*
X6720777Y-7383389D02*
X6692205Y-7383389D01*
X6873158Y-7383389D02*
X6854110Y-7373865D01*
X6854110Y-7373865D02*
X6844586Y-7354817D01*
X6844586Y-7354817D02*
X6844586Y-7183389D01*
X7025539Y-7373865D02*
X7006491Y-7383389D01*
X7006491Y-7383389D02*
X6968396Y-7383389D01*
X6968396Y-7383389D02*
X6949348Y-7373865D01*
X6949348Y-7373865D02*
X6939825Y-7354817D01*
X6939825Y-7354817D02*
X6939825Y-7278627D01*
X6939825Y-7278627D02*
X6949348Y-7259579D01*
X6949348Y-7259579D02*
X6968396Y-7250055D01*
X6968396Y-7250055D02*
X7006491Y-7250055D01*
X7006491Y-7250055D02*
X7025539Y-7259579D01*
X7025539Y-7259579D02*
X7035063Y-7278627D01*
X7035063Y-7278627D02*
X7035063Y-7297674D01*
X7035063Y-7297674D02*
X6939825Y-7316722D01*
X7111253Y-7373865D02*
X7130301Y-7383389D01*
X7130301Y-7383389D02*
X7168396Y-7383389D01*
X7168396Y-7383389D02*
X7187444Y-7373865D01*
X7187444Y-7373865D02*
X7196967Y-7354817D01*
X7196967Y-7354817D02*
X7196967Y-7345293D01*
X7196967Y-7345293D02*
X7187444Y-7326246D01*
X7187444Y-7326246D02*
X7168396Y-7316722D01*
X7168396Y-7316722D02*
X7139825Y-7316722D01*
X7139825Y-7316722D02*
X7120777Y-7307198D01*
X7120777Y-7307198D02*
X7111253Y-7288151D01*
X7111253Y-7288151D02*
X7111253Y-7278627D01*
X7111253Y-7278627D02*
X7120777Y-7259579D01*
X7120777Y-7259579D02*
X7139825Y-7250055D01*
X7139825Y-7250055D02*
X7168396Y-7250055D01*
X7168396Y-7250055D02*
X7187444Y-7259579D01*
X7263634Y-7459579D02*
X7273158Y-7450055D01*
X7273158Y-7450055D02*
X7292206Y-7421484D01*
X7292206Y-7421484D02*
X7301729Y-7402436D01*
X7301729Y-7402436D02*
X7311253Y-7373865D01*
X7311253Y-7373865D02*
X7320777Y-7326246D01*
X7320777Y-7326246D02*
X7320777Y-7288151D01*
X7320777Y-7288151D02*
X7311253Y-7240532D01*
X7311253Y-7240532D02*
X7301729Y-7211960D01*
X7301729Y-7211960D02*
X7292206Y-7192913D01*
X7292206Y-7192913D02*
X7273158Y-7164341D01*
X7273158Y-7164341D02*
X7263634Y-7154817D01*
D12*
X2298095Y-7555905D02*
G75*
G02*
X2238095Y-7555905I-30000J0D01*
G01*
X2238095Y-7555905D02*
G75*
G02*
X2298095Y-7555905I30000J0D01*
G01*
D11*
X2596967Y-7447389D02*
X2616015Y-7447389D01*
X2616015Y-7447389D02*
X2635062Y-7456913D01*
X2635062Y-7456913D02*
X2644586Y-7466436D01*
X2644586Y-7466436D02*
X2654110Y-7485484D01*
X2654110Y-7485484D02*
X2663634Y-7523579D01*
X2663634Y-7523579D02*
X2663634Y-7571198D01*
X2663634Y-7571198D02*
X2654110Y-7609293D01*
X2654110Y-7609293D02*
X2644586Y-7628341D01*
X2644586Y-7628341D02*
X2635062Y-7637865D01*
X2635062Y-7637865D02*
X2616015Y-7647389D01*
X2616015Y-7647389D02*
X2596967Y-7647389D01*
X2596967Y-7647389D02*
X2577919Y-7637865D01*
X2577919Y-7637865D02*
X2568396Y-7628341D01*
X2568396Y-7628341D02*
X2558872Y-7609293D01*
X2558872Y-7609293D02*
X2549348Y-7571198D01*
X2549348Y-7571198D02*
X2549348Y-7523579D01*
X2549348Y-7523579D02*
X2558872Y-7485484D01*
X2558872Y-7485484D02*
X2568396Y-7466436D01*
X2568396Y-7466436D02*
X2577919Y-7456913D01*
X2577919Y-7456913D02*
X2596967Y-7447389D01*
X2749348Y-7628341D02*
X2758872Y-7637865D01*
X2758872Y-7637865D02*
X2749348Y-7647389D01*
X2749348Y-7647389D02*
X2739824Y-7637865D01*
X2739824Y-7637865D02*
X2749348Y-7628341D01*
X2749348Y-7628341D02*
X2749348Y-7647389D01*
X2930300Y-7447389D02*
X2892205Y-7447389D01*
X2892205Y-7447389D02*
X2873157Y-7456913D01*
X2873157Y-7456913D02*
X2863634Y-7466436D01*
X2863634Y-7466436D02*
X2844586Y-7495008D01*
X2844586Y-7495008D02*
X2835062Y-7533103D01*
X2835062Y-7533103D02*
X2835062Y-7609293D01*
X2835062Y-7609293D02*
X2844586Y-7628341D01*
X2844586Y-7628341D02*
X2854110Y-7637865D01*
X2854110Y-7637865D02*
X2873157Y-7647389D01*
X2873157Y-7647389D02*
X2911253Y-7647389D01*
X2911253Y-7647389D02*
X2930300Y-7637865D01*
X2930300Y-7637865D02*
X2939824Y-7628341D01*
X2939824Y-7628341D02*
X2949348Y-7609293D01*
X2949348Y-7609293D02*
X2949348Y-7561674D01*
X2949348Y-7561674D02*
X2939824Y-7542627D01*
X2939824Y-7542627D02*
X2930300Y-7533103D01*
X2930300Y-7533103D02*
X2911253Y-7523579D01*
X2911253Y-7523579D02*
X2873157Y-7523579D01*
X2873157Y-7523579D02*
X2854110Y-7533103D01*
X2854110Y-7533103D02*
X2844586Y-7542627D01*
X2844586Y-7542627D02*
X2835062Y-7561674D01*
X3073157Y-7447389D02*
X3092205Y-7447389D01*
X3092205Y-7447389D02*
X3111253Y-7456913D01*
X3111253Y-7456913D02*
X3120777Y-7466436D01*
X3120777Y-7466436D02*
X3130300Y-7485484D01*
X3130300Y-7485484D02*
X3139824Y-7523579D01*
X3139824Y-7523579D02*
X3139824Y-7571198D01*
X3139824Y-7571198D02*
X3130300Y-7609293D01*
X3130300Y-7609293D02*
X3120777Y-7628341D01*
X3120777Y-7628341D02*
X3111253Y-7637865D01*
X3111253Y-7637865D02*
X3092205Y-7647389D01*
X3092205Y-7647389D02*
X3073157Y-7647389D01*
X3073157Y-7647389D02*
X3054110Y-7637865D01*
X3054110Y-7637865D02*
X3044586Y-7628341D01*
X3044586Y-7628341D02*
X3035062Y-7609293D01*
X3035062Y-7609293D02*
X3025538Y-7571198D01*
X3025538Y-7571198D02*
X3025538Y-7523579D01*
X3025538Y-7523579D02*
X3035062Y-7485484D01*
X3035062Y-7485484D02*
X3044586Y-7466436D01*
X3044586Y-7466436D02*
X3054110Y-7456913D01*
X3054110Y-7456913D02*
X3073157Y-7447389D01*
X3263634Y-7447389D02*
X3282681Y-7447389D01*
X3282681Y-7447389D02*
X3301729Y-7456913D01*
X3301729Y-7456913D02*
X3311253Y-7466436D01*
X3311253Y-7466436D02*
X3320777Y-7485484D01*
X3320777Y-7485484D02*
X3330300Y-7523579D01*
X3330300Y-7523579D02*
X3330300Y-7571198D01*
X3330300Y-7571198D02*
X3320777Y-7609293D01*
X3320777Y-7609293D02*
X3311253Y-7628341D01*
X3311253Y-7628341D02*
X3301729Y-7637865D01*
X3301729Y-7637865D02*
X3282681Y-7647389D01*
X3282681Y-7647389D02*
X3263634Y-7647389D01*
X3263634Y-7647389D02*
X3244586Y-7637865D01*
X3244586Y-7637865D02*
X3235062Y-7628341D01*
X3235062Y-7628341D02*
X3225538Y-7609293D01*
X3225538Y-7609293D02*
X3216015Y-7571198D01*
X3216015Y-7571198D02*
X3216015Y-7523579D01*
X3216015Y-7523579D02*
X3225538Y-7485484D01*
X3225538Y-7485484D02*
X3235062Y-7466436D01*
X3235062Y-7466436D02*
X3244586Y-7456913D01*
X3244586Y-7456913D02*
X3263634Y-7447389D01*
X3416015Y-7647389D02*
X3416015Y-7514055D01*
X3416015Y-7533103D02*
X3425538Y-7523579D01*
X3425538Y-7523579D02*
X3444586Y-7514055D01*
X3444586Y-7514055D02*
X3473158Y-7514055D01*
X3473158Y-7514055D02*
X3492205Y-7523579D01*
X3492205Y-7523579D02*
X3501729Y-7542627D01*
X3501729Y-7542627D02*
X3501729Y-7647389D01*
X3501729Y-7542627D02*
X3511253Y-7523579D01*
X3511253Y-7523579D02*
X3530300Y-7514055D01*
X3530300Y-7514055D02*
X3558872Y-7514055D01*
X3558872Y-7514055D02*
X3577919Y-7523579D01*
X3577919Y-7523579D02*
X3587443Y-7542627D01*
X3587443Y-7542627D02*
X3587443Y-7647389D01*
X3682681Y-7647389D02*
X3682681Y-7514055D01*
X3682681Y-7533103D02*
X3692205Y-7523579D01*
X3692205Y-7523579D02*
X3711253Y-7514055D01*
X3711253Y-7514055D02*
X3739824Y-7514055D01*
X3739824Y-7514055D02*
X3758872Y-7523579D01*
X3758872Y-7523579D02*
X3768396Y-7542627D01*
X3768396Y-7542627D02*
X3768396Y-7647389D01*
X3768396Y-7542627D02*
X3777919Y-7523579D01*
X3777919Y-7523579D02*
X3796967Y-7514055D01*
X3796967Y-7514055D02*
X3825538Y-7514055D01*
X3825538Y-7514055D02*
X3844586Y-7523579D01*
X3844586Y-7523579D02*
X3854110Y-7542627D01*
X3854110Y-7542627D02*
X3854110Y-7647389D01*
X4244586Y-7437865D02*
X4073158Y-7695008D01*
X4501729Y-7447389D02*
X4520777Y-7447389D01*
X4520777Y-7447389D02*
X4539824Y-7456913D01*
X4539824Y-7456913D02*
X4549348Y-7466436D01*
X4549348Y-7466436D02*
X4558872Y-7485484D01*
X4558872Y-7485484D02*
X4568396Y-7523579D01*
X4568396Y-7523579D02*
X4568396Y-7571198D01*
X4568396Y-7571198D02*
X4558872Y-7609293D01*
X4558872Y-7609293D02*
X4549348Y-7628341D01*
X4549348Y-7628341D02*
X4539824Y-7637865D01*
X4539824Y-7637865D02*
X4520777Y-7647389D01*
X4520777Y-7647389D02*
X4501729Y-7647389D01*
X4501729Y-7647389D02*
X4482682Y-7637865D01*
X4482682Y-7637865D02*
X4473158Y-7628341D01*
X4473158Y-7628341D02*
X4463634Y-7609293D01*
X4463634Y-7609293D02*
X4454110Y-7571198D01*
X4454110Y-7571198D02*
X4454110Y-7523579D01*
X4454110Y-7523579D02*
X4463634Y-7485484D01*
X4463634Y-7485484D02*
X4473158Y-7466436D01*
X4473158Y-7466436D02*
X4482682Y-7456913D01*
X4482682Y-7456913D02*
X4501729Y-7447389D01*
X4654110Y-7628341D02*
X4663634Y-7637865D01*
X4663634Y-7637865D02*
X4654110Y-7647389D01*
X4654110Y-7647389D02*
X4644586Y-7637865D01*
X4644586Y-7637865D02*
X4654110Y-7628341D01*
X4654110Y-7628341D02*
X4654110Y-7647389D01*
X4787443Y-7447389D02*
X4806491Y-7447389D01*
X4806491Y-7447389D02*
X4825539Y-7456913D01*
X4825539Y-7456913D02*
X4835063Y-7466436D01*
X4835063Y-7466436D02*
X4844586Y-7485484D01*
X4844586Y-7485484D02*
X4854110Y-7523579D01*
X4854110Y-7523579D02*
X4854110Y-7571198D01*
X4854110Y-7571198D02*
X4844586Y-7609293D01*
X4844586Y-7609293D02*
X4835063Y-7628341D01*
X4835063Y-7628341D02*
X4825539Y-7637865D01*
X4825539Y-7637865D02*
X4806491Y-7647389D01*
X4806491Y-7647389D02*
X4787443Y-7647389D01*
X4787443Y-7647389D02*
X4768396Y-7637865D01*
X4768396Y-7637865D02*
X4758872Y-7628341D01*
X4758872Y-7628341D02*
X4749348Y-7609293D01*
X4749348Y-7609293D02*
X4739824Y-7571198D01*
X4739824Y-7571198D02*
X4739824Y-7523579D01*
X4739824Y-7523579D02*
X4749348Y-7485484D01*
X4749348Y-7485484D02*
X4758872Y-7466436D01*
X4758872Y-7466436D02*
X4768396Y-7456913D01*
X4768396Y-7456913D02*
X4787443Y-7447389D01*
X4930301Y-7466436D02*
X4939824Y-7456913D01*
X4939824Y-7456913D02*
X4958872Y-7447389D01*
X4958872Y-7447389D02*
X5006491Y-7447389D01*
X5006491Y-7447389D02*
X5025539Y-7456913D01*
X5025539Y-7456913D02*
X5035063Y-7466436D01*
X5035063Y-7466436D02*
X5044586Y-7485484D01*
X5044586Y-7485484D02*
X5044586Y-7504532D01*
X5044586Y-7504532D02*
X5035063Y-7533103D01*
X5035063Y-7533103D02*
X4920777Y-7647389D01*
X4920777Y-7647389D02*
X5044586Y-7647389D01*
X5111253Y-7447389D02*
X5235063Y-7447389D01*
X5235063Y-7447389D02*
X5168396Y-7523579D01*
X5168396Y-7523579D02*
X5196967Y-7523579D01*
X5196967Y-7523579D02*
X5216015Y-7533103D01*
X5216015Y-7533103D02*
X5225539Y-7542627D01*
X5225539Y-7542627D02*
X5235063Y-7561674D01*
X5235063Y-7561674D02*
X5235063Y-7609293D01*
X5235063Y-7609293D02*
X5225539Y-7628341D01*
X5225539Y-7628341D02*
X5216015Y-7637865D01*
X5216015Y-7637865D02*
X5196967Y-7647389D01*
X5196967Y-7647389D02*
X5139824Y-7647389D01*
X5139824Y-7647389D02*
X5120777Y-7637865D01*
X5120777Y-7637865D02*
X5111253Y-7628341D01*
X5406491Y-7447389D02*
X5368396Y-7447389D01*
X5368396Y-7447389D02*
X5349348Y-7456913D01*
X5349348Y-7456913D02*
X5339824Y-7466436D01*
X5339824Y-7466436D02*
X5320777Y-7495008D01*
X5320777Y-7495008D02*
X5311253Y-7533103D01*
X5311253Y-7533103D02*
X5311253Y-7609293D01*
X5311253Y-7609293D02*
X5320777Y-7628341D01*
X5320777Y-7628341D02*
X5330301Y-7637865D01*
X5330301Y-7637865D02*
X5349348Y-7647389D01*
X5349348Y-7647389D02*
X5387444Y-7647389D01*
X5387444Y-7647389D02*
X5406491Y-7637865D01*
X5406491Y-7637865D02*
X5416015Y-7628341D01*
X5416015Y-7628341D02*
X5425539Y-7609293D01*
X5425539Y-7609293D02*
X5425539Y-7561674D01*
X5425539Y-7561674D02*
X5416015Y-7542627D01*
X5416015Y-7542627D02*
X5406491Y-7533103D01*
X5406491Y-7533103D02*
X5387444Y-7523579D01*
X5387444Y-7523579D02*
X5349348Y-7523579D01*
X5349348Y-7523579D02*
X5330301Y-7533103D01*
X5330301Y-7533103D02*
X5320777Y-7542627D01*
X5320777Y-7542627D02*
X5311253Y-7561674D01*
X5501729Y-7447389D02*
X5501729Y-7485484D01*
X5577920Y-7447389D02*
X5577920Y-7485484D01*
X5873158Y-7723579D02*
X5863634Y-7714055D01*
X5863634Y-7714055D02*
X5844586Y-7685484D01*
X5844586Y-7685484D02*
X5835063Y-7666436D01*
X5835063Y-7666436D02*
X5825539Y-7637865D01*
X5825539Y-7637865D02*
X5816015Y-7590246D01*
X5816015Y-7590246D02*
X5816015Y-7552151D01*
X5816015Y-7552151D02*
X5825539Y-7504532D01*
X5825539Y-7504532D02*
X5835063Y-7475960D01*
X5835063Y-7475960D02*
X5844586Y-7456913D01*
X5844586Y-7456913D02*
X5863634Y-7428341D01*
X5863634Y-7428341D02*
X5873158Y-7418817D01*
X5987443Y-7447389D02*
X6006491Y-7447389D01*
X6006491Y-7447389D02*
X6025539Y-7456913D01*
X6025539Y-7456913D02*
X6035063Y-7466436D01*
X6035063Y-7466436D02*
X6044586Y-7485484D01*
X6044586Y-7485484D02*
X6054110Y-7523579D01*
X6054110Y-7523579D02*
X6054110Y-7571198D01*
X6054110Y-7571198D02*
X6044586Y-7609293D01*
X6044586Y-7609293D02*
X6035063Y-7628341D01*
X6035063Y-7628341D02*
X6025539Y-7637865D01*
X6025539Y-7637865D02*
X6006491Y-7647389D01*
X6006491Y-7647389D02*
X5987443Y-7647389D01*
X5987443Y-7647389D02*
X5968396Y-7637865D01*
X5968396Y-7637865D02*
X5958872Y-7628341D01*
X5958872Y-7628341D02*
X5949348Y-7609293D01*
X5949348Y-7609293D02*
X5939824Y-7571198D01*
X5939824Y-7571198D02*
X5939824Y-7523579D01*
X5939824Y-7523579D02*
X5949348Y-7485484D01*
X5949348Y-7485484D02*
X5958872Y-7466436D01*
X5958872Y-7466436D02*
X5968396Y-7456913D01*
X5968396Y-7456913D02*
X5987443Y-7447389D01*
X6292205Y-7647389D02*
X6292205Y-7447389D01*
X6377920Y-7647389D02*
X6377920Y-7542627D01*
X6377920Y-7542627D02*
X6368396Y-7523579D01*
X6368396Y-7523579D02*
X6349348Y-7514055D01*
X6349348Y-7514055D02*
X6320777Y-7514055D01*
X6320777Y-7514055D02*
X6301729Y-7523579D01*
X6301729Y-7523579D02*
X6292205Y-7533103D01*
X6501729Y-7647389D02*
X6482682Y-7637865D01*
X6482682Y-7637865D02*
X6473158Y-7628341D01*
X6473158Y-7628341D02*
X6463634Y-7609293D01*
X6463634Y-7609293D02*
X6463634Y-7552151D01*
X6463634Y-7552151D02*
X6473158Y-7533103D01*
X6473158Y-7533103D02*
X6482682Y-7523579D01*
X6482682Y-7523579D02*
X6501729Y-7514055D01*
X6501729Y-7514055D02*
X6530301Y-7514055D01*
X6530301Y-7514055D02*
X6549348Y-7523579D01*
X6549348Y-7523579D02*
X6558872Y-7533103D01*
X6558872Y-7533103D02*
X6568396Y-7552151D01*
X6568396Y-7552151D02*
X6568396Y-7609293D01*
X6568396Y-7609293D02*
X6558872Y-7628341D01*
X6558872Y-7628341D02*
X6549348Y-7637865D01*
X6549348Y-7637865D02*
X6530301Y-7647389D01*
X6530301Y-7647389D02*
X6501729Y-7647389D01*
X6682682Y-7647389D02*
X6663634Y-7637865D01*
X6663634Y-7637865D02*
X6654110Y-7618817D01*
X6654110Y-7618817D02*
X6654110Y-7447389D01*
X6835063Y-7637865D02*
X6816015Y-7647389D01*
X6816015Y-7647389D02*
X6777920Y-7647389D01*
X6777920Y-7647389D02*
X6758872Y-7637865D01*
X6758872Y-7637865D02*
X6749348Y-7618817D01*
X6749348Y-7618817D02*
X6749348Y-7542627D01*
X6749348Y-7542627D02*
X6758872Y-7523579D01*
X6758872Y-7523579D02*
X6777920Y-7514055D01*
X6777920Y-7514055D02*
X6816015Y-7514055D01*
X6816015Y-7514055D02*
X6835063Y-7523579D01*
X6835063Y-7523579D02*
X6844586Y-7542627D01*
X6844586Y-7542627D02*
X6844586Y-7561674D01*
X6844586Y-7561674D02*
X6749348Y-7580722D01*
X6920777Y-7637865D02*
X6939825Y-7647389D01*
X6939825Y-7647389D02*
X6977920Y-7647389D01*
X6977920Y-7647389D02*
X6996967Y-7637865D01*
X6996967Y-7637865D02*
X7006491Y-7618817D01*
X7006491Y-7618817D02*
X7006491Y-7609293D01*
X7006491Y-7609293D02*
X6996967Y-7590246D01*
X6996967Y-7590246D02*
X6977920Y-7580722D01*
X6977920Y-7580722D02*
X6949348Y-7580722D01*
X6949348Y-7580722D02*
X6930301Y-7571198D01*
X6930301Y-7571198D02*
X6920777Y-7552151D01*
X6920777Y-7552151D02*
X6920777Y-7542627D01*
X6920777Y-7542627D02*
X6930301Y-7523579D01*
X6930301Y-7523579D02*
X6949348Y-7514055D01*
X6949348Y-7514055D02*
X6977920Y-7514055D01*
X6977920Y-7514055D02*
X6996967Y-7523579D01*
X7244587Y-7571198D02*
X7396968Y-7571198D01*
X7320777Y-7647389D02*
X7320777Y-7495008D01*
X7730301Y-7514055D02*
X7730301Y-7647389D01*
X7682682Y-7437865D02*
X7635063Y-7580722D01*
X7635063Y-7580722D02*
X7758872Y-7580722D01*
X7977920Y-7637865D02*
X7996968Y-7647389D01*
X7996968Y-7647389D02*
X8035063Y-7647389D01*
X8035063Y-7647389D02*
X8054110Y-7637865D01*
X8054110Y-7637865D02*
X8063634Y-7618817D01*
X8063634Y-7618817D02*
X8063634Y-7609293D01*
X8063634Y-7609293D02*
X8054110Y-7590246D01*
X8054110Y-7590246D02*
X8035063Y-7580722D01*
X8035063Y-7580722D02*
X8006491Y-7580722D01*
X8006491Y-7580722D02*
X7987444Y-7571198D01*
X7987444Y-7571198D02*
X7977920Y-7552151D01*
X7977920Y-7552151D02*
X7977920Y-7542627D01*
X7977920Y-7542627D02*
X7987444Y-7523579D01*
X7987444Y-7523579D02*
X8006491Y-7514055D01*
X8006491Y-7514055D02*
X8035063Y-7514055D01*
X8035063Y-7514055D02*
X8054110Y-7523579D01*
X8177920Y-7647389D02*
X8158872Y-7637865D01*
X8158872Y-7637865D02*
X8149349Y-7618817D01*
X8149349Y-7618817D02*
X8149349Y-7447389D01*
X8282682Y-7647389D02*
X8263634Y-7637865D01*
X8263634Y-7637865D02*
X8254110Y-7628341D01*
X8254110Y-7628341D02*
X8244587Y-7609293D01*
X8244587Y-7609293D02*
X8244587Y-7552151D01*
X8244587Y-7552151D02*
X8254110Y-7533103D01*
X8254110Y-7533103D02*
X8263634Y-7523579D01*
X8263634Y-7523579D02*
X8282682Y-7514055D01*
X8282682Y-7514055D02*
X8311253Y-7514055D01*
X8311253Y-7514055D02*
X8330301Y-7523579D01*
X8330301Y-7523579D02*
X8339825Y-7533103D01*
X8339825Y-7533103D02*
X8349349Y-7552151D01*
X8349349Y-7552151D02*
X8349349Y-7609293D01*
X8349349Y-7609293D02*
X8339825Y-7628341D01*
X8339825Y-7628341D02*
X8330301Y-7637865D01*
X8330301Y-7637865D02*
X8311253Y-7647389D01*
X8311253Y-7647389D02*
X8282682Y-7647389D01*
X8406492Y-7514055D02*
X8482682Y-7514055D01*
X8435063Y-7447389D02*
X8435063Y-7618817D01*
X8435063Y-7618817D02*
X8444587Y-7637865D01*
X8444587Y-7637865D02*
X8463634Y-7647389D01*
X8463634Y-7647389D02*
X8482682Y-7647389D01*
X8539825Y-7637865D02*
X8558872Y-7647389D01*
X8558872Y-7647389D02*
X8596968Y-7647389D01*
X8596968Y-7647389D02*
X8616015Y-7637865D01*
X8616015Y-7637865D02*
X8625539Y-7618817D01*
X8625539Y-7618817D02*
X8625539Y-7609293D01*
X8625539Y-7609293D02*
X8616015Y-7590246D01*
X8616015Y-7590246D02*
X8596968Y-7580722D01*
X8596968Y-7580722D02*
X8568396Y-7580722D01*
X8568396Y-7580722D02*
X8549349Y-7571198D01*
X8549349Y-7571198D02*
X8539825Y-7552151D01*
X8539825Y-7552151D02*
X8539825Y-7542627D01*
X8539825Y-7542627D02*
X8549349Y-7523579D01*
X8549349Y-7523579D02*
X8568396Y-7514055D01*
X8568396Y-7514055D02*
X8596968Y-7514055D01*
X8596968Y-7514055D02*
X8616015Y-7523579D01*
X8692206Y-7723579D02*
X8701730Y-7714055D01*
X8701730Y-7714055D02*
X8720777Y-7685484D01*
X8720777Y-7685484D02*
X8730301Y-7666436D01*
X8730301Y-7666436D02*
X8739825Y-7637865D01*
X8739825Y-7637865D02*
X8749349Y-7590246D01*
X8749349Y-7590246D02*
X8749349Y-7552151D01*
X8749349Y-7552151D02*
X8739825Y-7504532D01*
X8739825Y-7504532D02*
X8730301Y-7475960D01*
X8730301Y-7475960D02*
X8720777Y-7456913D01*
X8720777Y-7456913D02*
X8701730Y-7428341D01*
X8701730Y-7428341D02*
X8692206Y-7418817D01*
D12*
X2248095Y-7769905D02*
X2248095Y-7869905D01*
X2198095Y-7819905D02*
X2298095Y-7819905D01*
D11*
X2663634Y-7911389D02*
X2549348Y-7911389D01*
X2606491Y-7911389D02*
X2606491Y-7711389D01*
X2606491Y-7711389D02*
X2587443Y-7739960D01*
X2587443Y-7739960D02*
X2568396Y-7759008D01*
X2568396Y-7759008D02*
X2549348Y-7768532D01*
X2749348Y-7892341D02*
X2758872Y-7901865D01*
X2758872Y-7901865D02*
X2749348Y-7911389D01*
X2749348Y-7911389D02*
X2739824Y-7901865D01*
X2739824Y-7901865D02*
X2749348Y-7892341D01*
X2749348Y-7892341D02*
X2749348Y-7911389D01*
X2882681Y-7711389D02*
X2901729Y-7711389D01*
X2901729Y-7711389D02*
X2920777Y-7720913D01*
X2920777Y-7720913D02*
X2930300Y-7730436D01*
X2930300Y-7730436D02*
X2939824Y-7749484D01*
X2939824Y-7749484D02*
X2949348Y-7787579D01*
X2949348Y-7787579D02*
X2949348Y-7835198D01*
X2949348Y-7835198D02*
X2939824Y-7873293D01*
X2939824Y-7873293D02*
X2930300Y-7892341D01*
X2930300Y-7892341D02*
X2920777Y-7901865D01*
X2920777Y-7901865D02*
X2901729Y-7911389D01*
X2901729Y-7911389D02*
X2882681Y-7911389D01*
X2882681Y-7911389D02*
X2863634Y-7901865D01*
X2863634Y-7901865D02*
X2854110Y-7892341D01*
X2854110Y-7892341D02*
X2844586Y-7873293D01*
X2844586Y-7873293D02*
X2835062Y-7835198D01*
X2835062Y-7835198D02*
X2835062Y-7787579D01*
X2835062Y-7787579D02*
X2844586Y-7749484D01*
X2844586Y-7749484D02*
X2854110Y-7730436D01*
X2854110Y-7730436D02*
X2863634Y-7720913D01*
X2863634Y-7720913D02*
X2882681Y-7711389D01*
X3073157Y-7711389D02*
X3092205Y-7711389D01*
X3092205Y-7711389D02*
X3111253Y-7720913D01*
X3111253Y-7720913D02*
X3120777Y-7730436D01*
X3120777Y-7730436D02*
X3130300Y-7749484D01*
X3130300Y-7749484D02*
X3139824Y-7787579D01*
X3139824Y-7787579D02*
X3139824Y-7835198D01*
X3139824Y-7835198D02*
X3130300Y-7873293D01*
X3130300Y-7873293D02*
X3120777Y-7892341D01*
X3120777Y-7892341D02*
X3111253Y-7901865D01*
X3111253Y-7901865D02*
X3092205Y-7911389D01*
X3092205Y-7911389D02*
X3073157Y-7911389D01*
X3073157Y-7911389D02*
X3054110Y-7901865D01*
X3054110Y-7901865D02*
X3044586Y-7892341D01*
X3044586Y-7892341D02*
X3035062Y-7873293D01*
X3035062Y-7873293D02*
X3025538Y-7835198D01*
X3025538Y-7835198D02*
X3025538Y-7787579D01*
X3025538Y-7787579D02*
X3035062Y-7749484D01*
X3035062Y-7749484D02*
X3044586Y-7730436D01*
X3044586Y-7730436D02*
X3054110Y-7720913D01*
X3054110Y-7720913D02*
X3073157Y-7711389D01*
X3263634Y-7711389D02*
X3282681Y-7711389D01*
X3282681Y-7711389D02*
X3301729Y-7720913D01*
X3301729Y-7720913D02*
X3311253Y-7730436D01*
X3311253Y-7730436D02*
X3320777Y-7749484D01*
X3320777Y-7749484D02*
X3330300Y-7787579D01*
X3330300Y-7787579D02*
X3330300Y-7835198D01*
X3330300Y-7835198D02*
X3320777Y-7873293D01*
X3320777Y-7873293D02*
X3311253Y-7892341D01*
X3311253Y-7892341D02*
X3301729Y-7901865D01*
X3301729Y-7901865D02*
X3282681Y-7911389D01*
X3282681Y-7911389D02*
X3263634Y-7911389D01*
X3263634Y-7911389D02*
X3244586Y-7901865D01*
X3244586Y-7901865D02*
X3235062Y-7892341D01*
X3235062Y-7892341D02*
X3225538Y-7873293D01*
X3225538Y-7873293D02*
X3216015Y-7835198D01*
X3216015Y-7835198D02*
X3216015Y-7787579D01*
X3216015Y-7787579D02*
X3225538Y-7749484D01*
X3225538Y-7749484D02*
X3235062Y-7730436D01*
X3235062Y-7730436D02*
X3244586Y-7720913D01*
X3244586Y-7720913D02*
X3263634Y-7711389D01*
X3416015Y-7911389D02*
X3416015Y-7778055D01*
X3416015Y-7797103D02*
X3425538Y-7787579D01*
X3425538Y-7787579D02*
X3444586Y-7778055D01*
X3444586Y-7778055D02*
X3473158Y-7778055D01*
X3473158Y-7778055D02*
X3492205Y-7787579D01*
X3492205Y-7787579D02*
X3501729Y-7806627D01*
X3501729Y-7806627D02*
X3501729Y-7911389D01*
X3501729Y-7806627D02*
X3511253Y-7787579D01*
X3511253Y-7787579D02*
X3530300Y-7778055D01*
X3530300Y-7778055D02*
X3558872Y-7778055D01*
X3558872Y-7778055D02*
X3577919Y-7787579D01*
X3577919Y-7787579D02*
X3587443Y-7806627D01*
X3587443Y-7806627D02*
X3587443Y-7911389D01*
X3682681Y-7911389D02*
X3682681Y-7778055D01*
X3682681Y-7797103D02*
X3692205Y-7787579D01*
X3692205Y-7787579D02*
X3711253Y-7778055D01*
X3711253Y-7778055D02*
X3739824Y-7778055D01*
X3739824Y-7778055D02*
X3758872Y-7787579D01*
X3758872Y-7787579D02*
X3768396Y-7806627D01*
X3768396Y-7806627D02*
X3768396Y-7911389D01*
X3768396Y-7806627D02*
X3777919Y-7787579D01*
X3777919Y-7787579D02*
X3796967Y-7778055D01*
X3796967Y-7778055D02*
X3825538Y-7778055D01*
X3825538Y-7778055D02*
X3844586Y-7787579D01*
X3844586Y-7787579D02*
X3854110Y-7806627D01*
X3854110Y-7806627D02*
X3854110Y-7911389D01*
X4244586Y-7701865D02*
X4073158Y-7959008D01*
X4501729Y-7711389D02*
X4520777Y-7711389D01*
X4520777Y-7711389D02*
X4539824Y-7720913D01*
X4539824Y-7720913D02*
X4549348Y-7730436D01*
X4549348Y-7730436D02*
X4558872Y-7749484D01*
X4558872Y-7749484D02*
X4568396Y-7787579D01*
X4568396Y-7787579D02*
X4568396Y-7835198D01*
X4568396Y-7835198D02*
X4558872Y-7873293D01*
X4558872Y-7873293D02*
X4549348Y-7892341D01*
X4549348Y-7892341D02*
X4539824Y-7901865D01*
X4539824Y-7901865D02*
X4520777Y-7911389D01*
X4520777Y-7911389D02*
X4501729Y-7911389D01*
X4501729Y-7911389D02*
X4482682Y-7901865D01*
X4482682Y-7901865D02*
X4473158Y-7892341D01*
X4473158Y-7892341D02*
X4463634Y-7873293D01*
X4463634Y-7873293D02*
X4454110Y-7835198D01*
X4454110Y-7835198D02*
X4454110Y-7787579D01*
X4454110Y-7787579D02*
X4463634Y-7749484D01*
X4463634Y-7749484D02*
X4473158Y-7730436D01*
X4473158Y-7730436D02*
X4482682Y-7720913D01*
X4482682Y-7720913D02*
X4501729Y-7711389D01*
X4654110Y-7892341D02*
X4663634Y-7901865D01*
X4663634Y-7901865D02*
X4654110Y-7911389D01*
X4654110Y-7911389D02*
X4644586Y-7901865D01*
X4644586Y-7901865D02*
X4654110Y-7892341D01*
X4654110Y-7892341D02*
X4654110Y-7911389D01*
X4787443Y-7711389D02*
X4806491Y-7711389D01*
X4806491Y-7711389D02*
X4825539Y-7720913D01*
X4825539Y-7720913D02*
X4835063Y-7730436D01*
X4835063Y-7730436D02*
X4844586Y-7749484D01*
X4844586Y-7749484D02*
X4854110Y-7787579D01*
X4854110Y-7787579D02*
X4854110Y-7835198D01*
X4854110Y-7835198D02*
X4844586Y-7873293D01*
X4844586Y-7873293D02*
X4835063Y-7892341D01*
X4835063Y-7892341D02*
X4825539Y-7901865D01*
X4825539Y-7901865D02*
X4806491Y-7911389D01*
X4806491Y-7911389D02*
X4787443Y-7911389D01*
X4787443Y-7911389D02*
X4768396Y-7901865D01*
X4768396Y-7901865D02*
X4758872Y-7892341D01*
X4758872Y-7892341D02*
X4749348Y-7873293D01*
X4749348Y-7873293D02*
X4739824Y-7835198D01*
X4739824Y-7835198D02*
X4739824Y-7787579D01*
X4739824Y-7787579D02*
X4749348Y-7749484D01*
X4749348Y-7749484D02*
X4758872Y-7730436D01*
X4758872Y-7730436D02*
X4768396Y-7720913D01*
X4768396Y-7720913D02*
X4787443Y-7711389D01*
X4920777Y-7711389D02*
X5044586Y-7711389D01*
X5044586Y-7711389D02*
X4977920Y-7787579D01*
X4977920Y-7787579D02*
X5006491Y-7787579D01*
X5006491Y-7787579D02*
X5025539Y-7797103D01*
X5025539Y-7797103D02*
X5035063Y-7806627D01*
X5035063Y-7806627D02*
X5044586Y-7825674D01*
X5044586Y-7825674D02*
X5044586Y-7873293D01*
X5044586Y-7873293D02*
X5035063Y-7892341D01*
X5035063Y-7892341D02*
X5025539Y-7901865D01*
X5025539Y-7901865D02*
X5006491Y-7911389D01*
X5006491Y-7911389D02*
X4949348Y-7911389D01*
X4949348Y-7911389D02*
X4930301Y-7901865D01*
X4930301Y-7901865D02*
X4920777Y-7892341D01*
X5139824Y-7911389D02*
X5177920Y-7911389D01*
X5177920Y-7911389D02*
X5196967Y-7901865D01*
X5196967Y-7901865D02*
X5206491Y-7892341D01*
X5206491Y-7892341D02*
X5225539Y-7863770D01*
X5225539Y-7863770D02*
X5235063Y-7825674D01*
X5235063Y-7825674D02*
X5235063Y-7749484D01*
X5235063Y-7749484D02*
X5225539Y-7730436D01*
X5225539Y-7730436D02*
X5216015Y-7720913D01*
X5216015Y-7720913D02*
X5196967Y-7711389D01*
X5196967Y-7711389D02*
X5158872Y-7711389D01*
X5158872Y-7711389D02*
X5139824Y-7720913D01*
X5139824Y-7720913D02*
X5130301Y-7730436D01*
X5130301Y-7730436D02*
X5120777Y-7749484D01*
X5120777Y-7749484D02*
X5120777Y-7797103D01*
X5120777Y-7797103D02*
X5130301Y-7816151D01*
X5130301Y-7816151D02*
X5139824Y-7825674D01*
X5139824Y-7825674D02*
X5158872Y-7835198D01*
X5158872Y-7835198D02*
X5196967Y-7835198D01*
X5196967Y-7835198D02*
X5216015Y-7825674D01*
X5216015Y-7825674D02*
X5225539Y-7816151D01*
X5225539Y-7816151D02*
X5235063Y-7797103D01*
X5406491Y-7778055D02*
X5406491Y-7911389D01*
X5358872Y-7701865D02*
X5311253Y-7844722D01*
X5311253Y-7844722D02*
X5435063Y-7844722D01*
X5501729Y-7711389D02*
X5501729Y-7749484D01*
X5577920Y-7711389D02*
X5577920Y-7749484D01*
X5873158Y-7987579D02*
X5863634Y-7978055D01*
X5863634Y-7978055D02*
X5844586Y-7949484D01*
X5844586Y-7949484D02*
X5835063Y-7930436D01*
X5835063Y-7930436D02*
X5825539Y-7901865D01*
X5825539Y-7901865D02*
X5816015Y-7854246D01*
X5816015Y-7854246D02*
X5816015Y-7816151D01*
X5816015Y-7816151D02*
X5825539Y-7768532D01*
X5825539Y-7768532D02*
X5835063Y-7739960D01*
X5835063Y-7739960D02*
X5844586Y-7720913D01*
X5844586Y-7720913D02*
X5863634Y-7692341D01*
X5863634Y-7692341D02*
X5873158Y-7682817D01*
X5930301Y-7711389D02*
X6054110Y-7711389D01*
X6054110Y-7711389D02*
X5987443Y-7787579D01*
X5987443Y-7787579D02*
X6016015Y-7787579D01*
X6016015Y-7787579D02*
X6035063Y-7797103D01*
X6035063Y-7797103D02*
X6044586Y-7806627D01*
X6044586Y-7806627D02*
X6054110Y-7825674D01*
X6054110Y-7825674D02*
X6054110Y-7873293D01*
X6054110Y-7873293D02*
X6044586Y-7892341D01*
X6044586Y-7892341D02*
X6035063Y-7901865D01*
X6035063Y-7901865D02*
X6016015Y-7911389D01*
X6016015Y-7911389D02*
X5958872Y-7911389D01*
X5958872Y-7911389D02*
X5939824Y-7901865D01*
X5939824Y-7901865D02*
X5930301Y-7892341D01*
X6130301Y-7730436D02*
X6139824Y-7720913D01*
X6139824Y-7720913D02*
X6158872Y-7711389D01*
X6158872Y-7711389D02*
X6206491Y-7711389D01*
X6206491Y-7711389D02*
X6225539Y-7720913D01*
X6225539Y-7720913D02*
X6235063Y-7730436D01*
X6235063Y-7730436D02*
X6244586Y-7749484D01*
X6244586Y-7749484D02*
X6244586Y-7768532D01*
X6244586Y-7768532D02*
X6235063Y-7797103D01*
X6235063Y-7797103D02*
X6120777Y-7911389D01*
X6120777Y-7911389D02*
X6244586Y-7911389D01*
X6482682Y-7911389D02*
X6482682Y-7711389D01*
X6568396Y-7911389D02*
X6568396Y-7806627D01*
X6568396Y-7806627D02*
X6558872Y-7787579D01*
X6558872Y-7787579D02*
X6539825Y-7778055D01*
X6539825Y-7778055D02*
X6511253Y-7778055D01*
X6511253Y-7778055D02*
X6492205Y-7787579D01*
X6492205Y-7787579D02*
X6482682Y-7797103D01*
X6692205Y-7911389D02*
X6673158Y-7901865D01*
X6673158Y-7901865D02*
X6663634Y-7892341D01*
X6663634Y-7892341D02*
X6654110Y-7873293D01*
X6654110Y-7873293D02*
X6654110Y-7816151D01*
X6654110Y-7816151D02*
X6663634Y-7797103D01*
X6663634Y-7797103D02*
X6673158Y-7787579D01*
X6673158Y-7787579D02*
X6692205Y-7778055D01*
X6692205Y-7778055D02*
X6720777Y-7778055D01*
X6720777Y-7778055D02*
X6739825Y-7787579D01*
X6739825Y-7787579D02*
X6749348Y-7797103D01*
X6749348Y-7797103D02*
X6758872Y-7816151D01*
X6758872Y-7816151D02*
X6758872Y-7873293D01*
X6758872Y-7873293D02*
X6749348Y-7892341D01*
X6749348Y-7892341D02*
X6739825Y-7901865D01*
X6739825Y-7901865D02*
X6720777Y-7911389D01*
X6720777Y-7911389D02*
X6692205Y-7911389D01*
X6873158Y-7911389D02*
X6854110Y-7901865D01*
X6854110Y-7901865D02*
X6844586Y-7882817D01*
X6844586Y-7882817D02*
X6844586Y-7711389D01*
X7025539Y-7901865D02*
X7006491Y-7911389D01*
X7006491Y-7911389D02*
X6968396Y-7911389D01*
X6968396Y-7911389D02*
X6949348Y-7901865D01*
X6949348Y-7901865D02*
X6939825Y-7882817D01*
X6939825Y-7882817D02*
X6939825Y-7806627D01*
X6939825Y-7806627D02*
X6949348Y-7787579D01*
X6949348Y-7787579D02*
X6968396Y-7778055D01*
X6968396Y-7778055D02*
X7006491Y-7778055D01*
X7006491Y-7778055D02*
X7025539Y-7787579D01*
X7025539Y-7787579D02*
X7035063Y-7806627D01*
X7035063Y-7806627D02*
X7035063Y-7825674D01*
X7035063Y-7825674D02*
X6939825Y-7844722D01*
X7111253Y-7901865D02*
X7130301Y-7911389D01*
X7130301Y-7911389D02*
X7168396Y-7911389D01*
X7168396Y-7911389D02*
X7187444Y-7901865D01*
X7187444Y-7901865D02*
X7196967Y-7882817D01*
X7196967Y-7882817D02*
X7196967Y-7873293D01*
X7196967Y-7873293D02*
X7187444Y-7854246D01*
X7187444Y-7854246D02*
X7168396Y-7844722D01*
X7168396Y-7844722D02*
X7139825Y-7844722D01*
X7139825Y-7844722D02*
X7120777Y-7835198D01*
X7120777Y-7835198D02*
X7111253Y-7816151D01*
X7111253Y-7816151D02*
X7111253Y-7806627D01*
X7111253Y-7806627D02*
X7120777Y-7787579D01*
X7120777Y-7787579D02*
X7139825Y-7778055D01*
X7139825Y-7778055D02*
X7168396Y-7778055D01*
X7168396Y-7778055D02*
X7187444Y-7787579D01*
X7263634Y-7987579D02*
X7273158Y-7978055D01*
X7273158Y-7978055D02*
X7292206Y-7949484D01*
X7292206Y-7949484D02*
X7301729Y-7930436D01*
X7301729Y-7930436D02*
X7311253Y-7901865D01*
X7311253Y-7901865D02*
X7320777Y-7854246D01*
X7320777Y-7854246D02*
X7320777Y-7816151D01*
X7320777Y-7816151D02*
X7311253Y-7768532D01*
X7311253Y-7768532D02*
X7301729Y-7739960D01*
X7301729Y-7739960D02*
X7292206Y-7720913D01*
X7292206Y-7720913D02*
X7273158Y-7692341D01*
X7273158Y-7692341D02*
X7263634Y-7682817D01*
D13*
X2281986Y-8122796D02*
X2281986Y-8045014D01*
X2204204Y-8045014D01*
X2204204Y-8122796D01*
X2281986Y-8122796D01*
D11*
X2663634Y-8175389D02*
X2549348Y-8175389D01*
X2606491Y-8175389D02*
X2606491Y-7975389D01*
X2606491Y-7975389D02*
X2587443Y-8003960D01*
X2587443Y-8003960D02*
X2568396Y-8023008D01*
X2568396Y-8023008D02*
X2549348Y-8032532D01*
X2749348Y-8156341D02*
X2758872Y-8165865D01*
X2758872Y-8165865D02*
X2749348Y-8175389D01*
X2749348Y-8175389D02*
X2739824Y-8165865D01*
X2739824Y-8165865D02*
X2749348Y-8156341D01*
X2749348Y-8156341D02*
X2749348Y-8175389D01*
X2949348Y-8175389D02*
X2835062Y-8175389D01*
X2892205Y-8175389D02*
X2892205Y-7975389D01*
X2892205Y-7975389D02*
X2873157Y-8003960D01*
X2873157Y-8003960D02*
X2854110Y-8023008D01*
X2854110Y-8023008D02*
X2835062Y-8032532D01*
X3073157Y-7975389D02*
X3092205Y-7975389D01*
X3092205Y-7975389D02*
X3111253Y-7984913D01*
X3111253Y-7984913D02*
X3120777Y-7994436D01*
X3120777Y-7994436D02*
X3130300Y-8013484D01*
X3130300Y-8013484D02*
X3139824Y-8051579D01*
X3139824Y-8051579D02*
X3139824Y-8099198D01*
X3139824Y-8099198D02*
X3130300Y-8137293D01*
X3130300Y-8137293D02*
X3120777Y-8156341D01*
X3120777Y-8156341D02*
X3111253Y-8165865D01*
X3111253Y-8165865D02*
X3092205Y-8175389D01*
X3092205Y-8175389D02*
X3073157Y-8175389D01*
X3073157Y-8175389D02*
X3054110Y-8165865D01*
X3054110Y-8165865D02*
X3044586Y-8156341D01*
X3044586Y-8156341D02*
X3035062Y-8137293D01*
X3035062Y-8137293D02*
X3025538Y-8099198D01*
X3025538Y-8099198D02*
X3025538Y-8051579D01*
X3025538Y-8051579D02*
X3035062Y-8013484D01*
X3035062Y-8013484D02*
X3044586Y-7994436D01*
X3044586Y-7994436D02*
X3054110Y-7984913D01*
X3054110Y-7984913D02*
X3073157Y-7975389D01*
X3263634Y-7975389D02*
X3282681Y-7975389D01*
X3282681Y-7975389D02*
X3301729Y-7984913D01*
X3301729Y-7984913D02*
X3311253Y-7994436D01*
X3311253Y-7994436D02*
X3320777Y-8013484D01*
X3320777Y-8013484D02*
X3330300Y-8051579D01*
X3330300Y-8051579D02*
X3330300Y-8099198D01*
X3330300Y-8099198D02*
X3320777Y-8137293D01*
X3320777Y-8137293D02*
X3311253Y-8156341D01*
X3311253Y-8156341D02*
X3301729Y-8165865D01*
X3301729Y-8165865D02*
X3282681Y-8175389D01*
X3282681Y-8175389D02*
X3263634Y-8175389D01*
X3263634Y-8175389D02*
X3244586Y-8165865D01*
X3244586Y-8165865D02*
X3235062Y-8156341D01*
X3235062Y-8156341D02*
X3225538Y-8137293D01*
X3225538Y-8137293D02*
X3216015Y-8099198D01*
X3216015Y-8099198D02*
X3216015Y-8051579D01*
X3216015Y-8051579D02*
X3225538Y-8013484D01*
X3225538Y-8013484D02*
X3235062Y-7994436D01*
X3235062Y-7994436D02*
X3244586Y-7984913D01*
X3244586Y-7984913D02*
X3263634Y-7975389D01*
X3416015Y-8175389D02*
X3416015Y-8042055D01*
X3416015Y-8061103D02*
X3425538Y-8051579D01*
X3425538Y-8051579D02*
X3444586Y-8042055D01*
X3444586Y-8042055D02*
X3473158Y-8042055D01*
X3473158Y-8042055D02*
X3492205Y-8051579D01*
X3492205Y-8051579D02*
X3501729Y-8070627D01*
X3501729Y-8070627D02*
X3501729Y-8175389D01*
X3501729Y-8070627D02*
X3511253Y-8051579D01*
X3511253Y-8051579D02*
X3530300Y-8042055D01*
X3530300Y-8042055D02*
X3558872Y-8042055D01*
X3558872Y-8042055D02*
X3577919Y-8051579D01*
X3577919Y-8051579D02*
X3587443Y-8070627D01*
X3587443Y-8070627D02*
X3587443Y-8175389D01*
X3682681Y-8175389D02*
X3682681Y-8042055D01*
X3682681Y-8061103D02*
X3692205Y-8051579D01*
X3692205Y-8051579D02*
X3711253Y-8042055D01*
X3711253Y-8042055D02*
X3739824Y-8042055D01*
X3739824Y-8042055D02*
X3758872Y-8051579D01*
X3758872Y-8051579D02*
X3768396Y-8070627D01*
X3768396Y-8070627D02*
X3768396Y-8175389D01*
X3768396Y-8070627D02*
X3777919Y-8051579D01*
X3777919Y-8051579D02*
X3796967Y-8042055D01*
X3796967Y-8042055D02*
X3825538Y-8042055D01*
X3825538Y-8042055D02*
X3844586Y-8051579D01*
X3844586Y-8051579D02*
X3854110Y-8070627D01*
X3854110Y-8070627D02*
X3854110Y-8175389D01*
X4244586Y-7965865D02*
X4073158Y-8223008D01*
X4501729Y-7975389D02*
X4520777Y-7975389D01*
X4520777Y-7975389D02*
X4539824Y-7984913D01*
X4539824Y-7984913D02*
X4549348Y-7994436D01*
X4549348Y-7994436D02*
X4558872Y-8013484D01*
X4558872Y-8013484D02*
X4568396Y-8051579D01*
X4568396Y-8051579D02*
X4568396Y-8099198D01*
X4568396Y-8099198D02*
X4558872Y-8137293D01*
X4558872Y-8137293D02*
X4549348Y-8156341D01*
X4549348Y-8156341D02*
X4539824Y-8165865D01*
X4539824Y-8165865D02*
X4520777Y-8175389D01*
X4520777Y-8175389D02*
X4501729Y-8175389D01*
X4501729Y-8175389D02*
X4482682Y-8165865D01*
X4482682Y-8165865D02*
X4473158Y-8156341D01*
X4473158Y-8156341D02*
X4463634Y-8137293D01*
X4463634Y-8137293D02*
X4454110Y-8099198D01*
X4454110Y-8099198D02*
X4454110Y-8051579D01*
X4454110Y-8051579D02*
X4463634Y-8013484D01*
X4463634Y-8013484D02*
X4473158Y-7994436D01*
X4473158Y-7994436D02*
X4482682Y-7984913D01*
X4482682Y-7984913D02*
X4501729Y-7975389D01*
X4654110Y-8156341D02*
X4663634Y-8165865D01*
X4663634Y-8165865D02*
X4654110Y-8175389D01*
X4654110Y-8175389D02*
X4644586Y-8165865D01*
X4644586Y-8165865D02*
X4654110Y-8156341D01*
X4654110Y-8156341D02*
X4654110Y-8175389D01*
X4787443Y-7975389D02*
X4806491Y-7975389D01*
X4806491Y-7975389D02*
X4825539Y-7984913D01*
X4825539Y-7984913D02*
X4835063Y-7994436D01*
X4835063Y-7994436D02*
X4844586Y-8013484D01*
X4844586Y-8013484D02*
X4854110Y-8051579D01*
X4854110Y-8051579D02*
X4854110Y-8099198D01*
X4854110Y-8099198D02*
X4844586Y-8137293D01*
X4844586Y-8137293D02*
X4835063Y-8156341D01*
X4835063Y-8156341D02*
X4825539Y-8165865D01*
X4825539Y-8165865D02*
X4806491Y-8175389D01*
X4806491Y-8175389D02*
X4787443Y-8175389D01*
X4787443Y-8175389D02*
X4768396Y-8165865D01*
X4768396Y-8165865D02*
X4758872Y-8156341D01*
X4758872Y-8156341D02*
X4749348Y-8137293D01*
X4749348Y-8137293D02*
X4739824Y-8099198D01*
X4739824Y-8099198D02*
X4739824Y-8051579D01*
X4739824Y-8051579D02*
X4749348Y-8013484D01*
X4749348Y-8013484D02*
X4758872Y-7994436D01*
X4758872Y-7994436D02*
X4768396Y-7984913D01*
X4768396Y-7984913D02*
X4787443Y-7975389D01*
X5025539Y-8042055D02*
X5025539Y-8175389D01*
X4977920Y-7965865D02*
X4930301Y-8108722D01*
X4930301Y-8108722D02*
X5054110Y-8108722D01*
X5111253Y-7975389D02*
X5235063Y-7975389D01*
X5235063Y-7975389D02*
X5168396Y-8051579D01*
X5168396Y-8051579D02*
X5196967Y-8051579D01*
X5196967Y-8051579D02*
X5216015Y-8061103D01*
X5216015Y-8061103D02*
X5225539Y-8070627D01*
X5225539Y-8070627D02*
X5235063Y-8089674D01*
X5235063Y-8089674D02*
X5235063Y-8137293D01*
X5235063Y-8137293D02*
X5225539Y-8156341D01*
X5225539Y-8156341D02*
X5216015Y-8165865D01*
X5216015Y-8165865D02*
X5196967Y-8175389D01*
X5196967Y-8175389D02*
X5139824Y-8175389D01*
X5139824Y-8175389D02*
X5120777Y-8165865D01*
X5120777Y-8165865D02*
X5111253Y-8156341D01*
X5301729Y-7975389D02*
X5425539Y-7975389D01*
X5425539Y-7975389D02*
X5358872Y-8051579D01*
X5358872Y-8051579D02*
X5387444Y-8051579D01*
X5387444Y-8051579D02*
X5406491Y-8061103D01*
X5406491Y-8061103D02*
X5416015Y-8070627D01*
X5416015Y-8070627D02*
X5425539Y-8089674D01*
X5425539Y-8089674D02*
X5425539Y-8137293D01*
X5425539Y-8137293D02*
X5416015Y-8156341D01*
X5416015Y-8156341D02*
X5406491Y-8165865D01*
X5406491Y-8165865D02*
X5387444Y-8175389D01*
X5387444Y-8175389D02*
X5330301Y-8175389D01*
X5330301Y-8175389D02*
X5311253Y-8165865D01*
X5311253Y-8165865D02*
X5301729Y-8156341D01*
X5501729Y-7975389D02*
X5501729Y-8013484D01*
X5577920Y-7975389D02*
X5577920Y-8013484D01*
X5873158Y-8251579D02*
X5863634Y-8242055D01*
X5863634Y-8242055D02*
X5844586Y-8213484D01*
X5844586Y-8213484D02*
X5835063Y-8194436D01*
X5835063Y-8194436D02*
X5825539Y-8165865D01*
X5825539Y-8165865D02*
X5816015Y-8118246D01*
X5816015Y-8118246D02*
X5816015Y-8080151D01*
X5816015Y-8080151D02*
X5825539Y-8032532D01*
X5825539Y-8032532D02*
X5835063Y-8003960D01*
X5835063Y-8003960D02*
X5844586Y-7984913D01*
X5844586Y-7984913D02*
X5863634Y-7956341D01*
X5863634Y-7956341D02*
X5873158Y-7946817D01*
X6054110Y-8175389D02*
X5939824Y-8175389D01*
X5996967Y-8175389D02*
X5996967Y-7975389D01*
X5996967Y-7975389D02*
X5977920Y-8003960D01*
X5977920Y-8003960D02*
X5958872Y-8023008D01*
X5958872Y-8023008D02*
X5939824Y-8032532D01*
X6130301Y-7994436D02*
X6139824Y-7984913D01*
X6139824Y-7984913D02*
X6158872Y-7975389D01*
X6158872Y-7975389D02*
X6206491Y-7975389D01*
X6206491Y-7975389D02*
X6225539Y-7984913D01*
X6225539Y-7984913D02*
X6235063Y-7994436D01*
X6235063Y-7994436D02*
X6244586Y-8013484D01*
X6244586Y-8013484D02*
X6244586Y-8032532D01*
X6244586Y-8032532D02*
X6235063Y-8061103D01*
X6235063Y-8061103D02*
X6120777Y-8175389D01*
X6120777Y-8175389D02*
X6244586Y-8175389D01*
X6482682Y-8175389D02*
X6482682Y-7975389D01*
X6568396Y-8175389D02*
X6568396Y-8070627D01*
X6568396Y-8070627D02*
X6558872Y-8051579D01*
X6558872Y-8051579D02*
X6539825Y-8042055D01*
X6539825Y-8042055D02*
X6511253Y-8042055D01*
X6511253Y-8042055D02*
X6492205Y-8051579D01*
X6492205Y-8051579D02*
X6482682Y-8061103D01*
X6692205Y-8175389D02*
X6673158Y-8165865D01*
X6673158Y-8165865D02*
X6663634Y-8156341D01*
X6663634Y-8156341D02*
X6654110Y-8137293D01*
X6654110Y-8137293D02*
X6654110Y-8080151D01*
X6654110Y-8080151D02*
X6663634Y-8061103D01*
X6663634Y-8061103D02*
X6673158Y-8051579D01*
X6673158Y-8051579D02*
X6692205Y-8042055D01*
X6692205Y-8042055D02*
X6720777Y-8042055D01*
X6720777Y-8042055D02*
X6739825Y-8051579D01*
X6739825Y-8051579D02*
X6749348Y-8061103D01*
X6749348Y-8061103D02*
X6758872Y-8080151D01*
X6758872Y-8080151D02*
X6758872Y-8137293D01*
X6758872Y-8137293D02*
X6749348Y-8156341D01*
X6749348Y-8156341D02*
X6739825Y-8165865D01*
X6739825Y-8165865D02*
X6720777Y-8175389D01*
X6720777Y-8175389D02*
X6692205Y-8175389D01*
X6873158Y-8175389D02*
X6854110Y-8165865D01*
X6854110Y-8165865D02*
X6844586Y-8146817D01*
X6844586Y-8146817D02*
X6844586Y-7975389D01*
X7025539Y-8165865D02*
X7006491Y-8175389D01*
X7006491Y-8175389D02*
X6968396Y-8175389D01*
X6968396Y-8175389D02*
X6949348Y-8165865D01*
X6949348Y-8165865D02*
X6939825Y-8146817D01*
X6939825Y-8146817D02*
X6939825Y-8070627D01*
X6939825Y-8070627D02*
X6949348Y-8051579D01*
X6949348Y-8051579D02*
X6968396Y-8042055D01*
X6968396Y-8042055D02*
X7006491Y-8042055D01*
X7006491Y-8042055D02*
X7025539Y-8051579D01*
X7025539Y-8051579D02*
X7035063Y-8070627D01*
X7035063Y-8070627D02*
X7035063Y-8089674D01*
X7035063Y-8089674D02*
X6939825Y-8108722D01*
X7111253Y-8165865D02*
X7130301Y-8175389D01*
X7130301Y-8175389D02*
X7168396Y-8175389D01*
X7168396Y-8175389D02*
X7187444Y-8165865D01*
X7187444Y-8165865D02*
X7196967Y-8146817D01*
X7196967Y-8146817D02*
X7196967Y-8137293D01*
X7196967Y-8137293D02*
X7187444Y-8118246D01*
X7187444Y-8118246D02*
X7168396Y-8108722D01*
X7168396Y-8108722D02*
X7139825Y-8108722D01*
X7139825Y-8108722D02*
X7120777Y-8099198D01*
X7120777Y-8099198D02*
X7111253Y-8080151D01*
X7111253Y-8080151D02*
X7111253Y-8070627D01*
X7111253Y-8070627D02*
X7120777Y-8051579D01*
X7120777Y-8051579D02*
X7139825Y-8042055D01*
X7139825Y-8042055D02*
X7168396Y-8042055D01*
X7168396Y-8042055D02*
X7187444Y-8051579D01*
X7263634Y-8251579D02*
X7273158Y-8242055D01*
X7273158Y-8242055D02*
X7292206Y-8213484D01*
X7292206Y-8213484D02*
X7301729Y-8194436D01*
X7301729Y-8194436D02*
X7311253Y-8165865D01*
X7311253Y-8165865D02*
X7320777Y-8118246D01*
X7320777Y-8118246D02*
X7320777Y-8080151D01*
X7320777Y-8080151D02*
X7311253Y-8032532D01*
X7311253Y-8032532D02*
X7301729Y-8003960D01*
X7301729Y-8003960D02*
X7292206Y-7984913D01*
X7292206Y-7984913D02*
X7273158Y-7956341D01*
X7273158Y-7956341D02*
X7263634Y-7946817D01*
X2198095Y-8447905D02*
X2298095Y-8347905D01*
X2198095Y-8247905D01*
X2098095Y-8347905D01*
X2198095Y-8447905D01*
X2549348Y-8258436D02*
X2558872Y-8248913D01*
X2558872Y-8248913D02*
X2577919Y-8239389D01*
X2577919Y-8239389D02*
X2625539Y-8239389D01*
X2625539Y-8239389D02*
X2644586Y-8248913D01*
X2644586Y-8248913D02*
X2654110Y-8258436D01*
X2654110Y-8258436D02*
X2663634Y-8277484D01*
X2663634Y-8277484D02*
X2663634Y-8296532D01*
X2663634Y-8296532D02*
X2654110Y-8325103D01*
X2654110Y-8325103D02*
X2539824Y-8439389D01*
X2539824Y-8439389D02*
X2663634Y-8439389D01*
X2749348Y-8420341D02*
X2758872Y-8429865D01*
X2758872Y-8429865D02*
X2749348Y-8439389D01*
X2749348Y-8439389D02*
X2739824Y-8429865D01*
X2739824Y-8429865D02*
X2749348Y-8420341D01*
X2749348Y-8420341D02*
X2749348Y-8439389D01*
X2835062Y-8258436D02*
X2844586Y-8248913D01*
X2844586Y-8248913D02*
X2863634Y-8239389D01*
X2863634Y-8239389D02*
X2911253Y-8239389D01*
X2911253Y-8239389D02*
X2930300Y-8248913D01*
X2930300Y-8248913D02*
X2939824Y-8258436D01*
X2939824Y-8258436D02*
X2949348Y-8277484D01*
X2949348Y-8277484D02*
X2949348Y-8296532D01*
X2949348Y-8296532D02*
X2939824Y-8325103D01*
X2939824Y-8325103D02*
X2825538Y-8439389D01*
X2825538Y-8439389D02*
X2949348Y-8439389D01*
X3073157Y-8239389D02*
X3092205Y-8239389D01*
X3092205Y-8239389D02*
X3111253Y-8248913D01*
X3111253Y-8248913D02*
X3120777Y-8258436D01*
X3120777Y-8258436D02*
X3130300Y-8277484D01*
X3130300Y-8277484D02*
X3139824Y-8315579D01*
X3139824Y-8315579D02*
X3139824Y-8363198D01*
X3139824Y-8363198D02*
X3130300Y-8401294D01*
X3130300Y-8401294D02*
X3120777Y-8420341D01*
X3120777Y-8420341D02*
X3111253Y-8429865D01*
X3111253Y-8429865D02*
X3092205Y-8439389D01*
X3092205Y-8439389D02*
X3073157Y-8439389D01*
X3073157Y-8439389D02*
X3054110Y-8429865D01*
X3054110Y-8429865D02*
X3044586Y-8420341D01*
X3044586Y-8420341D02*
X3035062Y-8401294D01*
X3035062Y-8401294D02*
X3025538Y-8363198D01*
X3025538Y-8363198D02*
X3025538Y-8315579D01*
X3025538Y-8315579D02*
X3035062Y-8277484D01*
X3035062Y-8277484D02*
X3044586Y-8258436D01*
X3044586Y-8258436D02*
X3054110Y-8248913D01*
X3054110Y-8248913D02*
X3073157Y-8239389D01*
X3263634Y-8239389D02*
X3282681Y-8239389D01*
X3282681Y-8239389D02*
X3301729Y-8248913D01*
X3301729Y-8248913D02*
X3311253Y-8258436D01*
X3311253Y-8258436D02*
X3320777Y-8277484D01*
X3320777Y-8277484D02*
X3330300Y-8315579D01*
X3330300Y-8315579D02*
X3330300Y-8363198D01*
X3330300Y-8363198D02*
X3320777Y-8401294D01*
X3320777Y-8401294D02*
X3311253Y-8420341D01*
X3311253Y-8420341D02*
X3301729Y-8429865D01*
X3301729Y-8429865D02*
X3282681Y-8439389D01*
X3282681Y-8439389D02*
X3263634Y-8439389D01*
X3263634Y-8439389D02*
X3244586Y-8429865D01*
X3244586Y-8429865D02*
X3235062Y-8420341D01*
X3235062Y-8420341D02*
X3225538Y-8401294D01*
X3225538Y-8401294D02*
X3216015Y-8363198D01*
X3216015Y-8363198D02*
X3216015Y-8315579D01*
X3216015Y-8315579D02*
X3225538Y-8277484D01*
X3225538Y-8277484D02*
X3235062Y-8258436D01*
X3235062Y-8258436D02*
X3244586Y-8248913D01*
X3244586Y-8248913D02*
X3263634Y-8239389D01*
X3416015Y-8439389D02*
X3416015Y-8306055D01*
X3416015Y-8325103D02*
X3425538Y-8315579D01*
X3425538Y-8315579D02*
X3444586Y-8306055D01*
X3444586Y-8306055D02*
X3473158Y-8306055D01*
X3473158Y-8306055D02*
X3492205Y-8315579D01*
X3492205Y-8315579D02*
X3501729Y-8334627D01*
X3501729Y-8334627D02*
X3501729Y-8439389D01*
X3501729Y-8334627D02*
X3511253Y-8315579D01*
X3511253Y-8315579D02*
X3530300Y-8306055D01*
X3530300Y-8306055D02*
X3558872Y-8306055D01*
X3558872Y-8306055D02*
X3577919Y-8315579D01*
X3577919Y-8315579D02*
X3587443Y-8334627D01*
X3587443Y-8334627D02*
X3587443Y-8439389D01*
X3682681Y-8439389D02*
X3682681Y-8306055D01*
X3682681Y-8325103D02*
X3692205Y-8315579D01*
X3692205Y-8315579D02*
X3711253Y-8306055D01*
X3711253Y-8306055D02*
X3739824Y-8306055D01*
X3739824Y-8306055D02*
X3758872Y-8315579D01*
X3758872Y-8315579D02*
X3768396Y-8334627D01*
X3768396Y-8334627D02*
X3768396Y-8439389D01*
X3768396Y-8334627D02*
X3777919Y-8315579D01*
X3777919Y-8315579D02*
X3796967Y-8306055D01*
X3796967Y-8306055D02*
X3825538Y-8306055D01*
X3825538Y-8306055D02*
X3844586Y-8315579D01*
X3844586Y-8315579D02*
X3854110Y-8334627D01*
X3854110Y-8334627D02*
X3854110Y-8439389D01*
X4244586Y-8229865D02*
X4073158Y-8487008D01*
X4501729Y-8239389D02*
X4520777Y-8239389D01*
X4520777Y-8239389D02*
X4539824Y-8248913D01*
X4539824Y-8248913D02*
X4549348Y-8258436D01*
X4549348Y-8258436D02*
X4558872Y-8277484D01*
X4558872Y-8277484D02*
X4568396Y-8315579D01*
X4568396Y-8315579D02*
X4568396Y-8363198D01*
X4568396Y-8363198D02*
X4558872Y-8401294D01*
X4558872Y-8401294D02*
X4549348Y-8420341D01*
X4549348Y-8420341D02*
X4539824Y-8429865D01*
X4539824Y-8429865D02*
X4520777Y-8439389D01*
X4520777Y-8439389D02*
X4501729Y-8439389D01*
X4501729Y-8439389D02*
X4482682Y-8429865D01*
X4482682Y-8429865D02*
X4473158Y-8420341D01*
X4473158Y-8420341D02*
X4463634Y-8401294D01*
X4463634Y-8401294D02*
X4454110Y-8363198D01*
X4454110Y-8363198D02*
X4454110Y-8315579D01*
X4454110Y-8315579D02*
X4463634Y-8277484D01*
X4463634Y-8277484D02*
X4473158Y-8258436D01*
X4473158Y-8258436D02*
X4482682Y-8248913D01*
X4482682Y-8248913D02*
X4501729Y-8239389D01*
X4654110Y-8420341D02*
X4663634Y-8429865D01*
X4663634Y-8429865D02*
X4654110Y-8439389D01*
X4654110Y-8439389D02*
X4644586Y-8429865D01*
X4644586Y-8429865D02*
X4654110Y-8420341D01*
X4654110Y-8420341D02*
X4654110Y-8439389D01*
X4787443Y-8239389D02*
X4806491Y-8239389D01*
X4806491Y-8239389D02*
X4825539Y-8248913D01*
X4825539Y-8248913D02*
X4835063Y-8258436D01*
X4835063Y-8258436D02*
X4844586Y-8277484D01*
X4844586Y-8277484D02*
X4854110Y-8315579D01*
X4854110Y-8315579D02*
X4854110Y-8363198D01*
X4854110Y-8363198D02*
X4844586Y-8401294D01*
X4844586Y-8401294D02*
X4835063Y-8420341D01*
X4835063Y-8420341D02*
X4825539Y-8429865D01*
X4825539Y-8429865D02*
X4806491Y-8439389D01*
X4806491Y-8439389D02*
X4787443Y-8439389D01*
X4787443Y-8439389D02*
X4768396Y-8429865D01*
X4768396Y-8429865D02*
X4758872Y-8420341D01*
X4758872Y-8420341D02*
X4749348Y-8401294D01*
X4749348Y-8401294D02*
X4739824Y-8363198D01*
X4739824Y-8363198D02*
X4739824Y-8315579D01*
X4739824Y-8315579D02*
X4749348Y-8277484D01*
X4749348Y-8277484D02*
X4758872Y-8258436D01*
X4758872Y-8258436D02*
X4768396Y-8248913D01*
X4768396Y-8248913D02*
X4787443Y-8239389D01*
X4968396Y-8325103D02*
X4949348Y-8315579D01*
X4949348Y-8315579D02*
X4939824Y-8306055D01*
X4939824Y-8306055D02*
X4930301Y-8287008D01*
X4930301Y-8287008D02*
X4930301Y-8277484D01*
X4930301Y-8277484D02*
X4939824Y-8258436D01*
X4939824Y-8258436D02*
X4949348Y-8248913D01*
X4949348Y-8248913D02*
X4968396Y-8239389D01*
X4968396Y-8239389D02*
X5006491Y-8239389D01*
X5006491Y-8239389D02*
X5025539Y-8248913D01*
X5025539Y-8248913D02*
X5035063Y-8258436D01*
X5035063Y-8258436D02*
X5044586Y-8277484D01*
X5044586Y-8277484D02*
X5044586Y-8287008D01*
X5044586Y-8287008D02*
X5035063Y-8306055D01*
X5035063Y-8306055D02*
X5025539Y-8315579D01*
X5025539Y-8315579D02*
X5006491Y-8325103D01*
X5006491Y-8325103D02*
X4968396Y-8325103D01*
X4968396Y-8325103D02*
X4949348Y-8334627D01*
X4949348Y-8334627D02*
X4939824Y-8344151D01*
X4939824Y-8344151D02*
X4930301Y-8363198D01*
X4930301Y-8363198D02*
X4930301Y-8401294D01*
X4930301Y-8401294D02*
X4939824Y-8420341D01*
X4939824Y-8420341D02*
X4949348Y-8429865D01*
X4949348Y-8429865D02*
X4968396Y-8439389D01*
X4968396Y-8439389D02*
X5006491Y-8439389D01*
X5006491Y-8439389D02*
X5025539Y-8429865D01*
X5025539Y-8429865D02*
X5035063Y-8420341D01*
X5035063Y-8420341D02*
X5044586Y-8401294D01*
X5044586Y-8401294D02*
X5044586Y-8363198D01*
X5044586Y-8363198D02*
X5035063Y-8344151D01*
X5035063Y-8344151D02*
X5025539Y-8334627D01*
X5025539Y-8334627D02*
X5006491Y-8325103D01*
X5216015Y-8239389D02*
X5177920Y-8239389D01*
X5177920Y-8239389D02*
X5158872Y-8248913D01*
X5158872Y-8248913D02*
X5149348Y-8258436D01*
X5149348Y-8258436D02*
X5130301Y-8287008D01*
X5130301Y-8287008D02*
X5120777Y-8325103D01*
X5120777Y-8325103D02*
X5120777Y-8401294D01*
X5120777Y-8401294D02*
X5130301Y-8420341D01*
X5130301Y-8420341D02*
X5139824Y-8429865D01*
X5139824Y-8429865D02*
X5158872Y-8439389D01*
X5158872Y-8439389D02*
X5196967Y-8439389D01*
X5196967Y-8439389D02*
X5216015Y-8429865D01*
X5216015Y-8429865D02*
X5225539Y-8420341D01*
X5225539Y-8420341D02*
X5235063Y-8401294D01*
X5235063Y-8401294D02*
X5235063Y-8353674D01*
X5235063Y-8353674D02*
X5225539Y-8334627D01*
X5225539Y-8334627D02*
X5216015Y-8325103D01*
X5216015Y-8325103D02*
X5196967Y-8315579D01*
X5196967Y-8315579D02*
X5158872Y-8315579D01*
X5158872Y-8315579D02*
X5139824Y-8325103D01*
X5139824Y-8325103D02*
X5130301Y-8334627D01*
X5130301Y-8334627D02*
X5120777Y-8353674D01*
X5406491Y-8239389D02*
X5368396Y-8239389D01*
X5368396Y-8239389D02*
X5349348Y-8248913D01*
X5349348Y-8248913D02*
X5339824Y-8258436D01*
X5339824Y-8258436D02*
X5320777Y-8287008D01*
X5320777Y-8287008D02*
X5311253Y-8325103D01*
X5311253Y-8325103D02*
X5311253Y-8401294D01*
X5311253Y-8401294D02*
X5320777Y-8420341D01*
X5320777Y-8420341D02*
X5330301Y-8429865D01*
X5330301Y-8429865D02*
X5349348Y-8439389D01*
X5349348Y-8439389D02*
X5387444Y-8439389D01*
X5387444Y-8439389D02*
X5406491Y-8429865D01*
X5406491Y-8429865D02*
X5416015Y-8420341D01*
X5416015Y-8420341D02*
X5425539Y-8401294D01*
X5425539Y-8401294D02*
X5425539Y-8353674D01*
X5425539Y-8353674D02*
X5416015Y-8334627D01*
X5416015Y-8334627D02*
X5406491Y-8325103D01*
X5406491Y-8325103D02*
X5387444Y-8315579D01*
X5387444Y-8315579D02*
X5349348Y-8315579D01*
X5349348Y-8315579D02*
X5330301Y-8325103D01*
X5330301Y-8325103D02*
X5320777Y-8334627D01*
X5320777Y-8334627D02*
X5311253Y-8353674D01*
X5501729Y-8239389D02*
X5501729Y-8277484D01*
X5577920Y-8239389D02*
X5577920Y-8277484D01*
X5873158Y-8515579D02*
X5863634Y-8506055D01*
X5863634Y-8506055D02*
X5844586Y-8477484D01*
X5844586Y-8477484D02*
X5835063Y-8458436D01*
X5835063Y-8458436D02*
X5825539Y-8429865D01*
X5825539Y-8429865D02*
X5816015Y-8382246D01*
X5816015Y-8382246D02*
X5816015Y-8344151D01*
X5816015Y-8344151D02*
X5825539Y-8296532D01*
X5825539Y-8296532D02*
X5835063Y-8267960D01*
X5835063Y-8267960D02*
X5844586Y-8248913D01*
X5844586Y-8248913D02*
X5863634Y-8220341D01*
X5863634Y-8220341D02*
X5873158Y-8210817D01*
X5939824Y-8258436D02*
X5949348Y-8248913D01*
X5949348Y-8248913D02*
X5968396Y-8239389D01*
X5968396Y-8239389D02*
X6016015Y-8239389D01*
X6016015Y-8239389D02*
X6035063Y-8248913D01*
X6035063Y-8248913D02*
X6044586Y-8258436D01*
X6044586Y-8258436D02*
X6054110Y-8277484D01*
X6054110Y-8277484D02*
X6054110Y-8296532D01*
X6054110Y-8296532D02*
X6044586Y-8325103D01*
X6044586Y-8325103D02*
X5930301Y-8439389D01*
X5930301Y-8439389D02*
X6054110Y-8439389D01*
X6292205Y-8439389D02*
X6292205Y-8239389D01*
X6377920Y-8439389D02*
X6377920Y-8334627D01*
X6377920Y-8334627D02*
X6368396Y-8315579D01*
X6368396Y-8315579D02*
X6349348Y-8306055D01*
X6349348Y-8306055D02*
X6320777Y-8306055D01*
X6320777Y-8306055D02*
X6301729Y-8315579D01*
X6301729Y-8315579D02*
X6292205Y-8325103D01*
X6501729Y-8439389D02*
X6482682Y-8429865D01*
X6482682Y-8429865D02*
X6473158Y-8420341D01*
X6473158Y-8420341D02*
X6463634Y-8401294D01*
X6463634Y-8401294D02*
X6463634Y-8344151D01*
X6463634Y-8344151D02*
X6473158Y-8325103D01*
X6473158Y-8325103D02*
X6482682Y-8315579D01*
X6482682Y-8315579D02*
X6501729Y-8306055D01*
X6501729Y-8306055D02*
X6530301Y-8306055D01*
X6530301Y-8306055D02*
X6549348Y-8315579D01*
X6549348Y-8315579D02*
X6558872Y-8325103D01*
X6558872Y-8325103D02*
X6568396Y-8344151D01*
X6568396Y-8344151D02*
X6568396Y-8401294D01*
X6568396Y-8401294D02*
X6558872Y-8420341D01*
X6558872Y-8420341D02*
X6549348Y-8429865D01*
X6549348Y-8429865D02*
X6530301Y-8439389D01*
X6530301Y-8439389D02*
X6501729Y-8439389D01*
X6682682Y-8439389D02*
X6663634Y-8429865D01*
X6663634Y-8429865D02*
X6654110Y-8410817D01*
X6654110Y-8410817D02*
X6654110Y-8239389D01*
X6835063Y-8429865D02*
X6816015Y-8439389D01*
X6816015Y-8439389D02*
X6777920Y-8439389D01*
X6777920Y-8439389D02*
X6758872Y-8429865D01*
X6758872Y-8429865D02*
X6749348Y-8410817D01*
X6749348Y-8410817D02*
X6749348Y-8334627D01*
X6749348Y-8334627D02*
X6758872Y-8315579D01*
X6758872Y-8315579D02*
X6777920Y-8306055D01*
X6777920Y-8306055D02*
X6816015Y-8306055D01*
X6816015Y-8306055D02*
X6835063Y-8315579D01*
X6835063Y-8315579D02*
X6844586Y-8334627D01*
X6844586Y-8334627D02*
X6844586Y-8353674D01*
X6844586Y-8353674D02*
X6749348Y-8372722D01*
X6920777Y-8429865D02*
X6939825Y-8439389D01*
X6939825Y-8439389D02*
X6977920Y-8439389D01*
X6977920Y-8439389D02*
X6996967Y-8429865D01*
X6996967Y-8429865D02*
X7006491Y-8410817D01*
X7006491Y-8410817D02*
X7006491Y-8401294D01*
X7006491Y-8401294D02*
X6996967Y-8382246D01*
X6996967Y-8382246D02*
X6977920Y-8372722D01*
X6977920Y-8372722D02*
X6949348Y-8372722D01*
X6949348Y-8372722D02*
X6930301Y-8363198D01*
X6930301Y-8363198D02*
X6920777Y-8344151D01*
X6920777Y-8344151D02*
X6920777Y-8334627D01*
X6920777Y-8334627D02*
X6930301Y-8315579D01*
X6930301Y-8315579D02*
X6949348Y-8306055D01*
X6949348Y-8306055D02*
X6977920Y-8306055D01*
X6977920Y-8306055D02*
X6996967Y-8315579D01*
X7073158Y-8515579D02*
X7082682Y-8506055D01*
X7082682Y-8506055D02*
X7101729Y-8477484D01*
X7101729Y-8477484D02*
X7111253Y-8458436D01*
X7111253Y-8458436D02*
X7120777Y-8429865D01*
X7120777Y-8429865D02*
X7130301Y-8382246D01*
X7130301Y-8382246D02*
X7130301Y-8344151D01*
X7130301Y-8344151D02*
X7120777Y-8296532D01*
X7120777Y-8296532D02*
X7111253Y-8267960D01*
X7111253Y-8267960D02*
X7101729Y-8248913D01*
X7101729Y-8248913D02*
X7082682Y-8220341D01*
X7082682Y-8220341D02*
X7073158Y-8210817D01*
M02*
